<svg width="438" height="440" viewBox="0 0 438 440" fill="none" xmlns="http://www.w3.org/2000/svg">
<g opacity="0.8">
<path d="M198.253 407.729L6.65887 297.399C-1.95781 292.5 -0.775129 283.714 9.02424 277.969L181.02 178.791C190.988 173.046 206.025 172.539 214.642 177.439L406.236 287.769C414.853 292.669 413.67 301.454 403.871 307.199L231.875 406.546C221.907 412.122 206.87 412.798 198.253 407.729Z" fill="url(#paint0_radial_117_3156)"/>
</g>
<path opacity="0.1" d="M74.4096 117.121C58.5278 125.062 32.8467 125.062 16.965 117.121C1.08328 109.18 1.08328 96.5083 16.965 88.5673C32.8467 80.6263 58.5278 80.6263 74.4096 88.5673C90.2913 96.5083 90.2913 109.18 74.4096 117.121Z" fill="url(#paint1_radial_117_3156)"/>
<path d="M72.3823 91.7775V99.0427C72.3823 102.929 69.848 106.815 64.6104 109.856C54.3041 115.77 37.7466 115.77 27.4404 109.856C22.3717 106.815 19.6685 102.929 19.6685 99.0427V91.2706" stroke="#C0C0C0" stroke-width="0.1883" stroke-miterlimit="10"/>
<path d="M21.5269 97.86V104.28C21.8648 104.618 22.0337 105.125 22.3716 105.463V97.86H21.5269Z" fill="#C0C0C0"/>
<path d="M24.5684 101.07V107.66C24.9063 107.829 25.0752 108.166 25.4131 108.335V100.901L24.5684 101.07Z" fill="#C0C0C0"/>
<path d="M27.6094 103.098V109.856C27.9473 110.025 28.1162 110.194 28.4541 110.363V103.098H27.6094Z" fill="#C0C0C0"/>
<path d="M30.6504 104.618V111.377C30.9883 111.546 31.1573 111.715 31.4952 111.715V104.618H30.6504Z" fill="#C0C0C0"/>
<path d="M33.6919 105.632V112.39C34.0298 112.559 34.1988 112.559 34.5367 112.728V105.632H33.6919Z" fill="#C0C0C0"/>
<path d="M36.564 106.308V113.235C36.9019 113.235 37.0708 113.404 37.4087 113.404V106.308H36.564Z" fill="#C0C0C0"/>
<path d="M40.4498 107.153H39.605V113.911C39.9429 113.911 40.1118 114.08 40.4498 114.08V107.153Z" fill="#C0C0C0"/>
<path d="M42.6465 107.153V114.249C42.9844 114.249 43.1533 114.249 43.4913 114.249V107.153H42.6465Z" fill="#C0C0C0"/>
<path d="M45.6875 107.153V114.418C46.0254 114.418 46.1944 114.418 46.5323 114.418V107.153H45.6875Z" fill="#C0C0C0"/>
<path d="M48.7285 107.153V114.249C49.0664 114.249 49.2354 114.249 49.5733 114.249V107.153H48.7285Z" fill="#C0C0C0"/>
<path d="M51.77 107.153V113.911C52.1079 113.911 52.2769 113.911 52.6148 113.742V106.984H51.77V107.153Z" fill="#C0C0C0"/>
<path d="M54.811 106.308V113.404C55.1489 113.404 55.3179 113.235 55.6558 113.235V106.308H54.811Z" fill="#C0C0C0"/>
<path d="M57.8521 105.632V112.728C58.19 112.728 58.3589 112.559 58.6968 112.39V105.463H57.8521V105.632Z" fill="#C0C0C0"/>
<path d="M60.8936 104.28V111.715C61.2315 111.546 61.4004 111.546 61.7383 111.377V104.28H60.8936Z" fill="#C0C0C0"/>
<path d="M63.9346 103.098V110.194C64.2725 110.025 64.6104 109.856 64.7793 109.687V102.929H63.9346V103.098Z" fill="#C0C0C0"/>
<path d="M66.8066 101.07V108.504C67.1445 108.335 67.4825 107.997 67.6514 107.829V101.239H66.8066V101.07Z" fill="#C0C0C0"/>
<path d="M69.8481 97.86V105.463C70.186 105.125 70.524 104.618 70.6929 104.28V97.86H69.8481Z" fill="#C0C0C0"/>
<path d="M64.7796 102.76C54.4733 108.673 37.9158 108.673 27.6096 102.76C17.3033 96.8462 17.3033 87.2156 27.6096 81.3021C37.9158 75.3886 54.4733 75.3886 64.7796 81.3021C75.0858 87.2156 75.0858 96.8462 64.7796 102.76Z" stroke="#C0C0C0" stroke-width="0.1883" stroke-miterlimit="10"/>
<path d="M62.414 100.732C53.4594 105.97 38.9293 105.97 29.9747 100.732C21.0201 95.4945 21.0201 87.2156 29.9747 81.9779C38.9293 76.7402 53.4594 76.7402 62.414 81.9779C71.3686 87.2156 71.3686 95.4945 62.414 100.732Z" stroke="#C0C0C0" stroke-width="0.1883" stroke-miterlimit="10"/>
<path d="M230.524 90.088C230.524 97.6911 228.328 103.605 224.442 106.984C223.259 107.998 215.994 113.066 214.643 113.742C209.574 115.77 209.067 110.701 201.971 106.646C186.089 97.5221 173.249 75.2197 173.249 56.9722C173.249 50.0449 168.687 49.0312 171.897 45.4831C172.742 44.6383 180.176 39.4006 181.19 38.7247C186.427 35.3456 193.861 35.6835 202.14 40.4143C217.684 49.538 230.524 71.6716 230.524 90.088Z" fill="url(#paint2_linear_117_3156)"/>
<path d="M223.766 94.6498C223.766 112.897 210.925 120.331 195.044 111.208C179.162 102.084 166.321 79.7815 166.321 61.534C166.321 43.2865 179.162 35.8524 195.044 44.9761C210.925 54.0999 223.766 76.4023 223.766 94.6498Z" fill="url(#paint3_linear_117_3156)"/>
<path d="M220.387 92.6223C220.387 108.842 209.067 115.432 195.043 107.322C181.02 99.2117 169.7 79.6125 169.7 63.3926C169.7 47.1726 181.02 40.5832 195.043 48.6932C208.898 56.8032 220.387 76.5713 220.387 92.6223Z" stroke="#C0C0C0" stroke-width="0.6873" stroke-miterlimit="10"/>
<path d="M197.24 357.549L77.9579 288.783C72.5514 285.741 72.5514 269.521 74.7478 264.115L186.596 206.162C192.678 202.614 202.14 202.276 207.546 205.317L329.531 267.494C333.924 274.59 331.559 291.317 325.307 294.865L218.19 356.704C211.939 360.252 202.646 360.59 197.24 357.549Z" fill="url(#paint4_linear_117_3156)"/>
<path d="M197.24 339.808L77.9578 271.211C72.5512 268.17 73.227 262.763 79.4784 259.215L186.427 197.376C192.509 193.828 201.97 193.49 207.377 196.532L326.659 265.128C332.065 268.17 331.39 273.576 325.138 277.124L218.19 338.963C211.939 342.511 202.646 342.849 197.24 339.808Z" fill="url(#paint5_linear_117_3156)"/>
<path d="M197.071 331.867L91.8123 271.211C86.4057 268.17 87.0815 262.763 93.3328 259.215L186.765 205.317C192.847 201.769 202.309 201.431 207.715 204.473L312.974 265.128C318.38 268.17 317.705 273.576 311.453 277.124L218.021 331.022C211.77 334.57 202.478 334.908 197.071 331.867Z" fill="url(#paint6_linear_117_3156)"/>
<path opacity="0.1" d="M259.246 296.048C227.314 311.592 175.445 311.592 143.512 296.048C111.58 280.504 111.58 255.16 143.512 239.616C175.445 224.072 227.314 224.072 259.246 239.616C291.179 255.329 291.179 280.504 259.246 296.048Z" fill="url(#paint7_radial_117_3156)"/>
<path opacity="0.1" d="M251.812 289.121C224.949 302.299 181.189 302.299 154.326 289.121C127.462 275.942 127.462 254.822 154.326 241.643C181.189 228.465 224.949 228.465 251.812 241.643C278.845 254.822 278.845 275.942 251.812 289.121Z" fill="url(#paint8_radial_117_3156)"/>
<path d="M144.02 238.771L264.146 239.785V256.512C264.146 265.466 258.233 274.252 246.575 281.01C223.09 294.527 185.075 294.527 161.591 281.01C149.933 274.252 144.02 265.297 144.02 256.512V238.771Z" fill="url(#paint9_linear_117_3156)"/>
<path d="M149.764 236.744H147.736V293.175H149.764V236.744Z" fill="#C0C0C0"/>
<path d="M156.691 236.744H154.664V293.175H156.691V236.744Z" fill="#C0C0C0"/>
<path d="M163.618 236.744H161.591V293.175H163.618V236.744Z" fill="#C0C0C0"/>
<path d="M170.545 236.744H168.518V293.175H170.545V236.744Z" fill="#C0C0C0"/>
<path d="M177.472 236.744H175.445V293.175H177.472V236.744Z" fill="#C0C0C0"/>
<path d="M184.4 236.744H182.372V293.175H184.4V236.744Z" fill="#C0C0C0"/>
<path d="M191.158 236.744H189.13V293.175H191.158V236.744Z" fill="#C0C0C0"/>
<path d="M198.085 236.744H196.057V293.175H198.085V236.744Z" fill="#C0C0C0"/>
<path d="M205.012 236.744H202.984V293.175H205.012V236.744Z" fill="#C0C0C0"/>
<path d="M211.939 236.744H209.912V293.175H211.939V236.744Z" fill="#C0C0C0"/>
<path d="M218.866 236.744H216.839V293.175H218.866V236.744Z" fill="#C0C0C0"/>
<path d="M225.794 236.744H223.766V293.175H225.794V236.744Z" fill="#C0C0C0"/>
<path d="M232.72 236.744H230.693V293.175H232.72V236.744Z" fill="#C0C0C0"/>
<path d="M239.648 236.744H237.62V293.175H239.648V236.744Z" fill="#C0C0C0"/>
<path d="M246.406 236.744H244.378V293.175H246.406V236.744Z" fill="#C0C0C0"/>
<path d="M253.333 236.744H251.306V293.175H253.333V236.744Z" fill="#C0C0C0"/>
<path d="M260.26 236.744H258.232V293.175H260.26V236.744Z" fill="#C0C0C0"/>
<path d="M246.575 264.959C223.09 278.476 185.075 278.476 161.591 264.959C138.106 251.443 138.106 229.478 161.591 215.962C185.075 202.445 223.09 202.445 246.575 215.962C269.89 229.478 269.89 251.443 246.575 264.959Z" fill="url(#paint10_linear_117_3156)"/>
<path d="M241.168 260.229C220.725 272.056 187.441 272.056 166.997 260.229C146.554 248.402 146.554 229.14 166.997 217.313C187.441 205.486 220.725 205.486 241.168 217.313C261.612 229.14 261.612 248.402 241.168 260.229Z" stroke="#C0C0C0" stroke-width="1.1865" stroke-miterlimit="10"/>
<path d="M144.02 219.172L264.146 220.186V236.912C264.146 245.867 258.233 254.653 246.575 261.411C223.09 274.928 185.075 274.928 161.591 261.411C149.933 254.653 144.02 245.698 144.02 236.912V219.172Z" fill="url(#paint11_linear_117_3156)"/>
<path d="M149.764 216.975H147.736V273.407H149.764V216.975Z" fill="#C0C0C0"/>
<path d="M156.691 216.975H154.664V273.407H156.691V216.975Z" fill="#C0C0C0"/>
<path d="M163.618 216.975H161.591V273.407H163.618V216.975Z" fill="#C0C0C0"/>
<path d="M170.545 216.975H168.518V273.407H170.545V216.975Z" fill="#C0C0C0"/>
<path d="M177.472 216.975H175.445V273.407H177.472V216.975Z" fill="#C0C0C0"/>
<path d="M184.4 216.975H182.372V273.407H184.4V216.975Z" fill="#C0C0C0"/>
<path d="M191.158 216.975H189.13V273.407H191.158V216.975Z" fill="#C0C0C0"/>
<path d="M198.085 216.975H196.057V273.407H198.085V216.975Z" fill="#C0C0C0"/>
<path d="M205.012 216.975H202.984V273.407H205.012V216.975Z" fill="#C0C0C0"/>
<path d="M211.939 216.975H209.912V273.407H211.939V216.975Z" fill="#C0C0C0"/>
<path d="M218.866 216.975H216.839V273.407H218.866V216.975Z" fill="#C0C0C0"/>
<path d="M225.794 216.975H223.766V273.407H225.794V216.975Z" fill="#C0C0C0"/>
<path d="M232.72 216.975H230.693V273.407H232.72V216.975Z" fill="#C0C0C0"/>
<path d="M239.648 216.975H237.62V273.407H239.648V216.975Z" fill="#C0C0C0"/>
<path d="M246.406 216.975H244.378V273.407H246.406V216.975Z" fill="#C0C0C0"/>
<path d="M253.333 216.975H251.306V273.407H253.333V216.975Z" fill="#C0C0C0"/>
<path d="M260.26 216.975H258.232V273.407H260.26V216.975Z" fill="#C0C0C0"/>
<path d="M246.575 245.191C223.09 258.708 185.075 258.708 161.591 245.191C138.106 231.675 138.106 209.71 161.591 196.194C185.075 182.677 223.09 182.677 246.575 196.194C269.89 209.71 269.89 231.675 246.575 245.191Z" fill="url(#paint12_linear_117_3156)"/>
<path d="M241.168 240.461C220.725 252.288 187.441 252.288 166.997 240.461C146.554 228.634 146.554 209.372 166.997 197.545C187.441 185.718 220.725 185.718 241.168 197.545C261.612 209.541 261.612 228.634 241.168 240.461Z" stroke="#C0C0C0" stroke-width="1.1865" stroke-miterlimit="10"/>
<path d="M144.02 199.404L264.146 200.418V217.144C264.146 226.099 258.233 234.885 246.575 241.643C223.09 255.16 185.075 255.16 161.591 241.643C149.933 234.885 144.02 225.93 144.02 217.144V199.404Z" fill="url(#paint13_linear_117_3156)"/>
<path d="M149.764 197.207H147.736V253.639H149.764V197.207Z" fill="#C0C0C0"/>
<path d="M156.691 197.207H154.664V253.639H156.691V197.207Z" fill="#C0C0C0"/>
<path d="M163.618 197.207H161.591V253.639H163.618V197.207Z" fill="#C0C0C0"/>
<path d="M170.545 197.207H168.518V253.639H170.545V197.207Z" fill="#C0C0C0"/>
<path d="M177.472 197.207H175.445V253.639H177.472V197.207Z" fill="#C0C0C0"/>
<path d="M184.4 197.207H182.372V253.639H184.4V197.207Z" fill="#C0C0C0"/>
<path d="M191.158 197.207H189.13V253.639H191.158V197.207Z" fill="#C0C0C0"/>
<path d="M198.085 197.207H196.057V253.639H198.085V197.207Z" fill="#C0C0C0"/>
<path d="M205.012 197.207H202.984V253.639H205.012V197.207Z" fill="#C0C0C0"/>
<path d="M211.939 197.207H209.912V253.639H211.939V197.207Z" fill="#C0C0C0"/>
<path d="M218.866 197.207H216.839V253.639H218.866V197.207Z" fill="#C0C0C0"/>
<path d="M225.794 197.207H223.766V253.639H225.794V197.207Z" fill="#C0C0C0"/>
<path d="M232.72 197.207H230.693V253.639H232.72V197.207Z" fill="#C0C0C0"/>
<path d="M239.648 197.207H237.62V253.639H239.648V197.207Z" fill="#C0C0C0"/>
<path d="M246.406 197.207H244.378V253.639H246.406V197.207Z" fill="#C0C0C0"/>
<path d="M253.333 197.207H251.306V253.639H253.333V197.207Z" fill="#C0C0C0"/>
<path d="M260.26 197.207H258.232V253.639H260.26V197.207Z" fill="#C0C0C0"/>
<path d="M246.575 225.592C223.09 239.109 185.075 239.109 161.591 225.592C138.106 212.076 138.106 190.111 161.591 176.594C185.075 163.078 223.09 163.078 246.575 176.594C269.89 189.942 269.89 211.907 246.575 225.592Z" fill="url(#paint14_linear_117_3156)"/>
<path d="M241.168 220.861C220.725 232.688 187.441 232.688 166.997 220.861C146.554 209.034 146.554 189.773 166.997 177.946C187.441 166.119 220.725 166.119 241.168 177.946C261.612 189.773 261.612 209.034 241.168 220.861Z" stroke="#C0C0C0" stroke-width="1.1865" stroke-miterlimit="10"/>
<path d="M144.02 179.636L264.146 180.649V197.376C264.146 206.331 258.233 215.117 246.575 221.875C223.09 235.392 185.075 235.392 161.591 221.875C149.933 215.117 144.02 206.162 144.02 197.376V179.636Z" fill="url(#paint15_linear_117_3156)"/>
<path d="M149.764 177.608H147.736V234.04H149.764V177.608Z" fill="#C0C0C0"/>
<path d="M156.691 177.608H154.664V234.04H156.691V177.608Z" fill="#C0C0C0"/>
<path d="M163.618 177.608H161.591V234.04H163.618V177.608Z" fill="#C0C0C0"/>
<path d="M170.545 177.608H168.518V234.04H170.545V177.608Z" fill="#C0C0C0"/>
<path d="M177.472 177.608H175.445V234.04H177.472V177.608Z" fill="#C0C0C0"/>
<path d="M184.4 177.608H182.372V234.04H184.4V177.608Z" fill="#C0C0C0"/>
<path d="M191.158 177.608H189.13V234.04H191.158V177.608Z" fill="#C0C0C0"/>
<path d="M198.085 177.608H196.057V234.04H198.085V177.608Z" fill="#C0C0C0"/>
<path d="M205.012 177.608H202.984V234.04H205.012V177.608Z" fill="#C0C0C0"/>
<path d="M211.939 177.608H209.912V234.04H211.939V177.608Z" fill="#C0C0C0"/>
<path d="M218.866 177.608H216.839V234.04H218.866V177.608Z" fill="#C0C0C0"/>
<path d="M225.794 177.608H223.766V234.04H225.794V177.608Z" fill="#C0C0C0"/>
<path d="M232.72 177.608H230.693V234.04H232.72V177.608Z" fill="#C0C0C0"/>
<path d="M239.648 177.608H237.62V234.04H239.648V177.608Z" fill="#C0C0C0"/>
<path d="M246.406 177.608H244.378V234.04H246.406V177.608Z" fill="#C0C0C0"/>
<path d="M253.333 177.608H251.306V234.04H253.333V177.608Z" fill="#C0C0C0"/>
<path d="M260.26 177.608H258.232V234.04H260.26V177.608Z" fill="#C0C0C0"/>
<path d="M246.575 205.824C223.09 219.341 185.075 219.341 161.591 205.824C138.106 192.308 138.106 170.343 161.591 156.826C185.075 143.31 223.09 143.31 246.575 156.826C269.89 170.343 269.89 192.308 246.575 205.824Z" fill="url(#paint16_linear_117_3156)"/>
<path d="M241.168 201.093C220.725 212.92 187.441 212.92 166.997 201.093C146.554 189.266 146.554 170.005 166.997 158.178C187.441 146.351 220.725 146.351 241.168 158.178C261.612 170.005 261.612 189.266 241.168 201.093Z" stroke="#C0C0C0" stroke-width="1.1865" stroke-miterlimit="10"/>
<path d="M144.02 160.037L264.146 161.05V177.777C264.146 186.732 258.233 195.518 246.575 202.276C223.09 215.793 185.075 215.793 161.591 202.276C149.933 195.518 144.02 186.563 144.02 177.777V160.037Z" fill="url(#paint17_linear_117_3156)"/>
<path d="M149.764 157.84H147.736V214.272H149.764V157.84Z" fill="#C0C0C0"/>
<path d="M156.691 157.84H154.664V214.272H156.691V157.84Z" fill="#C0C0C0"/>
<path d="M163.618 157.84H161.591V214.272H163.618V157.84Z" fill="#C0C0C0"/>
<path d="M170.545 157.84H168.518V214.272H170.545V157.84Z" fill="#C0C0C0"/>
<path d="M177.472 157.84H175.445V214.272H177.472V157.84Z" fill="#C0C0C0"/>
<path d="M184.4 157.84H182.372V214.272H184.4V157.84Z" fill="#C0C0C0"/>
<path d="M191.158 157.84H189.13V214.272H191.158V157.84Z" fill="#C0C0C0"/>
<path d="M198.085 157.84H196.057V214.272H198.085V157.84Z" fill="#C0C0C0"/>
<path d="M205.012 157.84H202.984V214.272H205.012V157.84Z" fill="#C0C0C0"/>
<path d="M211.939 157.84H209.912V214.272H211.939V157.84Z" fill="#C0C0C0"/>
<path d="M218.866 157.84H216.839V214.272H218.866V157.84Z" fill="#C0C0C0"/>
<path d="M225.794 157.84H223.766V214.272H225.794V157.84Z" fill="#C0C0C0"/>
<path d="M232.72 157.84H230.693V214.272H232.72V157.84Z" fill="#C0C0C0"/>
<path d="M239.648 157.84H237.62V214.272H239.648V157.84Z" fill="#C0C0C0"/>
<path d="M246.406 157.84H244.378V214.272H246.406V157.84Z" fill="#C0C0C0"/>
<path d="M253.333 157.84H251.306V214.272H253.333V157.84Z" fill="#C0C0C0"/>
<path d="M260.26 157.84H258.232V214.272H260.26V157.84Z" fill="#C0C0C0"/>
<path d="M246.575 186.056C223.09 199.573 185.075 199.573 161.591 186.056C138.106 172.539 138.106 150.575 161.591 137.058C185.075 123.542 223.09 123.542 246.575 137.058C269.89 150.575 269.89 172.539 246.575 186.056Z" fill="url(#paint18_linear_117_3156)"/>
<path d="M241.168 181.325C220.725 193.152 187.441 193.152 166.997 181.325C146.554 169.498 146.554 150.237 166.997 138.41C187.441 126.583 220.725 126.583 241.168 138.41C261.612 150.406 261.612 169.498 241.168 181.325Z" stroke="#C0C0C0" stroke-width="1.1865" stroke-miterlimit="10"/>
<g opacity="0.5">
<path opacity="0.5" d="M268.032 84.5123H267.694C267.525 84.5123 267.525 84.3434 267.525 84.3434V84.0054C267.525 83.8365 267.694 83.8365 267.694 83.8365H268.032C268.201 83.8365 268.201 84.0054 268.201 84.0054V84.3434L268.032 84.5123Z" fill="white"/>
<path opacity="0.5" d="M264.315 134.524H263.977C263.808 134.524 263.808 134.355 263.808 134.355V134.017C263.808 133.848 263.977 133.848 263.977 133.848H264.315C264.484 133.848 264.484 134.017 264.484 134.017V134.355C264.653 134.355 264.484 134.524 264.315 134.524Z" fill="white"/>
<path opacity="0.5" d="M241.506 123.711H241.168C240.999 123.711 240.999 123.542 240.999 123.542V123.204C240.999 123.035 241.168 123.035 241.168 123.035H241.506C241.675 123.035 241.675 123.204 241.675 123.204V123.373C241.675 123.542 241.506 123.711 241.506 123.711Z" fill="white"/>
<path opacity="0.5" d="M226.131 127.259H225.793C225.625 127.259 225.625 127.09 225.625 127.09V126.752C225.625 126.583 225.793 126.583 225.793 126.583H226.131C226.3 126.583 226.3 126.752 226.3 126.752V127.09L226.131 127.259Z" fill="white"/>
<path opacity="0.5" d="M218.19 111.377L217.853 111.208C217.684 111.208 217.684 111.039 217.684 110.87L217.853 110.532C217.853 110.363 218.022 110.363 218.19 110.363L218.528 110.532C218.697 110.532 218.697 110.701 218.697 110.87L218.528 111.208C218.359 111.377 218.19 111.377 218.19 111.377Z" fill="white"/>
<path opacity="0.5" d="M206.025 141.62L205.688 141.451C205.519 141.451 205.519 141.282 205.519 141.113L205.688 140.775C205.688 140.606 205.856 140.606 206.025 140.606L206.363 140.775C206.532 140.775 206.532 140.944 206.532 141.113L206.363 141.451C206.194 141.62 206.194 141.62 206.025 141.62Z" fill="white"/>
<path opacity="0.5" d="M187.44 98.0289L187.103 97.86C186.934 97.86 186.934 97.691 186.934 97.5221L187.103 97.1842C187.103 97.0152 187.272 97.0152 187.44 97.0152L187.778 97.1842C187.947 97.1842 187.947 97.3531 187.947 97.5221L187.778 97.86C187.609 98.0289 187.609 98.0289 187.44 98.0289Z" fill="white"/>
<path opacity="0.5" d="M156.353 111.715L156.015 111.546C155.846 111.546 155.846 111.377 155.846 111.208L156.015 110.87C156.015 110.701 156.184 110.701 156.353 110.701L156.691 110.87C156.86 110.87 156.86 111.039 156.86 111.208L156.691 111.546C156.691 111.715 156.522 111.884 156.353 111.715Z" fill="white"/>
<path opacity="0.5" d="M171.728 157.164L171.39 156.995C171.221 156.995 171.221 156.826 171.221 156.657L171.39 156.319C171.39 156.151 171.559 156.151 171.728 156.151L172.065 156.319C172.234 156.319 172.234 156.488 172.234 156.657L172.065 156.995C171.897 157.164 171.728 157.333 171.728 157.164Z" fill="white"/>
<path opacity="0.5" d="M177.472 126.245L177.134 126.076C176.965 126.076 176.965 125.907 176.965 125.738L177.134 125.4C177.134 125.231 177.303 125.231 177.472 125.231L177.81 125.4C177.979 125.4 177.979 125.569 177.979 125.738L177.81 126.076C177.641 126.245 177.641 126.245 177.472 126.245Z" fill="white"/>
<path opacity="0.5" d="M156.353 88.7363L156.015 88.5673C155.846 88.5673 155.846 88.3984 155.846 88.2294L156.015 87.8915C156.015 87.7225 156.184 87.7225 156.353 87.7225L156.691 87.8915C156.86 87.8915 156.86 88.0604 156.86 88.2294L156.691 88.5673C156.691 88.7363 156.522 88.7363 156.353 88.7363Z" fill="white"/>
<path opacity="0.5" d="M131.855 118.98L131.517 118.811C131.348 118.811 131.348 118.642 131.348 118.473L131.517 118.135C131.517 117.966 131.686 117.966 131.855 117.966L132.023 118.304C132.192 118.304 132.192 118.473 132.192 118.642L132.023 118.98H131.855Z" fill="white"/>
<path opacity="0.5" d="M131.855 96.0015L131.517 95.8325C131.348 95.8325 131.348 95.6636 131.348 95.4946L131.517 95.1567C131.517 94.9877 131.686 94.9877 131.855 94.9877L132.192 95.1567C132.361 95.1567 132.361 95.3257 132.361 95.4946L132.192 95.8325C132.023 96.0015 131.855 96.0015 131.855 96.0015Z" fill="white"/>
<path opacity="0.5" d="M283.238 111.377L282.9 111.208C282.731 111.208 282.731 111.039 282.731 110.87L282.9 110.532C282.9 110.363 283.069 110.363 283.238 110.363L283.576 110.532C283.745 110.532 283.745 110.701 283.745 110.87L283.576 111.208C283.576 111.377 283.407 111.377 283.238 111.377Z" fill="white"/>
<path opacity="0.5" d="M285.265 96.0015L284.927 95.8325C284.758 95.8325 284.758 95.6636 284.758 95.4946L284.927 95.1567C284.927 94.9877 285.096 94.9877 285.265 94.9877L285.603 95.1567C285.772 95.1567 285.772 95.3257 285.772 95.4946L285.603 95.8325C285.603 96.0015 285.434 96.0015 285.265 96.0015Z" fill="white"/>
<path opacity="0.5" d="M255.023 117.797L254.685 117.628C254.516 117.628 254.516 117.459 254.516 117.29L254.685 116.952C254.685 116.783 254.854 116.783 255.023 116.783L255.36 116.952C255.529 116.952 255.529 117.121 255.529 117.29L255.36 117.628C255.36 117.628 255.191 117.797 255.023 117.797Z" fill="white"/>
<path opacity="0.5" d="M242.351 90.9328L242.013 90.7638C241.844 90.7638 241.844 90.5948 241.844 90.4259L242.013 90.088C242.013 89.919 242.182 89.919 242.351 89.919L242.689 90.088C242.857 90.088 242.857 90.2569 242.857 90.4259L242.689 90.7638C242.52 90.9327 242.52 90.9328 242.351 90.9328Z" fill="white"/>
<path opacity="0.5" d="M208.898 168.991H208.56C208.391 168.991 208.391 168.822 208.391 168.822V168.484C208.391 168.315 208.56 168.315 208.56 168.315H208.898C209.067 168.315 209.067 168.484 209.067 168.484V168.822C209.067 168.991 208.898 168.991 208.898 168.991Z" fill="white"/>
<path opacity="0.5" d="M247.251 144.154L246.913 143.986C246.744 143.986 246.744 143.817 246.744 143.648L246.913 143.31C246.913 143.141 247.082 143.141 247.251 143.141L247.588 143.31C247.757 143.31 247.757 143.479 247.757 143.648L247.588 143.986C247.419 144.154 247.419 144.154 247.251 144.154Z" fill="white"/>
<path opacity="0.5" d="M157.198 131.821L156.86 131.652C156.691 131.652 156.691 131.483 156.691 131.314L156.86 130.976C156.86 130.807 157.029 130.807 157.198 130.807L157.536 130.976C157.705 130.976 157.705 131.145 157.705 131.314L157.536 131.652C157.367 131.821 157.198 131.821 157.198 131.821Z" fill="white"/>
<path opacity="0.5" d="M223.597 159.53L223.259 159.361C223.09 159.361 223.09 159.192 223.09 159.023L223.259 158.685C223.259 158.516 223.428 158.516 223.597 158.516L223.935 158.685C224.104 158.685 224.104 158.854 224.104 159.023L223.935 159.361C223.766 159.53 223.766 159.53 223.597 159.53Z" fill="white"/>
<path opacity="0.5" d="M231.538 101.408L231.2 101.239C231.031 101.239 231.031 101.07 231.031 100.901L231.2 100.563C231.2 100.394 231.369 100.394 231.538 100.394L231.876 100.563C232.044 100.563 232.044 100.732 232.044 100.901L231.707 101.408C231.707 101.408 231.538 101.577 231.538 101.408Z" fill="white"/>
</g>
<g opacity="0.5">
<path opacity="0.5" d="M223.935 1.216H223.597C223.428 1.216 223.428 1.04704 223.428 1.04704V0.70912C223.428 0.540162 223.597 0.540161 223.597 0.540161H223.935C224.104 0.540161 224.104 0.70912 224.104 0.70912V1.04704C224.104 1.216 224.104 1.216 223.935 1.216Z" fill="white"/>
<path opacity="0.5" d="M220.387 51.3965H220.049C219.88 51.3965 219.88 51.2276 219.88 51.2276V50.7207C219.88 50.5518 220.049 50.5518 220.049 50.5518H220.387C220.556 50.5518 220.556 50.7207 220.556 50.7207V51.0586C220.556 51.2276 220.556 51.3965 220.387 51.3965Z" fill="white"/>
<path opacity="0.5" d="M198.93 26.2217H198.592C198.423 26.2217 198.423 26.0528 198.423 26.0528V25.7149C198.423 25.5459 198.592 25.5459 198.592 25.5459H198.93C199.099 25.5459 199.099 25.7149 199.099 25.7149V26.0528C199.099 26.0528 199.099 26.2217 198.93 26.2217Z" fill="white"/>
<path opacity="0.5" d="M182.034 43.9623H181.696C181.527 43.9623 181.527 43.7934 181.527 43.7934V43.4555C181.527 43.2865 181.696 43.2865 181.696 43.2865H182.034C182.203 43.2865 182.203 43.4555 182.203 43.4555V43.7934C182.203 43.9623 182.203 43.9623 182.034 43.9623Z" fill="white"/>
<path opacity="0.5" d="M167.842 12.7052L167.504 12.5362C167.335 12.5362 167.335 12.3672 167.335 12.1983L167.504 11.8604C167.504 11.6914 167.673 11.6914 167.842 11.6914L168.18 11.8604C168.349 11.8604 168.349 12.0293 168.349 12.1983L168.18 12.5362C168.18 12.7052 168.011 12.8741 167.842 12.7052Z" fill="white"/>
<path opacity="0.5" d="M161.929 58.4927L161.591 58.3238C161.422 58.3238 161.422 58.1548 161.422 57.9859L161.591 57.648C161.591 57.479 161.76 57.479 161.929 57.479L162.267 57.648C162.436 57.648 162.436 57.8169 162.436 57.9859L162.267 58.3238C162.267 58.4927 162.098 58.4927 161.929 58.4927Z" fill="white"/>
<path opacity="0.5" d="M143.512 14.9016L143.174 14.7326C143.005 14.7326 143.005 14.5636 143.005 14.3947L143.174 14.0568C143.174 13.8878 143.343 13.8878 143.512 13.8878L143.85 14.0568C144.019 14.0568 144.019 14.2257 144.019 14.3947L143.85 14.7326C143.681 14.9016 143.512 14.9016 143.512 14.9016Z" fill="white"/>
<path opacity="0.5" d="M127.631 74.0369L127.293 73.868C127.124 73.868 127.124 73.699 127.124 73.5301L127.293 73.1921C127.293 73.0232 127.462 73.0232 127.631 73.0232L127.969 73.1921C128.138 73.1921 128.138 73.3611 128.138 73.5301L127.969 73.868C127.8 74.0369 127.8 74.0369 127.631 74.0369Z" fill="white"/>
<path opacity="0.5" d="M133.375 42.9487L133.037 42.7797C132.868 42.7797 132.868 42.6108 132.868 42.4418L133.037 42.1039C133.037 41.9349 133.206 41.9349 133.375 41.9349L133.713 42.2729C133.882 42.2729 133.882 42.4418 133.882 42.6108L133.713 42.9487C133.713 42.9487 133.544 43.1177 133.375 42.9487Z" fill="white"/>
<path opacity="0.5" d="M239.31 28.0803L238.972 27.9113C238.803 27.9113 238.803 27.7424 238.803 27.5734L238.972 27.2355C238.972 27.0665 239.141 27.0665 239.31 27.0665L239.647 27.2355C239.816 27.2355 239.816 27.4044 239.816 27.5734L239.647 27.9113C239.479 28.0803 239.31 28.2492 239.31 28.0803Z" fill="white"/>
<path opacity="0.5" d="M252.995 58.9997L252.657 58.8307C252.488 58.8307 252.488 58.6618 252.488 58.4928L252.657 58.1549C252.657 57.986 252.826 57.986 252.995 57.986L253.333 58.1549C253.502 58.1549 253.502 58.3239 253.502 58.4928L253.333 58.8307C253.333 58.9997 253.164 59.1687 252.995 58.9997Z" fill="white"/>
<path opacity="0.5" d="M285.434 56.1274L285.096 55.9584C284.927 55.9584 284.927 55.7895 284.927 55.6205L285.096 55.2826C285.096 55.1137 285.265 55.1136 285.434 55.1136L285.772 55.2826C285.941 55.2826 285.941 55.4516 285.941 55.6205L285.772 55.9584C285.603 56.1274 285.434 56.2964 285.434 56.1274Z" fill="white"/>
<path opacity="0.5" d="M306.723 46.6657L306.385 46.4968C306.216 46.4968 306.216 46.3278 306.216 46.1588L306.385 45.8209C306.385 45.652 306.554 45.652 306.723 45.652L307.061 45.8209C307.23 45.8209 307.23 45.9899 307.23 46.1588L307.061 46.4968C306.892 46.6657 306.892 46.6657 306.723 46.6657Z" fill="white"/>
<path opacity="0.5" d="M164.801 85.864H164.463C164.294 85.864 164.294 85.695 164.294 85.695V85.3571C164.294 85.1881 164.463 85.1881 164.463 85.1881H164.801C164.97 85.1881 164.97 85.3571 164.97 85.3571V85.695C164.97 85.695 164.97 85.864 164.801 85.864Z" fill="white"/>
<path opacity="0.5" d="M203.153 60.8582H202.984C202.815 60.8582 202.815 60.6893 202.815 60.5203L202.984 60.1824C202.984 60.0134 203.153 60.0134 203.322 60.0134L203.66 60.1824C203.829 60.1824 203.829 60.3513 203.829 60.5203L203.66 60.8582C203.491 60.8582 203.322 61.0272 203.153 60.8582Z" fill="white"/>
<path opacity="0.5" d="M113.101 48.5243L112.763 48.3553C112.594 48.3553 112.594 48.1863 112.594 48.0174L112.763 47.6795C112.763 47.5105 112.932 47.5105 113.101 47.5105L113.439 47.6795C113.607 47.6795 113.607 47.8484 113.607 48.0174L113.439 48.5243C113.439 48.5243 113.27 48.5243 113.101 48.5243Z" fill="white"/>
<path opacity="0.5" d="M179.5 76.4023L179.162 76.2333C178.993 76.2333 178.993 76.0644 178.993 75.8954L179.162 75.5575C179.162 75.3886 179.331 75.3885 179.5 75.3885L179.838 75.5575C180.007 75.5575 180.007 75.7265 180.007 75.8954L179.838 76.2333C179.838 76.4023 179.669 76.4023 179.5 76.4023Z" fill="white"/>
<path opacity="0.5" d="M217.684 20.6462L217.346 20.4772C217.177 20.4772 217.177 20.3083 217.177 20.1393L217.346 19.8014C217.346 19.6324 217.515 19.6324 217.684 19.6324L218.022 19.8014C218.19 19.8014 218.19 19.9704 218.19 20.1393L218.022 20.4772C217.853 20.6462 217.684 20.6462 217.684 20.6462Z" fill="white"/>
</g>
<path d="M87.9263 202.614L94.1776 198.897V117.966L87.9263 121.683V202.614Z" fill="url(#paint19_linear_117_3156)"/>
<path d="M49.5732 224.747L55.9935 221.03V172.708L49.5732 176.425V224.747Z" fill="url(#paint20_linear_117_3156)"/>
<path d="M30.4814 235.73L36.7327 232.013V165.612L30.4814 169.329V235.73Z" fill="url(#paint21_linear_117_3156)"/>
<path d="M11.2207 246.881L17.641 243.164V166.288L11.2207 170.005V246.881Z" fill="url(#paint22_linear_117_3156)"/>
<path d="M87.9261 202.614L81.6748 198.897V117.966L87.9261 121.683V202.614Z" fill="url(#paint23_linear_117_3156)"/>
<path d="M49.5731 224.747L43.3218 221.03V172.708L49.5731 176.425V224.747Z" fill="url(#paint24_linear_117_3156)"/>
<path d="M30.4813 235.73L24.061 232.013V165.612L30.4813 169.329V235.73Z" fill="url(#paint25_linear_117_3156)"/>
<path d="M11.2206 246.881L4.96924 243.164V166.288L11.2206 170.005V246.881Z" fill="url(#paint26_linear_117_3156)"/>
<path d="M11.2206 162.74L17.6408 166.288L11.2206 170.005L4.96924 166.288L11.2206 162.74Z" fill="url(#paint27_linear_117_3156)"/>
<path d="M30.3124 161.895L36.7326 165.612L30.4813 169.329L24.061 165.612L30.3124 161.895Z" fill="url(#paint28_linear_117_3156)"/>
<path d="M68.665 213.934L75.0853 210.217V143.817L68.665 147.365V213.934Z" fill="url(#paint29_linear_117_3156)"/>
<path d="M68.6649 213.934L62.4136 210.217V143.817L68.6649 147.365V213.934Z" fill="url(#paint30_linear_117_3156)"/>
<path d="M68.6649 140.099L75.0852 143.817L68.6649 147.534L62.4136 143.817L68.6649 140.099Z" fill="url(#paint31_linear_117_3156)"/>
<path d="M87.9261 114.249L94.1774 117.966L87.9261 121.683L81.6748 117.966L87.9261 114.249Z" fill="url(#paint32_linear_117_3156)"/>
<path d="M49.5731 169.16L55.9934 172.708L49.5731 176.425L43.3218 172.708L49.5731 169.16Z" fill="url(#paint33_linear_117_3156)"/>
<path d="M320.576 147.365V193.997C320.576 194.335 320.576 194.504 320.576 194.842C320.407 196.025 319.562 197.207 318.042 198.052C314.494 200.08 308.749 200.08 305.201 198.052C303.681 197.207 302.836 196.025 302.667 194.842V147.365H320.576Z" fill="url(#paint34_linear_117_3156)"/>
<path d="M317.873 151.927C314.325 153.954 308.581 153.954 305.033 151.927C301.485 149.899 301.485 146.52 305.033 144.492C308.581 142.465 314.325 142.465 317.873 144.492C321.421 146.52 321.421 149.899 317.873 151.927Z" fill="url(#paint35_linear_117_3156)"/>
<path d="M323.787 161.219H341.865V206.5C341.865 207.852 341.02 209.203 339.162 210.217C335.613 212.245 329.869 212.245 326.321 210.217C324.631 209.203 323.618 207.852 323.618 206.5V161.219H323.787Z" fill="url(#paint36_linear_117_3156)"/>
<path d="M339.162 164.936C335.614 166.964 329.869 166.964 326.321 164.936C322.773 162.909 322.773 159.53 326.321 157.502C329.869 155.475 335.614 155.475 339.162 157.502C342.71 159.53 342.71 162.909 339.162 164.936Z" fill="url(#paint37_linear_117_3156)"/>
<path d="M345.075 187.915H363.153V219.003C363.322 220.355 362.308 221.875 360.45 222.889C356.902 224.916 351.157 224.916 347.609 222.889C345.751 221.875 344.906 220.355 344.906 219.003V187.915H345.075Z" fill="url(#paint38_linear_117_3156)"/>
<path d="M360.45 191.463C356.902 193.49 351.157 193.49 347.609 191.463C344.061 189.435 344.061 186.056 347.609 184.029C351.157 182.001 356.902 182.001 360.45 184.029C363.998 186.056 363.998 189.435 360.45 191.463Z" fill="url(#paint39_linear_117_3156)"/>
<path d="M366.701 211.907H384.779V230.661C384.948 232.013 383.935 233.533 382.076 234.547C378.528 236.575 372.784 236.575 369.235 234.547C367.377 233.533 366.532 232.013 366.532 230.661V211.907H366.701Z" fill="url(#paint40_linear_117_3156)"/>
<path d="M382.076 215.455C378.528 217.482 372.784 217.482 369.236 215.455C365.688 213.427 365.688 210.048 369.236 208.021C372.784 205.993 378.528 205.993 382.076 208.021C385.624 210.048 385.624 213.427 382.076 215.455Z" fill="url(#paint41_linear_117_3156)"/>
<path opacity="0.1" d="M419.415 431.383C394.748 442.872 354.874 442.872 330.376 431.383C305.709 419.894 305.709 401.478 330.376 389.988C355.043 378.499 394.917 378.499 419.415 389.988C444.082 401.478 444.082 419.894 419.415 431.383Z" fill="url(#paint42_radial_117_3156)"/>
<path d="M334.262 384.244L419.246 384.92V396.747C419.246 402.998 415.022 409.25 406.743 414.149C390.186 423.78 363.322 423.78 346.764 414.149C338.486 409.419 334.262 403.167 334.262 396.747V384.244Z" fill="url(#paint43_linear_117_3156)"/>
<path d="M338.316 382.723H336.965V422.597H338.316V382.723Z" fill="url(#paint44_linear_117_3156)"/>
<path d="M343.216 382.723H341.864V422.597H343.216V382.723Z" fill="url(#paint45_linear_117_3156)"/>
<path d="M348.116 382.723H346.764V422.597H348.116V382.723Z" fill="url(#paint46_linear_117_3156)"/>
<path d="M353.016 382.723H351.664V422.597H353.016V382.723Z" fill="url(#paint47_linear_117_3156)"/>
<path d="M357.915 382.723H356.563V422.597H357.915V382.723Z" fill="url(#paint48_linear_117_3156)"/>
<path d="M362.815 382.723H361.463V422.597H362.815V382.723Z" fill="url(#paint49_linear_117_3156)"/>
<path d="M367.714 382.723H366.363V422.597H367.714V382.723Z" fill="url(#paint50_linear_117_3156)"/>
<path d="M372.614 382.723H371.263V422.597H372.614V382.723Z" fill="url(#paint51_linear_117_3156)"/>
<path d="M377.345 382.723H375.993V422.597H377.345V382.723Z" fill="url(#paint52_linear_117_3156)"/>
<path d="M382.245 382.723H380.893V422.597H382.245V382.723Z" fill="url(#paint53_linear_117_3156)"/>
<path d="M387.144 382.723H385.792V422.597H387.144V382.723Z" fill="url(#paint54_linear_117_3156)"/>
<path d="M392.044 382.723H390.692V422.597H392.044V382.723Z" fill="url(#paint55_linear_117_3156)"/>
<path d="M396.943 382.723H395.592V422.597H396.943V382.723Z" fill="url(#paint56_linear_117_3156)"/>
<path d="M401.843 382.723H400.492V422.597H401.843V382.723Z" fill="url(#paint57_linear_117_3156)"/>
<path d="M406.743 382.723H405.392V422.597H406.743V382.723Z" fill="url(#paint58_linear_117_3156)"/>
<path d="M411.643 382.723H410.291V422.597H411.643V382.723Z" fill="url(#paint59_linear_117_3156)"/>
<path d="M416.543 382.723H415.191V422.597H416.543V382.723Z" fill="url(#paint60_linear_117_3156)"/>
<path d="M406.743 402.66C390.186 412.291 363.322 412.291 346.764 402.66C330.207 393.03 330.207 377.486 346.764 368.024C363.322 358.393 390.186 358.393 406.743 368.024C423.301 377.654 423.301 393.03 406.743 402.66Z" fill="url(#paint61_linear_117_3156)"/>
<path d="M403.026 399.281C388.496 407.56 365.012 407.56 350.651 399.281C336.12 391.002 336.12 377.317 350.651 369.038C365.181 360.759 388.665 360.759 403.026 369.038C417.557 377.485 417.557 391.002 403.026 399.281Z" stroke="#C0C0C0" stroke-width="0.8386" stroke-miterlimit="10"/>
<path d="M334.262 370.22L419.246 370.896V382.723C419.246 388.975 415.022 395.226 406.743 400.126C390.186 409.757 363.322 409.757 346.764 400.126C338.486 395.395 334.262 389.144 334.262 382.723V370.22Z" fill="url(#paint62_linear_117_3156)"/>
<path d="M338.316 368.7H336.965V408.574H338.316V368.7Z" fill="url(#paint63_linear_117_3156)"/>
<path d="M343.216 368.7H341.864V408.574H343.216V368.7Z" fill="url(#paint64_linear_117_3156)"/>
<path d="M348.116 368.7H346.764V408.574H348.116V368.7Z" fill="url(#paint65_linear_117_3156)"/>
<path d="M353.016 368.7H351.664V408.574H353.016V368.7Z" fill="url(#paint66_linear_117_3156)"/>
<path d="M357.915 368.7H356.563V408.574H357.915V368.7Z" fill="url(#paint67_linear_117_3156)"/>
<path d="M362.815 368.7H361.463V408.574H362.815V368.7Z" fill="url(#paint68_linear_117_3156)"/>
<path d="M367.714 368.7H366.363V408.574H367.714V368.7Z" fill="url(#paint69_linear_117_3156)"/>
<path d="M372.614 368.7H371.263V408.574H372.614V368.7Z" fill="url(#paint70_linear_117_3156)"/>
<path d="M377.345 368.7H375.993V408.574H377.345V368.7Z" fill="url(#paint71_linear_117_3156)"/>
<path d="M382.245 368.7H380.893V408.574H382.245V368.7Z" fill="url(#paint72_linear_117_3156)"/>
<path d="M387.144 368.7H385.792V408.574H387.144V368.7Z" fill="url(#paint73_linear_117_3156)"/>
<path d="M392.044 368.7H390.692V408.574H392.044V368.7Z" fill="url(#paint74_linear_117_3156)"/>
<path d="M396.943 368.7H395.592V408.574H396.943V368.7Z" fill="url(#paint75_linear_117_3156)"/>
<path d="M401.843 368.7H400.492V408.574H401.843V368.7Z" fill="url(#paint76_linear_117_3156)"/>
<path d="M406.743 368.7H405.392V408.574H406.743V368.7Z" fill="url(#paint77_linear_117_3156)"/>
<path d="M411.643 368.7H410.291V408.574H411.643V368.7Z" fill="url(#paint78_linear_117_3156)"/>
<path d="M416.543 368.7H415.191V408.574H416.543V368.7Z" fill="url(#paint79_linear_117_3156)"/>
<path d="M406.743 388.806C390.186 398.436 363.322 398.436 346.764 388.806C330.207 379.175 330.207 363.631 346.764 354.169C363.322 344.539 390.186 344.539 406.743 354.169C423.301 363.631 423.301 379.175 406.743 388.806Z" fill="url(#paint80_linear_117_3156)"/>
<path d="M403.026 385.427C388.496 393.706 365.012 393.706 350.651 385.427C336.12 377.148 336.12 363.462 350.651 355.183C365.181 346.904 388.665 346.904 403.026 355.183C417.557 363.462 417.557 376.979 403.026 385.427Z" stroke="#C0C0C0" stroke-width="0.8386" stroke-miterlimit="10"/>
<path d="M334.262 356.366L419.246 357.042V368.869C419.246 375.12 415.022 381.372 406.743 386.271C390.186 395.902 363.322 395.902 346.764 386.271C338.486 381.541 334.262 375.289 334.262 368.869V356.366Z" fill="url(#paint81_linear_117_3156)"/>
<path d="M338.316 354.845H336.965V394.719H338.316V354.845Z" fill="url(#paint82_linear_117_3156)"/>
<path d="M343.216 354.845H341.864V394.719H343.216V354.845Z" fill="url(#paint83_linear_117_3156)"/>
<path d="M348.116 354.845H346.764V394.719H348.116V354.845Z" fill="url(#paint84_linear_117_3156)"/>
<path d="M353.016 354.845H351.664V394.719H353.016V354.845Z" fill="url(#paint85_linear_117_3156)"/>
<path d="M357.915 354.845H356.563V394.719H357.915V354.845Z" fill="url(#paint86_linear_117_3156)"/>
<path d="M362.815 354.845H361.463V394.719H362.815V354.845Z" fill="url(#paint87_linear_117_3156)"/>
<path d="M367.714 354.845H366.363V394.719H367.714V354.845Z" fill="url(#paint88_linear_117_3156)"/>
<path d="M372.614 354.845H371.263V394.719H372.614V354.845Z" fill="url(#paint89_linear_117_3156)"/>
<path d="M377.345 354.845H375.993V394.719H377.345V354.845Z" fill="url(#paint90_linear_117_3156)"/>
<path d="M382.245 354.845H380.893V394.719H382.245V354.845Z" fill="url(#paint91_linear_117_3156)"/>
<path d="M387.144 354.845H385.792V394.719H387.144V354.845Z" fill="url(#paint92_linear_117_3156)"/>
<path d="M392.044 354.845H390.692V394.719H392.044V354.845Z" fill="url(#paint93_linear_117_3156)"/>
<path d="M396.943 354.845H395.592V394.719H396.943V354.845Z" fill="url(#paint94_linear_117_3156)"/>
<path d="M401.843 354.845H400.492V394.719H401.843V354.845Z" fill="url(#paint95_linear_117_3156)"/>
<path d="M406.743 354.845H405.392V394.719H406.743V354.845Z" fill="url(#paint96_linear_117_3156)"/>
<path d="M411.643 354.845H410.291V394.719H411.643V354.845Z" fill="url(#paint97_linear_117_3156)"/>
<path d="M416.543 354.845H415.191V394.719H416.543V354.845Z" fill="url(#paint98_linear_117_3156)"/>
<path d="M406.743 374.782C390.186 384.413 363.322 384.413 346.764 374.782C330.207 365.152 330.207 349.607 346.764 340.146C363.322 330.515 390.186 330.515 406.743 340.146C423.301 349.776 423.301 365.321 406.743 374.782Z" fill="url(#paint99_linear_117_3156)"/>
<path d="M403.026 371.403C388.496 379.682 365.012 379.682 350.651 371.403C336.12 363.124 336.12 349.438 350.651 341.16C365.181 332.881 388.665 332.881 403.026 341.16C417.557 349.607 417.557 363.124 403.026 371.403Z" stroke="#C0C0C0" stroke-width="0.8386" stroke-miterlimit="10"/>
<path d="M334.262 342.342L419.246 343.018V354.845C419.246 361.097 415.022 367.348 406.743 372.248C390.186 381.878 363.322 381.878 346.764 372.248C338.486 367.517 334.262 361.266 334.262 354.845V342.342Z" fill="url(#paint100_linear_117_3156)"/>
<path d="M338.316 340.991H336.965V380.865H338.316V340.991Z" fill="url(#paint101_linear_117_3156)"/>
<path d="M343.216 340.991H341.864V380.865H343.216V340.991Z" fill="url(#paint102_linear_117_3156)"/>
<path d="M348.116 340.991H346.764V380.865H348.116V340.991Z" fill="url(#paint103_linear_117_3156)"/>
<path d="M353.016 340.991H351.664V380.865H353.016V340.991Z" fill="url(#paint104_linear_117_3156)"/>
<path d="M357.915 340.991H356.563V380.865H357.915V340.991Z" fill="url(#paint105_linear_117_3156)"/>
<path d="M362.815 340.991H361.463V380.865H362.815V340.991Z" fill="url(#paint106_linear_117_3156)"/>
<path d="M367.714 340.991H366.363V380.865H367.714V340.991Z" fill="url(#paint107_linear_117_3156)"/>
<path d="M372.614 340.991H371.263V380.865H372.614V340.991Z" fill="url(#paint108_linear_117_3156)"/>
<path d="M377.345 340.991H375.993V380.865H377.345V340.991Z" fill="url(#paint109_linear_117_3156)"/>
<path d="M382.245 340.991H380.893V380.865H382.245V340.991Z" fill="url(#paint110_linear_117_3156)"/>
<path d="M387.144 340.991H385.792V380.865H387.144V340.991Z" fill="url(#paint111_linear_117_3156)"/>
<path d="M392.044 340.991H390.692V380.865H392.044V340.991Z" fill="url(#paint112_linear_117_3156)"/>
<path d="M396.943 340.991H395.592V380.865H396.943V340.991Z" fill="url(#paint113_linear_117_3156)"/>
<path d="M401.843 340.991H400.492V380.865H401.843V340.991Z" fill="url(#paint114_linear_117_3156)"/>
<path d="M406.743 340.991H405.392V380.865H406.743V340.991Z" fill="url(#paint115_linear_117_3156)"/>
<path d="M411.643 340.991H410.291V380.865H411.643V340.991Z" fill="url(#paint116_linear_117_3156)"/>
<path d="M416.543 340.991H415.191V380.865H416.543V340.991Z" fill="url(#paint117_linear_117_3156)"/>
<path d="M406.743 360.928C390.186 370.558 363.322 370.558 346.764 360.928C330.207 351.297 330.207 335.753 346.764 326.291C363.322 316.661 390.186 316.661 406.743 326.291C423.301 335.753 423.301 351.297 406.743 360.928Z" fill="url(#paint118_linear_117_3156)"/>
<path d="M403.026 357.549C388.496 365.827 365.012 365.827 350.651 357.549C336.12 349.27 336.12 335.584 350.651 327.305C365.181 319.026 388.665 319.026 403.026 327.305C417.557 335.584 417.557 349.27 403.026 357.549Z" stroke="#C0C0C0" stroke-width="0.8386" stroke-miterlimit="10"/>
<path d="M334.262 328.488L419.246 329.164V340.991C419.246 347.242 415.022 353.493 406.743 358.393C390.186 368.024 363.322 368.024 346.764 358.393C338.486 353.662 334.262 347.411 334.262 340.991V328.488Z" fill="url(#paint119_linear_117_3156)"/>
<path d="M338.316 326.967H336.965V366.841H338.316V326.967Z" fill="url(#paint120_linear_117_3156)"/>
<path d="M343.216 326.967H341.864V366.841H343.216V326.967Z" fill="url(#paint121_linear_117_3156)"/>
<path d="M348.116 326.967H346.764V366.841H348.116V326.967Z" fill="url(#paint122_linear_117_3156)"/>
<path d="M353.016 326.967H351.664V366.841H353.016V326.967Z" fill="url(#paint123_linear_117_3156)"/>
<path d="M357.915 326.967H356.563V366.841H357.915V326.967Z" fill="url(#paint124_linear_117_3156)"/>
<path d="M362.815 326.967H361.463V366.841H362.815V326.967Z" fill="url(#paint125_linear_117_3156)"/>
<path d="M367.714 326.967H366.363V366.841H367.714V326.967Z" fill="url(#paint126_linear_117_3156)"/>
<path d="M372.614 326.967H371.263V366.841H372.614V326.967Z" fill="url(#paint127_linear_117_3156)"/>
<path d="M377.345 326.967H375.993V366.841H377.345V326.967Z" fill="url(#paint128_linear_117_3156)"/>
<path d="M382.245 326.967H380.893V366.841H382.245V326.967Z" fill="url(#paint129_linear_117_3156)"/>
<path d="M387.144 326.967H385.792V366.841H387.144V326.967Z" fill="url(#paint130_linear_117_3156)"/>
<path d="M392.044 326.967H390.692V366.841H392.044V326.967Z" fill="url(#paint131_linear_117_3156)"/>
<path d="M396.943 326.967H395.592V366.841H396.943V326.967Z" fill="url(#paint132_linear_117_3156)"/>
<path d="M401.843 326.967H400.492V366.841H401.843V326.967Z" fill="url(#paint133_linear_117_3156)"/>
<path d="M406.743 326.967H405.392V366.841H406.743V326.967Z" fill="url(#paint134_linear_117_3156)"/>
<path d="M411.643 326.967H410.291V366.841H411.643V326.967Z" fill="url(#paint135_linear_117_3156)"/>
<path d="M416.543 326.967H415.191V366.841H416.543V326.967Z" fill="url(#paint136_linear_117_3156)"/>
<path d="M406.743 346.904C390.186 356.535 363.322 356.535 346.764 346.904C330.207 337.274 330.207 321.729 346.764 312.268C363.322 302.637 390.186 302.637 406.743 312.268C423.301 321.898 423.301 337.443 406.743 346.904Z" fill="url(#paint137_linear_117_3156)"/>
<path d="M403.026 343.694C388.496 351.973 365.012 351.973 350.651 343.694C336.12 335.415 336.12 321.729 350.651 313.45C365.181 305.172 388.665 305.172 403.026 313.45C417.557 321.729 417.557 335.246 403.026 343.694Z" stroke="url(#paint138_linear_117_3156)" stroke-width="0.8299" stroke-miterlimit="10"/>
<defs>
<radialGradient id="paint0_radial_117_3156" cx="0" cy="0" r="1" gradientUnits="userSpaceOnUse" gradientTransform="translate(206.435 292.584) rotate(30.0012) scale(147.521 147.531)">
<stop stop-color="#C1C1C1"/>
<stop offset="1" stop-color="#727272"/>
</radialGradient>
<radialGradient id="paint1_radial_117_3156" cx="0" cy="0" r="1" gradientUnits="userSpaceOnUse" gradientTransform="translate(45.7154 102.811) scale(33.1211 28.5194)">
<stop stop-color="#434343"/>
<stop offset="0.0579464" stop-color="#3D3D3D"/>
<stop offset="0.3172" stop-color="#262626"/>
<stop offset="0.5626" stop-color="#181818"/>
<stop offset="0.7778" stop-color="#141414"/>
<stop offset="1" stop-color="#040404"/>
</radialGradient>
<linearGradient id="paint2_linear_117_3156" x1="266.89" y1="53.9857" x2="200.02" y2="75.1968" gradientUnits="userSpaceOnUse">
<stop offset="0.0873016" stop-color="#C0C0C0"/>
<stop offset="0.9709" stop-color="#5B5B5B"/>
</linearGradient>
<linearGradient id="paint3_linear_117_3156" x1="193.944" y1="49.9523" x2="167.952" y2="101.392" gradientUnits="userSpaceOnUse">
<stop offset="0.0873016" stop-color="#C0C0C0"/>
<stop offset="0.9709" stop-color="#5B5B5B"/>
</linearGradient>
<linearGradient id="paint4_linear_117_3156" x1="345.111" y1="326.254" x2="94.3838" y2="247.525" gradientUnits="userSpaceOnUse">
<stop stop-color="#A0A0A0"/>
<stop offset="0.5425" stop-color="#6C6C6C"/>
<stop offset="1" stop-color="#4E4E4E"/>
</linearGradient>
<linearGradient id="paint5_linear_117_3156" x1="196.591" y1="209.414" x2="198.242" y2="360.581" gradientUnits="userSpaceOnUse">
<stop offset="0.0873016" stop-color="#C0C0C0"/>
<stop offset="0.9709" stop-color="#5B5B5B"/>
</linearGradient>
<linearGradient id="paint6_linear_117_3156" x1="156.855" y1="211.351" x2="264.658" y2="345.799" gradientUnits="userSpaceOnUse">
<stop stop-color="#8F8F8F"/>
<stop offset="1" stop-color="#242424"/>
</linearGradient>
<radialGradient id="paint7_radial_117_3156" cx="0" cy="0" r="1" gradientUnits="userSpaceOnUse" gradientTransform="translate(201.325 267.884) scale(66.8516 56.4017)">
<stop stop-color="#434343"/>
<stop offset="0.0579464" stop-color="#3D3D3D"/>
<stop offset="0.3172" stop-color="#262626"/>
<stop offset="0.5626" stop-color="#181818"/>
<stop offset="0.7778" stop-color="#141414"/>
<stop offset="1" stop-color="#040404"/>
</radialGradient>
<radialGradient id="paint8_radial_117_3156" cx="0" cy="0" r="1" gradientUnits="userSpaceOnUse" gradientTransform="translate(203.146 265.389) scale(56.2846 47.4865)">
<stop stop-color="#434343"/>
<stop offset="0.0579464" stop-color="#3D3D3D"/>
<stop offset="0.3172" stop-color="#262626"/>
<stop offset="0.5626" stop-color="#181818"/>
<stop offset="0.7778" stop-color="#141414"/>
<stop offset="1" stop-color="#040404"/>
</radialGradient>
<linearGradient id="paint9_linear_117_3156" x1="204.016" y1="259.933" x2="204.016" y2="311.075" gradientUnits="userSpaceOnUse">
<stop offset="0.0873016" stop-color="#C0C0C0"/>
<stop offset="0.9709" stop-color="#5B5B5B"/>
</linearGradient>
<linearGradient id="paint10_linear_117_3156" x1="199.644" y1="202.658" x2="210.162" y2="293.488" gradientUnits="userSpaceOnUse">
<stop offset="0.0873016" stop-color="#C0C0C0"/>
<stop offset="0.9709" stop-color="#5B5B5B"/>
</linearGradient>
<linearGradient id="paint11_linear_117_3156" x1="204.016" y1="240.225" x2="204.016" y2="291.367" gradientUnits="userSpaceOnUse">
<stop offset="0.0873016" stop-color="#C0C0C0"/>
<stop offset="0.9709" stop-color="#5B5B5B"/>
</linearGradient>
<linearGradient id="paint12_linear_117_3156" x1="199.644" y1="182.95" x2="210.162" y2="273.78" gradientUnits="userSpaceOnUse">
<stop offset="0.0873016" stop-color="#C0C0C0"/>
<stop offset="0.9709" stop-color="#5B5B5B"/>
</linearGradient>
<linearGradient id="paint13_linear_117_3156" x1="204.016" y1="220.517" x2="204.016" y2="271.658" gradientUnits="userSpaceOnUse">
<stop offset="0.0873016" stop-color="#C0C0C0"/>
<stop offset="0.9709" stop-color="#5B5B5B"/>
</linearGradient>
<linearGradient id="paint14_linear_117_3156" x1="199.644" y1="163.242" x2="210.162" y2="254.072" gradientUnits="userSpaceOnUse">
<stop offset="0.0873016" stop-color="#C0C0C0"/>
<stop offset="0.9709" stop-color="#5B5B5B"/>
</linearGradient>
<linearGradient id="paint15_linear_117_3156" x1="204.016" y1="200.809" x2="204.016" y2="251.95" gradientUnits="userSpaceOnUse">
<stop offset="0.0873016" stop-color="#C0C0C0"/>
<stop offset="0.9709" stop-color="#5B5B5B"/>
</linearGradient>
<linearGradient id="paint16_linear_117_3156" x1="199.644" y1="143.533" x2="210.162" y2="234.363" gradientUnits="userSpaceOnUse">
<stop offset="0.0873016" stop-color="#C0C0C0"/>
<stop offset="0.9709" stop-color="#5B5B5B"/>
</linearGradient>
<linearGradient id="paint17_linear_117_3156" x1="204.016" y1="181.101" x2="204.016" y2="232.242" gradientUnits="userSpaceOnUse">
<stop offset="0.0873016" stop-color="#C0C0C0"/>
<stop offset="0.9709" stop-color="#5B5B5B"/>
</linearGradient>
<linearGradient id="paint18_linear_117_3156" x1="199.644" y1="123.825" x2="210.162" y2="214.655" gradientUnits="userSpaceOnUse">
<stop offset="0.0873016" stop-color="#C0C0C0"/>
<stop offset="0.9709" stop-color="#5B5B5B"/>
</linearGradient>
<linearGradient id="paint19_linear_117_3156" x1="91.0997" y1="204.027" x2="35.0267" y2="106.91" gradientUnits="userSpaceOnUse">
<stop stop-color="#242424"/>
<stop offset="0.455" stop-color="#5B5B5B"/>
<stop offset="0.6931" stop-color="#9A9A9A"/>
</linearGradient>
<linearGradient id="paint20_linear_117_3156" x1="52.7786" y1="225.444" x2="8.72357" y2="149.142" gradientUnits="userSpaceOnUse">
<stop stop-color="#242424"/>
<stop offset="0.455" stop-color="#5B5B5B"/>
<stop offset="0.6931" stop-color="#9A9A9A"/>
</linearGradient>
<linearGradient id="paint21_linear_117_3156" x1="33.6184" y1="237.214" x2="-22.4546" y2="140.098" gradientUnits="userSpaceOnUse">
<stop stop-color="#242424"/>
<stop offset="0.455" stop-color="#5B5B5B"/>
<stop offset="0.6931" stop-color="#9A9A9A"/>
</linearGradient>
<linearGradient id="paint22_linear_117_3156" x1="14.4583" y1="247.799" x2="-33.5069" y2="164.725" gradientUnits="userSpaceOnUse">
<stop stop-color="#242424"/>
<stop offset="0.455" stop-color="#5B5B5B"/>
<stop offset="0.6931" stop-color="#9A9A9A"/>
</linearGradient>
<linearGradient id="paint23_linear_117_3156" x1="84.7753" y1="204.027" x2="140.848" y2="106.91" gradientUnits="userSpaceOnUse">
<stop stop-color="#242424"/>
<stop offset="0.455" stop-color="#5B5B5B"/>
<stop offset="0.6931" stop-color="#9A9A9A"/>
</linearGradient>
<linearGradient id="paint24_linear_117_3156" x1="46.4544" y1="225.444" x2="90.5092" y2="149.142" gradientUnits="userSpaceOnUse">
<stop stop-color="#242424"/>
<stop offset="0.455" stop-color="#5B5B5B"/>
<stop offset="0.6931" stop-color="#9A9A9A"/>
</linearGradient>
<linearGradient id="paint25_linear_117_3156" x1="27.294" y1="237.214" x2="83.3669" y2="140.098" gradientUnits="userSpaceOnUse">
<stop stop-color="#242424"/>
<stop offset="0.455" stop-color="#5B5B5B"/>
<stop offset="0.6931" stop-color="#9A9A9A"/>
</linearGradient>
<linearGradient id="paint26_linear_117_3156" x1="10.8791" y1="228.921" x2="-0.461581" y2="136.609" gradientUnits="userSpaceOnUse">
<stop stop-color="#242424"/>
<stop offset="0.455" stop-color="#5B5B5B"/>
<stop offset="0.6931" stop-color="#9A9A9A"/>
</linearGradient>
<linearGradient id="paint27_linear_117_3156" x1="5.38957" y1="169.179" x2="21.2796" y2="161.476" gradientUnits="userSpaceOnUse">
<stop stop-color="#242424"/>
<stop offset="0.455" stop-color="#5B5B5B"/>
<stop offset="0.6931" stop-color="#9A9A9A"/>
</linearGradient>
<linearGradient id="paint28_linear_117_3156" x1="24.5495" y1="168.479" x2="53.3139" y2="154.535" gradientUnits="userSpaceOnUse">
<stop stop-color="#242424"/>
<stop offset="0.455" stop-color="#5B5B5B"/>
<stop offset="0.6931" stop-color="#9A9A9A"/>
</linearGradient>
<linearGradient id="paint29_linear_117_3156" x1="71.8936" y1="215.371" x2="15.8208" y2="118.255" gradientUnits="userSpaceOnUse">
<stop stop-color="#242424"/>
<stop offset="0.455" stop-color="#5B5B5B"/>
<stop offset="0.6931" stop-color="#9A9A9A"/>
</linearGradient>
<linearGradient id="paint30_linear_117_3156" x1="65.5691" y1="215.371" x2="121.642" y2="118.255" gradientUnits="userSpaceOnUse">
<stop stop-color="#242424"/>
<stop offset="0.455" stop-color="#5B5B5B"/>
<stop offset="0.6931" stop-color="#9A9A9A"/>
</linearGradient>
<linearGradient id="paint31_linear_117_3156" x1="62.825" y1="146.635" x2="91.5891" y2="132.692" gradientUnits="userSpaceOnUse">
<stop stop-color="#242424"/>
<stop offset="0.455" stop-color="#5B5B5B"/>
<stop offset="0.6931" stop-color="#9A9A9A"/>
</linearGradient>
<linearGradient id="paint32_linear_117_3156" x1="82.0308" y1="120.823" x2="110.795" y2="106.88" gradientUnits="userSpaceOnUse">
<stop stop-color="#242424"/>
<stop offset="0.455" stop-color="#5B5B5B"/>
<stop offset="0.6931" stop-color="#9A9A9A"/>
</linearGradient>
<linearGradient id="paint33_linear_117_3156" x1="46.0604" y1="174.467" x2="58.0194" y2="168.671" gradientUnits="userSpaceOnUse">
<stop stop-color="#242424"/>
<stop offset="0.455" stop-color="#5B5B5B"/>
<stop offset="0.6931" stop-color="#9A9A9A"/>
</linearGradient>
<linearGradient id="paint34_linear_117_3156" x1="311.541" y1="199.639" x2="311.541" y2="147.374" gradientUnits="userSpaceOnUse">
<stop stop-color="#242424"/>
<stop offset="0.455" stop-color="#5B5B5B"/>
<stop offset="0.6931" stop-color="#9A9A9A"/>
</linearGradient>
<linearGradient id="paint35_linear_117_3156" x1="309.013" y1="153.232" x2="323.951" y2="123.356" gradientUnits="userSpaceOnUse">
<stop stop-color="#242424"/>
<stop offset="0.455" stop-color="#5B5B5B"/>
<stop offset="0.6931" stop-color="#9A9A9A"/>
</linearGradient>
<linearGradient id="paint36_linear_117_3156" x1="332.801" y1="211.732" x2="332.801" y2="161.203" gradientUnits="userSpaceOnUse">
<stop stop-color="#242424"/>
<stop offset="0.455" stop-color="#5B5B5B"/>
<stop offset="0.6931" stop-color="#9A9A9A"/>
</linearGradient>
<linearGradient id="paint37_linear_117_3156" x1="330.102" y1="167.694" x2="339.77" y2="144.618" gradientUnits="userSpaceOnUse">
<stop stop-color="#242424"/>
<stop offset="0.455" stop-color="#5B5B5B"/>
<stop offset="0.6931" stop-color="#9A9A9A"/>
</linearGradient>
<linearGradient id="paint38_linear_117_3156" x1="354.054" y1="224.411" x2="354.054" y2="187.941" gradientUnits="userSpaceOnUse">
<stop stop-color="#242424"/>
<stop offset="0.455" stop-color="#5B5B5B"/>
<stop offset="0.6931" stop-color="#9A9A9A"/>
</linearGradient>
<linearGradient id="paint39_linear_117_3156" x1="351.721" y1="196.399" x2="360.768" y2="162.953" gradientUnits="userSpaceOnUse">
<stop stop-color="#242424"/>
<stop offset="0.455" stop-color="#5B5B5B"/>
<stop offset="0.6931" stop-color="#9A9A9A"/>
</linearGradient>
<linearGradient id="paint40_linear_117_3156" x1="375.76" y1="236.127" x2="375.76" y2="211.919" gradientUnits="userSpaceOnUse">
<stop stop-color="#242424"/>
<stop offset="0.455" stop-color="#5B5B5B"/>
<stop offset="0.6931" stop-color="#9A9A9A"/>
</linearGradient>
<linearGradient id="paint41_linear_117_3156" x1="373.426" y1="220.377" x2="382.473" y2="186.931" gradientUnits="userSpaceOnUse">
<stop stop-color="#242424"/>
<stop offset="0.455" stop-color="#5B5B5B"/>
<stop offset="0.6931" stop-color="#9A9A9A"/>
</linearGradient>
<radialGradient id="paint42_radial_117_3156" cx="0" cy="0" r="1" gradientUnits="userSpaceOnUse" gradientTransform="translate(374.935 410.68) scale(51.4411 41.4123)">
<stop stop-color="#434343"/>
<stop offset="0.0579464" stop-color="#3D3D3D"/>
<stop offset="0.3172" stop-color="#262626"/>
<stop offset="0.5626" stop-color="#181818"/>
<stop offset="0.7778" stop-color="#141414"/>
<stop offset="1" stop-color="#040404"/>
</radialGradient>
<linearGradient id="paint43_linear_117_3156" x1="376.777" y1="399.139" x2="376.777" y2="435.282" gradientUnits="userSpaceOnUse">
<stop stop-color="#242424"/>
<stop offset="0.455" stop-color="#5B5B5B"/>
<stop offset="0.6931" stop-color="#9A9A9A"/>
</linearGradient>
<linearGradient id="paint44_linear_117_3156" x1="337.727" y1="422.603" x2="337.727" y2="382.709" gradientUnits="userSpaceOnUse">
<stop stop-color="#242424"/>
<stop offset="0.455" stop-color="#5B5B5B"/>
<stop offset="0.6931" stop-color="#9A9A9A"/>
</linearGradient>
<linearGradient id="paint45_linear_117_3156" x1="342.608" y1="422.603" x2="342.608" y2="382.709" gradientUnits="userSpaceOnUse">
<stop stop-color="#242424"/>
<stop offset="0.455" stop-color="#5B5B5B"/>
<stop offset="0.6931" stop-color="#9A9A9A"/>
</linearGradient>
<linearGradient id="paint46_linear_117_3156" x1="347.49" y1="422.603" x2="347.49" y2="382.709" gradientUnits="userSpaceOnUse">
<stop stop-color="#242424"/>
<stop offset="0.455" stop-color="#5B5B5B"/>
<stop offset="0.6931" stop-color="#9A9A9A"/>
</linearGradient>
<linearGradient id="paint47_linear_117_3156" x1="352.371" y1="422.603" x2="352.371" y2="382.709" gradientUnits="userSpaceOnUse">
<stop stop-color="#242424"/>
<stop offset="0.455" stop-color="#5B5B5B"/>
<stop offset="0.6931" stop-color="#9A9A9A"/>
</linearGradient>
<linearGradient id="paint48_linear_117_3156" x1="357.252" y1="422.603" x2="357.252" y2="382.709" gradientUnits="userSpaceOnUse">
<stop stop-color="#242424"/>
<stop offset="0.455" stop-color="#5B5B5B"/>
<stop offset="0.6931" stop-color="#9A9A9A"/>
</linearGradient>
<linearGradient id="paint49_linear_117_3156" x1="362.133" y1="422.603" x2="362.133" y2="382.709" gradientUnits="userSpaceOnUse">
<stop stop-color="#242424"/>
<stop offset="0.455" stop-color="#5B5B5B"/>
<stop offset="0.6931" stop-color="#9A9A9A"/>
</linearGradient>
<linearGradient id="paint50_linear_117_3156" x1="367.015" y1="422.603" x2="367.015" y2="382.709" gradientUnits="userSpaceOnUse">
<stop stop-color="#242424"/>
<stop offset="0.455" stop-color="#5B5B5B"/>
<stop offset="0.6931" stop-color="#9A9A9A"/>
</linearGradient>
<linearGradient id="paint51_linear_117_3156" x1="371.896" y1="422.603" x2="371.896" y2="382.709" gradientUnits="userSpaceOnUse">
<stop stop-color="#242424"/>
<stop offset="0.455" stop-color="#5B5B5B"/>
<stop offset="0.6931" stop-color="#9A9A9A"/>
</linearGradient>
<linearGradient id="paint52_linear_117_3156" x1="376.777" y1="422.603" x2="376.777" y2="382.709" gradientUnits="userSpaceOnUse">
<stop stop-color="#242424"/>
<stop offset="0.455" stop-color="#5B5B5B"/>
<stop offset="0.6931" stop-color="#9A9A9A"/>
</linearGradient>
<linearGradient id="paint53_linear_117_3156" x1="381.658" y1="422.603" x2="381.658" y2="382.709" gradientUnits="userSpaceOnUse">
<stop stop-color="#242424"/>
<stop offset="0.455" stop-color="#5B5B5B"/>
<stop offset="0.6931" stop-color="#9A9A9A"/>
</linearGradient>
<linearGradient id="paint54_linear_117_3156" x1="386.539" y1="422.603" x2="386.539" y2="382.709" gradientUnits="userSpaceOnUse">
<stop stop-color="#242424"/>
<stop offset="0.455" stop-color="#5B5B5B"/>
<stop offset="0.6931" stop-color="#9A9A9A"/>
</linearGradient>
<linearGradient id="paint55_linear_117_3156" x1="391.421" y1="422.603" x2="391.421" y2="382.709" gradientUnits="userSpaceOnUse">
<stop stop-color="#242424"/>
<stop offset="0.455" stop-color="#5B5B5B"/>
<stop offset="0.6931" stop-color="#9A9A9A"/>
</linearGradient>
<linearGradient id="paint56_linear_117_3156" x1="396.302" y1="422.603" x2="396.302" y2="382.709" gradientUnits="userSpaceOnUse">
<stop stop-color="#242424"/>
<stop offset="0.455" stop-color="#5B5B5B"/>
<stop offset="0.6931" stop-color="#9A9A9A"/>
</linearGradient>
<linearGradient id="paint57_linear_117_3156" x1="401.183" y1="422.603" x2="401.183" y2="382.709" gradientUnits="userSpaceOnUse">
<stop stop-color="#242424"/>
<stop offset="0.455" stop-color="#5B5B5B"/>
<stop offset="0.6931" stop-color="#9A9A9A"/>
</linearGradient>
<linearGradient id="paint58_linear_117_3156" x1="406.065" y1="422.603" x2="406.065" y2="382.709" gradientUnits="userSpaceOnUse">
<stop stop-color="#242424"/>
<stop offset="0.455" stop-color="#5B5B5B"/>
<stop offset="0.6931" stop-color="#9A9A9A"/>
</linearGradient>
<linearGradient id="paint59_linear_117_3156" x1="410.946" y1="422.603" x2="410.946" y2="382.709" gradientUnits="userSpaceOnUse">
<stop stop-color="#242424"/>
<stop offset="0.455" stop-color="#5B5B5B"/>
<stop offset="0.6931" stop-color="#9A9A9A"/>
</linearGradient>
<linearGradient id="paint60_linear_117_3156" x1="415.827" y1="422.603" x2="415.827" y2="382.709" gradientUnits="userSpaceOnUse">
<stop stop-color="#242424"/>
<stop offset="0.455" stop-color="#5B5B5B"/>
<stop offset="0.6931" stop-color="#9A9A9A"/>
</linearGradient>
<linearGradient id="paint61_linear_117_3156" x1="373.688" y1="358.66" x2="381.121" y2="422.853" gradientUnits="userSpaceOnUse">
<stop stop-color="#242424"/>
<stop offset="0.455" stop-color="#5B5B5B"/>
<stop offset="0.6931" stop-color="#9A9A9A"/>
</linearGradient>
<linearGradient id="paint62_linear_117_3156" x1="376.777" y1="385.21" x2="376.777" y2="421.354" gradientUnits="userSpaceOnUse">
<stop stop-color="#242424"/>
<stop offset="0.455" stop-color="#5B5B5B"/>
<stop offset="0.6931" stop-color="#9A9A9A"/>
</linearGradient>
<linearGradient id="paint63_linear_117_3156" x1="337.727" y1="408.675" x2="337.727" y2="368.78" gradientUnits="userSpaceOnUse">
<stop stop-color="#242424"/>
<stop offset="0.455" stop-color="#5B5B5B"/>
<stop offset="0.6931" stop-color="#9A9A9A"/>
</linearGradient>
<linearGradient id="paint64_linear_117_3156" x1="342.608" y1="408.675" x2="342.608" y2="368.78" gradientUnits="userSpaceOnUse">
<stop stop-color="#242424"/>
<stop offset="0.455" stop-color="#5B5B5B"/>
<stop offset="0.6931" stop-color="#9A9A9A"/>
</linearGradient>
<linearGradient id="paint65_linear_117_3156" x1="347.49" y1="408.675" x2="347.49" y2="368.78" gradientUnits="userSpaceOnUse">
<stop stop-color="#242424"/>
<stop offset="0.455" stop-color="#5B5B5B"/>
<stop offset="0.6931" stop-color="#9A9A9A"/>
</linearGradient>
<linearGradient id="paint66_linear_117_3156" x1="352.371" y1="408.675" x2="352.371" y2="368.78" gradientUnits="userSpaceOnUse">
<stop stop-color="#242424"/>
<stop offset="0.455" stop-color="#5B5B5B"/>
<stop offset="0.6931" stop-color="#9A9A9A"/>
</linearGradient>
<linearGradient id="paint67_linear_117_3156" x1="357.252" y1="408.675" x2="357.252" y2="368.78" gradientUnits="userSpaceOnUse">
<stop stop-color="#242424"/>
<stop offset="0.455" stop-color="#5B5B5B"/>
<stop offset="0.6931" stop-color="#9A9A9A"/>
</linearGradient>
<linearGradient id="paint68_linear_117_3156" x1="362.133" y1="408.675" x2="362.133" y2="368.78" gradientUnits="userSpaceOnUse">
<stop stop-color="#242424"/>
<stop offset="0.455" stop-color="#5B5B5B"/>
<stop offset="0.6931" stop-color="#9A9A9A"/>
</linearGradient>
<linearGradient id="paint69_linear_117_3156" x1="367.015" y1="408.675" x2="367.015" y2="368.78" gradientUnits="userSpaceOnUse">
<stop stop-color="#242424"/>
<stop offset="0.455" stop-color="#5B5B5B"/>
<stop offset="0.6931" stop-color="#9A9A9A"/>
</linearGradient>
<linearGradient id="paint70_linear_117_3156" x1="371.896" y1="408.675" x2="371.896" y2="368.78" gradientUnits="userSpaceOnUse">
<stop stop-color="#242424"/>
<stop offset="0.455" stop-color="#5B5B5B"/>
<stop offset="0.6931" stop-color="#9A9A9A"/>
</linearGradient>
<linearGradient id="paint71_linear_117_3156" x1="376.777" y1="408.675" x2="376.777" y2="368.78" gradientUnits="userSpaceOnUse">
<stop stop-color="#242424"/>
<stop offset="0.455" stop-color="#5B5B5B"/>
<stop offset="0.6931" stop-color="#9A9A9A"/>
</linearGradient>
<linearGradient id="paint72_linear_117_3156" x1="381.658" y1="408.675" x2="381.658" y2="368.78" gradientUnits="userSpaceOnUse">
<stop stop-color="#242424"/>
<stop offset="0.455" stop-color="#5B5B5B"/>
<stop offset="0.6931" stop-color="#9A9A9A"/>
</linearGradient>
<linearGradient id="paint73_linear_117_3156" x1="386.539" y1="408.675" x2="386.539" y2="368.78" gradientUnits="userSpaceOnUse">
<stop stop-color="#242424"/>
<stop offset="0.455" stop-color="#5B5B5B"/>
<stop offset="0.6931" stop-color="#9A9A9A"/>
</linearGradient>
<linearGradient id="paint74_linear_117_3156" x1="391.421" y1="408.675" x2="391.421" y2="368.78" gradientUnits="userSpaceOnUse">
<stop stop-color="#242424"/>
<stop offset="0.455" stop-color="#5B5B5B"/>
<stop offset="0.6931" stop-color="#9A9A9A"/>
</linearGradient>
<linearGradient id="paint75_linear_117_3156" x1="396.302" y1="408.675" x2="396.302" y2="368.78" gradientUnits="userSpaceOnUse">
<stop stop-color="#242424"/>
<stop offset="0.455" stop-color="#5B5B5B"/>
<stop offset="0.6931" stop-color="#9A9A9A"/>
</linearGradient>
<linearGradient id="paint76_linear_117_3156" x1="401.183" y1="408.675" x2="401.183" y2="368.78" gradientUnits="userSpaceOnUse">
<stop stop-color="#242424"/>
<stop offset="0.455" stop-color="#5B5B5B"/>
<stop offset="0.6931" stop-color="#9A9A9A"/>
</linearGradient>
<linearGradient id="paint77_linear_117_3156" x1="406.065" y1="408.675" x2="406.065" y2="368.78" gradientUnits="userSpaceOnUse">
<stop stop-color="#242424"/>
<stop offset="0.455" stop-color="#5B5B5B"/>
<stop offset="0.6931" stop-color="#9A9A9A"/>
</linearGradient>
<linearGradient id="paint78_linear_117_3156" x1="410.946" y1="408.675" x2="410.946" y2="368.78" gradientUnits="userSpaceOnUse">
<stop stop-color="#242424"/>
<stop offset="0.455" stop-color="#5B5B5B"/>
<stop offset="0.6931" stop-color="#9A9A9A"/>
</linearGradient>
<linearGradient id="paint79_linear_117_3156" x1="415.827" y1="408.675" x2="415.827" y2="368.78" gradientUnits="userSpaceOnUse">
<stop stop-color="#242424"/>
<stop offset="0.455" stop-color="#5B5B5B"/>
<stop offset="0.6931" stop-color="#9A9A9A"/>
</linearGradient>
<linearGradient id="paint80_linear_117_3156" x1="373.688" y1="344.731" x2="381.121" y2="408.925" gradientUnits="userSpaceOnUse">
<stop stop-color="#242424"/>
<stop offset="0.455" stop-color="#5B5B5B"/>
<stop offset="0.6931" stop-color="#9A9A9A"/>
</linearGradient>
<linearGradient id="paint81_linear_117_3156" x1="376.777" y1="371.282" x2="376.777" y2="407.425" gradientUnits="userSpaceOnUse">
<stop stop-color="#242424"/>
<stop offset="0.455" stop-color="#5B5B5B"/>
<stop offset="0.6931" stop-color="#9A9A9A"/>
</linearGradient>
<linearGradient id="paint82_linear_117_3156" x1="337.727" y1="394.746" x2="337.727" y2="354.851" gradientUnits="userSpaceOnUse">
<stop stop-color="#242424"/>
<stop offset="0.455" stop-color="#5B5B5B"/>
<stop offset="0.6931" stop-color="#9A9A9A"/>
</linearGradient>
<linearGradient id="paint83_linear_117_3156" x1="342.608" y1="394.746" x2="342.608" y2="354.851" gradientUnits="userSpaceOnUse">
<stop stop-color="#242424"/>
<stop offset="0.455" stop-color="#5B5B5B"/>
<stop offset="0.6931" stop-color="#9A9A9A"/>
</linearGradient>
<linearGradient id="paint84_linear_117_3156" x1="347.49" y1="394.746" x2="347.49" y2="354.851" gradientUnits="userSpaceOnUse">
<stop stop-color="#242424"/>
<stop offset="0.455" stop-color="#5B5B5B"/>
<stop offset="0.6931" stop-color="#9A9A9A"/>
</linearGradient>
<linearGradient id="paint85_linear_117_3156" x1="352.371" y1="394.746" x2="352.371" y2="354.851" gradientUnits="userSpaceOnUse">
<stop stop-color="#242424"/>
<stop offset="0.455" stop-color="#5B5B5B"/>
<stop offset="0.6931" stop-color="#9A9A9A"/>
</linearGradient>
<linearGradient id="paint86_linear_117_3156" x1="357.252" y1="394.746" x2="357.252" y2="354.851" gradientUnits="userSpaceOnUse">
<stop stop-color="#242424"/>
<stop offset="0.455" stop-color="#5B5B5B"/>
<stop offset="0.6931" stop-color="#9A9A9A"/>
</linearGradient>
<linearGradient id="paint87_linear_117_3156" x1="362.133" y1="394.746" x2="362.133" y2="354.851" gradientUnits="userSpaceOnUse">
<stop stop-color="#242424"/>
<stop offset="0.455" stop-color="#5B5B5B"/>
<stop offset="0.6931" stop-color="#9A9A9A"/>
</linearGradient>
<linearGradient id="paint88_linear_117_3156" x1="367.015" y1="394.746" x2="367.015" y2="354.851" gradientUnits="userSpaceOnUse">
<stop stop-color="#242424"/>
<stop offset="0.455" stop-color="#5B5B5B"/>
<stop offset="0.6931" stop-color="#9A9A9A"/>
</linearGradient>
<linearGradient id="paint89_linear_117_3156" x1="371.896" y1="394.746" x2="371.896" y2="354.851" gradientUnits="userSpaceOnUse">
<stop stop-color="#242424"/>
<stop offset="0.455" stop-color="#5B5B5B"/>
<stop offset="0.6931" stop-color="#9A9A9A"/>
</linearGradient>
<linearGradient id="paint90_linear_117_3156" x1="376.777" y1="394.746" x2="376.777" y2="354.851" gradientUnits="userSpaceOnUse">
<stop stop-color="#242424"/>
<stop offset="0.455" stop-color="#5B5B5B"/>
<stop offset="0.6931" stop-color="#9A9A9A"/>
</linearGradient>
<linearGradient id="paint91_linear_117_3156" x1="381.658" y1="394.746" x2="381.658" y2="354.851" gradientUnits="userSpaceOnUse">
<stop stop-color="#242424"/>
<stop offset="0.455" stop-color="#5B5B5B"/>
<stop offset="0.6931" stop-color="#9A9A9A"/>
</linearGradient>
<linearGradient id="paint92_linear_117_3156" x1="386.539" y1="394.746" x2="386.539" y2="354.851" gradientUnits="userSpaceOnUse">
<stop stop-color="#242424"/>
<stop offset="0.455" stop-color="#5B5B5B"/>
<stop offset="0.6931" stop-color="#9A9A9A"/>
</linearGradient>
<linearGradient id="paint93_linear_117_3156" x1="391.421" y1="394.746" x2="391.421" y2="354.851" gradientUnits="userSpaceOnUse">
<stop stop-color="#242424"/>
<stop offset="0.455" stop-color="#5B5B5B"/>
<stop offset="0.6931" stop-color="#9A9A9A"/>
</linearGradient>
<linearGradient id="paint94_linear_117_3156" x1="396.302" y1="394.746" x2="396.302" y2="354.851" gradientUnits="userSpaceOnUse">
<stop stop-color="#242424"/>
<stop offset="0.455" stop-color="#5B5B5B"/>
<stop offset="0.6931" stop-color="#9A9A9A"/>
</linearGradient>
<linearGradient id="paint95_linear_117_3156" x1="401.183" y1="394.746" x2="401.183" y2="354.851" gradientUnits="userSpaceOnUse">
<stop stop-color="#242424"/>
<stop offset="0.455" stop-color="#5B5B5B"/>
<stop offset="0.6931" stop-color="#9A9A9A"/>
</linearGradient>
<linearGradient id="paint96_linear_117_3156" x1="406.065" y1="394.746" x2="406.065" y2="354.851" gradientUnits="userSpaceOnUse">
<stop stop-color="#242424"/>
<stop offset="0.455" stop-color="#5B5B5B"/>
<stop offset="0.6931" stop-color="#9A9A9A"/>
</linearGradient>
<linearGradient id="paint97_linear_117_3156" x1="410.946" y1="394.746" x2="410.946" y2="354.851" gradientUnits="userSpaceOnUse">
<stop stop-color="#242424"/>
<stop offset="0.455" stop-color="#5B5B5B"/>
<stop offset="0.6931" stop-color="#9A9A9A"/>
</linearGradient>
<linearGradient id="paint98_linear_117_3156" x1="415.827" y1="394.746" x2="415.827" y2="354.851" gradientUnits="userSpaceOnUse">
<stop stop-color="#242424"/>
<stop offset="0.455" stop-color="#5B5B5B"/>
<stop offset="0.6931" stop-color="#9A9A9A"/>
</linearGradient>
<linearGradient id="paint99_linear_117_3156" x1="373.688" y1="330.803" x2="381.121" y2="394.996" gradientUnits="userSpaceOnUse">
<stop stop-color="#242424"/>
<stop offset="0.455" stop-color="#5B5B5B"/>
<stop offset="0.6931" stop-color="#9A9A9A"/>
</linearGradient>
<linearGradient id="paint100_linear_117_3156" x1="376.777" y1="357.353" x2="376.777" y2="393.497" gradientUnits="userSpaceOnUse">
<stop stop-color="#242424"/>
<stop offset="0.455" stop-color="#5B5B5B"/>
<stop offset="0.6931" stop-color="#9A9A9A"/>
</linearGradient>
<linearGradient id="paint101_linear_117_3156" x1="337.727" y1="380.817" x2="337.727" y2="340.923" gradientUnits="userSpaceOnUse">
<stop stop-color="#242424"/>
<stop offset="0.455" stop-color="#5B5B5B"/>
<stop offset="0.6931" stop-color="#9A9A9A"/>
</linearGradient>
<linearGradient id="paint102_linear_117_3156" x1="342.608" y1="380.817" x2="342.608" y2="340.923" gradientUnits="userSpaceOnUse">
<stop stop-color="#242424"/>
<stop offset="0.455" stop-color="#5B5B5B"/>
<stop offset="0.6931" stop-color="#9A9A9A"/>
</linearGradient>
<linearGradient id="paint103_linear_117_3156" x1="347.49" y1="380.817" x2="347.49" y2="340.923" gradientUnits="userSpaceOnUse">
<stop stop-color="#242424"/>
<stop offset="0.455" stop-color="#5B5B5B"/>
<stop offset="0.6931" stop-color="#9A9A9A"/>
</linearGradient>
<linearGradient id="paint104_linear_117_3156" x1="352.371" y1="380.817" x2="352.371" y2="340.923" gradientUnits="userSpaceOnUse">
<stop stop-color="#242424"/>
<stop offset="0.455" stop-color="#5B5B5B"/>
<stop offset="0.6931" stop-color="#9A9A9A"/>
</linearGradient>
<linearGradient id="paint105_linear_117_3156" x1="357.252" y1="380.817" x2="357.252" y2="340.923" gradientUnits="userSpaceOnUse">
<stop stop-color="#242424"/>
<stop offset="0.455" stop-color="#5B5B5B"/>
<stop offset="0.6931" stop-color="#9A9A9A"/>
</linearGradient>
<linearGradient id="paint106_linear_117_3156" x1="362.133" y1="380.817" x2="362.133" y2="340.923" gradientUnits="userSpaceOnUse">
<stop stop-color="#242424"/>
<stop offset="0.455" stop-color="#5B5B5B"/>
<stop offset="0.6931" stop-color="#9A9A9A"/>
</linearGradient>
<linearGradient id="paint107_linear_117_3156" x1="367.015" y1="380.817" x2="367.015" y2="340.923" gradientUnits="userSpaceOnUse">
<stop stop-color="#242424"/>
<stop offset="0.455" stop-color="#5B5B5B"/>
<stop offset="0.6931" stop-color="#9A9A9A"/>
</linearGradient>
<linearGradient id="paint108_linear_117_3156" x1="371.896" y1="380.817" x2="371.896" y2="340.923" gradientUnits="userSpaceOnUse">
<stop stop-color="#242424"/>
<stop offset="0.455" stop-color="#5B5B5B"/>
<stop offset="0.6931" stop-color="#9A9A9A"/>
</linearGradient>
<linearGradient id="paint109_linear_117_3156" x1="376.777" y1="380.817" x2="376.777" y2="340.923" gradientUnits="userSpaceOnUse">
<stop stop-color="#242424"/>
<stop offset="0.455" stop-color="#5B5B5B"/>
<stop offset="0.6931" stop-color="#9A9A9A"/>
</linearGradient>
<linearGradient id="paint110_linear_117_3156" x1="381.658" y1="380.817" x2="381.658" y2="340.923" gradientUnits="userSpaceOnUse">
<stop stop-color="#242424"/>
<stop offset="0.455" stop-color="#5B5B5B"/>
<stop offset="0.6931" stop-color="#9A9A9A"/>
</linearGradient>
<linearGradient id="paint111_linear_117_3156" x1="386.539" y1="380.817" x2="386.539" y2="340.923" gradientUnits="userSpaceOnUse">
<stop stop-color="#242424"/>
<stop offset="0.455" stop-color="#5B5B5B"/>
<stop offset="0.6931" stop-color="#9A9A9A"/>
</linearGradient>
<linearGradient id="paint112_linear_117_3156" x1="391.421" y1="380.817" x2="391.421" y2="340.923" gradientUnits="userSpaceOnUse">
<stop stop-color="#242424"/>
<stop offset="0.455" stop-color="#5B5B5B"/>
<stop offset="0.6931" stop-color="#9A9A9A"/>
</linearGradient>
<linearGradient id="paint113_linear_117_3156" x1="396.302" y1="380.817" x2="396.302" y2="340.923" gradientUnits="userSpaceOnUse">
<stop stop-color="#242424"/>
<stop offset="0.455" stop-color="#5B5B5B"/>
<stop offset="0.6931" stop-color="#9A9A9A"/>
</linearGradient>
<linearGradient id="paint114_linear_117_3156" x1="401.183" y1="380.817" x2="401.183" y2="340.923" gradientUnits="userSpaceOnUse">
<stop stop-color="#242424"/>
<stop offset="0.455" stop-color="#5B5B5B"/>
<stop offset="0.6931" stop-color="#9A9A9A"/>
</linearGradient>
<linearGradient id="paint115_linear_117_3156" x1="406.065" y1="380.817" x2="406.065" y2="340.923" gradientUnits="userSpaceOnUse">
<stop stop-color="#242424"/>
<stop offset="0.455" stop-color="#5B5B5B"/>
<stop offset="0.6931" stop-color="#9A9A9A"/>
</linearGradient>
<linearGradient id="paint116_linear_117_3156" x1="410.946" y1="380.817" x2="410.946" y2="340.923" gradientUnits="userSpaceOnUse">
<stop stop-color="#242424"/>
<stop offset="0.455" stop-color="#5B5B5B"/>
<stop offset="0.6931" stop-color="#9A9A9A"/>
</linearGradient>
<linearGradient id="paint117_linear_117_3156" x1="415.827" y1="380.817" x2="415.827" y2="340.923" gradientUnits="userSpaceOnUse">
<stop stop-color="#242424"/>
<stop offset="0.455" stop-color="#5B5B5B"/>
<stop offset="0.6931" stop-color="#9A9A9A"/>
</linearGradient>
<linearGradient id="paint118_linear_117_3156" x1="373.688" y1="316.874" x2="381.121" y2="381.067" gradientUnits="userSpaceOnUse">
<stop stop-color="#242424"/>
<stop offset="0.455" stop-color="#5B5B5B"/>
<stop offset="0.6931" stop-color="#9A9A9A"/>
</linearGradient>
<linearGradient id="paint119_linear_117_3156" x1="376.777" y1="343.424" x2="376.777" y2="379.568" gradientUnits="userSpaceOnUse">
<stop stop-color="#242424"/>
<stop offset="0.455" stop-color="#5B5B5B"/>
<stop offset="0.6931" stop-color="#9A9A9A"/>
</linearGradient>
<linearGradient id="paint120_linear_117_3156" x1="337.727" y1="366.889" x2="337.727" y2="326.994" gradientUnits="userSpaceOnUse">
<stop stop-color="#242424"/>
<stop offset="0.455" stop-color="#5B5B5B"/>
<stop offset="0.6931" stop-color="#9A9A9A"/>
</linearGradient>
<linearGradient id="paint121_linear_117_3156" x1="342.608" y1="366.889" x2="342.608" y2="326.994" gradientUnits="userSpaceOnUse">
<stop stop-color="#242424"/>
<stop offset="0.455" stop-color="#5B5B5B"/>
<stop offset="0.6931" stop-color="#9A9A9A"/>
</linearGradient>
<linearGradient id="paint122_linear_117_3156" x1="347.49" y1="366.889" x2="347.49" y2="326.994" gradientUnits="userSpaceOnUse">
<stop stop-color="#242424"/>
<stop offset="0.455" stop-color="#5B5B5B"/>
<stop offset="0.6931" stop-color="#9A9A9A"/>
</linearGradient>
<linearGradient id="paint123_linear_117_3156" x1="352.371" y1="366.889" x2="352.371" y2="326.994" gradientUnits="userSpaceOnUse">
<stop stop-color="#242424"/>
<stop offset="0.455" stop-color="#5B5B5B"/>
<stop offset="0.6931" stop-color="#9A9A9A"/>
</linearGradient>
<linearGradient id="paint124_linear_117_3156" x1="357.252" y1="366.889" x2="357.252" y2="326.994" gradientUnits="userSpaceOnUse">
<stop stop-color="#242424"/>
<stop offset="0.455" stop-color="#5B5B5B"/>
<stop offset="0.6931" stop-color="#9A9A9A"/>
</linearGradient>
<linearGradient id="paint125_linear_117_3156" x1="362.133" y1="366.889" x2="362.133" y2="326.994" gradientUnits="userSpaceOnUse">
<stop stop-color="#242424"/>
<stop offset="0.455" stop-color="#5B5B5B"/>
<stop offset="0.6931" stop-color="#9A9A9A"/>
</linearGradient>
<linearGradient id="paint126_linear_117_3156" x1="367.015" y1="366.889" x2="367.015" y2="326.994" gradientUnits="userSpaceOnUse">
<stop stop-color="#242424"/>
<stop offset="0.455" stop-color="#5B5B5B"/>
<stop offset="0.6931" stop-color="#9A9A9A"/>
</linearGradient>
<linearGradient id="paint127_linear_117_3156" x1="371.896" y1="366.889" x2="371.896" y2="326.994" gradientUnits="userSpaceOnUse">
<stop stop-color="#242424"/>
<stop offset="0.455" stop-color="#5B5B5B"/>
<stop offset="0.6931" stop-color="#9A9A9A"/>
</linearGradient>
<linearGradient id="paint128_linear_117_3156" x1="376.777" y1="366.889" x2="376.777" y2="326.994" gradientUnits="userSpaceOnUse">
<stop stop-color="#242424"/>
<stop offset="0.455" stop-color="#5B5B5B"/>
<stop offset="0.6931" stop-color="#9A9A9A"/>
</linearGradient>
<linearGradient id="paint129_linear_117_3156" x1="381.658" y1="366.889" x2="381.658" y2="326.994" gradientUnits="userSpaceOnUse">
<stop stop-color="#242424"/>
<stop offset="0.455" stop-color="#5B5B5B"/>
<stop offset="0.6931" stop-color="#9A9A9A"/>
</linearGradient>
<linearGradient id="paint130_linear_117_3156" x1="386.539" y1="366.889" x2="386.539" y2="326.994" gradientUnits="userSpaceOnUse">
<stop stop-color="#242424"/>
<stop offset="0.455" stop-color="#5B5B5B"/>
<stop offset="0.6931" stop-color="#9A9A9A"/>
</linearGradient>
<linearGradient id="paint131_linear_117_3156" x1="391.421" y1="366.889" x2="391.421" y2="326.994" gradientUnits="userSpaceOnUse">
<stop stop-color="#242424"/>
<stop offset="0.455" stop-color="#5B5B5B"/>
<stop offset="0.6931" stop-color="#9A9A9A"/>
</linearGradient>
<linearGradient id="paint132_linear_117_3156" x1="396.302" y1="366.889" x2="396.302" y2="326.994" gradientUnits="userSpaceOnUse">
<stop stop-color="#242424"/>
<stop offset="0.455" stop-color="#5B5B5B"/>
<stop offset="0.6931" stop-color="#9A9A9A"/>
</linearGradient>
<linearGradient id="paint133_linear_117_3156" x1="401.183" y1="366.889" x2="401.183" y2="326.994" gradientUnits="userSpaceOnUse">
<stop stop-color="#242424"/>
<stop offset="0.455" stop-color="#5B5B5B"/>
<stop offset="0.6931" stop-color="#9A9A9A"/>
</linearGradient>
<linearGradient id="paint134_linear_117_3156" x1="406.065" y1="366.889" x2="406.065" y2="326.994" gradientUnits="userSpaceOnUse">
<stop stop-color="#242424"/>
<stop offset="0.455" stop-color="#5B5B5B"/>
<stop offset="0.6931" stop-color="#9A9A9A"/>
</linearGradient>
<linearGradient id="paint135_linear_117_3156" x1="410.946" y1="366.889" x2="410.946" y2="326.994" gradientUnits="userSpaceOnUse">
<stop stop-color="#242424"/>
<stop offset="0.455" stop-color="#5B5B5B"/>
<stop offset="0.6931" stop-color="#9A9A9A"/>
</linearGradient>
<linearGradient id="paint136_linear_117_3156" x1="415.827" y1="366.889" x2="415.827" y2="326.994" gradientUnits="userSpaceOnUse">
<stop stop-color="#242424"/>
<stop offset="0.455" stop-color="#5B5B5B"/>
<stop offset="0.6931" stop-color="#9A9A9A"/>
</linearGradient>
<linearGradient id="paint137_linear_117_3156" x1="373.688" y1="302.945" x2="381.121" y2="367.139" gradientUnits="userSpaceOnUse">
<stop stop-color="#242424"/>
<stop offset="0.455" stop-color="#5B5B5B"/>
<stop offset="0.6931" stop-color="#9A9A9A"/>
</linearGradient>
<linearGradient id="paint138_linear_117_3156" x1="338.991" y1="328.487" x2="414.563" y2="328.487" gradientUnits="userSpaceOnUse">
<stop stop-color="#242424"/>
<stop offset="0.455" stop-color="#5B5B5B"/>
<stop offset="0.6931" stop-color="#9A9A9A"/>
</linearGradient>
</defs>
</svg>
