<svg width="471" height="405" viewBox="0 0 471 405" fill="none" xmlns="http://www.w3.org/2000/svg">
<g clip-path="url(#clip0_128_5800)">
<path d="M236.437 385.301L471 248.816V233.338L236.437 369.823L236.203 385.301H236.437Z" fill="#6F6F6F"/>
<path d="M236.203 385.301L236.437 369.823L0.234328 233.338L0 268.749L0.234328 248.816L236.203 385.301Z" fill="#484848"/>
<path d="M236.438 392.571L471 256.32V248.816L236.438 385.301V392.571Z" fill="#A0A0A0"/>
<path d="M236.203 392.571H236.437V385.301H236.203V392.571Z" fill="#484848"/>
<path d="M236.203 392.571V385.301L0.234328 248.816L0 268.749L0.234328 256.086L236.203 392.571Z" fill="#676767"/>
<path d="M236.437 392.571H236.203V405L470.766 268.515L471 256.32L236.437 392.571Z" fill="#676767"/>
<path d="M236.203 392.571L0.234328 256.086L0 268.749L236.203 405V392.571Z" fill="#444444"/>
<path d="M471 233.338L234.797 96.8529L0.234375 233.338L236.437 369.823L471 233.338Z" fill="#9B9B9B"/>
<path d="M100.996 254.679L99.1209 252.333L93.2627 248.816V249.988L100.058 254.444L100.761 254.679H100.996Z" fill="#A0A0A0"/>
<path d="M187.463 211.529L219.331 193.471L214.645 190.423L213.942 192.299L187.463 208.949L160.28 193.002V190.892L156.062 193.471L187.463 211.529Z" fill="#6F6F6F"/>
<path d="M212.067 175.179L223.081 168.848L218.394 165.799L218.863 168.613L212.067 172.6L205.037 168.613V166.503L200.819 169.082L212.067 175.179Z" fill="#6F6F6F"/>
<path d="M212.067 151.963V172.6L218.863 168.613V147.976L212.067 151.963Z" fill="#808080"/>
<path d="M205.037 147.976V168.613L212.067 172.6V151.963L205.037 147.976Z" fill="#484848"/>
<path d="M212.067 129.684V157.122L232.688 145.162L232.923 117.724L212.067 129.684Z" fill="#6F6F6F"/>
<path d="M191.212 117.724L190.978 145.162L212.067 157.122V129.684L191.212 117.724Z" fill="#484848"/>
<path d="M232.922 117.724L212.067 105.53L191.212 117.724L212.067 129.684L232.922 117.724Z" fill="#C2C2C2"/>
<path d="M256.121 254.679L267.369 248.581L262.448 245.298L261.745 247.409L256.121 252.099L249.325 248.112V246.002L245.107 248.581L256.121 254.679Z" fill="#6F6F6F"/>
<path d="M256.121 231.462V252.099L262.917 248.112V227.475L256.121 231.462Z" fill="#808080"/>
<path d="M249.325 227.475L249.091 248.112L256.121 252.099V231.462L249.325 227.475Z" fill="#484848"/>
<path d="M256.355 174.241L256.121 236.856L276.742 224.661L276.976 162.281L256.355 174.241Z" fill="#6F6F6F"/>
<path d="M235.266 162.281V224.661L256.121 236.856L256.355 174.241L235.266 162.281Z" fill="#484848"/>
<path d="M276.976 162.281L256.121 150.087L235.266 162.281L256.355 174.241L276.976 162.281Z" fill="#C2C2C2"/>
<path d="M334.855 224.192L345.869 217.86L341.182 214.812L340.479 216.922L334.855 221.613L328.06 217.626V215.281L323.607 218.095L334.855 224.192Z" fill="#6F6F6F"/>
<path d="M334.855 200.976V221.613L341.651 217.626V196.989L334.855 200.976Z" fill="#808080"/>
<path d="M328.06 196.989V217.626L334.855 221.613V200.976L328.06 196.989Z" fill="#484848"/>
<path d="M335.09 157.826L334.855 206.369L355.476 194.175L355.711 145.631L335.09 157.826Z" fill="#6F6F6F"/>
<path d="M314 145.631V194.175L334.855 206.369L335.09 157.826L314 145.631Z" fill="#484848"/>
<path d="M355.71 145.631L334.855 133.671L314 145.631L335.09 157.826L355.71 145.631Z" fill="#C2C2C2"/>
<path d="M325.013 295.952L336.261 289.621L331.34 286.572L330.637 288.683L325.013 293.373L318.218 289.386V287.041L314 289.855L325.013 295.952Z" fill="#6F6F6F"/>
<path d="M325.014 272.736V293.373L331.809 289.386V268.749L325.014 272.736Z" fill="#808080"/>
<path d="M318.218 268.749L317.983 289.386L325.013 293.373V272.736L318.218 268.749Z" fill="#484848"/>
<path d="M325.248 250.457L325.014 278.13L345.635 265.935L345.869 238.497L325.248 250.457Z" fill="#6F6F6F"/>
<path d="M304.158 238.497V265.935L325.013 278.13L325.248 250.457L304.158 238.497Z" fill="#484848"/>
<path d="M345.869 238.497L325.013 226.303L304.158 238.497L325.248 250.457L345.869 238.497Z" fill="#C2C2C2"/>
<path d="M291.27 327.846C296.058 327.846 299.94 325.536 299.94 322.687C299.94 319.837 296.058 317.527 291.27 317.527C286.481 317.527 282.6 319.837 282.6 322.687C282.6 325.536 286.481 327.846 291.27 327.846Z" fill="#484848"/>
<path d="M295.722 189.25V323.39C295.722 324.094 295.253 324.797 294.316 325.501C292.441 326.673 289.395 326.673 287.286 325.501C286.349 325.032 285.88 324.094 285.88 323.39V189.25C285.88 189.954 286.349 190.657 287.286 191.361C289.16 192.533 292.207 192.533 294.316 191.361C295.253 190.657 295.722 189.954 295.722 189.25Z" fill="#E0E0E0"/>
<path d="M295.722 183.622V213.17C295.722 213.874 295.253 214.577 294.316 215.281C292.441 216.453 289.395 216.453 287.286 215.281C286.349 214.812 285.88 213.874 285.88 213.17V183.622C285.88 184.325 286.349 185.029 287.286 185.732C289.16 186.905 292.207 186.905 294.316 185.732C295.253 185.029 295.722 184.325 295.722 183.622Z" fill="#A0A0A0"/>
<path d="M263.385 185.967L290.801 201.679L318.218 185.967L290.801 170.02L263.385 185.967Z" fill="#CCCCCC"/>
<path d="M263.385 185.967V189.25L290.801 204.962V201.679L263.385 185.967Z" fill="#E0E0E0"/>
<path d="M318.217 185.967L290.801 201.679V204.962L318.217 189.25V185.967Z" fill="#E0E0E0"/>
<path d="M295.722 132.968V187.609C295.722 188.312 295.253 189.016 294.316 189.719C292.441 190.892 289.395 190.892 287.286 189.719C286.349 189.25 285.88 188.312 285.88 187.609V132.968C285.88 133.671 286.349 134.375 287.286 135.078C289.16 136.251 292.207 136.251 294.316 135.078C295.253 134.375 295.722 133.671 295.722 132.968Z" fill="#E0E0E0"/>
<path d="M295.722 142.113V171.662C295.722 172.365 295.253 173.069 294.316 173.772C292.441 174.945 289.395 174.945 287.286 173.772C286.349 173.303 285.88 172.365 285.88 171.662V142.113C285.88 142.817 286.349 143.521 287.286 144.224C289.16 145.397 292.207 145.397 294.316 144.224C295.253 143.521 295.722 142.817 295.722 142.113Z" fill="#A0A0A0"/>
<path d="M282.6 161.343L289.161 165.33V177.525L282.6 173.538V161.343Z" fill="#E0E0E0"/>
<path d="M289.161 165.33L292.91 163.219V175.414L289.161 177.525V165.33Z" fill="#A0A0A0"/>
<path d="M282.6 161.343L286.349 159.467L292.91 163.219L289.161 165.33L282.6 161.343Z" fill="#CCCCCC"/>
<path d="M281.897 142.113L234.094 136.016C231.985 135.782 229.876 135.782 227.767 135.782L224.018 136.016C222.846 135.782 222.377 137.189 223.08 137.892L230.579 141.644C232.453 143.286 234.797 144.459 237.374 144.693L265.962 149.383C269.946 149.852 274.164 149.618 277.679 147.742L279.319 146.335L281.897 142.113Z" fill="#A0A0A0"/>
<path d="M280.256 143.521L224.018 136.251C222.846 136.016 222.377 137.423 223.08 138.127L228.939 143.286C230.813 144.928 233.156 146.1 235.734 146.335L264.322 151.025C268.306 151.494 272.289 150.79 275.804 148.914L277.679 147.976L280.256 143.521Z" fill="#E0E0E0"/>
<path d="M272.992 134.14C273.226 134.14 273.226 134.14 273.461 134.14H273.695C273.929 134.14 273.929 134.14 274.164 134.14C274.164 134.14 274.398 134.14 274.632 134.14C274.867 134.14 274.867 134.14 275.101 134.14C275.335 134.14 275.335 134.14 275.57 134.14C275.804 134.14 275.804 134.14 276.038 134.14C276.273 134.14 276.273 134.14 276.507 134.14C276.741 134.14 276.976 134.14 276.976 134.375C277.21 134.375 277.21 134.375 277.444 134.375C277.679 134.375 277.913 134.609 278.147 134.609C278.147 134.609 278.382 134.609 278.382 134.844C278.616 135.078 279.085 135.078 279.319 135.313L300.174 123.118C297.597 121.711 295.253 121.477 293.379 122.415L272.523 134.609C272.523 134.609 272.758 134.609 272.992 134.375C272.758 134.375 272.758 134.14 272.992 134.14Z" fill="#CCCCCC"/>
<path d="M299.706 123.118L278.851 135.313C284.006 138.361 288.224 145.631 288.224 151.728C288.224 152.197 288.224 152.432 288.224 152.901C288.224 153.135 288.224 153.135 288.224 153.37C288.224 153.605 288.224 153.839 288.224 154.074C288.224 154.308 288.224 154.308 288.224 154.543C288.224 154.777 288.224 155.012 287.989 155.012C287.989 155.246 287.989 155.246 287.755 155.246C287.755 155.481 287.521 155.481 287.521 155.715C287.521 155.715 287.521 155.95 287.286 155.95C287.286 156.184 287.052 156.184 287.052 156.419L286.818 156.653L286.583 156.888L286.349 157.122L286.115 157.357L285.88 157.591L285.646 157.826L306.501 145.631C308.142 144.693 309.313 142.582 309.313 139.534C309.313 133.437 305.095 126.167 299.706 123.118Z" fill="#CCCCCC"/>
<path d="M286.583 156.888L286.818 156.653L287.052 156.419L287.286 156.184C287.286 155.95 287.521 155.95 287.521 155.715L287.755 155.481C287.755 155.246 287.989 155.246 287.989 155.012C287.989 155.012 287.989 154.777 288.224 154.777C288.224 154.543 288.224 154.308 288.458 154.308C288.458 154.074 288.458 154.073 288.458 153.839C288.458 153.604 288.458 153.37 288.458 153.135C288.458 152.901 288.458 152.901 288.458 152.666C288.458 152.432 288.458 151.963 288.458 151.494C288.458 145.397 284.24 138.127 279.085 135.078C278.851 134.844 278.382 134.609 278.148 134.609C278.148 134.609 277.913 134.609 277.913 134.375C277.679 134.375 277.445 134.14 277.21 134.14C276.976 134.14 276.976 134.14 276.742 134.14C276.507 134.14 276.273 134.14 276.273 133.906C276.039 133.906 276.039 133.906 275.804 133.906C275.57 133.906 275.57 133.906 275.336 133.906C275.101 133.906 275.101 133.906 274.867 133.906C274.633 133.906 274.633 133.906 274.398 133.906C274.164 133.906 274.164 133.906 273.93 133.906C273.695 133.906 273.695 133.906 273.461 133.906H273.227C272.992 133.906 272.992 133.906 272.758 133.906C272.758 133.906 272.524 133.906 272.524 134.14C272.289 134.14 272.289 134.14 272.055 134.375C270.415 135.313 269.243 137.423 269.243 140.472C269.243 146.569 273.461 153.839 278.616 156.888C281.428 158.529 284.006 158.529 285.646 157.357L285.88 157.122C286.349 157.122 286.349 157.122 286.583 156.888Z" fill="#E0E0E0"/>
<path d="M294.316 148.211L309.547 186.905C311.422 191.83 312.593 196.754 313.531 201.914L313.999 204.493C314.468 205.9 313.062 207.073 311.656 206.369L308.844 201.679C306.266 200.272 304.157 197.692 303.22 194.878L291.269 162.516C290.801 161.109 290.566 159.702 290.566 158.295C290.566 155.95 291.269 151.259 292.441 149.383L294.316 148.211Z" fill="#A0A0A0"/>
<path d="M284.006 131.326L279.554 74.1053C279.554 72.4638 281.663 71.9947 282.366 73.4018L285.881 77.3885C288.927 81.1407 290.801 85.8309 290.801 90.5211V112.096C290.801 117.959 289.396 123.587 286.349 128.512L284.006 131.326Z" fill="#A0A0A0"/>
<path d="M277.679 139.299C277.444 139.065 277.21 139.065 276.976 139.065H276.741C276.507 139.065 276.507 139.065 276.273 138.83H276.038H275.804H275.57H275.335H275.101H274.867H274.632H274.398H274.164H273.929H273.695H273.461C273.226 138.83 272.992 139.065 272.992 139.299C272.758 139.534 272.758 139.534 272.523 139.768L266.9 146.335C265.259 147.976 265.025 150.321 265.962 152.197C266.9 153.604 268.54 154.543 270.18 154.543L280.491 153.839H280.725C281.194 153.839 281.662 153.604 281.897 153.37C281.897 153.37 282.131 153.37 282.131 153.135C282.131 153.135 282.365 153.135 282.365 152.901C282.365 152.901 282.365 152.901 282.6 152.666C282.6 152.666 282.6 152.432 282.834 152.432C282.834 152.432 282.834 152.432 283.068 152.197C283.068 152.197 283.068 151.963 283.303 151.963V151.728C283.303 151.728 283.303 151.494 283.537 151.494V151.259V151.025V150.79C283.537 150.556 283.537 150.556 283.537 150.321V150.087C283.537 149.852 283.537 149.618 283.537 149.383C283.771 145.866 280.959 141.175 277.679 139.299Z" fill="#CCCCCC"/>
<path d="M282.365 135.078L284.474 133.202L287.286 126.87H286.114L282.365 134.14V135.078Z" fill="#A0A0A0"/>
<path d="M285.646 78.561L282.6 73.4018C281.897 71.9947 279.788 72.6983 279.788 74.1053V133.906C279.788 133.906 282.131 134.844 282.366 135.313V135.078L284.24 131.326C287.052 126.401 288.693 120.538 288.693 114.91V89.8175C288.458 85.8309 287.521 82.0787 285.646 78.561Z" fill="#E0E0E0"/>
<path d="M314.234 204.493L292.676 149.383L291.973 148.211L290.098 151.025C290.333 151.728 290.098 153.135 290.098 153.135C288.927 155.012 288.224 157.357 288.224 159.702C288.224 161.109 288.458 162.516 288.927 163.923L300.877 196.285C301.815 199.1 303.924 201.679 306.501 203.086L311.891 206.135C313.297 207.307 314.703 205.9 314.234 204.493Z" fill="#E0E0E0"/>
<path d="M291.973 148.211L294.082 147.507L294.316 148.211L292.676 149.383L291.973 148.211Z" fill="#A0A0A0"/>
<path opacity="0.46" d="M288.458 89.8176C288.458 85.8309 287.521 82.0787 285.412 78.561L282.366 73.4018C281.663 71.9947 279.554 72.6983 279.554 74.1053V101.543L288.458 110.454V89.8176Z" fill="white"/>
<path opacity="0.46" d="M224.018 136.251C222.846 136.016 222.377 137.423 223.08 138.127L228.938 143.286C230.813 144.928 233.156 146.1 235.734 146.335L257.995 149.618L247.45 139.065L224.018 136.251Z" fill="white"/>
<path opacity="0.46" d="M308.845 190.657L293.145 174.945L301.112 196.52C302.049 199.334 304.158 201.914 306.736 203.321L312.125 206.369C313.297 207.073 314.937 205.9 314.468 204.493L308.845 190.657Z" fill="white"/>
<path d="M269.712 151.494C270.617 151.494 271.352 150.759 271.352 149.852C271.352 148.946 270.617 148.211 269.712 148.211C268.806 148.211 268.071 148.946 268.071 149.852C268.071 150.759 268.806 151.494 269.712 151.494Z" fill="white"/>
<path opacity="0.6" d="M319.858 193.471C320.327 193.002 320.796 192.768 321.03 192.299C321.498 191.83 321.967 191.126 322.201 190.657C322.67 190.188 322.904 189.719 323.373 189.25C323.842 188.547 324.076 187.843 324.545 187.139C324.779 186.67 325.248 186.201 325.482 185.498C325.951 184.794 326.185 183.856 326.419 183.153C326.654 182.684 326.888 181.98 327.122 181.511C327.357 180.573 327.591 179.87 327.825 178.932C328.06 178.228 328.294 177.759 328.294 177.056C328.528 176.117 328.528 174.945 328.763 174.007C328.763 173.303 328.997 172.834 328.997 172.131C329.231 170.489 329.231 168.613 329.231 166.737C329.231 136.954 308.376 100.84 282.6 86.0654C280.96 85.1273 279.319 84.1893 277.679 83.4857C277.21 83.2512 276.507 83.0167 276.039 82.7822C275.101 82.3132 273.93 81.8442 272.993 81.6097C272.29 81.3752 271.821 81.3752 271.118 81.1406C270.181 80.9061 269.243 80.6716 268.54 80.4371C267.837 80.2026 267.369 80.2026 266.666 80.2026C265.963 79.9681 265.025 79.9681 264.322 79.7336C263.619 79.7336 263.151 79.7336 262.448 79.7336C261.745 79.7336 260.807 79.7336 260.104 79.7336C259.401 79.7336 258.933 79.9681 258.464 79.9681C257.761 79.9681 257.058 80.2026 256.355 80.2026C255.887 80.2026 255.184 80.4371 254.715 80.6716C254.012 80.9061 253.309 80.9061 252.84 81.1406C252.372 81.3752 251.903 81.6097 251.2 81.8442C250.497 82.0787 250.028 82.3132 249.325 82.7822C240.89 87.7069 235.734 98.0254 235.5 112.8C235.5 142.582 256.355 178.697 282.131 193.706C295.957 201.679 308.376 201.914 316.812 195.816C317.281 195.582 317.749 195.113 318.218 194.878C318.687 194.409 319.155 193.94 319.858 193.471Z" fill="#9A9A9A"/>
<path opacity="0.3" d="M401.405 117.724C401.874 117.255 402.342 117.021 402.577 116.552C403.045 116.083 403.514 115.379 403.748 114.91C404.217 114.441 404.451 113.972 404.92 113.503C405.389 112.8 405.623 112.096 406.092 111.393C406.326 110.924 406.795 110.455 407.029 109.751C407.263 109.047 407.732 108.109 407.966 107.406C408.201 106.937 408.435 106.233 408.669 105.764C408.904 104.826 409.138 104.123 409.372 103.185C409.607 102.481 409.607 102.012 409.841 101.309C410.075 100.371 410.075 99.198 410.31 98.26C410.31 97.5565 410.544 97.0874 410.544 96.3839C410.778 94.7423 410.778 92.8662 410.778 90.9902C410.778 61.2073 389.923 25.0927 364.147 10.3185C362.507 9.38044 360.866 8.4424 359.226 7.73887C358.757 7.50435 358.054 7.26984 357.586 7.03533C356.648 6.56631 355.477 6.09729 354.539 5.86278C353.836 5.62827 353.368 5.62827 352.665 5.39376C351.727 5.15925 350.79 4.92474 350.087 4.69023C349.384 4.45572 348.916 4.45572 348.213 4.45572C347.51 4.2212 346.572 4.22121 345.869 3.98669C345.166 3.98669 344.698 3.98669 343.995 3.98669C343.292 3.98669 342.354 3.98669 341.651 3.98669C340.948 3.98669 340.48 4.2212 340.011 4.2212C339.308 4.2212 338.605 4.45572 337.902 4.45572C337.433 4.45572 336.73 4.69023 336.262 4.92474C335.559 5.15925 334.856 5.15925 334.387 5.39376C333.919 5.62827 333.45 5.86278 332.747 6.09729C332.044 6.3318 331.575 6.56631 330.872 7.03533C322.436 11.9601 317.281 22.2785 317.047 37.0527C317.047 66.8356 337.902 102.95 363.678 117.959C377.504 125.932 389.923 126.167 398.359 120.069C398.827 119.835 399.296 119.366 399.765 119.131C400.468 118.662 400.936 118.193 401.405 117.724Z" fill="#9A9A9A"/>
<path d="M373.754 255.382C378.543 255.382 382.424 253.072 382.424 250.223C382.424 247.374 378.543 245.064 373.754 245.064C368.966 245.064 365.084 247.374 365.084 250.223C365.084 253.072 368.966 255.382 373.754 255.382Z" fill="#484848"/>
<path d="M378.206 116.552V250.692C378.206 251.395 377.737 252.099 376.8 252.803C374.925 253.975 371.879 253.975 369.77 252.803C368.833 252.334 368.364 251.395 368.364 250.692V116.552C368.364 117.255 368.833 117.959 369.77 118.662C371.645 119.835 374.691 119.835 376.8 118.662C377.737 117.959 378.206 117.255 378.206 116.552Z" fill="#E0E0E0"/>
<path d="M378.206 111.158V140.706C378.206 141.41 377.737 142.113 376.8 142.817C374.925 143.99 371.879 143.99 369.77 142.817C368.833 142.348 368.364 141.41 368.364 140.706V111.158C368.364 111.862 368.833 112.565 369.77 113.269C371.645 114.441 374.691 114.441 376.8 113.269C377.737 112.565 378.206 111.862 378.206 111.158Z" fill="#A0A0A0"/>
<path d="M345.869 113.269L373.286 129.215L400.702 113.269L373.286 97.5564L345.869 113.269Z" fill="#CCCCCC"/>
<path d="M345.869 113.269V116.552L373.286 132.498V129.215L345.869 113.269Z" fill="#E0E0E0"/>
<path d="M400.702 113.269L373.285 129.215V132.498L400.702 116.552V113.269Z" fill="#E0E0E0"/>
<path d="M378.206 60.2692V114.91C378.206 115.614 377.737 116.317 376.8 117.021C374.925 118.193 371.879 118.193 369.77 117.021C368.833 116.552 368.364 115.614 368.364 114.91V60.2692C368.364 60.9728 368.833 61.6763 369.77 62.3798C371.645 63.5524 374.691 63.5524 376.8 62.3798C377.737 61.9108 378.206 60.9728 378.206 60.2692Z" fill="#E0E0E0"/>
<path d="M378.206 69.4152V98.9635C378.206 99.667 377.737 100.371 376.8 101.074C374.925 102.247 371.879 102.247 369.77 101.074C368.833 100.605 368.364 99.667 368.364 98.9635V69.4152C368.364 70.1187 368.833 70.8222 369.77 71.5258C371.645 72.6983 374.691 72.6983 376.8 71.5258C377.737 70.8222 378.206 70.1187 378.206 69.4152Z" fill="#A0A0A0"/>
<path d="M365.084 88.8795L371.645 92.6317V104.826L365.084 101.074V88.8795Z" fill="#E0E0E0"/>
<path d="M371.646 92.6317L375.395 90.5211V102.716L371.646 104.826V92.6317Z" fill="#A0A0A0"/>
<path d="M365.084 88.8795L368.833 86.7689L375.394 90.5211L371.645 92.6317L365.084 88.8795Z" fill="#CCCCCC"/>
<path d="M364.381 69.4152L316.578 63.3179C314.469 63.0834 312.36 63.0834 310.251 63.0834L306.502 63.3179C305.33 63.0834 304.862 64.4904 305.565 65.194L313.063 68.9461C314.938 70.5877 317.281 71.7603 319.859 71.9948L348.447 76.685C352.43 77.154 356.648 76.9195 360.163 75.0434L361.803 73.6364L364.381 69.4152Z" fill="#A0A0A0"/>
<path d="M362.741 70.8222L306.502 63.5524C305.33 63.3178 304.862 64.7249 305.565 65.4284L311.423 70.5877C313.298 72.2293 315.641 73.4018 318.218 73.6363L346.806 78.3265C350.79 78.7956 354.774 78.092 358.289 76.2159L360.163 75.2779L362.741 70.8222Z" fill="#E0E0E0"/>
<path d="M355.476 61.6763C355.711 61.6763 355.711 61.6763 355.945 61.6763H356.179C356.414 61.6763 356.414 61.6763 356.648 61.6763C356.648 61.6763 356.882 61.6763 357.117 61.6763C357.351 61.6763 357.351 61.6763 357.585 61.6763C357.82 61.6763 357.82 61.6763 358.054 61.6763C358.288 61.6763 358.288 61.6763 358.523 61.6763C358.757 61.6763 358.757 61.6763 358.991 61.6763C359.226 61.6763 359.46 61.6763 359.46 61.9108C359.694 61.9108 359.694 61.9108 359.929 61.9108C360.163 61.9108 360.397 62.1453 360.632 62.1453C360.632 62.1453 360.866 62.1453 360.866 62.3798C361.1 62.6143 361.569 62.6143 361.803 62.8489L382.659 50.6543C380.081 49.2472 377.738 49.0127 375.863 49.9508L355.008 62.1453C355.008 62.1453 355.242 62.1453 355.476 61.9108C355.242 61.6763 355.242 61.6763 355.476 61.6763Z" fill="#CCCCCC"/>
<path d="M382.19 50.4198L361.335 62.6144C366.49 65.663 370.708 72.9328 370.708 79.0301C370.708 79.4991 370.708 79.7336 370.708 80.2027C370.708 80.4372 370.708 80.4372 370.708 80.6717C370.708 80.9062 370.708 81.1407 370.708 81.3752C370.708 81.6097 370.708 81.6097 370.708 81.8442C370.708 82.0787 370.708 82.3133 370.474 82.3133C370.474 82.5478 370.474 82.5478 370.239 82.5478C370.239 82.7823 370.005 82.7823 370.005 83.0168C370.005 83.0168 370.005 83.2513 369.771 83.2513C369.771 83.4858 369.536 83.4858 369.536 83.7203L369.302 83.9548L369.068 84.1893L368.833 84.4239L368.599 84.6584L368.365 84.8929L368.131 85.1274L388.986 72.9328C390.626 71.9948 391.798 69.8842 391.798 66.8355C391.798 60.7383 387.58 53.4684 382.19 50.4198Z" fill="#CCCCCC"/>
<path d="M369.068 84.4238L369.302 84.1893L369.536 83.9548L369.771 83.7203C369.771 83.4858 370.005 83.4858 370.005 83.2513L370.239 83.0168C370.239 82.7822 370.474 82.7822 370.474 82.5477C370.474 82.5477 370.474 82.3132 370.708 82.3132C370.708 82.0787 370.708 81.8442 370.942 81.8442C370.942 81.6097 370.942 81.6097 370.942 81.3752C370.942 81.1407 370.942 80.9062 370.942 80.6717C370.942 80.4371 370.942 80.4371 370.942 80.2026C370.942 79.9681 370.942 79.4991 370.942 79.0301C370.942 72.9328 366.725 65.663 361.569 62.6143C361.335 62.3798 360.866 62.1453 360.632 62.1453C360.632 62.1453 360.398 62.1453 360.398 61.9108C360.163 61.9108 359.929 61.6763 359.695 61.6763C359.46 61.6763 359.46 61.6763 359.226 61.6763C358.992 61.6763 358.757 61.6763 358.757 61.4418C358.523 61.4418 358.523 61.4418 358.289 61.4418C358.054 61.4418 358.054 61.4418 357.82 61.4418C357.586 61.4418 357.586 61.4418 357.351 61.4418C357.117 61.4418 357.117 61.4418 356.883 61.4418C356.648 61.4418 356.648 61.4418 356.414 61.4418C356.18 61.4418 356.18 61.4418 355.945 61.4418H355.711C355.477 61.4418 355.477 61.4418 355.242 61.4418C355.242 61.4418 355.008 61.4418 355.008 61.6763C354.774 61.6763 354.774 61.6763 354.539 61.9108C352.899 62.8488 351.728 64.9594 351.728 68.0081C351.728 74.1053 355.945 81.3752 361.101 84.4238C363.913 86.0654 366.49 86.0654 368.131 84.8928L368.365 84.6583C368.833 84.4238 368.833 84.4238 369.068 84.4238Z" fill="#E0E0E0"/>
<path d="M376.8 75.7469L392.031 114.441C393.906 119.366 395.078 124.291 396.015 129.45L396.484 132.03C396.952 133.437 395.546 134.609 394.14 133.906L391.328 129.215C388.751 127.808 386.642 125.229 385.705 122.415L373.754 90.0521C373.285 88.645 373.051 87.238 373.051 85.8309C373.051 83.4858 373.754 78.7956 374.925 76.9195L376.8 75.7469Z" fill="#A0A0A0"/>
<path d="M366.49 58.6277L362.038 1.40704C362.038 -0.234534 364.147 -0.703555 364.85 0.703509L368.131 4.69019C371.177 8.44236 373.052 13.1326 373.052 17.8228V39.3978C373.052 45.2605 371.646 50.8888 368.599 55.8135L366.49 58.6277Z" fill="#A0A0A0"/>
<path d="M360.163 66.601C359.929 66.3665 359.694 66.3665 359.46 66.3665H359.226C358.991 66.3665 358.991 66.3665 358.757 66.132H358.523H358.288H358.054H357.82H357.585H357.351H357.117H356.882H356.648H356.414H356.179H355.945C355.711 66.132 355.477 66.3665 355.477 66.601C355.242 66.8355 355.242 66.8356 355.008 67.0701L349.384 73.6364C347.744 75.2779 347.509 77.623 348.447 79.4991C349.384 80.9062 351.024 81.8442 352.665 81.8442L362.975 81.1407H363.209C363.678 81.1407 364.147 80.9062 364.381 80.6717C364.381 80.6717 364.615 80.6717 364.615 80.4372L364.85 80.2027C364.85 80.2027 364.85 80.2027 365.084 79.9681C365.084 79.9681 365.084 79.7336 365.318 79.7336C365.318 79.7336 365.318 79.7336 365.553 79.4991C365.553 79.4991 365.553 79.2646 365.787 79.2646V79.0301C365.787 79.0301 365.787 78.7956 366.021 78.7956V78.5611V78.3266V78.0921C366.021 77.8576 366.021 77.8575 366.021 77.623V77.3885C366.021 77.154 366.021 76.9195 366.021 76.685C366.256 73.1673 363.444 68.4771 360.163 66.601Z" fill="#CCCCCC"/>
<path d="M364.85 62.6144L366.959 60.5038L369.771 54.4065H368.599L364.85 61.6763V62.3799V62.6144Z" fill="#A0A0A0"/>
<path d="M368.131 6.09723L365.084 0.93799C364.381 -0.469074 362.272 0.234458 362.272 1.64152V61.4418C362.272 61.4418 364.616 62.3798 364.85 62.8488V62.6143L366.725 58.8621C369.537 53.9374 371.177 48.0746 371.177 42.4464V17.1192C370.943 13.3671 370.005 9.38038 368.131 6.09723Z" fill="#E0E0E0"/>
<path d="M396.718 132.03L375.16 76.9195L374.457 75.7469L372.583 78.5611C372.817 79.2646 372.583 80.6717 372.583 80.6717C371.411 82.5478 370.708 84.8929 370.708 87.238C370.708 88.645 370.942 90.0521 371.411 91.4592L383.362 123.822C384.299 126.636 386.408 129.215 388.986 130.622L394.375 133.671C395.781 134.609 397.187 133.437 396.718 132.03Z" fill="#E0E0E0"/>
<path d="M374.457 75.7469L376.566 75.0434L376.8 75.7469L375.16 76.685L374.457 75.7469Z" fill="#A0A0A0"/>
<path opacity="0.46" d="M370.943 17.1192C370.943 13.1326 370.005 9.38039 367.896 5.86273L364.85 0.703493C364.147 -0.703571 362.038 -3.91304e-05 362.038 1.40703V28.8448L370.943 37.7562V17.1192Z" fill="white"/>
<path opacity="0.46" d="M306.502 63.5524C305.33 63.3178 304.862 64.7249 305.565 65.4284L311.423 70.5877C313.298 72.2293 315.641 73.4018 318.218 73.6363L340.48 76.9195L329.935 66.3665L306.502 63.5524Z" fill="white"/>
<path opacity="0.46" d="M391.329 118.193L375.629 102.481L383.596 124.056C384.533 126.87 386.642 129.45 389.22 130.857L394.609 133.906C395.781 134.609 397.421 133.437 396.953 132.029L391.329 118.193Z" fill="white"/>
<path d="M352.196 78.7956C353.102 78.7956 353.836 78.0606 353.836 77.154C353.836 76.2474 353.102 75.5125 352.196 75.5125C351.29 75.5125 350.556 76.2474 350.556 77.154C350.556 78.0606 351.29 78.7956 352.196 78.7956Z" fill="white"/>
<path d="M98.6519 240.139C101.464 241.781 104.979 242.015 107.791 240.373L157.468 211.763C160.515 210.122 160.515 205.666 157.703 203.79C154.891 202.148 151.376 201.914 148.564 203.555L98.6519 232.166C95.6056 234.042 95.6056 238.263 98.6519 240.139Z" fill="#6F6F6F"/>
<path d="M88.5757 230.055C91.3876 231.697 94.9025 231.931 97.7145 230.289L147.626 201.445C150.673 199.803 150.673 195.347 147.861 193.471C145.049 191.83 141.534 191.595 138.722 193.237L88.81 222.082C85.7637 223.958 85.7637 228.179 88.5757 230.055Z" fill="#6F6F6F"/>
<path d="M113.415 196.754C116.227 198.396 119.741 198.631 122.553 196.989L172.231 168.379C175.277 166.737 175.277 162.281 172.465 160.405C169.653 158.764 166.138 158.529 163.327 160.171L113.415 188.781C110.368 190.657 110.368 194.878 113.415 196.754Z" fill="#6F6F6F"/>
<path d="M165.904 183.153L193.321 199.1L201.522 194.644L173.637 178.228L165.904 183.153Z" fill="#484848"/>
<path d="M168.482 171.193L175.044 175.179V187.374L168.482 183.622V171.193Z" fill="#E0E0E0"/>
<path d="M175.044 175.179L178.793 173.069V185.263L175.044 187.374V175.179Z" fill="#A0A0A0"/>
<path d="M168.482 171.193L172.232 169.317L178.793 173.069L175.044 175.179L168.482 171.193Z" fill="#CCCCCC"/>
<path d="M160.046 189.719L187.462 205.666L214.879 189.719L187.462 173.772L160.046 189.719Z" fill="#CCCCCC"/>
<path d="M160.046 189.719V193.002L187.462 208.949V205.666L160.046 189.719Z" fill="#E0E0E0"/>
<path d="M214.878 189.719L187.462 205.666V208.949L214.878 193.002V189.719Z" fill="#A0A0A0"/>
<path d="M113.648 187.609C113.883 187.609 113.883 187.609 113.883 187.609C113.883 187.609 113.883 187.609 114.117 187.609C114.117 187.609 114.117 187.609 114.351 187.609H114.586C114.586 187.609 114.586 187.609 114.82 187.609H115.054C115.054 187.609 115.054 187.609 115.289 187.609H115.523C115.523 187.609 115.523 187.609 115.757 187.609H115.992C115.992 187.609 115.992 187.609 116.226 187.609C116.46 187.609 116.46 187.843 116.695 187.843L174.808 154.308C173.871 153.605 172.699 153.604 172.23 154.074L113.18 187.843C113.414 187.843 113.414 187.843 113.648 187.609C113.414 187.609 113.414 187.609 113.648 187.609Z" fill="#E0E0E0"/>
<path d="M174.106 154.543L115.992 188.078C118.101 189.25 119.741 192.299 119.741 194.644C119.741 194.878 119.741 194.878 119.741 195.113C119.741 195.113 119.741 195.113 119.741 195.347V195.582C119.741 195.582 119.741 195.582 119.741 195.816V196.051C119.741 196.051 119.741 196.051 119.741 196.285V196.52C119.741 196.52 119.741 196.52 119.741 196.754C119.741 196.754 119.741 196.754 119.741 196.989C119.741 196.989 119.741 196.989 119.741 197.223C119.741 197.223 119.741 197.223 119.507 197.223C119.507 197.223 119.507 197.223 119.273 197.223L177.386 163.688C178.089 163.219 178.558 162.516 178.558 161.343C177.855 158.764 176.215 155.715 174.106 154.543Z" fill="#E0E0E0"/>
<path d="M119.038 196.754C119.038 196.52 119.273 196.52 119.038 196.754C119.273 196.52 119.273 196.52 119.273 196.52C119.273 196.52 119.273 196.52 119.273 196.285C119.273 196.285 119.273 196.285 119.273 196.051V195.816C119.273 195.816 119.273 195.816 119.273 195.582V195.347C119.273 195.347 119.273 195.347 119.273 195.113V194.878C119.273 194.878 119.273 194.878 119.273 194.644C119.273 194.409 119.273 194.409 119.273 194.175C119.273 191.83 117.632 188.781 115.523 187.609C115.289 187.609 115.289 187.374 115.055 187.374C115.055 187.374 115.055 187.374 114.82 187.374H114.586C114.586 187.374 114.586 187.374 114.352 187.374H114.117C114.117 187.374 114.117 187.374 113.883 187.374H113.649C113.649 187.374 113.649 187.374 113.414 187.374H113.18C113.18 187.374 113.18 187.374 112.946 187.374C112.946 187.374 112.946 187.374 112.711 187.374C112.711 187.374 112.711 187.374 112.477 187.374C112.477 187.374 112.477 187.374 112.243 187.374C112.243 187.374 112.243 187.374 112.009 187.374C112.009 187.374 112.009 187.374 111.774 187.374C111.071 187.843 110.603 188.547 110.603 189.719C110.603 192.064 112.243 195.113 114.352 196.285C117.164 197.458 118.101 197.458 119.038 196.754C118.804 196.989 118.804 196.989 119.038 196.754Z" fill="#A0A0A0"/>
<path d="M89.0439 220.44C89.2782 220.44 89.2782 220.44 89.2782 220.44C89.2782 220.44 89.2782 220.44 89.5126 220.44C89.5126 220.44 89.5126 220.44 89.7469 220.44H89.9812C89.9812 220.44 89.9812 220.44 90.2155 220.44H90.4499C90.4499 220.44 90.4499 220.44 90.6842 220.44H90.9185C90.9185 220.44 90.9185 220.44 91.1529 220.44H91.3872C91.3872 220.44 91.3872 220.44 91.6215 220.44C91.8558 220.44 91.8558 220.675 92.0902 220.675L150.204 187.14C149.266 186.436 148.095 186.436 147.626 186.905L88.8096 220.675C88.8096 220.44 88.8096 220.44 89.0439 220.44Z" fill="#E0E0E0"/>
<path d="M149.501 187.374L91.3877 220.909C93.4966 222.082 95.1369 225.13 95.1369 227.475C95.1369 227.71 95.1369 227.71 95.1369 227.944C95.1369 227.944 95.1369 227.944 95.1369 228.179V228.413C95.1369 228.413 95.1369 228.413 95.1369 228.648V228.882C95.1369 228.882 95.1369 228.882 95.1369 229.117V229.351C95.1369 229.351 95.1369 229.351 95.1369 229.586C95.1369 229.586 95.1369 229.586 95.1369 229.82C95.1369 229.82 95.1369 229.82 95.1369 230.055C95.1369 230.055 95.1369 230.055 94.9026 230.055C94.9026 230.055 94.9026 230.055 94.6683 230.055L152.313 196.285C153.016 195.816 153.485 195.113 153.485 193.94C153.25 191.595 151.61 188.547 149.501 187.374Z" fill="#E0E0E0"/>
<path d="M94.4339 229.586C94.6682 229.351 94.6682 229.351 94.4339 229.586C94.6682 229.351 94.6682 229.351 94.6682 229.351C94.6682 229.351 94.6682 229.351 94.6682 229.117C94.6682 229.117 94.6682 229.117 94.6682 228.882V228.648C94.6682 228.648 94.6682 228.648 94.6682 228.413V228.179C94.6682 228.179 94.6682 228.179 94.6682 227.944V227.71C94.6682 227.71 94.6682 227.71 94.6682 227.475C94.6682 227.241 94.6682 227.241 94.6682 227.006C94.6682 224.661 93.0279 221.613 90.9189 220.44C90.6846 220.44 90.6846 220.206 90.4503 220.206C90.4503 220.206 90.4503 220.206 90.216 220.206H89.9816C89.9816 220.206 89.9816 220.206 89.7473 220.206H89.513C89.513 220.206 89.513 220.206 89.2786 220.206H89.0443C89.0443 220.206 89.0443 220.206 88.81 220.206H88.5757C88.5757 220.206 88.5757 220.206 88.3413 220.206C88.3413 220.206 88.3413 220.206 88.107 220.206C88.107 220.206 88.107 220.206 87.8727 220.206C87.8727 220.206 87.8727 220.206 87.6383 220.206C87.6383 220.206 87.6383 220.206 87.404 220.206C87.404 220.206 87.404 220.206 87.1697 220.206C86.4667 220.675 85.998 221.378 85.998 222.551C85.998 224.896 87.6383 227.944 89.7473 229.117C92.5592 230.289 93.4965 230.289 94.4339 229.586C94.1995 229.586 94.1995 229.586 94.4339 229.586Z" fill="#A0A0A0"/>
<path d="M98.8857 230.524C99.12 230.524 99.12 230.524 99.12 230.524C99.12 230.524 99.12 230.524 99.3543 230.524C99.3543 230.524 99.3543 230.524 99.5886 230.524H99.823C99.823 230.524 99.823 230.524 100.057 230.524H100.292C100.292 230.524 100.292 230.524 100.526 230.524H100.76C100.76 230.524 100.76 230.524 100.995 230.524H101.229C101.229 230.524 101.229 230.524 101.463 230.524C101.698 230.524 101.698 230.759 101.932 230.759L159.342 197.458C158.171 196.754 157.233 196.754 156.53 197.223L98.417 230.759C98.6513 230.759 98.6513 230.759 98.8857 230.524C98.6513 230.524 98.6513 230.524 98.8857 230.524Z" fill="#E0E0E0"/>
<path d="M159.343 197.458L101.229 230.993C103.338 232.166 104.979 235.214 104.979 237.559C104.979 237.794 104.979 237.794 104.979 238.028C104.979 238.028 104.979 238.028 104.979 238.263V238.497C104.979 238.497 104.979 238.497 104.979 238.732V238.966C104.979 238.966 104.979 238.966 104.979 239.201V239.435C104.979 239.435 104.979 239.435 104.979 239.67C104.979 239.67 104.979 239.67 104.979 239.904C104.979 239.904 104.979 239.904 104.979 240.139C104.979 240.139 104.979 240.139 104.744 240.139C104.744 240.139 104.744 240.139 104.51 240.139L161.921 206.369C162.624 205.9 163.092 205.197 163.092 204.024C163.092 201.679 161.452 198.631 159.343 197.458Z" fill="#E0E0E0"/>
<path d="M104.276 239.67C104.276 239.435 104.276 239.435 104.276 239.67C104.51 239.435 104.51 239.435 104.51 239.435C104.51 239.435 104.51 239.435 104.51 239.201C104.51 239.201 104.51 239.201 104.51 238.966V238.732C104.51 238.732 104.51 238.732 104.51 238.497V238.263C104.51 238.263 104.51 238.263 104.51 238.028V237.794C104.51 237.794 104.51 237.794 104.51 237.559C104.51 237.325 104.51 237.325 104.51 237.09C104.51 234.745 102.87 231.697 100.761 230.524C100.526 230.524 100.526 230.289 100.292 230.289C100.292 230.289 100.292 230.289 100.058 230.289H99.8234C99.8234 230.289 99.8234 230.289 99.5891 230.289H99.3548C99.3548 230.289 99.3548 230.289 99.1204 230.289H98.8861C98.8861 230.289 98.8861 230.289 98.6518 230.289H98.4175C98.4175 230.289 98.4175 230.289 98.1831 230.289C98.1831 230.289 98.1831 230.289 97.9488 230.289C97.9488 230.289 97.9488 230.289 97.7145 230.289C97.7145 230.289 97.7145 230.289 97.4801 230.289C97.4801 230.289 97.4801 230.289 97.2458 230.289C97.2458 230.289 97.2458 230.289 97.0115 230.289C96.3085 230.759 95.8398 231.462 95.8398 232.635C95.8398 234.98 97.4801 238.028 99.5891 239.201C102.401 240.373 103.338 240.373 104.276 239.67C104.041 239.904 104.041 239.904 104.276 239.67C104.041 239.67 104.276 239.67 104.276 239.67Z" fill="#A0A0A0"/>
<path d="M34.4463 244.829C34.4463 248.112 37.0239 250.692 40.3045 250.692H53.8955V253.975C53.8955 256.789 56.0045 259.134 58.8164 259.134L92.0911 261.01C95.3717 261.245 98.1836 259.134 99.1209 256.086L100.058 244.595L59.7537 238.028L42.8821 239.201L34.4463 244.829Z" fill="#6F6F6F"/>
<path d="M97.9488 241.546L40.7727 239.904C39.3667 239.67 38.898 237.794 40.304 237.09L44.7562 234.042C48.7398 231.228 53.6607 230.055 58.3473 230.524L79.6712 232.869C85.5294 233.573 90.9189 235.683 95.6055 238.966L97.9488 241.546Z" fill="#A0A0A0"/>
<path d="M45.6936 234.745L40.0697 237.325C38.6637 238.028 38.898 239.904 40.5383 240.139L99.8234 246.236C99.8234 246.236 100.995 244.126 101.464 243.891H101.229L97.7145 241.546C93.0279 238.263 87.6383 236.152 81.7801 235.449L56.9413 232.869C53.1921 232.635 49.2085 233.338 45.6936 234.745Z" fill="#E0E0E0"/>
<path opacity="0.46" d="M57.41 232.869C53.4264 232.4 49.6772 233.104 45.9279 234.745L40.304 237.325C38.8981 238.028 39.1324 239.904 40.7727 240.139L67.9548 242.953L77.5623 234.98L57.41 232.869Z" fill="white"/>
<path d="M84.3586 242.484L36.5556 236.387C34.4467 236.152 32.3377 236.152 30.2288 236.152L26.4795 236.387C25.3079 236.152 24.8392 237.559 25.5422 238.263L33.0407 242.015C34.9153 243.657 37.2586 244.829 39.8362 245.064L68.4243 249.754C72.4079 250.223 76.6258 249.988 80.1407 248.112L81.781 246.705L84.3586 242.484Z" fill="#A0A0A0"/>
<path d="M82.484 243.891L26.2451 236.621C25.0735 236.387 24.6048 237.794 25.3078 238.497L31.166 243.657C33.0407 245.298 35.384 246.471 37.9616 246.705L66.5496 251.395C70.5332 251.864 74.5168 251.161 78.0317 249.285L79.9063 248.347L82.484 243.891Z" fill="#E0E0E0"/>
<path opacity="0.46" d="M26.4795 236.621C25.3079 236.387 24.8392 237.794 25.5422 238.497L31.4004 243.657C33.275 245.298 35.6183 246.471 38.1959 246.705L60.4571 249.988L49.9124 239.435L26.4795 236.621Z" fill="white"/>
<path d="M46.3975 248.581L46.6318 246.471L47.3348 246.236L47.8034 248.347L46.3975 248.581Z" fill="#A0A0A0"/>
<path d="M47.335 246.236L88.8111 247.174C93.9663 247.409 99.1215 248.112 104.042 249.05L106.62 249.519C108.026 249.519 108.729 251.395 107.557 252.333L102.168 253.037C99.8245 254.913 96.7782 255.851 93.732 255.617L59.2857 253.975C57.8797 253.975 56.4738 253.506 55.0678 253.037C52.9588 252.099 48.9753 249.754 47.5693 247.878L47.335 246.236Z" fill="#A0A0A0"/>
<path d="M106.854 249.988L47.8035 248.347L46.6318 248.581L48.5065 251.395C49.2095 251.395 50.6154 252.333 50.6154 252.333C52.0214 254.21 53.896 255.617 56.005 256.555C57.4109 257.024 58.8169 257.493 60.2229 257.493L94.6692 259.134C97.7154 259.369 100.762 258.431 103.105 256.555L108.026 252.803C108.963 251.864 108.26 249.988 106.854 249.988Z" fill="#E0E0E0"/>
<path opacity="0.46" d="M92.0916 249.519L71.4707 257.962L94.4349 259.134C97.4811 259.369 100.527 258.431 102.871 256.555L107.792 252.803C108.963 251.864 108.26 249.988 106.854 249.988L92.0916 249.519Z" fill="white"/>
<path d="M184.885 257.962C189.673 257.962 193.555 255.652 193.555 252.802C193.555 249.953 189.673 247.643 184.885 247.643C180.097 247.643 176.215 249.953 176.215 252.802C176.215 255.652 180.097 257.962 184.885 257.962Z" fill="#484848"/>
<path d="M189.571 119.131V253.271C189.571 253.975 189.103 254.679 188.165 255.382C186.291 256.555 183.244 256.555 181.135 255.382C180.198 254.913 179.729 253.975 179.729 253.271V119.131C179.729 119.835 180.198 120.538 181.135 121.242C183.01 122.415 186.056 122.415 188.165 121.242C189.103 120.538 189.571 119.835 189.571 119.131Z" fill="#E0E0E0"/>
<path d="M189.571 113.738V143.286C189.571 143.989 189.103 144.693 188.165 145.397C186.291 146.569 183.244 146.569 181.135 145.397C180.198 144.928 179.729 143.989 179.729 143.286V113.738C179.729 114.441 180.198 115.145 181.135 115.848C183.01 117.021 186.056 117.021 188.165 115.848C189.103 115.145 189.571 114.441 189.571 113.738Z" fill="#A0A0A0"/>
<path d="M157.234 115.848L184.651 131.795L212.067 115.848L184.651 100.136L157.234 115.848Z" fill="#CCCCCC"/>
<path d="M157.234 115.848V119.131L184.651 135.078V131.795L157.234 115.848Z" fill="#E0E0E0"/>
<path d="M212.067 115.848L184.65 131.795V135.078L212.067 119.131V115.848Z" fill="#E0E0E0"/>
<path d="M189.571 62.8488V117.49C189.571 118.193 189.103 118.897 188.165 119.6C186.291 120.773 183.244 120.773 181.135 119.6C180.198 119.131 179.729 118.193 179.729 117.49V62.8488C179.729 63.5523 180.198 64.2559 181.135 64.9594C183.01 66.132 186.056 66.132 188.165 64.9594C189.103 64.4904 189.571 63.7869 189.571 62.8488Z" fill="#E0E0E0"/>
<path d="M189.571 71.9948V101.543C189.571 102.247 189.103 102.95 188.165 103.654C186.291 104.826 183.244 104.826 181.135 103.654C180.198 103.185 179.729 102.247 179.729 101.543V71.9948C179.729 72.6983 180.198 73.4018 181.135 74.1053C183.01 75.2779 186.056 75.2779 188.165 74.1053C189.103 73.6363 189.571 72.6983 189.571 71.9948Z" fill="#A0A0A0"/>
<path d="M176.215 91.4591L182.776 95.2113V107.406L176.215 103.654V91.4591Z" fill="#E0E0E0"/>
<path d="M182.776 95.2113L186.526 93.3352V105.295L182.776 107.406V95.2113Z" fill="#A0A0A0"/>
<path d="M176.215 91.4591L179.964 89.3485L186.525 93.3352L182.776 95.2113L176.215 91.4591Z" fill="#CCCCCC"/>
<path d="M175.512 71.9948L127.709 65.8975C125.6 65.663 123.491 65.663 121.382 65.663L117.633 65.8975C116.461 65.663 115.993 67.07 116.696 67.7736L124.194 71.5257C126.069 73.1673 128.412 74.3399 130.99 74.5744L159.578 79.2646C163.561 79.7336 167.779 79.4991 171.294 77.623L172.934 76.2159L175.512 71.9948Z" fill="#A0A0A0"/>
<path d="M173.872 73.6363L117.633 66.3664C116.461 66.1319 115.993 67.539 116.696 68.2425L122.554 73.4018C124.428 75.0433 126.772 76.2159 129.349 76.4504L157.937 81.1406C161.921 81.6096 165.904 80.9061 169.419 79.03L171.294 78.092L173.872 73.6363Z" fill="#E0E0E0"/>
<path d="M166.607 64.2559C166.842 64.2559 166.842 64.2559 167.076 64.2559H167.31C167.545 64.2559 167.545 64.2559 167.779 64.2559C167.779 64.2559 168.013 64.2559 168.248 64.2559C168.482 64.2559 168.482 64.2559 168.716 64.2559C168.951 64.2559 168.951 64.2559 169.185 64.2559C169.419 64.2559 169.419 64.2559 169.654 64.2559C169.888 64.2559 169.888 64.2559 170.122 64.2559C170.357 64.2559 170.591 64.2559 170.591 64.4904C170.825 64.4904 170.825 64.4904 171.06 64.4904C171.294 64.4904 171.528 64.7249 171.763 64.7249C171.763 64.7249 171.997 64.7249 171.997 64.9594C172.231 65.1939 172.7 65.1939 172.934 65.4284L193.789 53.2339C191.212 51.8268 188.869 51.5923 186.994 52.5304L166.139 64.7249C166.139 64.7249 166.373 64.7249 166.607 64.4904C166.373 64.2559 166.607 64.2559 166.607 64.2559Z" fill="#CCCCCC"/>
<path d="M193.555 53.2339L172.7 65.4284C177.855 68.4771 182.073 75.7469 182.073 81.8442C182.073 82.3132 182.073 82.5477 182.073 83.0167C182.073 83.2513 182.073 83.2513 182.073 83.4858C182.073 83.7203 182.073 83.9548 182.073 84.1893C182.073 84.4238 182.073 84.4238 182.073 84.6583C182.073 84.8928 182.073 85.1273 181.839 85.1273C181.839 85.3619 181.839 85.3619 181.605 85.3619C181.605 85.5964 181.37 85.5964 181.37 85.8309C181.37 85.8309 181.37 86.0654 181.136 86.0654C181.136 86.2999 180.902 86.2999 180.902 86.5344L180.667 86.7689L180.433 87.0034L180.199 87.2379L179.964 87.4724L179.73 87.707L179.496 87.9415L200.351 75.7469C201.991 74.8089 203.163 72.6983 203.163 69.6496C202.929 63.5524 198.711 56.048 193.555 53.2339Z" fill="#CCCCCC"/>
<path d="M180.199 87.0034C180.433 86.7689 180.433 86.7689 180.433 86.7689L180.667 86.5344L180.902 86.2999C180.902 86.0654 181.136 86.0654 181.136 85.8309L181.37 85.5963C181.37 85.3618 181.605 85.3618 181.605 85.1273C181.605 85.1273 181.605 84.8928 181.839 84.8928C181.839 84.6583 181.839 84.4238 182.073 84.4238C182.073 84.1893 182.073 84.1893 182.073 83.9548C182.073 83.7203 182.073 83.4858 182.073 83.2512C182.073 83.0167 182.073 83.0167 182.073 82.7822C182.073 82.5477 182.073 82.0787 182.073 81.6097C182.073 75.5124 177.855 68.2426 172.7 65.1939C172.466 64.9594 171.997 64.7249 171.763 64.7249C171.763 64.7249 171.529 64.7249 171.529 64.4904C171.294 64.4904 171.06 64.2559 170.826 64.2559C170.591 64.2559 170.591 64.2559 170.357 64.2559C170.123 64.2559 169.888 64.2559 169.888 64.0214C169.654 64.0214 169.654 64.0214 169.42 64.0214C169.185 64.0214 169.185 64.0214 168.951 64.0214C168.717 64.0214 168.717 64.0214 168.482 64.0214C168.248 64.0214 168.248 64.0214 168.014 64.0214C167.779 64.0214 167.779 64.0214 167.545 64.0214C167.311 64.0214 167.311 64.0214 167.076 64.0214H166.842C166.608 64.0214 166.608 64.0214 166.373 64.0214C166.373 64.0214 166.139 64.0214 166.139 64.2559C165.905 64.2559 165.905 64.2559 165.67 64.4904C164.03 65.4284 162.858 67.539 162.858 70.5877C162.858 76.6849 167.076 83.9548 172.232 87.0034C175.043 88.645 177.621 88.645 179.261 87.4724L179.496 87.2379C179.964 87.2379 180.199 87.0034 180.199 87.0034Z" fill="#E0E0E0"/>
<path d="M188.165 78.3265L203.397 117.021C205.271 121.946 206.443 126.87 207.38 132.029L207.849 134.609C208.318 136.016 206.912 137.189 205.506 136.485L202.694 131.795C200.116 130.388 198.007 127.808 197.07 124.994L185.119 92.6317C184.65 91.2246 184.416 89.8176 184.416 88.4105C184.416 86.0654 185.119 81.3752 186.291 79.4991L188.165 78.3265Z" fill="#A0A0A0"/>
<path d="M177.856 61.2072L173.403 4.22113C173.403 2.57955 175.512 2.11053 176.215 3.5176L179.496 7.50428C182.542 11.2564 184.417 15.9467 184.417 20.6369V42.2119C184.417 48.0746 183.011 53.7029 179.965 58.6276L177.856 61.2072Z" fill="#A0A0A0"/>
<path d="M171.294 69.1806C171.06 68.9461 170.825 68.9461 170.591 68.9461H170.357C170.122 68.9461 170.122 68.9461 169.888 68.7115H169.654H169.419H169.185H168.951H168.716H168.482H168.248H168.013H167.779H167.545H167.31H167.076C166.842 68.7115 166.607 68.9461 166.607 69.1806C166.373 69.4151 166.373 69.4151 166.139 69.6496L160.515 76.2159C158.875 77.8575 158.64 80.2026 159.578 82.0787C160.515 83.4857 162.155 84.4238 163.795 84.4238L174.106 83.7202H174.34C174.809 83.7202 175.278 83.4857 175.512 83.2512C175.512 83.2512 175.746 83.2512 175.746 83.0167L175.981 82.7822C175.981 82.7822 175.981 82.7822 176.215 82.5477C176.215 82.5477 176.215 82.3132 176.449 82.3132C176.449 82.3132 176.449 82.3132 176.683 82.0787C176.683 82.0787 176.683 81.8442 176.918 81.8442V81.6096C176.918 81.6096 176.918 81.3751 177.152 81.3751V81.1406V80.9061V80.6716C177.152 80.4371 177.152 80.4371 177.152 80.2026V79.9681C177.152 79.7335 177.152 79.499 177.152 79.2645C177.386 75.7469 174.575 71.2912 171.294 69.1806Z" fill="#CCCCCC"/>
<path d="M175.98 65.1939L178.089 63.3178L180.901 56.986H179.964L175.98 64.2559V64.9594V65.1939Z" fill="#A0A0A0"/>
<path d="M179.262 8.67683L176.215 3.5176C175.512 2.11053 173.403 2.57955 173.403 4.22113V64.0214C173.403 64.0214 175.747 64.9594 175.981 65.4284V65.1939L177.856 61.4417C180.667 56.517 182.308 50.6543 182.308 45.026V19.9333C182.308 15.9467 181.136 11.96 179.262 8.67683Z" fill="#E0E0E0"/>
<path d="M207.849 134.609L186.291 79.4991L185.588 78.3265L183.714 81.1407C183.948 81.8442 183.714 83.2513 183.714 83.2513C182.542 85.1273 181.839 87.4725 181.839 89.8176C181.839 91.2246 182.073 92.6317 182.542 94.0387L194.727 126.636C195.664 129.45 197.773 132.029 200.351 133.437L205.74 136.485C206.912 137.189 208.318 136.016 207.849 134.609Z" fill="#E0E0E0"/>
<path d="M185.822 78.3265L187.931 77.623L188.166 78.3265L186.525 79.4991L185.822 78.3265Z" fill="#A0A0A0"/>
<path opacity="0.46" d="M182.308 19.9333C182.308 15.9467 181.37 12.1945 179.262 8.67683L176.215 3.5176C175.512 2.11053 173.403 2.57955 173.403 4.22113V31.6589L182.308 40.5703V19.9333Z" fill="white"/>
<path opacity="0.46" d="M117.867 66.3664C116.696 66.1319 116.227 67.539 116.93 68.2425L122.788 73.4018C124.663 75.0433 127.006 76.2159 129.584 76.4504L151.845 79.7336L141.3 69.1806L117.867 66.3664Z" fill="white"/>
<path opacity="0.46" d="M202.46 120.773L186.76 105.061L194.727 126.636C195.664 129.45 197.773 132.029 200.351 133.437L205.74 136.485C206.912 137.189 208.552 136.016 208.084 134.609L202.46 120.773Z" fill="white"/>
<path d="M163.327 81.3752C164.233 81.3752 164.967 80.6402 164.967 79.7336C164.967 78.827 164.233 78.092 163.327 78.092C162.421 78.092 161.687 78.827 161.687 79.7336C161.687 80.6402 162.421 81.3752 163.327 81.3752Z" fill="white"/>
<path opacity="0.3" d="M202.694 119.366C203.163 118.897 203.631 118.662 203.866 118.193C204.334 117.724 204.803 117.021 205.037 116.552C205.506 116.083 205.74 115.614 206.209 115.145C206.678 114.441 206.912 113.738 207.381 113.034C207.615 112.565 208.084 112.096 208.318 111.392C208.787 110.689 209.021 109.751 209.255 109.047C209.49 108.578 209.724 107.875 209.958 107.406C210.193 106.468 210.427 105.764 210.661 104.826C210.896 104.123 211.13 103.654 211.13 102.95C211.364 102.012 211.364 100.84 211.599 99.9015C211.599 99.1979 211.833 98.7289 211.833 98.0254C212.067 96.3838 212.067 94.5077 212.067 92.6316C212.067 62.8488 191.212 26.7341 165.436 11.9599C163.796 11.0219 162.155 10.0839 160.515 9.38033C160.046 9.38033 159.343 9.14582 158.875 8.91131C157.937 8.44229 156.766 7.97327 155.828 7.73876C155.125 7.50425 154.657 7.50425 153.954 7.26973C153.017 7.03522 152.314 6.5662 151.376 6.5662C150.673 6.33169 150.205 6.33169 149.502 6.33169C148.799 6.09718 147.861 6.09718 147.158 5.86267C146.455 5.86267 145.987 5.86267 145.284 5.86267C144.581 5.86267 143.643 5.86267 142.94 5.86267C142.237 5.86267 141.769 6.09718 141.3 6.09718C140.597 6.09718 139.894 6.33169 139.191 6.33169C138.723 6.33169 138.02 6.5662 137.551 6.80071C136.848 7.03522 136.145 7.03522 135.676 7.26973C135.208 7.50425 134.739 7.73876 134.036 7.97327C133.333 8.20778 132.864 8.44229 132.161 8.91131C123.725 13.836 118.57 24.1545 118.336 38.9287C118.336 68.7115 139.191 104.826 164.967 119.835C178.793 127.808 191.212 128.043 199.648 121.945C200.117 121.711 200.585 121.242 201.054 121.007C201.757 120.304 202.225 119.835 202.694 119.366Z" fill="#9A9A9A"/>
<path d="M163.327 314.479L174.575 308.382L169.654 305.333L168.951 307.209L163.327 311.899L156.531 307.913V305.802L152.313 308.382L163.327 314.479Z" fill="#6F6F6F"/>
<path d="M163.327 291.497V312.134L170.123 308.147V287.51L163.327 291.497Z" fill="#808080"/>
<path d="M156.297 287.51V308.147L163.327 312.134V291.497L156.297 287.51Z" fill="#484848"/>
<path d="M163.327 269.218L163.093 296.656L183.948 284.696L184.182 257.258L163.327 269.218Z" fill="#6F6F6F"/>
<path d="M142.472 257.258L142.237 284.696L163.093 296.656L163.327 269.218L142.472 257.258Z" fill="#484848"/>
<path d="M184.182 257.258L163.327 245.064L142.472 257.258L163.327 269.218L184.182 257.258Z" fill="#C2C2C2"/>
<path d="M217.222 298.767L228.236 292.669L223.549 289.386L222.846 291.497L217.222 296.187L210.193 292.2V290.09L205.975 292.669L217.222 298.767Z" fill="#6F6F6F"/>
<path d="M240.421 334.647L251.668 328.315L246.748 325.266L247.451 328.08L240.421 332.067L233.625 328.08V325.735L229.407 328.315L240.421 334.647Z" fill="#6F6F6F"/>
<path d="M240.421 311.43V332.067L247.216 328.08L247.451 307.444L240.421 311.43Z" fill="#808080"/>
<path d="M233.625 307.444V328.08L240.421 332.067V311.43L233.625 307.444Z" fill="#484848"/>
<path d="M240.655 289.152L240.421 316.824L261.276 304.629V277.192L240.655 289.152Z" fill="#6F6F6F"/>
<path d="M219.8 277.192L219.565 304.629L240.421 316.824L240.655 289.152L219.8 277.192Z" fill="#484848"/>
<path d="M261.276 277.192L240.421 264.997L219.8 277.192L240.655 289.152L261.276 277.192Z" fill="#C2C2C2"/>
</g>
<defs>
<clipPath id="clip0_128_5800">
<rect width="471" height="405" fill="white"/>
</clipPath>
</defs>
</svg>
