<svg width="527" height="381" viewBox="0 0 527 381" fill="none" xmlns="http://www.w3.org/2000/svg">
<g opacity="0.5">
<path opacity="0.5" d="M520.203 177.624H469.29C465.536 177.624 462.492 180.677 462.492 184.445V235.535C462.492 239.302 465.536 242.356 469.29 242.356H520.203C523.957 242.356 527 239.302 527 235.535V184.445C527 180.677 523.957 177.624 520.203 177.624Z" fill="#D0D2D5"/>
<path opacity="0.1" d="M485.599 196.227H503.893C503.893 196.227 519.298 209.753 503.893 223.762H485.599C485.599 223.762 470.195 211.202 485.599 196.227Z" fill="black"/>
<path opacity="0.5" d="M489.932 203.951H487.525V211.198H489.932V203.951Z" fill="#3F3D56"/>
<path opacity="0.5" d="M501.967 202.985H499.56V211.681H501.967V202.985Z" fill="#3F3D56"/>
<path opacity="0.5" d="M494.746 215.545C495.512 215.545 496.247 215.851 496.789 216.394C497.33 216.938 497.635 217.675 497.635 218.444V220.859H491.858V218.444C491.858 217.675 492.162 216.938 492.704 216.394C493.245 215.851 493.98 215.545 494.746 215.545V215.545Z" fill="#3F3D56"/>
</g>
<path d="M270.692 70.9257C270.319 70.4346 269.859 70.017 269.335 69.6939C268.538 69.3393 267.649 69.2479 266.798 69.433C264.651 69.7615 262.658 70.747 260.77 71.8484C259.249 72.7228 257.738 73.6938 256.65 75.0706C256.291 75.4856 256.041 75.9837 255.923 76.5198C255.861 76.9622 255.899 77.4128 256.033 77.8386C256.13 78.318 256.335 78.7686 256.633 79.1556C256.931 79.5426 257.314 79.8556 257.752 80.0704C258.758 80.4665 259.88 80.0463 260.891 79.6598C262.248 79.1333 263.741 78.6453 265.137 79.0608C266.172 79.37 267.062 80.1574 268.155 80.1864C269.44 80.225 270.48 79.1816 271.299 78.1864C272.006 77.3169 273.556 75.7469 273.455 74.5247C273.354 73.3025 271.453 71.8001 270.692 70.9257Z" fill="#FBBEBE"/>
<path d="M286.915 108.524C285.737 108.839 284.505 108.89 283.305 108.674C282.573 108.538 281.678 108.364 281.211 108.939C281.06 109.152 280.96 109.397 280.917 109.654C279.718 114.577 280.816 119.799 282.843 124.461C282.868 124.539 282.915 124.609 282.978 124.663C283.108 124.76 283.286 124.692 283.435 124.63C283.925 124.432 284.384 124.163 284.797 123.833C285.722 122.992 285.919 121.625 285.962 120.374C286.006 119.123 285.986 117.799 286.631 116.727C287.44 115.398 289.13 114.751 289.794 113.345C290.329 112.2 290.049 110.843 289.578 109.674C289.419 109.268 289.356 108.224 288.981 108.026C288.605 107.828 287.344 108.408 286.915 108.524Z" fill="#FBBEBE"/>
<path d="M270.553 70.433C270.659 70.3736 270.74 70.2756 270.777 70.159C270.815 70.0424 270.807 69.9159 270.755 69.805C270.651 69.5842 270.5 69.3894 270.312 69.235C269.892 68.8283 269.509 68.3854 269.166 67.9113C268.788 67.3251 268.365 66.7694 267.9 66.2495C267.664 65.9914 267.373 65.7897 267.049 65.6593C266.725 65.5288 266.376 65.473 266.027 65.4959C265.641 65.5654 265.272 65.7133 264.944 65.9307C263.635 66.6923 262.429 67.6211 261.358 68.6939C261.276 68.776 261.184 68.8775 261.204 68.9934C261.223 69.1094 261.3 69.1577 261.31 69.2543C261.313 69.3415 261.282 69.4265 261.223 69.491C260.58 70.2948 259.817 70.9939 258.96 71.5634C257.747 72.478 256.56 73.4281 255.398 74.4136C254.671 74.9324 254.098 75.6384 253.737 76.457C253.491 77.411 253.599 78.4222 254.04 79.3023C254.844 81.196 256.245 82.7612 257.627 84.2829C257.858 84.5932 258.182 84.8216 258.551 84.935C258.843 84.9748 259.139 84.9023 259.379 84.7322C260.222 84.1766 260.342 83.0172 260.414 82.0076L260.491 80.6115C260.489 80.5201 260.507 80.4294 260.544 80.3458C260.617 80.2395 260.719 80.1572 260.838 80.1091L262.147 79.4134C261.747 78.76 261.177 78.2279 260.499 77.8739C259.82 77.52 259.059 77.3575 258.296 77.4038C257.947 77.4871 257.58 77.4371 257.266 77.2637C257.114 77.1053 257.029 76.8941 257.029 76.6744C257.029 76.4546 257.114 76.2434 257.266 76.085C257.585 75.7806 257.976 75.5628 258.402 75.4522C261.854 74.1817 264.973 72.1431 268.324 70.6214C268.69 70.435 269.097 70.3405 269.508 70.346C269.845 70.3702 270.24 70.5683 270.553 70.433Z" fill="#F86D70"/>
<path d="M284.152 121.021C283.998 121.311 283.945 121.649 283.777 121.934C283.608 122.219 283.242 122.417 282.958 122.272C282.809 122.167 282.697 122.016 282.641 121.842C281.181 118.492 280.769 114.776 281.461 111.186C281.557 110.598 281.73 110.027 281.976 109.485C282.231 108.963 282.602 108.432 282.496 107.862C281.122 108.297 279.8 108.887 278.558 109.62C277.74 110.103 276.878 110.775 276.801 111.722C276.794 112.089 276.848 112.455 276.96 112.804L277.413 114.509C277.467 114.826 277.607 115.122 277.817 115.364C277.961 115.509 278.159 115.601 278.298 115.756C278.431 115.936 278.52 116.144 278.558 116.364L278.939 117.842C279.08 118.336 279.182 118.84 279.242 119.35C279.285 119.833 279.242 120.277 279.28 120.741C279.335 121.504 279.448 122.261 279.617 123.007L280.161 125.683C280.284 126.431 280.497 127.161 280.797 127.857C281.023 128.34 281.326 128.755 281.514 129.243C281.654 129.615 281.726 130.011 281.899 130.364C282.212 130.936 282.7 131.391 283.29 131.663C283.498 131.785 283.73 131.859 283.969 131.881C284.648 131.905 285.134 131.243 285.452 130.634C286.073 129.528 286.404 128.281 286.415 127.011C286.415 126.499 286.309 125.992 286.265 125.48C286.145 124.031 286.55 122.625 286.545 121.181C286.554 119.828 284.648 120.084 284.152 121.021Z" fill="#F86D70"/>
<path d="M315.491 114.297C313.113 114.393 310.73 114.364 308.362 114.591C306.98 114.727 305.603 114.954 304.217 115.012C302.705 115.079 301.189 114.958 299.673 114.987C295.855 115.07 292.09 116.089 288.417 117.142C287.38 114.601 286.84 111.883 286.824 109.137C286.814 108.956 286.814 108.773 286.824 108.591C286.891 107.814 287.122 107.06 287.503 106.379C290.872 105.413 294.29 104.447 297.79 104.495C298.931 104.495 300.062 104.63 301.199 104.664C304.496 104.765 307.702 103.282 310.976 103.698C311.3 103.73 311.627 103.658 311.908 103.492C312.189 103.326 312.41 103.075 312.54 102.775C312.68 102.418 312.738 101.949 313.099 101.809C313.359 101.712 313.715 101.833 313.879 101.611C313.937 101.492 313.971 101.362 313.98 101.229C314.076 100.746 314.562 100.529 314.943 100.263C315.905 99.5965 316.449 98.4565 316.931 97.3647C317.057 97.1284 317.134 96.8687 317.157 96.6014C317.157 96.3889 317.09 96.1763 317.094 95.9589C317.094 95.1957 317.947 94.7561 318.389 94.1329C318.972 93.3117 318.871 92.2006 319.155 91.2344C319.54 90.017 320.565 89.1523 320.82 87.9543C320.849 87.832 320.869 87.7077 320.878 87.5823C319.857 88.6391 318.688 89.5407 317.407 90.2586C313.132 92.901 308.02 94.4807 304.029 97.5386C300.862 99.954 296.221 99.8815 292.755 97.9154C291.448 97.1129 290.214 96.1963 289.067 95.1763C287.305 93.7271 285.524 92.2441 283.68 90.8624C282.397 89.8963 281.066 88.9639 279.69 88.0654C278.022 86.9589 276.296 85.9446 274.519 85.0268C272.314 83.9061 270.095 82.795 267.64 82.5293C267.325 81.8828 267.149 81.1764 267.126 80.4569C267.103 79.7374 267.232 79.0212 267.505 78.3555C268.066 77.0314 268.826 75.8013 269.758 74.7083C270.456 73.6814 271.33 72.7868 272.339 72.0658C272.451 71.9946 272.581 71.9567 272.714 71.9567C272.847 71.9567 272.977 71.9946 273.09 72.0658L282.631 77.9449L284.417 79.0415C288.331 81.4569 292.182 84.0414 296.096 86.4423C296.168 86.7176 296.548 86.7514 296.823 86.679C297.097 86.6065 297.41 86.4906 297.646 86.65C297.761 86.7273 297.843 86.8722 297.988 86.9012C298.103 86.9051 298.215 86.8674 298.305 86.7949C299.923 85.679 300.751 83.5341 302.566 82.7854C303.341 82.4665 304.26 82.4182 304.867 81.8192C305.226 81.3625 305.547 80.8779 305.83 80.37C306.614 79.341 308.102 79.0318 308.829 77.9546C309.31 77.2569 309.889 76.6321 310.547 76.0995C311.858 75.0283 312.995 73.7587 313.917 72.3363C314.393 71.6341 314.765 70.866 315.02 70.0562C315.145 69.6359 315.222 69.2012 315.361 68.7857C315.799 67.52 316.806 66.549 317.812 65.6698C319.636 64.066 321.605 62.5443 323.916 61.8052C324.722 61.6179 325.503 61.3341 326.241 60.9598C327.17 60.3898 328.022 59.3318 329.086 59.5782C329.49 59.7037 329.853 59.9336 330.14 60.2449C331.445 61.5184 332.645 62.8965 333.727 64.3655C335.444 66.5587 337.159 68.7535 338.873 70.9499C339.414 71.7396 340.098 72.4198 340.89 72.9547C342.039 73.5482 343.359 73.7191 344.621 73.4378C344.452 75.23 343.032 76.7082 342.445 78.4087C342.161 79.2347 342.05 80.1139 341.838 80.9593C341.54 82.0201 341.159 83.0555 340.698 84.0558C339.542 86.7563 338.377 89.4712 336.721 91.8962C335.864 93.1571 334.877 94.3116 333.91 95.4952C330.092 100.118 327.17 105.693 322.838 109.852C321.788 110.872 321.124 112.268 319.949 113.142C318.673 114.089 317.027 114.234 315.491 114.297Z" fill="#434175"/>
<path opacity="0.1" d="M333.631 53.0035C333.206 53.0243 332.793 53.1486 332.427 53.3658C333.308 53.0566 334.382 53.8827 335.195 53.4914C335.575 53.3078 335.518 53.2547 335.195 53.1436C334.709 52.9793 334.122 53.1291 333.631 53.0035Z" fill="black"/>
<path d="M485.611 212.641L450.227 225.25L452.482 231.623L487.866 219.014L485.611 212.641Z" fill="#D0D2D5"/>
<path d="M462.063 238.466L494.273 226.989C495.115 226.689 496.041 226.736 496.848 227.122C497.655 227.507 498.277 228.199 498.576 229.044C498.875 229.889 498.827 230.819 498.443 231.628C498.059 232.438 497.37 233.062 496.528 233.362L464.319 244.839L462.063 238.466V238.466Z" fill="#D0D2D5"/>
<path d="M431.378 218.641L439.226 215.844C446.204 213.358 453.881 213.755 460.568 216.948C467.254 220.141 472.403 225.869 474.881 232.872L477.668 240.747C478.637 243.486 478.482 246.498 477.238 249.122C475.993 251.746 473.761 253.766 471.033 254.738L447.162 263.244C444.433 264.217 441.431 264.062 438.816 262.813C436.202 261.564 434.188 259.324 433.219 256.586L424.743 232.632C423.774 229.894 423.928 226.881 425.173 224.257C426.417 221.634 428.649 219.613 431.378 218.641V218.641Z" fill="#3F3D56"/>
<path opacity="0.1" d="M333.197 57.7183C332.871 57.6035 332.519 57.5817 332.182 57.6555C331.677 57.7093 331.208 57.9403 330.858 58.3077C330.951 58.3497 331.052 58.3714 331.154 58.3714C331.256 58.3714 331.357 58.3497 331.45 58.3077C331.764 58.2277 332.088 58.1919 332.413 58.2014C332.692 58.2014 333.525 58.5106 333.741 58.3753C334.059 58.1676 333.414 57.8005 333.197 57.7183Z" fill="black"/>
<path opacity="0.1" d="M315.828 104.307L286.819 108.591C286.886 107.814 287.118 107.06 287.498 106.379C290.868 105.413 294.286 104.447 297.785 104.495C298.926 104.495 300.058 104.63 301.194 104.664C304.491 104.765 307.697 103.282 310.971 103.698C311.296 103.73 311.622 103.658 311.903 103.492C312.184 103.326 312.406 103.075 312.536 102.775C312.675 102.418 312.733 101.949 313.094 101.809C313.354 101.712 313.71 101.833 313.874 101.611C313.932 101.492 313.966 101.362 313.975 101.229C314.071 100.746 314.557 100.529 314.938 100.263C315.901 99.5965 316.445 98.4565 316.926 97.3647C317.052 97.1284 317.129 96.8687 317.152 96.6014C317.152 96.3889 317.085 96.1763 317.09 95.9589C317.09 95.1957 317.942 94.7561 318.385 94.1329C318.967 93.3116 318.866 92.2006 319.15 91.2344C319.535 90.017 320.561 89.1523 320.816 87.9543L320.941 87.79L325.88 85.8577L315.828 104.307Z" fill="black"/>
<path opacity="0.1" d="M204.596 338.962C317.591 338.962 409.191 331.825 409.191 323.021C409.191 314.216 317.591 307.079 204.596 307.079C91.6006 307.079 0 314.216 0 323.021C0 331.825 91.6006 338.962 204.596 338.962Z" fill="#6C63FF"/>
<path opacity="0.1" d="M385.468 381C458.582 381 517.853 373.264 517.853 363.72C517.853 354.177 458.582 346.44 385.468 346.44C312.353 346.44 253.082 354.177 253.082 363.72C253.082 373.264 312.353 381 385.468 381Z" fill="#6C63FF"/>
<path d="M228.786 310.113L228.921 303.272C235.34 302.905 241.758 302.661 248.177 302.538C251.903 302.471 255.677 302.446 259.283 303.384C261.781 304.036 264.145 305.137 266.61 305.91C271.52 307.446 276.719 307.649 281.875 307.789C286.877 307.929 292.1 307.978 296.592 305.76C304.366 301.896 307.635 292.403 308.015 283.713C308.396 275.022 306.672 266.264 307.871 257.626" stroke="#3F3D56" stroke-width="12" stroke-miterlimit="10"/>
<path d="M246.386 323.499L160.605 322.398L160.856 320.19L165.005 283.771H240.335L245.881 320.19L246.304 322.948L246.386 323.499Z" fill="#D0D2D5"/>
<path opacity="0.1" d="M246.304 322.948H203.493L160.605 322.398L160.856 320.19H245.881L246.304 322.948Z" fill="black"/>
<path d="M260.135 320.741H146.308V323.499H260.135V320.741Z" fill="#D0D2D5"/>
<path d="M368.734 65.0322C368.743 64.0864 368.565 63.1483 368.211 62.2717C367.857 61.3951 367.334 60.5973 366.672 59.9241C366.01 59.2508 365.222 58.7154 364.353 58.3485C363.485 57.9815 362.552 57.7904 361.61 57.786H43.7305C42.7882 57.791 41.8561 57.9826 40.9877 58.3497C40.1193 58.7169 39.3316 59.2524 38.6697 59.9255C38.0079 60.5986 37.4849 61.3962 37.1307 62.2725C36.7765 63.1488 36.5982 64.0866 36.6058 65.0322V258.39H368.734V65.0322Z" fill="#3F3D56"/>
<path d="M36.6058 256.457V279.109C36.6058 281.005 37.3564 282.824 38.6926 284.164C40.0287 285.505 41.8409 286.258 43.7305 286.258H361.61C363.499 286.258 365.312 285.505 366.648 284.164C367.984 282.824 368.734 281.005 368.734 279.109V256.457H36.6058Z" fill="#D0D2D5"/>
<path d="M356.637 69.9499H50.3546V243.767H356.637V69.9499Z" fill="#2F2E41"/>
<path d="M204.321 277.664C205.446 277.665 206.556 277.409 207.567 276.916C208.579 276.423 209.465 275.706 210.161 274.819V274.819C210.373 274.548 210.566 274.262 210.738 273.964L206.666 273.293L211.071 273.326C211.493 272.404 211.723 271.404 211.747 270.389C211.771 269.374 211.589 268.365 211.21 267.423L205.303 270.5L210.753 266.481C210.25 265.581 209.567 264.796 208.746 264.175C207.925 263.555 206.984 263.112 205.984 262.874C204.983 262.637 203.945 262.612 202.934 262.798C201.923 262.985 200.961 263.381 200.111 263.96C199.26 264.539 198.539 265.289 197.992 266.162C197.445 267.036 197.085 268.014 196.935 269.034C196.784 270.055 196.847 271.095 197.118 272.09C197.389 273.085 197.864 274.013 198.511 274.814V274.814C199.202 275.699 200.084 276.415 201.09 276.909C202.096 277.402 203.201 277.661 204.321 277.664V277.664Z" fill="#6C63FF"/>
<path opacity="0.1" d="M211.745 286.254L245.967 320.741L240.715 286.254H211.745Z" fill="black"/>
<path d="M358.731 68.5345L377.111 44.0955C378.208 42.6463 379.34 41.1342 380.846 40.0908C385.179 37.086 391.529 38.8637 395.154 42.7139C398.779 46.564 400.3 51.9214 401.412 57.1C404.002 69.0195 405.159 81.2076 404.859 93.4034C404.705 99.8235 404.132 106.311 402.096 112.403C399.005 121.668 392.742 129.47 388.01 138.006C380.389 151.759 377.197 170.102 386.845 182.512C389.988 186.556 394.268 189.647 397.171 193.869C400.449 198.637 401.725 204.468 402.948 210.13C404.772 218.68 406.601 227.284 406.938 236.023C408.026 264.278 391.972 292.509 367.179 305.949C349.969 315.282 329.149 317.987 314.182 330.644C308.887 335.103 304.323 341.658 305.623 348.45C306.682 353.962 311.505 358.15 316.801 359.972C322.096 361.793 327.839 361.643 333.424 361.324C346.836 360.555 360.184 358.901 373.38 356.373C384.563 354.228 395.727 352.378 405.475 346.474C406.452 345.956 407.287 345.204 407.906 344.286C408.537 343.228 408.643 341.948 408.729 340.716C408.994 337.088 409.244 333.325 407.969 329.919C406.481 325.939 403.087 322.924 401.46 319.002C399.833 315.079 400.127 310.562 401.181 306.441C402.481 301.35 404.844 296.606 407.222 291.925C409.538 287.365 411.887 282.819 414.612 278.495C422.286 266.341 432.77 256.274 443.145 246.346" stroke="#3F3D56" stroke-width="12" stroke-miterlimit="10"/>
<path opacity="0.1" d="M449.533 259.583C447.872 259.163 446.365 258.09 445.08 256.911C443.965 255.914 442.973 254.787 442.124 253.554C441.058 251.869 440.202 250.058 439.577 248.163C437.795 243.131 436.662 237.89 436.208 232.569C436.082 231.12 436.044 229.569 436.906 228.419C437.388 227.796 438.066 227.355 438.831 227.168C439.595 226.981 440.399 227.06 441.113 227.39C442.254 227.951 442.991 229.076 443.669 230.149C445.027 232.289 446.389 234.448 447.261 236.825C447.646 237.878 447.93 238.965 448.305 240.023C448.687 241.066 449.128 242.087 449.624 243.081C449.697 243.603 449.759 244.124 449.807 244.651C450.255 249.588 449.571 254.578 449.533 259.583Z" fill="black"/>
<path d="M82.2138 314.142L91.4278 308.702C90.1791 306.57 88.5865 304.66 86.7149 303.05L69.3315 308.475L82.9744 300.437C79.6019 298.583 75.8065 297.642 71.9618 297.707C68.117 297.772 64.3554 298.841 61.0472 300.808C57.739 302.775 54.9983 305.573 53.0947 308.925C51.1911 312.278 50.1904 316.07 50.1909 319.929C50.1909 332.199 60.103 332.629 72.3354 332.629C84.5678 332.629 94.4799 332.199 94.4799 319.929C94.4772 316.822 93.821 313.75 92.5543 310.915L82.2138 314.142Z" fill="#6C63FF"/>
<path opacity="0.1" d="M84.5582 326.074C83.5776 325.087 82.4817 324.222 81.2943 323.499C79.619 322.383 77.8908 321.243 75.917 320.866C74.184 320.533 72.398 320.813 70.6216 320.717C67.5565 320.528 64.6713 319.2 62.5293 316.992C61.2728 315.688 60.2811 314.094 58.7695 313.084C57.1376 312.011 55.0675 311.78 53.1323 312.045C52.5711 312.128 52.015 312.242 51.4666 312.388C50.5979 314.807 50.1548 317.358 50.1572 319.929C50.1572 332.199 60.0693 332.629 72.3017 332.629C78.2374 332.629 83.6243 332.528 87.6007 331.021L86.9363 329.774C86.3027 328.445 85.5036 327.202 84.5582 326.074V326.074Z" fill="black"/>
<path d="M281.119 345.209L268.897 337.996C270.553 335.166 272.668 332.632 275.155 330.499L298.209 337.692L280.142 327.035C284.614 324.577 289.647 323.329 294.745 323.415C299.844 323.501 304.832 324.917 309.219 327.525C313.606 330.133 317.241 333.843 319.765 338.289C322.29 342.734 323.618 347.763 323.617 352.88C323.617 369.155 310.47 369.72 294.252 369.72C278.034 369.72 264.886 369.155 264.886 352.88C264.882 348.762 265.739 344.688 267.404 340.924L281.119 345.209Z" fill="#6C63FF"/>
<path opacity="0.1" d="M278.005 361.029C279.307 359.72 280.761 358.573 282.337 357.614C284.557 356.136 286.853 354.629 289.467 354.126C291.763 353.687 294.132 354.059 296.466 353.923C300.531 353.673 304.357 351.915 307.202 348.991C308.867 347.257 310.182 345.126 312.189 343.808C314.35 342.358 317.094 342.073 319.66 342.431C320.407 342.537 321.147 342.688 321.875 342.885C323.025 346.091 323.611 349.473 323.608 352.88C323.608 369.155 310.461 369.72 294.242 369.72C286.371 369.72 279.227 369.59 273.951 367.59L274.832 365.938C275.752 364.213 276.686 362.479 278.005 361.029Z" fill="black"/>
</svg>
