<svg width="806" height="409" viewBox="0 0 806 409" fill="none" xmlns="http://www.w3.org/2000/svg">
<path d="M503.794 115.814C502.931 100.563 496.678 86.1149 486.149 75.0444C475.62 63.9739 461.501 57.0011 446.307 55.3691C431.114 53.737 415.835 57.552 403.193 66.1336C390.552 74.7153 381.371 87.5059 377.286 102.225C376.505 102.197 375.725 102.166 374.937 102.166C361.006 102.168 347.451 106.679 336.299 115.024C325.147 123.369 316.998 135.099 313.071 148.459C303.84 144.405 293.525 143.525 283.74 145.958C273.956 148.391 265.255 153.999 259 161.903H460.13C484.84 161.903 504.847 141.444 503.839 116.765C503.826 116.448 503.811 116.131 503.794 115.814Z" fill="#E6E6E6"/>
<path d="M332.644 124.399H174.214L94.9999 261.549L174.214 398.7H332.644L411.858 261.549L332.644 124.399Z" fill="#A6A6A6"/>
<path d="M187.476 375.739H319.382L385.336 261.549L319.382 147.359H187.476L121.522 261.549L187.476 375.739Z" fill="white"/>
<path d="M204.21 147.189H202.494V218.003H204.21V147.189Z" fill="#3F3D56"/>
<path d="M203.352 226.957C206.05 226.957 208.237 224.77 208.237 222.073C208.237 219.376 206.05 217.189 203.352 217.189C200.653 217.189 198.466 219.376 198.466 222.073C198.466 224.77 200.653 226.957 203.352 226.957Z" fill="#6C63FF"/>
<path d="M240.852 147.189H239.135V218.003H240.852V147.189Z" fill="#3F3D56"/>
<path d="M239.994 226.957C242.692 226.957 244.879 224.77 244.879 222.073C244.879 219.376 242.692 217.189 239.994 217.189C237.295 217.189 235.108 219.376 235.108 222.073C235.108 224.77 237.295 226.957 239.994 226.957Z" fill="#3F3D56"/>
<path d="M305.179 147.189H303.462V218.003H305.179V147.189Z" fill="#3F3D56"/>
<path d="M304.321 226.957C307.019 226.957 309.206 224.77 309.206 222.073C309.206 219.376 307.019 217.189 304.321 217.189C301.622 217.189 299.435 219.376 299.435 222.073C299.435 224.77 301.622 226.957 304.321 226.957Z" fill="#3F3D56"/>
<path d="M277.45 296.956C280.148 296.956 282.335 294.77 282.335 292.073C282.335 289.375 280.148 287.189 277.45 287.189C274.752 287.189 272.564 289.375 272.564 292.073C272.564 294.77 274.752 296.956 277.45 296.956Z" fill="#3F3D56"/>
<path d="M178.11 252.189C180.808 252.189 182.995 250.003 182.995 247.305C182.995 244.608 180.808 242.422 178.11 242.422C175.411 242.422 173.224 244.608 173.224 247.305C173.224 250.003 175.411 252.189 178.11 252.189Z" fill="#3F3D56"/>
<path d="M278.308 288.002H276.592V202.672H239.994V200.956H278.308V288.002Z" fill="#3F3D56"/>
<path d="M214.751 327.886C217.45 327.886 219.637 325.7 219.637 323.003C219.637 320.305 217.45 318.119 214.751 318.119C212.053 318.119 209.866 320.305 209.866 323.003C209.866 325.7 212.053 327.886 214.751 327.886Z" fill="#6C63FF"/>
<path d="M215.61 318.933H213.893V233.601H177.295V231.886H215.61V318.933Z" fill="#3F3D56"/>
<path d="M327.934 289.631C330.632 289.631 332.82 287.444 332.82 284.747C332.82 282.05 330.632 279.863 327.934 279.863C325.236 279.863 323.049 282.05 323.049 284.747C323.049 287.444 325.236 289.631 327.934 289.631Z" fill="#6C63FF"/>
<path d="M328.792 280.677H327.076V195.346H303.506V193.631H328.792V280.677Z" fill="#3F3D56"/>
<path d="M178.968 242.421H177.251V199.995H203.352V201.71H178.968V242.421Z" fill="#3F3D56"/>
<path d="M240.401 347.014C243.099 347.014 245.286 344.828 245.286 342.13C245.286 339.433 243.099 337.247 240.401 337.247C237.703 337.247 235.515 339.433 235.515 342.13C235.515 344.828 237.703 347.014 240.401 347.014Z" fill="#3F3D56"/>
<path d="M241.258 337.246H239.542V296.536H215.158V294.82H241.258V337.246Z" fill="#3F3D56"/>
<path d="M302.692 310.793C305.39 310.793 307.578 308.607 307.578 305.91C307.578 303.213 305.39 301.026 302.692 301.026C299.994 301.026 297.806 303.213 297.806 305.91C297.806 308.607 299.994 310.793 302.692 310.793Z" fill="#3F3D56"/>
<path d="M303.55 301.026H301.834V258.6H327.934V260.315H303.55V301.026Z" fill="#3F3D56"/>
<path d="M0.0820972 85.8139C0.944943 70.5634 7.19812 56.1149 17.7268 45.0444C28.2554 33.9739 42.3751 27.0011 57.5684 25.3691C72.7617 23.737 88.0411 27.5519 100.682 36.1336C113.324 44.7153 122.505 57.5059 126.59 72.2249C127.371 72.1969 128.151 72.1655 128.939 72.1655C142.869 72.1681 156.425 76.6792 167.576 85.024C178.728 93.3688 186.878 105.099 190.805 118.459C200.036 114.404 210.351 113.525 220.135 115.958C229.92 118.391 238.621 123.999 244.876 131.903H43.7458C19.0358 131.903 -0.971185 111.445 0.0364657 86.7646C0.0493773 86.4482 0.0645918 86.1313 0.0820972 85.8139Z" fill="#E6E6E6"/>
</svg>
