<svg width="100" height="100" viewBox="0 0 100 100" fill="none" xmlns="http://www.w3.org/2000/svg">
<path d="M66.7012 40.332L59.9375 36.4258L53.1738 40.332L53.0508 40.4023L59.9961 44.457L66.832 40.4082L66.7012 40.332Z" fill="#EFEFEF"/>
<path d="M53.0469 40.4023V48.2949L59.8086 52.2012L59.9375 52.2754L59.9922 44.4492L53.0469 40.4023Z" fill="#36363C"/>
<path d="M66.8281 40.4082L59.9922 44.457L59.9375 52.2832L60.0684 52.209L66.832 48.3027V40.4082H66.8281Z" fill="#5E5E63"/>
<path d="M66.832 40.4102V40.5605L60.1211 44.5332L60.0684 52.209L59.9375 52.2832L59.8086 52.209L59.8633 44.5332L53.0488 40.5547V40.4023L53.0508 40.4004L53.1738 40.3301L59.9922 44.3066L66.7012 40.332L66.8281 40.4062V40.4082L66.832 40.4102Z" fill="black"/>
<path d="M56.8848 23.2734L56.7637 23.2031L50 19.2891L43.2344 23.1953L43.1113 23.2637L50.0352 27.3184L56.8906 23.2676L56.8848 23.2734Z" fill="#EFEFEF"/>
<path d="M43.1094 23.2715V31.1641L49.873 35.0703L50.002 35.1465L50.0352 27.3203L43.1094 23.2715Z" fill="#28282D"/>
<path d="M56.8887 23.2754L50.0332 27.3262L50 35.1562L50.1289 35.0801L56.8906 31.1738V23.2754H56.8887Z" fill="#5E5E63"/>
<path d="M56.8906 23.2812V23.4297L50.1816 27.4004L50.1289 35.0762L50 35.1504L49.8711 35.0762L49.9219 27.4004L43.1074 23.4238V23.2754L43.1094 23.2715L43.1113 23.2695L43.2344 23.1992L50.0508 27.1777L56.7637 23.2031L56.8848 23.2734L56.8887 23.2754L56.8906 23.2812Z" fill="black"/>
<path d="M46.8223 40.332L40.0586 36.4258L33.2988 40.332L33.168 40.4063V48.2988L39.9297 52.2051L40.0566 52.2773L40.1836 52.2031L46.9434 48.2969V40.4082L46.8223 40.332Z" fill="#EFEFEF"/>
<path d="M33.168 40.4023V48.2949L39.9297 52.2012L40.0566 52.2734L40.1094 44.4473L33.168 40.4023Z" fill="#D7D7D8"/>
<path d="M40.1113 44.457L40.0586 52.2832L46.9492 48.2949V40.4082L40.1113 44.457Z" fill="#86868A"/>
<path d="M46.9492 40.4082V40.5586L40.2402 44.5313L40.1895 52.209L40.0625 52.2832H40.0586L40.0566 52.2812L39.9297 52.209L39.9824 44.5313L33.168 40.5527V40.4023L33.2988 40.3281L40.1113 44.3066L46.8223 40.332L46.9492 40.4082Z" fill="black"/>
<path d="M66.8262 28.9824L66.7051 28.9141L59.9375 25.0078L53.1777 28.9141L53.0469 28.9883L59.9922 33.041L66.8281 28.9922L66.8262 28.9824Z" fill="#EFEFEF"/>
<path d="M53.0469 28.9824V36.873L59.8086 40.7793L59.9375 40.8555L59.9922 33.0293L53.0469 28.9824Z" fill="#36363C"/>
<path d="M66.8281 28.9863L59.9922 33.0352L59.9375 40.8613L60.0684 40.7852L66.832 36.8789V28.9863H66.8281Z" fill="#5E5E63"/>
<path d="M46.8223 28.9062L40.0586 25L33.2988 28.9062L33.168 28.9805V36.8711L39.9297 40.7773L40.0586 40.8535L40.1895 40.7773L46.9492 36.8711V28.9863L46.8223 28.9062Z" fill="#EFEFEF"/>
<path d="M33.168 28.9824V36.873L39.9297 40.7793L40.0586 40.8555L40.1113 33.0293L33.168 28.9824Z" fill="#D7D7D8"/>
<path d="M40.1113 33.0352L40.0586 40.8613L40.1895 40.7852L46.9492 36.8789V28.9863L40.1113 33.0352Z" fill="#86868A"/>
<path d="M46.9492 28.9863V29.1367L40.2402 33.1113L40.1895 40.7852L40.0586 40.8613L39.9297 40.7852L39.9824 33.1113L33.168 29.1328V28.9844L33.2988 28.9082L40.1113 32.8867L46.8223 28.9102L46.9492 28.9863Z" fill="black"/>
<path d="M56.8848 46.1152L56.7637 46.0449L50 42.1387L43.2363 46.0449L43.1094 46.1191L50.0332 50.1719L56.8887 46.1211L56.8848 46.1152Z" fill="#EFEFEF"/>
<path d="M43.1094 46.1152V54.0059L49.873 57.9121L50.002 57.9863L50.0352 50.1621L43.1094 46.1152Z" fill="#AFAFB1"/>
<path d="M56.8887 46.1172L50.0332 50.168L50 57.9922L50.1289 57.918L56.8906 54.0117V46.1172H56.8887Z" fill="#86868A"/>
<path d="M56.8887 34.6953L56.7617 34.623L50 30.7168L43.2363 34.623L43.1094 34.6992V42.5781L49.873 46.4844L50.002 46.5586L50.1309 46.4844L56.8926 42.5781V34.6875L56.8887 34.6953Z" fill="#EFEFEF"/>
<path d="M43.1094 34.6934V42.5781L49.873 46.4844L50.002 46.5586L50.0547 38.7344L43.1094 34.6934Z" fill="#AFAFB1"/>
<path d="M56.8887 34.6953L50.0527 38.7461L50 46.5703L50.1289 46.4961L56.8906 42.5898V34.6992L56.8887 34.6953Z" fill="#86868A"/>
<path d="M56.8906 34.6992V34.8477L50.1816 38.8203L50.1289 46.4961L50 46.5703L49.8711 46.4961L49.9219 38.8203L43.1074 34.8437V34.6953L43.1094 34.6934L43.2363 34.6172L50.0508 38.5957L56.7617 34.6211L56.8887 34.6934V34.6953L56.8906 34.6992Z" fill="black"/>
<path d="M66.832 28.9922V29.1387L60.1211 33.1133L60.0684 40.7852L59.9375 40.8613L59.8086 40.7852L59.8633 33.1113L53.0488 29.1367V28.9844L53.1777 28.9082L59.9922 32.8887L66.7051 28.9141L66.8262 28.9844L66.8281 28.9863L66.832 28.9922Z" fill="black"/>
<path d="M56.8906 46.123V46.2715L50.1816 50.2422L50.1289 57.918L50 57.9922L49.8711 57.918L49.9219 50.2422L43.1074 46.2676V46.1172L43.1094 46.1152V46.1133L43.2363 46.0391L50.0508 50.0195L56.7637 46.0449L56.8848 46.1152L56.8887 46.1172L56.8906 46.123Z" fill="black"/>
</svg>
