<svg width="240" height="152" viewBox="0 0 240 152" fill="none" xmlns="http://www.w3.org/2000/svg">
<g clip-path="url(#clip0_1_1685)">
<path d="M155.928 9.57376C147.915 4.98359 135.041 4.98359 127.159 9.57376C119.146 14.1639 119.146 21.6393 127.159 26.2295C135.172 30.8197 148.046 30.8197 155.928 26.2295C163.81 21.5082 163.81 14.1639 155.928 9.57376ZM148.834 22.0328C144.762 24.3934 138.062 24.3934 133.99 22.0328C129.918 19.6721 129.918 15.8688 133.99 13.5082C138.062 11.1475 144.762 11.1475 148.834 13.5082C153.038 15.8688 153.038 19.6721 148.834 22.0328Z" fill="#0C0C0C"/>
<path d="M141.478 30.9508C135.961 30.9508 130.575 29.7705 126.371 27.4098C122.036 24.918 119.672 21.5082 119.672 17.8361C119.672 14.1639 122.036 10.7541 126.371 8.26228C134.647 3.40983 148.309 3.40983 156.585 8.26228C160.92 10.7541 163.284 14.1639 163.284 17.8361C163.284 21.5082 160.92 24.918 156.585 27.4098C152.381 29.7705 146.995 30.9508 141.478 30.9508ZM141.478 7.4754C136.486 7.4754 131.494 8.52458 127.816 10.7541C124.401 12.7213 122.562 15.2131 122.562 17.8361C122.562 20.459 124.401 22.9508 127.816 24.918C135.435 29.2459 147.652 29.2459 155.271 24.918C158.686 22.9508 160.525 20.459 160.525 17.8361C160.525 15.2131 158.686 12.7213 155.271 10.7541C151.461 8.52458 146.47 7.4754 141.478 7.4754ZM141.478 25.3115C138.588 25.3115 135.698 24.6557 133.333 23.3442C130.969 21.9016 129.524 20.0656 129.524 17.8361C129.524 15.7377 130.837 13.7705 133.333 12.3279C137.931 9.70491 145.025 9.70491 149.491 12.3279C151.855 13.7705 153.3 15.6065 153.3 17.8361C153.3 19.9344 151.987 21.9016 149.491 23.3442C147.258 24.6557 144.368 25.3115 141.478 25.3115ZM141.478 13.2459C138.982 13.2459 136.617 13.7705 134.778 14.8197C133.333 15.7377 132.414 16.7869 132.414 17.8361C132.414 18.8852 133.333 20.0656 134.778 20.8524C138.456 22.9508 144.499 22.9508 148.177 20.8524C149.622 19.9344 150.542 18.8852 150.542 17.8361C150.542 16.7869 149.622 15.6065 148.177 14.8197C146.338 13.7705 143.974 13.2459 141.478 13.2459Z" fill="#0C0C0C"/>
<path d="M228.571 61.5082L216.749 62.9508C216.617 62.9508 216.355 62.9508 216.223 62.8197L150.542 25.0492C145.681 22.2951 137.274 22.5574 131.626 25.8361L27.8489 85.6393C27.7176 85.6393 27.5862 85.7705 27.5862 85.7705L9.06404 87.8688C8.66995 87.8688 8.27586 88.2623 8.27586 88.6557V100.328C8.27586 102.033 9.45813 103.738 11.5599 104.918L87.225 148.459C92.0854 151.213 100.493 150.951 106.141 147.672L224.762 79.3442C228.046 77.5082 229.622 75.0164 229.36 72.7869V62.1639C229.491 61.7705 229.097 61.377 228.571 61.5082Z" fill="#8C8C8C"/>
<path d="M95.5008 152C92.2167 152 88.9327 151.344 86.5681 149.902L10.9031 106.23C8.40723 104.787 6.96223 102.82 6.96223 100.459V88.7869C6.96223 87.6066 7.75041 86.6885 8.93268 86.5574L27.1921 84.3279L130.969 24.5246C137.011 20.9836 145.944 20.7213 151.33 23.7377L216.749 61.5082L228.309 60.0656C228.966 59.9344 229.622 60.1967 230.016 60.5902C230.542 60.9836 230.805 61.6393 230.805 62.2951V72.918C231.067 75.6721 229.097 78.5574 225.55 80.6557L106.929 148.984C103.645 150.951 99.4417 152 95.5008 152ZM9.72086 89.3115V100.459C9.72086 102.033 11.1658 103.213 12.3481 103.869L88.0131 147.41C92.3481 149.902 100.493 149.639 105.616 146.623L224.236 78.2951C226.864 76.8525 228.309 74.8852 228.177 73.0492V62.9508L217.011 64.2623C216.486 64.2623 216.092 64.2623 215.567 64L149.885 26.2295C145.55 23.7377 137.406 24 132.282 27.0164L28.5058 86.8197C28.243 86.9508 27.9803 87.082 27.5862 87.082L9.72086 89.3115Z" fill="#0C0C0C"/>
<path d="M228.44 61.5082L216.617 62.9508C216.486 62.9508 216.223 62.9508 216.092 62.8197L150.411 25.0492C145.55 22.2951 137.143 22.5574 131.494 25.8361L96.8145 45.9016V150.557C100.099 150.426 103.514 149.508 106.141 147.934L224.762 79.6065C228.046 77.7705 229.622 75.2787 229.36 73.0492V62.4262C229.491 61.9016 228.966 61.5082 228.44 61.5082Z" fill="#0C0C0C"/>
<path d="M226.207 56.7869L158.161 17.5738C162.102 13.377 160.92 8.13114 154.877 4.59016C147.389 0.262286 135.435 0.262286 127.947 4.59016C121.773 8.13114 120.723 13.6393 124.926 17.8361L13.0049 82.3607C7.35632 85.6393 6.83087 90.4918 11.6913 93.2459L87.3563 136.787C92.2168 139.541 100.624 139.279 106.273 136L224.893 67.6721C230.411 64.3934 231.067 59.541 226.207 56.7869ZM134.516 8.39343C138.325 6.16393 144.499 6.16393 148.309 8.39343C150.673 9.70491 151.593 11.6721 150.936 13.5082L150.542 13.2459C145.813 10.4918 137.537 10.7541 132.02 13.9016C131.1 11.9344 131.888 9.83606 134.516 8.39343Z" fill="white"/>
<path d="M95.5008 140.197C92.2167 140.197 88.9327 139.541 86.5681 138.098L10.9031 94.4262C8.27586 92.9836 6.96223 90.8852 6.96223 88.5246C6.96223 85.7705 8.93268 83.1475 12.3481 81.1803L122.824 17.4426C121.379 15.6066 120.854 13.377 121.117 11.2787C121.511 8.26229 123.744 5.37704 127.291 3.40983C135.041 -1.04919 147.783 -1.04919 155.534 3.40983C159.08 5.50819 161.314 8.26229 161.708 11.1475C161.97 13.2459 161.445 15.2131 160.263 17.0492L226.864 55.4754C229.36 56.918 230.805 59.0164 230.805 61.377C230.805 64.1311 228.834 66.7541 225.419 68.7213L106.798 137.049C103.514 139.148 99.4417 140.197 95.5008 140.197ZM141.346 2.75409C136.749 2.75409 132.151 3.80327 128.604 5.77049C125.846 7.34426 124.007 9.44262 123.744 11.6721C123.481 13.5082 124.269 15.2131 125.846 16.7869L127.159 18.0984L13.6617 83.541C11.1658 84.9836 9.72085 86.8197 9.72085 88.5246C9.72085 90.2295 11.1658 91.4098 12.3481 92.0656L88.0131 135.607C92.3481 138.098 100.493 137.836 105.616 134.82L224.236 66.4918C226.732 65.0492 228.177 63.2131 228.177 61.5082C228.177 59.8033 226.732 58.6229 225.55 57.9672L155.928 17.8361L157.11 16.5246C158.555 14.9508 159.212 13.2459 158.949 11.541C158.686 9.44262 156.979 7.34426 154.089 5.77049C150.673 3.80327 145.944 2.75409 141.346 2.75409ZM131.363 15.7377L130.706 14.4262C129.524 11.8033 130.706 9.04917 133.727 7.21311C137.931 4.72131 144.631 4.72131 148.966 7.21311C151.855 8.91803 153.038 11.4098 152.25 13.9016L151.724 15.4754L149.754 14.4262C145.419 11.9344 137.668 12.1967 132.545 15.082L131.363 15.7377ZM141.346 8.13114C139.113 8.13114 136.88 8.65573 135.172 9.57376C134.516 9.96721 133.465 10.6229 133.202 11.6721C138.325 9.57376 144.762 9.31147 149.36 11.0164C148.834 10.3606 148.046 9.83606 147.652 9.57376C145.944 8.52458 143.58 8.13114 141.346 8.13114Z" fill="#0C0C0C"/>
<path d="M94.844 92.5902C94.1872 92.0656 93.399 91.4098 92.4795 90.8852C83.8095 85.9016 69.7537 85.9016 61.0837 90.8852C60.1642 91.4098 59.376 91.9344 58.7192 92.5902H55.1724C54.9097 92.5902 54.647 92.8525 54.647 93.1147V99.9344C54.647 104.656 59.1133 109.377 68.046 111.738C73.8259 113.311 79.8686 113.311 85.5172 111.738C94.4499 109.377 98.9163 104.656 98.9163 99.9344V93.1147C98.9163 92.8525 98.6535 92.5902 98.3908 92.5902H94.844Z" fill="#8C8C8C"/>
<path d="M76.8473 114.361C73.8259 114.361 70.6732 113.967 67.7833 113.18C58.7192 110.689 53.3333 105.836 53.3333 100.066V93.2459C53.3333 92.1967 54.2529 91.2787 55.3038 91.2787H58.3251C58.9819 90.7541 59.7701 90.2295 60.5583 89.8361C69.6223 84.5902 84.335 84.5902 93.2677 89.8361C94.0558 90.2295 94.7126 90.7541 95.5008 91.2787H98.5222C99.5731 91.2787 100.493 92.1967 100.493 93.2459V100.066C100.493 105.836 95.1067 110.82 86.0427 113.18C82.89 113.967 79.8686 114.361 76.8473 114.361ZM55.9606 94.0328V100.066C55.9606 104.525 60.6897 108.459 68.3087 110.557C73.8259 112 79.6059 112 85.1232 110.557C92.7422 108.459 97.4713 104.525 97.4713 100.066V94.0328H94.1872L93.7931 93.7705C93.1363 93.2459 92.3481 92.7213 91.5599 92.1967C83.2841 87.4754 69.8851 87.4754 61.6092 92.1967C60.821 92.5902 60.1642 93.1147 59.376 93.7705L58.9819 94.0328H55.9606Z" fill="#0C0C0C"/>
<path d="M92.4795 101.639C83.8095 106.623 69.7537 106.623 61.0837 101.639C52.4138 96.6557 52.4138 88.5246 61.0837 83.541C69.7537 78.5574 83.8095 78.5574 92.4795 83.541C101.149 88.5246 101.149 96.6557 92.4795 101.639Z" fill="#8C8C8C"/>
<path d="M76.8473 106.754C70.936 106.754 65.0246 105.443 60.4269 102.82C55.8292 100.197 53.202 96.5246 53.202 92.5902C53.202 88.6557 55.6979 84.9836 60.4269 82.3606C69.491 77.1147 84.2036 77.1147 93.1363 82.3606C97.734 84.9836 100.361 88.6557 100.361 92.5902C100.361 96.5246 97.8654 100.197 93.1363 102.82C88.67 105.443 82.7586 106.754 76.8473 106.754ZM76.8473 81.1803C71.4614 81.1803 65.9442 82.3606 61.8719 84.7213C58.1938 86.8197 56.092 89.7049 56.092 92.5902C56.092 95.4754 58.1938 98.2295 61.8719 100.459C70.1478 105.18 83.5468 105.18 91.8227 100.459C95.5008 98.3606 97.6026 95.4754 97.6026 92.5902C97.6026 89.7049 95.5008 86.9508 91.8227 84.7213C87.6191 82.3606 82.2332 81.1803 76.8473 81.1803Z" fill="#0C0C0C"/>
<path d="M77.6355 105.443V112.918L83.8095 112.262L91.2972 109.246L97.4713 106.229L98.9163 100.066L97.6026 97.0492L91.2972 102.295L84.8604 105.049L77.6355 105.443Z" fill="#0C0C0C"/>
<path d="M64.1051 102.689H62.1346V110.033H64.1051V102.689Z" fill="#0C0C0C"/>
<path d="M73.6946 105.443H71.7241V112.787H73.6946V105.443Z" fill="#0C0C0C"/>
<path d="M94.1872 100.721H93.1363V107.541H94.1872V100.721Z" fill="#8C8C8C"/>
<path d="M137.8 65.8361C137.143 65.3115 136.355 64.6557 135.435 64.1311C126.765 59.1475 112.709 59.1475 104.039 64.1311C103.12 64.6557 102.332 65.1803 101.675 65.8361H98.1281C97.8653 65.8361 97.6026 66.0983 97.6026 66.3606V73.1803C97.6026 77.9016 102.069 82.6229 111.002 84.9836C116.782 86.5574 122.824 86.5574 128.473 84.9836C137.406 82.6229 141.872 77.9016 141.872 73.1803V66.3606C141.872 66.0983 141.609 65.8361 141.346 65.8361H137.8V65.8361Z" fill="#8C8C8C"/>
<path d="M119.803 87.6066C116.782 87.6066 113.629 87.2131 110.739 86.4262C101.675 83.9344 96.289 79.082 96.289 73.3115V66.4918C96.289 65.4426 97.2085 64.5246 98.2594 64.5246H101.281C101.938 64 102.726 63.4754 103.514 63.0819C112.578 57.836 127.291 57.836 136.223 63.0819C137.011 63.4754 137.668 64 138.456 64.5246H141.478C142.529 64.5246 143.448 65.4426 143.448 66.4918V73.3115C143.448 79.082 138.062 84.0656 128.998 86.4262C125.977 87.2131 122.824 87.6066 119.803 87.6066ZM99.0476 67.2787V73.3115C99.0476 77.7705 103.777 81.7049 111.396 83.8033C116.913 85.2459 122.693 85.2459 128.21 83.8033C135.829 81.7049 140.558 77.7705 140.558 73.3115V67.2787H137.274L136.88 67.0164C136.223 66.4918 135.435 65.9672 134.647 65.4426C126.371 60.7213 112.972 60.7213 104.696 65.4426C103.908 65.8361 103.251 66.3606 102.463 67.0164L102.069 67.2787H99.0476Z" fill="#0C0C0C"/>
<path d="M135.435 74.8852C126.765 79.8689 112.709 79.8689 104.039 74.8852C95.3695 69.9016 95.3695 61.7705 104.039 56.7869C112.709 51.8033 126.765 51.8033 135.435 56.7869C144.105 61.7705 144.105 69.9016 135.435 74.8852Z" fill="#8C8C8C"/>
<path d="M119.803 80C113.892 80 107.98 78.6885 103.383 76.0656C98.7849 73.4426 96.1576 69.7705 96.1576 65.8361C96.1576 61.9016 98.6535 58.2295 103.383 55.6065C112.447 50.3606 127.159 50.3606 136.092 55.6065C140.69 58.2295 143.317 61.9016 143.317 65.8361C143.317 69.7705 140.821 73.4426 136.092 76.0656C131.626 78.6885 125.714 80 119.803 80ZM119.803 54.4262C114.417 54.4262 108.9 55.6065 104.828 57.9672C101.149 60.0656 99.0476 62.9508 99.0476 65.8361C99.0476 68.7213 101.149 71.4754 104.828 73.7049C113.103 78.4262 126.502 78.4262 134.778 73.7049C138.457 71.6065 140.558 68.7213 140.558 65.8361C140.558 62.9508 138.457 60.1967 134.778 57.9672C130.706 55.6065 125.189 54.4262 119.803 54.4262Z" fill="#0C0C0C"/>
<path d="M120.591 78.6885V86.1639L126.765 85.5082L134.253 82.3606L140.427 79.4754L142.003 73.3115L140.558 70.2951L134.253 75.541L127.816 78.2951L120.591 78.6885Z" fill="#0C0C0C"/>
<path d="M107.061 75.9344H105.09V83.2787H107.061V75.9344Z" fill="#0C0C0C"/>
<path d="M116.782 78.6885H114.811V86.0328H116.782V78.6885Z" fill="#0C0C0C"/>
<path d="M137.274 73.9672H136.223V80.7869H137.274V73.9672Z" fill="#8C8C8C"/>
<path d="M181.806 41.0492C181.149 40.5246 180.361 39.8688 179.442 39.3442C170.772 34.3606 156.716 34.3606 148.046 39.3442C147.126 39.8688 146.338 40.3934 145.681 41.0492H142.135C141.872 41.0492 141.609 41.3115 141.609 41.5738V48.5246C141.609 53.2459 146.076 57.9672 155.008 60.3279C160.788 61.9016 166.831 61.9016 172.479 60.3279C181.412 57.9672 185.878 53.2459 185.878 48.5246V41.7049C185.878 41.4426 185.616 41.1803 185.353 41.1803H181.806V41.0492Z" fill="#8C8C8C"/>
<path d="M163.81 62.8197C160.788 62.8197 157.635 62.4262 154.745 61.6393C145.681 59.1475 140.296 54.2951 140.296 48.5246V41.7049C140.296 40.6557 141.215 39.7377 142.266 39.7377H145.287C145.944 39.2131 146.732 38.6885 147.521 38.2951C156.585 33.0492 171.297 33.0492 180.23 38.2951C181.018 38.6885 181.675 39.2131 182.463 39.7377H185.484C186.535 39.7377 187.455 40.6557 187.455 41.7049V48.5246C187.455 54.2951 182.069 59.2787 173.005 61.6393C169.852 62.4262 166.831 62.8197 163.81 62.8197ZM142.923 42.4918V48.5246C142.923 52.9836 147.652 56.918 155.271 59.0164C160.788 60.459 166.568 60.459 172.085 59.0164C179.704 56.918 184.433 52.9836 184.433 48.5246V42.4918H181.281L180.887 42.2295C180.23 41.7049 179.442 41.1803 178.654 40.6557C170.378 35.9344 156.979 35.9344 148.703 40.6557C147.915 41.0492 147.258 41.5738 146.47 42.2295L146.076 42.4918H142.923Z" fill="#0C0C0C"/>
<path d="M179.442 50.0984C170.772 55.082 156.716 55.082 148.046 50.0984C139.376 45.1147 139.376 36.9836 148.046 32C156.716 27.0164 170.772 27.0164 179.442 32C188.112 36.9836 188.112 45.1147 179.442 50.0984Z" fill="#8C8C8C"/>
<path d="M163.81 55.2131C157.898 55.2131 151.987 53.9016 147.389 51.2787C142.791 48.6557 140.164 44.9836 140.164 41.0492C140.164 37.1147 142.66 33.4426 147.389 30.8197C156.453 25.5738 171.166 25.5738 180.099 30.8197C184.696 33.4426 187.323 37.1147 187.323 41.0492C187.323 44.9836 184.828 48.6557 180.099 51.2787C175.632 53.9016 169.721 55.2131 163.81 55.2131ZM163.81 29.6393C158.424 29.6393 152.906 30.8197 148.834 33.1803C145.156 35.2787 143.054 38.1639 143.054 41.0492C143.054 43.9344 145.156 46.6885 148.834 48.918C157.11 53.6393 170.509 53.6393 178.785 48.918C182.463 46.8197 184.565 43.9344 184.565 41.0492C184.565 38.1639 182.463 35.4098 178.785 33.1803C174.581 30.8197 169.195 29.6393 163.81 29.6393Z" fill="#0C0C0C"/>
<path d="M164.598 53.9016V61.377L170.772 60.7213L178.259 57.7049L184.433 54.6885L185.878 48.5246L184.565 45.5082L178.259 50.7541L171.823 53.5082L164.598 53.9016Z" fill="#0C0C0C"/>
<path d="M151.067 51.1475H149.097V58.4918H151.067V51.1475Z" fill="#0C0C0C"/>
<path d="M160.657 53.9016H158.686V61.2459H160.657V53.9016Z" fill="#0C0C0C"/>
<path d="M181.281 49.1803H180.23V56H181.281V49.1803Z" fill="#8C8C8C"/>
<path d="M18.1108 96.3909L16.1403 96.3967L16.1749 108.2L18.1453 108.194L18.1108 96.3909Z" fill="#0C0C0C"/>
<path d="M92.4633 138.752L90.4928 138.758L90.5261 150.561L92.4965 150.555L92.4633 138.752Z" fill="#0C0C0C"/>
<path d="M81.954 133.506L79.9836 133.512L80.0169 145.315L81.9873 145.309L81.954 133.506Z" fill="#0C0C0C"/>
<path d="M106.404 137.311H105.353V146.623H106.404V137.311Z" fill="#8C8C8C"/>
<path d="M209.524 78.2951H208.473V87.6066H209.524V78.2951Z" fill="#8C8C8C"/>
<path d="M51.4237 50.4068L38.6252 57.9144L39.6234 59.6105L52.4219 52.1029L51.4237 50.4068Z" fill="#0C0C0C"/>
<path d="M1.97044 95.0819H0V88.5246C0 83.541 2.62726 78.8197 6.96223 76.3279L34.2857 60.3279L35.3366 62.0328L8.01314 78.0328C4.33498 80.2623 1.97044 84.1967 1.97044 88.5246V95.0819Z" fill="#0C0C0C"/>
<path d="M240 72H238.03V66.2295C238.03 60.5901 235.008 55.2131 230.148 52.1967L221.741 47.082L222.791 45.377L231.199 50.4918C236.585 53.7705 240 59.8033 240 66.2295V72Z" fill="#0C0C0C"/>
<path d="M209.451 37.2946L208.421 38.9718L218.501 45.139L219.531 43.4618L209.451 37.2946Z" fill="#0C0C0C"/>
</g>
<defs>
<clipPath id="clip0_1_1685">
<rect width="240" height="152" fill="white"/>
</clipPath>
</defs>
</svg>
