<svg width="496" height="413" viewBox="0 0 496 413" fill="none" xmlns="http://www.w3.org/2000/svg">
<path opacity="0.5" d="M419.447 119.584L307.566 54.7965C301.487 51.3257 290.921 51.7596 283.829 55.8088L48.9209 190.878C41.8288 194.928 41.1051 201.001 47.1841 204.617L159.066 269.404C165.145 272.874 175.71 272.441 182.803 268.391L417.71 133.322C424.803 129.273 425.526 123.054 419.447 119.584Z" fill="#383838"/>
<path d="M155.882 245.398L39.3686 178.008C35.6054 175.838 33.7239 172.801 33.8686 169.765V152.845L40.3818 160.365C40.816 160.075 41.2502 159.786 41.6844 159.497L280.066 22.4028C289.474 16.9075 303.803 16.3291 312.053 21.1013L426.974 87.6238C429.29 85.0207 434.211 79.67 434.211 79.67V96.156C434.355 99.916 431.75 103.821 426.395 106.857L188.013 243.952C178.316 249.447 163.987 250.025 155.882 245.398Z" fill="#878787"/>
<path d="M92.7762 204.038L99.4341 207.943C100.303 208.521 101.026 207.943 101.026 206.786C101.026 205.629 100.303 204.183 99.4341 203.749L92.7762 199.844C91.9078 199.266 91.1841 199.844 91.1841 201.001C91.1841 202.158 91.9078 203.46 92.7762 204.038Z" fill="#383838"/>
<path d="M279.921 22.4028C289.329 16.9075 303.658 16.3291 311.908 21.1013L426.829 87.6238C429.145 85.0207 434.066 79.67 434.066 79.67V96.156C434.211 99.916 431.606 103.821 426.25 106.857L187.869 243.952C182.948 246.844 176.724 248.29 170.645 248.435L170.79 85.31L279.921 22.4028Z" fill="#646464"/>
<path d="M428.421 71.5717L311.908 4.18152C303.658 -0.590742 289.474 -0.0122855 279.921 5.48305L41.6844 142.577C32.2765 148.073 31.1186 156.316 39.3686 160.943L155.882 228.333C164.132 233.106 178.316 232.527 187.869 227.032L426.25 89.9377C435.658 84.5869 436.671 76.3439 428.421 71.5717Z" fill="#E7E7E7"/>
<path d="M155.737 230.213L39.2238 162.823C35.0264 160.365 33.2896 157.039 33.8685 153.568C34.0133 156.316 35.8948 159.063 39.3685 161.088L155.882 228.478C164.132 233.25 178.316 232.672 187.869 227.176L426.25 90.0823C430.882 87.4793 433.487 84.1531 433.921 80.9716C434.211 84.7316 431.605 88.7808 426.105 91.9623L187.724 229.056C178.316 234.263 163.987 234.841 155.737 230.213Z" fill="white"/>
<path d="M419.447 74.3194L307.566 9.53225C301.487 6.06151 290.921 6.49535 283.829 10.5445L48.9209 145.614C41.8288 149.663 41.1051 155.737 47.1841 159.352L159.066 224.14C165.145 227.61 175.71 227.176 182.803 223.127L417.71 88.0577C424.803 83.8639 425.526 77.7901 419.447 74.3194Z" fill="#707070"/>
<path d="M187.289 190.444L108.263 144.746L113.329 141.854L192.355 187.408L187.289 190.444Z" fill="#E7E7E7"/>
<path d="M132.29 177.14L92.3423 154.002L97.4081 151.109L137.355 174.248L132.29 177.14Z" fill="#E7E7E7"/>
<path d="M151.684 188.275L138.803 180.755L143.869 177.863L156.75 185.383L151.684 188.275Z" fill="#787878"/>
<path d="M171.369 199.555L158.342 192.035L163.408 189.143L176.434 196.663L171.369 199.555Z" fill="white"/>
<path d="M132.724 168.174L100.303 149.374L105.369 146.482L137.79 165.282L132.724 168.174Z" fill="white"/>
<path d="M172.382 191.023L139.961 172.223L145.027 169.331L177.448 188.131L172.382 191.023Z" fill="#E7E7E7"/>
<path d="M148.355 150.965C146.763 151.832 144.158 151.832 142.421 150.965C140.829 150.097 140.829 148.506 142.421 147.639C144.013 146.771 146.618 146.771 148.355 147.639C149.947 148.506 149.947 150.097 148.355 150.965Z" fill="#787878"/>
<path d="M157.184 156.026C155.592 156.894 152.987 156.894 151.25 156.026C149.658 155.159 149.658 153.568 151.25 152.7C152.842 151.833 155.448 151.833 157.184 152.7C158.777 153.568 158.777 155.159 157.184 156.026Z" fill="white"/>
<path d="M166.013 161.088C164.421 161.955 161.816 161.955 160.079 161.088C158.487 160.22 158.487 158.629 160.079 157.762C161.671 156.894 164.276 156.894 166.013 157.762C167.605 158.629 167.605 160.22 166.013 161.088Z" fill="#E7E7E7"/>
<path d="M174.698 166.149C173.106 167.017 170.5 167.017 168.763 166.149C167.171 165.282 167.171 163.691 168.763 162.823C170.356 161.955 172.961 161.955 174.698 162.823C176.434 163.691 176.434 165.282 174.698 166.149Z" fill="#787878"/>
<path d="M183.526 171.211C181.934 172.078 179.329 172.078 177.592 171.211C176 170.343 176 168.752 177.592 167.885C179.184 167.017 181.789 167.017 183.526 167.885C185.118 168.752 185.118 170.343 183.526 171.211Z" fill="white"/>
<path d="M360.25 74.7532L346.934 67.0887L352.145 64.0518L365.316 71.8609L360.25 74.7532Z" fill="#787878"/>
<path d="M378.776 85.4547L365.46 77.7901L370.526 74.7532L383.842 82.4178L378.776 85.4547Z" fill="white"/>
<path d="M300.763 40.1905L287.447 32.5259L292.658 29.489L305.974 37.1536L300.763 40.1905Z" fill="white"/>
<path d="M357.21 82.5624L338.684 71.8609L343.895 68.824L362.421 79.5255L357.21 82.5624Z" fill="white"/>
<path d="M370.526 90.2269L362.421 85.4547L367.631 82.5624L375.737 87.19L370.526 90.2269Z" fill="#E7E7E7"/>
<path opacity="0.5" d="M23.4474 136.359L0 122.765L23.4474 109.316L46.8947 122.765L23.4474 136.359Z" fill="#383838"/>
<path d="M46.8946 105.556L23.4473 119.15V92.1068L46.8946 78.5131V105.556Z" fill="#383838"/>
<path d="M23.4474 92.1069L0 78.5131L23.4474 65.064L46.8947 78.5131L23.4474 92.1069Z" fill="#E7E7E7"/>
<path d="M23.4474 119.15L0 105.556V78.5131L23.4474 92.1068V119.15Z" fill="#878787"/>
<path d="M15.0524 104.544L8.39453 100.784V93.1191L15.0524 97.0237V104.544Z" fill="white"/>
<path d="M287.013 142.722C265.882 154.869 231.434 154.869 210.303 142.722C189.171 130.574 189.171 110.762 210.303 98.4699C231.434 86.3224 265.882 86.3224 287.013 98.4699C308.145 110.762 308.145 130.574 287.013 142.722Z" fill="#292929"/>
<path d="M299.026 100.639H296.711C294.105 95.433 289.184 90.6608 282.237 86.467C259.803 73.4517 223.184 73.4517 200.75 86.467C193.658 90.5162 188.882 95.433 186.276 100.639H183.816V110.039C183.816 118.571 189.461 127.104 200.75 133.611C223.184 146.626 259.803 146.626 282.237 133.611C293.526 127.104 299.171 118.571 299.171 110.039V100.639H299.026Z" fill="#C1C1C1"/>
<path d="M228.974 77.6455C218.553 78.947 208.711 81.9839 200.75 86.6116C193.658 90.6608 188.882 95.5777 186.276 100.784H183.816V110.184C183.816 118.716 189.461 127.248 200.75 133.756C208.855 138.383 218.697 141.42 228.974 142.722V77.6455Z" fill="#D6D6D6"/>
<path d="M282.382 133.467C293.527 126.959 299.171 118.571 299.171 110.039V100.639H296.711C294.54 96.3007 290.632 92.1069 285.132 88.3469H282.382V133.467Z" fill="#A5A5A5"/>
<g opacity="0.4">
<path opacity="0.4" d="M296.131 99.6268C295.408 98.4699 294.539 97.1684 293.671 96.0115V124.211C294.684 123.054 295.408 121.753 296.131 120.596V99.6268Z" fill="#A5A5A5"/>
<path opacity="0.4" d="M200.75 86.6115C197.566 88.3469 194.961 90.3715 192.645 92.3961V127.682C193.369 128.405 194.237 129.128 195.106 129.851V91.5284H199.882V133.033C200.171 133.177 200.461 133.322 200.75 133.611C201.329 133.9 201.908 134.19 202.342 134.479V91.5284H207.119V136.648C207.987 136.937 208.711 137.371 209.579 137.66V91.5284H214.356V139.396C215.224 139.685 215.948 139.83 216.816 140.119V91.5284H221.592V141.276C222.461 141.42 223.184 141.565 224.053 141.709V91.5284H228.829V142.433C229.698 142.577 230.421 142.577 231.29 142.722V91.5284H236.066V143.156C236.935 143.156 237.803 143.3 238.527 143.3V91.5284H243.303V143.3C244.171 143.3 245.04 143.3 245.763 143.156V91.5284H250.54V142.866C251.408 142.722 252.277 142.722 253 142.577V91.5284H257.777V141.999C258.645 141.854 259.513 141.709 260.237 141.565V91.5284H265.013V140.408C265.882 140.263 266.75 139.974 267.474 139.685V91.5284H272.25V138.239C273.119 137.95 273.987 137.66 274.711 137.226V91.5284H279.487V135.202C280.356 134.768 281.224 134.334 281.948 133.9V91.5284H286.724V130.863C287.592 130.285 288.461 129.562 289.185 128.983V91.5284H289.619C287.592 89.793 285.132 88.0577 282.527 86.4669C277.316 83.43 271.237 81.1162 264.869 79.5255H218.698C212.04 81.2608 205.961 83.5746 200.75 86.6115Z" fill="#A5A5A5"/>
<path opacity="0.4" d="M188.013 97.7468C187.29 98.7591 186.711 99.6268 186.276 100.639H185.553V117.848C186.132 119.439 187 120.885 188.013 122.331V97.7468Z" fill="#A5A5A5"/>
</g>
<path d="M282.237 124.211C259.803 137.226 223.185 137.226 200.75 124.211C178.316 111.196 178.316 90.2269 200.75 77.2116C223.185 64.1964 259.803 64.1964 282.237 77.2116C304.672 90.2269 304.672 111.196 282.237 124.211Z" fill="#D6D6D6"/>
<path opacity="0.2" d="M254.303 106.424C270.803 96.8791 275.29 82.9962 267.329 71.1378C245.763 64.7748 218.698 66.944 200.605 77.3562C184.105 86.9008 179.619 100.784 187.579 112.642C209.29 118.86 236.355 116.836 254.303 106.424Z" fill="white"/>
<path opacity="0.7" d="M282.237 124.211C259.803 137.226 223.184 137.226 200.75 124.211C189.895 117.993 184.25 109.75 183.961 101.507C183.527 110.328 189.171 119.15 200.75 125.802C223.184 138.817 259.803 138.817 282.237 125.802C293.816 119.15 299.461 110.184 299.027 101.507C298.737 109.75 293.092 117.848 282.237 124.211Z" fill="white"/>
<path d="M270.369 117.414C254.448 126.67 228.54 126.67 212.474 117.414C196.553 108.159 196.553 93.2638 212.474 84.0085C228.395 74.7532 254.303 74.7532 270.369 84.0085C286.29 93.2638 286.29 108.159 270.369 117.414Z" fill="#A5A5A5"/>
<path d="M212.474 86.1777C228.395 76.9224 254.303 76.9224 270.369 86.1777C277.895 90.5161 281.803 96.1561 282.237 101.796C282.671 95.433 278.764 88.9254 270.369 84.0085C254.448 74.7532 228.54 74.7532 212.474 84.0085C204.079 88.9254 200.027 95.433 200.606 101.796C201.04 96.0115 205.092 90.5161 212.474 86.1777Z" fill="#C1C1C1"/>
<path d="M261.54 89.5038L258.356 90.3715L259.224 90.6608L256.185 92.3961C253.724 91.0946 250.974 90.5161 248.369 90.5161C245.619 90.5161 243.158 91.2392 240.843 92.5407C239.974 93.1192 239.106 93.6977 238.527 94.1315C237.948 94.71 237.514 95.2884 237.369 95.8669C237.079 96.4453 236.935 97.0238 236.935 97.6022C236.935 98.1807 236.935 98.7591 236.935 99.4822L237.369 102.374C237.514 103.242 237.514 103.821 237.514 104.399C237.514 104.978 237.224 105.411 236.79 105.99C236.356 106.568 235.777 107.002 234.908 107.581C233.461 108.448 232.158 108.448 231 107.87C230.132 107.436 229.987 106.713 230.277 105.99C230.711 105.267 231.869 104.254 233.75 103.242V101.073L231 102.085L227.093 100.495C224.777 101.941 223.185 103.387 222.461 104.688L222.027 104.254V106.424C222.027 107.87 223.185 109.316 225.356 110.762L223.764 111.63L221.737 110.618V112.787L223.619 113.799L227.237 111.63C229.553 112.642 232.014 113.221 234.619 113.076C237.224 112.931 239.54 112.353 241.566 111.196C242.579 110.617 243.448 110.039 244.027 109.316C244.606 108.738 245.185 108.014 245.474 107.291C245.764 106.568 245.908 105.99 246.053 105.267C246.053 104.688 246.053 103.965 246.053 103.098L245.764 100.35C245.764 99.7714 245.619 99.3376 245.619 99.193C245.619 98.9038 245.619 98.6145 245.764 98.1807C245.908 97.7468 246.053 97.313 246.343 97.0238C246.632 96.7346 247.066 96.3007 247.645 96.0115C248.224 95.7222 248.948 95.433 249.672 95.2884C250.395 95.1438 251.119 95.2884 251.698 95.5776C251.987 95.7223 252.277 95.8669 252.277 96.0115C252.422 96.1561 252.422 96.3007 252.422 96.3007L249.237 97.0238V99.193L255.75 102.085C256.329 101.796 256.764 101.507 257.198 101.073C257.632 100.784 258.066 100.495 258.5 100.061C258.935 99.6268 259.369 99.193 259.658 98.9038C259.948 98.4699 260.093 98.0361 260.237 97.6022C260.237 97.313 260.382 97.1684 260.382 97.0238V94.9992L259.514 95.1438C259.079 94.5653 258.5 94.1315 257.777 93.6977L261.25 91.6731V89.5038H261.54Z" fill="#C1C1C1"/>
<path d="M221.882 110.617L225.5 108.593C223.04 107.002 221.882 105.411 222.171 103.821C222.461 102.23 224.053 100.495 227.237 98.4699L233.895 101.218C232.013 102.374 230.856 103.242 230.421 103.965C229.987 104.688 230.277 105.267 231.145 105.845C232.303 106.568 233.606 106.424 235.053 105.556C235.921 105.122 236.5 104.544 236.934 103.965C237.369 103.387 237.513 102.808 237.658 102.374C237.658 101.796 237.658 101.218 237.513 100.35L237.079 97.4576C236.934 96.7345 236.934 96.1561 237.079 95.5776C237.079 94.9992 237.224 94.5653 237.513 93.8423C237.803 93.2638 238.092 92.6853 238.671 92.1069C239.25 91.5284 239.974 90.95 240.987 90.5161C243.303 89.2146 245.908 88.4915 248.513 88.4915C251.263 88.4915 253.869 89.07 256.329 90.3715L259.803 88.3469L261.684 89.5038L258.211 91.5284C258.934 91.9623 259.513 92.5407 259.948 92.9746C260.382 93.553 260.671 93.9869 260.671 94.4207C260.816 94.8546 260.816 95.2884 260.671 95.8669C260.527 96.3007 260.382 96.7345 260.092 97.1684C259.803 97.6022 259.513 97.8915 258.934 98.3253C258.5 98.7591 258.066 99.0484 257.632 99.3376C257.198 99.6268 256.763 99.916 256.184 100.35L249.671 97.4576C250.106 97.1684 250.54 96.8791 250.829 96.7345C251.119 96.5899 251.408 96.3007 251.842 96.0115C252.132 95.7222 252.421 95.5776 252.566 95.433C252.711 95.2884 252.856 94.9992 252.856 94.8546C252.856 94.7099 252.856 94.4207 252.711 94.2761C252.566 94.1315 252.421 93.9869 252.132 93.8423C251.553 93.553 250.829 93.4084 250.106 93.553C249.382 93.6976 248.658 93.8423 248.079 94.2761C247.5 94.5653 247.066 94.9992 246.777 95.2884C246.487 95.5776 246.198 96.0115 246.198 96.4453C246.053 96.8792 246.053 97.313 246.053 97.4576C246.053 97.7468 246.053 98.1807 246.198 98.6145L246.487 101.362C246.632 102.085 246.632 102.808 246.487 103.531C246.487 104.11 246.198 104.833 245.908 105.556C245.619 106.279 245.184 106.858 244.461 107.581C243.882 108.159 243.013 108.882 242 109.461C239.974 110.617 237.658 111.196 235.053 111.341C232.448 111.485 229.987 110.907 227.671 109.894L224.053 112.064L221.882 110.617Z" fill="#D6D6D6"/>
<path d="M303.224 83.7193H300.908C298.303 78.5132 293.382 73.7409 286.435 69.5471C264 56.5318 227.382 56.5318 204.948 69.5471C197.856 73.5963 193.079 78.5132 190.474 83.7193H188.158V93.1192C188.158 101.651 193.803 110.184 205.092 116.691C227.527 129.707 264.145 129.707 286.579 116.691C297.869 110.184 303.513 101.651 303.513 93.1192V83.7193H303.224Z" fill="#C1C1C1"/>
<path d="M233.026 60.7256C222.605 62.0272 212.763 65.0641 204.803 69.6917C197.711 73.7409 192.934 78.6578 190.329 83.8639H188.013V93.2638C188.013 101.796 193.658 110.328 204.947 116.836C213.053 121.464 222.895 124.5 233.171 125.802V60.7256H233.026Z" fill="#D6D6D6"/>
<path d="M286.435 116.547C297.579 110.039 303.224 101.651 303.224 93.1192V83.7193H300.908C298.737 79.3808 294.829 75.187 289.329 71.4271H286.579V116.547H286.435Z" fill="#A5A5A5"/>
<g opacity="0.4">
<path opacity="0.4" d="M300.184 82.707C299.46 81.5501 298.592 80.2485 297.724 79.0916V107.291C298.737 106.134 299.46 104.833 300.184 103.676V82.707Z" fill="#A5A5A5"/>
<path opacity="0.4" d="M204.803 69.6917C201.619 71.4271 199.014 73.4516 196.698 75.4762V110.762C197.421 111.485 198.29 112.208 199.158 112.931V74.6086H203.935V116.113C204.224 116.257 204.514 116.402 204.803 116.691C205.382 116.98 205.961 117.27 206.395 117.559V74.6086H211.171V119.728C212.04 120.017 212.764 120.451 213.632 120.74V74.6086H218.408V122.476C219.277 122.765 220 122.91 220.869 123.199V74.6086H225.645V124.356C226.514 124.5 227.237 124.645 228.106 124.79V74.6086H232.882V125.513C233.75 125.657 234.474 125.657 235.343 125.802V74.6086H240.119V126.236C240.987 126.236 241.856 126.38 242.579 126.38V74.6086H247.356V126.38C248.224 126.38 249.092 126.38 249.816 126.236V74.6086H254.592V125.947C255.461 125.802 256.329 125.802 257.053 125.657V74.6086H261.829V125.079C262.698 124.934 263.566 124.79 264.29 124.645V74.6086H269.066V123.488C269.935 123.344 270.803 123.054 271.527 122.765V74.6086H276.303V121.319C277.171 121.03 278.04 120.74 278.764 120.307V74.6086H283.54V118.282C284.408 117.848 285.277 117.414 286 116.98V74.6086H290.777V113.944C291.645 113.365 292.514 112.642 293.237 112.064V74.6086H293.671C291.645 72.8732 289.185 71.1378 286.579 69.5471C281.369 66.5102 275.29 64.1963 268.921 62.6056H222.75C216.092 64.341 210.014 66.6548 204.803 69.6917Z" fill="#A5A5A5"/>
<path opacity="0.4" d="M192.066 80.827C191.342 81.8393 190.763 82.7069 190.329 83.7192H189.605V100.928C190.184 102.519 191.053 103.965 192.066 105.411V80.827Z" fill="#A5A5A5"/>
</g>
<path d="M286.29 107.291C263.855 120.307 227.237 120.307 204.803 107.291C182.368 94.2761 182.368 73.3071 204.803 60.2918C227.237 47.2765 263.855 47.2765 286.29 60.2918C308.868 73.1624 308.868 94.2761 286.29 107.291Z" fill="#D6D6D6"/>
<path opacity="0.2" d="M258.5 89.3592C275 79.8147 279.487 65.9317 271.526 54.0734C249.961 47.7104 222.895 49.8796 204.803 60.2918C188.303 69.8363 183.816 83.7193 191.776 95.5776C213.342 101.941 240.408 99.7714 258.5 89.3592Z" fill="white"/>
<path opacity="0.7" d="M286.29 107.291C263.856 120.307 227.237 120.307 204.803 107.291C193.948 101.073 188.303 92.83 188.014 84.587C187.579 93.4084 193.224 102.23 204.803 108.882C227.237 121.897 263.856 121.897 286.29 108.882C297.869 102.23 303.514 93.2638 303.079 84.587C302.79 92.83 297.145 100.928 286.29 107.291Z" fill="white"/>
<path d="M274.566 100.35C258.645 109.605 232.737 109.605 216.671 100.35C200.75 91.0946 200.75 76.1993 216.671 66.944C232.592 57.6887 258.5 57.6887 274.566 66.944C290.487 76.1993 290.487 91.2392 274.566 100.35Z" fill="#A5A5A5"/>
<path d="M216.671 69.2578C232.592 60.0025 258.5 60.0025 274.566 69.2578C282.092 73.5963 286 79.2362 286.434 84.8762C286.869 78.5131 282.961 72.0055 274.566 67.0886C258.645 57.8333 232.737 57.8333 216.671 67.0886C208.277 72.0055 204.224 78.5131 204.803 84.8762C205.237 79.0916 209.145 73.5963 216.671 69.2578Z" fill="#C1C1C1"/>
<path opacity="0.5" d="M260.816 336.526L216.96 311.219C214.21 309.628 214.644 307.025 217.684 305.145L259.947 280.705C262.987 278.97 267.763 278.681 270.513 280.271L314.368 305.579C317.118 307.17 316.684 309.773 313.644 311.653L271.381 336.092C268.197 337.972 263.566 338.117 260.816 336.526Z" fill="#383838"/>
<path d="M316.25 293.431V278.391H282.382L270.658 271.595C267.908 270.004 263.276 270.293 260.092 272.028L249.092 278.391H215.079V293.865C214.934 294.877 215.658 295.89 216.816 296.613L260.671 321.92C263.421 323.511 268.053 323.222 271.237 321.486L313.5 297.047C315.382 296.034 316.25 294.733 316.25 293.431Z" fill="#646464"/>
<path d="M265.737 270.582C263.71 270.582 261.684 271.161 260.092 272.028L249.092 278.391H215.079V293.865C214.934 294.877 215.658 295.89 216.816 296.613L260.671 321.92C261.974 322.643 263.71 322.933 265.592 322.933V270.582H265.737Z" fill="#646464"/>
<path d="M218.987 278.247H215.079V293.721C214.934 294.733 215.658 295.745 216.816 296.468L218.842 297.625V278.247H218.987Z" fill="#878787"/>
<path d="M261.54 322.209C263.855 323.222 267.184 323.077 269.934 322.065V304.567H261.54V322.209Z" fill="#878787"/>
<path d="M260.816 306.447L216.96 281.139C214.21 279.548 214.644 276.945 217.684 275.065L259.947 250.626C262.987 248.89 267.763 248.601 270.513 250.192L314.368 275.499C317.118 277.09 316.684 279.693 313.644 281.573L271.381 306.013C268.197 307.748 263.566 308.037 260.816 306.447Z" fill="#E7E7E7"/>
<path d="M313.645 278.681L271.382 303.12C268.342 304.856 263.566 305.145 260.816 303.554L216.96 278.247C216.382 277.958 215.947 277.524 215.658 277.09C214.789 278.536 215.224 280.127 216.96 281.284L260.816 306.591C263.566 308.182 268.197 307.893 271.382 306.157L313.645 281.718C316.105 280.271 316.829 278.391 315.671 276.801C315.237 277.379 314.658 278.102 313.645 278.681Z" fill="white"/>
<path d="M300.04 297.481C300.04 298.637 299.316 299.939 298.303 300.517C297.29 301.096 296.566 300.662 296.566 299.505C296.566 298.348 297.29 297.047 298.303 296.468C299.316 295.89 300.04 296.324 300.04 297.481Z" fill="#E7E7E7"/>
<path d="M305.829 294.154C305.829 295.311 305.105 296.613 304.092 297.191C303.079 297.77 302.355 297.336 302.355 296.179C302.355 295.022 303.079 293.721 304.092 293.142C304.961 292.564 305.829 292.998 305.829 294.154Z" fill="#E7E7E7"/>
<path d="M311.474 290.828C311.474 291.985 310.75 293.287 309.737 293.865C308.724 294.444 308 294.01 308 292.853C308 291.696 308.724 290.394 309.737 289.816C310.605 289.238 311.474 289.816 311.474 290.828Z" fill="#E7E7E7"/>
<path d="M263.421 290.828L242.869 278.97C241.566 278.247 241.711 276.945 243.158 276.078L262.987 264.653C264.434 263.785 266.605 263.785 267.908 264.508L288.461 276.367C289.763 277.09 289.619 278.391 288.171 279.259L268.342 290.684C266.895 291.407 264.724 291.551 263.421 290.828Z" fill="#878787"/>
<path d="M265.303 280.85L262.408 279.259C262.263 279.115 262.263 278.97 262.408 278.825L265.158 277.235C265.303 277.09 265.592 277.09 265.882 277.235L268.776 278.825C268.921 278.97 268.921 279.115 268.776 279.259L266.026 280.85C265.882 280.995 265.592 280.995 265.303 280.85Z" fill="#E7E7E7"/>
<path d="M242.869 278.97C243.014 278.97 243.158 278.825 243.158 278.825L262.987 267.401C264.435 266.533 266.606 266.533 267.908 267.256L288.316 279.115C289.474 278.247 289.474 277.09 288.316 276.511L267.764 264.653C266.461 263.93 264.29 264.075 262.842 264.798L243.014 276.222C241.856 276.945 241.711 278.247 242.869 278.97Z" fill="#646464"/>
<path opacity="0.5" d="M407.421 411.132L339.974 372.231C337.513 370.785 337.803 368.327 340.698 366.736L412.198 325.376C415.092 323.785 419.434 323.496 421.895 324.942L489.342 363.844C491.803 365.29 491.513 367.748 488.619 369.339L417.119 410.698C414.224 412.289 409.882 412.434 407.421 411.132Z" fill="#575757"/>
<path d="M490.789 337.813L418.566 296.164C415.816 294.573 413.5 290.235 413.5 286.475V113.95C413.5 110.19 415.816 108.455 418.566 110.046L490.789 151.695C493.539 153.285 495.855 157.624 495.855 161.384V333.908C496 337.668 493.684 339.404 490.789 337.813Z" fill="url(#paint0_linear_735_782)"/>
<path d="M490.79 151.695L418.566 110.046C417.263 109.323 416.105 109.323 415.237 109.757L333.026 157.335L336.934 171.651L412.053 385.391L494.118 338.102L494.263 337.958C495.276 337.379 496 335.933 496 333.908V161.528C496 157.768 493.684 153.43 490.79 151.695Z" fill="#646464"/>
<path d="M490.79 151.695L418.566 110.046C417.263 109.323 416.105 109.323 415.237 109.757L333.026 157.335L336.934 171.651L357.632 230.365L361.54 232.679L494.553 155.888C493.54 154.153 492.237 152.562 490.79 151.695Z" fill="#E7E7E7"/>
<path d="M408.579 385.246L336.355 343.598C333.605 342.007 331.29 337.668 331.29 333.908V161.384C331.29 157.624 333.605 155.888 336.355 157.479L408.579 199.128C411.329 200.719 413.645 205.057 413.645 208.817V381.342C413.645 385.246 411.329 386.837 408.579 385.246Z" fill="#878787"/>
<path d="M403.948 374.834L340.842 338.536C338.382 337.09 336.355 333.33 336.355 330.004V169.771C336.355 166.445 338.382 164.999 340.842 166.445L403.948 202.888C406.408 204.334 408.434 208.094 408.434 211.42V371.653C408.434 374.834 406.408 376.28 403.948 374.834Z" fill="url(#paint1_linear_735_782)"/>
<path d="M403.948 374.834L340.842 338.536C338.382 337.09 336.355 333.33 336.355 330.004V169.771C336.355 166.445 338.382 164.999 340.842 166.445L403.948 202.888C406.408 204.334 408.434 208.094 408.434 211.42V371.653C408.434 374.834 406.408 376.28 403.948 374.834Z" fill="url(#paint2_linear_735_782)"/>
<path d="M403.948 374.834L340.842 338.536C338.382 337.09 336.355 333.33 336.355 330.004V169.771C336.355 166.445 338.382 164.999 340.842 166.445L403.948 202.888C406.408 204.334 408.434 208.094 408.434 211.42V371.653C408.434 374.834 406.408 376.28 403.948 374.834Z" fill="#575757"/>
<path d="M406.119 373.677L343.013 337.235C340.553 335.788 338.527 332.028 338.527 328.702V168.615C338.527 167.458 338.816 166.59 339.105 166.011C337.513 166.011 336.355 167.458 336.355 169.916V330.148C336.355 333.475 338.382 337.235 340.842 338.681L403.948 375.123C405.54 375.991 406.987 375.702 407.711 374.4C407.277 374.256 406.698 374.111 406.119 373.677Z" fill="#646464"/>
<path d="M403.948 301.37L380.5 287.776L343.158 309.324L408.435 346.924V309.758C408.435 306.576 406.408 302.816 403.948 301.37Z" fill="#575757"/>
<path d="M403.948 268.543L380.5 254.949L343.158 276.497L408.435 314.096V276.93C408.435 273.749 406.408 269.844 403.948 268.543Z" fill="#575757"/>
<path d="M403.948 235.715L380.5 222.122L343.158 243.669L408.435 281.269V244.103C408.435 240.922 406.408 237.017 403.948 235.715Z" fill="#575757"/>
<path d="M403.948 202.888L380.5 189.294L343.158 210.842L408.435 248.441V211.276C408.435 208.094 406.408 204.19 403.948 202.888Z" fill="#575757"/>
<path d="M403.948 202.888L351.987 172.953L343.158 178.014L408.435 215.614V211.276C408.435 208.094 406.408 204.19 403.948 202.888Z" fill="#575757"/>
<path d="M408.435 215.759L343.158 178.014V198.839L408.435 236.439V215.759Z" fill="#878787"/>
<path d="M408.435 248.586L343.158 210.842V231.666L408.435 269.266V248.586Z" fill="#878787"/>
<path d="M408.435 281.414L343.158 243.669V264.494L408.435 302.093V281.414Z" fill="#878787"/>
<path d="M408.435 314.241L343.158 276.497V297.321L408.435 334.921V314.241Z" fill="#878787"/>
<path d="M408.435 347.068L343.158 309.324V330.148L408.435 367.748V347.068Z" fill="#878787"/>
<path d="M402.645 229.063L353.434 200.719C351.987 199.851 350.974 197.827 350.974 195.947V190.451C350.974 188.571 352.132 187.704 353.434 188.571L402.645 216.916C404.092 217.783 405.105 219.808 405.105 221.688V227.183C405.25 229.063 404.092 229.786 402.645 229.063Z" fill="#575757"/>
<path opacity="0.3" d="M356.039 199.562C354.592 198.694 353.579 196.67 353.579 194.79V189.294C353.579 189.005 353.579 188.716 353.724 188.427C352.276 187.559 351.263 188.427 351.263 190.307V195.802C351.263 197.682 352.421 199.851 353.724 200.574L402.934 228.919C404.092 229.642 405.105 229.063 405.395 227.762L356.039 199.562Z" fill="#A0A0A0"/>
<path d="M387.303 213.879L357.632 196.814C357.197 196.525 356.763 195.802 356.763 195.079C356.763 194.5 357.197 194.067 357.632 194.356L387.158 211.42C387.592 211.71 388.026 212.433 388.026 213.156C388.171 213.734 387.737 214.168 387.303 213.879Z" fill="white"/>
<path d="M402.645 261.746L353.434 233.402C351.987 232.534 350.974 230.509 350.974 228.629V223.134C350.974 221.254 352.132 220.386 353.434 221.254L402.645 249.598C404.092 250.466 405.105 252.491 405.105 254.371V259.866C405.25 261.601 404.092 262.469 402.645 261.746Z" fill="#575757"/>
<path opacity="0.3" d="M356.039 232.245C354.592 231.377 353.579 229.352 353.579 227.472V221.977C353.579 221.688 353.579 221.399 353.724 221.109C352.276 220.242 351.263 221.109 351.263 222.989V228.485C351.263 230.365 352.421 232.534 353.724 233.257L402.934 261.601C404.092 262.324 405.105 261.746 405.395 260.444L356.039 232.245Z" fill="#A0A0A0"/>
<path d="M387.303 246.417L357.632 229.352C357.197 229.063 356.763 228.34 356.763 227.617C356.763 227.039 357.197 226.605 357.632 226.894L387.158 243.959C387.592 244.248 388.026 244.971 388.026 245.694C388.171 246.417 387.737 246.706 387.303 246.417Z" fill="white"/>
<path d="M402.645 294.573L353.434 266.229C351.987 265.361 350.974 263.337 350.974 261.457V255.961C350.974 254.081 352.132 253.214 353.434 254.081L402.645 282.426C404.092 283.293 405.105 285.318 405.105 287.198V292.693C405.25 294.573 404.092 295.441 402.645 294.573Z" fill="#575757"/>
<path opacity="0.3" d="M356.039 265.217C354.592 264.349 353.579 262.324 353.579 260.444V254.949C353.579 254.66 353.579 254.371 353.724 254.081C352.276 253.214 351.263 254.081 351.263 255.961V261.457C351.263 263.337 352.421 265.506 353.724 266.229L402.934 294.573C404.092 295.296 405.105 294.718 405.395 293.416L356.039 265.217Z" fill="#A0A0A0"/>
<path d="M387.303 279.389L357.632 262.324C357.197 262.035 356.763 261.312 356.763 260.589C356.763 260.011 357.197 259.577 357.632 259.866L387.158 276.931C387.592 277.22 388.026 277.943 388.026 278.666C388.171 279.389 387.737 279.678 387.303 279.389Z" fill="#E7E7E7"/>
<path d="M402.645 327.835L353.434 299.49C351.987 298.623 350.974 296.598 350.974 294.718V289.223C350.974 287.343 352.132 286.475 353.434 287.343L402.645 315.687C404.092 316.555 405.105 318.579 405.105 320.459V325.955C405.25 327.835 404.092 328.702 402.645 327.835Z" fill="#575757"/>
<path opacity="0.3" d="M356.039 298.478C354.592 297.61 353.579 295.586 353.579 293.706V288.21C353.579 287.921 353.579 287.632 353.724 287.343C352.276 286.475 351.263 287.343 351.263 289.223V294.718C351.263 296.598 352.421 298.767 353.724 299.49L402.934 327.835C404.092 328.558 405.105 327.979 405.395 326.678L356.039 298.478Z" fill="#A0A0A0"/>
<path d="M387.303 312.65L357.632 295.586C357.197 295.296 356.763 294.573 356.763 293.85C356.763 293.272 357.197 292.838 357.632 293.127L387.158 310.192C387.592 310.481 388.026 311.204 388.026 311.927C388.171 312.65 387.737 312.939 387.303 312.65Z" fill="#787878"/>
<path d="M402.645 360.373L353.434 332.028C351.987 331.161 350.974 329.136 350.974 327.256V321.761C350.974 319.881 352.132 319.013 353.434 319.881L402.645 348.225C404.092 349.093 405.105 351.118 405.105 352.997V358.493C405.25 360.373 404.092 361.24 402.645 360.373Z" fill="#575757"/>
<path opacity="0.3" d="M356.039 331.016C354.592 330.148 353.579 328.124 353.579 326.244V320.749C353.579 320.459 353.579 320.17 353.724 319.881C352.276 319.013 351.263 319.881 351.263 321.761V327.256C351.263 329.136 352.421 331.305 353.724 332.028L402.934 360.373C404.092 361.096 405.105 360.517 405.395 359.216L356.039 331.016Z" fill="#A0A0A0"/>
<path d="M387.303 345.188L357.632 328.124C357.197 327.835 356.763 327.112 356.763 326.388C356.763 325.81 357.197 325.376 357.632 325.665L387.158 342.73C387.592 343.019 388.026 343.742 388.026 344.465C388.171 345.188 387.737 345.478 387.303 345.188Z" fill="#E7E7E7"/>
<path opacity="0.5" d="M343.158 178.014L348.224 181.051V201.731L343.158 198.839V178.014Z" fill="#575757"/>
<path opacity="0.5" d="M343.158 210.842L348.224 213.879V234.559L343.158 231.666V210.842Z" fill="#575757"/>
<path opacity="0.5" d="M343.158 243.669L348.224 246.706V267.386L343.158 264.494V243.669Z" fill="#575757"/>
<path opacity="0.5" d="M343.158 276.497L348.224 279.534V300.213L343.158 297.321V276.497Z" fill="#575757"/>
<path opacity="0.5" d="M343.158 309.324L348.224 312.361V333.041L343.158 330.148V309.324Z" fill="#575757"/>
<path d="M393.092 215.903C393.092 216.626 392.658 216.771 392.079 216.482C391.5 216.193 391.066 215.325 391.066 214.746C391.066 214.023 391.5 213.879 392.079 214.168C392.658 214.457 393.092 215.18 393.092 215.903Z" fill="#E7E7E7"/>
<path d="M397.435 218.362C397.435 219.085 397 219.229 396.421 218.94C395.842 218.651 395.408 217.783 395.408 217.205C395.408 216.482 395.842 216.337 396.421 216.626C397 216.916 397.435 217.783 397.435 218.362Z" fill="#787878"/>
<path d="M401.921 220.965C401.921 221.688 401.487 221.833 400.908 221.543C400.329 221.254 399.895 220.386 399.895 219.808C399.895 219.085 400.329 218.94 400.908 219.23C401.487 219.519 401.921 220.242 401.921 220.965Z" fill="#E7E7E7"/>
<path d="M393.092 248.731C393.092 249.454 392.658 249.598 392.079 249.309C391.5 249.02 391.066 248.152 391.066 247.574C391.066 246.851 391.5 246.706 392.079 246.995C392.658 247.285 393.092 248.008 393.092 248.731Z" fill="#787878"/>
<path d="M397.435 251.189C397.435 251.912 397 252.057 396.421 251.768C395.842 251.478 395.408 250.611 395.408 250.032C395.408 249.309 395.842 249.165 396.421 249.454C397 249.743 397.435 250.611 397.435 251.189Z" fill="#E7E7E7"/>
<path d="M401.921 253.792C401.921 254.515 401.487 254.66 400.908 254.371C400.329 254.081 399.895 253.214 399.895 252.635C399.895 251.912 400.329 251.768 400.908 252.057C401.487 252.346 401.921 253.069 401.921 253.792Z" fill="white"/>
<path d="M393.092 281.703C393.092 282.426 392.658 282.57 392.079 282.281C391.5 281.992 391.066 281.124 391.066 280.546C391.066 279.823 391.5 279.678 392.079 279.967C392.658 280.257 393.092 281.124 393.092 281.703Z" fill="white"/>
<path d="M397.435 284.306C397.435 285.029 397 285.174 396.421 284.884C395.842 284.595 395.408 283.727 395.408 283.149C395.408 282.426 395.842 282.281 396.421 282.57C397 282.86 397.435 283.583 397.435 284.306Z" fill="#787878"/>
<path d="M401.921 286.909C401.921 287.632 401.487 287.777 400.908 287.487C400.329 287.198 399.895 286.33 399.895 285.752C399.895 285.174 400.329 284.884 400.908 285.174C401.487 285.318 401.921 286.186 401.921 286.909Z" fill="white"/>
<path d="M393.092 314.386C393.092 315.109 392.658 315.253 392.079 314.964C391.5 314.675 391.066 313.807 391.066 313.229C391.066 312.65 391.5 312.361 392.079 312.65C392.658 312.939 393.092 313.662 393.092 314.386Z" fill="white"/>
<path d="M397.435 316.844C397.435 317.567 397 317.712 396.421 317.422C395.842 317.133 395.408 316.265 395.408 315.687C395.408 315.109 395.842 314.819 396.421 315.109C397 315.398 397.435 316.265 397.435 316.844Z" fill="#E7E7E7"/>
<path d="M401.921 319.447C401.921 320.17 401.487 320.315 400.908 320.025C400.329 319.736 399.895 318.869 399.895 318.29C399.895 317.567 400.329 317.422 400.908 317.712C401.487 318.001 401.921 318.724 401.921 319.447Z" fill="#E7E7E7"/>
<path d="M393.092 347.358C393.092 348.081 392.658 348.225 392.079 347.936C391.5 347.647 391.066 346.779 391.066 346.201C391.066 345.478 391.5 345.333 392.079 345.622C392.658 345.911 393.092 346.634 393.092 347.358Z" fill="white"/>
<path d="M397.435 349.961C397.435 350.684 397 350.828 396.421 350.539C395.842 350.25 395.408 349.382 395.408 348.804C395.408 348.081 395.842 347.936 396.421 348.225C397 348.514 397.435 349.238 397.435 349.961Z" fill="#787878"/>
<path d="M401.921 352.419C401.921 353.142 401.487 353.287 400.908 352.997C400.329 352.708 399.895 351.841 399.895 351.262C399.895 350.539 400.329 350.394 400.908 350.684C401.487 350.973 401.921 351.841 401.921 352.419Z" fill="#E7E7E7"/>
<path d="M424.5 361.964V215.036L424.789 214.891L486.303 179.461V326.388L486.013 326.533L424.5 361.964ZM425.658 215.759V359.939L485 325.665V181.485L425.658 215.759Z" fill="#383838"/>
<defs>
<linearGradient id="paint0_linear_735_782" x1="454.771" y1="317.022" x2="535.312" y2="177.407" gradientUnits="userSpaceOnUse">
<stop stop-color="#202020"/>
<stop offset="1" stop-color="#393939"/>
</linearGradient>
<linearGradient id="paint1_linear_735_782" x1="333.682" y1="260.006" x2="399.305" y2="249.841" gradientUnits="userSpaceOnUse">
<stop stop-color="#8A8A8A"/>
<stop offset="1" stop-color="#3E3E3E"/>
</linearGradient>
<linearGradient id="paint2_linear_735_782" x1="333.682" y1="260.006" x2="399.305" y2="249.841" gradientUnits="userSpaceOnUse">
<stop stop-color="#8A8A8A"/>
<stop offset="1" stop-color="#3E3E3E"/>
</linearGradient>
</defs>
</svg>
