<svg width="456" height="230" viewBox="0 0 456 230" fill="none" xmlns="http://www.w3.org/2000/svg">
<rect width="50" height="50" fill="#404040"/>
<path d="M25.3093 32.104H28.5093C29.5759 32.104 30.3973 31.7947 30.9733 31.176C31.5493 30.5573 31.8373 29.704 31.8373 28.616V16.808C31.8373 15.72 31.5493 14.8667 30.9733 14.248C30.3973 13.6293 29.5759 13.32 28.5093 13.32H25.3093C24.2426 13.32 23.4213 13.6293 22.8453 14.248C22.2693 14.8667 21.9813 15.72 21.9813 16.808V28.616C21.9813 29.704 22.2693 30.5573 22.8453 31.176C23.4213 31.7947 24.2426 32.104 25.3093 32.104ZM28.5093 33H25.3093C24.0079 33 22.9626 32.6053 22.1733 31.816C21.4053 31.0267 21.0213 29.9707 21.0213 28.648V16.776C21.0213 15.4533 21.4053 14.3973 22.1733 13.608C22.9626 12.8187 24.0079 12.424 25.3093 12.424H28.5093C29.8106 12.424 30.8453 12.8187 31.6133 13.608C32.4026 14.3973 32.7973 15.4533 32.7973 16.776V28.648C32.7973 29.9707 32.4026 31.0267 31.6133 31.816C30.8453 32.6053 29.8106 33 28.5093 33ZM36.3113 15.784V15.592C36.3113 15.3147 36.4286 15.112 36.6633 14.984L40.9833 12.584C41.1966 12.4773 41.3673 12.424 41.4953 12.424H41.8793C42.0499 12.424 42.1353 12.52 42.1353 12.712V32.712C42.1353 32.904 42.0499 33 41.8793 33H41.4313C41.2606 33 41.1753 32.904 41.1753 32.712V13.48L36.8233 15.944C36.4819 16.1787 36.3113 16.1253 36.3113 15.784Z" fill="white"/>
<rect y="60" width="50" height="50" fill="#404040"/>
<path d="M20.1218 92.104H23.3218C24.3884 92.104 25.2098 91.7947 25.7858 91.176C26.3618 90.5573 26.6498 89.704 26.6498 88.616V76.808C26.6498 75.72 26.3618 74.8667 25.7858 74.248C25.2098 73.6293 24.3884 73.32 23.3218 73.32H20.1218C19.0551 73.32 18.2338 73.6293 17.6578 74.248C17.0818 74.8667 16.7938 75.72 16.7938 76.808V88.616C16.7938 89.704 17.0818 90.5573 17.6578 91.176C18.2338 91.7947 19.0551 92.104 20.1218 92.104ZM23.3218 93H20.1218C18.8204 93 17.7751 92.6053 16.9858 91.816C16.2178 91.0267 15.8338 89.9707 15.8338 88.648V76.776C15.8338 75.4533 16.2178 74.3973 16.9858 73.608C17.7751 72.8187 18.8204 72.424 20.1218 72.424H23.3218C24.6231 72.424 25.6578 72.8187 26.4258 73.608C27.2151 74.3973 27.6098 75.4533 27.6098 76.776V88.648C27.6098 89.9707 27.2151 91.0267 26.4258 91.816C25.6578 92.6053 24.6231 93 23.3218 93ZM31.8918 92.744V89.992C31.8918 88.392 32.5638 87.112 33.9078 86.152L40.3078 81.384C41.4384 80.552 42.0038 79.432 42.0038 78.024V76.712C42.0038 75.624 41.7158 74.792 41.1398 74.216C40.5638 73.6187 39.7424 73.32 38.6758 73.32H36.0518C34.9851 73.32 34.1638 73.6187 33.5878 74.216C33.0118 74.792 32.7238 75.624 32.7238 76.712V78.248C32.7238 78.44 32.6384 78.536 32.4678 78.536H32.0198C31.8491 78.536 31.7638 78.44 31.7638 78.248V76.68C31.7638 75.3573 32.1478 74.3227 32.9158 73.576C33.7051 72.808 34.7504 72.424 36.0518 72.424H38.6758C39.9771 72.424 41.0118 72.808 41.7798 73.576C42.5691 74.3227 42.9638 75.3573 42.9638 76.68V78.056C42.9638 79.72 42.2811 81.0533 40.9158 82.056L34.4518 86.888C33.3851 87.6987 32.8518 88.6907 32.8518 89.864V92.104H42.8038C42.9958 92.104 43.0918 92.1893 43.0918 92.36V92.744C43.0918 92.9147 42.9958 93 42.8038 93H32.1798C31.9878 93 31.8918 92.9147 31.8918 92.744Z" fill="white"/>
<rect y="120" width="50" height="50" fill="#404040"/>
<path d="M19.4968 152.104H22.6968C23.7634 152.104 24.5848 151.795 25.1608 151.176C25.7368 150.557 26.0248 149.704 26.0248 148.616V136.808C26.0248 135.72 25.7368 134.867 25.1608 134.248C24.5848 133.629 23.7634 133.32 22.6968 133.32H19.4968C18.4301 133.32 17.6088 133.629 17.0328 134.248C16.4568 134.867 16.1688 135.72 16.1688 136.808V148.616C16.1688 149.704 16.4568 150.557 17.0328 151.176C17.6088 151.795 18.4301 152.104 19.4968 152.104ZM22.6968 153H19.4968C18.1954 153 17.1501 152.605 16.3608 151.816C15.5928 151.027 15.2088 149.971 15.2088 148.648V136.776C15.2088 135.453 15.5928 134.397 16.3608 133.608C17.1501 132.819 18.1954 132.424 19.4968 132.424H22.6968C23.9981 132.424 25.0328 132.819 25.8008 133.608C26.5901 134.397 26.9848 135.453 26.9848 136.776V148.648C26.9848 149.971 26.5901 151.027 25.8008 151.816C25.0328 152.605 23.9981 153 22.6968 153ZM36.4828 142.184H38.4668C39.5334 142.184 40.3548 141.896 40.9308 141.32C41.5068 140.723 41.7948 139.88 41.7948 138.792V136.712C41.7948 135.624 41.5068 134.792 40.9308 134.216C40.3548 133.619 39.5334 133.32 38.4668 133.32H35.7468C34.6801 133.32 33.8588 133.619 33.2828 134.216C32.7068 134.792 32.4188 135.624 32.4188 136.712V137.928C32.4188 138.12 32.3334 138.216 32.1628 138.216H31.7148C31.5441 138.216 31.4588 138.12 31.4588 137.928V136.68C31.4588 135.357 31.8428 134.323 32.6108 133.576C33.4001 132.808 34.4454 132.424 35.7468 132.424H38.4668C39.7681 132.424 40.8028 132.808 41.5708 133.576C42.3601 134.323 42.7548 135.357 42.7548 136.68V138.824C42.7548 140.829 41.8588 142.099 40.0668 142.632C41.8588 143.101 42.7548 144.371 42.7548 146.44V148.744C42.7548 150.067 42.3601 151.112 41.5708 151.88C40.8028 152.627 39.7681 153 38.4668 153H35.7468C34.4454 153 33.4001 152.627 32.6108 151.88C31.8428 151.112 31.4588 150.067 31.4588 148.744V147.144C31.4588 146.952 31.5441 146.856 31.7148 146.856H32.1628C32.3334 146.856 32.4188 146.952 32.4188 147.144V148.712C32.4188 149.8 32.7068 150.643 33.2828 151.24C33.8588 151.816 34.6801 152.104 35.7468 152.104H38.4668C39.5334 152.104 40.3548 151.816 40.9308 151.24C41.5068 150.643 41.7948 149.8 41.7948 148.712V146.472C41.7948 145.384 41.5068 144.552 40.9308 143.976C40.3548 143.379 39.5334 143.08 38.4668 143.08H36.4828C36.2908 143.08 36.1948 142.995 36.1948 142.824V142.44C36.1948 142.269 36.2908 142.184 36.4828 142.184Z" fill="white"/>
<rect y="180" width="50" height="50" fill="#404040"/>
<path d="M18.8093 212.104H22.0093C23.0759 212.104 23.8973 211.795 24.4733 211.176C25.0493 210.557 25.3373 209.704 25.3373 208.616V196.808C25.3373 195.72 25.0493 194.867 24.4733 194.248C23.8973 193.629 23.0759 193.32 22.0093 193.32H18.8093C17.7426 193.32 16.9213 193.629 16.3453 194.248C15.7693 194.867 15.4813 195.72 15.4813 196.808V208.616C15.4813 209.704 15.7693 210.557 16.3453 211.176C16.9213 211.795 17.7426 212.104 18.8093 212.104ZM22.0093 213H18.8093C17.5079 213 16.4626 212.605 15.6733 211.816C14.9053 211.027 14.5213 209.971 14.5213 208.648V196.776C14.5213 195.453 14.9053 194.397 15.6733 193.608C16.4626 192.819 17.5079 192.424 18.8093 192.424H22.0093C23.3106 192.424 24.3453 192.819 25.1133 193.608C25.9026 194.397 26.2973 195.453 26.2973 196.776V208.648C26.2973 209.971 25.9026 211.027 25.1133 211.816C24.3453 212.605 23.3106 213 22.0093 213ZM40.0513 207.784V193.128L31.2193 207.784H40.0513ZM40.7553 213H40.3073C40.1366 213 40.0513 212.904 40.0513 212.712V208.68H30.4193C30.2273 208.68 30.1313 208.595 30.1313 208.424V208.04C30.1313 207.891 30.1953 207.72 30.3233 207.528L39.2193 192.776C39.3473 192.541 39.5499 192.424 39.8273 192.424H40.7553C40.9259 192.424 41.0113 192.52 41.0113 192.712V207.784H43.4433C43.6353 207.784 43.7313 207.869 43.7313 208.04V208.424C43.7313 208.595 43.6353 208.68 43.4433 208.68H41.0113V212.712C41.0113 212.904 40.9259 213 40.7553 213Z" fill="white"/>
<path d="M68.544 16.568H70.56C70.896 16.568 71.064 16.728 71.064 17.048V28.088C71.064 29.336 70.72 30.304 70.032 30.992C69.344 31.664 68.376 32 67.128 32H64.728C63.464 32 62.488 31.664 61.8 30.992C61.112 30.32 60.768 29.352 60.768 28.088V25.832C60.768 25.496 60.936 25.328 61.272 25.328H63.312C63.648 25.328 63.816 25.496 63.816 25.832V27.944C63.816 28.456 63.92 28.824 64.128 29.048C64.352 29.256 64.712 29.36 65.208 29.36H66.624C67.136 29.36 67.496 29.256 67.704 29.048C67.912 28.824 68.016 28.456 68.016 27.944V17.072C68.016 16.736 68.192 16.568 68.544 16.568ZM79.6916 32H77.5556C76.2916 32 75.3156 31.664 74.6276 30.992C73.9396 30.32 73.5956 29.352 73.5956 28.088V23.672C73.5956 22.408 73.9396 21.44 74.6276 20.768C75.3156 20.096 76.2916 19.76 77.5556 19.76H79.6916C80.9396 19.76 81.9076 20.104 82.5956 20.792C83.2996 21.464 83.6516 22.424 83.6516 23.672V28.088C83.6516 29.336 83.2996 30.304 82.5956 30.992C81.9076 31.664 80.9396 32 79.6916 32ZM78.0116 29.384H79.2356C79.7476 29.384 80.1076 29.28 80.3156 29.072C80.5396 28.864 80.6516 28.504 80.6516 27.992V23.768C80.6516 23.256 80.5396 22.896 80.3156 22.688C80.1076 22.48 79.7476 22.376 79.2356 22.376H78.0116C77.4996 22.376 77.1396 22.48 76.9316 22.688C76.7236 22.896 76.6196 23.256 76.6196 23.768V27.992C76.6196 28.504 76.7236 28.864 76.9316 29.072C77.1396 29.28 77.4996 29.384 78.0116 29.384ZM86.1666 17.696V15.608C86.1666 15.288 86.3266 15.128 86.6466 15.128H88.7346C89.0546 15.128 89.2146 15.28 89.2146 15.584V17.696C89.2146 18.016 89.0546 18.176 88.7346 18.176H86.6466C86.3266 18.176 86.1666 18.016 86.1666 17.696ZM86.1666 31.496V20.264C86.1666 19.928 86.3266 19.76 86.6466 19.76H88.7106C89.0466 19.76 89.2146 19.928 89.2146 20.264V31.496C89.2146 31.704 89.1746 31.84 89.0946 31.904C89.0306 31.968 88.9106 32 88.7346 32H86.6706C86.3346 32 86.1666 31.832 86.1666 31.496ZM94.5203 32H92.4803C92.1443 32 91.9763 31.832 91.9763 31.496V20.264C91.9763 19.928 92.1443 19.76 92.4803 19.76H94.5203C94.8563 19.76 95.0243 19.928 95.0243 20.264V21.056H95.1203C95.4723 20.192 96.2563 19.76 97.4723 19.76H98.2403C100.752 19.76 102.008 21.064 102.008 23.672V31.496C102.008 31.832 101.832 32 101.48 32H99.4643C99.1283 32 98.9603 31.832 98.9603 31.496V23.816C98.9603 23.304 98.8483 22.944 98.6243 22.736C98.4163 22.512 98.0563 22.4 97.5443 22.4H96.6803C95.5763 22.4 95.0243 23.008 95.0243 24.224V31.496C95.0243 31.832 94.8563 32 94.5203 32ZM115.668 32H113.532C112.268 32 111.292 31.664 110.604 30.992C109.916 30.32 109.572 29.352 109.572 28.088V23.672C109.572 22.408 109.916 21.44 110.604 20.768C111.292 20.096 112.268 19.76 113.532 19.76H115.668C116.916 19.76 117.884 20.104 118.572 20.792C119.276 21.464 119.628 22.424 119.628 23.672V28.088C119.628 29.336 119.276 30.304 118.572 30.992C117.884 31.664 116.916 32 115.668 32ZM113.988 29.384H115.212C115.724 29.384 116.084 29.28 116.292 29.072C116.516 28.864 116.628 28.504 116.628 27.992V23.768C116.628 23.256 116.516 22.896 116.292 22.688C116.084 22.48 115.724 22.376 115.212 22.376H113.988C113.476 22.376 113.116 22.48 112.908 22.688C112.7 22.896 112.596 23.256 112.596 23.768V27.992C112.596 28.504 112.7 28.864 112.908 29.072C113.116 29.28 113.476 29.384 113.988 29.384ZM126.439 32H125.647C124.415 32 123.479 31.664 122.839 30.992C122.215 30.32 121.903 29.352 121.903 28.088V20.264C121.903 19.928 122.071 19.76 122.407 19.76H124.447C124.783 19.76 124.951 19.928 124.951 20.264V27.944C124.951 28.456 125.055 28.824 125.263 29.048C125.487 29.256 125.847 29.36 126.343 29.36H127.231C128.335 29.36 128.887 28.752 128.887 27.536V20.264C128.887 19.928 129.055 19.76 129.391 19.76H131.407C131.759 19.76 131.935 19.928 131.935 20.264V31.496C131.935 31.832 131.759 32 131.407 32H129.391C129.055 32 128.887 31.832 128.887 31.496V30.704H128.791C128.615 31.136 128.303 31.464 127.855 31.688C127.407 31.896 126.935 32 126.439 32ZM137.13 32H135.09C134.754 32 134.586 31.832 134.586 31.496V20.264C134.586 19.928 134.754 19.76 135.09 19.76H137.13C137.466 19.76 137.634 19.928 137.634 20.264V21.08H137.73C137.906 20.648 138.218 20.32 138.666 20.096C139.114 19.872 139.586 19.76 140.082 19.76H140.946C141.266 19.76 141.426 19.928 141.426 20.264V21.92C141.426 22.112 141.386 22.248 141.306 22.328C141.242 22.392 141.122 22.416 140.946 22.4H139.29C138.186 22.4 137.634 23.024 137.634 24.272V31.496C137.634 31.832 137.466 32 137.13 32ZM151.778 29.456H154.466C154.994 29.456 155.37 29.352 155.594 29.144C155.834 28.92 155.954 28.56 155.954 28.064V26.672C155.954 26.176 155.834 25.824 155.594 25.616C155.354 25.408 154.962 25.304 154.418 25.304H151.778C151.602 25.304 151.514 25.392 151.514 25.568V29.192C151.514 29.368 151.602 29.456 151.778 29.456ZM151.778 22.832H154.226C154.738 22.832 155.114 22.728 155.354 22.52C155.594 22.296 155.714 21.936 155.714 21.44V20.504C155.714 20.008 155.594 19.656 155.354 19.448C155.13 19.224 154.762 19.112 154.25 19.112H151.778C151.602 19.112 151.514 19.2 151.514 19.376V22.568C151.514 22.744 151.602 22.832 151.778 22.832ZM148.466 31.496V17.072C148.466 16.736 148.634 16.568 148.97 16.568H154.73C155.994 16.568 156.97 16.904 157.658 17.576C158.346 18.248 158.69 19.208 158.69 20.456V21.44C158.69 22.8 158.058 23.68 156.794 24.08C157.434 24.176 157.946 24.44 158.33 24.872C158.714 25.288 158.906 25.888 158.906 26.672V28.112C158.906 29.36 158.562 30.32 157.874 30.992C157.186 31.664 156.218 32 154.97 32H148.97C148.634 32 148.466 31.832 148.466 31.496ZM165.835 32H165.259C163.995 32 163.019 31.664 162.331 30.992C161.643 30.32 161.299 29.352 161.299 28.088V23.672C161.299 22.408 161.643 21.44 162.331 20.768C163.019 20.096 163.995 19.76 165.259 19.76H170.803C171.155 19.76 171.331 19.928 171.331 20.264V31.496C171.331 31.832 171.155 32 170.803 32H168.787C168.451 32 168.283 31.832 168.283 31.496V30.704H168.187C168.011 31.136 167.699 31.464 167.251 31.688C166.803 31.896 166.331 32 165.835 32ZM168.283 27.536V22.664C168.283 22.488 168.187 22.4 167.995 22.4H165.739C165.227 22.4 164.867 22.512 164.659 22.736C164.451 22.944 164.347 23.304 164.347 23.816V27.944C164.347 28.456 164.451 28.824 164.659 29.048C164.867 29.256 165.227 29.36 165.739 29.36H166.627C167.731 29.36 168.283 28.752 168.283 27.536ZM178.593 32H174.033C173.713 32 173.553 31.832 173.553 31.496V29.96C173.553 29.784 173.585 29.664 173.649 29.6C173.713 29.52 173.841 29.48 174.033 29.48H178.041C178.825 29.48 179.217 29.24 179.217 28.76V28.64C179.217 28.256 178.889 27.888 178.233 27.536L175.857 26.216C175.041 25.8 174.441 25.352 174.057 24.872C173.673 24.392 173.481 23.776 173.481 23.024C173.481 21.904 173.777 21.08 174.369 20.552C174.961 20.024 175.889 19.76 177.153 19.76H181.161C181.481 19.76 181.641 19.928 181.641 20.264V21.824C181.641 22 181.609 22.128 181.545 22.208C181.481 22.272 181.353 22.304 181.161 22.304H177.825C177.041 22.304 176.649 22.504 176.649 22.904V23.024C176.649 23.376 176.993 23.736 177.681 24.104L180.105 25.544C180.937 25.992 181.521 26.456 181.857 26.936C182.193 27.4 182.361 28.016 182.361 28.784C182.361 30.928 181.105 32 178.593 32ZM184.604 17.696V15.608C184.604 15.288 184.764 15.128 185.084 15.128H187.172C187.492 15.128 187.652 15.28 187.652 15.584V17.696C187.652 18.016 187.492 18.176 187.172 18.176H185.084C184.764 18.176 184.604 18.016 184.604 17.696ZM184.604 31.496V20.264C184.604 19.928 184.764 19.76 185.084 19.76H187.148C187.484 19.76 187.652 19.928 187.652 20.264V31.496C187.652 31.704 187.612 31.84 187.532 31.904C187.468 31.968 187.348 32 187.172 32H185.108C184.772 32 184.604 31.832 184.604 31.496ZM198.214 29.864V31.52C198.214 31.696 198.174 31.824 198.094 31.904C198.03 31.968 197.902 32 197.71 32H194.134C192.87 32 191.894 31.664 191.206 30.992C190.518 30.32 190.174 29.352 190.174 28.088V23.672C190.174 22.408 190.518 21.44 191.206 20.768C191.894 20.096 192.87 19.76 194.134 19.76H197.71C198.046 19.76 198.214 19.928 198.214 20.264V21.92C198.214 22.096 198.174 22.224 198.094 22.304C198.03 22.368 197.902 22.4 197.71 22.4H194.614C194.118 22.4 193.758 22.512 193.534 22.736C193.326 22.944 193.222 23.304 193.222 23.816V27.944C193.222 28.456 193.326 28.824 193.534 29.048C193.758 29.256 194.118 29.36 194.614 29.36H197.71C198.046 29.36 198.214 29.528 198.214 29.864ZM216.042 16.568H219.594C219.93 16.568 220.098 16.736 220.098 17.072V31.496C220.098 31.832 219.93 32 219.594 32H217.626C217.29 32 217.122 31.832 217.122 31.496V20.12H217.026L214.578 28.16C214.482 28.48 214.282 28.64 213.978 28.64H211.962C211.658 28.64 211.458 28.48 211.362 28.16L208.866 20.096H208.77V31.496C208.77 31.688 208.738 31.824 208.674 31.904C208.61 31.968 208.474 32 208.266 32H206.298C205.962 32 205.794 31.832 205.794 31.496V17.072C205.794 16.736 205.962 16.568 206.298 16.568H209.874C210.098 16.568 210.25 16.68 210.33 16.904L212.874 25.376H213.018L215.586 16.904C215.634 16.68 215.786 16.568 216.042 16.568ZM222.824 28.064V27.584C222.824 27.248 222.992 27.08 223.328 27.08H225.368C225.704 27.08 225.872 27.248 225.872 27.584V27.776C225.872 28.384 225.992 28.8 226.232 29.024C226.472 29.248 226.912 29.36 227.552 29.36H228.68C229.304 29.36 229.736 29.24 229.976 29C230.232 28.76 230.36 28.312 230.36 27.656V27.368C230.36 26.904 230.168 26.552 229.784 26.312C229.416 26.056 228.952 25.904 228.392 25.856C227.832 25.808 227.224 25.72 226.568 25.592C225.928 25.448 225.328 25.272 224.768 25.064C224.208 24.84 223.736 24.416 223.352 23.792C222.984 23.152 222.8 22.336 222.8 21.344V20.504C222.8 19.256 223.152 18.288 223.856 17.6C224.56 16.912 225.536 16.568 226.784 16.568H229.184C230.448 16.568 231.432 16.912 232.136 17.6C232.84 18.288 233.192 19.256 233.192 20.504V20.96C233.192 21.296 233.024 21.464 232.688 21.464H230.648C230.312 21.464 230.144 21.296 230.144 20.96V20.816C230.144 20.192 230.024 19.768 229.784 19.544C229.544 19.32 229.104 19.208 228.464 19.208H227.528C226.872 19.208 226.424 19.336 226.184 19.592C225.96 19.832 225.848 20.312 225.848 21.032V21.488C225.848 22.24 226.504 22.672 227.816 22.784C229.176 22.896 230.384 23.168 231.44 23.6C232 23.84 232.464 24.272 232.832 24.896C233.216 25.504 233.408 26.288 233.408 27.248V28.064C233.408 29.312 233.056 30.28 232.352 30.968C231.648 31.656 230.672 32 229.424 32H226.808C225.56 32 224.584 31.656 223.88 30.968C223.176 30.28 222.824 29.312 222.824 28.064ZM237.754 32H235.45C235.162 32 235.066 31.832 235.162 31.496L238.954 17.072C239.066 16.736 239.306 16.568 239.674 16.568H242.866C243.266 16.568 243.506 16.736 243.586 17.072L247.378 31.496C247.474 31.832 247.378 32 247.09 32H244.786C244.61 32 244.49 31.968 244.426 31.904C244.362 31.824 244.314 31.688 244.282 31.496L243.61 28.856H238.93L238.258 31.496C238.226 31.688 238.17 31.824 238.09 31.904C238.026 31.968 237.914 32 237.754 32ZM241.234 19.472L239.506 26.408H243.058L241.33 19.472H241.234ZM257.323 32H255.283C254.947 32 254.779 31.832 254.779 31.496V17.072C254.779 16.736 254.947 16.568 255.283 16.568H261.139C262.387 16.568 263.355 16.912 264.043 17.6C264.731 18.272 265.075 19.232 265.075 20.48V22.784C265.075 24.032 264.731 25 264.043 25.688C263.355 26.36 262.387 26.696 261.139 26.696H258.115C257.923 26.696 257.827 26.784 257.827 26.96V31.496C257.827 31.832 257.659 32 257.323 32ZM258.091 24.032H260.635C261.147 24.032 261.507 23.928 261.715 23.72C261.923 23.496 262.027 23.136 262.027 22.64V20.624C262.027 20.112 261.923 19.752 261.715 19.544C261.507 19.32 261.147 19.208 260.635 19.208H258.091C257.915 19.208 257.827 19.296 257.827 19.472V23.768C257.827 23.944 257.915 24.032 258.091 24.032ZM269.809 32H267.769C267.433 32 267.265 31.832 267.265 31.496V20.264C267.265 19.928 267.433 19.76 267.769 19.76H269.809C270.145 19.76 270.313 19.928 270.313 20.264V21.08H270.409C270.585 20.648 270.897 20.32 271.345 20.096C271.793 19.872 272.265 19.76 272.761 19.76H273.625C273.945 19.76 274.105 19.928 274.105 20.264V21.92C274.105 22.112 274.065 22.248 273.985 22.328C273.921 22.392 273.801 22.416 273.625 22.4H271.969C270.865 22.4 270.313 23.024 270.313 24.272V31.496C270.313 31.832 270.145 32 269.809 32ZM281.489 32H279.353C278.089 32 277.113 31.664 276.425 30.992C275.737 30.32 275.393 29.352 275.393 28.088V23.672C275.393 22.408 275.737 21.44 276.425 20.768C277.113 20.096 278.089 19.76 279.353 19.76H281.489C282.737 19.76 283.705 20.104 284.393 20.792C285.097 21.464 285.449 22.424 285.449 23.672V28.088C285.449 29.336 285.097 30.304 284.393 30.992C283.705 31.664 282.737 32 281.489 32ZM279.809 29.384H281.033C281.545 29.384 281.905 29.28 282.113 29.072C282.337 28.864 282.449 28.504 282.449 27.992V23.768C282.449 23.256 282.337 22.896 282.113 22.688C281.905 22.48 281.545 22.376 281.033 22.376H279.809C279.297 22.376 278.937 22.48 278.729 22.688C278.521 22.896 278.417 23.256 278.417 23.768V27.992C278.417 28.504 278.521 28.864 278.729 29.072C278.937 29.28 279.297 29.384 279.809 29.384ZM292.163 31.448H291.371C290.139 31.448 289.203 31.112 288.563 30.44C287.939 29.768 287.627 28.8 287.627 27.536V23.672C287.627 22.408 287.971 21.44 288.659 20.768C289.347 20.096 290.323 19.76 291.587 19.76H297.131C297.483 19.76 297.659 19.928 297.659 20.264V32.096C297.659 33.344 297.307 34.304 296.603 34.976C295.915 35.648 294.947 35.984 293.699 35.984H289.091C288.899 35.984 288.763 35.944 288.683 35.864C288.619 35.8 288.587 35.68 288.587 35.504V33.848C288.587 33.512 288.755 33.344 289.091 33.344H293.195C293.707 33.344 294.067 33.232 294.275 33.008C294.499 32.8 294.611 32.448 294.611 31.952V30.128H294.515C294.339 30.56 294.027 30.888 293.579 31.112C293.131 31.336 292.659 31.448 292.163 31.448ZM294.611 26.984V22.664C294.611 22.488 294.515 22.4 294.323 22.4H292.067C291.555 22.4 291.195 22.512 290.987 22.736C290.779 22.944 290.675 23.304 290.675 23.816V27.392C290.675 27.904 290.779 28.264 290.987 28.472C291.195 28.68 291.555 28.784 292.067 28.784H292.955C294.059 28.784 294.611 28.184 294.611 26.984ZM302.833 32H300.793C300.457 32 300.289 31.832 300.289 31.496V20.264C300.289 19.928 300.457 19.76 300.793 19.76H302.833C303.169 19.76 303.337 19.928 303.337 20.264V21.08H303.433C303.609 20.648 303.921 20.32 304.369 20.096C304.817 19.872 305.289 19.76 305.785 19.76H306.649C306.969 19.76 307.129 19.928 307.129 20.264V21.92C307.129 22.112 307.089 22.248 307.009 22.328C306.945 22.392 306.825 22.416 306.649 22.4H304.993C303.889 22.4 303.337 23.024 303.337 24.272V31.496C303.337 31.832 303.169 32 302.833 32ZM312.952 32H312.376C311.112 32 310.136 31.664 309.448 30.992C308.76 30.32 308.416 29.352 308.416 28.088V23.672C308.416 22.408 308.76 21.44 309.448 20.768C310.136 20.096 311.112 19.76 312.376 19.76H317.92C318.272 19.76 318.448 19.928 318.448 20.264V31.496C318.448 31.832 318.272 32 317.92 32H315.904C315.568 32 315.4 31.832 315.4 31.496V30.704H315.304C315.128 31.136 314.816 31.464 314.368 31.688C313.92 31.896 313.448 32 312.952 32ZM315.4 27.536V22.664C315.4 22.488 315.304 22.4 315.112 22.4H312.856C312.344 22.4 311.984 22.512 311.776 22.736C311.568 22.944 311.464 23.304 311.464 23.816V27.944C311.464 28.456 311.568 28.824 311.776 29.048C311.984 29.256 312.344 29.36 312.856 29.36H313.744C314.848 29.36 315.4 28.752 315.4 27.536ZM323.622 32H321.582C321.246 32 321.078 31.832 321.078 31.496V20.264C321.078 19.928 321.246 19.76 321.582 19.76H323.622C323.958 19.76 324.126 19.928 324.126 20.264V21.056H324.222C324.414 20.672 324.734 20.36 325.182 20.12C325.646 19.88 326.174 19.76 326.766 19.76H327.438C328.83 19.76 329.83 20.272 330.438 21.296C330.982 20.272 331.918 19.76 333.246 19.76H333.942C335.174 19.76 336.102 20.096 336.726 20.768C337.366 21.44 337.686 22.408 337.686 23.672V31.496C337.686 31.832 337.518 32 337.182 32H335.142C334.806 32 334.638 31.832 334.638 31.496V23.816C334.638 23.304 334.534 22.944 334.326 22.736C334.118 22.512 333.758 22.4 333.246 22.4H332.646C331.542 22.4 330.99 23.016 330.99 24.248V31.496C330.99 31.832 330.814 32 330.462 32H328.446C328.11 32 327.942 31.832 327.942 31.496V23.816C327.942 23.304 327.83 22.944 327.606 22.736C327.398 22.512 327.038 22.4 326.526 22.4H325.782C324.678 22.4 324.126 23.008 324.126 24.224V31.496C324.126 31.832 323.958 32 323.622 32Z" fill="#5A5A5A"/>
<path d="M69.96 92H62.064C61.728 92 61.56 91.832 61.56 91.496V77.072C61.56 76.736 61.728 76.568 62.064 76.568H64.104C64.44 76.568 64.608 76.736 64.608 77.072V89.072C64.608 89.248 64.704 89.336 64.896 89.336H69.96C70.28 89.336 70.44 89.512 70.44 89.864V91.496C70.44 91.832 70.28 92 69.96 92ZM77.9573 92H75.8213C74.5573 92 73.5813 91.664 72.8933 90.992C72.2053 90.32 71.8613 89.352 71.8613 88.088V83.672C71.8613 82.408 72.2053 81.44 72.8933 80.768C73.5813 80.096 74.5573 79.76 75.8213 79.76H77.9573C79.2053 79.76 80.1733 80.104 80.8613 80.792C81.5653 81.464 81.9173 82.424 81.9173 83.672V88.088C81.9173 89.336 81.5653 90.304 80.8613 90.992C80.1733 91.664 79.2053 92 77.9573 92ZM76.2773 89.384H77.5013C78.0133 89.384 78.3733 89.28 78.5813 89.072C78.8053 88.864 78.9173 88.504 78.9173 87.992V83.768C78.9173 83.256 78.8053 82.896 78.5813 82.688C78.3733 82.48 78.0133 82.376 77.5013 82.376H76.2773C75.7653 82.376 75.4053 82.48 75.1973 82.688C74.9893 82.896 74.8853 83.256 74.8853 83.768V87.992C74.8853 88.504 74.9893 88.864 75.1973 89.072C75.4053 89.28 75.7653 89.384 76.2773 89.384ZM88.6082 92H88.0322C86.7682 92 85.7922 91.664 85.1042 90.992C84.4162 90.32 84.0722 89.352 84.0722 88.088V83.672C84.0722 82.408 84.4162 81.44 85.1042 80.768C85.7922 80.096 86.7682 79.76 88.0322 79.76H93.5762C93.9282 79.76 94.1042 79.928 94.1042 80.264V91.496C94.1042 91.832 93.9282 92 93.5762 92H91.5602C91.2242 92 91.0562 91.832 91.0562 91.496V90.704H90.9602C90.7842 91.136 90.4722 91.464 90.0242 91.688C89.5762 91.896 89.1042 92 88.6082 92ZM91.0562 87.536V82.664C91.0562 82.488 90.9602 82.4 90.7682 82.4H88.5122C88.0002 82.4 87.6402 82.512 87.4322 82.736C87.2242 82.944 87.1202 83.304 87.1202 83.816V87.944C87.1202 88.456 87.2242 88.824 87.4322 89.048C87.6402 89.256 88.0002 89.36 88.5122 89.36H89.4002C90.5042 89.36 91.0562 88.752 91.0562 87.536ZM101.222 92H100.238C99.0061 92 98.0701 91.664 97.4301 90.992C96.8061 90.32 96.4941 89.352 96.4941 88.088V83.672C96.4941 82.408 96.8061 81.44 97.4301 80.768C98.0701 80.096 99.0061 79.76 100.238 79.76H101.222C101.718 79.76 102.19 79.872 102.638 80.096C103.086 80.304 103.398 80.624 103.574 81.056H103.67V75.632C103.67 75.296 103.838 75.128 104.174 75.128H106.214C106.55 75.128 106.718 75.296 106.718 75.632V91.496C106.718 91.832 106.55 92 106.214 92H104.174C103.838 92 103.67 91.832 103.67 91.496V90.704H103.574C103.398 91.136 103.086 91.464 102.638 91.688C102.19 91.896 101.718 92 101.222 92ZM103.67 87.536V84.224C103.67 83.008 103.118 82.4 102.014 82.4H100.934C100.422 82.4 100.062 82.512 99.8541 82.736C99.6461 82.944 99.5421 83.304 99.5421 83.816V87.944C99.5421 88.456 99.6461 88.824 99.8541 89.048C100.062 89.256 100.422 89.36 100.934 89.36H102.014C103.118 89.36 103.67 88.752 103.67 87.536ZM116.632 96.056H115.096C114.776 96.056 114.616 95.88 114.616 95.528V93.92C114.616 93.568 114.776 93.392 115.096 93.392H115.6C116.608 93.392 117.288 93.248 117.64 92.96C118.008 92.688 118.288 92.152 118.48 91.352H117.208C116.904 91.352 116.704 91.184 116.608 90.848L113.8 80.264C113.704 79.928 113.824 79.76 114.16 79.76H116.296C116.616 79.76 116.816 79.928 116.896 80.264L118.96 89.12H119.056L121.096 80.264C121.16 79.928 121.36 79.76 121.696 79.76H123.712C124.112 79.76 124.272 79.936 124.192 80.288L121.264 92C120.912 93.328 120.368 94.336 119.632 95.024C118.896 95.712 117.896 96.056 116.632 96.056ZM131.793 92H129.657C128.393 92 127.417 91.664 126.729 90.992C126.041 90.32 125.697 89.352 125.697 88.088V83.672C125.697 82.408 126.041 81.44 126.729 80.768C127.417 80.096 128.393 79.76 129.657 79.76H131.793C133.041 79.76 134.009 80.104 134.697 80.792C135.401 81.464 135.753 82.424 135.753 83.672V88.088C135.753 89.336 135.401 90.304 134.697 90.992C134.009 91.664 133.041 92 131.793 92ZM130.113 89.384H131.337C131.849 89.384 132.209 89.28 132.417 89.072C132.641 88.864 132.753 88.504 132.753 87.992V83.768C132.753 83.256 132.641 82.896 132.417 82.688C132.209 82.48 131.849 82.376 131.337 82.376H130.113C129.601 82.376 129.241 82.48 129.033 82.688C128.825 82.896 128.721 83.256 128.721 83.768V87.992C128.721 88.504 128.825 88.864 129.033 89.072C129.241 89.28 129.601 89.384 130.113 89.384ZM142.564 92H141.772C140.54 92 139.604 91.664 138.964 90.992C138.34 90.32 138.028 89.352 138.028 88.088V80.264C138.028 79.928 138.196 79.76 138.532 79.76H140.572C140.908 79.76 141.076 79.928 141.076 80.264V87.944C141.076 88.456 141.18 88.824 141.388 89.048C141.612 89.256 141.972 89.36 142.468 89.36H143.356C144.46 89.36 145.012 88.752 145.012 87.536V80.264C145.012 79.928 145.18 79.76 145.516 79.76H147.532C147.884 79.76 148.06 79.928 148.06 80.264V91.496C148.06 91.832 147.884 92 147.532 92H145.516C145.18 92 145.012 91.832 145.012 91.496V90.704H144.916C144.74 91.136 144.428 91.464 143.98 91.688C143.532 91.896 143.06 92 142.564 92ZM153.255 92H151.215C150.879 92 150.711 91.832 150.711 91.496V80.264C150.711 79.928 150.879 79.76 151.215 79.76H153.255C153.591 79.76 153.759 79.928 153.759 80.264V81.08H153.855C154.031 80.648 154.343 80.32 154.791 80.096C155.239 79.872 155.711 79.76 156.207 79.76H157.071C157.391 79.76 157.551 79.928 157.551 80.264V81.92C157.551 82.112 157.511 82.248 157.431 82.328C157.367 82.392 157.247 82.416 157.071 82.4H155.415C154.311 82.4 153.759 83.024 153.759 84.272V91.496C153.759 91.832 153.591 92 153.255 92ZM166.895 95.264H164.855C164.519 95.264 164.351 95.104 164.351 94.784V80.264C164.351 79.928 164.519 79.76 164.855 79.76H166.895C167.231 79.76 167.399 79.928 167.399 80.264V81.056H167.495C167.671 80.624 167.983 80.304 168.431 80.096C168.879 79.872 169.351 79.76 169.847 79.76H170.831C172.063 79.76 172.991 80.096 173.615 80.768C174.255 81.44 174.575 82.408 174.575 83.672V88.088C174.575 89.352 174.255 90.32 173.615 90.992C172.991 91.664 172.063 92 170.831 92H169.847C169.351 92 168.879 91.896 168.431 91.688C167.983 91.464 167.671 91.136 167.495 90.704H167.399V94.784C167.399 95.104 167.231 95.264 166.895 95.264ZM169.055 89.36H170.111C170.623 89.36 170.983 89.256 171.191 89.048C171.415 88.824 171.527 88.456 171.527 87.944V83.816C171.527 83.304 171.415 82.944 171.191 82.736C170.983 82.512 170.623 82.4 170.111 82.4H169.055C167.951 82.4 167.399 83.008 167.399 84.224V87.536C167.399 88.752 167.951 89.36 169.055 89.36ZM179.528 92H177.488C177.152 92 176.984 91.832 176.984 91.496V80.264C176.984 79.928 177.152 79.76 177.488 79.76H179.528C179.864 79.76 180.032 79.928 180.032 80.264V81.08H180.128C180.304 80.648 180.616 80.32 181.064 80.096C181.512 79.872 181.984 79.76 182.48 79.76H183.344C183.664 79.76 183.824 79.928 183.824 80.264V81.92C183.824 82.112 183.784 82.248 183.704 82.328C183.64 82.392 183.52 82.416 183.344 82.4H181.688C180.584 82.4 180.032 83.024 180.032 84.272V91.496C180.032 91.832 179.864 92 179.528 92ZM191.207 92H189.071C187.807 92 186.831 91.664 186.143 90.992C185.455 90.32 185.111 89.352 185.111 88.088V83.672C185.111 82.408 185.455 81.44 186.143 80.768C186.831 80.096 187.807 79.76 189.071 79.76H191.207C192.455 79.76 193.423 80.104 194.111 80.792C194.815 81.464 195.167 82.424 195.167 83.672V88.088C195.167 89.336 194.815 90.304 194.111 90.992C193.423 91.664 192.455 92 191.207 92ZM189.527 89.384H190.751C191.263 89.384 191.623 89.28 191.831 89.072C192.055 88.864 192.167 88.504 192.167 87.992V83.768C192.167 83.256 192.055 82.896 191.831 82.688C191.623 82.48 191.263 82.376 190.751 82.376H189.527C189.015 82.376 188.655 82.48 188.447 82.688C188.239 82.896 188.135 83.256 188.135 83.768V87.992C188.135 88.504 188.239 88.864 188.447 89.072C188.655 89.28 189.015 89.384 189.527 89.384ZM202.05 92H201.066C199.834 92 198.898 91.664 198.258 90.992C197.634 90.32 197.322 89.352 197.322 88.088V83.672C197.322 82.408 197.634 81.44 198.258 80.768C198.898 80.096 199.834 79.76 201.066 79.76H202.05C202.546 79.76 203.018 79.872 203.466 80.096C203.914 80.304 204.226 80.624 204.402 81.056H204.498V75.632C204.498 75.296 204.666 75.128 205.002 75.128H207.042C207.378 75.128 207.546 75.296 207.546 75.632V91.496C207.546 91.832 207.378 92 207.042 92H205.002C204.666 92 204.498 91.832 204.498 91.496V90.704H204.402C204.226 91.136 203.914 91.464 203.466 91.688C203.018 91.896 202.546 92 202.05 92ZM204.498 87.536V84.224C204.498 83.008 203.946 82.4 202.842 82.4H201.762C201.25 82.4 200.89 82.512 200.682 82.736C200.474 82.944 200.37 83.304 200.37 83.816V87.944C200.37 88.456 200.474 88.824 200.682 89.048C200.89 89.256 201.25 89.36 201.762 89.36H202.842C203.946 89.36 204.498 88.752 204.498 87.536ZM214.611 92H213.819C212.587 92 211.651 91.664 211.011 90.992C210.387 90.32 210.075 89.352 210.075 88.088V80.264C210.075 79.928 210.243 79.76 210.579 79.76H212.619C212.955 79.76 213.123 79.928 213.123 80.264V87.944C213.123 88.456 213.227 88.824 213.435 89.048C213.659 89.256 214.019 89.36 214.515 89.36H215.403C216.507 89.36 217.059 88.752 217.059 87.536V80.264C217.059 79.928 217.227 79.76 217.563 79.76H219.579C219.931 79.76 220.107 79.928 220.107 80.264V91.496C220.107 91.832 219.931 92 219.579 92H217.563C217.227 92 217.059 91.832 217.059 91.496V90.704H216.963C216.787 91.136 216.475 91.464 216.027 91.688C215.579 91.896 215.107 92 214.611 92ZM230.558 89.864V91.52C230.558 91.696 230.518 91.824 230.438 91.904C230.374 91.968 230.246 92 230.054 92H226.478C225.214 92 224.238 91.664 223.55 90.992C222.862 90.32 222.518 89.352 222.518 88.088V83.672C222.518 82.408 222.862 81.44 223.55 80.768C224.238 80.096 225.214 79.76 226.478 79.76H230.054C230.39 79.76 230.558 79.928 230.558 80.264V81.92C230.558 82.096 230.518 82.224 230.438 82.304C230.374 82.368 230.246 82.4 230.054 82.4H226.958C226.462 82.4 226.102 82.512 225.878 82.736C225.67 82.944 225.566 83.304 225.566 83.816V87.944C225.566 88.456 225.67 88.824 225.878 89.048C226.102 89.256 226.462 89.36 226.958 89.36H230.054C230.39 89.36 230.558 89.528 230.558 89.864ZM232.889 82.4H231.929C231.737 82.4 231.601 82.368 231.521 82.304C231.457 82.24 231.425 82.112 231.425 81.92V80.264C231.425 79.928 231.593 79.76 231.929 79.76H232.889C233.065 79.76 233.153 79.672 233.153 79.496V77.216C233.153 76.88 233.329 76.712 233.681 76.712H235.697C236.033 76.712 236.201 76.88 236.201 77.216V79.496C236.201 79.672 236.297 79.76 236.489 79.76H238.361C238.697 79.76 238.865 79.928 238.865 80.264V81.92C238.865 82.096 238.825 82.224 238.745 82.304C238.681 82.368 238.553 82.4 238.361 82.4H236.489C236.297 82.4 236.201 82.488 236.201 82.664V87.968C236.201 88.464 236.313 88.824 236.537 89.048C236.761 89.256 237.129 89.36 237.641 89.36H238.601C238.937 89.36 239.105 89.528 239.105 89.864V91.52C239.105 91.696 239.065 91.824 238.985 91.904C238.921 91.968 238.793 92 238.601 92H237.137C235.873 92 234.889 91.664 234.185 90.992C233.497 90.32 233.153 89.36 233.153 88.112V82.664C233.153 82.488 233.065 82.4 232.889 82.4ZM245.718 92H241.158C240.838 92 240.678 91.832 240.678 91.496V89.96C240.678 89.784 240.71 89.664 240.774 89.6C240.838 89.52 240.966 89.48 241.158 89.48H245.166C245.95 89.48 246.342 89.24 246.342 88.76V88.64C246.342 88.256 246.014 87.888 245.358 87.536L242.982 86.216C242.166 85.8 241.566 85.352 241.182 84.872C240.798 84.392 240.606 83.776 240.606 83.024C240.606 81.904 240.902 81.08 241.494 80.552C242.086 80.024 243.014 79.76 244.278 79.76H248.286C248.606 79.76 248.766 79.928 248.766 80.264V81.824C248.766 82 248.734 82.128 248.67 82.208C248.606 82.272 248.478 82.304 248.286 82.304H244.95C244.166 82.304 243.774 82.504 243.774 82.904V83.024C243.774 83.376 244.118 83.736 244.806 84.104L247.23 85.544C248.062 85.992 248.646 86.456 248.982 86.936C249.318 87.4 249.486 88.016 249.486 88.784C249.486 90.928 248.23 92 245.718 92ZM257.003 77.696V75.608C257.003 75.288 257.163 75.128 257.483 75.128H259.571C259.891 75.128 260.051 75.28 260.051 75.584V77.696C260.051 78.016 259.891 78.176 259.571 78.176H257.483C257.163 78.176 257.003 78.016 257.003 77.696ZM257.003 91.496V80.264C257.003 79.928 257.163 79.76 257.483 79.76H259.547C259.883 79.76 260.051 79.928 260.051 80.264V91.496C260.051 91.704 260.011 91.84 259.931 91.904C259.867 91.968 259.747 92 259.571 92H257.507C257.171 92 257.003 91.832 257.003 91.496ZM265.356 92H263.316C262.98 92 262.812 91.832 262.812 91.496V80.264C262.812 79.928 262.98 79.76 263.316 79.76H265.356C265.692 79.76 265.86 79.928 265.86 80.264V81.056H265.956C266.308 80.192 267.092 79.76 268.308 79.76H269.076C271.588 79.76 272.844 81.064 272.844 83.672V91.496C272.844 91.832 272.668 92 272.316 92H270.3C269.964 92 269.796 91.832 269.796 91.496V83.816C269.796 83.304 269.684 82.944 269.46 82.736C269.252 82.512 268.892 82.4 268.38 82.4H267.516C266.412 82.4 265.86 83.008 265.86 84.224V91.496C265.86 91.832 265.692 92 265.356 92ZM280.007 92H275.447C275.127 92 274.967 91.832 274.967 91.496V89.96C274.967 89.784 274.999 89.664 275.063 89.6C275.127 89.52 275.255 89.48 275.447 89.48H279.455C280.239 89.48 280.631 89.24 280.631 88.76V88.64C280.631 88.256 280.303 87.888 279.647 87.536L277.271 86.216C276.455 85.8 275.855 85.352 275.471 84.872C275.087 84.392 274.895 83.776 274.895 83.024C274.895 81.904 275.191 81.08 275.783 80.552C276.375 80.024 277.303 79.76 278.567 79.76H282.575C282.895 79.76 283.055 79.928 283.055 80.264V81.824C283.055 82 283.023 82.128 282.959 82.208C282.895 82.272 282.767 82.304 282.575 82.304H279.239C278.455 82.304 278.063 82.504 278.063 82.904V83.024C278.063 83.376 278.407 83.736 279.095 84.104L281.519 85.544C282.351 85.992 282.935 86.456 283.271 86.936C283.607 87.4 283.775 88.016 283.775 88.784C283.775 90.928 282.519 92 280.007 92ZM286.018 77.696V75.608C286.018 75.288 286.178 75.128 286.498 75.128H288.586C288.906 75.128 289.066 75.28 289.066 75.584V77.696C289.066 78.016 288.906 78.176 288.586 78.176H286.498C286.178 78.176 286.018 78.016 286.018 77.696ZM286.018 91.496V80.264C286.018 79.928 286.178 79.76 286.498 79.76H288.562C288.898 79.76 289.066 79.928 289.066 80.264V91.496C289.066 91.704 289.026 91.84 288.946 91.904C288.882 91.968 288.762 92 288.586 92H286.522C286.186 92 286.018 91.832 286.018 91.496ZM296.316 92H295.332C294.1 92 293.164 91.664 292.524 90.992C291.9 90.32 291.588 89.352 291.588 88.088V83.672C291.588 82.408 291.9 81.44 292.524 80.768C293.164 80.096 294.1 79.76 295.332 79.76H296.316C296.812 79.76 297.284 79.872 297.732 80.096C298.18 80.304 298.492 80.624 298.668 81.056H298.764V75.632C298.764 75.296 298.932 75.128 299.268 75.128H301.308C301.644 75.128 301.812 75.296 301.812 75.632V91.496C301.812 91.832 301.644 92 301.308 92H299.268C298.932 92 298.764 91.832 298.764 91.496V90.704H298.668C298.492 91.136 298.18 91.464 297.732 91.688C297.284 91.896 296.812 92 296.316 92ZM298.764 87.536V84.224C298.764 83.008 298.212 82.4 297.108 82.4H296.028C295.516 82.4 295.156 82.512 294.948 82.736C294.74 82.944 294.636 83.304 294.636 83.816V87.944C294.636 88.456 294.74 88.824 294.948 89.048C295.156 89.256 295.516 89.36 296.028 89.36H297.108C298.212 89.36 298.764 88.752 298.764 87.536ZM313.485 92H308.181C306.917 92 305.941 91.664 305.253 90.992C304.565 90.32 304.221 89.352 304.221 88.088V83.672C304.221 82.408 304.565 81.44 305.253 80.768C305.941 80.096 306.917 79.76 308.181 79.76H310.077C311.341 79.76 312.317 80.096 313.005 80.768C313.693 81.44 314.037 82.408 314.037 83.672V86.72C314.037 87.056 313.869 87.224 313.533 87.224H307.509C307.317 87.224 307.221 87.312 307.221 87.488V88.016C307.221 88.512 307.325 88.872 307.533 89.096C307.757 89.304 308.125 89.408 308.637 89.408H313.485C313.821 89.408 313.989 89.584 313.989 89.936V91.52C313.989 91.696 313.949 91.824 313.869 91.904C313.805 91.968 313.677 92 313.485 92ZM307.509 85.184H310.773C310.949 85.184 311.037 85.096 311.037 84.92V83.768C311.037 83.256 310.933 82.896 310.725 82.688C310.517 82.48 310.157 82.376 309.645 82.376H308.637C308.125 82.376 307.765 82.48 307.557 82.688C307.349 82.896 307.245 83.256 307.245 83.768V84.92C307.245 85.096 307.333 85.184 307.509 85.184ZM321.857 82.4H320.897C320.705 82.4 320.569 82.368 320.489 82.304C320.425 82.24 320.393 82.112 320.393 81.92V80.264C320.393 79.928 320.561 79.76 320.897 79.76H321.857C322.033 79.76 322.121 79.672 322.121 79.496V77.216C322.121 76.88 322.297 76.712 322.649 76.712H324.665C325.001 76.712 325.169 76.88 325.169 77.216V79.496C325.169 79.672 325.265 79.76 325.457 79.76H327.329C327.665 79.76 327.833 79.928 327.833 80.264V81.92C327.833 82.096 327.793 82.224 327.713 82.304C327.649 82.368 327.521 82.4 327.329 82.4H325.457C325.265 82.4 325.169 82.488 325.169 82.664V87.968C325.169 88.464 325.281 88.824 325.505 89.048C325.729 89.256 326.097 89.36 326.609 89.36H327.569C327.905 89.36 328.073 89.528 328.073 89.864V91.52C328.073 91.696 328.033 91.824 327.953 91.904C327.889 91.968 327.761 92 327.569 92H326.105C324.841 92 323.857 91.664 323.153 90.992C322.465 90.32 322.121 89.36 322.121 88.112V82.664C322.121 82.488 322.033 82.4 321.857 82.4ZM332.598 92H330.558C330.222 92 330.054 91.832 330.054 91.496V75.632C330.054 75.296 330.222 75.128 330.558 75.128H332.598C332.934 75.128 333.102 75.296 333.102 75.632V81.056H333.198C333.55 80.192 334.334 79.76 335.55 79.76H336.318C338.83 79.76 340.086 81.064 340.086 83.672V91.496C340.086 91.832 339.91 92 339.558 92H337.542C337.206 92 337.038 91.832 337.038 91.496V83.816C337.038 83.304 336.926 82.944 336.702 82.736C336.494 82.512 336.134 82.4 335.622 82.4H334.758C333.654 82.4 333.102 83.008 333.102 84.224V91.496C333.102 91.832 332.934 92 332.598 92ZM351.641 92H346.337C345.073 92 344.097 91.664 343.409 90.992C342.721 90.32 342.377 89.352 342.377 88.088V83.672C342.377 82.408 342.721 81.44 343.409 80.768C344.097 80.096 345.073 79.76 346.337 79.76H348.233C349.497 79.76 350.473 80.096 351.161 80.768C351.849 81.44 352.193 82.408 352.193 83.672V86.72C352.193 87.056 352.025 87.224 351.689 87.224H345.665C345.473 87.224 345.377 87.312 345.377 87.488V88.016C345.377 88.512 345.481 88.872 345.689 89.096C345.913 89.304 346.281 89.408 346.793 89.408H351.641C351.977 89.408 352.145 89.584 352.145 89.936V91.52C352.145 91.696 352.105 91.824 352.025 91.904C351.961 91.968 351.833 92 351.641 92ZM345.665 85.184H348.929C349.105 85.184 349.193 85.096 349.193 84.92V83.768C349.193 83.256 349.089 82.896 348.881 82.688C348.673 82.48 348.313 82.376 347.801 82.376H346.793C346.281 82.376 345.921 82.48 345.713 82.688C345.505 82.896 345.401 83.256 345.401 83.768V84.92C345.401 85.096 345.489 85.184 345.665 85.184ZM361.598 92H359.294C359.006 92 358.91 91.832 359.006 91.496L362.798 77.072C362.91 76.736 363.15 76.568 363.518 76.568H366.71C367.11 76.568 367.35 76.736 367.43 77.072L371.222 91.496C371.318 91.832 371.222 92 370.934 92H368.63C368.454 92 368.334 91.968 368.27 91.904C368.206 91.824 368.158 91.688 368.126 91.496L367.454 88.856H362.774L362.102 91.496C362.07 91.688 362.014 91.824 361.934 91.904C361.87 91.968 361.758 92 361.598 92ZM365.078 79.472L363.35 86.408H366.902L365.174 79.472H365.078ZM375.893 92H373.853C373.517 92 373.349 91.832 373.349 91.496V77.072C373.349 76.736 373.517 76.568 373.853 76.568H379.709C380.957 76.568 381.925 76.912 382.613 77.6C383.301 78.272 383.645 79.232 383.645 80.48V82.784C383.645 84.032 383.301 85 382.613 85.688C381.925 86.36 380.957 86.696 379.709 86.696H376.685C376.493 86.696 376.397 86.784 376.397 86.96V91.496C376.397 91.832 376.229 92 375.893 92ZM376.661 84.032H379.205C379.717 84.032 380.077 83.928 380.285 83.72C380.493 83.496 380.597 83.136 380.597 82.64V80.624C380.597 80.112 380.493 79.752 380.285 79.544C380.077 79.32 379.717 79.208 379.205 79.208H376.661C376.485 79.208 376.397 79.296 376.397 79.472V83.768C376.397 83.944 376.485 84.032 376.661 84.032ZM388.62 92H386.58C386.244 92 386.076 91.832 386.076 91.496V77.072C386.076 76.736 386.244 76.568 386.58 76.568H392.436C393.684 76.568 394.652 76.912 395.34 77.6C396.028 78.272 396.372 79.232 396.372 80.48V82.784C396.372 84.032 396.028 85 395.34 85.688C394.652 86.36 393.684 86.696 392.436 86.696H389.412C389.22 86.696 389.124 86.784 389.124 86.96V91.496C389.124 91.832 388.956 92 388.62 92ZM389.388 84.032H391.932C392.444 84.032 392.804 83.928 393.012 83.72C393.22 83.496 393.324 83.136 393.324 82.64V80.624C393.324 80.112 393.22 79.752 393.012 79.544C392.804 79.32 392.444 79.208 391.932 79.208H389.388C389.212 79.208 389.124 79.296 389.124 79.472V83.768C389.124 83.944 389.212 84.032 389.388 84.032Z" fill="#5A5A5A"/>
<path d="M66.888 152H63.528C63.176 152 62.976 151.832 62.928 151.496L60.36 137.072C60.312 136.736 60.48 136.568 60.864 136.568H63.36C63.728 136.568 63.92 136.736 63.936 137.072L65.328 148.904H65.496L67.8 137C67.848 136.712 68.016 136.568 68.304 136.568H70.992C71.296 136.568 71.472 136.704 71.52 136.976L73.872 148.904H74.064L75.432 137.096C75.448 136.744 75.64 136.568 76.008 136.568H78.504C78.888 136.568 79.056 136.744 79.008 137.096L76.416 151.496C76.368 151.832 76.184 152 75.864 152H72.48C72.144 152 71.952 151.832 71.904 151.496L69.744 140.24H69.648L67.464 151.496C67.4 151.832 67.208 152 66.888 152ZM84.9754 152H84.3994C83.1354 152 82.1594 151.664 81.4714 150.992C80.7834 150.32 80.4394 149.352 80.4394 148.088V143.672C80.4394 142.408 80.7834 141.44 81.4714 140.768C82.1594 140.096 83.1354 139.76 84.3994 139.76H89.9434C90.2954 139.76 90.4714 139.928 90.4714 140.264V151.496C90.4714 151.832 90.2954 152 89.9434 152H87.9274C87.5914 152 87.4234 151.832 87.4234 151.496V150.704H87.3274C87.1514 151.136 86.8394 151.464 86.3914 151.688C85.9434 151.896 85.4714 152 84.9754 152ZM87.4234 147.536V142.664C87.4234 142.488 87.3274 142.4 87.1354 142.4H84.8794C84.3674 142.4 84.0074 142.512 83.7994 142.736C83.5914 142.944 83.4874 143.304 83.4874 143.816V147.944C83.4874 148.456 83.5914 148.824 83.7994 149.048C84.0074 149.256 84.3674 149.36 84.8794 149.36H85.7674C86.8714 149.36 87.4234 148.752 87.4234 147.536ZM93.2213 137.696V135.608C93.2213 135.288 93.3813 135.128 93.7013 135.128H95.7893C96.1093 135.128 96.2693 135.28 96.2693 135.584V137.696C96.2693 138.016 96.1093 138.176 95.7893 138.176H93.7013C93.3813 138.176 93.2213 138.016 93.2213 137.696ZM93.2213 151.496V140.264C93.2213 139.928 93.3813 139.76 93.7013 139.76H95.7653C96.1013 139.76 96.2693 139.928 96.2693 140.264V151.496C96.2693 151.704 96.2293 151.84 96.1493 151.904C96.0853 151.968 95.9653 152 95.7893 152H93.7253C93.3893 152 93.2213 151.832 93.2213 151.496ZM99.2949 142.4H98.3349C98.1429 142.4 98.0069 142.368 97.9269 142.304C97.8629 142.24 97.8309 142.112 97.8309 141.92V140.264C97.8309 139.928 97.9989 139.76 98.3349 139.76H99.2949C99.4709 139.76 99.5589 139.672 99.5589 139.496V137.216C99.5589 136.88 99.7349 136.712 100.087 136.712H102.103C102.439 136.712 102.607 136.88 102.607 137.216V139.496C102.607 139.672 102.703 139.76 102.895 139.76H104.767C105.103 139.76 105.271 139.928 105.271 140.264V141.92C105.271 142.096 105.231 142.224 105.151 142.304C105.087 142.368 104.959 142.4 104.767 142.4H102.895C102.703 142.4 102.607 142.488 102.607 142.664V147.968C102.607 148.464 102.719 148.824 102.943 149.048C103.167 149.256 103.535 149.36 104.047 149.36H105.007C105.343 149.36 105.511 149.528 105.511 149.864V151.52C105.511 151.696 105.471 151.824 105.391 151.904C105.327 151.968 105.199 152 105.007 152H103.543C102.279 152 101.295 151.664 100.591 150.992C99.9029 150.32 99.5589 149.36 99.5589 148.112V142.664C99.5589 142.488 99.4709 142.4 99.2949 142.4ZM117.205 139.76H119.125C119.317 139.76 119.445 139.8 119.509 139.88C119.589 139.944 119.629 140.064 119.629 140.24V141.896C119.629 142.232 119.461 142.4 119.125 142.4H117.205C117.029 142.4 116.941 142.488 116.941 142.664V151.496C116.941 151.832 116.765 152 116.413 152H114.397C114.061 152 113.893 151.832 113.893 151.496V142.664C113.893 142.488 113.797 142.4 113.605 142.4H112.501C112.165 142.4 111.997 142.232 111.997 141.896V140.24C111.997 140.048 112.029 139.92 112.093 139.856C112.173 139.792 112.309 139.76 112.501 139.76H113.605C113.797 139.76 113.893 139.672 113.893 139.496V139.04C113.893 137.776 114.221 136.808 114.877 136.136C115.549 135.464 116.517 135.128 117.781 135.128H119.149C119.341 135.128 119.469 135.168 119.533 135.248C119.597 135.312 119.629 135.432 119.629 135.608V137.264C119.629 137.6 119.469 137.768 119.149 137.768H118.261C117.749 137.768 117.397 137.88 117.205 138.104C117.029 138.312 116.941 138.672 116.941 139.184V139.496C116.941 139.672 117.029 139.76 117.205 139.76ZM127.106 152H124.97C123.706 152 122.73 151.664 122.042 150.992C121.354 150.32 121.01 149.352 121.01 148.088V143.672C121.01 142.408 121.354 141.44 122.042 140.768C122.73 140.096 123.706 139.76 124.97 139.76H127.106C128.354 139.76 129.322 140.104 130.01 140.792C130.714 141.464 131.066 142.424 131.066 143.672V148.088C131.066 149.336 130.714 150.304 130.01 150.992C129.322 151.664 128.354 152 127.106 152ZM125.426 149.384H126.65C127.162 149.384 127.522 149.28 127.73 149.072C127.954 148.864 128.066 148.504 128.066 147.992V143.768C128.066 143.256 127.954 142.896 127.73 142.688C127.522 142.48 127.162 142.376 126.65 142.376H125.426C124.914 142.376 124.554 142.48 124.346 142.688C124.138 142.896 124.034 143.256 124.034 143.768V147.992C124.034 148.504 124.138 148.864 124.346 149.072C124.554 149.28 124.914 149.384 125.426 149.384ZM136.005 152H133.965C133.629 152 133.461 151.832 133.461 151.496V140.264C133.461 139.928 133.629 139.76 133.965 139.76H136.005C136.341 139.76 136.509 139.928 136.509 140.264V141.08H136.605C136.781 140.648 137.093 140.32 137.541 140.096C137.989 139.872 138.461 139.76 138.957 139.76H139.821C140.141 139.76 140.301 139.928 140.301 140.264V141.92C140.301 142.112 140.261 142.248 140.181 142.328C140.117 142.392 139.997 142.416 139.821 142.4H138.165C137.061 142.4 136.509 143.024 136.509 144.272V151.496C136.509 151.832 136.341 152 136.005 152ZM149.885 152H147.845C147.509 152 147.341 151.832 147.341 151.496V137.072C147.341 136.736 147.509 136.568 147.845 136.568H149.885C150.221 136.568 150.389 136.736 150.389 137.072V143.912H150.437C150.565 143.528 150.813 143.032 151.181 142.424L154.829 137.072C155.037 136.736 155.349 136.568 155.765 136.568H158.117C158.293 136.568 158.397 136.624 158.429 136.736C158.477 136.832 158.437 136.96 158.309 137.12L153.749 143.432L158.837 151.4C158.949 151.592 158.965 151.744 158.885 151.856C158.821 151.952 158.677 152 158.453 152H156.701C156.141 152 155.765 151.832 155.573 151.496L151.901 145.616L150.389 147.392V151.496C150.389 151.832 150.221 152 149.885 152ZM163.028 152H160.988C160.652 152 160.484 151.832 160.484 151.496V140.264C160.484 139.928 160.652 139.76 160.988 139.76H163.028C163.364 139.76 163.532 139.928 163.532 140.264V141.056H163.628C163.98 140.192 164.764 139.76 165.98 139.76H166.748C169.26 139.76 170.516 141.064 170.516 143.672V151.496C170.516 151.832 170.34 152 169.988 152H167.972C167.636 152 167.468 151.832 167.468 151.496V143.816C167.468 143.304 167.356 142.944 167.132 142.736C166.924 142.512 166.564 142.4 166.052 142.4H165.188C164.084 142.4 163.532 143.008 163.532 144.224V151.496C163.532 151.832 163.364 152 163.028 152ZM178.903 152H176.767C175.503 152 174.527 151.664 173.839 150.992C173.151 150.32 172.807 149.352 172.807 148.088V143.672C172.807 142.408 173.151 141.44 173.839 140.768C174.527 140.096 175.503 139.76 176.767 139.76H178.903C180.151 139.76 181.119 140.104 181.807 140.792C182.511 141.464 182.863 142.424 182.863 143.672V148.088C182.863 149.336 182.511 150.304 181.807 150.992C181.119 151.664 180.151 152 178.903 152ZM177.223 149.384H178.447C178.959 149.384 179.319 149.28 179.527 149.072C179.751 148.864 179.863 148.504 179.863 147.992V143.768C179.863 143.256 179.751 142.896 179.527 142.688C179.319 142.48 178.959 142.376 178.447 142.376H177.223C176.711 142.376 176.351 142.48 176.143 142.688C175.935 142.896 175.831 143.256 175.831 143.768V147.992C175.831 148.504 175.935 148.864 176.143 149.072C176.351 149.28 176.711 149.384 177.223 149.384ZM188.57 149.36H191.018C191.53 149.36 191.89 149.256 192.098 149.048C192.322 148.824 192.434 148.456 192.434 147.944V143.768C192.434 143.256 192.322 142.896 192.098 142.688C191.89 142.464 191.53 142.352 191.018 142.352H189.962C188.858 142.352 188.306 142.96 188.306 144.176V149.096C188.306 149.272 188.394 149.36 188.57 149.36ZM185.258 151.496V135.632C185.258 135.296 185.426 135.128 185.762 135.128H187.802C188.138 135.128 188.306 135.296 188.306 135.632V141.032H188.402C188.578 140.6 188.89 140.272 189.338 140.048C189.786 139.824 190.258 139.712 190.754 139.712H191.522C192.786 139.712 193.762 140.048 194.45 140.72C195.138 141.392 195.482 142.36 195.482 143.624V148.088C195.482 149.352 195.138 150.32 194.45 150.992C193.762 151.664 192.786 152 191.522 152H185.762C185.426 152 185.258 151.832 185.258 151.496ZM206.572 137.072V151.496C206.572 151.832 206.404 152 206.068 152H204.028C203.692 152 203.524 151.832 203.524 151.496V137.072C203.524 136.736 203.692 136.568 204.028 136.568H206.068C206.404 136.568 206.572 136.736 206.572 137.072ZM212.106 152H210.066C209.73 152 209.562 151.832 209.562 151.496V140.264C209.562 139.928 209.73 139.76 210.066 139.76H212.106C212.442 139.76 212.61 139.928 212.61 140.264V141.056H212.706C213.058 140.192 213.842 139.76 215.058 139.76H215.826C218.338 139.76 219.594 141.064 219.594 143.672V151.496C219.594 151.832 219.418 152 219.066 152H217.05C216.714 152 216.546 151.832 216.546 151.496V143.816C216.546 143.304 216.434 142.944 216.21 142.736C216.002 142.512 215.642 142.4 215.13 142.4H214.266C213.162 142.4 212.61 143.008 212.61 144.224V151.496C212.61 151.832 212.442 152 212.106 152ZM222.389 142.4H221.429C221.237 142.4 221.101 142.368 221.021 142.304C220.957 142.24 220.925 142.112 220.925 141.92V140.264C220.925 139.928 221.093 139.76 221.429 139.76H222.389C222.565 139.76 222.653 139.672 222.653 139.496V137.216C222.653 136.88 222.829 136.712 223.181 136.712H225.197C225.533 136.712 225.701 136.88 225.701 137.216V139.496C225.701 139.672 225.797 139.76 225.989 139.76H227.861C228.197 139.76 228.365 139.928 228.365 140.264V141.92C228.365 142.096 228.325 142.224 228.245 142.304C228.181 142.368 228.053 142.4 227.861 142.4H225.989C225.797 142.4 225.701 142.488 225.701 142.664V147.968C225.701 148.464 225.813 148.824 226.037 149.048C226.261 149.256 226.629 149.36 227.141 149.36H228.101C228.437 149.36 228.605 149.528 228.605 149.864V151.52C228.605 151.696 228.565 151.824 228.485 151.904C228.421 151.968 228.293 152 228.101 152H226.637C225.373 152 224.389 151.664 223.685 150.992C222.997 150.32 222.653 149.36 222.653 148.112V142.664C222.653 142.488 222.565 142.4 222.389 142.4ZM239.61 152H234.306C233.042 152 232.066 151.664 231.378 150.992C230.69 150.32 230.346 149.352 230.346 148.088V143.672C230.346 142.408 230.69 141.44 231.378 140.768C232.066 140.096 233.042 139.76 234.306 139.76H236.202C237.466 139.76 238.442 140.096 239.13 140.768C239.818 141.44 240.162 142.408 240.162 143.672V146.72C240.162 147.056 239.994 147.224 239.658 147.224H233.634C233.442 147.224 233.346 147.312 233.346 147.488V148.016C233.346 148.512 233.45 148.872 233.658 149.096C233.882 149.304 234.25 149.408 234.762 149.408H239.61C239.946 149.408 240.114 149.584 240.114 149.936V151.52C240.114 151.696 240.074 151.824 239.994 151.904C239.93 151.968 239.802 152 239.61 152ZM233.634 145.184H236.898C237.074 145.184 237.162 145.096 237.162 144.92V143.768C237.162 143.256 237.058 142.896 236.85 142.688C236.642 142.48 236.282 142.376 235.77 142.376H234.762C234.25 142.376 233.89 142.48 233.682 142.688C233.474 142.896 233.37 143.256 233.37 143.768V144.92C233.37 145.096 233.458 145.184 233.634 145.184ZM246.765 151.448H245.973C244.741 151.448 243.805 151.112 243.165 150.44C242.541 149.768 242.229 148.8 242.229 147.536V143.672C242.229 142.408 242.573 141.44 243.261 140.768C243.949 140.096 244.925 139.76 246.189 139.76H251.733C252.085 139.76 252.261 139.928 252.261 140.264V152.096C252.261 153.344 251.909 154.304 251.205 154.976C250.517 155.648 249.549 155.984 248.301 155.984H243.693C243.501 155.984 243.365 155.944 243.285 155.864C243.221 155.8 243.189 155.68 243.189 155.504V153.848C243.189 153.512 243.357 153.344 243.693 153.344H247.797C248.309 153.344 248.669 153.232 248.877 153.008C249.101 152.8 249.213 152.448 249.213 151.952V150.128H249.117C248.941 150.56 248.629 150.888 248.181 151.112C247.733 151.336 247.261 151.448 246.765 151.448ZM249.213 146.984V142.664C249.213 142.488 249.117 142.4 248.925 142.4H246.669C246.157 142.4 245.797 142.512 245.589 142.736C245.381 142.944 245.277 143.304 245.277 143.816V147.392C245.277 147.904 245.381 148.264 245.589 148.472C245.797 148.68 246.157 148.784 246.669 148.784H247.557C248.661 148.784 249.213 148.184 249.213 146.984ZM257.434 152H255.394C255.058 152 254.89 151.832 254.89 151.496V140.264C254.89 139.928 255.058 139.76 255.394 139.76H257.434C257.77 139.76 257.938 139.928 257.938 140.264V141.08H258.034C258.21 140.648 258.522 140.32 258.97 140.096C259.418 139.872 259.89 139.76 260.386 139.76H261.25C261.57 139.76 261.73 139.928 261.73 140.264V141.92C261.73 142.112 261.69 142.248 261.61 142.328C261.546 142.392 261.426 142.416 261.25 142.4H259.594C258.49 142.4 257.938 143.024 257.938 144.272V151.496C257.938 151.832 257.77 152 257.434 152ZM267.554 152H266.978C265.714 152 264.738 151.664 264.05 150.992C263.362 150.32 263.018 149.352 263.018 148.088V143.672C263.018 142.408 263.362 141.44 264.05 140.768C264.738 140.096 265.714 139.76 266.978 139.76H272.522C272.874 139.76 273.05 139.928 273.05 140.264V151.496C273.05 151.832 272.874 152 272.522 152H270.506C270.17 152 270.002 151.832 270.002 151.496V150.704H269.906C269.73 151.136 269.418 151.464 268.97 151.688C268.522 151.896 268.05 152 267.554 152ZM270.002 147.536V142.664C270.002 142.488 269.906 142.4 269.714 142.4H267.458C266.946 142.4 266.586 142.512 266.378 142.736C266.17 142.944 266.066 143.304 266.066 143.816V147.944C266.066 148.456 266.17 148.824 266.378 149.048C266.586 149.256 266.946 149.36 267.458 149.36H268.346C269.45 149.36 270.002 148.752 270.002 147.536ZM275.943 142.4H274.983C274.791 142.4 274.655 142.368 274.575 142.304C274.511 142.24 274.479 142.112 274.479 141.92V140.264C274.479 139.928 274.647 139.76 274.983 139.76H275.943C276.119 139.76 276.207 139.672 276.207 139.496V137.216C276.207 136.88 276.383 136.712 276.735 136.712H278.751C279.087 136.712 279.255 136.88 279.255 137.216V139.496C279.255 139.672 279.351 139.76 279.543 139.76H281.415C281.751 139.76 281.919 139.928 281.919 140.264V141.92C281.919 142.096 281.879 142.224 281.799 142.304C281.735 142.368 281.607 142.4 281.415 142.4H279.543C279.351 142.4 279.255 142.488 279.255 142.664V147.968C279.255 148.464 279.367 148.824 279.591 149.048C279.815 149.256 280.183 149.36 280.695 149.36H281.655C281.991 149.36 282.159 149.528 282.159 149.864V151.52C282.159 151.696 282.119 151.824 282.039 151.904C281.975 151.968 281.847 152 281.655 152H280.191C278.927 152 277.943 151.664 277.239 150.992C276.551 150.32 276.207 149.36 276.207 148.112V142.664C276.207 142.488 276.119 142.4 275.943 142.4ZM284.26 137.696V135.608C284.26 135.288 284.42 135.128 284.74 135.128H286.828C287.148 135.128 287.308 135.28 287.308 135.584V137.696C287.308 138.016 287.148 138.176 286.828 138.176H284.74C284.42 138.176 284.26 138.016 284.26 137.696ZM284.26 151.496V140.264C284.26 139.928 284.42 139.76 284.74 139.76H286.804C287.14 139.76 287.308 139.928 287.308 140.264V151.496C287.308 151.704 287.268 151.84 287.188 151.904C287.124 151.968 287.004 152 286.828 152H284.764C284.428 152 284.26 151.832 284.26 151.496ZM295.926 152H293.79C292.526 152 291.55 151.664 290.862 150.992C290.174 150.32 289.83 149.352 289.83 148.088V143.672C289.83 142.408 290.174 141.44 290.862 140.768C291.55 140.096 292.526 139.76 293.79 139.76H295.926C297.174 139.76 298.142 140.104 298.83 140.792C299.534 141.464 299.886 142.424 299.886 143.672V148.088C299.886 149.336 299.534 150.304 298.83 150.992C298.142 151.664 297.174 152 295.926 152ZM294.246 149.384H295.47C295.982 149.384 296.342 149.28 296.55 149.072C296.774 148.864 296.886 148.504 296.886 147.992V143.768C296.886 143.256 296.774 142.896 296.55 142.688C296.342 142.48 295.982 142.376 295.47 142.376H294.246C293.734 142.376 293.374 142.48 293.166 142.688C292.958 142.896 292.854 143.256 292.854 143.768V147.992C292.854 148.504 292.958 148.864 293.166 149.072C293.374 149.28 293.734 149.384 294.246 149.384ZM304.825 152H302.785C302.449 152 302.281 151.832 302.281 151.496V140.264C302.281 139.928 302.449 139.76 302.785 139.76H304.825C305.161 139.76 305.329 139.928 305.329 140.264V141.056H305.425C305.777 140.192 306.561 139.76 307.777 139.76H308.545C311.057 139.76 312.313 141.064 312.313 143.672V151.496C312.313 151.832 312.137 152 311.785 152H309.769C309.433 152 309.265 151.832 309.265 151.496V143.816C309.265 143.304 309.153 142.944 308.929 142.736C308.721 142.512 308.361 142.4 307.849 142.4H306.985C305.881 142.4 305.329 143.008 305.329 144.224V151.496C305.329 151.832 305.161 152 304.825 152Z" fill="#5A5A5A"/>
<path d="M67.824 212H65.28C64.016 212 63.04 211.664 62.352 210.992C61.664 210.32 61.32 209.352 61.32 208.088V200.48C61.32 199.216 61.664 198.248 62.352 197.576C63.04 196.904 64.016 196.568 65.28 196.568H67.824C69.072 196.568 70.04 196.912 70.728 197.6C71.416 198.272 71.76 199.232 71.76 200.48V201.2C71.76 201.552 71.592 201.728 71.256 201.728H69.216C68.88 201.728 68.712 201.552 68.712 201.2V200.624C68.712 200.112 68.608 199.752 68.4 199.544C68.192 199.32 67.832 199.208 67.32 199.208H65.76C65.264 199.208 64.904 199.32 64.68 199.544C64.472 199.752 64.368 200.112 64.368 200.624V207.944C64.368 208.456 64.472 208.824 64.68 209.048C64.904 209.256 65.264 209.36 65.76 209.36H67.32C67.832 209.36 68.192 209.256 68.4 209.048C68.608 208.824 68.712 208.456 68.712 207.944V206.432C68.712 206.256 68.624 206.168 68.448 206.168H67.008C66.672 206.168 66.504 206 66.504 205.664V204.032C66.504 203.696 66.672 203.528 67.008 203.528H71.208C71.576 203.528 71.76 203.712 71.76 204.08V208.088C71.76 209.336 71.416 210.304 70.728 210.992C70.04 211.664 69.072 212 67.824 212ZM83.4221 212H78.1181C76.8541 212 75.8781 211.664 75.1901 210.992C74.5021 210.32 74.1581 209.352 74.1581 208.088V203.672C74.1581 202.408 74.5021 201.44 75.1901 200.768C75.8781 200.096 76.8541 199.76 78.1181 199.76H80.0141C81.2781 199.76 82.2541 200.096 82.9421 200.768C83.6301 201.44 83.9741 202.408 83.9741 203.672V206.72C83.9741 207.056 83.8061 207.224 83.4701 207.224H77.4461C77.2541 207.224 77.1581 207.312 77.1581 207.488V208.016C77.1581 208.512 77.2621 208.872 77.4701 209.096C77.6941 209.304 78.0621 209.408 78.5741 209.408H83.4221C83.7581 209.408 83.9261 209.584 83.9261 209.936V211.52C83.9261 211.696 83.8861 211.824 83.8061 211.904C83.7421 211.968 83.6141 212 83.4221 212ZM77.4461 205.184H80.7101C80.8861 205.184 80.9741 205.096 80.9741 204.92V203.768C80.9741 203.256 80.8701 202.896 80.6621 202.688C80.4541 202.48 80.0941 202.376 79.5821 202.376H78.5741C78.0621 202.376 77.7021 202.48 77.4941 202.688C77.2861 202.896 77.1821 203.256 77.1821 203.768V204.92C77.1821 205.096 77.2701 205.184 77.4461 205.184ZM86.5215 202.4H85.5615C85.3695 202.4 85.2335 202.368 85.1535 202.304C85.0895 202.24 85.0575 202.112 85.0575 201.92V200.264C85.0575 199.928 85.2255 199.76 85.5615 199.76H86.5215C86.6975 199.76 86.7855 199.672 86.7855 199.496V197.216C86.7855 196.88 86.9615 196.712 87.3135 196.712H89.3295C89.6655 196.712 89.8335 196.88 89.8335 197.216V199.496C89.8335 199.672 89.9295 199.76 90.1215 199.76H91.9935C92.3295 199.76 92.4975 199.928 92.4975 200.264V201.92C92.4975 202.096 92.4575 202.224 92.3775 202.304C92.3135 202.368 92.1855 202.4 91.9935 202.4H90.1215C89.9295 202.4 89.8335 202.488 89.8335 202.664V207.968C89.8335 208.464 89.9455 208.824 90.1695 209.048C90.3935 209.256 90.7615 209.36 91.2735 209.36H92.2335C92.5695 209.36 92.7375 209.528 92.7375 209.864V211.52C92.7375 211.696 92.6975 211.824 92.6175 211.904C92.5535 211.968 92.4255 212 92.2335 212H90.7695C89.5055 212 88.5215 211.664 87.8175 210.992C87.1295 210.32 86.7855 209.36 86.7855 208.112V202.664C86.7855 202.488 86.6975 202.4 86.5215 202.4ZM102.776 212H100.736C100.4 212 100.232 211.832 100.232 211.496V197.072C100.232 196.736 100.4 196.568 100.736 196.568H106.448C107.696 196.568 108.672 196.912 109.376 197.6C110.08 198.288 110.432 199.256 110.432 200.504V202.376C110.432 204.184 109.72 205.384 108.296 205.976V206.072L110.864 211.424C111.008 211.808 110.872 212 110.456 212H108.512C108.224 212 108.016 211.968 107.888 211.904C107.76 211.84 107.656 211.704 107.576 211.496L105.176 206.312H103.568C103.376 206.312 103.28 206.4 103.28 206.576V211.496C103.28 211.832 103.112 212 102.776 212ZM103.544 203.864H105.896C106.408 203.864 106.784 203.76 107.024 203.552C107.264 203.328 107.384 202.976 107.384 202.496V200.624C107.384 200.128 107.264 199.768 107.024 199.544C106.784 199.32 106.408 199.208 105.896 199.208H103.544C103.368 199.208 103.28 199.296 103.28 199.472V203.6C103.28 203.776 103.368 203.864 103.544 203.864ZM122.141 212H116.837C115.573 212 114.597 211.664 113.909 210.992C113.221 210.32 112.877 209.352 112.877 208.088V203.672C112.877 202.408 113.221 201.44 113.909 200.768C114.597 200.096 115.573 199.76 116.837 199.76H118.733C119.997 199.76 120.973 200.096 121.661 200.768C122.349 201.44 122.693 202.408 122.693 203.672V206.72C122.693 207.056 122.525 207.224 122.189 207.224H116.165C115.973 207.224 115.877 207.312 115.877 207.488V208.016C115.877 208.512 115.981 208.872 116.189 209.096C116.413 209.304 116.781 209.408 117.293 209.408H122.141C122.477 209.408 122.645 209.584 122.645 209.936V211.52C122.645 211.696 122.605 211.824 122.525 211.904C122.461 211.968 122.333 212 122.141 212ZM116.165 205.184H119.429C119.605 205.184 119.693 205.096 119.693 204.92V203.768C119.693 203.256 119.589 202.896 119.381 202.688C119.173 202.48 118.813 202.376 118.301 202.376H117.293C116.781 202.376 116.421 202.48 116.213 202.688C116.005 202.896 115.901 203.256 115.901 203.768V204.92C115.901 205.096 115.989 205.184 116.165 205.184ZM129.272 212H128.696C127.432 212 126.456 211.664 125.768 210.992C125.08 210.32 124.736 209.352 124.736 208.088V203.672C124.736 202.408 125.08 201.44 125.768 200.768C126.456 200.096 127.432 199.76 128.696 199.76H134.24C134.592 199.76 134.768 199.928 134.768 200.264V211.496C134.768 211.832 134.592 212 134.24 212H132.224C131.888 212 131.72 211.832 131.72 211.496V210.704H131.624C131.448 211.136 131.136 211.464 130.688 211.688C130.24 211.896 129.768 212 129.272 212ZM131.72 207.536V202.664C131.72 202.488 131.624 202.4 131.432 202.4H129.176C128.664 202.4 128.304 202.512 128.096 202.736C127.888 202.944 127.784 203.304 127.784 203.816V207.944C127.784 208.456 127.888 208.824 128.096 209.048C128.304 209.256 128.664 209.36 129.176 209.36H130.064C131.168 209.36 131.72 208.752 131.72 207.536ZM141.886 212H140.902C139.67 212 138.734 211.664 138.094 210.992C137.47 210.32 137.158 209.352 137.158 208.088V203.672C137.158 202.408 137.47 201.44 138.094 200.768C138.734 200.096 139.67 199.76 140.902 199.76H141.886C142.382 199.76 142.854 199.872 143.302 200.096C143.75 200.304 144.062 200.624 144.238 201.056H144.334V195.632C144.334 195.296 144.502 195.128 144.838 195.128H146.878C147.214 195.128 147.382 195.296 147.382 195.632V211.496C147.382 211.832 147.214 212 146.878 212H144.838C144.502 212 144.334 211.832 144.334 211.496V210.704H144.238C144.062 211.136 143.75 211.464 143.302 211.688C142.854 211.896 142.382 212 141.886 212ZM144.334 207.536V204.224C144.334 203.008 143.782 202.4 142.678 202.4H141.598C141.086 202.4 140.726 202.512 140.518 202.736C140.31 202.944 140.206 203.304 140.206 203.816V207.944C140.206 208.456 140.31 208.824 140.518 209.048C140.726 209.256 141.086 209.36 141.598 209.36H142.678C143.782 209.36 144.334 208.752 144.334 207.536ZM152.023 216.056H150.487C150.167 216.056 150.007 215.88 150.007 215.528V213.92C150.007 213.568 150.167 213.392 150.487 213.392H150.991C151.999 213.392 152.679 213.248 153.031 212.96C153.399 212.688 153.679 212.152 153.871 211.352H152.599C152.295 211.352 152.095 211.184 151.999 210.848L149.191 200.264C149.095 199.928 149.215 199.76 149.551 199.76H151.687C152.007 199.76 152.207 199.928 152.287 200.264L154.351 209.12H154.447L156.487 200.264C156.551 199.928 156.751 199.76 157.087 199.76H159.103C159.503 199.76 159.663 199.936 159.583 200.288L156.655 212C156.303 213.328 155.759 214.336 155.023 215.024C154.287 215.712 153.287 216.056 152.023 216.056ZM166.865 202.4H165.905C165.713 202.4 165.577 202.368 165.497 202.304C165.433 202.24 165.401 202.112 165.401 201.92V200.264C165.401 199.928 165.569 199.76 165.905 199.76H166.865C167.041 199.76 167.129 199.672 167.129 199.496V197.216C167.129 196.88 167.305 196.712 167.657 196.712H169.673C170.009 196.712 170.177 196.88 170.177 197.216V199.496C170.177 199.672 170.273 199.76 170.465 199.76H172.337C172.673 199.76 172.841 199.928 172.841 200.264V201.92C172.841 202.096 172.801 202.224 172.721 202.304C172.657 202.368 172.529 202.4 172.337 202.4H170.465C170.273 202.4 170.177 202.488 170.177 202.664V207.968C170.177 208.464 170.289 208.824 170.513 209.048C170.737 209.256 171.105 209.36 171.617 209.36H172.577C172.913 209.36 173.081 209.528 173.081 209.864V211.52C173.081 211.696 173.041 211.824 172.961 211.904C172.897 211.968 172.769 212 172.577 212H171.113C169.849 212 168.865 211.664 168.161 210.992C167.473 210.32 167.129 209.36 167.129 208.112V202.664C167.129 202.488 167.041 202.4 166.865 202.4ZM180.918 212H178.782C177.518 212 176.542 211.664 175.854 210.992C175.166 210.32 174.822 209.352 174.822 208.088V203.672C174.822 202.408 175.166 201.44 175.854 200.768C176.542 200.096 177.518 199.76 178.782 199.76H180.918C182.166 199.76 183.134 200.104 183.822 200.792C184.526 201.464 184.878 202.424 184.878 203.672V208.088C184.878 209.336 184.526 210.304 183.822 210.992C183.134 211.664 182.166 212 180.918 212ZM179.238 209.384H180.462C180.974 209.384 181.334 209.28 181.542 209.072C181.766 208.864 181.878 208.504 181.878 207.992V203.768C181.878 203.256 181.766 202.896 181.542 202.688C181.334 202.48 180.974 202.376 180.462 202.376H179.238C178.726 202.376 178.366 202.48 178.158 202.688C177.95 202.896 177.846 203.256 177.846 203.768V207.992C177.846 208.504 177.95 208.864 178.158 209.072C178.366 209.28 178.726 209.384 179.238 209.384ZM192.403 208.064V207.584C192.403 207.248 192.571 207.08 192.907 207.08H194.947C195.283 207.08 195.451 207.248 195.451 207.584V207.776C195.451 208.384 195.571 208.8 195.811 209.024C196.051 209.248 196.491 209.36 197.131 209.36H198.259C198.883 209.36 199.315 209.24 199.555 209C199.811 208.76 199.939 208.312 199.939 207.656V207.368C199.939 206.904 199.747 206.552 199.363 206.312C198.995 206.056 198.531 205.904 197.971 205.856C197.411 205.808 196.803 205.72 196.147 205.592C195.507 205.448 194.907 205.272 194.347 205.064C193.787 204.84 193.315 204.416 192.931 203.792C192.563 203.152 192.379 202.336 192.379 201.344V200.504C192.379 199.256 192.731 198.288 193.435 197.6C194.139 196.912 195.115 196.568 196.363 196.568H198.763C200.027 196.568 201.011 196.912 201.715 197.6C202.419 198.288 202.771 199.256 202.771 200.504V200.96C202.771 201.296 202.603 201.464 202.267 201.464H200.227C199.891 201.464 199.723 201.296 199.723 200.96V200.816C199.723 200.192 199.603 199.768 199.363 199.544C199.123 199.32 198.683 199.208 198.043 199.208H197.107C196.451 199.208 196.003 199.336 195.763 199.592C195.539 199.832 195.427 200.312 195.427 201.032V201.488C195.427 202.24 196.083 202.672 197.395 202.784C198.755 202.896 199.963 203.168 201.019 203.6C201.579 203.84 202.043 204.272 202.411 204.896C202.795 205.504 202.987 206.288 202.987 207.248V208.064C202.987 209.312 202.635 210.28 201.931 210.968C201.227 211.656 200.251 212 199.003 212H196.387C195.139 212 194.163 211.656 193.459 210.968C192.755 210.28 192.403 209.312 192.403 208.064ZM214.508 212H209.204C207.94 212 206.964 211.664 206.276 210.992C205.588 210.32 205.244 209.352 205.244 208.088V203.672C205.244 202.408 205.588 201.44 206.276 200.768C206.964 200.096 207.94 199.76 209.204 199.76H211.1C212.364 199.76 213.34 200.096 214.028 200.768C214.716 201.44 215.06 202.408 215.06 203.672V206.72C215.06 207.056 214.892 207.224 214.556 207.224H208.532C208.34 207.224 208.244 207.312 208.244 207.488V208.016C208.244 208.512 208.348 208.872 208.556 209.096C208.78 209.304 209.148 209.408 209.66 209.408H214.508C214.844 209.408 215.012 209.584 215.012 209.936V211.52C215.012 211.696 214.972 211.824 214.892 211.904C214.828 211.968 214.7 212 214.508 212ZM208.532 205.184H211.796C211.972 205.184 212.06 205.096 212.06 204.92V203.768C212.06 203.256 211.956 202.896 211.748 202.688C211.54 202.48 211.18 202.376 210.668 202.376H209.66C209.148 202.376 208.788 202.48 208.58 202.688C208.372 202.896 208.268 203.256 208.268 203.768V204.92C208.268 205.096 208.356 205.184 208.532 205.184ZM220.007 212H217.967C217.631 212 217.463 211.832 217.463 211.496V195.632C217.463 195.296 217.631 195.128 217.967 195.128H220.007C220.343 195.128 220.511 195.296 220.511 195.632V211.496C220.511 211.832 220.343 212 220.007 212ZM225.937 212H223.897C223.561 212 223.393 211.832 223.393 211.496V195.632C223.393 195.296 223.561 195.128 223.897 195.128H225.937C226.273 195.128 226.441 195.296 226.441 195.632V211.496C226.441 211.832 226.273 212 225.937 212ZM238.916 199.76H240.836C241.028 199.76 241.156 199.8 241.22 199.88C241.3 199.944 241.34 200.064 241.34 200.24V201.896C241.34 202.232 241.172 202.4 240.836 202.4H238.916C238.74 202.4 238.652 202.488 238.652 202.664V211.496C238.652 211.832 238.476 212 238.124 212H236.108C235.772 212 235.604 211.832 235.604 211.496V202.664C235.604 202.488 235.508 202.4 235.316 202.4H234.212C233.876 202.4 233.708 202.232 233.708 201.896V200.24C233.708 200.048 233.74 199.92 233.804 199.856C233.884 199.792 234.02 199.76 234.212 199.76H235.316C235.508 199.76 235.604 199.672 235.604 199.496V199.04C235.604 197.776 235.932 196.808 236.588 196.136C237.26 195.464 238.228 195.128 239.492 195.128H240.86C241.052 195.128 241.18 195.168 241.244 195.248C241.308 195.312 241.34 195.432 241.34 195.608V197.264C241.34 197.6 241.18 197.768 240.86 197.768H239.972C239.46 197.768 239.108 197.88 238.916 198.104C238.74 198.312 238.652 198.672 238.652 199.184V199.496C238.652 199.672 238.74 199.76 238.916 199.76ZM245.505 212H243.465C243.129 212 242.961 211.832 242.961 211.496V200.264C242.961 199.928 243.129 199.76 243.465 199.76H245.505C245.841 199.76 246.009 199.928 246.009 200.264V201.08H246.105C246.281 200.648 246.593 200.32 247.041 200.096C247.489 199.872 247.961 199.76 248.457 199.76H249.321C249.641 199.76 249.801 199.928 249.801 200.264V201.92C249.801 202.112 249.761 202.248 249.681 202.328C249.617 202.392 249.497 202.416 249.321 202.4H247.665C246.561 202.4 246.009 203.024 246.009 204.272V211.496C246.009 211.832 245.841 212 245.505 212ZM257.184 212H255.048C253.784 212 252.808 211.664 252.12 210.992C251.432 210.32 251.088 209.352 251.088 208.088V203.672C251.088 202.408 251.432 201.44 252.12 200.768C252.808 200.096 253.784 199.76 255.048 199.76H257.184C258.432 199.76 259.4 200.104 260.088 200.792C260.792 201.464 261.144 202.424 261.144 203.672V208.088C261.144 209.336 260.792 210.304 260.088 210.992C259.4 211.664 258.432 212 257.184 212ZM255.504 209.384H256.728C257.24 209.384 257.6 209.28 257.808 209.072C258.032 208.864 258.144 208.504 258.144 207.992V203.768C258.144 203.256 258.032 202.896 257.808 202.688C257.6 202.48 257.24 202.376 256.728 202.376H255.504C254.992 202.376 254.632 202.48 254.424 202.688C254.216 202.896 254.112 203.256 254.112 203.768V207.992C254.112 208.504 254.216 208.864 254.424 209.072C254.632 209.28 254.992 209.384 255.504 209.384ZM266.083 212H264.043C263.707 212 263.539 211.832 263.539 211.496V200.264C263.539 199.928 263.707 199.76 264.043 199.76H266.083C266.419 199.76 266.587 199.928 266.587 200.264V201.056H266.683C266.875 200.672 267.195 200.36 267.643 200.12C268.107 199.88 268.635 199.76 269.227 199.76H269.899C271.291 199.76 272.291 200.272 272.899 201.296C273.443 200.272 274.379 199.76 275.707 199.76H276.403C277.635 199.76 278.563 200.096 279.187 200.768C279.827 201.44 280.147 202.408 280.147 203.672V211.496C280.147 211.832 279.979 212 279.643 212H277.603C277.267 212 277.099 211.832 277.099 211.496V203.816C277.099 203.304 276.995 202.944 276.787 202.736C276.579 202.512 276.219 202.4 275.707 202.4H275.107C274.003 202.4 273.451 203.016 273.451 204.248V211.496C273.451 211.832 273.275 212 272.923 212H270.907C270.571 212 270.403 211.832 270.403 211.496V203.816C270.403 203.304 270.291 202.944 270.067 202.736C269.859 202.512 269.499 202.4 268.987 202.4H268.243C267.139 202.4 266.587 203.008 266.587 204.224V211.496C266.587 211.832 266.419 212 266.083 212ZM289.953 216.056H288.417C288.097 216.056 287.937 215.88 287.937 215.528V213.92C287.937 213.568 288.097 213.392 288.417 213.392H288.921C289.929 213.392 290.609 213.248 290.961 212.96C291.329 212.688 291.609 212.152 291.801 211.352H290.529C290.225 211.352 290.025 211.184 289.929 210.848L287.121 200.264C287.025 199.928 287.145 199.76 287.481 199.76H289.617C289.937 199.76 290.137 199.928 290.217 200.264L292.281 209.12H292.377L294.417 200.264C294.481 199.928 294.681 199.76 295.017 199.76H297.033C297.433 199.76 297.593 199.936 297.513 200.288L294.585 212C294.233 213.328 293.689 214.336 292.953 215.024C292.217 215.712 291.217 216.056 289.953 216.056ZM305.114 212H302.978C301.714 212 300.738 211.664 300.05 210.992C299.362 210.32 299.018 209.352 299.018 208.088V203.672C299.018 202.408 299.362 201.44 300.05 200.768C300.738 200.096 301.714 199.76 302.978 199.76H305.114C306.362 199.76 307.33 200.104 308.018 200.792C308.722 201.464 309.074 202.424 309.074 203.672V208.088C309.074 209.336 308.722 210.304 308.018 210.992C307.33 211.664 306.362 212 305.114 212ZM303.434 209.384H304.658C305.17 209.384 305.53 209.28 305.738 209.072C305.962 208.864 306.074 208.504 306.074 207.992V203.768C306.074 203.256 305.962 202.896 305.738 202.688C305.53 202.48 305.17 202.376 304.658 202.376H303.434C302.922 202.376 302.562 202.48 302.354 202.688C302.146 202.896 302.042 203.256 302.042 203.768V207.992C302.042 208.504 302.146 208.864 302.354 209.072C302.562 209.28 302.922 209.384 303.434 209.384ZM315.884 212H315.092C313.86 212 312.924 211.664 312.284 210.992C311.66 210.32 311.348 209.352 311.348 208.088V200.264C311.348 199.928 311.516 199.76 311.852 199.76H313.892C314.228 199.76 314.396 199.928 314.396 200.264V207.944C314.396 208.456 314.5 208.824 314.708 209.048C314.932 209.256 315.292 209.36 315.788 209.36H316.676C317.78 209.36 318.332 208.752 318.332 207.536V200.264C318.332 199.928 318.5 199.76 318.836 199.76H320.852C321.204 199.76 321.38 199.928 321.38 200.264V211.496C321.38 211.832 321.204 212 320.852 212H318.836C318.5 212 318.332 211.832 318.332 211.496V210.704H318.236C318.06 211.136 317.748 211.464 317.3 211.688C316.852 211.896 316.38 212 315.884 212ZM326.575 212H324.535C324.199 212 324.031 211.832 324.031 211.496V200.264C324.031 199.928 324.199 199.76 324.535 199.76H326.575C326.911 199.76 327.079 199.928 327.079 200.264V201.08H327.175C327.351 200.648 327.663 200.32 328.111 200.096C328.559 199.872 329.031 199.76 329.527 199.76H330.391C330.711 199.76 330.871 199.928 330.871 200.264V201.92C330.871 202.112 330.831 202.248 330.751 202.328C330.687 202.392 330.567 202.416 330.391 202.4H328.735C327.631 202.4 327.079 203.024 327.079 204.272V211.496C327.079 211.832 326.911 212 326.575 212ZM346.264 212H338.416C338.08 212 337.912 211.832 337.912 211.496V197.072C337.912 196.736 338.08 196.568 338.416 196.568H346.264C346.584 196.568 346.744 196.736 346.744 197.072V198.704C346.744 199.04 346.584 199.208 346.264 199.208H341.248C341.056 199.208 340.96 199.296 340.96 199.472V202.592C340.96 202.768 341.056 202.856 341.248 202.856H345.352C345.688 202.856 345.856 203.024 345.856 203.36V204.992C345.856 205.328 345.688 205.496 345.352 205.496H341.248C341.056 205.496 340.96 205.584 340.96 205.76V209.096C340.96 209.272 341.056 209.36 341.248 209.36H346.264C346.584 209.36 346.744 209.528 346.744 209.864V211.496C346.744 211.832 346.584 212 346.264 212ZM353.86 205.568H349.3C348.964 205.568 348.796 205.4 348.796 205.064V203.648C348.796 203.296 348.964 203.12 349.3 203.12H353.86C354.196 203.12 354.364 203.296 354.364 203.648V205.064C354.364 205.4 354.196 205.568 353.86 205.568ZM356.489 208.064V207.584C356.489 207.248 356.657 207.08 356.993 207.08H359.033C359.369 207.08 359.537 207.248 359.537 207.584V207.776C359.537 208.384 359.657 208.8 359.897 209.024C360.137 209.248 360.577 209.36 361.217 209.36H362.345C362.969 209.36 363.401 209.24 363.641 209C363.897 208.76 364.025 208.312 364.025 207.656V207.368C364.025 206.904 363.833 206.552 363.449 206.312C363.081 206.056 362.617 205.904 362.057 205.856C361.497 205.808 360.889 205.72 360.233 205.592C359.593 205.448 358.993 205.272 358.433 205.064C357.873 204.84 357.401 204.416 357.017 203.792C356.649 203.152 356.465 202.336 356.465 201.344V200.504C356.465 199.256 356.817 198.288 357.521 197.6C358.225 196.912 359.201 196.568 360.449 196.568H362.849C364.113 196.568 365.097 196.912 365.801 197.6C366.505 198.288 366.857 199.256 366.857 200.504V200.96C366.857 201.296 366.689 201.464 366.353 201.464H364.313C363.977 201.464 363.809 201.296 363.809 200.96V200.816C363.809 200.192 363.689 199.768 363.449 199.544C363.209 199.32 362.769 199.208 362.129 199.208H361.193C360.537 199.208 360.089 199.336 359.849 199.592C359.625 199.832 359.513 200.312 359.513 201.032V201.488C359.513 202.24 360.169 202.672 361.48 202.784C362.841 202.896 364.049 203.168 365.105 203.6C365.665 203.84 366.129 204.272 366.497 204.896C366.881 205.504 367.073 206.288 367.073 207.248V208.064C367.073 209.312 366.721 210.28 366.017 210.968C365.313 211.656 364.337 212 363.089 212H360.473C359.225 212 358.249 211.656 357.545 210.968C356.841 210.28 356.489 209.312 356.489 208.064ZM372.114 212H370.074C369.738 212 369.57 211.832 369.57 211.496V195.632C369.57 195.296 369.738 195.128 370.074 195.128H372.114C372.45 195.128 372.618 195.296 372.618 195.632V201.056H372.714C373.066 200.192 373.85 199.76 375.066 199.76H375.834C378.346 199.76 379.602 201.064 379.602 203.672V211.496C379.602 211.832 379.426 212 379.074 212H377.058C376.722 212 376.554 211.832 376.554 211.496V203.816C376.554 203.304 376.442 202.944 376.218 202.736C376.01 202.512 375.65 202.4 375.138 202.4H374.274C373.17 202.4 372.618 203.008 372.618 204.224V211.496C372.618 211.832 372.45 212 372.114 212ZM387.989 212H385.853C384.589 212 383.613 211.664 382.925 210.992C382.237 210.32 381.893 209.352 381.893 208.088V203.672C381.893 202.408 382.237 201.44 382.925 200.768C383.613 200.096 384.589 199.76 385.853 199.76H387.989C389.237 199.76 390.205 200.104 390.893 200.792C391.597 201.464 391.949 202.424 391.949 203.672V208.088C391.949 209.336 391.597 210.304 390.893 210.992C390.205 211.664 389.237 212 387.989 212ZM386.309 209.384H387.533C388.045 209.384 388.405 209.28 388.613 209.072C388.837 208.864 388.949 208.504 388.949 207.992V203.768C388.949 203.256 388.837 202.896 388.613 202.688C388.405 202.48 388.045 202.376 387.533 202.376H386.309C385.797 202.376 385.437 202.48 385.229 202.688C385.021 202.896 384.917 203.256 384.917 203.768V207.992C384.917 208.504 385.021 208.864 385.229 209.072C385.437 209.28 385.797 209.384 386.309 209.384ZM396.887 215.264H394.847C394.511 215.264 394.343 215.104 394.343 214.784V200.264C394.343 199.928 394.511 199.76 394.847 199.76H396.887C397.223 199.76 397.391 199.928 397.391 200.264V201.056H397.487C397.663 200.624 397.975 200.304 398.423 200.096C398.871 199.872 399.343 199.76 399.839 199.76H400.823C402.055 199.76 402.983 200.096 403.607 200.768C404.247 201.44 404.567 202.408 404.567 203.672V208.088C404.567 209.352 404.247 210.32 403.607 210.992C402.983 211.664 402.055 212 400.823 212H399.839C399.343 212 398.871 211.896 398.423 211.688C397.975 211.464 397.663 211.136 397.487 210.704H397.391V214.784C397.391 215.104 397.223 215.264 396.887 215.264ZM399.047 209.36H400.103C400.615 209.36 400.975 209.256 401.183 209.048C401.407 208.824 401.519 208.456 401.519 207.944V203.816C401.519 203.304 401.407 202.944 401.183 202.736C400.975 202.512 400.615 202.4 400.103 202.4H399.047C397.943 202.4 397.391 203.008 397.391 204.224V207.536C397.391 208.752 397.943 209.36 399.047 209.36ZM411.416 199.76H413.336C413.528 199.76 413.656 199.8 413.72 199.88C413.8 199.944 413.84 200.064 413.84 200.24V201.896C413.84 202.232 413.672 202.4 413.336 202.4H411.416C411.24 202.4 411.152 202.488 411.152 202.664V211.496C411.152 211.832 410.976 212 410.624 212H408.608C408.272 212 408.104 211.832 408.104 211.496V202.664C408.104 202.488 408.008 202.4 407.816 202.4H406.712C406.376 202.4 406.208 202.232 406.208 201.896V200.24C406.208 200.048 406.24 199.92 406.304 199.856C406.384 199.792 406.52 199.76 406.712 199.76H407.816C408.008 199.76 408.104 199.672 408.104 199.496V199.04C408.104 197.776 408.432 196.808 409.088 196.136C409.76 195.464 410.728 195.128 411.992 195.128H413.36C413.552 195.128 413.68 195.168 413.744 195.248C413.808 195.312 413.84 195.432 413.84 195.608V197.264C413.84 197.6 413.68 197.768 413.36 197.768H412.472C411.96 197.768 411.608 197.88 411.416 198.104C411.24 198.312 411.152 198.672 411.152 199.184V199.496C411.152 199.672 411.24 199.76 411.416 199.76ZM418.005 212H415.965C415.629 212 415.461 211.832 415.461 211.496V200.264C415.461 199.928 415.629 199.76 415.965 199.76H418.005C418.341 199.76 418.509 199.928 418.509 200.264V201.08H418.605C418.781 200.648 419.093 200.32 419.541 200.096C419.989 199.872 420.461 199.76 420.957 199.76H421.821C422.141 199.76 422.301 199.928 422.301 200.264V201.92C422.301 202.112 422.261 202.248 422.181 202.328C422.117 202.392 421.997 202.416 421.821 202.4H420.165C419.061 202.4 418.509 203.024 418.509 204.272V211.496C418.509 211.832 418.341 212 418.005 212ZM429.684 212H427.548C426.284 212 425.308 211.664 424.62 210.992C423.932 210.32 423.588 209.352 423.588 208.088V203.672C423.588 202.408 423.932 201.44 424.62 200.768C425.308 200.096 426.284 199.76 427.548 199.76H429.684C430.932 199.76 431.9 200.104 432.588 200.792C433.292 201.464 433.644 202.424 433.644 203.672V208.088C433.644 209.336 433.292 210.304 432.588 210.992C431.9 211.664 430.932 212 429.684 212ZM428.004 209.384H429.228C429.74 209.384 430.1 209.28 430.308 209.072C430.532 208.864 430.644 208.504 430.644 207.992V203.768C430.644 203.256 430.532 202.896 430.308 202.688C430.1 202.48 429.74 202.376 429.228 202.376H428.004C427.492 202.376 427.132 202.48 426.924 202.688C426.716 202.896 426.612 203.256 426.612 203.768V207.992C426.612 208.504 426.716 208.864 426.924 209.072C427.132 209.28 427.492 209.384 428.004 209.384ZM438.583 212H436.543C436.207 212 436.039 211.832 436.039 211.496V200.264C436.039 199.928 436.207 199.76 436.543 199.76H438.583C438.919 199.76 439.087 199.928 439.087 200.264V201.056H439.183C439.535 200.192 440.319 199.76 441.535 199.76H442.303C444.815 199.76 446.071 201.064 446.071 203.672V211.496C446.071 211.832 445.895 212 445.543 212H443.527C443.191 212 443.023 211.832 443.023 211.496V203.816C443.023 203.304 442.911 202.944 442.687 202.736C442.479 202.512 442.119 202.4 441.607 202.4H440.743C439.639 202.4 439.087 203.008 439.087 204.224V211.496C439.087 211.832 438.919 212 438.583 212ZM448.865 202.4H447.905C447.713 202.4 447.577 202.368 447.497 202.304C447.433 202.24 447.401 202.112 447.401 201.92V200.264C447.401 199.928 447.569 199.76 447.905 199.76H448.865C449.041 199.76 449.129 199.672 449.129 199.496V197.216C449.129 196.88 449.305 196.712 449.657 196.712H451.673C452.009 196.712 452.177 196.88 452.177 197.216V199.496C452.177 199.672 452.273 199.76 452.465 199.76H454.337C454.673 199.76 454.841 199.928 454.841 200.264V201.92C454.841 202.096 454.801 202.224 454.721 202.304C454.657 202.368 454.529 202.4 454.337 202.4H452.465C452.273 202.4 452.177 202.488 452.177 202.664V207.968C452.177 208.464 452.289 208.824 452.513 209.048C452.737 209.256 453.105 209.36 453.617 209.36H454.577C454.913 209.36 455.081 209.528 455.081 209.864V211.52C455.081 211.696 455.041 211.824 454.961 211.904C454.897 211.968 454.769 212 454.577 212H453.113C451.849 212 450.865 211.664 450.161 210.992C449.473 210.32 449.129 209.36 449.129 208.112V202.664C449.129 202.488 449.041 202.4 448.865 202.4Z" fill="#5A5A5A"/>
</svg>
