<svg width="483" height="411" viewBox="0 0 483 411" fill="none" xmlns="http://www.w3.org/2000/svg">
<path d="M202.585 400.645L17.123 293.164C-8.20236 278.514 -4.95948 252.916 24.3809 235.953L181.275 145.897C210.615 129.089 255.089 127.238 280.415 142.042L465.877 249.523C491.202 264.173 487.959 289.771 458.619 306.734L301.725 396.79C272.385 413.598 228.065 415.294 202.585 400.645Z" fill="url(#paint0_linear_117_4061)"/>
<path d="M286.746 210.874V40.1683L157.802 37.701V207.327C157.339 208.715 157.957 210.257 159.656 211.182L218.182 245.724C221.27 247.575 226.521 247.421 230.073 245.416L283.812 215.192C285.974 213.958 286.9 212.416 286.746 210.874Z" fill="url(#paint1_linear_117_4061)"/>
<path d="M218.182 74.2477L159.656 39.7056C156.567 37.8552 157.03 34.9253 160.582 32.9206L214.321 2.5421C217.873 0.537422 223.123 0.383217 226.212 2.23368L284.738 36.7757C287.827 38.6262 287.364 41.5561 283.812 43.5608L230.073 73.7851C226.521 75.944 221.116 76.0982 218.182 74.2477Z" fill="url(#paint2_linear_117_4061)"/>
<path d="M220.035 59.7524L184.209 38.6262C182.356 37.5468 182.665 35.6963 184.827 34.4626L217.719 15.958C219.881 14.7243 223.124 14.5701 224.977 15.8038L260.803 36.9299C262.656 38.0094 262.347 39.8598 260.185 41.0935L227.293 59.5982C225.131 60.6776 221.888 60.8318 220.035 59.7524Z" fill="url(#paint3_linear_117_4061)"/>
<path d="M207.99 194.374C207.99 191.907 206.6 189.131 204.747 188.051L161.2 162.299C160.428 161.837 159.656 161.837 159.038 162.145C158.884 162.145 158.884 162.299 158.729 162.299L147.92 168.776L195.482 203.626L206.446 197.15C206.755 197.15 206.909 196.995 207.064 196.687C207.681 196.224 207.99 195.453 207.99 194.374Z" fill="url(#paint4_linear_117_4061)"/>
<path d="M193.629 203.318L150.082 177.565C148.228 176.486 146.839 173.71 146.839 171.243C146.839 168.776 148.383 167.696 150.236 168.776L193.783 194.528C195.636 195.608 197.026 198.383 197.026 200.851C196.872 203.318 195.482 204.397 193.629 203.318Z" fill="url(#paint5_linear_117_4061)"/>
<path d="M207.836 175.252C207.836 172.785 206.446 170.009 204.593 168.93L161.046 143.178C160.273 142.715 159.501 142.715 158.884 143.023C158.729 143.023 158.729 143.178 158.575 143.178L147.765 149.654L195.327 184.505L206.292 178.028C206.6 178.028 206.755 177.874 206.909 177.565C207.527 177.103 207.836 176.332 207.836 175.252Z" fill="url(#paint6_linear_117_4061)"/>
<path d="M193.474 184.196L149.927 158.444C148.074 157.365 146.684 154.589 146.684 152.122C146.684 149.654 148.228 148.575 150.081 149.654L193.629 175.407C195.482 176.486 196.872 179.262 196.872 181.729C196.717 184.196 195.173 185.276 193.474 184.196Z" fill="url(#paint7_linear_117_4061)"/>
<path d="M207.99 156.131C207.99 153.664 206.6 150.888 204.747 149.808L161.2 124.056C160.428 123.593 159.656 123.593 159.038 123.902C158.883 123.902 158.883 124.056 158.729 124.056L147.919 130.533L195.482 165.383L206.446 158.907C206.755 158.907 206.909 158.752 207.064 158.444C207.681 157.981 207.99 157.21 207.99 156.131Z" fill="url(#paint8_linear_117_4061)"/>
<path d="M193.474 165.075L149.927 139.322C148.074 138.243 146.684 135.467 146.684 133C146.684 130.533 148.228 129.453 150.081 130.533L193.629 156.285C195.482 157.364 196.872 160.14 196.872 162.607C196.872 165.075 195.327 166.154 193.474 165.075Z" fill="url(#paint9_linear_117_4061)"/>
<path d="M207.99 136.855C207.99 134.388 206.6 131.612 204.747 130.533L161.2 104.78C160.428 104.318 159.656 104.318 159.038 104.626C158.883 104.626 158.883 104.78 158.729 104.78L147.919 111.257L195.482 146.108L206.446 139.631C206.755 139.631 206.909 139.477 207.064 139.168C207.681 138.86 207.99 137.935 207.99 136.855Z" fill="url(#paint10_linear_117_4061)"/>
<path d="M193.474 145.953L149.927 120.201C148.074 119.122 146.684 116.346 146.684 113.879C146.684 111.411 148.228 110.332 150.081 111.411L193.629 137.164C195.482 138.243 196.872 141.019 196.872 143.486C196.872 145.953 195.327 147.033 193.474 145.953Z" fill="url(#paint11_linear_117_4061)"/>
<path d="M208.145 117.734C208.145 115.266 206.755 112.491 204.902 111.411L161.354 85.8131C160.582 85.3505 159.81 85.3505 159.192 85.6589C159.038 85.6589 159.038 85.8131 158.884 85.8131L148.074 92.2898L195.636 127.14L206.6 120.664C206.909 120.664 207.064 120.509 207.218 120.201C207.681 119.738 208.145 118.813 208.145 117.734Z" fill="url(#paint12_linear_117_4061)"/>
<path d="M193.629 126.832L150.082 101.079C148.228 100 146.839 97.2243 146.839 94.757C146.839 92.2897 148.383 91.2103 150.236 92.2897L193.783 118.042C195.636 119.122 197.026 121.897 197.026 124.365C197.026 126.832 195.482 127.911 193.629 126.832Z" fill="url(#paint13_linear_117_4061)"/>
<path d="M208.145 98.6122C208.145 96.1449 206.755 93.3692 204.902 92.2898L161.354 66.5374C160.582 66.0748 159.81 66.0748 159.192 66.3832C159.038 66.3832 159.038 66.5374 158.884 66.5374L148.074 73.0141L195.636 107.865L206.6 101.388C206.909 101.388 207.064 101.234 207.218 100.925C207.681 100.617 208.145 99.6916 208.145 98.6122Z" fill="url(#paint14_linear_117_4061)"/>
<path d="M193.629 107.71L150.082 81.958C148.228 80.8786 146.839 78.1029 146.839 75.6356C146.839 73.1683 148.383 72.0888 150.236 73.1683L193.783 98.9206C195.636 100 197.026 102.776 197.026 105.243C197.026 107.71 195.482 108.79 193.629 107.71Z" fill="url(#paint15_linear_117_4061)"/>
<path d="M184.209 38.6262L190.232 42.1729L217.719 26.7524C219.881 25.5187 223.124 25.3645 224.977 26.5982L254.78 44.1776L260.185 41.0935C262.347 39.8598 262.656 38.0094 260.803 36.9299L224.977 15.6496C223.124 14.5701 219.881 14.7243 217.719 15.8038L184.827 34.3084C182.51 35.5421 182.356 37.5468 184.209 38.6262Z" fill="url(#paint16_linear_117_4061)"/>
<path d="M277.481 75.3271L236.713 98.9206V92.5982L277.481 69.0047V75.3271Z" fill="url(#paint17_linear_117_4061)"/>
<path d="M277.481 87.5094L264.972 94.757V88.4346L277.481 81.187V87.5094Z" fill="url(#paint18_linear_117_4061)"/>
<path d="M260.185 97.5328L236.713 111.103V104.78L260.185 91.2103V97.5328Z" fill="url(#paint19_linear_117_4061)"/>
<path d="M277.481 99.229L248.449 116.037V109.715L277.481 92.9066V99.229Z" fill="url(#paint20_linear_117_4061)"/>
<path d="M243.662 118.813L236.713 122.822V116.346L243.662 112.491V118.813Z" fill="url(#paint21_linear_117_4061)"/>
<path d="M277.481 111.411L236.713 135.005V128.682L277.481 105.089V111.411Z" fill="url(#paint22_linear_117_4061)"/>
<path d="M277.481 123.748L264.972 130.841V124.519L277.481 117.425V123.748Z" fill="url(#paint23_linear_117_4061)"/>
<path d="M260.185 133.617L236.713 147.187V140.865L260.185 127.294V133.617Z" fill="url(#paint24_linear_117_4061)"/>
<path d="M277.481 135.467L248.449 152.122V145.799L277.481 128.991V135.467Z" fill="url(#paint25_linear_117_4061)"/>
<path d="M243.662 154.897L236.713 158.907V152.584L243.662 148.575V154.897Z" fill="url(#paint26_linear_117_4061)"/>
<path d="M277.481 147.033L236.713 170.472V164.15L277.481 140.71V147.033Z" fill="url(#paint27_linear_117_4061)"/>
<path d="M277.481 159.215L264.972 166.308V159.986L277.481 152.893V159.215Z" fill="url(#paint28_linear_117_4061)"/>
<path d="M260.185 169.084L236.713 182.654V176.332L260.185 162.762V169.084Z" fill="url(#paint29_linear_117_4061)"/>
<path d="M277.481 170.935L248.449 187.589V181.266L277.481 164.458V170.935Z" fill="url(#paint30_linear_117_4061)"/>
<path d="M243.662 190.365L236.713 194.374V188.051L243.662 184.042V190.365Z" fill="url(#paint31_linear_117_4061)"/>
<path d="M277.481 183.117L236.713 206.556V200.234L277.481 176.794V183.117Z" fill="url(#paint32_linear_117_4061)"/>
<path d="M125.219 237.491V148.051L48.1622 146.509V235.332C47.8533 236.257 48.3166 237.028 49.2431 237.645L84.2972 258.308C86.1503 259.388 89.2387 259.234 91.4007 258.154L123.521 240.112C124.756 239.341 125.374 238.416 125.219 237.491Z" fill="url(#paint33_linear_117_4061)"/>
<path d="M84.1429 168.561L49.0888 147.897C47.2358 146.818 47.5446 144.967 49.7065 143.734L81.981 125.692C84.1429 124.458 87.2314 124.458 89.0844 125.537L124.139 146.201C125.992 147.28 125.683 149.131 123.521 150.364L91.4008 168.407C89.2389 169.486 85.996 169.64 84.1429 168.561Z" fill="url(#paint34_linear_117_4061)"/>
<path d="M58.1999 175.5L52.9495 172.57C52.6406 172.416 52.3318 171.799 52.3318 171.336V163.009C52.3318 162.547 52.6406 162.393 52.9495 162.547L58.1999 165.477C58.5087 165.631 58.8176 166.248 58.8176 166.71V175.037C58.8176 175.5 58.6631 175.654 58.1999 175.5Z" fill="#ECECEC"/>
<path d="M67.4652 180.743L62.2149 177.813C61.906 177.659 61.5972 177.042 61.5972 176.579V168.252C61.5972 167.79 61.906 167.636 62.2149 167.79L67.4652 170.72C67.7741 170.874 68.0829 171.491 68.0829 171.953V180.28C68.0829 180.743 67.7741 181.051 67.4652 180.743Z" fill="#ECECEC"/>
<path d="M76.7306 186.14L71.4802 183.21C71.1714 183.056 70.8625 182.439 70.8625 181.977V173.65C70.8625 173.187 71.1714 173.033 71.4802 173.187L76.7306 176.117C77.0395 176.271 77.3483 176.888 77.3483 177.35V185.678C77.3483 186.14 77.0395 186.294 76.7306 186.14Z" fill="#ECECEC"/>
<path d="M58.1999 188.607L52.9495 185.678C52.6406 185.523 52.3318 184.907 52.3318 184.444V176.117C52.3318 175.654 52.6406 175.5 52.9495 175.654L58.1999 178.584C58.5087 178.738 58.8176 179.355 58.8176 179.818V188.145C58.8176 188.607 58.6631 188.762 58.1999 188.607Z" fill="#ECECEC"/>
<path d="M67.4652 194.005L62.2149 191.075C61.906 190.921 61.5972 190.304 61.5972 189.841V181.514C61.5972 181.051 61.906 180.897 62.2149 181.051L67.4652 183.981C67.7741 184.135 68.0829 184.752 68.0829 185.215V193.542C68.0829 194.005 67.7741 194.159 67.4652 194.005Z" fill="#ECECEC"/>
<path d="M76.7306 199.402L71.4802 196.472C71.1714 196.318 70.8625 195.701 70.8625 195.238V186.911C70.8625 186.449 71.1714 186.294 71.4802 186.449L76.7306 189.378C77.0395 189.533 77.3483 190.149 77.3483 190.612V198.939C77.3483 199.402 77.0395 199.556 76.7306 199.402Z" fill="#ECECEC"/>
<path d="M67.4652 207.112L62.2149 204.182C61.906 204.028 61.5972 203.411 61.5972 202.949V194.622C61.5972 194.159 61.906 194.005 62.2149 194.159L67.4652 197.089C67.7741 197.243 68.0829 197.86 68.0829 198.322V206.65C68.0829 207.112 67.7741 207.421 67.4652 207.112Z" fill="#ECECEC"/>
<path d="M58.1999 214.977L52.9495 212.047C52.6406 211.893 52.3318 211.276 52.3318 210.813V202.486C52.3318 202.023 52.6406 201.869 52.9495 202.023L58.1999 204.953C58.5087 205.108 58.8176 205.724 58.8176 206.187V214.514C58.8176 214.977 58.6631 215.285 58.1999 214.977Z" fill="#ECECEC"/>
<path d="M76.7306 238.879L71.4802 235.949C71.1714 235.794 70.8625 235.178 70.8625 234.715V226.388C70.8625 225.925 71.1714 225.771 71.4802 225.925L76.7306 228.855C77.0395 229.009 77.3483 229.626 77.3483 230.089V238.416C77.3483 238.879 77.0395 239.187 76.7306 238.879Z" fill="#ECECEC"/>
<path d="M405.343 265.925V123.593L328.286 122.051V263.766C327.977 264.692 328.44 265.463 329.367 266.079L364.421 286.743C366.274 287.822 369.362 287.668 371.524 286.589L403.644 268.547C404.88 267.776 405.497 266.696 405.343 265.925Z" fill="url(#paint35_linear_117_4061)"/>
<path d="M364.421 143.949L329.367 123.285C327.514 122.206 327.822 120.355 329.984 119.121L362.104 101.079C364.266 99.8458 367.355 99.8458 369.208 100.925L404.262 121.589C406.115 122.668 405.806 124.519 403.644 125.752L371.524 143.794C369.362 145.028 366.274 145.028 364.421 143.949Z" fill="url(#paint36_linear_117_4061)"/>
<path d="M338.323 152.43L333.073 149.5C332.764 149.346 332.455 148.729 332.455 148.266V139.939C332.455 139.477 332.764 139.322 333.073 139.477L338.323 142.407C338.632 142.561 338.941 143.178 338.941 143.64V151.967C338.941 152.43 338.632 152.584 338.323 152.43Z" fill="#ECECEC"/>
<path d="M347.589 157.827L342.338 154.897C342.029 154.743 341.72 154.126 341.72 153.664V145.336C341.72 144.874 342.029 144.72 342.338 144.874L347.589 147.804C347.897 147.958 348.206 148.575 348.206 149.037V157.365C348.206 157.827 347.897 157.981 347.589 157.827Z" fill="#ECECEC"/>
<path d="M356.854 163.224L351.604 160.294C351.295 160.14 350.986 159.523 350.986 159.061V150.734C350.986 150.271 351.295 150.117 351.604 150.271L356.854 153.201C357.163 153.355 357.472 153.972 357.472 154.435V162.762C357.472 163.07 357.163 163.378 356.854 163.224Z" fill="#ECECEC"/>
<path d="M338.323 165.692L333.073 162.762C332.764 162.607 332.455 161.991 332.455 161.528V153.201C332.455 152.738 332.764 152.584 333.073 152.738L338.323 155.668C338.632 155.822 338.941 156.439 338.941 156.902V165.229C338.941 165.692 338.632 165.846 338.323 165.692Z" fill="#ECECEC"/>
<path d="M347.589 170.935L342.338 168.005C342.029 167.85 341.72 167.234 341.72 166.771V158.444C341.72 157.981 342.029 157.827 342.338 157.981L347.589 160.911C347.897 161.065 348.206 161.682 348.206 162.145V170.472C348.206 170.935 347.897 171.243 347.589 170.935Z" fill="#ECECEC"/>
<path d="M356.854 176.332L351.604 173.402C351.295 173.248 350.986 172.631 350.986 172.168V163.841C350.986 163.378 351.295 163.224 351.604 163.379L356.854 166.308C357.163 166.463 357.472 167.079 357.472 167.542V175.869C357.472 176.332 357.163 176.486 356.854 176.332Z" fill="#ECECEC"/>
<path d="M347.589 184.196L342.338 181.266C342.029 181.112 341.72 180.495 341.72 180.033V171.706C341.72 171.243 342.029 171.089 342.338 171.243L347.589 174.173C347.897 174.327 348.206 174.944 348.206 175.407V183.734C348.206 184.196 347.897 184.351 347.589 184.196Z" fill="#ECECEC"/>
<path d="M356.854 202.701L351.604 199.771C351.295 199.617 350.986 199 350.986 198.537V190.21C350.986 189.748 351.295 189.593 351.604 189.748L356.854 192.678C357.163 192.832 357.472 193.449 357.472 193.911V202.238C357.472 202.701 357.163 203.009 356.854 202.701Z" fill="#ECECEC"/>
<path d="M338.323 218.43L333.073 215.5C332.764 215.346 332.455 214.729 332.455 214.266V205.939C332.455 205.477 332.764 205.322 333.073 205.477L338.323 208.407C338.632 208.561 338.941 209.178 338.941 209.64V217.967C338.941 218.43 338.632 218.584 338.323 218.43Z" fill="#ECECEC"/>
<path d="M434.789 308.503V261.007L393.867 260.236V307.423C393.713 307.886 393.867 308.348 394.485 308.657L413.015 319.605C413.942 320.222 415.641 320.068 416.722 319.451L433.863 309.89C434.635 309.582 434.944 308.965 434.789 308.503Z" fill="url(#paint37_linear_117_4061)"/>
<path d="M413.015 271.956L394.485 261.007C393.558 260.39 393.712 259.465 394.793 258.848L411.934 249.288C413.015 248.671 414.714 248.671 415.641 249.133L434.171 260.082C435.098 260.699 434.944 261.624 433.863 262.241L416.722 271.802C415.795 272.419 414.096 272.418 413.015 271.956Z" fill="url(#paint38_linear_117_4061)"/>
<path d="M405.603 284.755L400.353 281.825C400.044 281.671 399.735 281.054 399.735 280.591V272.264C399.735 271.802 400.044 271.647 400.353 271.802L405.603 274.732C405.912 274.886 406.221 275.503 406.221 275.965V284.292C406.221 284.755 405.912 285.063 405.603 284.755Z" fill="#ECECEC"/>
<path d="M352.684 335.626L352.839 247.883C352.839 245.262 351.295 242.332 349.287 241.252L249.066 183.579C248.294 183.117 247.522 183.117 246.905 183.425L243.044 185.738L245.669 189.439V274.561C245.669 277.182 247.213 280.112 249.221 281.192L346.971 341.023L347.897 340.561L351.603 338.556C352.221 337.939 352.684 337.014 352.684 335.626Z" fill="url(#paint39_linear_117_4061)"/>
<path d="M345.735 340.869L245.515 283.196C243.507 282.117 241.963 279.033 241.963 276.565V188.36C241.963 185.738 243.507 184.659 245.515 185.738L345.735 243.411C347.743 244.491 349.287 247.575 349.287 250.042V335.626C349.287 338.248 347.743 341.949 345.735 340.869Z" fill="url(#paint40_linear_117_4061)"/>
<path d="M343.264 331.771L247.831 276.874C246.904 276.411 246.287 275.023 246.287 273.944V193.449C246.287 192.369 246.904 191.752 247.831 192.215L343.264 247.112C344.191 247.575 344.809 248.963 344.809 250.042V330.537C344.809 331.771 344.191 332.234 343.264 331.771Z" fill="url(#paint41_linear_117_4061)"/>
<path d="M295.702 218.43L295.239 218.276C294.776 217.967 294.312 217.196 294.312 216.579C294.312 215.963 294.776 215.654 295.239 215.963L295.702 216.117C296.165 216.425 296.629 217.196 296.629 217.813C296.629 218.43 296.32 218.738 295.702 218.43Z" fill="url(#paint42_linear_117_4061)"/>
<path d="M344.963 340.561L339.25 340.098L243.507 285.047C241.5 283.967 238.257 284.122 235.94 285.355L166.141 325.757L162.435 325.449V329.15C162.435 329.921 162.744 330.537 163.67 331.154L263.891 388.827C265.899 389.907 269.141 389.752 271.458 388.519L343.11 347.037C344.346 346.266 344.963 345.495 344.963 344.57V340.561Z" fill="url(#paint43_linear_117_4061)"/>
<path d="M263.891 384.818L163.67 327.145C161.663 326.065 161.972 324.061 164.134 322.827L235.786 281.346C237.948 280.112 241.345 279.958 243.353 281.037L343.573 338.71C345.581 339.79 345.272 341.794 343.11 343.028L271.458 384.509C269.141 385.897 265.744 385.897 263.891 384.818Z" fill="url(#paint44_linear_117_4061)"/>
<path d="M292.614 365.388L197.18 310.491C196.254 310.028 196.408 309.103 197.489 308.64L237.639 285.355C238.566 284.738 240.11 284.738 241.037 285.201L336.47 340.098C337.397 340.561 337.242 341.486 336.161 341.949L296.011 365.234C294.93 365.85 293.54 366.005 292.614 365.388Z" fill="url(#paint45_linear_117_4061)"/>
<path d="M230.999 361.379L204.593 346.112C204.129 345.804 204.129 345.341 204.747 345.033L226.058 332.696C226.521 332.388 227.447 332.388 227.911 332.696L254.317 347.963C254.78 348.271 254.78 348.734 254.163 349.042L232.852 361.379C232.234 361.533 231.462 361.533 230.999 361.379Z" fill="url(#paint46_linear_117_4061)"/>
<path d="M197.335 310.645L197.798 310.953L237.639 287.822C238.566 287.206 240.11 287.206 241.036 287.668L336.007 342.257L336.316 342.103C337.242 341.486 337.397 340.715 336.624 340.252L241.191 285.355C240.264 284.893 238.875 284.893 237.794 285.509L197.644 308.794C196.563 309.257 196.408 310.028 197.335 310.645Z" fill="url(#paint47_linear_117_4061)"/>
<path d="M204.593 346.112L205.365 346.575L226.058 334.547C226.521 334.238 227.447 334.238 227.911 334.547L253.545 349.351L254.163 349.042C254.626 348.734 254.78 348.271 254.317 347.963L227.911 332.696C227.447 332.388 226.675 332.542 226.058 332.696L204.747 345.033C204.129 345.341 204.129 345.804 204.593 346.112Z" fill="url(#paint48_linear_117_4061)"/>
<path d="M230.999 361.379L205.674 346.729C205.21 346.421 205.056 346.266 205.056 346.112L210.306 343.028C210.461 343.028 210.924 343.028 211.387 343.336L236.713 357.986C237.176 358.294 237.33 358.449 237.33 358.603L232.08 361.687C231.926 361.687 231.462 361.533 230.999 361.379Z" fill="url(#paint49_linear_117_4061)"/>
<path d="M237.639 294.608L235.014 293.065C234.396 292.603 234.396 291.986 235.169 291.523L236.25 290.907C237.022 290.444 238.257 290.444 238.875 290.752L241.5 292.294C242.118 292.757 242.118 293.374 241.346 293.836L240.265 294.453C239.492 294.916 238.257 295.07 237.639 294.608Z" fill="#A6A6A6"/>
<path d="M244.28 298.463L241.654 296.921C241.037 296.458 241.037 295.841 241.809 295.379L242.89 294.762C243.662 294.299 244.897 294.299 245.515 294.608L248.14 296.15C248.758 296.612 248.758 297.229 247.986 297.692L246.905 298.308C246.133 298.771 244.897 298.925 244.28 298.463Z" fill="#A6A6A6"/>
<path d="M250.92 302.318L248.295 300.776C247.677 300.313 247.677 299.696 248.449 299.234L249.53 298.617C250.302 298.154 251.538 298.154 252.155 298.463L254.78 300.005C255.398 300.467 255.398 301.084 254.626 301.547L253.545 302.164C252.773 302.626 251.692 302.626 250.92 302.318Z" fill="#A6A6A6"/>
<path d="M257.714 306.173L255.089 304.631C254.471 304.168 254.471 303.551 255.244 303.089L256.325 302.472C257.097 302.009 258.332 302.009 258.95 302.318L261.575 303.86C262.193 304.323 262.193 304.939 261.42 305.402L260.34 306.019C259.413 306.481 258.332 306.481 257.714 306.173Z" fill="#A6A6A6"/>
<path d="M264.354 310.028L261.729 308.486C261.112 308.023 261.112 307.407 261.884 306.944L262.965 306.327C263.737 305.865 264.972 305.865 265.59 306.173L268.215 307.715C268.833 308.178 268.833 308.794 268.061 309.257L266.98 309.874C266.208 310.337 264.972 310.337 264.354 310.028Z" fill="#A6A6A6"/>
<path d="M270.995 313.883L268.37 312.341C267.752 311.879 267.752 311.262 268.524 310.799L269.605 310.182C270.377 309.72 271.613 309.72 272.23 310.028L274.855 311.57C275.473 312.033 275.473 312.65 274.701 313.112L273.62 313.729C272.848 314.192 271.613 314.192 270.995 313.883Z" fill="#A6A6A6"/>
<path d="M277.635 317.584L275.01 316.042C274.392 315.58 274.392 314.963 275.164 314.5L276.245 313.883C277.017 313.421 278.253 313.421 278.87 313.729L281.496 315.271C282.113 315.734 282.113 316.351 281.341 316.813L280.26 317.43C279.488 318.047 278.253 318.047 277.635 317.584Z" fill="#A6A6A6"/>
<path d="M284.275 321.439L281.65 319.897C281.032 319.435 281.032 318.818 281.804 318.355L282.885 317.738C283.657 317.276 284.893 317.276 285.51 317.584L288.136 319.126C288.753 319.589 288.753 320.206 287.981 320.668L286.9 321.285C286.128 321.748 285.047 321.902 284.275 321.439Z" fill="#A6A6A6"/>
<path d="M290.916 325.294L288.29 323.752C287.673 323.29 287.673 322.673 288.445 322.21L289.526 321.594C290.298 321.131 291.533 321.131 292.151 321.439L294.776 322.981C295.394 323.444 295.394 324.061 294.622 324.523L293.541 325.14C292.769 325.603 291.688 325.757 290.916 325.294Z" fill="#A6A6A6"/>
<path d="M297.71 329.15L295.085 327.608C294.467 327.145 294.467 326.528 295.239 326.065L296.32 325.449C297.092 324.986 298.328 324.986 298.945 325.294L301.571 326.836C302.188 327.299 302.188 327.916 301.416 328.379L300.335 328.995C299.563 329.458 298.328 329.612 297.71 329.15Z" fill="#A6A6A6"/>
<path d="M304.505 333.159L301.879 331.617C301.262 331.154 301.262 330.537 302.034 330.075L303.115 329.458C303.887 328.995 305.122 328.995 305.74 329.304L308.365 330.846C308.983 331.308 308.983 331.925 308.211 332.388L307.13 333.005C306.358 333.467 305.277 333.467 304.505 333.159Z" fill="#A6A6A6"/>
<path d="M311.145 337.014L308.52 335.472C307.902 335.009 307.902 334.393 308.674 333.93L309.755 333.313C310.527 332.851 311.762 332.85 312.38 333.159L315.005 334.701C315.623 335.164 315.623 335.78 314.851 336.243L313.77 336.86C312.998 337.322 311.917 337.322 311.145 337.014Z" fill="#A6A6A6"/>
<path d="M317.939 340.715L315.314 339.173C314.697 338.71 314.697 338.094 315.469 337.631L316.55 337.014C317.322 336.551 318.557 336.551 319.175 336.86L321.8 338.402C322.418 338.865 322.418 339.481 321.646 339.944L320.565 340.561C319.792 341.178 318.557 341.178 317.939 340.715Z" fill="#A6A6A6"/>
<path d="M324.58 344.57L321.954 343.028C321.337 342.566 321.337 341.949 322.109 341.486L323.19 340.869C323.962 340.407 325.197 340.407 325.815 340.715L328.44 342.257C329.058 342.72 329.058 343.337 328.286 343.799L327.205 344.416C326.433 345.033 325.197 345.033 324.58 344.57Z" fill="#A6A6A6"/>
<path d="M229.918 299.08L227.139 297.537C226.521 297.075 226.521 296.458 227.293 295.995L230.536 294.145C231.308 293.682 232.543 293.682 233.161 293.991L235.941 295.533C236.558 295.995 236.559 296.612 235.786 297.075L232.543 298.925C231.771 299.542 230.69 299.542 229.918 299.08Z" fill="#A6A6A6"/>
<path d="M236.713 302.935L233.933 301.393C233.316 300.93 233.316 300.313 234.088 299.851L237.331 298C238.103 297.537 239.338 297.537 239.956 297.846L242.736 299.388C243.353 299.851 243.353 300.467 242.581 300.93L239.338 302.78C238.412 303.243 237.331 303.397 236.713 302.935Z" fill="#A6A6A6"/>
<path d="M243.353 306.79L240.574 305.248C239.956 304.785 239.956 304.168 240.728 303.706L243.971 301.855C244.743 301.393 245.978 301.393 246.596 301.701L249.376 303.243C249.993 303.706 249.993 304.323 249.221 304.785L245.978 306.636C245.206 307.252 243.971 307.252 243.353 306.79Z" fill="#A6A6A6"/>
<path d="M249.993 310.645L247.214 309.103C246.596 308.64 246.596 308.023 247.368 307.561L250.611 305.71C251.383 305.248 252.618 305.248 253.236 305.556L256.016 307.098C256.633 307.561 256.633 308.178 255.861 308.64L252.618 310.491C251.846 310.953 250.765 311.108 249.993 310.645Z" fill="#A6A6A6"/>
<path d="M256.788 314.5L254.008 312.958C253.391 312.495 253.391 311.879 254.163 311.416L257.406 309.566C258.178 309.103 259.413 309.103 260.031 309.411L262.81 310.953C263.428 311.416 263.428 312.033 262.656 312.495L259.413 314.346C258.487 314.808 257.406 314.963 256.788 314.5Z" fill="#A6A6A6"/>
<path d="M263.428 318.355L260.648 316.813C260.031 316.351 260.031 315.734 260.803 315.271L264.046 313.421C264.818 312.958 266.053 312.958 266.671 313.266L269.451 314.809C270.068 315.271 270.068 315.888 269.296 316.351L266.053 318.201C265.281 318.664 264.2 318.818 263.428 318.355Z" fill="#A6A6A6"/>
<path d="M270.068 322.21L267.289 320.668C266.671 320.206 266.671 319.589 267.443 319.126L270.686 317.276C271.458 316.813 272.694 316.813 273.311 317.122L276.091 318.664C276.709 319.126 276.709 319.743 275.937 320.206L272.694 322.056C271.922 322.519 270.841 322.673 270.068 322.21Z" fill="#A6A6A6"/>
<path d="M276.863 326.065L274.083 324.523C273.466 324.061 273.466 323.444 274.238 322.981L277.481 321.131C278.253 320.668 279.488 320.668 280.106 320.977L282.885 322.519C283.503 322.981 283.503 323.598 282.731 324.061L279.488 325.911C278.716 326.374 277.481 326.528 276.863 326.065Z" fill="#A6A6A6"/>
<path d="M283.503 329.921L280.724 328.379C280.106 327.916 280.106 327.299 280.878 326.837L284.121 324.986C284.893 324.523 286.128 324.523 286.746 324.832L289.526 326.374C290.143 326.837 290.143 327.453 289.371 327.916L286.128 329.766C285.356 330.229 284.275 330.383 283.503 329.921Z" fill="#A6A6A6"/>
<path d="M290.143 333.776L287.364 332.234C286.746 331.771 286.746 331.154 287.518 330.692L290.761 328.841C291.533 328.379 292.769 328.379 293.386 328.687L296.166 330.229C296.784 330.692 296.784 331.308 296.012 331.771L292.769 333.622C291.996 334.084 290.916 334.238 290.143 333.776Z" fill="#A6A6A6"/>
<path d="M296.938 337.631L294.158 336.089C293.541 335.626 293.541 335.009 294.313 334.547L297.556 332.696C298.328 332.234 299.563 332.234 300.181 332.542L302.961 334.084C303.578 334.547 303.578 335.164 302.806 335.626L299.563 337.477C298.791 337.939 297.556 338.094 296.938 337.631Z" fill="#A6A6A6"/>
<path d="M303.578 341.486L300.799 339.944C300.181 339.481 300.181 338.865 300.953 338.402L304.196 336.551C304.968 336.089 306.203 336.089 306.821 336.397L309.601 337.939C310.218 338.402 310.218 339.019 309.446 339.481L306.203 341.332C305.431 341.794 304.35 341.949 303.578 341.486Z" fill="#A6A6A6"/>
<path d="M310.218 345.341L307.439 343.799C306.821 343.337 306.821 342.72 307.593 342.257L310.836 340.407C311.608 339.944 312.844 339.944 313.461 340.252L316.241 341.794C316.859 342.257 316.859 342.874 316.086 343.337L312.844 345.187C312.071 345.65 310.99 345.65 310.218 345.341Z" fill="#A6A6A6"/>
<path d="M317.013 349.196L314.233 347.654C313.616 347.192 313.616 346.575 314.388 346.112L317.631 344.262C318.403 343.799 319.638 343.799 320.256 344.108L323.036 345.65C323.653 346.112 323.653 346.729 322.881 347.192L319.638 349.042C318.866 349.505 317.631 349.659 317.013 349.196Z" fill="#A6A6A6"/>
<path d="M222.197 303.706L219.417 302.164C218.8 301.701 218.8 301.084 219.572 300.622L222.815 298.771C223.587 298.309 224.822 298.309 225.44 298.617L228.22 300.159C228.837 300.622 228.837 301.238 228.065 301.701L224.822 303.551C224.05 304.014 222.969 304.014 222.197 303.706Z" fill="#A6A6A6"/>
<path d="M228.992 307.561L226.212 306.019C225.594 305.556 225.594 304.939 226.367 304.477L229.61 302.626C230.382 302.164 231.617 302.164 232.235 302.472L235.014 304.014C235.632 304.477 235.632 305.093 234.86 305.556L231.617 307.407C230.845 307.869 229.61 307.869 228.992 307.561Z" fill="#A6A6A6"/>
<path d="M235.632 311.416L232.852 309.874C232.235 309.411 232.235 308.794 233.007 308.332L236.25 306.481C237.022 306.019 238.257 306.019 238.875 306.327L241.654 307.869C242.272 308.332 242.272 308.949 241.5 309.411L238.257 311.262C237.485 311.724 236.404 311.724 235.632 311.416Z" fill="#A6A6A6"/>
<path d="M242.272 315.271L239.492 313.729C238.875 313.266 238.875 312.65 239.647 312.187L242.89 310.337C243.662 309.874 244.897 309.874 245.515 310.182L248.295 311.724C248.912 312.187 248.912 312.804 248.14 313.266L244.897 315.117C244.125 315.58 243.044 315.58 242.272 315.271Z" fill="#A6A6A6"/>
<path d="M249.067 319.126L246.287 317.584C245.669 317.122 245.669 316.505 246.442 316.042L249.684 314.192C250.457 313.729 251.692 313.729 252.31 314.037L255.089 315.58C255.707 316.042 255.707 316.659 254.935 317.122L251.692 318.972C250.92 319.435 249.684 319.435 249.067 319.126Z" fill="#A6A6A6"/>
<path d="M255.707 322.981L252.927 321.439C252.31 320.977 252.31 320.36 253.082 319.897L256.325 318.047C257.097 317.584 258.332 317.584 258.95 317.893L261.729 319.435C262.347 319.897 262.347 320.514 261.575 320.977L258.332 322.827C257.56 323.29 256.479 323.29 255.707 322.981Z" fill="#A6A6A6"/>
<path d="M262.347 326.837L259.567 325.294C258.95 324.832 258.95 324.215 259.722 323.752L262.965 321.902C263.737 321.439 264.972 321.439 265.59 321.748L268.37 323.29C268.987 323.752 268.987 324.369 268.215 324.832L264.972 326.682C264.2 327.145 263.119 327.145 262.347 326.837Z" fill="#A6A6A6"/>
<path d="M269.142 330.692L266.362 329.15C265.744 328.687 265.744 328.07 266.517 327.608L269.759 325.757C270.532 325.294 271.767 325.294 272.385 325.603L275.164 327.145C275.782 327.608 275.782 328.224 275.01 328.687L271.767 330.537C270.995 331 269.759 331 269.142 330.692Z" fill="#A6A6A6"/>
<path d="M275.782 334.547L273.002 333.005C272.385 332.542 272.385 331.925 273.157 331.463L276.4 329.612C277.172 329.15 278.407 329.15 279.025 329.458L281.804 331C282.422 331.463 282.422 332.079 281.65 332.542L278.407 334.393C277.635 334.855 276.554 334.855 275.782 334.547Z" fill="#A6A6A6"/>
<path d="M282.576 338.402L279.797 336.86C279.179 336.397 279.179 335.78 279.951 335.318L283.194 333.467C283.966 333.005 285.202 333.005 285.819 333.313L288.599 334.855C289.217 335.318 289.217 335.935 288.445 336.397L285.202 338.248C284.275 338.71 283.194 338.71 282.576 338.402Z" fill="#A6A6A6"/>
<path d="M289.217 342.257L286.437 340.715C285.819 340.252 285.819 339.636 286.591 339.173L289.834 337.323C290.606 336.86 291.842 336.86 292.46 337.168L295.239 338.71C295.857 339.173 295.857 339.79 295.085 340.252L291.842 342.103C291.07 342.566 289.834 342.566 289.217 342.257Z" fill="#A6A6A6"/>
<path d="M295.857 346.112L293.077 344.57C292.46 344.108 292.46 343.491 293.232 343.028L296.475 341.178C297.247 340.715 298.482 340.715 299.1 341.023L301.88 342.565C302.497 343.028 302.497 343.645 301.725 344.108L298.482 345.958C297.71 346.421 296.629 346.421 295.857 346.112Z" fill="#A6A6A6"/>
<path d="M302.651 349.813L299.872 348.271C299.254 347.808 299.254 347.192 300.026 346.729L303.269 344.879C304.041 344.416 305.277 344.416 305.894 344.724L308.674 346.266C309.292 346.729 309.292 347.346 308.52 347.808L305.277 349.659C304.35 350.276 303.269 350.276 302.651 349.813Z" fill="#A6A6A6"/>
<path d="M309.292 353.822L306.512 352.28C305.895 351.818 305.895 351.201 306.667 350.738L309.91 348.888C310.682 348.425 311.917 348.425 312.535 348.734L315.314 350.276C315.932 350.738 315.932 351.355 315.16 351.818L311.917 353.668C311.145 354.131 310.064 354.131 309.292 353.822Z" fill="#A6A6A6"/>
<path d="M220.807 312.033L211.387 306.636C210.77 306.173 210.77 305.556 211.542 305.094L214.785 303.243C215.557 302.78 216.792 302.78 217.41 303.089L226.83 308.486C227.448 308.949 227.448 309.565 226.675 310.028L223.433 311.879C222.66 312.341 221.579 312.495 220.807 312.033Z" fill="#A6A6A6"/>
<path d="M227.602 315.888L224.822 314.346C224.205 313.883 224.205 313.266 224.977 312.804L228.22 310.953C228.992 310.491 230.227 310.491 230.845 310.799L233.624 312.341C234.242 312.804 234.242 313.421 233.47 313.883L230.227 315.734C229.455 316.351 228.374 316.351 227.602 315.888Z" fill="#A6A6A6"/>
<path d="M234.242 319.743L231.462 318.201C230.845 317.738 230.845 317.122 231.617 316.659L234.86 314.808C235.632 314.346 236.867 314.346 237.485 314.654L240.265 316.196C240.882 316.659 240.882 317.276 240.11 317.738L236.867 319.589C236.095 320.051 235.014 320.206 234.242 319.743Z" fill="#A6A6A6"/>
<path d="M241.037 323.598L238.257 322.056C237.639 321.593 237.639 320.977 238.412 320.514L241.654 318.664C242.427 318.201 243.662 318.201 244.28 318.509L247.059 320.051C247.677 320.514 247.677 321.131 246.905 321.593L243.662 323.444C242.89 323.907 241.654 324.061 241.037 323.598Z" fill="#A6A6A6"/>
<path d="M247.677 327.453L244.897 325.911C244.28 325.449 244.28 324.832 245.052 324.369L248.295 322.519C249.067 322.056 250.302 322.056 250.92 322.365L253.699 323.907C254.317 324.369 254.317 324.986 253.545 325.449L250.302 327.299C249.53 327.762 248.449 327.916 247.677 327.453Z" fill="#A6A6A6"/>
<path d="M254.317 331.309L251.538 329.766C250.92 329.304 250.92 328.687 251.692 328.224L254.935 326.374C255.707 325.911 256.942 325.911 257.56 326.22L260.34 327.762C260.957 328.224 260.957 328.841 260.185 329.304L256.942 331.154C256.17 331.617 255.089 331.771 254.317 331.309Z" fill="#A6A6A6"/>
<path d="M261.112 335.164L258.332 333.622C257.714 333.159 257.714 332.542 258.486 332.079L261.729 330.229C262.501 329.766 263.737 329.766 264.355 330.075L267.134 331.617C267.752 332.079 267.752 332.696 266.98 333.159L263.737 335.009C262.965 335.472 261.729 335.626 261.112 335.164Z" fill="#A6A6A6"/>
<path d="M267.752 339.019L264.972 337.477C264.354 337.014 264.355 336.397 265.127 335.935L268.37 334.084C269.142 333.622 270.377 333.622 270.995 333.93L273.774 335.472C274.392 335.935 274.392 336.551 273.62 337.014L270.377 338.865C269.605 339.327 268.524 339.481 267.752 339.019Z" fill="#A6A6A6"/>
<path d="M274.392 342.874L271.613 341.332C270.995 340.869 270.995 340.252 271.767 339.79L275.01 337.939C275.782 337.477 277.017 337.477 277.635 337.785L280.415 339.327C281.032 339.79 281.032 340.407 280.26 340.869L277.017 342.72C276.245 343.182 275.164 343.337 274.392 342.874Z" fill="#A6A6A6"/>
<path d="M281.187 346.729L278.407 345.187C277.789 344.724 277.789 344.108 278.561 343.645L281.804 341.794C282.576 341.332 283.812 341.332 284.43 341.64L287.209 343.182C287.827 343.645 287.827 344.262 287.055 344.724L283.812 346.575C283.04 347.037 281.804 347.192 281.187 346.729Z" fill="#A6A6A6"/>
<path d="M287.827 350.584L285.047 349.042C284.43 348.579 284.43 347.963 285.202 347.5L288.445 345.65C289.217 345.187 290.452 345.187 291.07 345.495L293.849 347.037C294.467 347.5 294.467 348.117 293.695 348.579L290.452 350.43C289.68 350.893 288.599 351.047 287.827 350.584Z" fill="#A6A6A6"/>
<path d="M294.467 354.439L291.688 352.897C291.07 352.435 291.07 351.818 291.842 351.355L295.085 349.505C295.857 349.042 297.092 349.042 297.71 349.351L300.49 350.893C301.107 351.355 301.107 351.972 300.335 352.435L297.092 354.285C296.32 354.748 295.239 354.748 294.467 354.439Z" fill="#A6A6A6"/>
<path d="M293.541 362.766L290.761 361.224C290.143 360.762 290.143 360.145 290.915 359.682L301.879 353.36C302.652 352.897 303.887 352.897 304.505 353.206L307.284 354.748C307.902 355.21 307.902 355.827 307.13 356.29L296.166 362.612C295.394 363.075 294.158 363.229 293.541 362.766Z" fill="#A6A6A6"/>
<path d="M206.446 312.804L203.666 311.262C203.049 310.799 203.049 310.182 203.821 309.72L207.064 307.869C207.836 307.407 209.071 307.407 209.689 307.715L212.468 309.257C213.086 309.72 213.086 310.336 212.314 310.799L209.071 312.65C208.299 313.112 207.064 313.112 206.446 312.804Z" fill="#A6A6A6"/>
<path d="M213.086 316.505L210.306 314.963C209.689 314.5 209.689 313.883 210.461 313.421L213.704 311.57C214.476 311.108 215.711 311.108 216.329 311.416L219.109 312.958C219.726 313.421 219.726 314.037 218.954 314.5L215.711 316.351C214.939 316.967 213.858 316.967 213.086 316.505Z" fill="#A6A6A6"/>
<path d="M219.881 320.514L217.101 318.972C216.483 318.509 216.483 317.893 217.256 317.43L220.498 315.579C221.271 315.117 222.506 315.117 223.124 315.425L225.903 316.967C226.521 317.43 226.521 318.047 225.749 318.509L222.506 320.36C221.734 320.822 220.498 320.822 219.881 320.514Z" fill="#A6A6A6"/>
<path d="M226.521 324.215L223.741 322.673C223.124 322.21 223.124 321.594 223.896 321.131L227.139 319.28C227.911 318.818 229.146 318.818 229.764 319.126L232.543 320.668C233.161 321.131 233.161 321.748 232.389 322.21L229.146 324.061C228.374 324.678 227.139 324.678 226.521 324.215Z" fill="#A6A6A6"/>
<path d="M253.391 339.636L230.382 326.374C229.764 325.911 229.764 325.294 230.536 324.832L233.779 322.981C234.551 322.519 235.786 322.519 236.404 322.827L259.413 336.089C260.031 336.551 260.031 337.168 259.259 337.631L256.016 339.481C255.244 340.098 254.008 340.098 253.391 339.636Z" fill="#A6A6A6"/>
<path d="M260.031 343.491L257.251 341.949C256.634 341.486 256.634 340.869 257.406 340.407L260.649 338.556C261.421 338.094 262.656 338.094 263.274 338.402L266.053 339.944C266.671 340.407 266.671 341.023 265.899 341.486L262.656 343.337C261.884 343.953 260.649 343.953 260.031 343.491Z" fill="#A6A6A6"/>
<path d="M266.671 347.346L263.891 345.804C263.274 345.341 263.274 344.724 264.046 344.262L267.289 342.411C268.061 341.949 269.296 341.949 269.914 342.257L272.694 343.799C273.311 344.262 273.311 344.879 272.539 345.341L269.296 347.192C268.524 347.654 267.289 347.809 266.671 347.346Z" fill="#A6A6A6"/>
<path d="M273.465 351.201L270.686 349.659C270.068 349.196 270.068 348.58 270.84 348.117L274.083 346.266C274.855 345.804 276.091 345.804 276.708 346.112L279.488 347.654C280.106 348.117 280.106 348.734 279.334 349.196L276.091 351.047C275.319 351.664 274.083 351.664 273.465 351.201Z" fill="#A6A6A6"/>
<path d="M280.106 355.056L277.326 353.514C276.708 353.052 276.709 352.435 277.481 351.972L280.723 350.122C281.496 349.659 282.731 349.659 283.349 349.967L286.128 351.509C286.746 351.972 286.746 352.589 285.974 353.052L282.731 354.902C281.959 355.365 280.723 355.519 280.106 355.056Z" fill="#A6A6A6"/>
<path d="M286.746 358.911L283.966 357.369C283.349 356.907 283.349 356.29 284.121 355.827L287.364 353.977C288.136 353.514 289.371 353.514 289.989 353.822L292.768 355.365C293.386 355.827 293.386 356.444 292.614 356.907L289.371 358.757C288.599 359.22 287.364 359.374 286.746 358.911Z" fill="#A6A6A6"/>
<path d="M237.485 293.528L234.86 291.986C234.242 291.523 234.242 290.907 235.014 290.444L236.095 289.827C236.867 289.365 238.103 289.365 238.72 289.673L241.345 291.215C241.963 291.678 241.963 292.294 241.191 292.757L240.11 293.374C239.338 293.837 238.257 293.991 237.485 293.528Z" fill="#E7E7E7"/>
<path d="M244.125 297.383L241.5 295.841C240.882 295.379 240.882 294.762 241.654 294.299L242.735 293.682C243.507 293.22 244.743 293.22 245.36 293.528L247.986 295.07C248.603 295.533 248.603 296.15 247.831 296.612L246.75 297.229C245.978 297.692 244.897 297.846 244.125 297.383Z" fill="#E7E7E7"/>
<path d="M250.92 301.238L248.294 299.696C247.677 299.234 247.677 298.617 248.449 298.154L249.53 297.537C250.302 297.075 251.537 297.075 252.155 297.383L254.78 298.925C255.398 299.388 255.398 300.005 254.626 300.467L253.545 301.084C252.773 301.547 251.537 301.701 250.92 301.238Z" fill="#E7E7E7"/>
<path d="M257.56 305.094L254.935 303.551C254.317 303.089 254.317 302.472 255.089 302.009L256.17 301.393C256.942 300.93 258.177 300.93 258.795 301.238L261.42 302.78C262.038 303.243 262.038 303.86 261.266 304.322L260.185 304.939C259.413 305.402 258.177 305.402 257.56 305.094Z" fill="#E7E7E7"/>
<path d="M264.2 308.949L261.575 307.407C260.957 306.944 260.957 306.327 261.729 305.865L262.81 305.248C263.582 304.785 264.818 304.785 265.436 305.093L268.061 306.636C268.678 307.098 268.678 307.715 267.906 308.178L266.825 308.794C266.053 309.257 264.818 309.257 264.2 308.949Z" fill="#E7E7E7"/>
<path d="M270.84 312.804L268.215 311.262C267.597 310.799 267.597 310.182 268.37 309.72L269.45 309.103C270.223 308.64 271.458 308.64 272.076 308.949L274.701 310.491C275.319 310.953 275.319 311.57 274.546 312.033L273.466 312.65C272.693 313.112 271.458 313.112 270.84 312.804Z" fill="#E7E7E7"/>
<path d="M277.48 316.659L274.855 315.117C274.238 314.654 274.238 314.037 275.01 313.575L276.091 312.958C276.863 312.495 278.098 312.495 278.716 312.804L281.341 314.346C281.959 314.808 281.959 315.425 281.187 315.888L280.106 316.505C279.334 316.967 278.253 316.967 277.48 316.659Z" fill="#E7E7E7"/>
<path d="M284.275 320.36L281.65 318.818C281.032 318.355 281.032 317.738 281.804 317.276L282.885 316.659C283.657 316.196 284.893 316.196 285.51 316.505L288.136 318.047C288.753 318.509 288.753 319.126 287.981 319.589L286.9 320.206C285.974 320.822 284.893 320.822 284.275 320.36Z" fill="#E7E7E7"/>
<path d="M290.915 324.215L288.29 322.673C287.672 322.21 287.672 321.594 288.444 321.131L289.525 320.514C290.298 320.051 291.533 320.051 292.151 320.36L294.776 321.902C295.394 322.365 295.394 322.981 294.621 323.444L293.54 324.061C292.768 324.523 291.533 324.678 290.915 324.215Z" fill="#E7E7E7"/>
<path d="M297.555 328.07L294.93 326.528C294.313 326.066 294.313 325.449 295.085 324.986L296.166 324.369C296.938 323.907 298.173 323.907 298.791 324.215L301.416 325.757C302.034 326.22 302.034 326.837 301.262 327.299L300.181 327.916C299.408 328.379 298.173 328.533 297.555 328.07Z" fill="#E7E7E7"/>
<path d="M304.35 332.079L301.725 330.537C301.107 330.075 301.107 329.458 301.879 328.995L302.96 328.379C303.732 327.916 304.968 327.916 305.585 328.224L308.211 329.766C308.828 330.229 308.828 330.846 308.056 331.308L306.975 331.925C306.203 332.388 305.122 332.388 304.35 332.079Z" fill="#E7E7E7"/>
<path d="M311.145 335.935L308.52 334.393C307.902 333.93 307.902 333.313 308.674 332.851L309.755 332.234C310.527 331.771 311.762 331.771 312.38 332.08L315.005 333.622C315.623 334.084 315.623 334.701 314.851 335.164L313.77 335.78C312.998 336.243 311.762 336.243 311.145 335.935Z" fill="#E7E7E7"/>
<path d="M317.785 339.79L315.16 338.248C314.542 337.785 314.542 337.168 315.314 336.706L316.395 336.089C317.167 335.626 318.403 335.626 319.02 335.935L321.645 337.477C322.263 337.939 322.263 338.556 321.491 339.019L320.41 339.636C319.638 340.098 318.403 340.098 317.785 339.79Z" fill="#E7E7E7"/>
<path d="M324.425 343.491L321.8 341.949C321.182 341.486 321.182 340.869 321.954 340.407L323.035 339.79C323.807 339.327 325.043 339.327 325.66 339.636L328.286 341.178C328.903 341.64 328.903 342.257 328.131 342.72L327.05 343.337C326.278 343.953 325.043 343.953 324.425 343.491Z" fill="#E7E7E7"/>
<path d="M229.918 298L227.138 296.458C226.521 295.995 226.521 295.379 227.293 294.916L230.536 293.065C231.308 292.603 232.543 292.603 233.161 292.911L235.941 294.453C236.558 294.916 236.558 295.533 235.786 295.995L232.543 297.846C231.771 298.463 230.536 298.463 229.918 298Z" fill="#E7E7E7"/>
<path d="M236.558 301.855L233.779 300.313C233.161 299.851 233.161 299.234 233.933 298.771L237.176 296.921C237.948 296.458 239.183 296.458 239.801 296.766L242.581 298.309C243.198 298.771 243.198 299.388 242.426 299.851L239.183 301.701C238.411 302.318 237.176 302.318 236.558 301.855Z" fill="#E7E7E7"/>
<path d="M243.199 305.865L240.419 304.322C239.801 303.86 239.801 303.243 240.573 302.78L243.816 300.93C244.588 300.467 245.824 300.467 246.441 300.776L249.221 302.318C249.839 302.78 249.839 303.397 249.067 303.86L245.824 305.71C245.052 306.173 243.971 306.173 243.199 305.865Z" fill="#E7E7E7"/>
<path d="M249.993 309.565L247.213 308.023C246.596 307.561 246.596 306.944 247.368 306.481L250.611 304.631C251.383 304.168 252.618 304.168 253.236 304.477L256.016 306.019C256.633 306.481 256.633 307.098 255.861 307.561L252.618 309.411C251.846 310.028 250.611 310.028 249.993 309.565Z" fill="#E7E7E7"/>
<path d="M256.633 313.421L253.854 311.879C253.236 311.416 253.236 310.799 254.008 310.337L257.251 308.486C258.023 308.023 259.259 308.023 259.876 308.332L262.656 309.874C263.274 310.337 263.274 310.953 262.501 311.416L259.259 313.266C258.486 313.729 257.251 313.883 256.633 313.421Z" fill="#E7E7E7"/>
<path d="M263.274 317.276L260.494 315.734C259.876 315.271 259.876 314.654 260.648 314.192L263.891 312.341C264.663 311.879 265.899 311.879 266.516 312.187L269.296 313.729C269.914 314.192 269.914 314.808 269.142 315.271L265.899 317.122C265.127 317.738 264.046 317.738 263.274 317.276Z" fill="#E7E7E7"/>
<path d="M270.068 321.131L267.288 319.589C266.671 319.126 266.671 318.509 267.443 318.047L270.686 316.196C271.458 315.734 272.693 315.734 273.311 316.042L276.09 317.584C276.708 318.047 276.708 318.664 275.936 319.126L272.693 320.977C271.921 321.439 270.686 321.594 270.068 321.131Z" fill="#E7E7E7"/>
<path d="M276.708 324.986L273.929 323.444C273.311 322.981 273.311 322.365 274.083 321.902L277.326 320.052C278.098 319.589 279.334 319.589 279.951 319.897L282.731 321.439C283.349 321.902 283.349 322.519 282.576 322.981L279.334 324.832C278.561 325.449 277.48 325.449 276.708 324.986Z" fill="#E7E7E7"/>
<path d="M283.348 328.841L280.569 327.299C279.951 326.837 279.951 326.22 280.723 325.757L283.966 323.907C284.738 323.444 285.974 323.444 286.591 323.752L289.371 325.294C289.989 325.757 289.989 326.374 289.217 326.837L285.974 328.687C285.202 329.15 284.121 329.304 283.348 328.841Z" fill="#E7E7E7"/>
<path d="M290.143 332.696L287.364 331.154C286.746 330.692 286.746 330.075 287.518 329.612L290.761 327.762C291.533 327.299 292.768 327.299 293.386 327.608L296.166 329.15C296.783 329.612 296.783 330.229 296.011 330.692L292.768 332.542C291.996 333.005 290.761 333.159 290.143 332.696Z" fill="#E7E7E7"/>
<path d="M296.783 336.551L294.004 335.009C293.386 334.547 293.386 333.93 294.158 333.467L297.401 331.617C298.173 331.154 299.409 331.154 300.026 331.463L302.806 333.005C303.424 333.467 303.424 334.084 302.651 334.547L299.409 336.397C298.636 336.86 297.555 337.014 296.783 336.551Z" fill="#E7E7E7"/>
<path d="M303.423 340.407L300.644 338.865C300.026 338.402 300.026 337.785 300.798 337.323L304.041 335.472C304.813 335.009 306.049 335.009 306.666 335.318L309.446 336.86C310.064 337.323 310.064 337.939 309.292 338.402L306.049 340.252C305.277 340.715 304.196 340.869 303.423 340.407Z" fill="#E7E7E7"/>
<path d="M310.218 344.262L307.438 342.72C306.821 342.257 306.821 341.64 307.593 341.178L310.836 339.327C311.608 338.865 312.843 338.865 313.461 339.173L316.241 340.715C316.858 341.178 316.858 341.794 316.086 342.257L312.843 344.108C312.071 344.57 310.836 344.724 310.218 344.262Z" fill="#E7E7E7"/>
<path d="M316.858 348.117L314.079 346.575C313.461 346.112 313.461 345.495 314.233 345.033L317.476 343.182C318.248 342.72 319.483 342.72 320.101 343.028L322.881 344.57C323.498 345.033 323.498 345.65 322.726 346.112L319.483 347.963C318.711 348.425 317.63 348.58 316.858 348.117Z" fill="#E7E7E7"/>
<path d="M222.197 302.626L219.417 301.084C218.8 300.622 218.8 300.005 219.572 299.542L222.815 297.692C223.587 297.229 224.822 297.229 225.44 297.537L228.219 299.08C228.837 299.542 228.837 300.159 228.065 300.622L224.822 302.472C224.05 302.935 222.815 303.089 222.197 302.626Z" fill="#E7E7E7"/>
<path d="M228.837 306.481L226.057 304.939C225.44 304.477 225.44 303.86 226.212 303.397L229.455 301.547C230.227 301.084 231.462 301.084 232.08 301.393L234.86 302.935C235.477 303.397 235.477 304.014 234.705 304.477L231.462 306.327C230.69 306.79 229.455 306.79 228.837 306.481Z" fill="#E7E7E7"/>
<path d="M235.632 310.337L232.852 308.795C232.234 308.332 232.234 307.715 233.006 307.252L236.249 305.402C237.021 304.939 238.257 304.939 238.875 305.248L241.654 306.79C242.272 307.252 242.272 307.869 241.5 308.332L238.257 310.182C237.33 310.645 236.249 310.799 235.632 310.337Z" fill="#E7E7E7"/>
<path d="M242.272 314.192L239.492 312.65C238.875 312.187 238.875 311.57 239.647 311.108L242.89 309.257C243.662 308.794 244.897 308.794 245.515 309.103L248.294 310.645C248.912 311.108 248.912 311.724 248.14 312.187L244.897 314.037C244.125 314.5 242.89 314.5 242.272 314.192Z" fill="#E7E7E7"/>
<path d="M248.912 318.047L246.133 316.505C245.515 316.042 245.515 315.425 246.287 314.963L249.53 313.112C250.302 312.65 251.537 312.65 252.155 312.958L254.935 314.5C255.552 314.963 255.552 315.579 254.78 316.042L251.537 317.893C250.765 318.355 249.53 318.355 248.912 318.047Z" fill="#E7E7E7"/>
<path d="M255.707 321.902L252.927 320.36C252.309 319.897 252.309 319.28 253.081 318.818L256.324 316.967C257.096 316.505 258.332 316.505 258.95 316.813L261.729 318.355C262.347 318.818 262.347 319.435 261.575 319.897L258.332 321.748C257.56 322.21 256.324 322.21 255.707 321.902Z" fill="#E7E7E7"/>
<path d="M262.347 325.757L259.567 324.215C258.949 323.752 258.949 323.136 259.722 322.673L262.964 320.823C263.737 320.36 264.972 320.36 265.59 320.668L268.369 322.21C268.987 322.673 268.987 323.29 268.215 323.752L264.972 325.603C264.2 326.066 262.964 326.066 262.347 325.757Z" fill="#E7E7E7"/>
<path d="M268.987 329.612L266.208 328.07C265.59 327.608 265.59 326.991 266.362 326.528L269.605 324.678C270.377 324.215 271.612 324.215 272.23 324.523L275.01 326.065C275.627 326.528 275.627 327.145 274.855 327.608L271.612 329.458C270.84 329.921 269.759 329.921 268.987 329.612Z" fill="#E7E7E7"/>
<path d="M275.782 333.467L273.002 331.925C272.384 331.463 272.384 330.846 273.156 330.383L276.399 328.533C277.171 328.07 278.407 328.07 279.025 328.379L281.804 329.921C282.422 330.383 282.422 331 281.65 331.463L278.407 333.313C277.635 333.776 276.399 333.776 275.782 333.467Z" fill="#E7E7E7"/>
<path d="M282.422 337.323L279.642 335.78C279.025 335.318 279.025 334.701 279.797 334.238L283.04 332.388C283.812 331.925 285.047 331.925 285.665 332.234L288.444 333.776C289.062 334.238 289.062 334.855 288.29 335.318L285.047 337.168C284.275 337.631 283.04 337.631 282.422 337.323Z" fill="#E7E7E7"/>
<path d="M289.062 341.178L286.283 339.636C285.665 339.173 285.665 338.556 286.437 338.094L289.68 336.243C290.452 335.78 291.687 335.78 292.305 336.089L295.085 337.631C295.702 338.094 295.702 338.71 294.93 339.173L291.687 341.023C290.915 341.486 289.834 341.486 289.062 341.178Z" fill="#E7E7E7"/>
<path d="M295.857 345.033L293.077 343.491C292.459 343.028 292.459 342.411 293.232 341.949L296.474 340.098C297.247 339.636 298.482 339.636 299.1 339.944L301.879 341.486C302.497 341.949 302.497 342.566 301.725 343.028L298.482 344.879C297.71 345.341 296.474 345.341 295.857 345.033Z" fill="#E7E7E7"/>
<path d="M302.497 348.888L299.717 347.346C299.1 346.883 299.1 346.266 299.872 345.804L303.115 343.953C303.887 343.491 305.122 343.491 305.74 343.799L308.519 345.341C309.137 345.804 309.137 346.421 308.365 346.883L305.122 348.734C304.35 349.196 303.115 349.196 302.497 348.888Z" fill="#E7E7E7"/>
<path d="M309.137 352.743L306.357 351.201C305.74 350.738 305.74 350.122 306.512 349.659L309.755 347.808C310.527 347.346 311.762 347.346 312.38 347.654L315.16 349.196C315.777 349.659 315.777 350.276 315.005 350.738L311.762 352.589C310.99 353.051 309.909 353.051 309.137 352.743Z" fill="#E7E7E7"/>
<path d="M220.653 310.953L211.233 305.556C210.615 305.093 210.615 304.477 211.387 304.014L214.63 302.164C215.402 301.701 216.638 301.701 217.255 302.009L226.675 307.407C227.293 307.869 227.293 308.486 226.521 308.949L223.278 310.799C222.506 311.262 221.425 311.416 220.653 310.953Z" fill="#E7E7E7"/>
<path d="M227.447 314.808L224.668 313.266C224.05 312.804 224.05 312.187 224.822 311.724L228.065 309.874C228.837 309.411 230.073 309.411 230.69 309.72L233.47 311.262C234.088 311.724 234.088 312.341 233.315 312.804L230.073 314.654C229.3 315.271 228.219 315.271 227.447 314.808Z" fill="#E7E7E7"/>
<path d="M234.242 318.664L231.462 317.122C230.845 316.659 230.845 316.042 231.617 315.579L234.86 313.729C235.632 313.266 236.867 313.266 237.485 313.575L240.265 315.117C240.882 315.579 240.882 316.196 240.11 316.659L236.867 318.509C236.095 319.126 234.86 319.126 234.242 318.664Z" fill="#E7E7E7"/>
<path d="M240.882 322.519L238.103 320.977C237.485 320.514 237.485 319.897 238.257 319.435L241.5 317.584C242.272 317.122 243.507 317.121 244.125 317.43L246.905 318.972C247.522 319.435 247.522 320.051 246.75 320.514L243.507 322.365C242.735 322.827 241.5 322.981 240.882 322.519Z" fill="#E7E7E7"/>
<path d="M247.522 326.374L244.743 324.832C244.125 324.369 244.125 323.752 244.897 323.29L248.14 321.439C248.912 320.977 250.148 320.977 250.765 321.285L253.545 322.827C254.163 323.29 254.162 323.907 253.39 324.369L250.147 326.22C249.375 326.836 248.294 326.837 247.522 326.374Z" fill="#E7E7E7"/>
<path d="M254.317 330.229L251.537 328.687C250.92 328.224 250.92 327.608 251.692 327.145L254.935 325.294C255.707 324.832 256.942 324.832 257.56 325.14L260.339 326.682C260.957 327.145 260.957 327.762 260.185 328.224L256.942 330.075C256.17 330.537 254.935 330.692 254.317 330.229Z" fill="#E7E7E7"/>
<path d="M260.957 334.084L258.178 332.542C257.56 332.079 257.56 331.463 258.332 331L261.575 329.15C262.347 328.687 263.582 328.687 264.2 328.995L266.98 330.537C267.597 331 267.597 331.617 266.825 332.079L263.582 333.93C262.81 334.547 261.729 334.547 260.957 334.084Z" fill="#E7E7E7"/>
<path d="M267.597 337.939L264.818 336.397C264.2 335.935 264.2 335.318 264.972 334.855L268.215 333.005C268.987 332.542 270.222 332.542 270.84 332.85L273.62 334.392C274.237 334.855 274.237 335.472 273.465 335.935L270.222 337.785C269.45 338.248 268.369 338.402 267.597 337.939Z" fill="#E7E7E7"/>
<path d="M274.392 341.794L271.612 340.252C270.995 339.79 270.995 339.173 271.767 338.71L275.01 336.86C275.782 336.397 277.017 336.397 277.635 336.706L280.414 338.248C281.032 338.71 281.032 339.327 280.26 339.79L277.017 341.64C276.245 342.103 275.01 342.257 274.392 341.794Z" fill="#E7E7E7"/>
<path d="M281.032 345.65L278.253 344.107C277.635 343.645 277.635 343.028 278.407 342.565L281.65 340.715C282.422 340.252 283.658 340.252 284.275 340.561L287.055 342.103C287.673 342.565 287.673 343.182 286.9 343.645L283.658 345.495C282.885 345.958 281.804 346.112 281.032 345.65Z" fill="#E7E7E7"/>
<path d="M287.672 349.505L284.893 347.963C284.275 347.5 284.275 346.883 285.047 346.421L288.29 344.57C289.062 344.108 290.298 344.108 290.915 344.416L293.695 345.958C294.313 346.421 294.313 347.037 293.541 347.5L290.298 349.35C289.526 349.813 288.445 349.967 287.672 349.505Z" fill="#E7E7E7"/>
<path d="M294.467 353.36L291.687 351.818C291.07 351.355 291.07 350.738 291.842 350.276L295.085 348.425C295.857 347.963 297.092 347.963 297.71 348.271L300.489 349.813C301.107 350.276 301.107 350.893 300.335 351.355L297.092 353.206C296.32 353.668 295.085 353.822 294.467 353.36Z" fill="#E7E7E7"/>
<path d="M293.386 361.687L290.606 360.145C289.989 359.682 289.989 359.065 290.761 358.603L301.725 352.28C302.497 351.818 303.732 351.818 304.35 352.126L307.13 353.668C307.747 354.131 307.747 354.748 306.975 355.21L296.011 361.533C295.239 362.15 294.004 362.15 293.386 361.687Z" fill="#E7E7E7"/>
<path d="M206.291 311.724L203.512 310.182C202.894 309.72 202.894 309.103 203.666 308.64L206.909 306.79C207.681 306.327 208.917 306.327 209.534 306.636L212.314 308.178C212.932 308.64 212.932 309.257 212.159 309.72L208.917 311.57C208.144 312.033 207.063 312.033 206.291 311.724Z" fill="#E7E7E7"/>
<path d="M212.931 315.579L210.152 314.037C209.534 313.575 209.534 312.958 210.306 312.495L213.549 310.645C214.321 310.182 215.557 310.182 216.174 310.491L218.954 312.033C219.572 312.495 219.572 313.112 218.8 313.575L215.557 315.425C214.785 315.888 213.704 315.888 212.931 315.579Z" fill="#E7E7E7"/>
<path d="M219.726 319.435L216.947 317.893C216.329 317.43 216.329 316.813 217.101 316.351L220.344 314.5C221.116 314.037 222.351 314.037 222.969 314.346L225.749 315.888C226.366 316.351 226.366 316.967 225.594 317.43L222.351 319.28C221.579 319.743 220.344 319.743 219.726 319.435Z" fill="#E7E7E7"/>
<path d="M226.366 323.29L223.587 321.748C222.969 321.285 222.969 320.668 223.741 320.206L226.984 318.355C227.756 317.893 228.992 317.893 229.609 318.201L232.389 319.743C233.006 320.206 233.007 320.823 232.234 321.285L228.991 323.136C228.219 323.598 227.138 323.598 226.366 323.29Z" fill="#E7E7E7"/>
<path d="M253.236 338.71L230.227 325.449C229.609 324.986 229.609 324.369 230.381 323.907L233.624 322.056C234.396 321.594 235.632 321.594 236.249 321.902L259.258 335.164C259.876 335.626 259.876 336.243 259.104 336.706L255.861 338.556C255.089 339.019 253.854 339.019 253.236 338.71Z" fill="#E7E7E7"/>
<path d="M259.876 342.411L257.097 340.869C256.479 340.407 256.479 339.79 257.251 339.327L260.494 337.477C261.266 337.014 262.502 337.014 263.119 337.322L265.899 338.865C266.517 339.327 266.516 339.944 265.744 340.407L262.501 342.257C261.729 342.874 260.494 342.874 259.876 342.411Z" fill="#E7E7E7"/>
<path d="M266.516 346.266L263.737 344.724C263.119 344.262 263.119 343.645 263.891 343.182L267.134 341.332C267.906 340.869 269.142 340.869 269.759 341.178L272.539 342.72C273.157 343.182 273.157 343.799 272.385 344.262L269.142 346.112C268.37 346.729 267.289 346.729 266.516 346.266Z" fill="#E7E7E7"/>
<path d="M273.311 350.122L270.532 348.58C269.914 348.117 269.914 347.5 270.686 347.037L273.929 345.187C274.701 344.724 275.936 344.724 276.554 345.033L279.334 346.575C279.951 347.037 279.951 347.654 279.179 348.117L275.936 349.967C275.164 350.584 273.929 350.584 273.311 350.122Z" fill="#E7E7E7"/>
<path d="M279.951 353.977L277.172 352.435C276.554 351.972 276.554 351.355 277.326 350.893L280.569 349.042C281.341 348.579 282.576 348.58 283.194 348.888L285.974 350.43C286.591 350.893 286.591 351.509 285.819 351.972L282.576 353.822C281.804 354.439 280.569 354.439 279.951 353.977Z" fill="#E7E7E7"/>
<path d="M286.591 357.832L283.812 356.29C283.194 355.827 283.194 355.21 283.966 354.748L287.209 352.897C287.981 352.435 289.217 352.435 289.834 352.743L292.614 354.285C293.232 354.748 293.232 355.365 292.46 355.827L289.217 357.678C288.444 358.14 287.364 358.294 286.591 357.832Z" fill="#E7E7E7"/>
<path d="M276.708 251.584L285.202 239.71C282.885 236.164 280.106 233.388 277.017 231.537C268.833 226.603 261.884 231.537 261.729 242.64C261.575 253.743 268.061 266.696 276.399 271.631C284.584 276.565 291.224 271.631 291.687 260.836L276.708 251.584Z" fill="white"/>
<path d="M289.989 238.477L281.65 250.35L296.629 259.603C296.629 259.449 296.629 259.294 296.629 259.14C296.629 252.201 294.004 244.491 289.989 238.477Z" fill="white"/>
<path d="M310.063 288.593V249.117L316.549 253.126V292.603L310.063 288.593Z" fill="white"/>
<path d="M318.711 293.836V266.388L325.197 270.397V297.846L318.711 293.836Z" fill="white"/>
<path d="M301.261 283.196V267.621L307.902 271.631V287.206L301.261 283.196Z" fill="white"/>
<path d="M282.113 380.037C282.113 378.958 282.731 377.724 283.657 377.262L293.695 371.556C294.004 371.402 294.467 371.248 294.776 371.402H294.93L300.026 374.332L288.136 384.201L283.04 381.271C282.885 381.271 282.885 381.117 282.731 381.117C282.267 380.963 282.113 380.5 282.113 380.037Z" fill="url(#paint50_linear_117_4061)"/>
<path d="M288.908 384.047L298.945 378.341C299.872 377.879 300.49 376.645 300.49 375.565C300.49 374.486 299.717 374.023 298.945 374.486L288.908 380.192C287.981 380.654 287.364 381.888 287.364 382.967C287.209 384.047 287.981 384.509 288.908 384.047Z" fill="#1D1D1D"/>
<defs>
<linearGradient id="paint0_linear_117_4061" x1="989.266" y1="706.768" x2="-182.514" y2="22.5026" gradientUnits="userSpaceOnUse">
<stop stop-color="#8F8F8F"/>
<stop offset="1" stop-color="#F6F6F6"/>
</linearGradient>
<linearGradient id="paint1_linear_117_4061" x1="233.362" y1="142.319" x2="215.952" y2="142.319" gradientUnits="userSpaceOnUse">
<stop stop-color="#6F6F6F"/>
<stop offset="1" stop-color="#ACACAC"/>
</linearGradient>
<linearGradient id="paint2_linear_117_4061" x1="441.487" y1="197.342" x2="76.7181" y2="-68.0031" gradientUnits="userSpaceOnUse">
<stop stop-color="#484848"/>
<stop offset="1" stop-color="#F6F6F6"/>
</linearGradient>
<linearGradient id="paint3_linear_117_4061" x1="375.182" y1="148.393" x2="98.1389" y2="-53.1376" gradientUnits="userSpaceOnUse">
<stop stop-color="#979797"/>
<stop offset="1" stop-color="#595959"/>
</linearGradient>
<linearGradient id="paint4_linear_117_4061" x1="206.585" y1="200.366" x2="132.091" y2="146.918" gradientUnits="userSpaceOnUse">
<stop stop-color="#717171"/>
<stop offset="1" stop-color="#DDDDDD"/>
</linearGradient>
<linearGradient id="paint5_linear_117_4061" x1="316.434" y1="376.214" x2="92.3702" y2="344.471" gradientUnits="userSpaceOnUse">
<stop stop-color="#B3B3B3"/>
<stop offset="1" stop-color="#F6F6F6"/>
</linearGradient>
<linearGradient id="paint6_linear_117_4061" x1="206.428" y1="181.247" x2="131.934" y2="127.798" gradientUnits="userSpaceOnUse">
<stop stop-color="#717171"/>
<stop offset="1" stop-color="#DDDDDD"/>
</linearGradient>
<linearGradient id="paint7_linear_117_4061" x1="317.926" y1="359.264" x2="93.8625" y2="327.52" gradientUnits="userSpaceOnUse">
<stop stop-color="#B3B3B3"/>
<stop offset="1" stop-color="#F6F6F6"/>
</linearGradient>
<linearGradient id="paint8_linear_117_4061" x1="206.553" y1="162.127" x2="132.059" y2="108.678" gradientUnits="userSpaceOnUse">
<stop stop-color="#717171"/>
<stop offset="1" stop-color="#DDDDDD"/>
</linearGradient>
<linearGradient id="paint9_linear_117_4061" x1="316.403" y1="337.974" x2="92.3387" y2="306.231" gradientUnits="userSpaceOnUse">
<stop stop-color="#B3B3B3"/>
<stop offset="1" stop-color="#F6F6F6"/>
</linearGradient>
<linearGradient id="paint10_linear_117_4061" x1="206.491" y1="142.952" x2="131.997" y2="89.504" gradientUnits="userSpaceOnUse">
<stop stop-color="#717171"/>
<stop offset="1" stop-color="#DDDDDD"/>
</linearGradient>
<linearGradient id="paint11_linear_117_4061" x1="317.989" y1="320.97" x2="93.9252" y2="289.226" gradientUnits="userSpaceOnUse">
<stop stop-color="#B3B3B3"/>
<stop offset="1" stop-color="#F6F6F6"/>
</linearGradient>
<linearGradient id="paint12_linear_117_4061" x1="206.616" y1="123.832" x2="132.123" y2="70.3841" gradientUnits="userSpaceOnUse">
<stop stop-color="#717171"/>
<stop offset="1" stop-color="#DDDDDD"/>
</linearGradient>
<linearGradient id="paint13_linear_117_4061" x1="316.465" y1="299.68" x2="92.4015" y2="267.936" gradientUnits="userSpaceOnUse">
<stop stop-color="#B3B3B3"/>
<stop offset="1" stop-color="#F6F6F6"/>
</linearGradient>
<linearGradient id="paint14_linear_117_4061" x1="206.616" y1="104.712" x2="132.122" y2="51.2641" gradientUnits="userSpaceOnUse">
<stop stop-color="#717171"/>
<stop offset="1" stop-color="#DDDDDD"/>
</linearGradient>
<linearGradient id="paint15_linear_117_4061" x1="320.068" y1="285.299" x2="96.0043" y2="253.555" gradientUnits="userSpaceOnUse">
<stop stop-color="#B3B3B3"/>
<stop offset="1" stop-color="#F6F6F6"/>
</linearGradient>
<linearGradient id="paint16_linear_117_4061" x1="225.522" y1="29.4561" x2="215.544" y2="29.4561" gradientUnits="userSpaceOnUse">
<stop stop-color="#A0A0A0"/>
<stop offset="1" stop-color="#8B8B8B"/>
</linearGradient>
<linearGradient id="paint17_linear_117_4061" x1="330.181" y1="112.489" x2="209.576" y2="62.4358" gradientUnits="userSpaceOnUse">
<stop stop-color="#484848"/>
<stop offset="1" stop-color="#B5B5B5"/>
</linearGradient>
<linearGradient id="paint18_linear_117_4061" x1="297.626" y1="98.2614" x2="254.104" y2="80.1993" gradientUnits="userSpaceOnUse">
<stop stop-color="#484848"/>
<stop offset="1" stop-color="#B5B5B5"/>
</linearGradient>
<linearGradient id="paint19_linear_117_4061" x1="293.026" y1="118.501" x2="219.49" y2="87.9822" gradientUnits="userSpaceOnUse">
<stop stop-color="#484848"/>
<stop offset="1" stop-color="#B5B5B5"/>
</linearGradient>
<linearGradient id="paint20_linear_117_4061" x1="316.603" y1="125.395" x2="228.121" y2="88.674" gradientUnits="userSpaceOnUse">
<stop stop-color="#484848"/>
<stop offset="1" stop-color="#B5B5B5"/>
</linearGradient>
<linearGradient id="paint21_linear_117_4061" x1="257.525" y1="124.352" x2="228.949" y2="112.493" gradientUnits="userSpaceOnUse">
<stop stop-color="#484848"/>
<stop offset="1" stop-color="#B5B5B5"/>
</linearGradient>
<linearGradient id="paint22_linear_117_4061" x1="330.181" y1="148.607" x2="209.576" y2="98.5542" gradientUnits="userSpaceOnUse">
<stop stop-color="#484848"/>
<stop offset="1" stop-color="#B5B5B5"/>
</linearGradient>
<linearGradient id="paint23_linear_117_4061" x1="297.625" y1="134.426" x2="254.104" y2="116.364" gradientUnits="userSpaceOnUse">
<stop stop-color="#484848"/>
<stop offset="1" stop-color="#B5B5B5"/>
</linearGradient>
<linearGradient id="paint24_linear_117_4061" x1="293.026" y1="154.665" x2="219.49" y2="124.146" gradientUnits="userSpaceOnUse">
<stop stop-color="#484848"/>
<stop offset="1" stop-color="#B5B5B5"/>
</linearGradient>
<linearGradient id="paint25_linear_117_4061" x1="316.602" y1="161.56" x2="228.121" y2="124.839" gradientUnits="userSpaceOnUse">
<stop stop-color="#484848"/>
<stop offset="1" stop-color="#B5B5B5"/>
</linearGradient>
<linearGradient id="paint26_linear_117_4061" x1="257.525" y1="160.517" x2="228.948" y2="148.657" gradientUnits="userSpaceOnUse">
<stop stop-color="#484848"/>
<stop offset="1" stop-color="#B5B5B5"/>
</linearGradient>
<linearGradient id="paint27_linear_117_4061" x1="330.18" y1="184.128" x2="209.576" y2="134.075" gradientUnits="userSpaceOnUse">
<stop stop-color="#484848"/>
<stop offset="1" stop-color="#B5B5B5"/>
</linearGradient>
<linearGradient id="paint28_linear_117_4061" x1="297.625" y1="169.901" x2="254.104" y2="151.839" gradientUnits="userSpaceOnUse">
<stop stop-color="#484848"/>
<stop offset="1" stop-color="#B5B5B5"/>
</linearGradient>
<linearGradient id="paint29_linear_117_4061" x1="293.026" y1="190.14" x2="219.49" y2="159.621" gradientUnits="userSpaceOnUse">
<stop stop-color="#484848"/>
<stop offset="1" stop-color="#B5B5B5"/>
</linearGradient>
<linearGradient id="paint30_linear_117_4061" x1="316.602" y1="197.035" x2="228.121" y2="160.314" gradientUnits="userSpaceOnUse">
<stop stop-color="#484848"/>
<stop offset="1" stop-color="#B5B5B5"/>
</linearGradient>
<linearGradient id="paint31_linear_117_4061" x1="257.525" y1="195.992" x2="228.948" y2="184.132" gradientUnits="userSpaceOnUse">
<stop stop-color="#484848"/>
<stop offset="1" stop-color="#B5B5B5"/>
</linearGradient>
<linearGradient id="paint32_linear_117_4061" x1="330.18" y1="220.247" x2="209.576" y2="170.194" gradientUnits="userSpaceOnUse">
<stop stop-color="#484848"/>
<stop offset="1" stop-color="#B5B5B5"/>
</linearGradient>
<linearGradient id="paint33_linear_117_4061" x1="92.0874" y1="202.852" x2="81.4178" y2="202.852" gradientUnits="userSpaceOnUse">
<stop stop-color="#8A8A8A"/>
<stop offset="1" stop-color="#A7A7A7"/>
</linearGradient>
<linearGradient id="paint34_linear_117_4061" x1="241.143" y1="259.054" x2="23.0731" y2="100.423" gradientUnits="userSpaceOnUse">
<stop stop-color="#484848"/>
<stop offset="1" stop-color="#F6F6F6"/>
</linearGradient>
<linearGradient id="paint35_linear_117_4061" x1="372.262" y1="204.771" x2="361.592" y2="204.771" gradientUnits="userSpaceOnUse">
<stop stop-color="#8A8A8A"/>
<stop offset="1" stop-color="#A7A7A7"/>
</linearGradient>
<linearGradient id="paint36_linear_117_4061" x1="521.318" y1="234.537" x2="303.248" y2="75.9055" gradientUnits="userSpaceOnUse">
<stop stop-color="#484848"/>
<stop offset="1" stop-color="#F6F6F6"/>
</linearGradient>
<linearGradient id="paint37_linear_117_4061" x1="417.256" y1="290.145" x2="411.588" y2="290.145" gradientUnits="userSpaceOnUse">
<stop stop-color="#8A8A8A"/>
<stop offset="1" stop-color="#A7A7A7"/>
</linearGradient>
<linearGradient id="paint38_linear_117_4061" x1="496.446" y1="320.004" x2="380.591" y2="235.727" gradientUnits="userSpaceOnUse">
<stop stop-color="#484848"/>
<stop offset="1" stop-color="#F6F6F6"/>
</linearGradient>
<linearGradient id="paint39_linear_117_4061" x1="306.683" y1="276.739" x2="300.9" y2="264.488" gradientUnits="userSpaceOnUse">
<stop stop-color="#808080"/>
<stop offset="1" stop-color="#565656"/>
</linearGradient>
<linearGradient id="paint40_linear_117_4061" x1="309.114" y1="291.874" x2="230.501" y2="124.586" gradientUnits="userSpaceOnUse">
<stop stop-color="#828282"/>
<stop offset="1" stop-color="#2B2B2B"/>
</linearGradient>
<linearGradient id="paint41_linear_117_4061" x1="671.281" y1="851.609" x2="28.9653" y2="327.475" gradientUnits="userSpaceOnUse">
<stop stop-color="#484848"/>
<stop offset="1" stop-color="#F6F6F6"/>
</linearGradient>
<linearGradient id="paint42_linear_117_4061" x1="303.593" y1="229.783" x2="289.531" y2="218.309" gradientUnits="userSpaceOnUse">
<stop stop-color="#484848"/>
<stop offset="1" stop-color="#F6F6F6"/>
</linearGradient>
<linearGradient id="paint43_linear_117_4061" x1="271.911" y1="336.855" x2="263.686" y2="336.855" gradientUnits="userSpaceOnUse">
<stop stop-color="#878787"/>
<stop offset="1" stop-color="#2B2B2B"/>
</linearGradient>
<linearGradient id="paint44_linear_117_4061" x1="261.518" y1="281.4" x2="259.814" y2="388.258" gradientUnits="userSpaceOnUse">
<stop stop-color="#B5B5B5"/>
<stop offset="1" stop-color="#565656"/>
</linearGradient>
<linearGradient id="paint45_linear_117_4061" x1="209.765" y1="484.977" x2="227.246" y2="10.6881" gradientUnits="userSpaceOnUse">
<stop stop-color="#484848"/>
<stop offset="1" stop-color="#F6F6F6"/>
</linearGradient>
<linearGradient id="paint46_linear_117_4061" x1="208.484" y1="405.423" x2="214.887" y2="231.716" gradientUnits="userSpaceOnUse">
<stop stop-color="#484848"/>
<stop offset="1" stop-color="#F6F6F6"/>
</linearGradient>
<linearGradient id="paint47_linear_117_4061" x1="238.537" y1="315.552" x2="242.596" y2="315.389" gradientUnits="userSpaceOnUse">
<stop stop-color="#929292"/>
<stop offset="1" stop-color="#2B2B2B"/>
</linearGradient>
<linearGradient id="paint48_linear_117_4061" x1="225.801" y1="340.833" x2="228.615" y2="340.833" gradientUnits="userSpaceOnUse">
<stop stop-color="#7E7E7E"/>
<stop offset="1" stop-color="#2B2B2B"/>
</linearGradient>
<linearGradient id="paint49_linear_117_4061" x1="192.033" y1="434.674" x2="196.425" y2="328.231" gradientUnits="userSpaceOnUse">
<stop stop-color="#484848"/>
<stop offset="1" stop-color="#F6F6F6"/>
</linearGradient>
<linearGradient id="paint50_linear_117_4061" x1="286.695" y1="383.108" x2="289.157" y2="379.41" gradientUnits="userSpaceOnUse">
<stop stop-color="#2C2C2C"/>
<stop offset="1" stop-color="#565656"/>
</linearGradient>
</defs>
</svg>
