<svg width="655" height="440" viewBox="0 0 655 440" fill="none" xmlns="http://www.w3.org/2000/svg">
<mask id="mask0_240_1309" style="mask-type:alpha" maskUnits="userSpaceOnUse" x="0" y="0" width="655" height="440">
<rect x="0.5" y="0.5" width="654" height="439" fill="white" stroke="#E0E0E0"/>
</mask>
<g mask="url(#mask0_240_1309)">
<rect width="328.329" height="219.163" fill="#2F2F2F"/>
<path d="M77.1025 115.36H79.7185C80.2305 115.36 80.5905 115.256 80.7985 115.048C81.0225 114.824 81.1345 114.456 81.1345 113.944V106.624C81.1345 106.112 81.0225 105.752 80.7985 105.544C80.5905 105.32 80.2305 105.208 79.7185 105.208H77.1025C76.9265 105.208 76.8385 105.296 76.8385 105.472V115.096C76.8385 115.272 76.9265 115.36 77.1025 115.36ZM73.7905 117.496V103.072C73.7905 102.736 73.9585 102.568 74.2945 102.568H80.2225C81.4705 102.568 82.4385 102.912 83.1265 103.6C83.8305 104.272 84.1825 105.232 84.1825 106.48V114.088C84.1825 115.336 83.8305 116.304 83.1265 116.992C82.4385 117.664 81.4705 118 80.2225 118H74.2945C73.9585 118 73.7905 117.832 73.7905 117.496ZM95.8401 118H90.5361C89.2721 118 88.2961 117.664 87.6081 116.992C86.9201 116.32 86.5761 115.352 86.5761 114.088V109.672C86.5761 108.408 86.9201 107.44 87.6081 106.768C88.2961 106.096 89.2721 105.76 90.5361 105.76H92.4321C93.6961 105.76 94.6721 106.096 95.3601 106.768C96.0481 107.44 96.3921 108.408 96.3921 109.672V112.72C96.3921 113.056 96.2241 113.224 95.8881 113.224H89.8641C89.6721 113.224 89.5761 113.312 89.5761 113.488V114.016C89.5761 114.512 89.6801 114.872 89.8881 115.096C90.1121 115.304 90.4801 115.408 90.9921 115.408H95.8401C96.1761 115.408 96.3441 115.584 96.3441 115.936V117.52C96.3441 117.696 96.3041 117.824 96.2241 117.904C96.1601 117.968 96.0321 118 95.8401 118ZM89.8641 111.184H93.1281C93.3041 111.184 93.3921 111.096 93.3921 110.92V109.768C93.3921 109.256 93.2881 108.896 93.0801 108.688C92.8721 108.48 92.5121 108.376 92.0001 108.376H90.9921C90.4801 108.376 90.1201 108.48 89.9121 108.688C89.7041 108.896 89.6001 109.256 89.6001 109.768V110.92C89.6001 111.096 89.6881 111.184 89.8641 111.184ZM103.307 118H98.7475C98.4275 118 98.2675 117.832 98.2675 117.496V115.96C98.2675 115.784 98.2995 115.664 98.3635 115.6C98.4275 115.52 98.5555 115.48 98.7475 115.48H102.755C103.539 115.48 103.931 115.24 103.931 114.76V114.64C103.931 114.256 103.603 113.888 102.947 113.536L100.571 112.216C99.7555 111.8 99.1555 111.352 98.7715 110.872C98.3875 110.392 98.1955 109.776 98.1955 109.024C98.1955 107.904 98.4915 107.08 99.0835 106.552C99.6755 106.024 100.603 105.76 101.867 105.76H105.875C106.195 105.76 106.355 105.928 106.355 106.264V107.824C106.355 108 106.323 108.128 106.259 108.208C106.195 108.272 106.067 108.304 105.875 108.304H102.539C101.755 108.304 101.363 108.504 101.363 108.904V109.024C101.363 109.376 101.707 109.736 102.395 110.104L104.819 111.544C105.651 111.992 106.235 112.456 106.571 112.936C106.907 113.4 107.075 114.016 107.075 114.784C107.075 116.928 105.819 118 103.307 118ZM109.319 103.696V101.608C109.319 101.288 109.479 101.128 109.799 101.128H111.887C112.207 101.128 112.367 101.28 112.367 101.584V103.696C112.367 104.016 112.207 104.176 111.887 104.176H109.799C109.479 104.176 109.319 104.016 109.319 103.696ZM109.319 117.496V106.264C109.319 105.928 109.479 105.76 109.799 105.76H111.863C112.199 105.76 112.367 105.928 112.367 106.264V117.496C112.367 117.704 112.327 117.84 112.247 117.904C112.183 117.968 112.063 118 111.887 118H109.823C109.487 118 109.319 117.832 109.319 117.496ZM119.449 117.448H118.657C117.425 117.448 116.489 117.112 115.849 116.44C115.225 115.768 114.913 114.8 114.913 113.536V109.672C114.913 108.408 115.257 107.44 115.945 106.768C116.633 106.096 117.609 105.76 118.873 105.76H124.417C124.769 105.76 124.945 105.928 124.945 106.264V118.096C124.945 119.344 124.593 120.304 123.889 120.976C123.201 121.648 122.233 121.984 120.985 121.984H116.377C116.185 121.984 116.049 121.944 115.969 121.864C115.905 121.8 115.873 121.68 115.873 121.504V119.848C115.873 119.512 116.041 119.344 116.377 119.344H120.481C120.993 119.344 121.353 119.232 121.561 119.008C121.785 118.8 121.897 118.448 121.897 117.952V116.128H121.801C121.625 116.56 121.313 116.888 120.865 117.112C120.417 117.336 119.945 117.448 119.449 117.448ZM121.897 112.984V108.664C121.897 108.488 121.801 108.4 121.609 108.4H119.353C118.841 108.4 118.481 108.512 118.273 108.736C118.065 108.944 117.961 109.304 117.961 109.816V113.392C117.961 113.904 118.065 114.264 118.273 114.472C118.481 114.68 118.841 114.784 119.353 114.784H120.241C121.345 114.784 121.897 114.184 121.897 112.984ZM130.118 118H128.078C127.742 118 127.574 117.832 127.574 117.496V106.264C127.574 105.928 127.742 105.76 128.078 105.76H130.118C130.454 105.76 130.622 105.928 130.622 106.264V107.056H130.718C131.07 106.192 131.854 105.76 133.07 105.76H133.838C136.35 105.76 137.606 107.064 137.606 109.672V117.496C137.606 117.832 137.43 118 137.078 118H135.062C134.726 118 134.558 117.832 134.558 117.496V109.816C134.558 109.304 134.446 108.944 134.222 108.736C134.014 108.512 133.654 108.4 133.142 108.4H132.278C131.174 108.4 130.622 109.008 130.622 110.224V117.496C130.622 117.832 130.454 118 130.118 118ZM148.818 103.072V117.496C148.818 117.832 148.65 118 148.314 118H146.274C145.938 118 145.77 117.832 145.77 117.496V103.072C145.77 102.736 145.938 102.568 146.274 102.568H148.314C148.65 102.568 148.818 102.736 148.818 103.072ZM154.352 118H152.312C151.976 118 151.808 117.832 151.808 117.496V106.264C151.808 105.928 151.976 105.76 152.312 105.76H154.352C154.688 105.76 154.856 105.928 154.856 106.264V107.056H154.952C155.304 106.192 156.088 105.76 157.304 105.76H158.072C160.584 105.76 161.84 107.064 161.84 109.672V117.496C161.84 117.832 161.664 118 161.312 118H159.296C158.96 118 158.792 117.832 158.792 117.496V109.816C158.792 109.304 158.68 108.944 158.456 108.736C158.248 108.512 157.888 108.4 157.376 108.4H156.512C155.408 108.4 154.856 109.008 154.856 110.224V117.496C154.856 117.832 154.688 118 154.352 118ZM164.635 108.4H163.675C163.483 108.4 163.347 108.368 163.267 108.304C163.203 108.24 163.171 108.112 163.171 107.92V106.264C163.171 105.928 163.339 105.76 163.675 105.76H164.635C164.811 105.76 164.899 105.672 164.899 105.496V103.216C164.899 102.88 165.075 102.712 165.427 102.712H167.443C167.779 102.712 167.947 102.88 167.947 103.216V105.496C167.947 105.672 168.043 105.76 168.235 105.76H170.107C170.443 105.76 170.611 105.928 170.611 106.264V107.92C170.611 108.096 170.571 108.224 170.491 108.304C170.427 108.368 170.299 108.4 170.107 108.4H168.235C168.043 108.4 167.947 108.488 167.947 108.664V113.968C167.947 114.464 168.059 114.824 168.283 115.048C168.507 115.256 168.875 115.36 169.387 115.36H170.347C170.683 115.36 170.851 115.528 170.851 115.864V117.52C170.851 117.696 170.811 117.824 170.731 117.904C170.667 117.968 170.539 118 170.347 118H168.883C167.619 118 166.635 117.664 165.931 116.992C165.243 116.32 164.899 115.36 164.899 114.112V108.664C164.899 108.488 164.811 108.4 164.635 108.4ZM181.856 118H176.552C175.288 118 174.312 117.664 173.624 116.992C172.936 116.32 172.592 115.352 172.592 114.088V109.672C172.592 108.408 172.936 107.44 173.624 106.768C174.312 106.096 175.288 105.76 176.552 105.76H178.448C179.712 105.76 180.688 106.096 181.376 106.768C182.064 107.44 182.408 108.408 182.408 109.672V112.72C182.408 113.056 182.24 113.224 181.904 113.224H175.88C175.688 113.224 175.592 113.312 175.592 113.488V114.016C175.592 114.512 175.696 114.872 175.904 115.096C176.128 115.304 176.496 115.408 177.008 115.408H181.856C182.192 115.408 182.36 115.584 182.36 115.936V117.52C182.36 117.696 182.32 117.824 182.24 117.904C182.176 117.968 182.048 118 181.856 118ZM175.88 111.184H179.144C179.32 111.184 179.408 111.096 179.408 110.92V109.768C179.408 109.256 179.304 108.896 179.096 108.688C178.888 108.48 178.528 108.376 178.016 108.376H177.008C176.496 108.376 176.136 108.48 175.928 108.688C175.72 108.896 175.616 109.256 175.616 109.768V110.92C175.616 111.096 175.704 111.184 175.88 111.184ZM189.011 117.448H188.219C186.987 117.448 186.051 117.112 185.411 116.44C184.787 115.768 184.475 114.8 184.475 113.536V109.672C184.475 108.408 184.819 107.44 185.507 106.768C186.195 106.096 187.171 105.76 188.435 105.76H193.979C194.331 105.76 194.507 105.928 194.507 106.264V118.096C194.507 119.344 194.155 120.304 193.451 120.976C192.763 121.648 191.795 121.984 190.547 121.984H185.939C185.747 121.984 185.611 121.944 185.531 121.864C185.467 121.8 185.435 121.68 185.435 121.504V119.848C185.435 119.512 185.603 119.344 185.939 119.344H190.043C190.555 119.344 190.915 119.232 191.123 119.008C191.347 118.8 191.459 118.448 191.459 117.952V116.128H191.363C191.187 116.56 190.875 116.888 190.427 117.112C189.979 117.336 189.507 117.448 189.011 117.448ZM191.459 112.984V108.664C191.459 108.488 191.363 108.4 191.171 108.4H188.915C188.403 108.4 188.043 108.512 187.835 108.736C187.627 108.944 187.523 109.304 187.523 109.816V113.392C187.523 113.904 187.627 114.264 187.835 114.472C188.043 114.68 188.403 114.784 188.915 114.784H189.803C190.907 114.784 191.459 114.184 191.459 112.984ZM199.68 118H197.64C197.304 118 197.136 117.832 197.136 117.496V106.264C197.136 105.928 197.304 105.76 197.64 105.76H199.68C200.016 105.76 200.184 105.928 200.184 106.264V107.08H200.28C200.456 106.648 200.768 106.32 201.216 106.096C201.664 105.872 202.136 105.76 202.632 105.76H203.496C203.816 105.76 203.976 105.928 203.976 106.264V107.92C203.976 108.112 203.936 108.248 203.856 108.328C203.792 108.392 203.672 108.416 203.496 108.4H201.84C200.736 108.4 200.184 109.024 200.184 110.272V117.496C200.184 117.832 200.016 118 199.68 118ZM209.8 118H209.224C207.96 118 206.984 117.664 206.296 116.992C205.608 116.32 205.264 115.352 205.264 114.088V109.672C205.264 108.408 205.608 107.44 206.296 106.768C206.984 106.096 207.96 105.76 209.224 105.76H214.768C215.12 105.76 215.296 105.928 215.296 106.264V117.496C215.296 117.832 215.12 118 214.768 118H212.752C212.416 118 212.248 117.832 212.248 117.496V116.704H212.152C211.976 117.136 211.664 117.464 211.216 117.688C210.768 117.896 210.296 118 209.8 118ZM212.248 113.536V108.664C212.248 108.488 212.152 108.4 211.96 108.4H209.704C209.192 108.4 208.832 108.512 208.624 108.736C208.416 108.944 208.312 109.304 208.312 109.816V113.944C208.312 114.456 208.416 114.824 208.624 115.048C208.832 115.256 209.192 115.36 209.704 115.36H210.592C211.696 115.36 212.248 114.752 212.248 113.536ZM218.189 108.4H217.229C217.037 108.4 216.901 108.368 216.821 108.304C216.757 108.24 216.725 108.112 216.725 107.92V106.264C216.725 105.928 216.893 105.76 217.229 105.76H218.189C218.365 105.76 218.453 105.672 218.453 105.496V103.216C218.453 102.88 218.629 102.712 218.981 102.712H220.997C221.333 102.712 221.501 102.88 221.501 103.216V105.496C221.501 105.672 221.597 105.76 221.789 105.76H223.661C223.997 105.76 224.165 105.928 224.165 106.264V107.92C224.165 108.096 224.125 108.224 224.045 108.304C223.981 108.368 223.853 108.4 223.661 108.4H221.789C221.597 108.4 221.501 108.488 221.501 108.664V113.968C221.501 114.464 221.613 114.824 221.837 115.048C222.061 115.256 222.429 115.36 222.941 115.36H223.901C224.237 115.36 224.405 115.528 224.405 115.864V117.52C224.405 117.696 224.365 117.824 224.285 117.904C224.221 117.968 224.093 118 223.901 118H222.437C221.173 118 220.189 117.664 219.485 116.992C218.797 116.32 218.453 115.36 218.453 114.112V108.664C218.453 108.488 218.365 108.4 218.189 108.4ZM226.506 103.696V101.608C226.506 101.288 226.666 101.128 226.986 101.128H229.074C229.394 101.128 229.554 101.28 229.554 101.584V103.696C229.554 104.016 229.394 104.176 229.074 104.176H226.986C226.666 104.176 226.506 104.016 226.506 103.696ZM226.506 117.496V106.264C226.506 105.928 226.666 105.76 226.986 105.76H229.05C229.386 105.76 229.554 105.928 229.554 106.264V117.496C229.554 117.704 229.514 117.84 229.434 117.904C229.37 117.968 229.25 118 229.074 118H227.01C226.674 118 226.506 117.832 226.506 117.496ZM238.172 118H236.036C234.772 118 233.796 117.664 233.108 116.992C232.42 116.32 232.076 115.352 232.076 114.088V109.672C232.076 108.408 232.42 107.44 233.108 106.768C233.796 106.096 234.772 105.76 236.036 105.76H238.172C239.42 105.76 240.388 106.104 241.076 106.792C241.78 107.464 242.132 108.424 242.132 109.672V114.088C242.132 115.336 241.78 116.304 241.076 116.992C240.388 117.664 239.42 118 238.172 118ZM236.492 115.384H237.716C238.228 115.384 238.588 115.28 238.796 115.072C239.02 114.864 239.132 114.504 239.132 113.992V109.768C239.132 109.256 239.02 108.896 238.796 108.688C238.588 108.48 238.228 108.376 237.716 108.376H236.492C235.98 108.376 235.62 108.48 235.412 108.688C235.204 108.896 235.1 109.256 235.1 109.768V113.992C235.1 114.504 235.204 114.864 235.412 115.072C235.62 115.28 235.98 115.384 236.492 115.384ZM247.071 118H245.031C244.695 118 244.527 117.832 244.527 117.496V106.264C244.527 105.928 244.695 105.76 245.031 105.76H247.071C247.407 105.76 247.575 105.928 247.575 106.264V107.056H247.671C248.023 106.192 248.807 105.76 250.023 105.76H250.791C253.303 105.76 254.559 107.064 254.559 109.672V117.496C254.559 117.832 254.383 118 254.031 118H252.015C251.679 118 251.511 117.832 251.511 117.496V109.816C251.511 109.304 251.399 108.944 251.175 108.736C250.967 108.512 250.607 108.4 250.095 108.4H249.231C248.127 108.4 247.575 109.008 247.575 110.224V117.496C247.575 117.832 247.407 118 247.071 118Z" fill="white"/>
<rect x="326.671" width="328.329" height="219.163" fill="#F1F1F1"/>
<path d="M375.568 117H372.952C371.688 117 370.712 116.664 370.024 115.992C369.336 115.32 368.992 114.352 368.992 113.088V105.48C368.992 104.216 369.336 103.248 370.024 102.576C370.712 101.904 371.688 101.568 372.952 101.568H375.568C376.816 101.568 377.784 101.912 378.472 102.6C379.176 103.272 379.528 104.232 379.528 105.48V106.608C379.528 106.96 379.352 107.136 379 107.136H376.984C376.648 107.136 376.48 106.96 376.48 106.608V105.624C376.48 105.112 376.368 104.752 376.144 104.544C375.936 104.32 375.576 104.208 375.064 104.208H373.432C372.936 104.208 372.576 104.32 372.352 104.544C372.144 104.752 372.04 105.112 372.04 105.624V112.944C372.04 113.456 372.144 113.824 372.352 114.048C372.576 114.256 372.936 114.36 373.432 114.36H375.064C375.576 114.36 375.936 114.256 376.144 114.048C376.368 113.824 376.48 113.456 376.48 112.944V111.96C376.48 111.608 376.648 111.432 376.984 111.432H379C379.352 111.432 379.528 111.608 379.528 111.96V113.088C379.528 114.336 379.176 115.304 378.472 115.992C377.784 116.664 376.816 117 375.568 117ZM386.322 117H385.53C384.298 117 383.362 116.664 382.722 115.992C382.098 115.32 381.786 114.352 381.786 113.088V105.264C381.786 104.928 381.954 104.76 382.29 104.76H384.33C384.666 104.76 384.834 104.928 384.834 105.264V112.944C384.834 113.456 384.938 113.824 385.146 114.048C385.37 114.256 385.73 114.36 386.226 114.36H387.114C388.218 114.36 388.77 113.752 388.77 112.536V105.264C388.77 104.928 388.938 104.76 389.274 104.76H391.29C391.642 104.76 391.818 104.928 391.818 105.264V116.496C391.818 116.832 391.642 117 391.29 117H389.274C388.938 117 388.77 116.832 388.77 116.496V115.704H388.674C388.498 116.136 388.186 116.464 387.738 116.688C387.29 116.896 386.818 117 386.322 117ZM399.1 117H394.54C394.22 117 394.06 116.832 394.06 116.496V114.96C394.06 114.784 394.092 114.664 394.156 114.6C394.22 114.52 394.348 114.48 394.54 114.48H398.548C399.332 114.48 399.724 114.24 399.724 113.76V113.64C399.724 113.256 399.396 112.888 398.74 112.536L396.364 111.216C395.548 110.8 394.948 110.352 394.564 109.872C394.18 109.392 393.988 108.776 393.988 108.024C393.988 106.904 394.284 106.08 394.876 105.552C395.468 105.024 396.396 104.76 397.66 104.76H401.668C401.988 104.76 402.148 104.928 402.148 105.264V106.824C402.148 107 402.116 107.128 402.052 107.208C401.988 107.272 401.86 107.304 401.668 107.304H398.332C397.548 107.304 397.156 107.504 397.156 107.904V108.024C397.156 108.376 397.5 108.736 398.188 109.104L400.612 110.544C401.444 110.992 402.028 111.456 402.364 111.936C402.7 112.4 402.868 113.016 402.868 113.784C402.868 115.928 401.612 117 399.1 117ZM405.256 107.4H404.296C404.104 107.4 403.968 107.368 403.888 107.304C403.824 107.24 403.792 107.112 403.792 106.92V105.264C403.792 104.928 403.96 104.76 404.296 104.76H405.256C405.432 104.76 405.52 104.672 405.52 104.496V102.216C405.52 101.88 405.696 101.712 406.048 101.712H408.064C408.4 101.712 408.568 101.88 408.568 102.216V104.496C408.568 104.672 408.664 104.76 408.856 104.76H410.728C411.064 104.76 411.232 104.928 411.232 105.264V106.92C411.232 107.096 411.192 107.224 411.112 107.304C411.048 107.368 410.92 107.4 410.728 107.4H408.856C408.664 107.4 408.568 107.488 408.568 107.664V112.968C408.568 113.464 408.68 113.824 408.904 114.048C409.128 114.256 409.496 114.36 410.008 114.36H410.968C411.304 114.36 411.472 114.528 411.472 114.864V116.52C411.472 116.696 411.432 116.824 411.352 116.904C411.288 116.968 411.16 117 410.968 117H409.504C408.24 117 407.256 116.664 406.552 115.992C405.864 115.32 405.52 114.36 405.52 113.112V107.664C405.52 107.488 405.432 107.4 405.256 107.4ZM419.309 117H417.173C415.909 117 414.933 116.664 414.245 115.992C413.557 115.32 413.213 114.352 413.213 113.088V108.672C413.213 107.408 413.557 106.44 414.245 105.768C414.933 105.096 415.909 104.76 417.173 104.76H419.309C420.557 104.76 421.525 105.104 422.213 105.792C422.917 106.464 423.269 107.424 423.269 108.672V113.088C423.269 114.336 422.917 115.304 422.213 115.992C421.525 116.664 420.557 117 419.309 117ZM417.629 114.384H418.853C419.365 114.384 419.725 114.28 419.933 114.072C420.157 113.864 420.269 113.504 420.269 112.992V108.768C420.269 108.256 420.157 107.896 419.933 107.688C419.725 107.48 419.365 107.376 418.853 107.376H417.629C417.117 107.376 416.757 107.48 416.549 107.688C416.341 107.896 416.237 108.256 416.237 108.768V112.992C416.237 113.504 416.341 113.864 416.549 114.072C416.757 114.28 417.117 114.384 417.629 114.384ZM428.208 117H426.168C425.832 117 425.664 116.832 425.664 116.496V105.264C425.664 104.928 425.832 104.76 426.168 104.76H428.208C428.544 104.76 428.712 104.928 428.712 105.264V106.056H428.808C429 105.672 429.32 105.36 429.768 105.12C430.232 104.88 430.76 104.76 431.352 104.76H432.024C433.416 104.76 434.416 105.272 435.024 106.296C435.568 105.272 436.504 104.76 437.832 104.76H438.528C439.76 104.76 440.688 105.096 441.312 105.768C441.952 106.44 442.272 107.408 442.272 108.672V116.496C442.272 116.832 442.104 117 441.768 117H439.728C439.392 117 439.224 116.832 439.224 116.496V108.816C439.224 108.304 439.12 107.944 438.912 107.736C438.704 107.512 438.344 107.4 437.832 107.4H437.232C436.128 107.4 435.576 108.016 435.576 109.248V116.496C435.576 116.832 435.4 117 435.048 117H433.032C432.696 117 432.528 116.832 432.528 116.496V108.816C432.528 108.304 432.416 107.944 432.192 107.736C431.984 107.512 431.624 107.4 431.112 107.4H430.368C429.264 107.4 428.712 108.008 428.712 109.224V116.496C428.712 116.832 428.544 117 428.208 117ZM444.932 102.696V100.608C444.932 100.288 445.092 100.128 445.412 100.128H447.5C447.82 100.128 447.98 100.28 447.98 100.584V102.696C447.98 103.016 447.82 103.176 447.5 103.176H445.412C445.092 103.176 444.932 103.016 444.932 102.696ZM444.932 116.496V105.264C444.932 104.928 445.092 104.76 445.412 104.76H447.476C447.812 104.76 447.98 104.928 447.98 105.264V116.496C447.98 116.704 447.94 116.84 447.86 116.904C447.796 116.968 447.676 117 447.5 117H445.436C445.1 117 444.932 116.832 444.932 116.496ZM450.166 116.496V115.704C450.166 115.16 450.318 114.696 450.622 114.312L455.71 107.472V107.376H450.886C450.55 107.376 450.382 107.2 450.382 106.848V105.264C450.382 104.928 450.55 104.76 450.886 104.76H458.71C459.046 104.76 459.214 104.928 459.214 105.264V106.704C459.214 107.216 459.086 107.632 458.83 107.952L454.126 114.288V114.384H458.974C459.31 114.384 459.478 114.56 459.478 114.912V116.496C459.478 116.832 459.31 117 458.974 117H450.67C450.334 117 450.166 116.832 450.166 116.496ZM470.547 117H465.243C463.979 117 463.003 116.664 462.315 115.992C461.627 115.32 461.283 114.352 461.283 113.088V108.672C461.283 107.408 461.627 106.44 462.315 105.768C463.003 105.096 463.979 104.76 465.243 104.76H467.139C468.403 104.76 469.379 105.096 470.067 105.768C470.755 106.44 471.099 107.408 471.099 108.672V111.72C471.099 112.056 470.931 112.224 470.595 112.224H464.571C464.379 112.224 464.283 112.312 464.283 112.488V113.016C464.283 113.512 464.387 113.872 464.595 114.096C464.819 114.304 465.187 114.408 465.699 114.408H470.547C470.883 114.408 471.051 114.584 471.051 114.936V116.52C471.051 116.696 471.011 116.824 470.931 116.904C470.867 116.968 470.739 117 470.547 117ZM464.571 110.184H467.835C468.011 110.184 468.099 110.096 468.099 109.92V108.768C468.099 108.256 467.995 107.896 467.787 107.688C467.579 107.48 467.219 107.376 466.707 107.376H465.699C465.187 107.376 464.827 107.48 464.619 107.688C464.411 107.896 464.307 108.256 464.307 108.768V109.92C464.307 110.096 464.395 110.184 464.571 110.184ZM477.871 117H476.887C475.655 117 474.719 116.664 474.079 115.992C473.455 115.32 473.143 114.352 473.143 113.088V108.672C473.143 107.408 473.455 106.44 474.079 105.768C474.719 105.096 475.655 104.76 476.887 104.76H477.871C478.367 104.76 478.839 104.872 479.287 105.096C479.735 105.304 480.047 105.624 480.223 106.056H480.319V100.632C480.319 100.296 480.487 100.128 480.823 100.128H482.863C483.199 100.128 483.367 100.296 483.367 100.632V116.496C483.367 116.832 483.199 117 482.863 117H480.823C480.487 117 480.319 116.832 480.319 116.496V115.704H480.223C480.047 116.136 479.735 116.464 479.287 116.688C478.839 116.896 478.367 117 477.871 117ZM480.319 112.536V109.224C480.319 108.008 479.767 107.4 478.663 107.4H477.583C477.071 107.4 476.711 107.512 476.503 107.736C476.295 107.944 476.191 108.304 476.191 108.816V112.944C476.191 113.456 476.295 113.824 476.503 114.048C476.711 114.256 477.071 114.36 477.583 114.36H478.663C479.767 114.36 480.319 113.752 480.319 112.536ZM494.073 117H492.033C491.697 117 491.529 116.832 491.529 116.496V102.072C491.529 101.736 491.697 101.568 492.033 101.568H497.889C499.137 101.568 500.105 101.912 500.793 102.6C501.481 103.272 501.825 104.232 501.825 105.48V107.784C501.825 109.032 501.481 110 500.793 110.688C500.105 111.36 499.137 111.696 497.889 111.696H494.865C494.673 111.696 494.577 111.784 494.577 111.96V116.496C494.577 116.832 494.409 117 494.073 117ZM494.841 109.032H497.385C497.897 109.032 498.257 108.928 498.465 108.72C498.673 108.496 498.777 108.136 498.777 107.64V105.624C498.777 105.112 498.673 104.752 498.465 104.544C498.257 104.32 497.897 104.208 497.385 104.208H494.841C494.665 104.208 494.577 104.296 494.577 104.472V108.768C494.577 108.944 494.665 109.032 494.841 109.032ZM508.311 117H507.735C506.471 117 505.495 116.664 504.807 115.992C504.119 115.32 503.775 114.352 503.775 113.088V108.672C503.775 107.408 504.119 106.44 504.807 105.768C505.495 105.096 506.471 104.76 507.735 104.76H513.279C513.631 104.76 513.807 104.928 513.807 105.264V116.496C513.807 116.832 513.631 117 513.279 117H511.263C510.927 117 510.759 116.832 510.759 116.496V115.704H510.663C510.487 116.136 510.175 116.464 509.727 116.688C509.279 116.896 508.807 117 508.311 117ZM510.759 112.536V107.664C510.759 107.488 510.663 107.4 510.471 107.4H508.215C507.703 107.4 507.343 107.512 507.135 107.736C506.927 107.944 506.823 108.304 506.823 108.816V112.944C506.823 113.456 506.927 113.824 507.135 114.048C507.343 114.256 507.703 114.36 508.215 114.36H509.103C510.207 114.36 510.759 113.752 510.759 112.536ZM518.981 117H516.941C516.605 117 516.437 116.832 516.437 116.496V105.264C516.437 104.928 516.605 104.76 516.941 104.76H518.981C519.317 104.76 519.485 104.928 519.485 105.264V106.08H519.581C519.757 105.648 520.069 105.32 520.517 105.096C520.965 104.872 521.437 104.76 521.933 104.76H522.797C523.117 104.76 523.277 104.928 523.277 105.264V106.92C523.277 107.112 523.237 107.248 523.157 107.328C523.093 107.392 522.973 107.416 522.797 107.4H521.141C520.037 107.4 519.485 108.024 519.485 109.272V116.496C519.485 116.832 519.317 117 518.981 117ZM525.068 107.4H524.108C523.916 107.4 523.78 107.368 523.7 107.304C523.636 107.24 523.604 107.112 523.604 106.92V105.264C523.604 104.928 523.772 104.76 524.108 104.76H525.068C525.244 104.76 525.332 104.672 525.332 104.496V102.216C525.332 101.88 525.508 101.712 525.86 101.712H527.876C528.212 101.712 528.38 101.88 528.38 102.216V104.496C528.38 104.672 528.476 104.76 528.668 104.76H530.54C530.876 104.76 531.044 104.928 531.044 105.264V106.92C531.044 107.096 531.004 107.224 530.924 107.304C530.86 107.368 530.732 107.4 530.54 107.4H528.668C528.476 107.4 528.38 107.488 528.38 107.664V112.968C528.38 113.464 528.492 113.824 528.716 114.048C528.94 114.256 529.308 114.36 529.82 114.36H530.78C531.116 114.36 531.284 114.528 531.284 114.864V116.52C531.284 116.696 531.244 116.824 531.164 116.904C531.1 116.968 530.972 117 530.78 117H529.316C528.052 117 527.068 116.664 526.364 115.992C525.676 115.32 525.332 114.36 525.332 113.112V107.664C525.332 107.488 525.244 107.4 525.068 107.4ZM537.897 117H533.337C533.017 117 532.857 116.832 532.857 116.496V114.96C532.857 114.784 532.889 114.664 532.953 114.6C533.017 114.52 533.145 114.48 533.337 114.48H537.345C538.129 114.48 538.521 114.24 538.521 113.76V113.64C538.521 113.256 538.193 112.888 537.537 112.536L535.161 111.216C534.345 110.8 533.745 110.352 533.361 109.872C532.977 109.392 532.785 108.776 532.785 108.024C532.785 106.904 533.081 106.08 533.673 105.552C534.265 105.024 535.193 104.76 536.457 104.76H540.465C540.785 104.76 540.945 104.928 540.945 105.264V106.824C540.945 107 540.913 107.128 540.849 107.208C540.785 107.272 540.657 107.304 540.465 107.304H537.129C536.345 107.304 535.953 107.504 535.953 107.904V108.024C535.953 108.376 536.297 108.736 536.985 109.104L539.409 110.544C540.241 110.992 540.825 111.456 541.161 111.936C541.497 112.4 541.665 113.016 541.665 113.784C541.665 115.928 540.409 117 537.897 117ZM552.614 114.36H555.23C555.742 114.36 556.102 114.256 556.31 114.048C556.534 113.824 556.646 113.456 556.646 112.944V105.624C556.646 105.112 556.534 104.752 556.31 104.544C556.102 104.32 555.742 104.208 555.23 104.208H552.614C552.438 104.208 552.35 104.296 552.35 104.472V114.096C552.35 114.272 552.438 114.36 552.614 114.36ZM549.302 116.496V102.072C549.302 101.736 549.47 101.568 549.806 101.568H555.734C556.982 101.568 557.95 101.912 558.638 102.6C559.342 103.272 559.694 104.232 559.694 105.48V113.088C559.694 114.336 559.342 115.304 558.638 115.992C557.95 116.664 556.982 117 555.734 117H549.806C549.47 117 549.302 116.832 549.302 116.496ZM571.352 117H566.048C564.784 117 563.808 116.664 563.12 115.992C562.432 115.32 562.088 114.352 562.088 113.088V108.672C562.088 107.408 562.432 106.44 563.12 105.768C563.808 105.096 564.784 104.76 566.048 104.76H567.944C569.208 104.76 570.184 105.096 570.872 105.768C571.56 106.44 571.904 107.408 571.904 108.672V111.72C571.904 112.056 571.736 112.224 571.4 112.224H565.376C565.184 112.224 565.088 112.312 565.088 112.488V113.016C565.088 113.512 565.192 113.872 565.4 114.096C565.624 114.304 565.992 114.408 566.504 114.408H571.352C571.688 114.408 571.856 114.584 571.856 114.936V116.52C571.856 116.696 571.816 116.824 571.736 116.904C571.672 116.968 571.544 117 571.352 117ZM565.376 110.184H568.64C568.816 110.184 568.904 110.096 568.904 109.92V108.768C568.904 108.256 568.8 107.896 568.592 107.688C568.384 107.48 568.024 107.376 567.512 107.376H566.504C565.992 107.376 565.632 107.48 565.424 107.688C565.216 107.896 565.112 108.256 565.112 108.768V109.92C565.112 110.096 565.2 110.184 565.376 110.184ZM578.819 117H574.259C573.939 117 573.779 116.832 573.779 116.496V114.96C573.779 114.784 573.811 114.664 573.875 114.6C573.939 114.52 574.067 114.48 574.259 114.48H578.267C579.051 114.48 579.443 114.24 579.443 113.76V113.64C579.443 113.256 579.115 112.888 578.459 112.536L576.083 111.216C575.267 110.8 574.667 110.352 574.283 109.872C573.899 109.392 573.707 108.776 573.707 108.024C573.707 106.904 574.003 106.08 574.595 105.552C575.187 105.024 576.115 104.76 577.379 104.76H581.387C581.707 104.76 581.867 104.928 581.867 105.264V106.824C581.867 107 581.835 107.128 581.771 107.208C581.707 107.272 581.579 107.304 581.387 107.304H578.051C577.267 107.304 576.875 107.504 576.875 107.904V108.024C576.875 108.376 577.219 108.736 577.907 109.104L580.331 110.544C581.163 110.992 581.747 111.456 582.083 111.936C582.419 112.4 582.587 113.016 582.587 113.784C582.587 115.928 581.331 117 578.819 117ZM584.831 102.696V100.608C584.831 100.288 584.991 100.128 585.311 100.128H587.399C587.719 100.128 587.879 100.28 587.879 100.584V102.696C587.879 103.016 587.719 103.176 587.399 103.176H585.311C584.991 103.176 584.831 103.016 584.831 102.696ZM584.831 116.496V105.264C584.831 104.928 584.991 104.76 585.311 104.76H587.375C587.711 104.76 587.879 104.928 587.879 105.264V116.496C587.879 116.704 587.839 116.84 587.759 116.904C587.695 116.968 587.575 117 587.399 117H585.335C584.999 117 584.831 116.832 584.831 116.496ZM594.96 116.448H594.168C592.936 116.448 592 116.112 591.36 115.44C590.736 114.768 590.424 113.8 590.424 112.536V108.672C590.424 107.408 590.768 106.44 591.456 105.768C592.144 105.096 593.12 104.76 594.384 104.76H599.928C600.28 104.76 600.456 104.928 600.456 105.264V117.096C600.456 118.344 600.104 119.304 599.4 119.976C598.712 120.648 597.744 120.984 596.496 120.984H591.888C591.696 120.984 591.56 120.944 591.48 120.864C591.416 120.8 591.384 120.68 591.384 120.504V118.848C591.384 118.512 591.552 118.344 591.888 118.344H595.992C596.504 118.344 596.864 118.232 597.072 118.008C597.296 117.8 597.408 117.448 597.408 116.952V115.128H597.312C597.136 115.56 596.824 115.888 596.376 116.112C595.928 116.336 595.456 116.448 594.96 116.448ZM597.408 111.984V107.664C597.408 107.488 597.312 107.4 597.12 107.4H594.864C594.352 107.4 593.992 107.512 593.784 107.736C593.576 107.944 593.472 108.304 593.472 108.816V112.392C593.472 112.904 593.576 113.264 593.784 113.472C593.992 113.68 594.352 113.784 594.864 113.784H595.752C596.856 113.784 597.408 113.184 597.408 111.984ZM605.63 117H603.59C603.254 117 603.086 116.832 603.086 116.496V105.264C603.086 104.928 603.254 104.76 603.59 104.76H605.63C605.966 104.76 606.134 104.928 606.134 105.264V106.056H606.23C606.582 105.192 607.366 104.76 608.582 104.76H609.35C611.862 104.76 613.118 106.064 613.118 108.672V116.496C613.118 116.832 612.942 117 612.59 117H610.574C610.238 117 610.07 116.832 610.07 116.496V108.816C610.07 108.304 609.958 107.944 609.734 107.736C609.526 107.512 609.166 107.4 608.654 107.4H607.79C606.686 107.4 606.134 108.008 606.134 109.224V116.496C606.134 116.832 605.966 117 605.63 117Z" fill="black"/>
<rect y="220.836" width="328.329" height="219.163" fill="#F1F1F1"/>
<path d="M64.6392 305H62.5992C62.2632 305 62.0952 304.832 62.0952 304.496V290.072C62.0952 289.736 62.2632 289.568 62.5992 289.568H68.4552C69.7032 289.568 70.6712 289.912 71.3592 290.6C72.0472 291.272 72.3912 292.232 72.3912 293.48V295.784C72.3912 297.032 72.0472 298 71.3592 298.688C70.6712 299.36 69.7032 299.696 68.4552 299.696H65.4312C65.2392 299.696 65.1432 299.784 65.1432 299.96V304.496C65.1432 304.832 64.9752 305 64.6392 305ZM65.4072 297.032H67.9512C68.4632 297.032 68.8232 296.928 69.0312 296.72C69.2392 296.496 69.3432 296.136 69.3432 295.64V293.624C69.3432 293.112 69.2392 292.752 69.0312 292.544C68.8232 292.32 68.4632 292.208 67.9512 292.208H65.4072C65.2312 292.208 65.1432 292.296 65.1432 292.472V296.768C65.1432 296.944 65.2312 297.032 65.4072 297.032ZM77.1257 305H75.0857C74.7497 305 74.5817 304.832 74.5817 304.496V293.264C74.5817 292.928 74.7497 292.76 75.0857 292.76H77.1257C77.4617 292.76 77.6297 292.928 77.6297 293.264V294.08H77.7257C77.9017 293.648 78.2137 293.32 78.6617 293.096C79.1097 292.872 79.5817 292.76 80.0777 292.76H80.9417C81.2617 292.76 81.4217 292.928 81.4217 293.264V294.92C81.4217 295.112 81.3817 295.248 81.3017 295.328C81.2377 295.392 81.1177 295.416 80.9417 295.4H79.2857C78.1817 295.4 77.6297 296.024 77.6297 297.272V304.496C77.6297 304.832 77.4617 305 77.1257 305ZM88.8049 305H86.6689C85.4049 305 84.4289 304.664 83.7409 303.992C83.0529 303.32 82.7089 302.352 82.7089 301.088V296.672C82.7089 295.408 83.0529 294.44 83.7409 293.768C84.4289 293.096 85.4049 292.76 86.6689 292.76H88.8049C90.0529 292.76 91.0209 293.104 91.7089 293.792C92.4129 294.464 92.7649 295.424 92.7649 296.672V301.088C92.7649 302.336 92.4129 303.304 91.7089 303.992C91.0209 304.664 90.0529 305 88.8049 305ZM87.1249 302.384H88.3489C88.8609 302.384 89.2209 302.28 89.4289 302.072C89.6529 301.864 89.7649 301.504 89.7649 300.992V296.768C89.7649 296.256 89.6529 295.896 89.4289 295.688C89.2209 295.48 88.8609 295.376 88.3489 295.376H87.1249C86.6129 295.376 86.2529 295.48 86.0449 295.688C85.8369 295.896 85.7329 296.256 85.7329 296.768V300.992C85.7329 301.504 85.8369 301.864 86.0449 302.072C86.2529 302.28 86.6129 302.384 87.1249 302.384ZM99.6478 305H98.6638C97.4318 305 96.4958 304.664 95.8558 303.992C95.2318 303.32 94.9198 302.352 94.9198 301.088V296.672C94.9198 295.408 95.2318 294.44 95.8558 293.768C96.4958 293.096 97.4318 292.76 98.6638 292.76H99.6478C100.144 292.76 100.616 292.872 101.064 293.096C101.512 293.304 101.824 293.624 102 294.056H102.096V288.632C102.096 288.296 102.264 288.128 102.6 288.128H104.64C104.976 288.128 105.144 288.296 105.144 288.632V304.496C105.144 304.832 104.976 305 104.64 305H102.6C102.264 305 102.096 304.832 102.096 304.496V303.704H102C101.824 304.136 101.512 304.464 101.064 304.688C100.616 304.896 100.144 305 99.6478 305ZM102.096 300.536V297.224C102.096 296.008 101.544 295.4 100.44 295.4H99.3598C98.8478 295.4 98.4878 295.512 98.2798 295.736C98.0718 295.944 97.9678 296.304 97.9678 296.816V300.944C97.9678 301.456 98.0718 301.824 98.2798 302.048C98.4878 302.256 98.8478 302.36 99.3598 302.36H100.44C101.544 302.36 102.096 301.752 102.096 300.536ZM112.209 305H111.417C110.185 305 109.249 304.664 108.609 303.992C107.985 303.32 107.673 302.352 107.673 301.088V293.264C107.673 292.928 107.841 292.76 108.177 292.76H110.217C110.553 292.76 110.721 292.928 110.721 293.264V300.944C110.721 301.456 110.825 301.824 111.033 302.048C111.257 302.256 111.617 302.36 112.113 302.36H113.001C114.105 302.36 114.657 301.752 114.657 300.536V293.264C114.657 292.928 114.825 292.76 115.161 292.76H117.177C117.529 292.76 117.705 292.928 117.705 293.264V304.496C117.705 304.832 117.529 305 117.177 305H115.161C114.825 305 114.657 304.832 114.657 304.496V303.704H114.561C114.385 304.136 114.073 304.464 113.625 304.688C113.177 304.896 112.705 305 112.209 305ZM128.155 302.864V304.52C128.155 304.696 128.115 304.824 128.035 304.904C127.971 304.968 127.843 305 127.651 305H124.075C122.811 305 121.835 304.664 121.147 303.992C120.459 303.32 120.115 302.352 120.115 301.088V296.672C120.115 295.408 120.459 294.44 121.147 293.768C121.835 293.096 122.811 292.76 124.075 292.76H127.651C127.987 292.76 128.155 292.928 128.155 293.264V294.92C128.155 295.096 128.115 295.224 128.035 295.304C127.971 295.368 127.843 295.4 127.651 295.4H124.555C124.059 295.4 123.699 295.512 123.475 295.736C123.267 295.944 123.163 296.304 123.163 296.816V300.944C123.163 301.456 123.267 301.824 123.475 302.048C123.699 302.256 124.059 302.36 124.555 302.36H127.651C127.987 302.36 128.155 302.528 128.155 302.864ZM130.486 295.4H129.526C129.334 295.4 129.198 295.368 129.118 295.304C129.054 295.24 129.022 295.112 129.022 294.92V293.264C129.022 292.928 129.19 292.76 129.526 292.76H130.486C130.662 292.76 130.75 292.672 130.75 292.496V290.216C130.75 289.88 130.926 289.712 131.278 289.712H133.294C133.63 289.712 133.798 289.88 133.798 290.216V292.496C133.798 292.672 133.894 292.76 134.086 292.76H135.958C136.294 292.76 136.462 292.928 136.462 293.264V294.92C136.462 295.096 136.422 295.224 136.342 295.304C136.278 295.368 136.15 295.4 135.958 295.4H134.086C133.894 295.4 133.798 295.488 133.798 295.664V300.968C133.798 301.464 133.91 301.824 134.134 302.048C134.358 302.256 134.726 302.36 135.238 302.36H136.198C136.534 302.36 136.702 302.528 136.702 302.864V304.52C136.702 304.696 136.662 304.824 136.582 304.904C136.518 304.968 136.39 305 136.198 305H134.734C133.47 305 132.486 304.664 131.782 303.992C131.094 303.32 130.75 302.36 130.75 301.112V295.664C130.75 295.488 130.662 295.4 130.486 295.4ZM152.597 305H144.701C144.365 305 144.197 304.832 144.197 304.496V290.072C144.197 289.736 144.365 289.568 144.701 289.568H146.741C147.077 289.568 147.245 289.736 147.245 290.072V302.072C147.245 302.248 147.341 302.336 147.533 302.336H152.597C152.917 302.336 153.077 302.512 153.077 302.864V304.496C153.077 304.832 152.917 305 152.597 305ZM159.034 305H158.458C157.194 305 156.218 304.664 155.53 303.992C154.842 303.32 154.498 302.352 154.498 301.088V296.672C154.498 295.408 154.842 294.44 155.53 293.768C156.218 293.096 157.194 292.76 158.458 292.76H164.002C164.354 292.76 164.53 292.928 164.53 293.264V304.496C164.53 304.832 164.354 305 164.002 305H161.986C161.65 305 161.482 304.832 161.482 304.496V303.704H161.386C161.21 304.136 160.898 304.464 160.45 304.688C160.002 304.896 159.53 305 159.034 305ZM161.482 300.536V295.664C161.482 295.488 161.386 295.4 161.194 295.4H158.938C158.426 295.4 158.066 295.512 157.858 295.736C157.65 295.944 157.546 296.304 157.546 296.816V300.944C157.546 301.456 157.65 301.824 157.858 302.048C158.066 302.256 158.426 302.36 158.938 302.36H159.826C160.93 302.36 161.482 301.752 161.482 300.536ZM170.472 302.36H172.92C173.432 302.36 173.792 302.256 174 302.048C174.224 301.824 174.336 301.456 174.336 300.944V296.768C174.336 296.256 174.224 295.896 174 295.688C173.792 295.464 173.432 295.352 172.92 295.352H171.864C170.76 295.352 170.208 295.96 170.208 297.176V302.096C170.208 302.272 170.296 302.36 170.472 302.36ZM167.16 304.496V288.632C167.16 288.296 167.328 288.128 167.664 288.128H169.704C170.04 288.128 170.208 288.296 170.208 288.632V294.032H170.304C170.48 293.6 170.792 293.272 171.24 293.048C171.688 292.824 172.16 292.712 172.656 292.712H173.424C174.688 292.712 175.664 293.048 176.352 293.72C177.04 294.392 177.384 295.36 177.384 296.624V301.088C177.384 302.352 177.04 303.32 176.352 303.992C175.664 304.664 174.688 305 173.424 305H167.664C167.328 305 167.16 304.832 167.16 304.496ZM188.817 305H183.513C182.249 305 181.273 304.664 180.585 303.992C179.897 303.32 179.553 302.352 179.553 301.088V296.672C179.553 295.408 179.897 294.44 180.585 293.768C181.273 293.096 182.249 292.76 183.513 292.76H185.409C186.673 292.76 187.649 293.096 188.337 293.768C189.025 294.44 189.369 295.408 189.369 296.672V299.72C189.369 300.056 189.201 300.224 188.865 300.224H182.841C182.649 300.224 182.553 300.312 182.553 300.488V301.016C182.553 301.512 182.657 301.872 182.865 302.096C183.089 302.304 183.457 302.408 183.969 302.408H188.817C189.153 302.408 189.321 302.584 189.321 302.936V304.52C189.321 304.696 189.281 304.824 189.201 304.904C189.137 304.968 189.009 305 188.817 305ZM182.841 298.184H186.105C186.281 298.184 186.369 298.096 186.369 297.92V296.768C186.369 296.256 186.265 295.896 186.057 295.688C185.849 295.48 185.489 295.376 184.977 295.376H183.969C183.457 295.376 183.097 295.48 182.889 295.688C182.681 295.896 182.577 296.256 182.577 296.768V297.92C182.577 298.096 182.665 298.184 182.841 298.184ZM194.316 305H192.276C191.94 305 191.772 304.832 191.772 304.496V288.632C191.772 288.296 191.94 288.128 192.276 288.128H194.316C194.652 288.128 194.82 288.296 194.82 288.632V304.496C194.82 304.832 194.652 305 194.316 305ZM200.246 305H198.206C197.87 305 197.702 304.832 197.702 304.496V288.632C197.702 288.296 197.87 288.128 198.206 288.128H200.246C200.582 288.128 200.75 288.296 200.75 288.632V304.496C200.75 304.832 200.582 305 200.246 305ZM203.631 290.696V288.608C203.631 288.288 203.791 288.128 204.111 288.128H206.199C206.519 288.128 206.679 288.28 206.679 288.584V290.696C206.679 291.016 206.519 291.176 206.199 291.176H204.111C203.791 291.176 203.631 291.016 203.631 290.696ZM203.631 304.496V293.264C203.631 292.928 203.791 292.76 204.111 292.76H206.175C206.511 292.76 206.679 292.928 206.679 293.264V304.496C206.679 304.704 206.639 304.84 206.559 304.904C206.495 304.968 206.375 305 206.199 305H204.135C203.799 305 203.631 304.832 203.631 304.496ZM211.985 305H209.945C209.609 305 209.441 304.832 209.441 304.496V293.264C209.441 292.928 209.609 292.76 209.945 292.76H211.985C212.321 292.76 212.489 292.928 212.489 293.264V294.056H212.585C212.937 293.192 213.721 292.76 214.937 292.76H215.705C218.217 292.76 219.473 294.064 219.473 296.672V304.496C219.473 304.832 219.297 305 218.945 305H216.929C216.593 305 216.425 304.832 216.425 304.496V296.816C216.425 296.304 216.313 295.944 216.089 295.736C215.881 295.512 215.521 295.4 215.009 295.4H214.145C213.041 295.4 212.489 296.008 212.489 297.224V304.496C212.489 304.832 212.321 305 211.985 305ZM226.324 304.448H225.532C224.3 304.448 223.364 304.112 222.724 303.44C222.1 302.768 221.788 301.8 221.788 300.536V296.672C221.788 295.408 222.132 294.44 222.82 293.768C223.508 293.096 224.484 292.76 225.748 292.76H231.292C231.644 292.76 231.82 292.928 231.82 293.264V305.096C231.82 306.344 231.468 307.304 230.764 307.976C230.076 308.648 229.108 308.984 227.86 308.984H223.252C223.06 308.984 222.924 308.944 222.844 308.864C222.78 308.8 222.748 308.68 222.748 308.504V306.848C222.748 306.512 222.916 306.344 223.252 306.344H227.356C227.868 306.344 228.228 306.232 228.436 306.008C228.66 305.8 228.772 305.448 228.772 304.952V303.128H228.676C228.5 303.56 228.188 303.888 227.74 304.112C227.292 304.336 226.82 304.448 226.324 304.448ZM228.772 299.984V295.664C228.772 295.488 228.676 295.4 228.484 295.4H226.228C225.716 295.4 225.356 295.512 225.148 295.736C224.94 295.944 224.836 296.304 224.836 296.816V300.392C224.836 300.904 224.94 301.264 225.148 301.472C225.356 301.68 225.716 301.784 226.228 301.784H227.116C228.22 301.784 228.772 301.184 228.772 299.984ZM244.162 292.76H246.082C246.274 292.76 246.402 292.8 246.466 292.88C246.546 292.944 246.586 293.064 246.586 293.24V294.896C246.586 295.232 246.418 295.4 246.082 295.4H244.162C243.986 295.4 243.898 295.488 243.898 295.664V304.496C243.898 304.832 243.722 305 243.37 305H241.354C241.018 305 240.85 304.832 240.85 304.496V295.664C240.85 295.488 240.754 295.4 240.562 295.4H239.458C239.122 295.4 238.954 295.232 238.954 294.896V293.24C238.954 293.048 238.986 292.92 239.05 292.856C239.13 292.792 239.266 292.76 239.458 292.76H240.562C240.754 292.76 240.85 292.672 240.85 292.496V292.04C240.85 290.776 241.178 289.808 241.834 289.136C242.506 288.464 243.474 288.128 244.738 288.128H246.106C246.298 288.128 246.426 288.168 246.49 288.248C246.554 288.312 246.586 288.432 246.586 288.608V290.264C246.586 290.6 246.426 290.768 246.106 290.768H245.218C244.706 290.768 244.354 290.88 244.162 291.104C243.986 291.312 243.898 291.672 243.898 292.184V292.496C243.898 292.672 243.986 292.76 244.162 292.76ZM254.063 305H251.927C250.663 305 249.687 304.664 248.999 303.992C248.311 303.32 247.967 302.352 247.967 301.088V296.672C247.967 295.408 248.311 294.44 248.999 293.768C249.687 293.096 250.663 292.76 251.927 292.76H254.063C255.311 292.76 256.279 293.104 256.967 293.792C257.671 294.464 258.023 295.424 258.023 296.672V301.088C258.023 302.336 257.671 303.304 256.967 303.992C256.279 304.664 255.311 305 254.063 305ZM252.383 302.384H253.607C254.119 302.384 254.479 302.28 254.687 302.072C254.911 301.864 255.023 301.504 255.023 300.992V296.768C255.023 296.256 254.911 295.896 254.687 295.688C254.479 295.48 254.119 295.376 253.607 295.376H252.383C251.871 295.376 251.511 295.48 251.303 295.688C251.095 295.896 250.991 296.256 250.991 296.768V300.992C250.991 301.504 251.095 301.864 251.303 302.072C251.511 302.28 251.871 302.384 252.383 302.384ZM262.962 305H260.922C260.586 305 260.418 304.832 260.418 304.496V293.264C260.418 292.928 260.586 292.76 260.922 292.76H262.962C263.298 292.76 263.466 292.928 263.466 293.264V294.08H263.562C263.738 293.648 264.05 293.32 264.498 293.096C264.946 292.872 265.418 292.76 265.914 292.76H266.778C267.098 292.76 267.258 292.928 267.258 293.264V294.92C267.258 295.112 267.218 295.248 267.138 295.328C267.074 295.392 266.954 295.416 266.778 295.4H265.122C264.018 295.4 263.466 296.024 263.466 297.272V304.496C263.466 304.832 263.298 305 262.962 305ZM100.316 320.568H103.868C104.204 320.568 104.372 320.736 104.372 321.072V335.496C104.372 335.832 104.204 336 103.868 336H101.9C101.564 336 101.396 335.832 101.396 335.496V324.12H101.3L98.8518 332.16C98.7558 332.48 98.5558 332.64 98.2518 332.64H96.2358C95.9318 332.64 95.7318 332.48 95.6358 332.16L93.1398 324.096H93.0438V335.496C93.0438 335.688 93.0118 335.824 92.9478 335.904C92.8838 335.968 92.7478 336 92.5398 336H90.5718C90.2358 336 90.0678 335.832 90.0678 335.496V321.072C90.0678 320.736 90.2358 320.568 90.5718 320.568H94.1478C94.3718 320.568 94.5238 320.68 94.6038 320.904L97.1478 329.376H97.2918L99.8598 320.904C99.9078 320.68 100.06 320.568 100.316 320.568ZM113.098 336H110.962C109.698 336 108.722 335.664 108.034 334.992C107.346 334.32 107.002 333.352 107.002 332.088V327.672C107.002 326.408 107.346 325.44 108.034 324.768C108.722 324.096 109.698 323.76 110.962 323.76H113.098C114.346 323.76 115.314 324.104 116.002 324.792C116.706 325.464 117.058 326.424 117.058 327.672V332.088C117.058 333.336 116.706 334.304 116.002 334.992C115.314 335.664 114.346 336 113.098 336ZM111.418 333.384H112.642C113.154 333.384 113.514 333.28 113.722 333.072C113.946 332.864 114.058 332.504 114.058 331.992V327.768C114.058 327.256 113.946 326.896 113.722 326.688C113.514 326.48 113.154 326.376 112.642 326.376H111.418C110.906 326.376 110.546 326.48 110.338 326.688C110.13 326.896 110.026 327.256 110.026 327.768V331.992C110.026 332.504 110.13 332.864 110.338 333.072C110.546 333.28 110.906 333.384 111.418 333.384ZM121.997 336H119.957C119.621 336 119.453 335.832 119.453 335.496V324.264C119.453 323.928 119.621 323.76 119.957 323.76H121.997C122.333 323.76 122.501 323.928 122.501 324.264V325.056H122.597C122.949 324.192 123.733 323.76 124.949 323.76H125.717C128.229 323.76 129.485 325.064 129.485 327.672V335.496C129.485 335.832 129.309 336 128.957 336H126.941C126.605 336 126.437 335.832 126.437 335.496V327.816C126.437 327.304 126.325 326.944 126.101 326.736C125.893 326.512 125.533 326.4 125.021 326.4H124.157C123.053 326.4 122.501 327.008 122.501 328.224V335.496C122.501 335.832 122.333 336 121.997 336ZM132.135 321.696V319.608C132.135 319.288 132.295 319.128 132.615 319.128H134.703C135.023 319.128 135.183 319.28 135.183 319.584V321.696C135.183 322.016 135.023 322.176 134.703 322.176H132.615C132.295 322.176 132.135 322.016 132.135 321.696ZM132.135 335.496V324.264C132.135 323.928 132.295 323.76 132.615 323.76H134.679C135.015 323.76 135.183 323.928 135.183 324.264V335.496C135.183 335.704 135.143 335.84 135.063 335.904C134.999 335.968 134.879 336 134.703 336H132.639C132.303 336 132.135 335.832 132.135 335.496ZM138.209 326.4H137.249C137.057 326.4 136.921 326.368 136.841 326.304C136.777 326.24 136.745 326.112 136.745 325.92V324.264C136.745 323.928 136.913 323.76 137.249 323.76H138.209C138.385 323.76 138.473 323.672 138.473 323.496V321.216C138.473 320.88 138.649 320.712 139.001 320.712H141.017C141.353 320.712 141.521 320.88 141.521 321.216V323.496C141.521 323.672 141.617 323.76 141.809 323.76H143.681C144.017 323.76 144.185 323.928 144.185 324.264V325.92C144.185 326.096 144.145 326.224 144.065 326.304C144.001 326.368 143.873 326.4 143.681 326.4H141.809C141.617 326.4 141.521 326.488 141.521 326.664V331.968C141.521 332.464 141.633 332.824 141.857 333.048C142.081 333.256 142.449 333.36 142.961 333.36H143.921C144.257 333.36 144.425 333.528 144.425 333.864V335.52C144.425 335.696 144.385 335.824 144.305 335.904C144.241 335.968 144.113 336 143.921 336H142.457C141.193 336 140.209 335.664 139.505 334.992C138.817 334.32 138.473 333.36 138.473 332.112V326.664C138.473 326.488 138.385 326.4 138.209 326.4ZM152.262 336H150.126C148.862 336 147.886 335.664 147.198 334.992C146.51 334.32 146.166 333.352 146.166 332.088V327.672C146.166 326.408 146.51 325.44 147.198 324.768C147.886 324.096 148.862 323.76 150.126 323.76H152.262C153.51 323.76 154.478 324.104 155.166 324.792C155.87 325.464 156.222 326.424 156.222 327.672V332.088C156.222 333.336 155.87 334.304 155.166 334.992C154.478 335.664 153.51 336 152.262 336ZM150.582 333.384H151.806C152.318 333.384 152.678 333.28 152.886 333.072C153.11 332.864 153.222 332.504 153.222 331.992V327.768C153.222 327.256 153.11 326.896 152.886 326.688C152.678 326.48 152.318 326.376 151.806 326.376H150.582C150.07 326.376 149.71 326.48 149.502 326.688C149.294 326.896 149.19 327.256 149.19 327.768V331.992C149.19 332.504 149.294 332.864 149.502 333.072C149.71 333.28 150.07 333.384 150.582 333.384ZM161.161 336H159.121C158.785 336 158.617 335.832 158.617 335.496V324.264C158.617 323.928 158.785 323.76 159.121 323.76H161.161C161.497 323.76 161.665 323.928 161.665 324.264V325.08H161.761C161.937 324.648 162.249 324.32 162.697 324.096C163.145 323.872 163.617 323.76 164.113 323.76H164.977C165.297 323.76 165.457 323.928 165.457 324.264V325.92C165.457 326.112 165.417 326.248 165.337 326.328C165.273 326.392 165.153 326.416 164.977 326.4H163.321C162.217 326.4 161.665 327.024 161.665 328.272V335.496C161.665 335.832 161.497 336 161.161 336ZM167.104 321.696V319.608C167.104 319.288 167.264 319.128 167.584 319.128H169.672C169.992 319.128 170.152 319.28 170.152 319.584V321.696C170.152 322.016 169.992 322.176 169.672 322.176H167.584C167.264 322.176 167.104 322.016 167.104 321.696ZM167.104 335.496V324.264C167.104 323.928 167.264 323.76 167.584 323.76H169.648C169.984 323.76 170.152 323.928 170.152 324.264V335.496C170.152 335.704 170.112 335.84 170.032 335.904C169.968 335.968 169.848 336 169.672 336H167.608C167.272 336 167.104 335.832 167.104 335.496ZM175.458 336H173.418C173.082 336 172.914 335.832 172.914 335.496V324.264C172.914 323.928 173.082 323.76 173.418 323.76H175.458C175.794 323.76 175.962 323.928 175.962 324.264V325.056H176.058C176.41 324.192 177.194 323.76 178.41 323.76H179.178C181.69 323.76 182.946 325.064 182.946 327.672V335.496C182.946 335.832 182.77 336 182.418 336H180.402C180.066 336 179.898 335.832 179.898 335.496V327.816C179.898 327.304 179.786 326.944 179.562 326.736C179.354 326.512 178.994 326.4 178.482 326.4H177.618C176.514 326.4 175.962 327.008 175.962 328.224V335.496C175.962 335.832 175.794 336 175.458 336ZM189.796 335.448H189.004C187.772 335.448 186.836 335.112 186.196 334.44C185.572 333.768 185.26 332.8 185.26 331.536V327.672C185.26 326.408 185.604 325.44 186.292 324.768C186.98 324.096 187.956 323.76 189.22 323.76H194.764C195.116 323.76 195.292 323.928 195.292 324.264V336.096C195.292 337.344 194.94 338.304 194.236 338.976C193.548 339.648 192.58 339.984 191.332 339.984H186.724C186.532 339.984 186.396 339.944 186.316 339.864C186.252 339.8 186.22 339.68 186.22 339.504V337.848C186.22 337.512 186.388 337.344 186.724 337.344H190.828C191.34 337.344 191.7 337.232 191.908 337.008C192.132 336.8 192.244 336.448 192.244 335.952V334.128H192.148C191.972 334.56 191.66 334.888 191.212 335.112C190.764 335.336 190.292 335.448 189.796 335.448ZM192.244 330.984V326.664C192.244 326.488 192.148 326.4 191.956 326.4H189.7C189.188 326.4 188.828 326.512 188.62 326.736C188.412 326.944 188.308 327.304 188.308 327.816V331.392C188.308 331.904 188.412 332.264 188.62 332.472C188.828 332.68 189.188 332.784 189.7 332.784H190.588C191.692 332.784 192.244 332.184 192.244 330.984ZM207.491 336H206.915C205.651 336 204.675 335.664 203.987 334.992C203.299 334.32 202.955 333.352 202.955 332.088V327.672C202.955 326.408 203.299 325.44 203.987 324.768C204.675 324.096 205.651 323.76 206.915 323.76H212.459C212.811 323.76 212.987 323.928 212.987 324.264V335.496C212.987 335.832 212.811 336 212.459 336H210.443C210.107 336 209.939 335.832 209.939 335.496V334.704H209.843C209.667 335.136 209.355 335.464 208.907 335.688C208.459 335.896 207.987 336 207.491 336ZM209.939 331.536V326.664C209.939 326.488 209.843 326.4 209.651 326.4H207.395C206.883 326.4 206.523 326.512 206.315 326.736C206.107 326.944 206.003 327.304 206.003 327.816V331.944C206.003 332.456 206.107 332.824 206.315 333.048C206.523 333.256 206.883 333.36 207.395 333.36H208.283C209.387 333.36 209.939 332.752 209.939 331.536ZM218.161 336H216.121C215.785 336 215.617 335.832 215.617 335.496V324.264C215.617 323.928 215.785 323.76 216.121 323.76H218.161C218.497 323.76 218.665 323.928 218.665 324.264V325.056H218.761C219.113 324.192 219.897 323.76 221.113 323.76H221.881C224.393 323.76 225.649 325.064 225.649 327.672V335.496C225.649 335.832 225.473 336 225.121 336H223.105C222.769 336 222.601 335.832 222.601 335.496V327.816C222.601 327.304 222.489 326.944 222.265 326.736C222.057 326.512 221.697 326.4 221.185 326.4H220.321C219.217 326.4 218.665 327.008 218.665 328.224V335.496C218.665 335.832 218.497 336 218.161 336ZM232.667 336H231.683C230.451 336 229.515 335.664 228.875 334.992C228.251 334.32 227.939 333.352 227.939 332.088V327.672C227.939 326.408 228.251 325.44 228.875 324.768C229.515 324.096 230.451 323.76 231.683 323.76H232.667C233.163 323.76 233.635 323.872 234.083 324.096C234.531 324.304 234.843 324.624 235.019 325.056H235.115V319.632C235.115 319.296 235.283 319.128 235.619 319.128H237.659C237.995 319.128 238.163 319.296 238.163 319.632V335.496C238.163 335.832 237.995 336 237.659 336H235.619C235.283 336 235.115 335.832 235.115 335.496V334.704H235.019C234.843 335.136 234.531 335.464 234.083 335.688C233.635 335.896 233.163 336 232.667 336ZM235.115 331.536V328.224C235.115 327.008 234.563 326.4 233.459 326.4H232.379C231.867 326.4 231.507 326.512 231.299 326.736C231.091 326.944 230.987 327.304 230.987 327.816V331.944C230.987 332.456 231.091 332.824 231.299 333.048C231.507 333.256 231.867 333.36 232.379 333.36H233.459C234.563 333.36 235.115 332.752 235.115 331.536ZM93.5625 367H91.2585C90.9705 367 90.8745 366.832 90.9705 366.496L94.7625 352.072C94.8745 351.736 95.1145 351.568 95.4825 351.568H98.6745C99.0745 351.568 99.3145 351.736 99.3945 352.072L103.187 366.496C103.283 366.832 103.187 367 102.899 367H100.595C100.419 367 100.299 366.968 100.235 366.904C100.171 366.824 100.123 366.688 100.091 366.496L99.4185 363.856H94.7385L94.0665 366.496C94.0345 366.688 93.9785 366.824 93.8985 366.904C93.8345 366.968 93.7225 367 93.5625 367ZM97.0425 354.472L95.3145 361.408H98.8665L97.1385 354.472H97.0425ZM109.49 367H108.698C107.466 367 106.53 366.664 105.89 365.992C105.266 365.32 104.954 364.352 104.954 363.088V355.264C104.954 354.928 105.122 354.76 105.458 354.76H107.498C107.834 354.76 108.002 354.928 108.002 355.264V362.944C108.002 363.456 108.106 363.824 108.314 364.048C108.538 364.256 108.898 364.36 109.394 364.36H110.282C111.386 364.36 111.938 363.752 111.938 362.536V355.264C111.938 354.928 112.106 354.76 112.442 354.76H114.458C114.81 354.76 114.986 354.928 114.986 355.264V366.496C114.986 366.832 114.81 367 114.458 367H112.442C112.106 367 111.938 366.832 111.938 366.496V365.704H111.842C111.666 366.136 111.354 366.464 110.906 366.688C110.458 366.896 109.986 367 109.49 367ZM117.9 357.4H116.94C116.748 357.4 116.612 357.368 116.532 357.304C116.468 357.24 116.436 357.112 116.436 356.92V355.264C116.436 354.928 116.604 354.76 116.94 354.76H117.9C118.076 354.76 118.164 354.672 118.164 354.496V352.216C118.164 351.88 118.34 351.712 118.692 351.712H120.708C121.044 351.712 121.212 351.88 121.212 352.216V354.496C121.212 354.672 121.308 354.76 121.5 354.76H123.372C123.708 354.76 123.876 354.928 123.876 355.264V356.92C123.876 357.096 123.836 357.224 123.756 357.304C123.692 357.368 123.564 357.4 123.372 357.4H121.5C121.308 357.4 121.212 357.488 121.212 357.664V362.968C121.212 363.464 121.324 363.824 121.548 364.048C121.772 364.256 122.14 364.36 122.652 364.36H123.612C123.948 364.36 124.116 364.528 124.116 364.864V366.52C124.116 366.696 124.076 366.824 123.996 366.904C123.932 366.968 123.804 367 123.612 367H122.148C120.884 367 119.9 366.664 119.196 365.992C118.508 365.32 118.164 364.36 118.164 363.112V357.664C118.164 357.488 118.076 357.4 117.9 357.4ZM128.641 367H126.601C126.265 367 126.097 366.832 126.097 366.496V350.632C126.097 350.296 126.265 350.128 126.601 350.128H128.641C128.977 350.128 129.145 350.296 129.145 350.632V356.056H129.241C129.593 355.192 130.377 354.76 131.593 354.76H132.361C134.873 354.76 136.129 356.064 136.129 358.672V366.496C136.129 366.832 135.953 367 135.601 367H133.585C133.249 367 133.081 366.832 133.081 366.496V358.816C133.081 358.304 132.969 357.944 132.745 357.736C132.537 357.512 132.177 357.4 131.665 357.4H130.801C129.697 357.4 129.145 358.008 129.145 359.224V366.496C129.145 366.832 128.977 367 128.641 367ZM147.684 367H142.38C141.116 367 140.14 366.664 139.452 365.992C138.764 365.32 138.42 364.352 138.42 363.088V358.672C138.42 357.408 138.764 356.44 139.452 355.768C140.14 355.096 141.116 354.76 142.38 354.76H144.276C145.54 354.76 146.516 355.096 147.204 355.768C147.892 356.44 148.236 357.408 148.236 358.672V361.72C148.236 362.056 148.068 362.224 147.732 362.224H141.708C141.516 362.224 141.42 362.312 141.42 362.488V363.016C141.42 363.512 141.524 363.872 141.732 364.096C141.956 364.304 142.324 364.408 142.836 364.408H147.684C148.02 364.408 148.188 364.584 148.188 364.936V366.52C148.188 366.696 148.148 366.824 148.068 366.904C148.004 366.968 147.876 367 147.684 367ZM141.708 360.184H144.972C145.148 360.184 145.236 360.096 145.236 359.92V358.768C145.236 358.256 145.132 357.896 144.924 357.688C144.716 357.48 144.356 357.376 143.844 357.376H142.836C142.324 357.376 141.964 357.48 141.756 357.688C141.548 357.896 141.444 358.256 141.444 358.768V359.92C141.444 360.096 141.532 360.184 141.708 360.184ZM153.063 367H151.023C150.687 367 150.519 366.832 150.519 366.496V355.264C150.519 354.928 150.687 354.76 151.023 354.76H153.063C153.399 354.76 153.567 354.928 153.567 355.264V356.056H153.663C154.015 355.192 154.799 354.76 156.015 354.76H156.783C159.295 354.76 160.551 356.064 160.551 358.672V366.496C160.551 366.832 160.375 367 160.023 367H158.007C157.671 367 157.503 366.832 157.503 366.496V358.816C157.503 358.304 157.391 357.944 157.167 357.736C156.959 357.512 156.599 357.4 156.087 357.4H155.223C154.119 357.4 153.567 358.008 153.567 359.224V366.496C153.567 366.832 153.399 367 153.063 367ZM163.346 357.4H162.386C162.194 357.4 162.058 357.368 161.978 357.304C161.914 357.24 161.882 357.112 161.882 356.92V355.264C161.882 354.928 162.05 354.76 162.386 354.76H163.346C163.522 354.76 163.61 354.672 163.61 354.496V352.216C163.61 351.88 163.786 351.712 164.138 351.712H166.154C166.49 351.712 166.658 351.88 166.658 352.216V354.496C166.658 354.672 166.754 354.76 166.946 354.76H168.818C169.154 354.76 169.322 354.928 169.322 355.264V356.92C169.322 357.096 169.282 357.224 169.202 357.304C169.138 357.368 169.01 357.4 168.818 357.4H166.946C166.754 357.4 166.658 357.488 166.658 357.664V362.968C166.658 363.464 166.77 363.824 166.994 364.048C167.218 364.256 167.586 364.36 168.098 364.36H169.058C169.394 364.36 169.562 364.528 169.562 364.864V366.52C169.562 366.696 169.522 366.824 169.442 366.904C169.378 366.968 169.25 367 169.058 367H167.594C166.33 367 165.346 366.664 164.642 365.992C163.954 365.32 163.61 364.36 163.61 363.112V357.664C163.61 357.488 163.522 357.4 163.346 357.4ZM171.663 352.696V350.608C171.663 350.288 171.823 350.128 172.143 350.128H174.231C174.551 350.128 174.711 350.28 174.711 350.584V352.696C174.711 353.016 174.551 353.176 174.231 353.176H172.143C171.823 353.176 171.663 353.016 171.663 352.696ZM171.663 366.496V355.264C171.663 354.928 171.823 354.76 172.143 354.76H174.207C174.543 354.76 174.711 354.928 174.711 355.264V366.496C174.711 366.704 174.671 366.84 174.591 366.904C174.527 366.968 174.407 367 174.231 367H172.167C171.831 367 171.663 366.832 171.663 366.496ZM185.272 364.864V366.52C185.272 366.696 185.232 366.824 185.152 366.904C185.088 366.968 184.96 367 184.768 367H181.192C179.928 367 178.952 366.664 178.264 365.992C177.576 365.32 177.232 364.352 177.232 363.088V358.672C177.232 357.408 177.576 356.44 178.264 355.768C178.952 355.096 179.928 354.76 181.192 354.76H184.768C185.104 354.76 185.272 354.928 185.272 355.264V356.92C185.272 357.096 185.232 357.224 185.152 357.304C185.088 357.368 184.96 357.4 184.768 357.4H181.672C181.176 357.4 180.816 357.512 180.592 357.736C180.384 357.944 180.28 358.304 180.28 358.816V362.944C180.28 363.456 180.384 363.824 180.592 364.048C180.816 364.256 181.176 364.36 181.672 364.36H184.768C185.104 364.36 185.272 364.528 185.272 364.864ZM191.636 367H191.06C189.796 367 188.82 366.664 188.132 365.992C187.444 365.32 187.1 364.352 187.1 363.088V358.672C187.1 357.408 187.444 356.44 188.132 355.768C188.82 355.096 189.796 354.76 191.06 354.76H196.604C196.956 354.76 197.132 354.928 197.132 355.264V366.496C197.132 366.832 196.956 367 196.604 367H194.588C194.252 367 194.084 366.832 194.084 366.496V365.704H193.988C193.812 366.136 193.5 366.464 193.052 366.688C192.604 366.896 192.132 367 191.636 367ZM194.084 362.536V357.664C194.084 357.488 193.988 357.4 193.796 357.4H191.54C191.028 357.4 190.668 357.512 190.46 357.736C190.252 357.944 190.148 358.304 190.148 358.816V362.944C190.148 363.456 190.252 363.824 190.46 364.048C190.668 364.256 191.028 364.36 191.54 364.36H192.428C193.532 364.36 194.084 363.752 194.084 362.536ZM200.025 357.4H199.065C198.873 357.4 198.737 357.368 198.657 357.304C198.593 357.24 198.561 357.112 198.561 356.92V355.264C198.561 354.928 198.729 354.76 199.065 354.76H200.025C200.201 354.76 200.289 354.672 200.289 354.496V352.216C200.289 351.88 200.465 351.712 200.817 351.712H202.833C203.169 351.712 203.337 351.88 203.337 352.216V354.496C203.337 354.672 203.433 354.76 203.625 354.76H205.497C205.833 354.76 206.001 354.928 206.001 355.264V356.92C206.001 357.096 205.961 357.224 205.881 357.304C205.817 357.368 205.689 357.4 205.497 357.4H203.625C203.433 357.4 203.337 357.488 203.337 357.664V362.968C203.337 363.464 203.449 363.824 203.673 364.048C203.897 364.256 204.265 364.36 204.777 364.36H205.737C206.073 364.36 206.241 364.528 206.241 364.864V366.52C206.241 366.696 206.201 366.824 206.121 366.904C206.057 366.968 205.929 367 205.737 367H204.273C203.009 367 202.025 366.664 201.321 365.992C200.633 365.32 200.289 364.36 200.289 363.112V357.664C200.289 357.488 200.201 357.4 200.025 357.4ZM208.342 352.696V350.608C208.342 350.288 208.502 350.128 208.822 350.128H210.91C211.23 350.128 211.39 350.28 211.39 350.584V352.696C211.39 353.016 211.23 353.176 210.91 353.176H208.822C208.502 353.176 208.342 353.016 208.342 352.696ZM208.342 366.496V355.264C208.342 354.928 208.502 354.76 208.822 354.76H210.886C211.222 354.76 211.39 354.928 211.39 355.264V366.496C211.39 366.704 211.35 366.84 211.27 366.904C211.206 366.968 211.086 367 210.91 367H208.846C208.51 367 208.342 366.832 208.342 366.496ZM220.008 367H217.872C216.608 367 215.632 366.664 214.944 365.992C214.256 365.32 213.912 364.352 213.912 363.088V358.672C213.912 357.408 214.256 356.44 214.944 355.768C215.632 355.096 216.608 354.76 217.872 354.76H220.008C221.256 354.76 222.224 355.104 222.912 355.792C223.616 356.464 223.968 357.424 223.968 358.672V363.088C223.968 364.336 223.616 365.304 222.912 365.992C222.224 366.664 221.256 367 220.008 367ZM218.328 364.384H219.552C220.064 364.384 220.424 364.28 220.632 364.072C220.856 363.864 220.968 363.504 220.968 362.992V358.768C220.968 358.256 220.856 357.896 220.632 357.688C220.424 357.48 220.064 357.376 219.552 357.376H218.328C217.816 357.376 217.456 357.48 217.248 357.688C217.04 357.896 216.936 358.256 216.936 358.768V362.992C216.936 363.504 217.04 363.864 217.248 364.072C217.456 364.28 217.816 364.384 218.328 364.384ZM228.907 367H226.867C226.531 367 226.363 366.832 226.363 366.496V355.264C226.363 354.928 226.531 354.76 226.867 354.76H228.907C229.243 354.76 229.411 354.928 229.411 355.264V356.056H229.507C229.859 355.192 230.643 354.76 231.859 354.76H232.627C235.139 354.76 236.395 356.064 236.395 358.672V366.496C236.395 366.832 236.219 367 235.867 367H233.851C233.515 367 233.347 366.832 233.347 366.496V358.816C233.347 358.304 233.235 357.944 233.011 357.736C232.803 357.512 232.443 357.4 231.931 357.4H231.067C229.963 357.4 229.411 358.008 229.411 359.224V366.496C229.411 366.832 229.243 367 228.907 367Z" fill="black"/>
<rect x="326.671" y="220.836" width="328.329" height="219.163" fill="#2F2F2F"/>
<path d="M393.281 318.064V317.584C393.281 317.248 393.449 317.08 393.785 317.08H395.825C396.161 317.08 396.329 317.248 396.329 317.584V317.776C396.329 318.384 396.449 318.8 396.689 319.024C396.929 319.248 397.369 319.36 398.009 319.36H399.137C399.761 319.36 400.193 319.24 400.433 319C400.689 318.76 400.817 318.312 400.817 317.656V317.368C400.817 316.904 400.625 316.552 400.241 316.312C399.873 316.056 399.409 315.904 398.849 315.856C398.289 315.808 397.681 315.72 397.025 315.592C396.385 315.448 395.785 315.272 395.225 315.064C394.665 314.84 394.193 314.416 393.809 313.792C393.441 313.152 393.257 312.336 393.257 311.344V310.504C393.257 309.256 393.609 308.288 394.313 307.6C395.017 306.912 395.993 306.568 397.241 306.568H399.641C400.905 306.568 401.889 306.912 402.593 307.6C403.297 308.288 403.649 309.256 403.649 310.504V310.96C403.649 311.296 403.481 311.464 403.145 311.464H401.105C400.769 311.464 400.601 311.296 400.601 310.96V310.816C400.601 310.192 400.481 309.768 400.241 309.544C400.001 309.32 399.561 309.208 398.921 309.208H397.985C397.329 309.208 396.881 309.336 396.641 309.592C396.417 309.832 396.305 310.312 396.305 311.032V311.488C396.305 312.24 396.961 312.672 398.273 312.784C399.633 312.896 400.841 313.168 401.897 313.6C402.457 313.84 402.921 314.272 403.289 314.896C403.673 315.504 403.865 316.288 403.865 317.248V318.064C403.865 319.312 403.513 320.28 402.809 320.968C402.105 321.656 401.129 322 399.881 322H397.265C396.017 322 395.041 321.656 394.337 320.968C393.633 320.28 393.281 319.312 393.281 318.064ZM408.907 322H406.867C406.531 322 406.363 321.832 406.363 321.496V305.632C406.363 305.296 406.531 305.128 406.867 305.128H408.907C409.243 305.128 409.411 305.296 409.411 305.632V311.056H409.507C409.859 310.192 410.643 309.76 411.859 309.76H412.627C415.139 309.76 416.395 311.064 416.395 313.672V321.496C416.395 321.832 416.219 322 415.867 322H413.851C413.515 322 413.347 321.832 413.347 321.496V313.816C413.347 313.304 413.235 312.944 413.011 312.736C412.803 312.512 412.443 312.4 411.931 312.4H411.067C409.963 312.4 409.411 313.008 409.411 314.224V321.496C409.411 321.832 409.243 322 408.907 322ZM424.781 322H422.645C421.381 322 420.405 321.664 419.717 320.992C419.029 320.32 418.685 319.352 418.685 318.088V313.672C418.685 312.408 419.029 311.44 419.717 310.768C420.405 310.096 421.381 309.76 422.645 309.76H424.781C426.029 309.76 426.997 310.104 427.685 310.792C428.389 311.464 428.741 312.424 428.741 313.672V318.088C428.741 319.336 428.389 320.304 427.685 320.992C426.997 321.664 426.029 322 424.781 322ZM423.101 319.384H424.325C424.837 319.384 425.197 319.28 425.405 319.072C425.629 318.864 425.741 318.504 425.741 317.992V313.768C425.741 313.256 425.629 312.896 425.405 312.688C425.197 312.48 424.837 312.376 424.325 312.376H423.101C422.589 312.376 422.229 312.48 422.021 312.688C421.813 312.896 421.709 313.256 421.709 313.768V317.992C421.709 318.504 421.813 318.864 422.021 319.072C422.229 319.28 422.589 319.384 423.101 319.384ZM433.68 325.264H431.64C431.304 325.264 431.136 325.104 431.136 324.784V310.264C431.136 309.928 431.304 309.76 431.64 309.76H433.68C434.016 309.76 434.184 309.928 434.184 310.264V311.056H434.28C434.456 310.624 434.768 310.304 435.216 310.096C435.664 309.872 436.136 309.76 436.632 309.76H437.616C438.848 309.76 439.776 310.096 440.4 310.768C441.04 311.44 441.36 312.408 441.36 313.672V318.088C441.36 319.352 441.04 320.32 440.4 320.992C439.776 321.664 438.848 322 437.616 322H436.632C436.136 322 435.664 321.896 435.216 321.688C434.768 321.464 434.456 321.136 434.28 320.704H434.184V324.784C434.184 325.104 434.016 325.264 433.68 325.264ZM435.84 319.36H436.896C437.408 319.36 437.768 319.256 437.976 319.048C438.2 318.824 438.312 318.456 438.312 317.944V313.816C438.312 313.304 438.2 312.944 437.976 312.736C437.768 312.512 437.408 312.4 436.896 312.4H435.84C434.736 312.4 434.184 313.008 434.184 314.224V317.536C434.184 318.752 434.736 319.36 435.84 319.36ZM448.209 309.76H450.129C450.321 309.76 450.449 309.8 450.513 309.88C450.593 309.944 450.633 310.064 450.633 310.24V311.896C450.633 312.232 450.465 312.4 450.129 312.4H448.209C448.033 312.4 447.945 312.488 447.945 312.664V321.496C447.945 321.832 447.769 322 447.417 322H445.401C445.065 322 444.897 321.832 444.897 321.496V312.664C444.897 312.488 444.801 312.4 444.609 312.4H443.505C443.169 312.4 443.001 312.232 443.001 311.896V310.24C443.001 310.048 443.033 309.92 443.097 309.856C443.177 309.792 443.313 309.76 443.505 309.76H444.609C444.801 309.76 444.897 309.672 444.897 309.496V309.04C444.897 307.776 445.225 306.808 445.881 306.136C446.553 305.464 447.521 305.128 448.785 305.128H450.153C450.345 305.128 450.473 305.168 450.537 305.248C450.601 305.312 450.633 305.432 450.633 305.608V307.264C450.633 307.6 450.473 307.768 450.153 307.768H449.265C448.753 307.768 448.401 307.88 448.209 308.104C448.033 308.312 447.945 308.672 447.945 309.184V309.496C447.945 309.672 448.033 309.76 448.209 309.76ZM454.798 322H452.758C452.422 322 452.254 321.832 452.254 321.496V310.264C452.254 309.928 452.422 309.76 452.758 309.76H454.798C455.134 309.76 455.302 309.928 455.302 310.264V311.08H455.398C455.574 310.648 455.886 310.32 456.334 310.096C456.782 309.872 457.254 309.76 457.75 309.76H458.614C458.934 309.76 459.094 309.928 459.094 310.264V311.92C459.094 312.112 459.054 312.248 458.974 312.328C458.91 312.392 458.79 312.416 458.614 312.4H456.958C455.854 312.4 455.302 313.024 455.302 314.272V321.496C455.302 321.832 455.134 322 454.798 322ZM466.477 322H464.341C463.077 322 462.101 321.664 461.413 320.992C460.725 320.32 460.381 319.352 460.381 318.088V313.672C460.381 312.408 460.725 311.44 461.413 310.768C462.101 310.096 463.077 309.76 464.341 309.76H466.477C467.725 309.76 468.693 310.104 469.381 310.792C470.085 311.464 470.437 312.424 470.437 313.672V318.088C470.437 319.336 470.085 320.304 469.381 320.992C468.693 321.664 467.725 322 466.477 322ZM464.797 319.384H466.021C466.533 319.384 466.893 319.28 467.101 319.072C467.325 318.864 467.437 318.504 467.437 317.992V313.768C467.437 313.256 467.325 312.896 467.101 312.688C466.893 312.48 466.533 312.376 466.021 312.376H464.797C464.285 312.376 463.925 312.48 463.717 312.688C463.509 312.896 463.405 313.256 463.405 313.768V317.992C463.405 318.504 463.509 318.864 463.717 319.072C463.925 319.28 464.285 319.384 464.797 319.384ZM475.376 322H473.336C473 322 472.832 321.832 472.832 321.496V310.264C472.832 309.928 473 309.76 473.336 309.76H475.376C475.712 309.76 475.88 309.928 475.88 310.264V311.056H475.976C476.328 310.192 477.112 309.76 478.328 309.76H479.096C481.608 309.76 482.864 311.064 482.864 313.672V321.496C482.864 321.832 482.688 322 482.336 322H480.32C479.984 322 479.816 321.832 479.816 321.496V313.816C479.816 313.304 479.704 312.944 479.48 312.736C479.272 312.512 478.912 312.4 478.4 312.4H477.536C476.432 312.4 475.88 313.008 475.88 314.224V321.496C475.88 321.832 475.712 322 475.376 322ZM485.658 312.4H484.698C484.506 312.4 484.37 312.368 484.29 312.304C484.226 312.24 484.194 312.112 484.194 311.92V310.264C484.194 309.928 484.362 309.76 484.698 309.76H485.658C485.834 309.76 485.922 309.672 485.922 309.496V307.216C485.922 306.88 486.098 306.712 486.45 306.712H488.466C488.802 306.712 488.97 306.88 488.97 307.216V309.496C488.97 309.672 489.066 309.76 489.258 309.76H491.13C491.466 309.76 491.634 309.928 491.634 310.264V311.92C491.634 312.096 491.594 312.224 491.514 312.304C491.45 312.368 491.322 312.4 491.13 312.4H489.258C489.066 312.4 488.97 312.488 488.97 312.664V317.968C488.97 318.464 489.082 318.824 489.306 319.048C489.53 319.256 489.898 319.36 490.41 319.36H491.37C491.706 319.36 491.874 319.528 491.874 319.864V321.52C491.874 321.696 491.834 321.824 491.754 321.904C491.69 321.968 491.562 322 491.37 322H489.906C488.642 322 487.658 321.664 486.954 320.992C486.266 320.32 485.922 319.36 485.922 318.112V312.664C485.922 312.488 485.834 312.4 485.658 312.4ZM503.569 309.76H505.489C505.681 309.76 505.809 309.8 505.873 309.88C505.953 309.944 505.993 310.064 505.993 310.24V311.896C505.993 312.232 505.825 312.4 505.489 312.4H503.569C503.393 312.4 503.305 312.488 503.305 312.664V321.496C503.305 321.832 503.129 322 502.777 322H500.761C500.425 322 500.257 321.832 500.257 321.496V312.664C500.257 312.488 500.161 312.4 499.969 312.4H498.865C498.529 312.4 498.361 312.232 498.361 311.896V310.24C498.361 310.048 498.393 309.92 498.457 309.856C498.537 309.792 498.673 309.76 498.865 309.76H499.969C500.161 309.76 500.257 309.672 500.257 309.496V309.04C500.257 307.776 500.585 306.808 501.241 306.136C501.913 305.464 502.881 305.128 504.145 305.128H505.513C505.705 305.128 505.833 305.168 505.897 305.248C505.961 305.312 505.993 305.432 505.993 305.608V307.264C505.993 307.6 505.833 307.768 505.513 307.768H504.625C504.113 307.768 503.761 307.88 503.569 308.104C503.393 308.312 503.305 308.672 503.305 309.184V309.496C503.305 309.672 503.393 309.76 503.569 309.76ZM513.469 322H511.333C510.069 322 509.093 321.664 508.405 320.992C507.717 320.32 507.373 319.352 507.373 318.088V313.672C507.373 312.408 507.717 311.44 508.405 310.768C509.093 310.096 510.069 309.76 511.333 309.76H513.469C514.717 309.76 515.685 310.104 516.373 310.792C517.077 311.464 517.429 312.424 517.429 313.672V318.088C517.429 319.336 517.077 320.304 516.373 320.992C515.685 321.664 514.717 322 513.469 322ZM511.789 319.384H513.013C513.525 319.384 513.885 319.28 514.093 319.072C514.317 318.864 514.429 318.504 514.429 317.992V313.768C514.429 313.256 514.317 312.896 514.093 312.688C513.885 312.48 513.525 312.376 513.013 312.376H511.789C511.277 312.376 510.917 312.48 510.709 312.688C510.501 312.896 510.397 313.256 510.397 313.768V317.992C510.397 318.504 510.501 318.864 510.709 319.072C510.917 319.28 511.277 319.384 511.789 319.384ZM522.368 322H520.328C519.992 322 519.824 321.832 519.824 321.496V310.264C519.824 309.928 519.992 309.76 520.328 309.76H522.368C522.704 309.76 522.872 309.928 522.872 310.264V311.08H522.968C523.144 310.648 523.456 310.32 523.904 310.096C524.352 309.872 524.824 309.76 525.32 309.76H526.184C526.504 309.76 526.664 309.928 526.664 310.264V311.92C526.664 312.112 526.624 312.248 526.544 312.328C526.48 312.392 526.36 312.416 526.184 312.4H524.528C523.424 312.4 522.872 313.024 522.872 314.272V321.496C522.872 321.832 522.704 322 522.368 322ZM537.017 319.36H539.633C540.145 319.36 540.505 319.256 540.713 319.048C540.937 318.824 541.049 318.456 541.049 317.944V310.624C541.049 310.112 540.937 309.752 540.713 309.544C540.505 309.32 540.145 309.208 539.633 309.208H537.017C536.841 309.208 536.753 309.296 536.753 309.472V319.096C536.753 319.272 536.841 319.36 537.017 319.36ZM533.705 321.496V307.072C533.705 306.736 533.873 306.568 534.209 306.568H540.137C541.385 306.568 542.353 306.912 543.041 307.6C543.745 308.272 544.097 309.232 544.097 310.48V318.088C544.097 319.336 543.745 320.304 543.041 320.992C542.353 321.664 541.385 322 540.137 322H534.209C533.873 322 533.705 321.832 533.705 321.496ZM546.85 307.696V305.608C546.85 305.288 547.01 305.128 547.33 305.128H549.418C549.738 305.128 549.898 305.28 549.898 305.584V307.696C549.898 308.016 549.738 308.176 549.418 308.176H547.33C547.01 308.176 546.85 308.016 546.85 307.696ZM546.85 321.496V310.264C546.85 309.928 547.01 309.76 547.33 309.76H549.394C549.73 309.76 549.898 309.928 549.898 310.264V321.496C549.898 321.704 549.858 321.84 549.778 321.904C549.714 321.968 549.594 322 549.418 322H547.354C547.018 322 546.85 321.832 546.85 321.496ZM555.204 322H553.164C552.828 322 552.66 321.832 552.66 321.496V310.264C552.66 309.928 552.828 309.76 553.164 309.76H555.204C555.54 309.76 555.708 309.928 555.708 310.264V311.08H555.804C555.98 310.648 556.292 310.32 556.74 310.096C557.188 309.872 557.66 309.76 558.156 309.76H559.02C559.34 309.76 559.5 309.928 559.5 310.264V311.92C559.5 312.112 559.46 312.248 559.38 312.328C559.316 312.392 559.196 312.416 559.02 312.4H557.364C556.26 312.4 555.708 313.024 555.708 314.272V321.496C555.708 321.832 555.54 322 555.204 322ZM570.051 322H564.747C563.483 322 562.507 321.664 561.819 320.992C561.131 320.32 560.787 319.352 560.787 318.088V313.672C560.787 312.408 561.131 311.44 561.819 310.768C562.507 310.096 563.483 309.76 564.747 309.76H566.643C567.907 309.76 568.883 310.096 569.571 310.768C570.259 311.44 570.603 312.408 570.603 313.672V316.72C570.603 317.056 570.435 317.224 570.099 317.224H564.075C563.883 317.224 563.787 317.312 563.787 317.488V318.016C563.787 318.512 563.891 318.872 564.099 319.096C564.323 319.304 564.691 319.408 565.203 319.408H570.051C570.387 319.408 570.555 319.584 570.555 319.936V321.52C570.555 321.696 570.515 321.824 570.435 321.904C570.371 321.968 570.243 322 570.051 322ZM564.075 315.184H567.339C567.515 315.184 567.603 315.096 567.603 314.92V313.768C567.603 313.256 567.499 312.896 567.291 312.688C567.083 312.48 566.723 312.376 566.211 312.376H565.203C564.691 312.376 564.331 312.48 564.123 312.688C563.915 312.896 563.811 313.256 563.811 313.768V314.92C563.811 315.096 563.899 315.184 564.075 315.184ZM580.686 319.864V321.52C580.686 321.696 580.646 321.824 580.566 321.904C580.502 321.968 580.374 322 580.182 322H576.606C575.342 322 574.366 321.664 573.678 320.992C572.99 320.32 572.646 319.352 572.646 318.088V313.672C572.646 312.408 572.99 311.44 573.678 310.768C574.366 310.096 575.342 309.76 576.606 309.76H580.182C580.518 309.76 580.686 309.928 580.686 310.264V311.92C580.686 312.096 580.646 312.224 580.566 312.304C580.502 312.368 580.374 312.4 580.182 312.4H577.086C576.59 312.4 576.23 312.512 576.006 312.736C575.798 312.944 575.694 313.304 575.694 313.816V317.944C575.694 318.456 575.798 318.824 576.006 319.048C576.23 319.256 576.59 319.36 577.086 319.36H580.182C580.518 319.36 580.686 319.528 580.686 319.864ZM583.018 312.4H582.058C581.866 312.4 581.73 312.368 581.65 312.304C581.586 312.24 581.554 312.112 581.554 311.92V310.264C581.554 309.928 581.722 309.76 582.058 309.76H583.018C583.194 309.76 583.282 309.672 583.282 309.496V307.216C583.282 306.88 583.458 306.712 583.81 306.712H585.826C586.162 306.712 586.33 306.88 586.33 307.216V309.496C586.33 309.672 586.426 309.76 586.618 309.76H588.49C588.826 309.76 588.994 309.928 588.994 310.264V311.92C588.994 312.096 588.954 312.224 588.874 312.304C588.81 312.368 588.682 312.4 588.49 312.4H586.618C586.426 312.4 586.33 312.488 586.33 312.664V317.968C586.33 318.464 586.442 318.824 586.666 319.048C586.89 319.256 587.258 319.36 587.77 319.36H588.73C589.066 319.36 589.234 319.528 589.234 319.864V321.52C589.234 321.696 589.194 321.824 589.114 321.904C589.05 321.968 588.922 322 588.73 322H587.266C586.002 322 585.018 321.664 584.314 320.992C583.626 320.32 583.282 319.36 583.282 318.112V312.664C583.282 312.488 583.194 312.4 583.018 312.4ZM385.611 353H382.995C381.731 353 380.755 352.664 380.067 351.992C379.379 351.32 379.035 350.352 379.035 349.088V341.48C379.035 340.216 379.379 339.248 380.067 338.576C380.755 337.904 381.731 337.568 382.995 337.568H385.611C386.859 337.568 387.827 337.912 388.515 338.6C389.219 339.272 389.571 340.232 389.571 341.48V342.608C389.571 342.96 389.395 343.136 389.043 343.136H387.027C386.691 343.136 386.523 342.96 386.523 342.608V341.624C386.523 341.112 386.411 340.752 386.187 340.544C385.979 340.32 385.619 340.208 385.107 340.208H383.475C382.979 340.208 382.619 340.32 382.395 340.544C382.187 340.752 382.083 341.112 382.083 341.624V348.944C382.083 349.456 382.187 349.824 382.395 350.048C382.619 350.256 382.979 350.36 383.475 350.36H385.107C385.619 350.36 385.979 350.256 386.187 350.048C386.411 349.824 386.523 349.456 386.523 348.944V347.96C386.523 347.608 386.691 347.432 387.027 347.432H389.043C389.395 347.432 389.571 347.608 389.571 347.96V349.088C389.571 350.336 389.219 351.304 388.515 351.992C387.827 352.664 386.859 353 385.611 353ZM396.365 353H395.573C394.341 353 393.405 352.664 392.765 351.992C392.141 351.32 391.829 350.352 391.829 349.088V341.264C391.829 340.928 391.997 340.76 392.333 340.76H394.373C394.709 340.76 394.877 340.928 394.877 341.264V348.944C394.877 349.456 394.981 349.824 395.189 350.048C395.413 350.256 395.773 350.36 396.269 350.36H397.157C398.261 350.36 398.813 349.752 398.813 348.536V341.264C398.813 340.928 398.981 340.76 399.317 340.76H401.333C401.685 340.76 401.861 340.928 401.861 341.264V352.496C401.861 352.832 401.685 353 401.333 353H399.317C398.981 353 398.813 352.832 398.813 352.496V351.704H398.717C398.541 352.136 398.229 352.464 397.781 352.688C397.333 352.896 396.861 353 396.365 353ZM409.143 353H404.583C404.263 353 404.103 352.832 404.103 352.496V350.96C404.103 350.784 404.135 350.664 404.199 350.6C404.263 350.52 404.391 350.48 404.583 350.48H408.591C409.375 350.48 409.767 350.24 409.767 349.76V349.64C409.767 349.256 409.439 348.888 408.783 348.536L406.407 347.216C405.591 346.8 404.991 346.352 404.607 345.872C404.223 345.392 404.031 344.776 404.031 344.024C404.031 342.904 404.327 342.08 404.919 341.552C405.511 341.024 406.439 340.76 407.703 340.76H411.711C412.031 340.76 412.191 340.928 412.191 341.264V342.824C412.191 343 412.159 343.128 412.095 343.208C412.031 343.272 411.903 343.304 411.711 343.304H408.375C407.591 343.304 407.199 343.504 407.199 343.904V344.024C407.199 344.376 407.543 344.736 408.231 345.104L410.655 346.544C411.487 346.992 412.071 347.456 412.407 347.936C412.743 348.4 412.911 349.016 412.911 349.784C412.911 351.928 411.655 353 409.143 353ZM415.299 343.4H414.339C414.147 343.4 414.011 343.368 413.931 343.304C413.867 343.24 413.835 343.112 413.835 342.92V341.264C413.835 340.928 414.003 340.76 414.339 340.76H415.299C415.475 340.76 415.563 340.672 415.563 340.496V338.216C415.563 337.88 415.739 337.712 416.091 337.712H418.107C418.443 337.712 418.611 337.88 418.611 338.216V340.496C418.611 340.672 418.707 340.76 418.899 340.76H420.771C421.107 340.76 421.275 340.928 421.275 341.264V342.92C421.275 343.096 421.235 343.224 421.155 343.304C421.091 343.368 420.963 343.4 420.771 343.4H418.899C418.707 343.4 418.611 343.488 418.611 343.664V348.968C418.611 349.464 418.723 349.824 418.947 350.048C419.171 350.256 419.539 350.36 420.051 350.36H421.011C421.347 350.36 421.515 350.528 421.515 350.864V352.52C421.515 352.696 421.475 352.824 421.395 352.904C421.331 352.968 421.203 353 421.011 353H419.547C418.283 353 417.299 352.664 416.595 351.992C415.907 351.32 415.563 350.36 415.563 349.112V343.664C415.563 343.488 415.475 343.4 415.299 343.4ZM429.352 353H427.216C425.952 353 424.976 352.664 424.288 351.992C423.6 351.32 423.256 350.352 423.256 349.088V344.672C423.256 343.408 423.6 342.44 424.288 341.768C424.976 341.096 425.952 340.76 427.216 340.76H429.352C430.6 340.76 431.568 341.104 432.256 341.792C432.96 342.464 433.312 343.424 433.312 344.672V349.088C433.312 350.336 432.96 351.304 432.256 351.992C431.568 352.664 430.6 353 429.352 353ZM427.672 350.384H428.896C429.408 350.384 429.768 350.28 429.976 350.072C430.2 349.864 430.312 349.504 430.312 348.992V344.768C430.312 344.256 430.2 343.896 429.976 343.688C429.768 343.48 429.408 343.376 428.896 343.376H427.672C427.16 343.376 426.8 343.48 426.592 343.688C426.384 343.896 426.28 344.256 426.28 344.768V348.992C426.28 349.504 426.384 349.864 426.592 350.072C426.8 350.28 427.16 350.384 427.672 350.384ZM438.251 353H436.211C435.875 353 435.707 352.832 435.707 352.496V341.264C435.707 340.928 435.875 340.76 436.211 340.76H438.251C438.587 340.76 438.755 340.928 438.755 341.264V342.056H438.851C439.043 341.672 439.363 341.36 439.811 341.12C440.275 340.88 440.803 340.76 441.395 340.76H442.067C443.459 340.76 444.459 341.272 445.067 342.296C445.611 341.272 446.547 340.76 447.875 340.76H448.571C449.803 340.76 450.731 341.096 451.355 341.768C451.995 342.44 452.315 343.408 452.315 344.672V352.496C452.315 352.832 452.147 353 451.811 353H449.771C449.435 353 449.267 352.832 449.267 352.496V344.816C449.267 344.304 449.163 343.944 448.955 343.736C448.747 343.512 448.387 343.4 447.875 343.4H447.275C446.171 343.4 445.619 344.016 445.619 345.248V352.496C445.619 352.832 445.443 353 445.091 353H443.075C442.739 353 442.571 352.832 442.571 352.496V344.816C442.571 344.304 442.459 343.944 442.235 343.736C442.027 343.512 441.667 343.4 441.155 343.4H440.411C439.307 343.4 438.755 344.008 438.755 345.224V352.496C438.755 352.832 438.587 353 438.251 353ZM463.879 353H458.575C457.311 353 456.335 352.664 455.647 351.992C454.959 351.32 454.615 350.352 454.615 349.088V344.672C454.615 343.408 454.959 342.44 455.647 341.768C456.335 341.096 457.311 340.76 458.575 340.76H460.471C461.735 340.76 462.711 341.096 463.399 341.768C464.087 342.44 464.431 343.408 464.431 344.672V347.72C464.431 348.056 464.263 348.224 463.927 348.224H457.903C457.711 348.224 457.615 348.312 457.615 348.488V349.016C457.615 349.512 457.719 349.872 457.927 350.096C458.151 350.304 458.519 350.408 459.031 350.408H463.879C464.215 350.408 464.383 350.584 464.383 350.936V352.52C464.383 352.696 464.343 352.824 464.263 352.904C464.199 352.968 464.071 353 463.879 353ZM457.903 346.184H461.167C461.343 346.184 461.431 346.096 461.431 345.92V344.768C461.431 344.256 461.327 343.896 461.119 343.688C460.911 343.48 460.551 343.376 460.039 343.376H459.031C458.519 343.376 458.159 343.48 457.951 343.688C457.743 343.896 457.639 344.256 457.639 344.768V345.92C457.639 346.096 457.727 346.184 457.903 346.184ZM469.259 353H467.219C466.883 353 466.715 352.832 466.715 352.496V341.264C466.715 340.928 466.883 340.76 467.219 340.76H469.259C469.595 340.76 469.763 340.928 469.763 341.264V342.08H469.859C470.035 341.648 470.347 341.32 470.795 341.096C471.243 340.872 471.715 340.76 472.211 340.76H473.075C473.395 340.76 473.555 340.928 473.555 341.264V342.92C473.555 343.112 473.515 343.248 473.435 343.328C473.371 343.392 473.251 343.416 473.075 343.4H471.419C470.315 343.4 469.763 344.024 469.763 345.272V352.496C469.763 352.832 469.595 353 469.259 353ZM488.947 353H481.099C480.763 353 480.595 352.832 480.595 352.496V338.072C480.595 337.736 480.763 337.568 481.099 337.568H488.947C489.267 337.568 489.427 337.736 489.427 338.072V339.704C489.427 340.04 489.267 340.208 488.947 340.208H483.931C483.739 340.208 483.643 340.296 483.643 340.472V343.592C483.643 343.768 483.739 343.856 483.931 343.856H488.035C488.371 343.856 488.539 344.024 488.539 344.36V345.992C488.539 346.328 488.371 346.496 488.035 346.496H483.931C483.739 346.496 483.643 346.584 483.643 346.76V350.096C483.643 350.272 483.739 350.36 483.931 350.36H488.947C489.267 350.36 489.427 350.528 489.427 350.864V352.496C489.427 352.832 489.267 353 488.947 353ZM494.384 353H492.344C492.008 353 491.84 352.832 491.84 352.496V341.264C491.84 340.928 492.008 340.76 492.344 340.76H494.384C494.72 340.76 494.888 340.928 494.888 341.264V342.056H494.984C495.336 341.192 496.12 340.76 497.336 340.76H498.104C500.616 340.76 501.872 342.064 501.872 344.672V352.496C501.872 352.832 501.696 353 501.344 353H499.328C498.992 353 498.824 352.832 498.824 352.496V344.816C498.824 344.304 498.712 343.944 498.488 343.736C498.28 343.512 497.92 343.4 497.408 343.4H496.544C495.44 343.4 494.888 344.008 494.888 345.224V352.496C494.888 352.832 494.72 353 494.384 353ZM508.722 352.448H507.93C506.698 352.448 505.762 352.112 505.122 351.44C504.498 350.768 504.186 349.8 504.186 348.536V344.672C504.186 343.408 504.53 342.44 505.218 341.768C505.906 341.096 506.882 340.76 508.146 340.76H513.69C514.042 340.76 514.218 340.928 514.218 341.264V353.096C514.218 354.344 513.866 355.304 513.162 355.976C512.474 356.648 511.506 356.984 510.258 356.984H505.65C505.458 356.984 505.322 356.944 505.242 356.864C505.178 356.8 505.146 356.68 505.146 356.504V354.848C505.146 354.512 505.314 354.344 505.65 354.344H509.754C510.266 354.344 510.626 354.232 510.834 354.008C511.058 353.8 511.17 353.448 511.17 352.952V351.128H511.074C510.898 351.56 510.586 351.888 510.138 352.112C509.69 352.336 509.218 352.448 508.722 352.448ZM511.17 347.984V343.664C511.17 343.488 511.074 343.4 510.882 343.4H508.626C508.114 343.4 507.754 343.512 507.546 343.736C507.338 343.944 507.234 344.304 507.234 344.816V348.392C507.234 348.904 507.338 349.264 507.546 349.472C507.754 349.68 508.114 349.784 508.626 349.784H509.514C510.618 349.784 511.17 349.184 511.17 347.984ZM521.143 353H520.567C519.303 353 518.327 352.664 517.639 351.992C516.951 351.32 516.607 350.352 516.607 349.088V344.672C516.607 343.408 516.951 342.44 517.639 341.768C518.327 341.096 519.303 340.76 520.567 340.76H526.111C526.463 340.76 526.639 340.928 526.639 341.264V352.496C526.639 352.832 526.463 353 526.111 353H524.095C523.759 353 523.591 352.832 523.591 352.496V351.704H523.495C523.319 352.136 523.007 352.464 522.559 352.688C522.111 352.896 521.639 353 521.143 353ZM523.591 348.536V343.664C523.591 343.488 523.495 343.4 523.303 343.4H521.047C520.535 343.4 520.175 343.512 519.967 343.736C519.759 343.944 519.655 344.304 519.655 344.816V348.944C519.655 349.456 519.759 349.824 519.967 350.048C520.175 350.256 520.535 350.36 521.047 350.36H521.935C523.039 350.36 523.591 349.752 523.591 348.536ZM533.589 352.448H532.797C531.565 352.448 530.629 352.112 529.989 351.44C529.365 350.768 529.053 349.8 529.053 348.536V344.672C529.053 343.408 529.397 342.44 530.085 341.768C530.773 341.096 531.749 340.76 533.013 340.76H538.557C538.909 340.76 539.085 340.928 539.085 341.264V353.096C539.085 354.344 538.733 355.304 538.029 355.976C537.341 356.648 536.373 356.984 535.125 356.984H530.517C530.325 356.984 530.189 356.944 530.109 356.864C530.045 356.8 530.013 356.68 530.013 356.504V354.848C530.013 354.512 530.181 354.344 530.517 354.344H534.621C535.133 354.344 535.493 354.232 535.701 354.008C535.925 353.8 536.037 353.448 536.037 352.952V351.128H535.941C535.765 351.56 535.453 351.888 535.005 352.112C534.557 352.336 534.085 352.448 533.589 352.448ZM536.037 347.984V343.664C536.037 343.488 535.941 343.4 535.749 343.4H533.493C532.981 343.4 532.621 343.512 532.413 343.736C532.205 343.944 532.101 344.304 532.101 344.816V348.392C532.101 348.904 532.205 349.264 532.413 349.472C532.621 349.68 532.981 349.784 533.493 349.784H534.381C535.485 349.784 536.037 349.184 536.037 347.984ZM550.739 353H545.435C544.171 353 543.195 352.664 542.507 351.992C541.819 351.32 541.475 350.352 541.475 349.088V344.672C541.475 343.408 541.819 342.44 542.507 341.768C543.195 341.096 544.171 340.76 545.435 340.76H547.331C548.595 340.76 549.571 341.096 550.259 341.768C550.947 342.44 551.291 343.408 551.291 344.672V347.72C551.291 348.056 551.123 348.224 550.787 348.224H544.763C544.571 348.224 544.475 348.312 544.475 348.488V349.016C544.475 349.512 544.579 349.872 544.787 350.096C545.011 350.304 545.379 350.408 545.891 350.408H550.739C551.075 350.408 551.243 350.584 551.243 350.936V352.52C551.243 352.696 551.203 352.824 551.123 352.904C551.059 352.968 550.931 353 550.739 353ZM544.763 346.184H548.027C548.203 346.184 548.291 346.096 548.291 345.92V344.768C548.291 344.256 548.187 343.896 547.979 343.688C547.771 343.48 547.411 343.376 546.899 343.376H545.891C545.379 343.376 545.019 343.48 544.811 343.688C544.603 343.896 544.499 344.256 544.499 344.768V345.92C544.499 346.096 544.587 346.184 544.763 346.184ZM556.118 353H554.078C553.742 353 553.574 352.832 553.574 352.496V341.264C553.574 340.928 553.742 340.76 554.078 340.76H556.118C556.454 340.76 556.622 340.928 556.622 341.264V342.056H556.718C556.91 341.672 557.23 341.36 557.678 341.12C558.142 340.88 558.67 340.76 559.262 340.76H559.934C561.326 340.76 562.326 341.272 562.934 342.296C563.478 341.272 564.414 340.76 565.742 340.76H566.438C567.67 340.76 568.598 341.096 569.222 341.768C569.862 342.44 570.182 343.408 570.182 344.672V352.496C570.182 352.832 570.014 353 569.678 353H567.638C567.302 353 567.134 352.832 567.134 352.496V344.816C567.134 344.304 567.03 343.944 566.822 343.736C566.614 343.512 566.254 343.4 565.742 343.4H565.142C564.038 343.4 563.486 344.016 563.486 345.248V352.496C563.486 352.832 563.31 353 562.958 353H560.942C560.606 353 560.438 352.832 560.438 352.496V344.816C560.438 344.304 560.326 343.944 560.102 343.736C559.894 343.512 559.534 343.4 559.022 343.4H558.278C557.174 343.4 556.622 344.008 556.622 345.224V352.496C556.622 352.832 556.454 353 556.118 353ZM581.746 353H576.442C575.178 353 574.202 352.664 573.514 351.992C572.826 351.32 572.482 350.352 572.482 349.088V344.672C572.482 343.408 572.826 342.44 573.514 341.768C574.202 341.096 575.178 340.76 576.442 340.76H578.338C579.602 340.76 580.578 341.096 581.266 341.768C581.954 342.44 582.298 343.408 582.298 344.672V347.72C582.298 348.056 582.13 348.224 581.794 348.224H575.77C575.578 348.224 575.482 348.312 575.482 348.488V349.016C575.482 349.512 575.586 349.872 575.794 350.096C576.018 350.304 576.386 350.408 576.898 350.408H581.746C582.082 350.408 582.25 350.584 582.25 350.936V352.52C582.25 352.696 582.21 352.824 582.13 352.904C582.066 352.968 581.938 353 581.746 353ZM575.77 346.184H579.034C579.21 346.184 579.298 346.096 579.298 345.92V344.768C579.298 344.256 579.194 343.896 578.986 343.688C578.778 343.48 578.418 343.376 577.906 343.376H576.898C576.386 343.376 576.026 343.48 575.818 343.688C575.61 343.896 575.506 344.256 575.506 344.768V345.92C575.506 346.096 575.594 346.184 575.77 346.184ZM587.126 353H585.086C584.75 353 584.582 352.832 584.582 352.496V341.264C584.582 340.928 584.75 340.76 585.086 340.76H587.126C587.462 340.76 587.63 340.928 587.63 341.264V342.056H587.726C588.078 341.192 588.862 340.76 590.078 340.76H590.846C593.358 340.76 594.614 342.064 594.614 344.672V352.496C594.614 352.832 594.438 353 594.086 353H592.07C591.734 353 591.566 352.832 591.566 352.496V344.816C591.566 344.304 591.454 343.944 591.23 343.736C591.022 343.512 590.662 343.4 590.15 343.4H589.286C588.182 343.4 587.63 344.008 587.63 345.224V352.496C587.63 352.832 587.462 353 587.126 353ZM597.408 343.4H596.448C596.256 343.4 596.12 343.368 596.04 343.304C595.976 343.24 595.944 343.112 595.944 342.92V341.264C595.944 340.928 596.112 340.76 596.448 340.76H597.408C597.584 340.76 597.672 340.672 597.672 340.496V338.216C597.672 337.88 597.848 337.712 598.2 337.712H600.216C600.552 337.712 600.72 337.88 600.72 338.216V340.496C600.72 340.672 600.816 340.76 601.008 340.76H602.88C603.216 340.76 603.384 340.928 603.384 341.264V342.92C603.384 343.096 603.344 343.224 603.264 343.304C603.2 343.368 603.072 343.4 602.88 343.4H601.008C600.816 343.4 600.72 343.488 600.72 343.664V348.968C600.72 349.464 600.832 349.824 601.056 350.048C601.28 350.256 601.648 350.36 602.16 350.36H603.12C603.456 350.36 603.624 350.528 603.624 350.864V352.52C603.624 352.696 603.584 352.824 603.504 352.904C603.44 352.968 603.312 353 603.12 353H601.656C600.392 353 599.408 352.664 598.704 351.992C598.016 351.32 597.672 350.36 597.672 349.112V343.664C597.672 343.488 597.584 343.4 597.408 343.4Z" fill="white"/>
</g>
</svg>
