<svg width="655" height="440" viewBox="0 0 655 440" fill="none" xmlns="http://www.w3.org/2000/svg">
<mask id="mask0_240_1094" style="mask-type:alpha" maskUnits="userSpaceOnUse" x="0" y="0" width="655" height="440">
<rect x="0.5" y="0.5" width="654" height="439" fill="white" stroke="#E0E0E0"/>
</mask>
<g mask="url(#mask0_240_1094)">
<rect width="328.329" height="219.163" fill="#2F2F2F"/>
<path d="M75.8829 102H73.8669C73.5149 102 73.3389 101.832 73.3389 101.496V89.472C73.3389 89.296 73.2509 89.208 73.0749 89.208H70.3389C70.0029 89.208 69.8349 89.04 69.8349 88.704V87.072C69.8349 86.736 70.0029 86.568 70.3389 86.568H79.4109C79.7469 86.568 79.9149 86.736 79.9149 87.072V88.704C79.9149 89.04 79.7469 89.208 79.4109 89.208H76.6749C76.4829 89.208 76.3869 89.296 76.3869 89.472V101.496C76.3869 101.832 76.2189 102 75.8829 102ZM90.5315 102H85.2275C83.9635 102 82.9875 101.664 82.2995 100.992C81.6115 100.32 81.2675 99.352 81.2675 98.088V93.672C81.2675 92.408 81.6115 91.44 82.2995 90.768C82.9875 90.096 83.9635 89.76 85.2275 89.76H87.1235C88.3875 89.76 89.3635 90.096 90.0515 90.768C90.7395 91.44 91.0835 92.408 91.0835 93.672V96.72C91.0835 97.056 90.9155 97.224 90.5795 97.224H84.5555C84.3635 97.224 84.2675 97.312 84.2675 97.488V98.016C84.2675 98.512 84.3715 98.872 84.5795 99.096C84.8035 99.304 85.1715 99.408 85.6835 99.408H90.5315C90.8675 99.408 91.0355 99.584 91.0355 99.936V101.52C91.0355 101.696 90.9955 101.824 90.9155 101.904C90.8515 101.968 90.7235 102 90.5315 102ZM84.5555 95.184H87.8195C87.9955 95.184 88.0835 95.096 88.0835 94.92V93.768C88.0835 93.256 87.9795 92.896 87.7715 92.688C87.5635 92.48 87.2035 92.376 86.6915 92.376H85.6835C85.1715 92.376 84.8115 92.48 84.6035 92.688C84.3955 92.896 84.2915 93.256 84.2915 93.768V94.92C84.2915 95.096 84.3795 95.184 84.5555 95.184ZM101.167 99.864V101.52C101.167 101.696 101.127 101.824 101.047 101.904C100.983 101.968 100.855 102 100.663 102H97.0869C95.8229 102 94.8469 101.664 94.1589 100.992C93.4709 100.32 93.1269 99.352 93.1269 98.088V93.672C93.1269 92.408 93.4709 91.44 94.1589 90.768C94.8469 90.096 95.8229 89.76 97.0869 89.76H100.663C100.999 89.76 101.167 89.928 101.167 90.264V91.92C101.167 92.096 101.127 92.224 101.047 92.304C100.983 92.368 100.855 92.4 100.663 92.4H97.5669C97.0709 92.4 96.7109 92.512 96.4869 92.736C96.2789 92.944 96.1749 93.304 96.1749 93.816V97.944C96.1749 98.456 96.2789 98.824 96.4869 99.048C96.7109 99.256 97.0709 99.36 97.5669 99.36H100.663C100.999 99.36 101.167 99.528 101.167 99.864ZM105.778 102H103.738C103.402 102 103.234 101.832 103.234 101.496V85.632C103.234 85.296 103.402 85.128 103.738 85.128H105.778C106.114 85.128 106.282 85.296 106.282 85.632V91.056H106.378C106.73 90.192 107.514 89.76 108.73 89.76H109.498C112.01 89.76 113.266 91.064 113.266 93.672V101.496C113.266 101.832 113.09 102 112.738 102H110.722C110.386 102 110.218 101.832 110.218 101.496V93.816C110.218 93.304 110.106 92.944 109.882 92.736C109.674 92.512 109.314 92.4 108.802 92.4H107.938C106.834 92.4 106.282 93.008 106.282 94.224V101.496C106.282 101.832 106.114 102 105.778 102ZM118.341 102H116.301C115.965 102 115.797 101.832 115.797 101.496V90.264C115.797 89.928 115.965 89.76 116.301 89.76H118.341C118.677 89.76 118.845 89.928 118.845 90.264V91.056H118.941C119.293 90.192 120.077 89.76 121.293 89.76H122.061C124.573 89.76 125.829 91.064 125.829 93.672V101.496C125.829 101.832 125.653 102 125.301 102H123.285C122.949 102 122.781 101.832 122.781 101.496V93.816C122.781 93.304 122.669 92.944 122.445 92.736C122.237 92.512 121.877 92.4 121.365 92.4H120.501C119.397 92.4 118.845 93.008 118.845 94.224V101.496C118.845 101.832 118.677 102 118.341 102ZM134.215 102H132.079C130.815 102 129.839 101.664 129.151 100.992C128.463 100.32 128.119 99.352 128.119 98.088V93.672C128.119 92.408 128.463 91.44 129.151 90.768C129.839 90.096 130.815 89.76 132.079 89.76H134.215C135.463 89.76 136.431 90.104 137.119 90.792C137.823 91.464 138.175 92.424 138.175 93.672V98.088C138.175 99.336 137.823 100.304 137.119 100.992C136.431 101.664 135.463 102 134.215 102ZM132.535 99.384H133.759C134.271 99.384 134.631 99.28 134.839 99.072C135.063 98.864 135.175 98.504 135.175 97.992V93.768C135.175 93.256 135.063 92.896 134.839 92.688C134.631 92.48 134.271 92.376 133.759 92.376H132.535C132.023 92.376 131.663 92.48 131.455 92.688C131.247 92.896 131.143 93.256 131.143 93.768V97.992C131.143 98.504 131.247 98.864 131.455 99.072C131.663 99.28 132.023 99.384 132.535 99.384ZM143.234 102H141.194C140.858 102 140.69 101.832 140.69 101.496V85.632C140.69 85.296 140.858 85.128 141.194 85.128H143.234C143.57 85.128 143.738 85.296 143.738 85.632V101.496C143.738 101.832 143.57 102 143.234 102ZM152.356 102H150.22C148.956 102 147.98 101.664 147.292 100.992C146.604 100.32 146.26 99.352 146.26 98.088V93.672C146.26 92.408 146.604 91.44 147.292 90.768C147.98 90.096 148.956 89.76 150.22 89.76H152.356C153.604 89.76 154.572 90.104 155.26 90.792C155.964 91.464 156.316 92.424 156.316 93.672V98.088C156.316 99.336 155.964 100.304 155.26 100.992C154.572 101.664 153.604 102 152.356 102ZM150.676 99.384H151.9C152.412 99.384 152.772 99.28 152.98 99.072C153.204 98.864 153.316 98.504 153.316 97.992V93.768C153.316 93.256 153.204 92.896 152.98 92.688C152.772 92.48 152.412 92.376 151.9 92.376H150.676C150.164 92.376 149.804 92.48 149.596 92.688C149.388 92.896 149.284 93.256 149.284 93.768V97.992C149.284 98.504 149.388 98.864 149.596 99.072C149.804 99.28 150.164 99.384 150.676 99.384ZM163.031 101.448H162.239C161.007 101.448 160.071 101.112 159.431 100.44C158.807 99.768 158.495 98.8 158.495 97.536V93.672C158.495 92.408 158.839 91.44 159.527 90.768C160.215 90.096 161.191 89.76 162.455 89.76H167.999C168.351 89.76 168.527 89.928 168.527 90.264V102.096C168.527 103.344 168.175 104.304 167.471 104.976C166.783 105.648 165.815 105.984 164.567 105.984H159.959C159.767 105.984 159.631 105.944 159.551 105.864C159.487 105.8 159.455 105.68 159.455 105.504V103.848C159.455 103.512 159.623 103.344 159.959 103.344H164.063C164.575 103.344 164.935 103.232 165.143 103.008C165.367 102.8 165.479 102.448 165.479 101.952V100.128H165.383C165.207 100.56 164.895 100.888 164.447 101.112C163.999 101.336 163.527 101.448 163.031 101.448ZM165.479 96.984V92.664C165.479 92.488 165.383 92.4 165.191 92.4H162.935C162.423 92.4 162.063 92.512 161.855 92.736C161.647 92.944 161.543 93.304 161.543 93.816V97.392C161.543 97.904 161.647 98.264 161.855 98.472C162.063 98.68 162.423 98.784 162.935 98.784H163.823C164.927 98.784 165.479 98.184 165.479 96.984ZM173.148 106.056H171.612C171.292 106.056 171.132 105.88 171.132 105.528V103.92C171.132 103.568 171.292 103.392 171.612 103.392H172.116C173.124 103.392 173.804 103.248 174.156 102.96C174.524 102.688 174.804 102.152 174.996 101.352H173.724C173.42 101.352 173.22 101.184 173.124 100.848L170.316 90.264C170.22 89.928 170.34 89.76 170.676 89.76H172.812C173.132 89.76 173.332 89.928 173.412 90.264L175.476 99.12H175.572L177.612 90.264C177.676 89.928 177.876 89.76 178.212 89.76H180.228C180.628 89.76 180.788 89.936 180.708 90.288L177.78 102C177.428 103.328 176.884 104.336 176.148 105.024C175.412 105.712 174.412 106.056 173.148 106.056ZM187.582 98.064V97.584C187.582 97.248 187.75 97.08 188.086 97.08H190.126C190.462 97.08 190.63 97.248 190.63 97.584V97.776C190.63 98.384 190.75 98.8 190.99 99.024C191.23 99.248 191.67 99.36 192.31 99.36H193.438C194.062 99.36 194.494 99.24 194.734 99C194.99 98.76 195.118 98.312 195.118 97.656V97.368C195.118 96.904 194.926 96.552 194.542 96.312C194.174 96.056 193.71 95.904 193.15 95.856C192.59 95.808 191.982 95.72 191.326 95.592C190.686 95.448 190.086 95.272 189.526 95.064C188.966 94.84 188.494 94.416 188.11 93.792C187.742 93.152 187.558 92.336 187.558 91.344V90.504C187.558 89.256 187.91 88.288 188.614 87.6C189.318 86.912 190.294 86.568 191.542 86.568H193.942C195.206 86.568 196.19 86.912 196.894 87.6C197.598 88.288 197.95 89.256 197.95 90.504V90.96C197.95 91.296 197.782 91.464 197.446 91.464H195.406C195.07 91.464 194.902 91.296 194.902 90.96V90.816C194.902 90.192 194.782 89.768 194.542 89.544C194.302 89.32 193.862 89.208 193.222 89.208H192.286C191.63 89.208 191.182 89.336 190.942 89.592C190.718 89.832 190.606 90.312 190.606 91.032V91.488C190.606 92.24 191.262 92.672 192.574 92.784C193.934 92.896 195.142 93.168 196.198 93.6C196.758 93.84 197.222 94.272 197.59 94.896C197.974 95.504 198.166 96.288 198.166 97.248V98.064C198.166 99.312 197.814 100.28 197.11 100.968C196.406 101.656 195.43 102 194.182 102H191.566C190.318 102 189.342 101.656 188.638 100.968C187.934 100.28 187.582 99.312 187.582 98.064ZM209.688 102H204.384C203.12 102 202.144 101.664 201.456 100.992C200.768 100.32 200.424 99.352 200.424 98.088V93.672C200.424 92.408 200.768 91.44 201.456 90.768C202.144 90.096 203.12 89.76 204.384 89.76H206.28C207.544 89.76 208.52 90.096 209.208 90.768C209.896 91.44 210.24 92.408 210.24 93.672V96.72C210.24 97.056 210.072 97.224 209.736 97.224H203.712C203.52 97.224 203.424 97.312 203.424 97.488V98.016C203.424 98.512 203.528 98.872 203.736 99.096C203.96 99.304 204.328 99.408 204.84 99.408H209.688C210.024 99.408 210.192 99.584 210.192 99.936V101.52C210.192 101.696 210.152 101.824 210.072 101.904C210.008 101.968 209.88 102 209.688 102ZM203.712 95.184H206.976C207.152 95.184 207.24 95.096 207.24 94.92V93.768C207.24 93.256 207.136 92.896 206.928 92.688C206.72 92.48 206.36 92.376 205.848 92.376H204.84C204.328 92.376 203.968 92.48 203.76 92.688C203.552 92.896 203.448 93.256 203.448 93.768V94.92C203.448 95.096 203.536 95.184 203.712 95.184ZM215.067 102H213.027C212.691 102 212.523 101.832 212.523 101.496V90.264C212.523 89.928 212.691 89.76 213.027 89.76H215.067C215.403 89.76 215.571 89.928 215.571 90.264V91.08H215.667C215.843 90.648 216.155 90.32 216.603 90.096C217.051 89.872 217.523 89.76 218.019 89.76H218.883C219.203 89.76 219.363 89.928 219.363 90.264V91.92C219.363 92.112 219.323 92.248 219.243 92.328C219.179 92.392 219.059 92.416 218.883 92.4H217.227C216.123 92.4 215.571 93.024 215.571 94.272V101.496C215.571 101.832 215.403 102 215.067 102ZM220.362 89.76H222.474C222.794 89.76 222.986 89.928 223.05 90.264L225.114 99.288H225.282L227.298 90.264C227.362 89.928 227.562 89.76 227.898 89.76H230.01C230.346 89.76 230.466 89.928 230.37 90.264L227.346 101.472C227.282 101.824 227.066 102 226.698 102H223.65C223.314 102 223.098 101.824 223.002 101.472L220.002 90.264C219.906 89.928 220.026 89.76 220.362 89.76ZM232.237 87.696V85.608C232.237 85.288 232.397 85.128 232.717 85.128H234.805C235.125 85.128 235.285 85.28 235.285 85.584V87.696C235.285 88.016 235.125 88.176 234.805 88.176H232.717C232.397 88.176 232.237 88.016 232.237 87.696ZM232.237 101.496V90.264C232.237 89.928 232.397 89.76 232.717 89.76H234.781C235.117 89.76 235.285 89.928 235.285 90.264V101.496C235.285 101.704 235.245 101.84 235.165 101.904C235.101 101.968 234.981 102 234.805 102H232.741C232.405 102 232.237 101.832 232.237 101.496ZM245.847 99.864V101.52C245.847 101.696 245.807 101.824 245.727 101.904C245.663 101.968 245.535 102 245.343 102H241.767C240.503 102 239.527 101.664 238.839 100.992C238.151 100.32 237.807 99.352 237.807 98.088V93.672C237.807 92.408 238.151 91.44 238.839 90.768C239.527 90.096 240.503 89.76 241.767 89.76H245.343C245.679 89.76 245.847 89.928 245.847 90.264V91.92C245.847 92.096 245.807 92.224 245.727 92.304C245.663 92.368 245.535 92.4 245.343 92.4H242.247C241.751 92.4 241.391 92.512 241.167 92.736C240.959 92.944 240.855 93.304 240.855 93.816V97.944C240.855 98.456 240.959 98.824 241.167 99.048C241.391 99.256 241.751 99.36 242.247 99.36H245.343C245.679 99.36 245.847 99.528 245.847 99.864ZM256.938 102H251.634C250.37 102 249.394 101.664 248.706 100.992C248.018 100.32 247.674 99.352 247.674 98.088V93.672C247.674 92.408 248.018 91.44 248.706 90.768C249.394 90.096 250.37 89.76 251.634 89.76H253.53C254.794 89.76 255.77 90.096 256.458 90.768C257.146 91.44 257.49 92.408 257.49 93.672V96.72C257.49 97.056 257.322 97.224 256.986 97.224H250.962C250.77 97.224 250.674 97.312 250.674 97.488V98.016C250.674 98.512 250.778 98.872 250.986 99.096C251.21 99.304 251.578 99.408 252.09 99.408H256.938C257.274 99.408 257.442 99.584 257.442 99.936V101.52C257.442 101.696 257.402 101.824 257.322 101.904C257.258 101.968 257.13 102 256.938 102ZM250.962 95.184H254.226C254.402 95.184 254.49 95.096 254.49 94.92V93.768C254.49 93.256 254.386 92.896 254.178 92.688C253.97 92.48 253.61 92.376 253.098 92.376H252.09C251.578 92.376 251.218 92.48 251.01 92.688C250.802 92.896 250.698 93.256 250.698 93.768V94.92C250.698 95.096 250.786 95.184 250.962 95.184ZM127.725 130.36H129.429C129.941 130.36 130.301 130.256 130.509 130.048C130.733 129.824 130.845 129.456 130.845 128.944V121.624C130.845 121.112 130.733 120.752 130.509 120.544C130.301 120.32 129.941 120.208 129.429 120.208H127.725C127.213 120.208 126.853 120.32 126.645 120.544C126.437 120.752 126.333 121.112 126.333 121.624V128.944C126.333 129.456 126.437 129.824 126.645 130.048C126.853 130.256 127.213 130.36 127.725 130.36ZM129.933 133H127.245C125.981 133 125.005 132.664 124.317 131.992C123.629 131.32 123.285 130.352 123.285 129.088V121.48C123.285 120.216 123.629 119.248 124.317 118.576C125.005 117.904 125.981 117.568 127.245 117.568H129.933C131.197 117.568 132.173 117.904 132.861 118.576C133.549 119.248 133.893 120.216 133.893 121.48V129.088C133.893 130.352 133.549 131.32 132.861 131.992C132.173 132.664 131.197 133 129.933 133ZM139.071 133H137.031C136.695 133 136.527 132.832 136.527 132.496V121.264C136.527 120.928 136.695 120.76 137.031 120.76H139.071C139.407 120.76 139.575 120.928 139.575 121.264V122.056H139.671C140.023 121.192 140.807 120.76 142.023 120.76H142.791C145.303 120.76 146.559 122.064 146.559 124.672V132.496C146.559 132.832 146.383 133 146.031 133H144.015C143.679 133 143.511 132.832 143.511 132.496V124.816C143.511 124.304 143.399 123.944 143.175 123.736C142.967 123.512 142.607 123.4 142.095 123.4H141.231C140.127 123.4 139.575 124.008 139.575 125.224V132.496C139.575 132.832 139.407 133 139.071 133ZM152.402 130.36H154.85C155.362 130.36 155.722 130.256 155.93 130.048C156.154 129.824 156.266 129.456 156.266 128.944V124.768C156.266 124.256 156.154 123.896 155.93 123.688C155.722 123.464 155.362 123.352 154.85 123.352H153.794C152.69 123.352 152.138 123.96 152.138 125.176V130.096C152.138 130.272 152.226 130.36 152.402 130.36ZM149.09 132.496V116.632C149.09 116.296 149.258 116.128 149.594 116.128H151.634C151.97 116.128 152.138 116.296 152.138 116.632V122.032H152.234C152.41 121.6 152.722 121.272 153.17 121.048C153.618 120.824 154.09 120.712 154.586 120.712H155.354C156.618 120.712 157.594 121.048 158.282 121.72C158.97 122.392 159.314 123.36 159.314 124.624V129.088C159.314 130.352 158.97 131.32 158.282 131.992C157.594 132.664 156.618 133 155.354 133H149.594C149.258 133 149.09 132.832 149.09 132.496ZM167.578 133H165.442C164.178 133 163.202 132.664 162.514 131.992C161.826 131.32 161.482 130.352 161.482 129.088V124.672C161.482 123.408 161.826 122.44 162.514 121.768C163.202 121.096 164.178 120.76 165.442 120.76H167.578C168.826 120.76 169.794 121.104 170.482 121.792C171.186 122.464 171.538 123.424 171.538 124.672V129.088C171.538 130.336 171.186 131.304 170.482 131.992C169.794 132.664 168.826 133 167.578 133ZM165.898 130.384H167.122C167.634 130.384 167.994 130.28 168.202 130.072C168.426 129.864 168.538 129.504 168.538 128.992V124.768C168.538 124.256 168.426 123.896 168.202 123.688C167.994 123.48 167.634 123.376 167.122 123.376H165.898C165.386 123.376 165.026 123.48 164.818 123.688C164.61 123.896 164.506 124.256 164.506 124.768V128.992C164.506 129.504 164.61 129.864 164.818 130.072C165.026 130.28 165.386 130.384 165.898 130.384ZM178.229 133H177.653C176.389 133 175.413 132.664 174.725 131.992C174.037 131.32 173.693 130.352 173.693 129.088V124.672C173.693 123.408 174.037 122.44 174.725 121.768C175.413 121.096 176.389 120.76 177.653 120.76H183.197C183.549 120.76 183.725 120.928 183.725 121.264V132.496C183.725 132.832 183.549 133 183.197 133H181.181C180.845 133 180.677 132.832 180.677 132.496V131.704H180.581C180.405 132.136 180.093 132.464 179.645 132.688C179.197 132.896 178.725 133 178.229 133ZM180.677 128.536V123.664C180.677 123.488 180.581 123.4 180.389 123.4H178.133C177.621 123.4 177.261 123.512 177.053 123.736C176.845 123.944 176.741 124.304 176.741 124.816V128.944C176.741 129.456 176.845 129.824 177.053 130.048C177.261 130.256 177.621 130.36 178.133 130.36H179.021C180.125 130.36 180.677 129.752 180.677 128.536ZM188.899 133H186.859C186.523 133 186.355 132.832 186.355 132.496V121.264C186.355 120.928 186.523 120.76 186.859 120.76H188.899C189.235 120.76 189.403 120.928 189.403 121.264V122.08H189.499C189.675 121.648 189.987 121.32 190.435 121.096C190.883 120.872 191.355 120.76 191.851 120.76H192.715C193.035 120.76 193.195 120.928 193.195 121.264V122.92C193.195 123.112 193.155 123.248 193.075 123.328C193.011 123.392 192.891 123.416 192.715 123.4H191.059C189.955 123.4 189.403 124.024 189.403 125.272V132.496C189.403 132.832 189.235 133 188.899 133ZM199.21 133H198.226C196.994 133 196.058 132.664 195.418 131.992C194.794 131.32 194.482 130.352 194.482 129.088V124.672C194.482 123.408 194.794 122.44 195.418 121.768C196.058 121.096 196.994 120.76 198.226 120.76H199.21C199.706 120.76 200.178 120.872 200.626 121.096C201.074 121.304 201.386 121.624 201.562 122.056H201.658V116.632C201.658 116.296 201.826 116.128 202.162 116.128H204.202C204.538 116.128 204.706 116.296 204.706 116.632V132.496C204.706 132.832 204.538 133 204.202 133H202.162C201.826 133 201.658 132.832 201.658 132.496V131.704H201.562C201.386 132.136 201.074 132.464 200.626 132.688C200.178 132.896 199.706 133 199.21 133ZM201.658 128.536V125.224C201.658 124.008 201.106 123.4 200.002 123.4H198.922C198.41 123.4 198.05 123.512 197.842 123.736C197.634 123.944 197.53 124.304 197.53 124.816V128.944C197.53 129.456 197.634 129.824 197.842 130.048C198.05 130.256 198.41 130.36 198.922 130.36H200.002C201.106 130.36 201.658 129.752 201.658 128.536Z" fill="white"/>
<rect x="326.671" width="328.329" height="219.163" fill="#F1F1F1"/>
<path d="M409.069 98.36H410.773C411.285 98.36 411.645 98.256 411.853 98.048C412.077 97.824 412.189 97.456 412.189 96.944V89.624C412.189 89.112 412.077 88.752 411.853 88.544C411.645 88.32 411.285 88.208 410.773 88.208H409.069C408.557 88.208 408.197 88.32 407.989 88.544C407.781 88.752 407.677 89.112 407.677 89.624V96.944C407.677 97.456 407.781 97.824 407.989 98.048C408.197 98.256 408.557 98.36 409.069 98.36ZM411.277 101H408.589C407.325 101 406.349 100.664 405.661 99.992C404.973 99.32 404.629 98.352 404.629 97.088V89.48C404.629 88.216 404.973 87.248 405.661 86.576C406.349 85.904 407.325 85.568 408.589 85.568H411.277C412.541 85.568 413.517 85.904 414.205 86.576C414.893 87.248 415.237 88.216 415.237 89.48V97.088C415.237 98.352 414.893 99.32 414.205 99.992C413.517 100.664 412.541 101 411.277 101ZM420.415 101H418.375C418.039 101 417.871 100.832 417.871 100.496V89.264C417.871 88.928 418.039 88.76 418.375 88.76H420.415C420.751 88.76 420.919 88.928 420.919 89.264V90.056H421.015C421.367 89.192 422.151 88.76 423.367 88.76H424.135C426.647 88.76 427.903 90.064 427.903 92.672V100.496C427.903 100.832 427.727 101 427.375 101H425.359C425.023 101 424.855 100.832 424.855 100.496V92.816C424.855 92.304 424.743 91.944 424.519 91.736C424.311 91.512 423.951 91.4 423.439 91.4H422.575C421.471 91.4 420.919 92.008 420.919 93.224V100.496C420.919 100.832 420.751 101 420.415 101ZM433.097 101H431.057C430.721 101 430.553 100.832 430.553 100.496V84.632C430.553 84.296 430.721 84.128 431.057 84.128H433.097C433.433 84.128 433.601 84.296 433.601 84.632V100.496C433.601 100.832 433.433 101 433.097 101ZM436.483 86.696V84.608C436.483 84.288 436.643 84.128 436.963 84.128H439.051C439.371 84.128 439.531 84.28 439.531 84.584V86.696C439.531 87.016 439.371 87.176 439.051 87.176H436.963C436.643 87.176 436.483 87.016 436.483 86.696ZM436.483 100.496V89.264C436.483 88.928 436.643 88.76 436.963 88.76H439.027C439.363 88.76 439.531 88.928 439.531 89.264V100.496C439.531 100.704 439.491 100.84 439.411 100.904C439.347 100.968 439.227 101 439.051 101H436.987C436.651 101 436.483 100.832 436.483 100.496ZM444.837 101H442.797C442.461 101 442.293 100.832 442.293 100.496V89.264C442.293 88.928 442.461 88.76 442.797 88.76H444.837C445.173 88.76 445.341 88.928 445.341 89.264V90.056H445.437C445.789 89.192 446.573 88.76 447.789 88.76H448.557C451.069 88.76 452.325 90.064 452.325 92.672V100.496C452.325 100.832 452.149 101 451.797 101H449.781C449.445 101 449.277 100.832 449.277 100.496V92.816C449.277 92.304 449.165 91.944 448.941 91.736C448.733 91.512 448.373 91.4 447.861 91.4H446.997C445.893 91.4 445.341 92.008 445.341 93.224V100.496C445.341 100.832 445.173 101 444.837 101ZM463.879 101H458.575C457.311 101 456.335 100.664 455.647 99.992C454.959 99.32 454.615 98.352 454.615 97.088V92.672C454.615 91.408 454.959 90.44 455.647 89.768C456.335 89.096 457.311 88.76 458.575 88.76H460.471C461.735 88.76 462.711 89.096 463.399 89.768C464.087 90.44 464.431 91.408 464.431 92.672V95.72C464.431 96.056 464.263 96.224 463.927 96.224H457.903C457.711 96.224 457.615 96.312 457.615 96.488V97.016C457.615 97.512 457.719 97.872 457.927 98.096C458.151 98.304 458.519 98.408 459.031 98.408H463.879C464.215 98.408 464.383 98.584 464.383 98.936V100.52C464.383 100.696 464.343 100.824 464.263 100.904C464.199 100.968 464.071 101 463.879 101ZM457.903 94.184H461.167C461.343 94.184 461.431 94.096 461.431 93.92V92.768C461.431 92.256 461.327 91.896 461.119 91.688C460.911 91.48 460.551 91.376 460.039 91.376H459.031C458.519 91.376 458.159 91.48 457.951 91.688C457.743 91.896 457.639 92.256 457.639 92.768V93.92C457.639 94.096 457.727 94.184 457.903 94.184ZM471.844 97.064V96.584C471.844 96.248 472.012 96.08 472.348 96.08H474.388C474.724 96.08 474.892 96.248 474.892 96.584V96.776C474.892 97.384 475.012 97.8 475.252 98.024C475.492 98.248 475.932 98.36 476.572 98.36H477.7C478.324 98.36 478.756 98.24 478.996 98C479.252 97.76 479.38 97.312 479.38 96.656V96.368C479.38 95.904 479.188 95.552 478.804 95.312C478.436 95.056 477.972 94.904 477.412 94.856C476.852 94.808 476.244 94.72 475.588 94.592C474.948 94.448 474.348 94.272 473.788 94.064C473.228 93.84 472.756 93.416 472.372 92.792C472.004 92.152 471.82 91.336 471.82 90.344V89.504C471.82 88.256 472.172 87.288 472.876 86.6C473.58 85.912 474.556 85.568 475.804 85.568H478.204C479.468 85.568 480.452 85.912 481.156 86.6C481.86 87.288 482.212 88.256 482.212 89.504V89.96C482.212 90.296 482.044 90.464 481.708 90.464H479.668C479.332 90.464 479.164 90.296 479.164 89.96V89.816C479.164 89.192 479.044 88.768 478.804 88.544C478.564 88.32 478.124 88.208 477.484 88.208H476.548C475.892 88.208 475.444 88.336 475.204 88.592C474.98 88.832 474.868 89.312 474.868 90.032V90.488C474.868 91.24 475.524 91.672 476.836 91.784C478.196 91.896 479.404 92.168 480.46 92.6C481.02 92.84 481.484 93.272 481.852 93.896C482.236 94.504 482.428 95.288 482.428 96.248V97.064C482.428 98.312 482.076 99.28 481.372 99.968C480.668 100.656 479.692 101 478.444 101H475.828C474.58 101 473.604 100.656 472.9 99.968C472.196 99.28 471.844 98.312 471.844 97.064ZM487.469 101H485.429C485.093 101 484.925 100.832 484.925 100.496V84.632C484.925 84.296 485.093 84.128 485.429 84.128H487.469C487.805 84.128 487.973 84.296 487.973 84.632V90.056H488.069C488.421 89.192 489.205 88.76 490.421 88.76H491.189C493.701 88.76 494.957 90.064 494.957 92.672V100.496C494.957 100.832 494.781 101 494.429 101H492.413C492.077 101 491.909 100.832 491.909 100.496V92.816C491.909 92.304 491.797 91.944 491.573 91.736C491.365 91.512 491.005 91.4 490.493 91.4H489.629C488.525 91.4 487.973 92.008 487.973 93.224V100.496C487.973 100.832 487.805 101 487.469 101ZM503.344 101H501.208C499.944 101 498.968 100.664 498.28 99.992C497.592 99.32 497.248 98.352 497.248 97.088V92.672C497.248 91.408 497.592 90.44 498.28 89.768C498.968 89.096 499.944 88.76 501.208 88.76H503.344C504.592 88.76 505.56 89.104 506.248 89.792C506.952 90.464 507.304 91.424 507.304 92.672V97.088C507.304 98.336 506.952 99.304 506.248 99.992C505.56 100.664 504.592 101 503.344 101ZM501.664 98.384H502.888C503.4 98.384 503.76 98.28 503.968 98.072C504.192 97.864 504.304 97.504 504.304 96.992V92.768C504.304 92.256 504.192 91.896 503.968 91.688C503.76 91.48 503.4 91.376 502.888 91.376H501.664C501.152 91.376 500.792 91.48 500.584 91.688C500.376 91.896 500.272 92.256 500.272 92.768V96.992C500.272 97.504 500.376 97.864 500.584 98.072C500.792 98.28 501.152 98.384 501.664 98.384ZM512.243 104.264H510.203C509.867 104.264 509.699 104.104 509.699 103.784V89.264C509.699 88.928 509.867 88.76 510.203 88.76H512.243C512.579 88.76 512.747 88.928 512.747 89.264V90.056H512.843C513.019 89.624 513.331 89.304 513.779 89.096C514.227 88.872 514.699 88.76 515.195 88.76H516.179C517.411 88.76 518.339 89.096 518.963 89.768C519.603 90.44 519.923 91.408 519.923 92.672V97.088C519.923 98.352 519.603 99.32 518.963 99.992C518.339 100.664 517.411 101 516.179 101H515.195C514.699 101 514.227 100.896 513.779 100.688C513.331 100.464 513.019 100.136 512.843 99.704H512.747V103.784C512.747 104.104 512.579 104.264 512.243 104.264ZM514.403 98.36H515.459C515.971 98.36 516.331 98.256 516.539 98.048C516.763 97.824 516.875 97.456 516.875 96.944V92.816C516.875 92.304 516.763 91.944 516.539 91.736C516.331 91.512 515.971 91.4 515.459 91.4H514.403C513.299 91.4 512.747 92.008 512.747 93.224V96.536C512.747 97.752 513.299 98.36 514.403 98.36ZM530.389 101H528.349C528.013 101 527.845 100.832 527.845 100.496V86.072C527.845 85.736 528.013 85.568 528.349 85.568H536.005C536.325 85.568 536.485 85.736 536.485 86.072V87.704C536.485 88.04 536.325 88.208 536.005 88.208H531.181C530.989 88.208 530.893 88.296 530.893 88.472V92.192C530.893 92.384 530.989 92.48 531.181 92.48H535.285C535.621 92.48 535.789 92.648 535.789 92.984V94.592C535.789 94.944 535.621 95.12 535.285 95.12H531.181C530.989 95.12 530.893 95.208 530.893 95.384V100.496C530.893 100.832 530.725 101 530.389 101ZM540.954 101H538.914C538.578 101 538.41 100.832 538.41 100.496V89.264C538.41 88.928 538.578 88.76 538.914 88.76H540.954C541.29 88.76 541.458 88.928 541.458 89.264V90.08H541.554C541.73 89.648 542.042 89.32 542.49 89.096C542.938 88.872 543.41 88.76 543.906 88.76H544.77C545.09 88.76 545.25 88.928 545.25 89.264V90.92C545.25 91.112 545.21 91.248 545.13 91.328C545.066 91.392 544.946 91.416 544.77 91.4H543.114C542.01 91.4 541.458 92.024 541.458 93.272V100.496C541.458 100.832 541.29 101 540.954 101ZM552.633 101H550.497C549.233 101 548.257 100.664 547.569 99.992C546.881 99.32 546.537 98.352 546.537 97.088V92.672C546.537 91.408 546.881 90.44 547.569 89.768C548.257 89.096 549.233 88.76 550.497 88.76H552.633C553.881 88.76 554.849 89.104 555.537 89.792C556.241 90.464 556.593 91.424 556.593 92.672V97.088C556.593 98.336 556.241 99.304 555.537 99.992C554.849 100.664 553.881 101 552.633 101ZM550.953 98.384H552.177C552.689 98.384 553.049 98.28 553.257 98.072C553.481 97.864 553.593 97.504 553.593 96.992V92.768C553.593 92.256 553.481 91.896 553.257 91.688C553.049 91.48 552.689 91.376 552.177 91.376H550.953C550.441 91.376 550.081 91.48 549.873 91.688C549.665 91.896 549.561 92.256 549.561 92.768V96.992C549.561 97.504 549.665 97.864 549.873 98.072C550.081 98.28 550.441 98.384 550.953 98.384ZM561.532 101H559.492C559.156 101 558.988 100.832 558.988 100.496V89.264C558.988 88.928 559.156 88.76 559.492 88.76H561.532C561.868 88.76 562.036 88.928 562.036 89.264V90.056H562.132C562.484 89.192 563.268 88.76 564.484 88.76H565.252C567.764 88.76 569.02 90.064 569.02 92.672V100.496C569.02 100.832 568.844 101 568.492 101H566.476C566.14 101 565.972 100.832 565.972 100.496V92.816C565.972 92.304 565.86 91.944 565.636 91.736C565.428 91.512 565.068 91.4 564.556 91.4H563.692C562.588 91.4 562.036 92.008 562.036 93.224V100.496C562.036 100.832 561.868 101 561.532 101ZM571.814 91.4H570.854C570.662 91.4 570.526 91.368 570.446 91.304C570.382 91.24 570.35 91.112 570.35 90.92V89.264C570.35 88.928 570.518 88.76 570.854 88.76H571.814C571.99 88.76 572.078 88.672 572.078 88.496V86.216C572.078 85.88 572.254 85.712 572.606 85.712H574.622C574.958 85.712 575.126 85.88 575.126 86.216V88.496C575.126 88.672 575.222 88.76 575.414 88.76H577.286C577.622 88.76 577.79 88.928 577.79 89.264V90.92C577.79 91.096 577.75 91.224 577.67 91.304C577.606 91.368 577.478 91.4 577.286 91.4H575.414C575.222 91.4 575.126 91.488 575.126 91.664V96.968C575.126 97.464 575.238 97.824 575.462 98.048C575.686 98.256 576.054 98.36 576.566 98.36H577.526C577.862 98.36 578.03 98.528 578.03 98.864V100.52C578.03 100.696 577.99 100.824 577.91 100.904C577.846 100.968 577.718 101 577.526 101H576.062C574.798 101 573.814 100.664 573.11 99.992C572.422 99.32 572.078 98.36 572.078 97.112V91.664C572.078 91.488 571.99 91.4 571.814 91.4ZM414.971 122.4H414.011C413.819 122.4 413.683 122.368 413.603 122.304C413.539 122.24 413.507 122.112 413.507 121.92V120.264C413.507 119.928 413.675 119.76 414.011 119.76H414.971C415.147 119.76 415.235 119.672 415.235 119.496V117.216C415.235 116.88 415.411 116.712 415.763 116.712H417.779C418.115 116.712 418.283 116.88 418.283 117.216V119.496C418.283 119.672 418.379 119.76 418.571 119.76H420.443C420.779 119.76 420.947 119.928 420.947 120.264V121.92C420.947 122.096 420.907 122.224 420.827 122.304C420.763 122.368 420.635 122.4 420.443 122.4H418.571C418.379 122.4 418.283 122.488 418.283 122.664V127.968C418.283 128.464 418.395 128.824 418.619 129.048C418.843 129.256 419.211 129.36 419.723 129.36H420.683C421.019 129.36 421.187 129.528 421.187 129.864V131.52C421.187 131.696 421.147 131.824 421.067 131.904C421.003 131.968 420.875 132 420.683 132H419.219C417.955 132 416.971 131.664 416.267 130.992C415.579 130.32 415.235 129.36 415.235 128.112V122.664C415.235 122.488 415.147 122.4 414.971 122.4ZM429.024 132H426.888C425.624 132 424.648 131.664 423.96 130.992C423.272 130.32 422.928 129.352 422.928 128.088V123.672C422.928 122.408 423.272 121.44 423.96 120.768C424.648 120.096 425.624 119.76 426.888 119.76H429.024C430.272 119.76 431.24 120.104 431.928 120.792C432.632 121.464 432.984 122.424 432.984 123.672V128.088C432.984 129.336 432.632 130.304 431.928 130.992C431.24 131.664 430.272 132 429.024 132ZM427.344 129.384H428.568C429.08 129.384 429.44 129.28 429.648 129.072C429.872 128.864 429.984 128.504 429.984 127.992V123.768C429.984 123.256 429.872 122.896 429.648 122.688C429.44 122.48 429.08 122.376 428.568 122.376H427.344C426.832 122.376 426.472 122.48 426.264 122.688C426.056 122.896 425.952 123.256 425.952 123.768V127.992C425.952 128.504 426.056 128.864 426.264 129.072C426.472 129.28 426.832 129.384 427.344 129.384ZM440.508 128.064V127.584C440.508 127.248 440.676 127.08 441.012 127.08H443.052C443.388 127.08 443.556 127.248 443.556 127.584V127.776C443.556 128.384 443.676 128.8 443.916 129.024C444.156 129.248 444.596 129.36 445.236 129.36H446.364C446.988 129.36 447.42 129.24 447.66 129C447.916 128.76 448.044 128.312 448.044 127.656V127.368C448.044 126.904 447.852 126.552 447.468 126.312C447.1 126.056 446.636 125.904 446.076 125.856C445.516 125.808 444.908 125.72 444.252 125.592C443.612 125.448 443.012 125.272 442.452 125.064C441.892 124.84 441.42 124.416 441.036 123.792C440.668 123.152 440.484 122.336 440.484 121.344V120.504C440.484 119.256 440.836 118.288 441.54 117.6C442.244 116.912 443.22 116.568 444.468 116.568H446.868C448.132 116.568 449.116 116.912 449.82 117.6C450.524 118.288 450.876 119.256 450.876 120.504V120.96C450.876 121.296 450.708 121.464 450.372 121.464H448.332C447.996 121.464 447.828 121.296 447.828 120.96V120.816C447.828 120.192 447.708 119.768 447.468 119.544C447.228 119.32 446.788 119.208 446.148 119.208H445.212C444.556 119.208 444.108 119.336 443.868 119.592C443.644 119.832 443.532 120.312 443.532 121.032V121.488C443.532 122.24 444.188 122.672 445.5 122.784C446.86 122.896 448.068 123.168 449.124 123.6C449.684 123.84 450.148 124.272 450.516 124.896C450.9 125.504 451.092 126.288 451.092 127.248V128.064C451.092 129.312 450.74 130.28 450.036 130.968C449.332 131.656 448.356 132 447.108 132H444.492C443.244 132 442.268 131.656 441.564 130.968C440.86 130.28 440.508 129.312 440.508 128.064ZM462.614 132H457.31C456.046 132 455.07 131.664 454.382 130.992C453.694 130.32 453.35 129.352 453.35 128.088V123.672C453.35 122.408 453.694 121.44 454.382 120.768C455.07 120.096 456.046 119.76 457.31 119.76H459.206C460.47 119.76 461.446 120.096 462.134 120.768C462.822 121.44 463.166 122.408 463.166 123.672V126.72C463.166 127.056 462.998 127.224 462.662 127.224H456.638C456.446 127.224 456.35 127.312 456.35 127.488V128.016C456.35 128.512 456.454 128.872 456.662 129.096C456.886 129.304 457.254 129.408 457.766 129.408H462.614C462.95 129.408 463.118 129.584 463.118 129.936V131.52C463.118 131.696 463.078 131.824 462.998 131.904C462.934 131.968 462.806 132 462.614 132ZM456.638 125.184H459.902C460.078 125.184 460.166 125.096 460.166 124.92V123.768C460.166 123.256 460.062 122.896 459.854 122.688C459.646 122.48 459.286 122.376 458.774 122.376H457.766C457.254 122.376 456.894 122.48 456.686 122.688C456.478 122.896 456.374 123.256 456.374 123.768V124.92C456.374 125.096 456.462 125.184 456.638 125.184ZM468.113 132H466.073C465.737 132 465.569 131.832 465.569 131.496V115.632C465.569 115.296 465.737 115.128 466.073 115.128H468.113C468.449 115.128 468.617 115.296 468.617 115.632V131.496C468.617 131.832 468.449 132 468.113 132ZM474.043 132H472.003C471.667 132 471.499 131.832 471.499 131.496V115.632C471.499 115.296 471.667 115.128 472.003 115.128H474.043C474.379 115.128 474.547 115.296 474.547 115.632V131.496C474.547 131.832 474.379 132 474.043 132ZM485.366 132H483.326C482.99 132 482.822 131.832 482.822 131.496V117.072C482.822 116.736 482.99 116.568 483.326 116.568H489.182C490.43 116.568 491.398 116.912 492.086 117.6C492.774 118.272 493.118 119.232 493.118 120.48V122.784C493.118 124.032 492.774 125 492.086 125.688C491.398 126.36 490.43 126.696 489.182 126.696H486.158C485.966 126.696 485.87 126.784 485.87 126.96V131.496C485.87 131.832 485.702 132 485.366 132ZM486.134 124.032H488.678C489.19 124.032 489.55 123.928 489.758 123.72C489.966 123.496 490.07 123.136 490.07 122.64V120.624C490.07 120.112 489.966 119.752 489.758 119.544C489.55 119.32 489.19 119.208 488.678 119.208H486.134C485.958 119.208 485.87 119.296 485.87 119.472V123.768C485.87 123.944 485.958 124.032 486.134 124.032ZM497.852 132H495.812C495.476 132 495.308 131.832 495.308 131.496V120.264C495.308 119.928 495.476 119.76 495.812 119.76H497.852C498.188 119.76 498.356 119.928 498.356 120.264V121.08H498.452C498.628 120.648 498.94 120.32 499.388 120.096C499.836 119.872 500.308 119.76 500.804 119.76H501.668C501.988 119.76 502.148 119.928 502.148 120.264V121.92C502.148 122.112 502.108 122.248 502.028 122.328C501.964 122.392 501.844 122.416 501.668 122.4H500.012C498.908 122.4 498.356 123.024 498.356 124.272V131.496C498.356 131.832 498.188 132 497.852 132ZM509.531 132H507.395C506.131 132 505.155 131.664 504.467 130.992C503.779 130.32 503.435 129.352 503.435 128.088V123.672C503.435 122.408 503.779 121.44 504.467 120.768C505.155 120.096 506.131 119.76 507.395 119.76H509.531C510.779 119.76 511.747 120.104 512.435 120.792C513.139 121.464 513.491 122.424 513.491 123.672V128.088C513.491 129.336 513.139 130.304 512.435 130.992C511.747 131.664 510.779 132 509.531 132ZM507.851 129.384H509.075C509.587 129.384 509.947 129.28 510.155 129.072C510.379 128.864 510.491 128.504 510.491 127.992V123.768C510.491 123.256 510.379 122.896 510.155 122.688C509.947 122.48 509.587 122.376 509.075 122.376H507.851C507.339 122.376 506.979 122.48 506.771 122.688C506.563 122.896 506.459 123.256 506.459 123.768V127.992C506.459 128.504 506.563 128.864 506.771 129.072C506.979 129.28 507.339 129.384 507.851 129.384ZM520.374 132H519.39C518.158 132 517.222 131.664 516.582 130.992C515.958 130.32 515.646 129.352 515.646 128.088V123.672C515.646 122.408 515.958 121.44 516.582 120.768C517.222 120.096 518.158 119.76 519.39 119.76H520.374C520.87 119.76 521.342 119.872 521.79 120.096C522.238 120.304 522.55 120.624 522.726 121.056H522.822V115.632C522.822 115.296 522.99 115.128 523.326 115.128H525.366C525.702 115.128 525.87 115.296 525.87 115.632V131.496C525.87 131.832 525.702 132 525.366 132H523.326C522.99 132 522.822 131.832 522.822 131.496V130.704H522.726C522.55 131.136 522.238 131.464 521.79 131.688C521.342 131.896 520.87 132 520.374 132ZM522.822 127.536V124.224C522.822 123.008 522.27 122.4 521.166 122.4H520.086C519.574 122.4 519.214 122.512 519.006 122.736C518.798 122.944 518.694 123.304 518.694 123.816V127.944C518.694 128.456 518.798 128.824 519.006 129.048C519.214 129.256 519.574 129.36 520.086 129.36H521.166C522.27 129.36 522.822 128.752 522.822 127.536ZM532.935 132H532.143C530.911 132 529.975 131.664 529.335 130.992C528.711 130.32 528.399 129.352 528.399 128.088V120.264C528.399 119.928 528.567 119.76 528.903 119.76H530.943C531.279 119.76 531.447 119.928 531.447 120.264V127.944C531.447 128.456 531.551 128.824 531.759 129.048C531.983 129.256 532.343 129.36 532.839 129.36H533.727C534.831 129.36 535.383 128.752 535.383 127.536V120.264C535.383 119.928 535.551 119.76 535.887 119.76H537.903C538.255 119.76 538.431 119.928 538.431 120.264V131.496C538.431 131.832 538.255 132 537.903 132H535.887C535.551 132 535.383 131.832 535.383 131.496V130.704H535.287C535.111 131.136 534.799 131.464 534.351 131.688C533.903 131.896 533.431 132 532.935 132ZM548.882 129.864V131.52C548.882 131.696 548.842 131.824 548.762 131.904C548.698 131.968 548.57 132 548.378 132H544.802C543.538 132 542.562 131.664 541.874 130.992C541.186 130.32 540.842 129.352 540.842 128.088V123.672C540.842 122.408 541.186 121.44 541.874 120.768C542.562 120.096 543.538 119.76 544.802 119.76H548.378C548.714 119.76 548.882 119.928 548.882 120.264V121.92C548.882 122.096 548.842 122.224 548.762 122.304C548.698 122.368 548.57 122.4 548.378 122.4H545.282C544.786 122.4 544.426 122.512 544.202 122.736C543.994 122.944 543.89 123.304 543.89 123.816V127.944C543.89 128.456 543.994 128.824 544.202 129.048C544.426 129.256 544.786 129.36 545.282 129.36H548.378C548.714 129.36 548.882 129.528 548.882 129.864ZM551.213 122.4H550.253C550.061 122.4 549.925 122.368 549.845 122.304C549.781 122.24 549.749 122.112 549.749 121.92V120.264C549.749 119.928 549.917 119.76 550.253 119.76H551.213C551.389 119.76 551.477 119.672 551.477 119.496V117.216C551.477 116.88 551.653 116.712 552.005 116.712H554.021C554.357 116.712 554.525 116.88 554.525 117.216V119.496C554.525 119.672 554.621 119.76 554.813 119.76H556.685C557.021 119.76 557.189 119.928 557.189 120.264V121.92C557.189 122.096 557.149 122.224 557.069 122.304C557.005 122.368 556.877 122.4 556.685 122.4H554.813C554.621 122.4 554.525 122.488 554.525 122.664V127.968C554.525 128.464 554.637 128.824 554.861 129.048C555.085 129.256 555.453 129.36 555.965 129.36H556.925C557.261 129.36 557.429 129.528 557.429 129.864V131.52C557.429 131.696 557.389 131.824 557.309 131.904C557.245 131.968 557.117 132 556.925 132H555.461C554.197 132 553.213 131.664 552.509 130.992C551.821 130.32 551.477 129.36 551.477 128.112V122.664C551.477 122.488 551.389 122.4 551.213 122.4ZM564.042 132H559.482C559.162 132 559.002 131.832 559.002 131.496V129.96C559.002 129.784 559.034 129.664 559.098 129.6C559.162 129.52 559.29 129.48 559.482 129.48H563.49C564.274 129.48 564.666 129.24 564.666 128.76V128.64C564.666 128.256 564.338 127.888 563.682 127.536L561.306 126.216C560.49 125.8 559.89 125.352 559.506 124.872C559.122 124.392 558.93 123.776 558.93 123.024C558.93 121.904 559.226 121.08 559.818 120.552C560.41 120.024 561.338 119.76 562.602 119.76H566.61C566.93 119.76 567.09 119.928 567.09 120.264V121.824C567.09 122 567.058 122.128 566.994 122.208C566.93 122.272 566.802 122.304 566.61 122.304H563.274C562.49 122.304 562.098 122.504 562.098 122.904V123.024C562.098 123.376 562.442 123.736 563.13 124.104L565.554 125.544C566.386 125.992 566.97 126.456 567.306 126.936C567.642 127.4 567.81 128.016 567.81 128.784C567.81 130.928 566.554 132 564.042 132Z" fill="black"/>
<rect y="220.836" width="328.329" height="219.163" fill="#F1F1F1"/>
<path d="M129.69 320H127.65C127.314 320 127.146 319.832 127.146 319.496V305.072C127.146 304.736 127.314 304.568 127.65 304.568H133.506C134.754 304.568 135.722 304.912 136.41 305.6C137.098 306.272 137.442 307.232 137.442 308.48V310.784C137.442 312.032 137.098 313 136.41 313.688C135.722 314.36 134.754 314.696 133.506 314.696H130.482C130.29 314.696 130.194 314.784 130.194 314.96V319.496C130.194 319.832 130.026 320 129.69 320ZM130.458 312.032H133.002C133.514 312.032 133.874 311.928 134.082 311.72C134.29 311.496 134.394 311.136 134.394 310.64V308.624C134.394 308.112 134.29 307.752 134.082 307.544C133.874 307.32 133.514 307.208 133.002 307.208H130.458C130.282 307.208 130.194 307.296 130.194 307.472V311.768C130.194 311.944 130.282 312.032 130.458 312.032ZM142.177 320H140.137C139.801 320 139.633 319.832 139.633 319.496V308.264C139.633 307.928 139.801 307.76 140.137 307.76H142.177C142.513 307.76 142.681 307.928 142.681 308.264V309.08H142.777C142.953 308.648 143.265 308.32 143.713 308.096C144.161 307.872 144.633 307.76 145.129 307.76H145.993C146.313 307.76 146.473 307.928 146.473 308.264V309.92C146.473 310.112 146.433 310.248 146.353 310.328C146.289 310.392 146.169 310.416 145.993 310.4H144.337C143.233 310.4 142.681 311.024 142.681 312.272V319.496C142.681 319.832 142.513 320 142.177 320ZM153.856 320H151.72C150.456 320 149.48 319.664 148.792 318.992C148.104 318.32 147.76 317.352 147.76 316.088V311.672C147.76 310.408 148.104 309.44 148.792 308.768C149.48 308.096 150.456 307.76 151.72 307.76H153.856C155.104 307.76 156.072 308.104 156.76 308.792C157.464 309.464 157.816 310.424 157.816 311.672V316.088C157.816 317.336 157.464 318.304 156.76 318.992C156.072 319.664 155.104 320 153.856 320ZM152.176 317.384H153.4C153.912 317.384 154.272 317.28 154.48 317.072C154.704 316.864 154.816 316.504 154.816 315.992V311.768C154.816 311.256 154.704 310.896 154.48 310.688C154.272 310.48 153.912 310.376 153.4 310.376H152.176C151.664 310.376 151.304 310.48 151.096 310.688C150.888 310.896 150.784 311.256 150.784 311.768V315.992C150.784 316.504 150.888 316.864 151.096 317.072C151.304 317.28 151.664 317.384 152.176 317.384ZM164.699 320H163.715C162.483 320 161.547 319.664 160.907 318.992C160.283 318.32 159.971 317.352 159.971 316.088V311.672C159.971 310.408 160.283 309.44 160.907 308.768C161.547 308.096 162.483 307.76 163.715 307.76H164.699C165.195 307.76 165.667 307.872 166.115 308.096C166.563 308.304 166.875 308.624 167.051 309.056H167.147V303.632C167.147 303.296 167.315 303.128 167.651 303.128H169.691C170.027 303.128 170.195 303.296 170.195 303.632V319.496C170.195 319.832 170.027 320 169.691 320H167.651C167.315 320 167.147 319.832 167.147 319.496V318.704H167.051C166.875 319.136 166.563 319.464 166.115 319.688C165.667 319.896 165.195 320 164.699 320ZM167.147 315.536V312.224C167.147 311.008 166.595 310.4 165.491 310.4H164.411C163.899 310.4 163.539 310.512 163.331 310.736C163.123 310.944 163.019 311.304 163.019 311.816V315.944C163.019 316.456 163.123 316.824 163.331 317.048C163.539 317.256 163.899 317.36 164.411 317.36H165.491C166.595 317.36 167.147 316.752 167.147 315.536ZM177.259 320H176.467C175.235 320 174.299 319.664 173.659 318.992C173.035 318.32 172.723 317.352 172.723 316.088V308.264C172.723 307.928 172.891 307.76 173.227 307.76H175.267C175.603 307.76 175.771 307.928 175.771 308.264V315.944C175.771 316.456 175.875 316.824 176.083 317.048C176.307 317.256 176.667 317.36 177.163 317.36H178.051C179.155 317.36 179.707 316.752 179.707 315.536V308.264C179.707 307.928 179.875 307.76 180.211 307.76H182.227C182.579 307.76 182.755 307.928 182.755 308.264V319.496C182.755 319.832 182.579 320 182.227 320H180.211C179.875 320 179.707 319.832 179.707 319.496V318.704H179.611C179.435 319.136 179.123 319.464 178.675 319.688C178.227 319.896 177.755 320 177.259 320ZM193.206 317.864V319.52C193.206 319.696 193.166 319.824 193.086 319.904C193.022 319.968 192.894 320 192.702 320H189.126C187.862 320 186.886 319.664 186.198 318.992C185.51 318.32 185.166 317.352 185.166 316.088V311.672C185.166 310.408 185.51 309.44 186.198 308.768C186.886 308.096 187.862 307.76 189.126 307.76H192.702C193.038 307.76 193.206 307.928 193.206 308.264V309.92C193.206 310.096 193.166 310.224 193.086 310.304C193.022 310.368 192.894 310.4 192.702 310.4H189.606C189.11 310.4 188.75 310.512 188.526 310.736C188.318 310.944 188.214 311.304 188.214 311.816V315.944C188.214 316.456 188.318 316.824 188.526 317.048C188.75 317.256 189.11 317.36 189.606 317.36H192.702C193.038 317.36 193.206 317.528 193.206 317.864ZM195.537 310.4H194.577C194.385 310.4 194.249 310.368 194.169 310.304C194.105 310.24 194.073 310.112 194.073 309.92V308.264C194.073 307.928 194.241 307.76 194.577 307.76H195.537C195.713 307.76 195.801 307.672 195.801 307.496V305.216C195.801 304.88 195.977 304.712 196.329 304.712H198.345C198.681 304.712 198.849 304.88 198.849 305.216V307.496C198.849 307.672 198.945 307.76 199.137 307.76H201.009C201.345 307.76 201.513 307.928 201.513 308.264V309.92C201.513 310.096 201.473 310.224 201.393 310.304C201.329 310.368 201.201 310.4 201.009 310.4H199.137C198.945 310.4 198.849 310.488 198.849 310.664V315.968C198.849 316.464 198.961 316.824 199.185 317.048C199.409 317.256 199.777 317.36 200.289 317.36H201.249C201.585 317.36 201.753 317.528 201.753 317.864V319.52C201.753 319.696 201.713 319.824 201.633 319.904C201.569 319.968 201.441 320 201.249 320H199.785C198.521 320 197.537 319.664 196.833 318.992C196.145 318.32 195.801 317.36 195.801 316.112V310.664C195.801 310.488 195.713 310.4 195.537 310.4ZM93.5625 351H91.2585C90.9705 351 90.8745 350.832 90.9705 350.496L94.7625 336.072C94.8745 335.736 95.1145 335.568 95.4825 335.568H98.6745C99.0745 335.568 99.3145 335.736 99.3945 336.072L103.187 350.496C103.283 350.832 103.187 351 102.899 351H100.595C100.419 351 100.299 350.968 100.235 350.904C100.171 350.824 100.123 350.688 100.091 350.496L99.4185 347.856H94.7385L94.0665 350.496C94.0345 350.688 93.9785 350.824 93.8985 350.904C93.8345 350.968 93.7225 351 93.5625 351ZM97.0425 338.472L95.3145 345.408H98.8665L97.1385 338.472H97.0425ZM109.49 351H108.698C107.466 351 106.53 350.664 105.89 349.992C105.266 349.32 104.954 348.352 104.954 347.088V339.264C104.954 338.928 105.122 338.76 105.458 338.76H107.498C107.834 338.76 108.002 338.928 108.002 339.264V346.944C108.002 347.456 108.106 347.824 108.314 348.048C108.538 348.256 108.898 348.36 109.394 348.36H110.282C111.386 348.36 111.938 347.752 111.938 346.536V339.264C111.938 338.928 112.106 338.76 112.442 338.76H114.458C114.81 338.76 114.986 338.928 114.986 339.264V350.496C114.986 350.832 114.81 351 114.458 351H112.442C112.106 351 111.938 350.832 111.938 350.496V349.704H111.842C111.666 350.136 111.354 350.464 110.906 350.688C110.458 350.896 109.986 351 109.49 351ZM117.9 341.4H116.94C116.748 341.4 116.612 341.368 116.532 341.304C116.468 341.24 116.436 341.112 116.436 340.92V339.264C116.436 338.928 116.604 338.76 116.94 338.76H117.9C118.076 338.76 118.164 338.672 118.164 338.496V336.216C118.164 335.88 118.34 335.712 118.692 335.712H120.708C121.044 335.712 121.212 335.88 121.212 336.216V338.496C121.212 338.672 121.308 338.76 121.5 338.76H123.372C123.708 338.76 123.876 338.928 123.876 339.264V340.92C123.876 341.096 123.836 341.224 123.756 341.304C123.692 341.368 123.564 341.4 123.372 341.4H121.5C121.308 341.4 121.212 341.488 121.212 341.664V346.968C121.212 347.464 121.324 347.824 121.548 348.048C121.772 348.256 122.14 348.36 122.652 348.36H123.612C123.948 348.36 124.116 348.528 124.116 348.864V350.52C124.116 350.696 124.076 350.824 123.996 350.904C123.932 350.968 123.804 351 123.612 351H122.148C120.884 351 119.9 350.664 119.196 349.992C118.508 349.32 118.164 348.36 118.164 347.112V341.664C118.164 341.488 118.076 341.4 117.9 341.4ZM128.641 351H126.601C126.265 351 126.097 350.832 126.097 350.496V334.632C126.097 334.296 126.265 334.128 126.601 334.128H128.641C128.977 334.128 129.145 334.296 129.145 334.632V340.056H129.241C129.593 339.192 130.377 338.76 131.593 338.76H132.361C134.873 338.76 136.129 340.064 136.129 342.672V350.496C136.129 350.832 135.953 351 135.601 351H133.585C133.249 351 133.081 350.832 133.081 350.496V342.816C133.081 342.304 132.969 341.944 132.745 341.736C132.537 341.512 132.177 341.4 131.665 341.4H130.801C129.697 341.4 129.145 342.008 129.145 343.224V350.496C129.145 350.832 128.977 351 128.641 351ZM147.684 351H142.38C141.116 351 140.14 350.664 139.452 349.992C138.764 349.32 138.42 348.352 138.42 347.088V342.672C138.42 341.408 138.764 340.44 139.452 339.768C140.14 339.096 141.116 338.76 142.38 338.76H144.276C145.54 338.76 146.516 339.096 147.204 339.768C147.892 340.44 148.236 341.408 148.236 342.672V345.72C148.236 346.056 148.068 346.224 147.732 346.224H141.708C141.516 346.224 141.42 346.312 141.42 346.488V347.016C141.42 347.512 141.524 347.872 141.732 348.096C141.956 348.304 142.324 348.408 142.836 348.408H147.684C148.02 348.408 148.188 348.584 148.188 348.936V350.52C148.188 350.696 148.148 350.824 148.068 350.904C148.004 350.968 147.876 351 147.684 351ZM141.708 344.184H144.972C145.148 344.184 145.236 344.096 145.236 343.92V342.768C145.236 342.256 145.132 341.896 144.924 341.688C144.716 341.48 144.356 341.376 143.844 341.376H142.836C142.324 341.376 141.964 341.48 141.756 341.688C141.548 341.896 141.444 342.256 141.444 342.768V343.92C141.444 344.096 141.532 344.184 141.708 344.184ZM153.063 351H151.023C150.687 351 150.519 350.832 150.519 350.496V339.264C150.519 338.928 150.687 338.76 151.023 338.76H153.063C153.399 338.76 153.567 338.928 153.567 339.264V340.056H153.663C154.015 339.192 154.799 338.76 156.015 338.76H156.783C159.295 338.76 160.551 340.064 160.551 342.672V350.496C160.551 350.832 160.375 351 160.023 351H158.007C157.671 351 157.503 350.832 157.503 350.496V342.816C157.503 342.304 157.391 341.944 157.167 341.736C156.959 341.512 156.599 341.4 156.087 341.4H155.223C154.119 341.4 153.567 342.008 153.567 343.224V350.496C153.567 350.832 153.399 351 153.063 351ZM163.346 341.4H162.386C162.194 341.4 162.058 341.368 161.978 341.304C161.914 341.24 161.882 341.112 161.882 340.92V339.264C161.882 338.928 162.05 338.76 162.386 338.76H163.346C163.522 338.76 163.61 338.672 163.61 338.496V336.216C163.61 335.88 163.786 335.712 164.138 335.712H166.154C166.49 335.712 166.658 335.88 166.658 336.216V338.496C166.658 338.672 166.754 338.76 166.946 338.76H168.818C169.154 338.76 169.322 338.928 169.322 339.264V340.92C169.322 341.096 169.282 341.224 169.202 341.304C169.138 341.368 169.01 341.4 168.818 341.4H166.946C166.754 341.4 166.658 341.488 166.658 341.664V346.968C166.658 347.464 166.77 347.824 166.994 348.048C167.218 348.256 167.586 348.36 168.098 348.36H169.058C169.394 348.36 169.562 348.528 169.562 348.864V350.52C169.562 350.696 169.522 350.824 169.442 350.904C169.378 350.968 169.25 351 169.058 351H167.594C166.33 351 165.346 350.664 164.642 349.992C163.954 349.32 163.61 348.36 163.61 347.112V341.664C163.61 341.488 163.522 341.4 163.346 341.4ZM171.663 336.696V334.608C171.663 334.288 171.823 334.128 172.143 334.128H174.231C174.551 334.128 174.711 334.28 174.711 334.584V336.696C174.711 337.016 174.551 337.176 174.231 337.176H172.143C171.823 337.176 171.663 337.016 171.663 336.696ZM171.663 350.496V339.264C171.663 338.928 171.823 338.76 172.143 338.76H174.207C174.543 338.76 174.711 338.928 174.711 339.264V350.496C174.711 350.704 174.671 350.84 174.591 350.904C174.527 350.968 174.407 351 174.231 351H172.167C171.831 351 171.663 350.832 171.663 350.496ZM185.272 348.864V350.52C185.272 350.696 185.232 350.824 185.152 350.904C185.088 350.968 184.96 351 184.768 351H181.192C179.928 351 178.952 350.664 178.264 349.992C177.576 349.32 177.232 348.352 177.232 347.088V342.672C177.232 341.408 177.576 340.44 178.264 339.768C178.952 339.096 179.928 338.76 181.192 338.76H184.768C185.104 338.76 185.272 338.928 185.272 339.264V340.92C185.272 341.096 185.232 341.224 185.152 341.304C185.088 341.368 184.96 341.4 184.768 341.4H181.672C181.176 341.4 180.816 341.512 180.592 341.736C180.384 341.944 180.28 342.304 180.28 342.816V346.944C180.28 347.456 180.384 347.824 180.592 348.048C180.816 348.256 181.176 348.36 181.672 348.36H184.768C185.104 348.36 185.272 348.528 185.272 348.864ZM191.636 351H191.06C189.796 351 188.82 350.664 188.132 349.992C187.444 349.32 187.1 348.352 187.1 347.088V342.672C187.1 341.408 187.444 340.44 188.132 339.768C188.82 339.096 189.796 338.76 191.06 338.76H196.604C196.956 338.76 197.132 338.928 197.132 339.264V350.496C197.132 350.832 196.956 351 196.604 351H194.588C194.252 351 194.084 350.832 194.084 350.496V349.704H193.988C193.812 350.136 193.5 350.464 193.052 350.688C192.604 350.896 192.132 351 191.636 351ZM194.084 346.536V341.664C194.084 341.488 193.988 341.4 193.796 341.4H191.54C191.028 341.4 190.668 341.512 190.46 341.736C190.252 341.944 190.148 342.304 190.148 342.816V346.944C190.148 347.456 190.252 347.824 190.46 348.048C190.668 348.256 191.028 348.36 191.54 348.36H192.428C193.532 348.36 194.084 347.752 194.084 346.536ZM200.025 341.4H199.065C198.873 341.4 198.737 341.368 198.657 341.304C198.593 341.24 198.561 341.112 198.561 340.92V339.264C198.561 338.928 198.729 338.76 199.065 338.76H200.025C200.201 338.76 200.289 338.672 200.289 338.496V336.216C200.289 335.88 200.465 335.712 200.817 335.712H202.833C203.169 335.712 203.337 335.88 203.337 336.216V338.496C203.337 338.672 203.433 338.76 203.625 338.76H205.497C205.833 338.76 206.001 338.928 206.001 339.264V340.92C206.001 341.096 205.961 341.224 205.881 341.304C205.817 341.368 205.689 341.4 205.497 341.4H203.625C203.433 341.4 203.337 341.488 203.337 341.664V346.968C203.337 347.464 203.449 347.824 203.673 348.048C203.897 348.256 204.265 348.36 204.777 348.36H205.737C206.073 348.36 206.241 348.528 206.241 348.864V350.52C206.241 350.696 206.201 350.824 206.121 350.904C206.057 350.968 205.929 351 205.737 351H204.273C203.009 351 202.025 350.664 201.321 349.992C200.633 349.32 200.289 348.36 200.289 347.112V341.664C200.289 341.488 200.201 341.4 200.025 341.4ZM208.342 336.696V334.608C208.342 334.288 208.502 334.128 208.822 334.128H210.91C211.23 334.128 211.39 334.28 211.39 334.584V336.696C211.39 337.016 211.23 337.176 210.91 337.176H208.822C208.502 337.176 208.342 337.016 208.342 336.696ZM208.342 350.496V339.264C208.342 338.928 208.502 338.76 208.822 338.76H210.886C211.222 338.76 211.39 338.928 211.39 339.264V350.496C211.39 350.704 211.35 350.84 211.27 350.904C211.206 350.968 211.086 351 210.91 351H208.846C208.51 351 208.342 350.832 208.342 350.496ZM220.008 351H217.872C216.608 351 215.632 350.664 214.944 349.992C214.256 349.32 213.912 348.352 213.912 347.088V342.672C213.912 341.408 214.256 340.44 214.944 339.768C215.632 339.096 216.608 338.76 217.872 338.76H220.008C221.256 338.76 222.224 339.104 222.912 339.792C223.616 340.464 223.968 341.424 223.968 342.672V347.088C223.968 348.336 223.616 349.304 222.912 349.992C222.224 350.664 221.256 351 220.008 351ZM218.328 348.384H219.552C220.064 348.384 220.424 348.28 220.632 348.072C220.856 347.864 220.968 347.504 220.968 346.992V342.768C220.968 342.256 220.856 341.896 220.632 341.688C220.424 341.48 220.064 341.376 219.552 341.376H218.328C217.816 341.376 217.456 341.48 217.248 341.688C217.04 341.896 216.936 342.256 216.936 342.768V346.992C216.936 347.504 217.04 347.864 217.248 348.072C217.456 348.28 217.816 348.384 218.328 348.384ZM228.907 351H226.867C226.531 351 226.363 350.832 226.363 350.496V339.264C226.363 338.928 226.531 338.76 226.867 338.76H228.907C229.243 338.76 229.411 338.928 229.411 339.264V340.056H229.507C229.859 339.192 230.643 338.76 231.859 338.76H232.627C235.139 338.76 236.395 340.064 236.395 342.672V350.496C236.395 350.832 236.219 351 235.867 351H233.851C233.515 351 233.347 350.832 233.347 350.496V342.816C233.347 342.304 233.235 341.944 233.011 341.736C232.803 341.512 232.443 341.4 231.931 341.4H231.067C229.963 341.4 229.411 342.008 229.411 343.224V350.496C229.411 350.832 229.243 351 228.907 351Z" fill="black"/>
<rect x="326.671" y="220.836" width="328.329" height="219.163" fill="#2F2F2F"/>
<path d="M421.745 322H419.705C419.369 322 419.201 321.832 419.201 321.496V307.072C419.201 306.736 419.369 306.568 419.705 306.568H425.561C426.809 306.568 427.777 306.912 428.465 307.6C429.153 308.272 429.497 309.232 429.497 310.48V312.784C429.497 314.032 429.153 315 428.465 315.688C427.777 316.36 426.809 316.696 425.561 316.696H422.537C422.345 316.696 422.249 316.784 422.249 316.96V321.496C422.249 321.832 422.081 322 421.745 322ZM422.513 314.032H425.057C425.569 314.032 425.929 313.928 426.137 313.72C426.345 313.496 426.449 313.136 426.449 312.64V310.624C426.449 310.112 426.345 309.752 426.137 309.544C425.929 309.32 425.569 309.208 425.057 309.208H422.513C422.337 309.208 422.249 309.296 422.249 309.472V313.768C422.249 313.944 422.337 314.032 422.513 314.032ZM434.231 322H432.191C431.855 322 431.687 321.832 431.687 321.496V310.264C431.687 309.928 431.855 309.76 432.191 309.76H434.231C434.567 309.76 434.735 309.928 434.735 310.264V311.08H434.831C435.007 310.648 435.319 310.32 435.767 310.096C436.215 309.872 436.687 309.76 437.183 309.76H438.047C438.367 309.76 438.527 309.928 438.527 310.264V311.92C438.527 312.112 438.487 312.248 438.407 312.328C438.343 312.392 438.223 312.416 438.047 312.4H436.391C435.287 312.4 434.735 313.024 434.735 314.272V321.496C434.735 321.832 434.567 322 434.231 322ZM445.91 322H443.774C442.51 322 441.534 321.664 440.846 320.992C440.158 320.32 439.814 319.352 439.814 318.088V313.672C439.814 312.408 440.158 311.44 440.846 310.768C441.534 310.096 442.51 309.76 443.774 309.76H445.91C447.158 309.76 448.126 310.104 448.814 310.792C449.518 311.464 449.87 312.424 449.87 313.672V318.088C449.87 319.336 449.518 320.304 448.814 320.992C448.126 321.664 447.158 322 445.91 322ZM444.23 319.384H445.454C445.966 319.384 446.326 319.28 446.534 319.072C446.758 318.864 446.87 318.504 446.87 317.992V313.768C446.87 313.256 446.758 312.896 446.534 312.688C446.326 312.48 445.966 312.376 445.454 312.376H444.23C443.718 312.376 443.358 312.48 443.15 312.688C442.942 312.896 442.838 313.256 442.838 313.768V317.992C442.838 318.504 442.942 318.864 443.15 319.072C443.358 319.28 443.718 319.384 444.23 319.384ZM454.809 322H452.769C452.433 322 452.265 321.832 452.265 321.496V310.264C452.265 309.928 452.433 309.76 452.769 309.76H454.809C455.145 309.76 455.313 309.928 455.313 310.264V311.056H455.409C455.601 310.672 455.921 310.36 456.369 310.12C456.833 309.88 457.361 309.76 457.953 309.76H458.625C460.017 309.76 461.017 310.272 461.625 311.296C462.169 310.272 463.105 309.76 464.433 309.76H465.129C466.361 309.76 467.289 310.096 467.913 310.768C468.553 311.44 468.873 312.408 468.873 313.672V321.496C468.873 321.832 468.705 322 468.369 322H466.329C465.993 322 465.825 321.832 465.825 321.496V313.816C465.825 313.304 465.721 312.944 465.513 312.736C465.305 312.512 464.945 312.4 464.433 312.4H463.833C462.729 312.4 462.177 313.016 462.177 314.248V321.496C462.177 321.832 462.001 322 461.649 322H459.633C459.297 322 459.129 321.832 459.129 321.496V313.816C459.129 313.304 459.017 312.944 458.793 312.736C458.585 312.512 458.225 312.4 457.713 312.4H456.969C455.865 312.4 455.313 313.008 455.313 314.224V321.496C455.313 321.832 455.145 322 454.809 322ZM477.27 322H475.134C473.87 322 472.894 321.664 472.206 320.992C471.518 320.32 471.174 319.352 471.174 318.088V313.672C471.174 312.408 471.518 311.44 472.206 310.768C472.894 310.096 473.87 309.76 475.134 309.76H477.27C478.518 309.76 479.486 310.104 480.174 310.792C480.878 311.464 481.23 312.424 481.23 313.672V318.088C481.23 319.336 480.878 320.304 480.174 320.992C479.486 321.664 478.518 322 477.27 322ZM475.59 319.384H476.814C477.326 319.384 477.686 319.28 477.894 319.072C478.118 318.864 478.23 318.504 478.23 317.992V313.768C478.23 313.256 478.118 312.896 477.894 312.688C477.686 312.48 477.326 312.376 476.814 312.376H475.59C475.078 312.376 474.718 312.48 474.51 312.688C474.302 312.896 474.198 313.256 474.198 313.768V317.992C474.198 318.504 474.302 318.864 474.51 319.072C474.718 319.28 475.078 319.384 475.59 319.384ZM483.889 312.4H482.929C482.737 312.4 482.601 312.368 482.521 312.304C482.457 312.24 482.425 312.112 482.425 311.92V310.264C482.425 309.928 482.593 309.76 482.929 309.76H483.889C484.065 309.76 484.153 309.672 484.153 309.496V307.216C484.153 306.88 484.329 306.712 484.681 306.712H486.697C487.033 306.712 487.201 306.88 487.201 307.216V309.496C487.201 309.672 487.297 309.76 487.489 309.76H489.361C489.697 309.76 489.865 309.928 489.865 310.264V311.92C489.865 312.096 489.825 312.224 489.745 312.304C489.681 312.368 489.553 312.4 489.361 312.4H487.489C487.297 312.4 487.201 312.488 487.201 312.664V317.968C487.201 318.464 487.313 318.824 487.537 319.048C487.761 319.256 488.129 319.36 488.641 319.36H489.601C489.937 319.36 490.105 319.528 490.105 319.864V321.52C490.105 321.696 490.065 321.824 489.985 321.904C489.921 321.968 489.793 322 489.601 322H488.137C486.873 322 485.889 321.664 485.185 320.992C484.497 320.32 484.153 319.36 484.153 318.112V312.664C484.153 312.488 484.065 312.4 483.889 312.4ZM492.206 307.696V305.608C492.206 305.288 492.366 305.128 492.686 305.128H494.774C495.094 305.128 495.254 305.28 495.254 305.584V307.696C495.254 308.016 495.094 308.176 494.774 308.176H492.686C492.366 308.176 492.206 308.016 492.206 307.696ZM492.206 321.496V310.264C492.206 309.928 492.366 309.76 492.686 309.76H494.75C495.086 309.76 495.254 309.928 495.254 310.264V321.496C495.254 321.704 495.214 321.84 495.134 321.904C495.07 321.968 494.95 322 494.774 322H492.71C492.374 322 492.206 321.832 492.206 321.496ZM503.871 322H501.735C500.471 322 499.495 321.664 498.807 320.992C498.119 320.32 497.775 319.352 497.775 318.088V313.672C497.775 312.408 498.119 311.44 498.807 310.768C499.495 310.096 500.471 309.76 501.735 309.76H503.871C505.119 309.76 506.087 310.104 506.775 310.792C507.479 311.464 507.831 312.424 507.831 313.672V318.088C507.831 319.336 507.479 320.304 506.775 320.992C506.087 321.664 505.119 322 503.871 322ZM502.191 319.384H503.415C503.927 319.384 504.287 319.28 504.495 319.072C504.719 318.864 504.831 318.504 504.831 317.992V313.768C504.831 313.256 504.719 312.896 504.495 312.688C504.287 312.48 503.927 312.376 503.415 312.376H502.191C501.679 312.376 501.319 312.48 501.111 312.688C500.903 312.896 500.799 313.256 500.799 313.768V317.992C500.799 318.504 500.903 318.864 501.111 319.072C501.319 319.28 501.679 319.384 502.191 319.384ZM512.77 322H510.73C510.394 322 510.226 321.832 510.226 321.496V310.264C510.226 309.928 510.394 309.76 510.73 309.76H512.77C513.106 309.76 513.274 309.928 513.274 310.264V311.056H513.37C513.722 310.192 514.506 309.76 515.722 309.76H516.49C519.002 309.76 520.258 311.064 520.258 313.672V321.496C520.258 321.832 520.082 322 519.73 322H517.714C517.378 322 517.21 321.832 517.21 321.496V313.816C517.21 313.304 517.098 312.944 516.874 312.736C516.666 312.512 516.306 312.4 515.794 312.4H514.93C513.826 312.4 513.274 313.008 513.274 314.224V321.496C513.274 321.832 513.106 322 512.77 322ZM532.358 322H531.782C530.518 322 529.542 321.664 528.854 320.992C528.166 320.32 527.822 319.352 527.822 318.088V313.672C527.822 312.408 528.166 311.44 528.854 310.768C529.542 310.096 530.518 309.76 531.782 309.76H537.326C537.678 309.76 537.854 309.928 537.854 310.264V321.496C537.854 321.832 537.678 322 537.326 322H535.31C534.974 322 534.806 321.832 534.806 321.496V320.704H534.71C534.534 321.136 534.222 321.464 533.774 321.688C533.326 321.896 532.854 322 532.358 322ZM534.806 317.536V312.664C534.806 312.488 534.71 312.4 534.518 312.4H532.262C531.75 312.4 531.39 312.512 531.182 312.736C530.974 312.944 530.87 313.304 530.87 313.816V317.944C530.87 318.456 530.974 318.824 531.182 319.048C531.39 319.256 531.75 319.36 532.262 319.36H533.15C534.254 319.36 534.806 318.752 534.806 317.536ZM543.028 322H540.988C540.652 322 540.484 321.832 540.484 321.496V310.264C540.484 309.928 540.652 309.76 540.988 309.76H543.028C543.364 309.76 543.532 309.928 543.532 310.264V311.056H543.628C543.98 310.192 544.764 309.76 545.98 309.76H546.748C549.26 309.76 550.516 311.064 550.516 313.672V321.496C550.516 321.832 550.34 322 549.988 322H547.972C547.636 322 547.468 321.832 547.468 321.496V313.816C547.468 313.304 547.356 312.944 547.132 312.736C546.924 312.512 546.564 312.4 546.052 312.4H545.188C544.084 312.4 543.532 313.008 543.532 314.224V321.496C543.532 321.832 543.364 322 543.028 322ZM557.535 322H556.551C555.319 322 554.383 321.664 553.743 320.992C553.119 320.32 552.807 319.352 552.807 318.088V313.672C552.807 312.408 553.119 311.44 553.743 310.768C554.383 310.096 555.319 309.76 556.551 309.76H557.535C558.031 309.76 558.503 309.872 558.951 310.096C559.399 310.304 559.711 310.624 559.887 311.056H559.983V305.632C559.983 305.296 560.151 305.128 560.487 305.128H562.527C562.863 305.128 563.031 305.296 563.031 305.632V321.496C563.031 321.832 562.863 322 562.527 322H560.487C560.151 322 559.983 321.832 559.983 321.496V320.704H559.887C559.711 321.136 559.399 321.464 558.951 321.688C558.503 321.896 558.031 322 557.535 322ZM559.983 317.536V314.224C559.983 313.008 559.431 312.4 558.327 312.4H557.247C556.735 312.4 556.375 312.512 556.167 312.736C555.959 312.944 555.855 313.304 555.855 313.816V317.944C555.855 318.456 555.959 318.824 556.167 319.048C556.375 319.256 556.735 319.36 557.247 319.36H558.327C559.431 319.36 559.983 318.752 559.983 317.536ZM421.043 353H418.739C418.451 353 418.355 352.832 418.451 352.496L422.243 338.072C422.355 337.736 422.595 337.568 422.963 337.568H426.155C426.555 337.568 426.795 337.736 426.875 338.072L430.667 352.496C430.763 352.832 430.667 353 430.379 353H428.075C427.899 353 427.779 352.968 427.715 352.904C427.651 352.824 427.603 352.688 427.571 352.496L426.899 349.856H422.219L421.547 352.496C421.515 352.688 421.459 352.824 421.379 352.904C421.315 352.968 421.203 353 421.043 353ZM424.523 340.472L422.795 347.408H426.347L424.619 340.472H424.523ZM437.042 353H436.058C434.826 353 433.89 352.664 433.25 351.992C432.626 351.32 432.314 350.352 432.314 349.088V344.672C432.314 343.408 432.626 342.44 433.25 341.768C433.89 341.096 434.826 340.76 436.058 340.76H437.042C437.538 340.76 438.01 340.872 438.458 341.096C438.906 341.304 439.218 341.624 439.394 342.056H439.49V336.632C439.49 336.296 439.658 336.128 439.994 336.128H442.034C442.37 336.128 442.538 336.296 442.538 336.632V352.496C442.538 352.832 442.37 353 442.034 353H439.994C439.658 353 439.49 352.832 439.49 352.496V351.704H439.394C439.218 352.136 438.906 352.464 438.458 352.688C438.01 352.896 437.538 353 437.042 353ZM439.49 348.536V345.224C439.49 344.008 438.938 343.4 437.834 343.4H436.754C436.242 343.4 435.882 343.512 435.674 343.736C435.466 343.944 435.362 344.304 435.362 344.816V348.944C435.362 349.456 435.466 349.824 435.674 350.048C435.882 350.256 436.242 350.36 436.754 350.36H437.834C438.938 350.36 439.49 349.752 439.49 348.536ZM444.659 340.76H446.771C447.091 340.76 447.283 340.928 447.347 341.264L449.411 350.288H449.579L451.595 341.264C451.659 340.928 451.859 340.76 452.195 340.76H454.307C454.643 340.76 454.763 340.928 454.667 341.264L451.643 352.472C451.579 352.824 451.363 353 450.995 353H447.947C447.611 353 447.395 352.824 447.299 352.472L444.299 341.264C444.203 340.928 444.323 340.76 444.659 340.76ZM465.438 353H460.134C458.87 353 457.894 352.664 457.206 351.992C456.518 351.32 456.174 350.352 456.174 349.088V344.672C456.174 343.408 456.518 342.44 457.206 341.768C457.894 341.096 458.87 340.76 460.134 340.76H462.03C463.294 340.76 464.27 341.096 464.958 341.768C465.646 342.44 465.99 343.408 465.99 344.672V347.72C465.99 348.056 465.822 348.224 465.486 348.224H459.462C459.27 348.224 459.174 348.312 459.174 348.488V349.016C459.174 349.512 459.278 349.872 459.486 350.096C459.71 350.304 460.078 350.408 460.59 350.408H465.438C465.774 350.408 465.942 350.584 465.942 350.936V352.52C465.942 352.696 465.902 352.824 465.822 352.904C465.758 352.968 465.63 353 465.438 353ZM459.462 346.184H462.726C462.902 346.184 462.99 346.096 462.99 345.92V344.768C462.99 344.256 462.886 343.896 462.678 343.688C462.47 343.48 462.11 343.376 461.598 343.376H460.59C460.078 343.376 459.718 343.48 459.51 343.688C459.302 343.896 459.198 344.256 459.198 344.768V345.92C459.198 346.096 459.286 346.184 459.462 346.184ZM470.817 353H468.777C468.441 353 468.273 352.832 468.273 352.496V341.264C468.273 340.928 468.441 340.76 468.777 340.76H470.817C471.153 340.76 471.321 340.928 471.321 341.264V342.08H471.417C471.593 341.648 471.905 341.32 472.353 341.096C472.801 340.872 473.273 340.76 473.769 340.76H474.633C474.953 340.76 475.113 340.928 475.113 341.264V342.92C475.113 343.112 475.073 343.248 474.993 343.328C474.929 343.392 474.809 343.416 474.633 343.4H472.977C471.873 343.4 471.321 344.024 471.321 345.272V352.496C471.321 352.832 471.153 353 470.817 353ZM476.904 343.4H475.944C475.752 343.4 475.616 343.368 475.536 343.304C475.472 343.24 475.44 343.112 475.44 342.92V341.264C475.44 340.928 475.608 340.76 475.944 340.76H476.904C477.08 340.76 477.168 340.672 477.168 340.496V338.216C477.168 337.88 477.344 337.712 477.696 337.712H479.712C480.048 337.712 480.216 337.88 480.216 338.216V340.496C480.216 340.672 480.312 340.76 480.504 340.76H482.376C482.712 340.76 482.88 340.928 482.88 341.264V342.92C482.88 343.096 482.84 343.224 482.76 343.304C482.696 343.368 482.568 343.4 482.376 343.4H480.504C480.312 343.4 480.216 343.488 480.216 343.664V348.968C480.216 349.464 480.328 349.824 480.552 350.048C480.776 350.256 481.144 350.36 481.656 350.36H482.616C482.952 350.36 483.12 350.528 483.12 350.864V352.52C483.12 352.696 483.08 352.824 483 352.904C482.936 352.968 482.808 353 482.616 353H481.152C479.888 353 478.904 352.664 478.2 351.992C477.512 351.32 477.168 350.36 477.168 349.112V343.664C477.168 343.488 477.08 343.4 476.904 343.4ZM485.221 338.696V336.608C485.221 336.288 485.381 336.128 485.701 336.128H487.789C488.109 336.128 488.269 336.28 488.269 336.584V338.696C488.269 339.016 488.109 339.176 487.789 339.176H485.701C485.381 339.176 485.221 339.016 485.221 338.696ZM485.221 352.496V341.264C485.221 340.928 485.381 340.76 485.701 340.76H487.765C488.101 340.76 488.269 340.928 488.269 341.264V352.496C488.269 352.704 488.229 352.84 488.149 352.904C488.085 352.968 487.965 353 487.789 353H485.725C485.389 353 485.221 352.832 485.221 352.496ZM495.663 353H491.103C490.783 353 490.623 352.832 490.623 352.496V350.96C490.623 350.784 490.655 350.664 490.719 350.6C490.783 350.52 490.911 350.48 491.103 350.48H495.111C495.895 350.48 496.287 350.24 496.287 349.76V349.64C496.287 349.256 495.959 348.888 495.303 348.536L492.927 347.216C492.111 346.8 491.511 346.352 491.127 345.872C490.743 345.392 490.551 344.776 490.551 344.024C490.551 342.904 490.847 342.08 491.439 341.552C492.031 341.024 492.959 340.76 494.223 340.76H498.231C498.551 340.76 498.711 340.928 498.711 341.264V342.824C498.711 343 498.679 343.128 498.615 343.208C498.551 343.272 498.423 343.304 498.231 343.304H494.895C494.111 343.304 493.719 343.504 493.719 343.904V344.024C493.719 344.376 494.063 344.736 494.751 345.104L497.175 346.544C498.007 346.992 498.591 347.456 498.927 347.936C499.263 348.4 499.431 349.016 499.431 349.784C499.431 351.928 498.175 353 495.663 353ZM510.578 353H505.274C504.01 353 503.034 352.664 502.346 351.992C501.658 351.32 501.314 350.352 501.314 349.088V344.672C501.314 343.408 501.658 342.44 502.346 341.768C503.034 341.096 504.01 340.76 505.274 340.76H507.17C508.434 340.76 509.41 341.096 510.098 341.768C510.786 342.44 511.13 343.408 511.13 344.672V347.72C511.13 348.056 510.962 348.224 510.626 348.224H504.602C504.41 348.224 504.314 348.312 504.314 348.488V349.016C504.314 349.512 504.418 349.872 504.626 350.096C504.85 350.304 505.218 350.408 505.73 350.408H510.578C510.914 350.408 511.082 350.584 511.082 350.936V352.52C511.082 352.696 511.042 352.824 510.962 352.904C510.898 352.968 510.77 353 510.578 353ZM504.602 346.184H507.866C508.042 346.184 508.13 346.096 508.13 345.92V344.768C508.13 344.256 508.026 343.896 507.818 343.688C507.61 343.48 507.25 343.376 506.738 343.376H505.73C505.218 343.376 504.858 343.48 504.65 343.688C504.442 343.896 504.338 344.256 504.338 344.768V345.92C504.338 346.096 504.426 346.184 504.602 346.184ZM515.958 353H513.918C513.582 353 513.414 352.832 513.414 352.496V341.264C513.414 340.928 513.582 340.76 513.918 340.76H515.958C516.294 340.76 516.462 340.928 516.462 341.264V342.056H516.558C516.75 341.672 517.07 341.36 517.518 341.12C517.982 340.88 518.51 340.76 519.102 340.76H519.774C521.166 340.76 522.166 341.272 522.774 342.296C523.318 341.272 524.254 340.76 525.582 340.76H526.278C527.51 340.76 528.438 341.096 529.062 341.768C529.702 342.44 530.022 343.408 530.022 344.672V352.496C530.022 352.832 529.854 353 529.518 353H527.478C527.142 353 526.974 352.832 526.974 352.496V344.816C526.974 344.304 526.87 343.944 526.662 343.736C526.454 343.512 526.094 343.4 525.582 343.4H524.982C523.878 343.4 523.326 344.016 523.326 345.248V352.496C523.326 352.832 523.15 353 522.798 353H520.782C520.446 353 520.278 352.832 520.278 352.496V344.816C520.278 344.304 520.166 343.944 519.942 343.736C519.734 343.512 519.374 343.4 518.862 343.4H518.118C517.014 343.4 516.462 344.008 516.462 345.224V352.496C516.462 352.832 516.294 353 515.958 353ZM541.586 353H536.282C535.018 353 534.042 352.664 533.354 351.992C532.666 351.32 532.322 350.352 532.322 349.088V344.672C532.322 343.408 532.666 342.44 533.354 341.768C534.042 341.096 535.018 340.76 536.282 340.76H538.178C539.442 340.76 540.418 341.096 541.106 341.768C541.794 342.44 542.138 343.408 542.138 344.672V347.72C542.138 348.056 541.97 348.224 541.634 348.224H535.61C535.418 348.224 535.322 348.312 535.322 348.488V349.016C535.322 349.512 535.426 349.872 535.634 350.096C535.858 350.304 536.226 350.408 536.738 350.408H541.586C541.922 350.408 542.09 350.584 542.09 350.936V352.52C542.09 352.696 542.05 352.824 541.97 352.904C541.906 352.968 541.778 353 541.586 353ZM535.61 346.184H538.874C539.05 346.184 539.138 346.096 539.138 345.92V344.768C539.138 344.256 539.034 343.896 538.826 343.688C538.618 343.48 538.258 343.376 537.746 343.376H536.738C536.226 343.376 535.866 343.48 535.658 343.688C535.45 343.896 535.346 344.256 535.346 344.768V345.92C535.346 346.096 535.434 346.184 535.61 346.184ZM546.966 353H544.926C544.59 353 544.422 352.832 544.422 352.496V341.264C544.422 340.928 544.59 340.76 544.926 340.76H546.966C547.302 340.76 547.47 340.928 547.47 341.264V342.056H547.566C547.918 341.192 548.702 340.76 549.918 340.76H550.686C553.198 340.76 554.454 342.064 554.454 344.672V352.496C554.454 352.832 554.278 353 553.926 353H551.91C551.574 353 551.406 352.832 551.406 352.496V344.816C551.406 344.304 551.294 343.944 551.07 343.736C550.862 343.512 550.502 343.4 549.99 343.4H549.126C548.022 343.4 547.47 344.008 547.47 345.224V352.496C547.47 352.832 547.302 353 546.966 353ZM557.248 343.4H556.288C556.096 343.4 555.96 343.368 555.88 343.304C555.816 343.24 555.784 343.112 555.784 342.92V341.264C555.784 340.928 555.952 340.76 556.288 340.76H557.248C557.424 340.76 557.512 340.672 557.512 340.496V338.216C557.512 337.88 557.688 337.712 558.04 337.712H560.056C560.392 337.712 560.56 337.88 560.56 338.216V340.496C560.56 340.672 560.656 340.76 560.848 340.76H562.72C563.056 340.76 563.224 340.928 563.224 341.264V342.92C563.224 343.096 563.184 343.224 563.104 343.304C563.04 343.368 562.912 343.4 562.72 343.4H560.848C560.656 343.4 560.56 343.488 560.56 343.664V348.968C560.56 349.464 560.672 349.824 560.896 350.048C561.12 350.256 561.488 350.36 562 350.36H562.96C563.296 350.36 563.464 350.528 563.464 350.864V352.52C563.464 352.696 563.424 352.824 563.344 352.904C563.28 352.968 563.152 353 562.96 353H561.496C560.232 353 559.248 352.664 558.544 351.992C557.856 351.32 557.512 350.36 557.512 349.112V343.664C557.512 343.488 557.424 343.4 557.248 343.4Z" fill="white"/>
</g>
</svg>
