<svg width="481" height="290" viewBox="0 0 481 290" fill="none" xmlns="http://www.w3.org/2000/svg">
<rect width="50" height="50" fill="#404040"/>
<path d="M25.3093 32.104H28.5093C29.5759 32.104 30.3973 31.7947 30.9733 31.176C31.5493 30.5573 31.8373 29.704 31.8373 28.616V16.808C31.8373 15.72 31.5493 14.8667 30.9733 14.248C30.3973 13.6293 29.5759 13.32 28.5093 13.32H25.3093C24.2426 13.32 23.4213 13.6293 22.8453 14.248C22.2693 14.8667 21.9813 15.72 21.9813 16.808V28.616C21.9813 29.704 22.2693 30.5573 22.8453 31.176C23.4213 31.7947 24.2426 32.104 25.3093 32.104ZM28.5093 33H25.3093C24.0079 33 22.9626 32.6053 22.1733 31.816C21.4053 31.0267 21.0213 29.9707 21.0213 28.648V16.776C21.0213 15.4533 21.4053 14.3973 22.1733 13.608C22.9626 12.8187 24.0079 12.424 25.3093 12.424H28.5093C29.8106 12.424 30.8453 12.8187 31.6133 13.608C32.4026 14.3973 32.7973 15.4533 32.7973 16.776V28.648C32.7973 29.9707 32.4026 31.0267 31.6133 31.816C30.8453 32.6053 29.8106 33 28.5093 33ZM36.3113 15.784V15.592C36.3113 15.3147 36.4286 15.112 36.6633 14.984L40.9833 12.584C41.1966 12.4773 41.3673 12.424 41.4953 12.424H41.8793C42.0499 12.424 42.1353 12.52 42.1353 12.712V32.712C42.1353 32.904 42.0499 33 41.8793 33H41.4313C41.2606 33 41.1753 32.904 41.1753 32.712V13.48L36.8233 15.944C36.4819 16.1787 36.3113 16.1253 36.3113 15.784Z" fill="white"/>
<rect y="60" width="50" height="50" fill="#404040"/>
<path d="M20.1218 92.104H23.3218C24.3884 92.104 25.2098 91.7947 25.7858 91.176C26.3618 90.5573 26.6498 89.704 26.6498 88.616V76.808C26.6498 75.72 26.3618 74.8667 25.7858 74.248C25.2098 73.6293 24.3884 73.32 23.3218 73.32H20.1218C19.0551 73.32 18.2338 73.6293 17.6578 74.248C17.0818 74.8667 16.7938 75.72 16.7938 76.808V88.616C16.7938 89.704 17.0818 90.5573 17.6578 91.176C18.2338 91.7947 19.0551 92.104 20.1218 92.104ZM23.3218 93H20.1218C18.8204 93 17.7751 92.6053 16.9858 91.816C16.2178 91.0267 15.8338 89.9707 15.8338 88.648V76.776C15.8338 75.4533 16.2178 74.3973 16.9858 73.608C17.7751 72.8187 18.8204 72.424 20.1218 72.424H23.3218C24.6231 72.424 25.6578 72.8187 26.4258 73.608C27.2151 74.3973 27.6098 75.4533 27.6098 76.776V88.648C27.6098 89.9707 27.2151 91.0267 26.4258 91.816C25.6578 92.6053 24.6231 93 23.3218 93ZM31.8918 92.744V89.992C31.8918 88.392 32.5638 87.112 33.9078 86.152L40.3078 81.384C41.4384 80.552 42.0038 79.432 42.0038 78.024V76.712C42.0038 75.624 41.7158 74.792 41.1398 74.216C40.5638 73.6187 39.7424 73.32 38.6758 73.32H36.0518C34.9851 73.32 34.1638 73.6187 33.5878 74.216C33.0118 74.792 32.7238 75.624 32.7238 76.712V78.248C32.7238 78.44 32.6384 78.536 32.4678 78.536H32.0198C31.8491 78.536 31.7638 78.44 31.7638 78.248V76.68C31.7638 75.3573 32.1478 74.3227 32.9158 73.576C33.7051 72.808 34.7504 72.424 36.0518 72.424H38.6758C39.9771 72.424 41.0118 72.808 41.7798 73.576C42.5691 74.3227 42.9638 75.3573 42.9638 76.68V78.056C42.9638 79.72 42.2811 81.0533 40.9158 82.056L34.4518 86.888C33.3851 87.6987 32.8518 88.6907 32.8518 89.864V92.104H42.8038C42.9958 92.104 43.0918 92.1893 43.0918 92.36V92.744C43.0918 92.9147 42.9958 93 42.8038 93H32.1798C31.9878 93 31.8918 92.9147 31.8918 92.744Z" fill="white"/>
<rect y="120" width="50" height="50" fill="#404040"/>
<path d="M19.4968 152.104H22.6968C23.7634 152.104 24.5848 151.795 25.1608 151.176C25.7368 150.557 26.0248 149.704 26.0248 148.616V136.808C26.0248 135.72 25.7368 134.867 25.1608 134.248C24.5848 133.629 23.7634 133.32 22.6968 133.32H19.4968C18.4301 133.32 17.6088 133.629 17.0328 134.248C16.4568 134.867 16.1688 135.72 16.1688 136.808V148.616C16.1688 149.704 16.4568 150.557 17.0328 151.176C17.6088 151.795 18.4301 152.104 19.4968 152.104ZM22.6968 153H19.4968C18.1954 153 17.1501 152.605 16.3608 151.816C15.5928 151.027 15.2088 149.971 15.2088 148.648V136.776C15.2088 135.453 15.5928 134.397 16.3608 133.608C17.1501 132.819 18.1954 132.424 19.4968 132.424H22.6968C23.9981 132.424 25.0328 132.819 25.8008 133.608C26.5901 134.397 26.9848 135.453 26.9848 136.776V148.648C26.9848 149.971 26.5901 151.027 25.8008 151.816C25.0328 152.605 23.9981 153 22.6968 153ZM36.4828 142.184H38.4668C39.5334 142.184 40.3548 141.896 40.9308 141.32C41.5068 140.723 41.7948 139.88 41.7948 138.792V136.712C41.7948 135.624 41.5068 134.792 40.9308 134.216C40.3548 133.619 39.5334 133.32 38.4668 133.32H35.7468C34.6801 133.32 33.8588 133.619 33.2828 134.216C32.7068 134.792 32.4188 135.624 32.4188 136.712V137.928C32.4188 138.12 32.3334 138.216 32.1628 138.216H31.7148C31.5441 138.216 31.4588 138.12 31.4588 137.928V136.68C31.4588 135.357 31.8428 134.323 32.6108 133.576C33.4001 132.808 34.4454 132.424 35.7468 132.424H38.4668C39.7681 132.424 40.8028 132.808 41.5708 133.576C42.3601 134.323 42.7548 135.357 42.7548 136.68V138.824C42.7548 140.829 41.8588 142.099 40.0668 142.632C41.8588 143.101 42.7548 144.371 42.7548 146.44V148.744C42.7548 150.067 42.3601 151.112 41.5708 151.88C40.8028 152.627 39.7681 153 38.4668 153H35.7468C34.4454 153 33.4001 152.627 32.6108 151.88C31.8428 151.112 31.4588 150.067 31.4588 148.744V147.144C31.4588 146.952 31.5441 146.856 31.7148 146.856H32.1628C32.3334 146.856 32.4188 146.952 32.4188 147.144V148.712C32.4188 149.8 32.7068 150.643 33.2828 151.24C33.8588 151.816 34.6801 152.104 35.7468 152.104H38.4668C39.5334 152.104 40.3548 151.816 40.9308 151.24C41.5068 150.643 41.7948 149.8 41.7948 148.712V146.472C41.7948 145.384 41.5068 144.552 40.9308 143.976C40.3548 143.379 39.5334 143.08 38.4668 143.08H36.4828C36.2908 143.08 36.1948 142.995 36.1948 142.824V142.44C36.1948 142.269 36.2908 142.184 36.4828 142.184Z" fill="white"/>
<rect y="180" width="50" height="50" fill="#404040"/>
<path d="M18.8093 212.104H22.0093C23.0759 212.104 23.8973 211.795 24.4733 211.176C25.0493 210.557 25.3373 209.704 25.3373 208.616V196.808C25.3373 195.72 25.0493 194.867 24.4733 194.248C23.8973 193.629 23.0759 193.32 22.0093 193.32H18.8093C17.7426 193.32 16.9213 193.629 16.3453 194.248C15.7693 194.867 15.4813 195.72 15.4813 196.808V208.616C15.4813 209.704 15.7693 210.557 16.3453 211.176C16.9213 211.795 17.7426 212.104 18.8093 212.104ZM22.0093 213H18.8093C17.5079 213 16.4626 212.605 15.6733 211.816C14.9053 211.027 14.5213 209.971 14.5213 208.648V196.776C14.5213 195.453 14.9053 194.397 15.6733 193.608C16.4626 192.819 17.5079 192.424 18.8093 192.424H22.0093C23.3106 192.424 24.3453 192.819 25.1133 193.608C25.9026 194.397 26.2973 195.453 26.2973 196.776V208.648C26.2973 209.971 25.9026 211.027 25.1133 211.816C24.3453 212.605 23.3106 213 22.0093 213ZM40.0513 207.784V193.128L31.2193 207.784H40.0513ZM40.7553 213H40.3073C40.1366 213 40.0513 212.904 40.0513 212.712V208.68H30.4193C30.2273 208.68 30.1313 208.595 30.1313 208.424V208.04C30.1313 207.891 30.1953 207.72 30.3233 207.528L39.2193 192.776C39.3473 192.541 39.5499 192.424 39.8273 192.424H40.7553C40.9259 192.424 41.0113 192.52 41.0113 192.712V207.784H43.4433C43.6353 207.784 43.7313 207.869 43.7313 208.04V208.424C43.7313 208.595 43.6353 208.68 43.4433 208.68H41.0113V212.712C41.0113 212.904 40.9259 213 40.7553 213Z" fill="white"/>
<rect y="240" width="50" height="50" fill="#404040"/>
<path d="M20.0593 272.104H23.2593C24.3259 272.104 25.1473 271.795 25.7233 271.176C26.2993 270.557 26.5873 269.704 26.5873 268.616V256.808C26.5873 255.72 26.2993 254.867 25.7233 254.248C25.1473 253.629 24.3259 253.32 23.2593 253.32H20.0593C18.9926 253.32 18.1713 253.629 17.5953 254.248C17.0193 254.867 16.7313 255.72 16.7313 256.808V268.616C16.7313 269.704 17.0193 270.557 17.5953 271.176C18.1713 271.795 18.9926 272.104 20.0593 272.104ZM23.2593 273H20.0593C18.7579 273 17.7126 272.605 16.9233 271.816C16.1553 271.027 15.7713 269.971 15.7713 268.648V256.776C15.7713 255.453 16.1553 254.397 16.9233 253.608C17.7126 252.819 18.7579 252.424 20.0593 252.424H23.2593C24.5606 252.424 25.5953 252.819 26.3633 253.608C27.1526 254.397 27.5473 255.453 27.5473 256.776V268.648C27.5473 269.971 27.1526 271.027 26.3633 271.816C25.5953 272.605 24.5606 273 23.2593 273ZM38.8053 261.128H35.7333C35.1573 261.128 34.6879 261.224 34.3253 261.416C33.9626 261.587 33.7173 261.779 33.5893 261.992C33.4613 262.184 33.3333 262.376 33.2053 262.568C33.0986 262.739 32.9813 262.824 32.8533 262.824H32.2773C32.1066 262.824 32.0213 262.728 32.0213 262.536V252.712C32.0213 252.52 32.1066 252.424 32.2773 252.424H42.4853C42.6773 252.424 42.7733 252.509 42.7733 252.68V253.064C42.7733 253.235 42.6773 253.32 42.4853 253.32H32.9813V261.8C33.3866 260.755 34.3039 260.232 35.7333 260.232H38.8053C40.1066 260.232 41.1413 260.616 41.9093 261.384C42.6986 262.131 43.0933 263.165 43.0933 264.488V268.648C43.0933 269.971 42.6986 271.027 41.9093 271.816C41.1413 272.605 40.1066 273 38.8053 273H36.3093C35.0079 273 33.9626 272.605 33.1733 271.816C32.4053 271.027 32.0213 269.971 32.0213 268.648V267.368C32.0213 267.176 32.1066 267.08 32.2773 267.08H32.7253C32.8959 267.08 32.9813 267.176 32.9813 267.368V268.616C32.9813 269.704 33.2693 270.557 33.8453 271.176C34.4213 271.795 35.2426 272.104 36.3093 272.104H38.8053C39.8719 272.104 40.6933 271.795 41.2693 271.176C41.8453 270.557 42.1333 269.704 42.1333 268.616V264.52C42.1333 263.432 41.8453 262.6 41.2693 262.024C40.6933 261.427 39.8719 261.128 38.8053 261.128Z" fill="white"/>
<path d="M64.104 32H62.064C61.728 32 61.56 31.832 61.56 31.496V17.072C61.56 16.736 61.728 16.568 62.064 16.568H67.776C69.024 16.568 70 16.912 70.704 17.6C71.408 18.288 71.76 19.256 71.76 20.504V22.376C71.76 24.184 71.048 25.384 69.624 25.976V26.072L72.192 31.424C72.336 31.808 72.2 32 71.784 32H69.84C69.552 32 69.344 31.968 69.216 31.904C69.088 31.84 68.984 31.704 68.904 31.496L66.504 26.312H64.896C64.704 26.312 64.608 26.4 64.608 26.576V31.496C64.608 31.832 64.44 32 64.104 32ZM64.872 23.864H67.224C67.736 23.864 68.112 23.76 68.352 23.552C68.592 23.328 68.712 22.976 68.712 22.496V20.624C68.712 20.128 68.592 19.768 68.352 19.544C68.112 19.32 67.736 19.208 67.224 19.208H64.872C64.696 19.208 64.608 19.296 64.608 19.472V23.6C64.608 23.776 64.696 23.864 64.872 23.864ZM83.469 32H78.165C76.901 32 75.925 31.664 75.237 30.992C74.549 30.32 74.205 29.352 74.205 28.088V23.672C74.205 22.408 74.549 21.44 75.237 20.768C75.925 20.096 76.901 19.76 78.165 19.76H80.061C81.325 19.76 82.301 20.096 82.989 20.768C83.677 21.44 84.021 22.408 84.021 23.672V26.72C84.021 27.056 83.853 27.224 83.517 27.224H77.493C77.301 27.224 77.205 27.312 77.205 27.488V28.016C77.205 28.512 77.309 28.872 77.517 29.096C77.741 29.304 78.109 29.408 78.621 29.408H83.469C83.805 29.408 83.973 29.584 83.973 29.936V31.52C83.973 31.696 83.933 31.824 83.853 31.904C83.789 31.968 83.661 32 83.469 32ZM77.493 25.184H80.757C80.933 25.184 81.021 25.096 81.021 24.92V23.768C81.021 23.256 80.917 22.896 80.709 22.688C80.501 22.48 80.141 22.376 79.629 22.376H78.621C78.109 22.376 77.749 22.48 77.541 22.688C77.333 22.896 77.229 23.256 77.229 23.768V24.92C77.229 25.096 77.317 25.184 77.493 25.184ZM90.6244 31.448H89.8324C88.6004 31.448 87.6644 31.112 87.0244 30.44C86.4004 29.768 86.0884 28.8 86.0884 27.536V23.672C86.0884 22.408 86.4324 21.44 87.1204 20.768C87.8084 20.096 88.7844 19.76 90.0484 19.76H95.5924C95.9444 19.76 96.1204 19.928 96.1204 20.264V32.096C96.1204 33.344 95.7684 34.304 95.0644 34.976C94.3764 35.648 93.4084 35.984 92.1604 35.984H87.5524C87.3604 35.984 87.2244 35.944 87.1444 35.864C87.0804 35.8 87.0484 35.68 87.0484 35.504V33.848C87.0484 33.512 87.2164 33.344 87.5524 33.344H91.6564C92.1684 33.344 92.5284 33.232 92.7364 33.008C92.9604 32.8 93.0724 32.448 93.0724 31.952V30.128H92.9764C92.8004 30.56 92.4884 30.888 92.0404 31.112C91.5924 31.336 91.1204 31.448 90.6244 31.448ZM93.0724 26.984V22.664C93.0724 22.488 92.9764 22.4 92.7844 22.4H90.5284C90.0164 22.4 89.6564 22.512 89.4484 22.736C89.2404 22.944 89.1364 23.304 89.1364 23.816V27.392C89.1364 27.904 89.2404 28.264 89.4484 28.472C89.6564 28.68 90.0164 28.784 90.5284 28.784H91.4164C92.5204 28.784 93.0724 28.184 93.0724 26.984ZM98.8697 17.696V15.608C98.8697 15.288 99.0297 15.128 99.3497 15.128H101.438C101.758 15.128 101.918 15.28 101.918 15.584V17.696C101.918 18.016 101.758 18.176 101.438 18.176H99.3497C99.0297 18.176 98.8697 18.016 98.8697 17.696ZM98.8697 31.496V20.264C98.8697 19.928 99.0297 19.76 99.3497 19.76H101.414C101.75 19.76 101.918 19.928 101.918 20.264V31.496C101.918 31.704 101.878 31.84 101.798 31.904C101.734 31.968 101.614 32 101.438 32H99.3737C99.0377 32 98.8697 31.832 98.8697 31.496ZM109.311 32H104.751C104.431 32 104.271 31.832 104.271 31.496V29.96C104.271 29.784 104.303 29.664 104.367 29.6C104.431 29.52 104.559 29.48 104.751 29.48H108.759C109.543 29.48 109.935 29.24 109.935 28.76V28.64C109.935 28.256 109.607 27.888 108.951 27.536L106.575 26.216C105.759 25.8 105.159 25.352 104.775 24.872C104.391 24.392 104.199 23.776 104.199 23.024C104.199 21.904 104.495 21.08 105.087 20.552C105.679 20.024 106.607 19.76 107.871 19.76H111.879C112.199 19.76 112.359 19.928 112.359 20.264V21.824C112.359 22 112.327 22.128 112.263 22.208C112.199 22.272 112.071 22.304 111.879 22.304H108.543C107.759 22.304 107.367 22.504 107.367 22.904V23.024C107.367 23.376 107.711 23.736 108.399 24.104L110.823 25.544C111.655 25.992 112.239 26.456 112.575 26.936C112.911 27.4 113.079 28.016 113.079 28.784C113.079 30.928 111.823 32 109.311 32ZM115.467 22.4H114.507C114.315 22.4 114.179 22.368 114.099 22.304C114.035 22.24 114.003 22.112 114.003 21.92V20.264C114.003 19.928 114.171 19.76 114.507 19.76H115.467C115.643 19.76 115.731 19.672 115.731 19.496V17.216C115.731 16.88 115.907 16.712 116.259 16.712H118.275C118.611 16.712 118.779 16.88 118.779 17.216V19.496C118.779 19.672 118.875 19.76 119.067 19.76H120.939C121.275 19.76 121.443 19.928 121.443 20.264V21.92C121.443 22.096 121.403 22.224 121.323 22.304C121.259 22.368 121.131 22.4 120.939 22.4H119.067C118.875 22.4 118.779 22.488 118.779 22.664V27.968C118.779 28.464 118.891 28.824 119.115 29.048C119.339 29.256 119.707 29.36 120.219 29.36H121.179C121.515 29.36 121.683 29.528 121.683 29.864V31.52C121.683 31.696 121.643 31.824 121.563 31.904C121.499 31.968 121.371 32 121.179 32H119.715C118.451 32 117.467 31.664 116.763 30.992C116.075 30.32 115.731 29.36 115.731 28.112V22.664C115.731 22.488 115.643 22.4 115.467 22.4ZM132.688 32H127.384C126.12 32 125.144 31.664 124.456 30.992C123.768 30.32 123.424 29.352 123.424 28.088V23.672C123.424 22.408 123.768 21.44 124.456 20.768C125.144 20.096 126.12 19.76 127.384 19.76H129.28C130.544 19.76 131.52 20.096 132.208 20.768C132.896 21.44 133.24 22.408 133.24 23.672V26.72C133.24 27.056 133.072 27.224 132.736 27.224H126.712C126.52 27.224 126.424 27.312 126.424 27.488V28.016C126.424 28.512 126.528 28.872 126.736 29.096C126.96 29.304 127.328 29.408 127.84 29.408H132.688C133.024 29.408 133.192 29.584 133.192 29.936V31.52C133.192 31.696 133.152 31.824 133.072 31.904C133.008 31.968 132.88 32 132.688 32ZM126.712 25.184H129.976C130.152 25.184 130.24 25.096 130.24 24.92V23.768C130.24 23.256 130.136 22.896 129.928 22.688C129.72 22.48 129.36 22.376 128.848 22.376H127.84C127.328 22.376 126.968 22.48 126.76 22.688C126.552 22.896 126.448 23.256 126.448 23.768V24.92C126.448 25.096 126.536 25.184 126.712 25.184ZM138.067 32H136.027C135.691 32 135.523 31.832 135.523 31.496V20.264C135.523 19.928 135.691 19.76 136.027 19.76H138.067C138.403 19.76 138.571 19.928 138.571 20.264V21.08H138.667C138.843 20.648 139.155 20.32 139.603 20.096C140.051 19.872 140.523 19.76 141.019 19.76H141.883C142.203 19.76 142.363 19.928 142.363 20.264V21.92C142.363 22.112 142.323 22.248 142.243 22.328C142.179 22.392 142.059 22.416 141.883 22.4H140.227C139.123 22.4 138.571 23.024 138.571 24.272V31.496C138.571 31.832 138.403 32 138.067 32ZM149.428 22.4H148.468C148.276 22.4 148.14 22.368 148.06 22.304C147.996 22.24 147.964 22.112 147.964 21.92V20.264C147.964 19.928 148.132 19.76 148.468 19.76H149.428C149.604 19.76 149.692 19.672 149.692 19.496V17.216C149.692 16.88 149.868 16.712 150.22 16.712H152.236C152.572 16.712 152.74 16.88 152.74 17.216V19.496C152.74 19.672 152.836 19.76 153.028 19.76H154.9C155.236 19.76 155.404 19.928 155.404 20.264V21.92C155.404 22.096 155.364 22.224 155.284 22.304C155.22 22.368 155.092 22.4 154.9 22.4H153.028C152.836 22.4 152.74 22.488 152.74 22.664V27.968C152.74 28.464 152.852 28.824 153.076 29.048C153.3 29.256 153.668 29.36 154.18 29.36H155.14C155.476 29.36 155.644 29.528 155.644 29.864V31.52C155.644 31.696 155.604 31.824 155.524 31.904C155.46 31.968 155.332 32 155.14 32H153.676C152.412 32 151.428 31.664 150.724 30.992C150.036 30.32 149.692 29.36 149.692 28.112V22.664C149.692 22.488 149.604 22.4 149.428 22.4ZM163.481 32H161.345C160.081 32 159.105 31.664 158.417 30.992C157.729 30.32 157.385 29.352 157.385 28.088V23.672C157.385 22.408 157.729 21.44 158.417 20.768C159.105 20.096 160.081 19.76 161.345 19.76H163.481C164.729 19.76 165.697 20.104 166.385 20.792C167.089 21.464 167.441 22.424 167.441 23.672V28.088C167.441 29.336 167.089 30.304 166.385 30.992C165.697 31.664 164.729 32 163.481 32ZM161.801 29.384H163.025C163.537 29.384 163.897 29.28 164.105 29.072C164.329 28.864 164.441 28.504 164.441 27.992V23.768C164.441 23.256 164.329 22.896 164.105 22.688C163.897 22.48 163.537 22.376 163.025 22.376H161.801C161.289 22.376 160.929 22.48 160.721 22.688C160.513 22.896 160.409 23.256 160.409 23.768V27.992C160.409 28.504 160.513 28.864 160.721 29.072C160.929 29.28 161.289 29.384 161.801 29.384ZM177.893 32H175.853C175.517 32 175.349 31.832 175.349 31.496V17.072C175.349 16.736 175.517 16.568 175.853 16.568H177.893C178.229 16.568 178.397 16.736 178.397 17.072V22.712C178.397 22.888 178.493 22.976 178.685 22.976H182.741C182.917 22.976 183.005 22.888 183.005 22.712V17.072C183.005 16.736 183.173 16.568 183.509 16.568H185.549C185.885 16.568 186.053 16.736 186.053 17.072V31.496C186.053 31.832 185.885 32 185.549 32H183.509C183.173 32 183.005 31.832 183.005 31.496V25.88C183.005 25.704 182.917 25.616 182.741 25.616H178.685C178.493 25.616 178.397 25.704 178.397 25.88V31.496C178.397 31.832 178.229 32 177.893 32ZM194.793 32H192.657C191.393 32 190.417 31.664 189.729 30.992C189.041 30.32 188.697 29.352 188.697 28.088V23.672C188.697 22.408 189.041 21.44 189.729 20.768C190.417 20.096 191.393 19.76 192.657 19.76H194.793C196.041 19.76 197.009 20.104 197.697 20.792C198.401 21.464 198.753 22.424 198.753 23.672V28.088C198.753 29.336 198.401 30.304 197.697 30.992C197.009 31.664 196.041 32 194.793 32ZM193.113 29.384H194.337C194.849 29.384 195.209 29.28 195.417 29.072C195.641 28.864 195.753 28.504 195.753 27.992V23.768C195.753 23.256 195.641 22.896 195.417 22.688C195.209 22.48 194.849 22.376 194.337 22.376H193.113C192.601 22.376 192.241 22.48 192.033 22.688C191.825 22.896 191.721 23.256 191.721 23.768V27.992C191.721 28.504 191.825 28.864 192.033 29.072C192.241 29.28 192.601 29.384 193.113 29.384ZM203.692 32H201.652C201.316 32 201.148 31.832 201.148 31.496V20.264C201.148 19.928 201.316 19.76 201.652 19.76H203.692C204.028 19.76 204.196 19.928 204.196 20.264V21.056H204.292C204.484 20.672 204.804 20.36 205.252 20.12C205.716 19.88 206.244 19.76 206.836 19.76H207.508C208.9 19.76 209.9 20.272 210.508 21.296C211.052 20.272 211.988 19.76 213.316 19.76H214.012C215.244 19.76 216.172 20.096 216.796 20.768C217.436 21.44 217.756 22.408 217.756 23.672V31.496C217.756 31.832 217.588 32 217.252 32H215.212C214.876 32 214.708 31.832 214.708 31.496V23.816C214.708 23.304 214.604 22.944 214.396 22.736C214.188 22.512 213.828 22.4 213.316 22.4H212.716C211.612 22.4 211.06 23.016 211.06 24.248V31.496C211.06 31.832 210.884 32 210.532 32H208.516C208.18 32 208.012 31.832 208.012 31.496V23.816C208.012 23.304 207.9 22.944 207.676 22.736C207.468 22.512 207.108 22.4 206.596 22.4H205.852C204.748 22.4 204.196 23.008 204.196 24.224V31.496C204.196 31.832 204.028 32 203.692 32ZM229.321 32H224.017C222.753 32 221.777 31.664 221.089 30.992C220.401 30.32 220.057 29.352 220.057 28.088V23.672C220.057 22.408 220.401 21.44 221.089 20.768C221.777 20.096 222.753 19.76 224.017 19.76H225.913C227.177 19.76 228.153 20.096 228.841 20.768C229.529 21.44 229.873 22.408 229.873 23.672V26.72C229.873 27.056 229.705 27.224 229.369 27.224H223.345C223.153 27.224 223.057 27.312 223.057 27.488V28.016C223.057 28.512 223.161 28.872 223.369 29.096C223.593 29.304 223.961 29.408 224.473 29.408H229.321C229.657 29.408 229.825 29.584 229.825 29.936V31.52C229.825 31.696 229.785 31.824 229.705 31.904C229.641 31.968 229.513 32 229.321 32ZM223.345 25.184H226.609C226.785 25.184 226.873 25.096 226.873 24.92V23.768C226.873 23.256 226.769 22.896 226.561 22.688C226.353 22.48 225.993 22.376 225.481 22.376H224.473C223.961 22.376 223.601 22.48 223.393 22.688C223.185 22.896 223.081 23.256 223.081 23.768V24.92C223.081 25.096 223.169 25.184 223.345 25.184ZM238.9 27.512V22.664C238.9 22.488 238.804 22.4 238.612 22.4H236.356C235.844 22.4 235.484 22.512 235.276 22.736C235.068 22.944 234.964 23.304 234.964 23.816V27.944C234.964 28.456 235.068 28.824 235.276 29.048C235.484 29.256 235.844 29.36 236.356 29.36H237.22C238.34 29.36 238.9 28.744 238.9 27.512ZM236.428 32H235.876C234.612 32 233.636 31.664 232.948 30.992C232.26 30.32 231.916 29.352 231.916 28.088V23.672C231.916 22.408 232.26 21.44 232.948 20.768C233.636 20.096 234.612 19.76 235.876 19.76H241.42C241.772 19.76 241.948 19.928 241.948 20.264V34.784C241.948 35.104 241.772 35.264 241.42 35.264H239.404C239.068 35.264 238.9 35.104 238.9 34.784V30.68H238.804C238.42 31.56 237.628 32 236.428 32ZM248.994 32H248.202C246.97 32 246.034 31.664 245.394 30.992C244.77 30.32 244.458 29.352 244.458 28.088V20.264C244.458 19.928 244.626 19.76 244.962 19.76H247.002C247.338 19.76 247.506 19.928 247.506 20.264V27.944C247.506 28.456 247.61 28.824 247.818 29.048C248.042 29.256 248.402 29.36 248.898 29.36H249.786C250.89 29.36 251.442 28.752 251.442 27.536V20.264C251.442 19.928 251.61 19.76 251.946 19.76H253.962C254.314 19.76 254.49 19.928 254.49 20.264V31.496C254.49 31.832 254.314 32 253.962 32H251.946C251.61 32 251.442 31.832 251.442 31.496V30.704H251.346C251.17 31.136 250.858 31.464 250.41 31.688C249.962 31.896 249.49 32 248.994 32ZM260.452 29.36H262.9C263.412 29.36 263.772 29.256 263.98 29.048C264.204 28.824 264.316 28.456 264.316 27.944V23.768C264.316 23.256 264.204 22.896 263.98 22.688C263.772 22.464 263.412 22.352 262.9 22.352H261.844C260.74 22.352 260.188 22.96 260.188 24.176V29.096C260.188 29.272 260.276 29.36 260.452 29.36ZM257.14 31.496V15.632C257.14 15.296 257.308 15.128 257.644 15.128H259.684C260.02 15.128 260.188 15.296 260.188 15.632V21.032H260.284C260.46 20.6 260.772 20.272 261.22 20.048C261.668 19.824 262.14 19.712 262.636 19.712H263.404C264.668 19.712 265.644 20.048 266.332 20.72C267.02 21.392 267.364 22.36 267.364 23.624V28.088C267.364 29.352 267.02 30.32 266.332 30.992C265.644 31.664 264.668 32 263.404 32H257.644C257.308 32 257.14 31.832 257.14 31.496ZM278.797 32H273.493C272.229 32 271.253 31.664 270.565 30.992C269.877 30.32 269.533 29.352 269.533 28.088V23.672C269.533 22.408 269.877 21.44 270.565 20.768C271.253 20.096 272.229 19.76 273.493 19.76H275.389C276.653 19.76 277.629 20.096 278.317 20.768C279.005 21.44 279.349 22.408 279.349 23.672V26.72C279.349 27.056 279.181 27.224 278.845 27.224H272.821C272.629 27.224 272.533 27.312 272.533 27.488V28.016C272.533 28.512 272.637 28.872 272.845 29.096C273.069 29.304 273.437 29.408 273.949 29.408H278.797C279.133 29.408 279.301 29.584 279.301 29.936V31.52C279.301 31.696 279.261 31.824 279.181 31.904C279.117 31.968 278.989 32 278.797 32ZM272.821 25.184H276.085C276.261 25.184 276.349 25.096 276.349 24.92V23.768C276.349 23.256 276.245 22.896 276.037 22.688C275.829 22.48 275.469 22.376 274.957 22.376H273.949C273.437 22.376 273.077 22.48 272.869 22.688C272.661 22.896 272.557 23.256 272.557 23.768V24.92C272.557 25.096 272.645 25.184 272.821 25.184ZM291.202 32H290.626C289.362 32 288.386 31.664 287.698 30.992C287.01 30.32 286.666 29.352 286.666 28.088V23.672C286.666 22.408 287.01 21.44 287.698 20.768C288.386 20.096 289.362 19.76 290.626 19.76H296.17C296.522 19.76 296.698 19.928 296.698 20.264V31.496C296.698 31.832 296.522 32 296.17 32H294.154C293.818 32 293.65 31.832 293.65 31.496V30.704H293.554C293.378 31.136 293.066 31.464 292.618 31.688C292.17 31.896 291.698 32 291.202 32ZM293.65 27.536V22.664C293.65 22.488 293.554 22.4 293.362 22.4H291.106C290.594 22.4 290.234 22.512 290.026 22.736C289.818 22.944 289.714 23.304 289.714 23.816V27.944C289.714 28.456 289.818 28.824 290.026 29.048C290.234 29.256 290.594 29.36 291.106 29.36H291.994C293.098 29.36 293.65 28.752 293.65 27.536ZM303.96 32H299.4C299.08 32 298.92 31.832 298.92 31.496V29.96C298.92 29.784 298.952 29.664 299.016 29.6C299.08 29.52 299.208 29.48 299.4 29.48H303.408C304.192 29.48 304.584 29.24 304.584 28.76V28.64C304.584 28.256 304.256 27.888 303.6 27.536L301.224 26.216C300.408 25.8 299.808 25.352 299.424 24.872C299.04 24.392 298.848 23.776 298.848 23.024C298.848 21.904 299.144 21.08 299.736 20.552C300.328 20.024 301.256 19.76 302.52 19.76H306.528C306.848 19.76 307.008 19.928 307.008 20.264V21.824C307.008 22 306.976 22.128 306.912 22.208C306.848 22.272 306.72 22.304 306.528 22.304H303.192C302.408 22.304 302.016 22.504 302.016 22.904V23.024C302.016 23.376 302.36 23.736 303.048 24.104L305.472 25.544C306.304 25.992 306.888 26.456 307.224 26.936C307.56 27.4 307.728 28.016 307.728 28.784C307.728 30.928 306.472 32 303.96 32ZM323.261 16.568H325.277C325.629 16.568 325.805 16.728 325.805 17.048V28.088C325.805 29.336 325.453 30.304 324.749 30.992C324.061 31.664 323.093 32 321.845 32H319.205C317.941 32 316.965 31.664 316.277 30.992C315.589 30.32 315.245 29.352 315.245 28.088V17.072C315.245 16.736 315.413 16.568 315.749 16.568H317.789C318.125 16.568 318.293 16.736 318.293 17.072V27.944C318.293 28.456 318.397 28.824 318.605 29.048C318.829 29.256 319.189 29.36 319.685 29.36H321.341C321.853 29.36 322.213 29.256 322.421 29.048C322.645 28.824 322.757 28.456 322.757 27.944V17.072C322.757 16.736 322.925 16.568 323.261 16.568ZM333.186 32H328.626C328.306 32 328.146 31.832 328.146 31.496V29.96C328.146 29.784 328.178 29.664 328.242 29.6C328.306 29.52 328.434 29.48 328.626 29.48H332.634C333.418 29.48 333.81 29.24 333.81 28.76V28.64C333.81 28.256 333.482 27.888 332.826 27.536L330.45 26.216C329.634 25.8 329.034 25.352 328.65 24.872C328.266 24.392 328.074 23.776 328.074 23.024C328.074 21.904 328.37 21.08 328.962 20.552C329.554 20.024 330.482 19.76 331.746 19.76H335.754C336.074 19.76 336.234 19.928 336.234 20.264V21.824C336.234 22 336.202 22.128 336.138 22.208C336.074 22.272 335.946 22.304 335.754 22.304H332.418C331.634 22.304 331.242 22.504 331.242 22.904V23.024C331.242 23.376 331.586 23.736 332.274 24.104L334.698 25.544C335.53 25.992 336.114 26.456 336.45 26.936C336.786 27.4 336.954 28.016 336.954 28.784C336.954 30.928 335.698 32 333.186 32ZM348.102 32H342.798C341.534 32 340.558 31.664 339.87 30.992C339.182 30.32 338.838 29.352 338.838 28.088V23.672C338.838 22.408 339.182 21.44 339.87 20.768C340.558 20.096 341.534 19.76 342.798 19.76H344.694C345.958 19.76 346.934 20.096 347.622 20.768C348.31 21.44 348.654 22.408 348.654 23.672V26.72C348.654 27.056 348.486 27.224 348.15 27.224H342.126C341.934 27.224 341.838 27.312 341.838 27.488V28.016C341.838 28.512 341.942 28.872 342.15 29.096C342.374 29.304 342.742 29.408 343.254 29.408H348.102C348.438 29.408 348.606 29.584 348.606 29.936V31.52C348.606 31.696 348.566 31.824 348.486 31.904C348.422 31.968 348.294 32 348.102 32ZM342.126 25.184H345.39C345.566 25.184 345.654 25.096 345.654 24.92V23.768C345.654 23.256 345.55 22.896 345.342 22.688C345.134 22.48 344.774 22.376 344.262 22.376H343.254C342.742 22.376 342.382 22.48 342.174 22.688C341.966 22.896 341.862 23.256 341.862 23.768V24.92C341.862 25.096 341.95 25.184 342.126 25.184ZM353.481 32H351.441C351.105 32 350.937 31.832 350.937 31.496V20.264C350.937 19.928 351.105 19.76 351.441 19.76H353.481C353.817 19.76 353.985 19.928 353.985 20.264V21.08H354.081C354.257 20.648 354.569 20.32 355.017 20.096C355.465 19.872 355.937 19.76 356.433 19.76H357.297C357.617 19.76 357.777 19.928 357.777 20.264V21.92C357.777 22.112 357.737 22.248 357.657 22.328C357.593 22.392 357.473 22.416 357.297 22.4H355.641C354.537 22.4 353.985 23.024 353.985 24.272V31.496C353.985 31.832 353.817 32 353.481 32Z" fill="#5A5A5A"/>
<path d="M69.912 92H62.064C61.728 92 61.56 91.832 61.56 91.496V77.072C61.56 76.736 61.728 76.568 62.064 76.568H69.912C70.232 76.568 70.392 76.736 70.392 77.072V78.704C70.392 79.04 70.232 79.208 69.912 79.208H64.896C64.704 79.208 64.608 79.296 64.608 79.472V82.592C64.608 82.768 64.704 82.856 64.896 82.856H69C69.336 82.856 69.504 83.024 69.504 83.36V84.992C69.504 85.328 69.336 85.496 69 85.496H64.896C64.704 85.496 64.608 85.584 64.608 85.76V89.096C64.608 89.272 64.704 89.36 64.896 89.36H69.912C70.232 89.36 70.392 89.528 70.392 89.864V91.496C70.392 91.832 70.232 92 69.912 92ZM74.7724 92H72.3484C71.9324 92 71.8204 91.832 72.0124 91.496L75.0364 85.76L72.0124 80.264C71.8524 79.928 71.9484 79.76 72.3004 79.76H74.7484C75.1324 79.76 75.3804 79.928 75.4924 80.264L77.0044 83.912H77.1004L78.4204 80.264C78.5324 79.928 78.7804 79.76 79.1644 79.76H81.5644C81.9804 79.76 82.0844 79.928 81.8764 80.264L78.9964 85.76L82.0924 91.496C82.1724 91.64 82.1804 91.76 82.1164 91.856C82.0684 91.952 81.9644 92 81.8044 92H79.3324C78.9964 92 78.7564 91.832 78.6124 91.496L77.1004 87.824H77.0044L75.4924 91.496C75.3804 91.832 75.1404 92 74.7724 92ZM86.4343 95.264H84.3943C84.0583 95.264 83.8903 95.104 83.8903 94.784V80.264C83.8903 79.928 84.0583 79.76 84.3943 79.76H86.4343C86.7703 79.76 86.9383 79.928 86.9383 80.264V81.056H87.0343C87.2103 80.624 87.5223 80.304 87.9703 80.096C88.4183 79.872 88.8903 79.76 89.3863 79.76H90.3703C91.6023 79.76 92.5303 80.096 93.1543 80.768C93.7943 81.44 94.1143 82.408 94.1143 83.672V88.088C94.1143 89.352 93.7943 90.32 93.1543 90.992C92.5303 91.664 91.6023 92 90.3703 92H89.3863C88.8903 92 88.4183 91.896 87.9703 91.688C87.5223 91.464 87.2103 91.136 87.0343 90.704H86.9383V94.784C86.9383 95.104 86.7703 95.264 86.4343 95.264ZM88.5943 89.36H89.6503C90.1623 89.36 90.5223 89.256 90.7303 89.048C90.9543 88.824 91.0663 88.456 91.0663 87.944V83.816C91.0663 83.304 90.9543 82.944 90.7303 82.736C90.5223 82.512 90.1623 82.4 89.6503 82.4H88.5943C87.4903 82.4 86.9383 83.008 86.9383 84.224V87.536C86.9383 88.752 87.4903 89.36 88.5943 89.36ZM99.1871 92H97.1471C96.8111 92 96.6431 91.832 96.6431 91.496V75.632C96.6431 75.296 96.8111 75.128 97.1471 75.128H99.1871C99.5231 75.128 99.6911 75.296 99.6911 75.632V91.496C99.6911 91.832 99.5231 92 99.1871 92ZM108.309 92H106.173C104.909 92 103.933 91.664 103.245 90.992C102.557 90.32 102.213 89.352 102.213 88.088V83.672C102.213 82.408 102.557 81.44 103.245 80.768C103.933 80.096 104.909 79.76 106.173 79.76H108.309C109.557 79.76 110.525 80.104 111.213 80.792C111.917 81.464 112.269 82.424 112.269 83.672V88.088C112.269 89.336 111.917 90.304 111.213 90.992C110.525 91.664 109.557 92 108.309 92ZM106.629 89.384H107.853C108.365 89.384 108.725 89.28 108.933 89.072C109.157 88.864 109.269 88.504 109.269 87.992V83.768C109.269 83.256 109.157 82.896 108.933 82.688C108.725 82.48 108.365 82.376 107.853 82.376H106.629C106.117 82.376 105.757 82.48 105.549 82.688C105.341 82.896 105.237 83.256 105.237 83.768V87.992C105.237 88.504 105.341 88.864 105.549 89.072C105.757 89.28 106.117 89.384 106.629 89.384ZM117.208 92H115.168C114.832 92 114.664 91.832 114.664 91.496V80.264C114.664 79.928 114.832 79.76 115.168 79.76H117.208C117.544 79.76 117.712 79.928 117.712 80.264V81.08H117.808C117.984 80.648 118.296 80.32 118.744 80.096C119.192 79.872 119.664 79.76 120.16 79.76H121.024C121.344 79.76 121.504 79.928 121.504 80.264V81.92C121.504 82.112 121.464 82.248 121.384 82.328C121.32 82.392 121.2 82.416 121.024 82.4H119.368C118.264 82.4 117.712 83.024 117.712 84.272V91.496C117.712 91.832 117.544 92 117.208 92ZM132.055 92H126.751C125.487 92 124.511 91.664 123.823 90.992C123.135 90.32 122.791 89.352 122.791 88.088V83.672C122.791 82.408 123.135 81.44 123.823 80.768C124.511 80.096 125.487 79.76 126.751 79.76H128.647C129.911 79.76 130.887 80.096 131.575 80.768C132.263 81.44 132.607 82.408 132.607 83.672V86.72C132.607 87.056 132.439 87.224 132.103 87.224H126.079C125.887 87.224 125.791 87.312 125.791 87.488V88.016C125.791 88.512 125.895 88.872 126.103 89.096C126.327 89.304 126.695 89.408 127.207 89.408H132.055C132.391 89.408 132.559 89.584 132.559 89.936V91.52C132.559 91.696 132.519 91.824 132.439 91.904C132.375 91.968 132.247 92 132.055 92ZM126.079 85.184H129.343C129.519 85.184 129.607 85.096 129.607 84.92V83.768C129.607 83.256 129.503 82.896 129.295 82.688C129.087 82.48 128.727 82.376 128.215 82.376H127.207C126.695 82.376 126.335 82.48 126.127 82.688C125.919 82.896 125.815 83.256 125.815 83.768V84.92C125.815 85.096 125.903 85.184 126.079 85.184ZM140.428 82.4H139.468C139.276 82.4 139.14 82.368 139.06 82.304C138.996 82.24 138.964 82.112 138.964 81.92V80.264C138.964 79.928 139.132 79.76 139.468 79.76H140.428C140.604 79.76 140.692 79.672 140.692 79.496V77.216C140.692 76.88 140.868 76.712 141.22 76.712H143.236C143.572 76.712 143.74 76.88 143.74 77.216V79.496C143.74 79.672 143.836 79.76 144.028 79.76H145.9C146.236 79.76 146.404 79.928 146.404 80.264V81.92C146.404 82.096 146.364 82.224 146.284 82.304C146.22 82.368 146.092 82.4 145.9 82.4H144.028C143.836 82.4 143.74 82.488 143.74 82.664V87.968C143.74 88.464 143.852 88.824 144.076 89.048C144.3 89.256 144.668 89.36 145.18 89.36H146.14C146.476 89.36 146.644 89.528 146.644 89.864V91.52C146.644 91.696 146.604 91.824 146.524 91.904C146.46 91.968 146.332 92 146.14 92H144.676C143.412 92 142.428 91.664 141.724 90.992C141.036 90.32 140.692 89.36 140.692 88.112V82.664C140.692 82.488 140.604 82.4 140.428 82.4ZM151.169 92H149.129C148.793 92 148.625 91.832 148.625 91.496V75.632C148.625 75.296 148.793 75.128 149.129 75.128H151.169C151.505 75.128 151.673 75.296 151.673 75.632V81.056H151.769C152.121 80.192 152.905 79.76 154.121 79.76H154.889C157.401 79.76 158.657 81.064 158.657 83.672V91.496C158.657 91.832 158.481 92 158.129 92H156.113C155.777 92 155.609 91.832 155.609 91.496V83.816C155.609 83.304 155.497 82.944 155.273 82.736C155.065 82.512 154.705 82.4 154.193 82.4H153.329C152.225 82.4 151.673 83.008 151.673 84.224V91.496C151.673 91.832 151.505 92 151.169 92ZM170.211 92H164.907C163.643 92 162.667 91.664 161.979 90.992C161.291 90.32 160.947 89.352 160.947 88.088V83.672C160.947 82.408 161.291 81.44 161.979 80.768C162.667 80.096 163.643 79.76 164.907 79.76H166.803C168.067 79.76 169.043 80.096 169.731 80.768C170.419 81.44 170.763 82.408 170.763 83.672V86.72C170.763 87.056 170.595 87.224 170.259 87.224H164.235C164.043 87.224 163.947 87.312 163.947 87.488V88.016C163.947 88.512 164.051 88.872 164.259 89.096C164.483 89.304 164.851 89.408 165.363 89.408H170.211C170.547 89.408 170.715 89.584 170.715 89.936V91.52C170.715 91.696 170.675 91.824 170.595 91.904C170.531 91.968 170.403 92 170.211 92ZM164.235 85.184H167.499C167.675 85.184 167.763 85.096 167.763 84.92V83.768C167.763 83.256 167.659 82.896 167.451 82.688C167.243 82.48 166.883 82.376 166.371 82.376H165.363C164.851 82.376 164.491 82.48 164.283 82.688C164.075 82.896 163.971 83.256 163.971 83.768V84.92C163.971 85.096 164.059 85.184 164.235 85.184ZM181.872 89.36H184.488C185 89.36 185.36 89.256 185.568 89.048C185.792 88.824 185.904 88.456 185.904 87.944V80.624C185.904 80.112 185.792 79.752 185.568 79.544C185.36 79.32 185 79.208 184.488 79.208H181.872C181.696 79.208 181.608 79.296 181.608 79.472V89.096C181.608 89.272 181.696 89.36 181.872 89.36ZM178.56 91.496V77.072C178.56 76.736 178.728 76.568 179.064 76.568H184.992C186.24 76.568 187.208 76.912 187.896 77.6C188.6 78.272 188.952 79.232 188.952 80.48V88.088C188.952 89.336 188.6 90.304 187.896 90.992C187.208 91.664 186.24 92 184.992 92H179.064C178.728 92 178.56 91.832 178.56 91.496ZM195.882 92H195.306C194.042 92 193.066 91.664 192.378 90.992C191.69 90.32 191.346 89.352 191.346 88.088V83.672C191.346 82.408 191.69 81.44 192.378 80.768C193.066 80.096 194.042 79.76 195.306 79.76H200.85C201.202 79.76 201.378 79.928 201.378 80.264V91.496C201.378 91.832 201.202 92 200.85 92H198.834C198.498 92 198.33 91.832 198.33 91.496V90.704H198.234C198.058 91.136 197.746 91.464 197.298 91.688C196.85 91.896 196.378 92 195.882 92ZM198.33 87.536V82.664C198.33 82.488 198.234 82.4 198.042 82.4H195.786C195.274 82.4 194.914 82.512 194.706 82.736C194.498 82.944 194.394 83.304 194.394 83.816V87.944C194.394 88.456 194.498 88.824 194.706 89.048C194.914 89.256 195.274 89.36 195.786 89.36H196.674C197.778 89.36 198.33 88.752 198.33 87.536ZM208.64 92H204.08C203.76 92 203.6 91.832 203.6 91.496V89.96C203.6 89.784 203.632 89.664 203.696 89.6C203.76 89.52 203.888 89.48 204.08 89.48H208.088C208.872 89.48 209.264 89.24 209.264 88.76V88.64C209.264 88.256 208.936 87.888 208.28 87.536L205.904 86.216C205.088 85.8 204.488 85.352 204.104 84.872C203.72 84.392 203.528 83.776 203.528 83.024C203.528 81.904 203.824 81.08 204.416 80.552C205.008 80.024 205.936 79.76 207.2 79.76H211.208C211.528 79.76 211.688 79.928 211.688 80.264V81.824C211.688 82 211.656 82.128 211.592 82.208C211.528 82.272 211.4 82.304 211.208 82.304H207.872C207.088 82.304 206.696 82.504 206.696 82.904V83.024C206.696 83.376 207.04 83.736 207.728 84.104L210.152 85.544C210.984 85.992 211.568 86.456 211.904 86.936C212.24 87.4 212.408 88.016 212.408 88.784C212.408 90.928 211.152 92 208.64 92ZM217.075 92H215.035C214.699 92 214.531 91.832 214.531 91.496V75.632C214.531 75.296 214.699 75.128 215.035 75.128H217.075C217.411 75.128 217.579 75.296 217.579 75.632V81.056H217.675C218.027 80.192 218.811 79.76 220.027 79.76H220.795C223.307 79.76 224.563 81.064 224.563 83.672V91.496C224.563 91.832 224.387 92 224.035 92H222.019C221.683 92 221.515 91.832 221.515 91.496V83.816C221.515 83.304 221.403 82.944 221.179 82.736C220.971 82.512 220.611 82.4 220.099 82.4H219.235C218.131 82.4 217.579 83.008 217.579 84.224V91.496C217.579 91.832 217.411 92 217.075 92ZM230.405 89.36H232.853C233.365 89.36 233.725 89.256 233.933 89.048C234.157 88.824 234.269 88.456 234.269 87.944V83.768C234.269 83.256 234.157 82.896 233.933 82.688C233.725 82.464 233.365 82.352 232.853 82.352H231.797C230.693 82.352 230.141 82.96 230.141 84.176V89.096C230.141 89.272 230.229 89.36 230.405 89.36ZM227.093 91.496V75.632C227.093 75.296 227.261 75.128 227.597 75.128H229.637C229.973 75.128 230.141 75.296 230.141 75.632V81.032H230.237C230.413 80.6 230.725 80.272 231.173 80.048C231.621 79.824 232.093 79.712 232.589 79.712H233.357C234.621 79.712 235.597 80.048 236.285 80.72C236.973 81.392 237.317 82.36 237.317 83.624V88.088C237.317 89.352 236.973 90.32 236.285 90.992C235.597 91.664 234.621 92 233.357 92H227.597C227.261 92 227.093 91.832 227.093 91.496ZM245.582 92H243.446C242.182 92 241.206 91.664 240.518 90.992C239.83 90.32 239.486 89.352 239.486 88.088V83.672C239.486 82.408 239.83 81.44 240.518 80.768C241.206 80.096 242.182 79.76 243.446 79.76H245.582C246.83 79.76 247.798 80.104 248.486 80.792C249.19 81.464 249.542 82.424 249.542 83.672V88.088C249.542 89.336 249.19 90.304 248.486 90.992C247.798 91.664 246.83 92 245.582 92ZM243.902 89.384H245.126C245.638 89.384 245.998 89.28 246.206 89.072C246.43 88.864 246.542 88.504 246.542 87.992V83.768C246.542 83.256 246.43 82.896 246.206 82.688C245.998 82.48 245.638 82.376 245.126 82.376H243.902C243.39 82.376 243.03 82.48 242.822 82.688C242.614 82.896 242.51 83.256 242.51 83.768V87.992C242.51 88.504 242.614 88.864 242.822 89.072C243.03 89.28 243.39 89.384 243.902 89.384ZM256.233 92H255.657C254.393 92 253.417 91.664 252.729 90.992C252.041 90.32 251.697 89.352 251.697 88.088V83.672C251.697 82.408 252.041 81.44 252.729 80.768C253.417 80.096 254.393 79.76 255.657 79.76H261.201C261.553 79.76 261.729 79.928 261.729 80.264V91.496C261.729 91.832 261.553 92 261.201 92H259.185C258.849 92 258.681 91.832 258.681 91.496V90.704H258.585C258.409 91.136 258.097 91.464 257.649 91.688C257.201 91.896 256.729 92 256.233 92ZM258.681 87.536V82.664C258.681 82.488 258.585 82.4 258.393 82.4H256.137C255.625 82.4 255.265 82.512 255.057 82.736C254.849 82.944 254.745 83.304 254.745 83.816V87.944C254.745 88.456 254.849 88.824 255.057 89.048C255.265 89.256 255.625 89.36 256.137 89.36H257.025C258.129 89.36 258.681 88.752 258.681 87.536ZM266.903 92H264.863C264.527 92 264.359 91.832 264.359 91.496V80.264C264.359 79.928 264.527 79.76 264.863 79.76H266.903C267.239 79.76 267.407 79.928 267.407 80.264V81.08H267.503C267.679 80.648 267.991 80.32 268.439 80.096C268.887 79.872 269.359 79.76 269.855 79.76H270.719C271.039 79.76 271.199 79.928 271.199 80.264V81.92C271.199 82.112 271.159 82.248 271.079 82.328C271.015 82.392 270.895 82.416 270.719 82.4H269.063C267.959 82.4 267.407 83.024 267.407 84.272V91.496C267.407 91.832 267.239 92 266.903 92ZM277.214 92H276.23C274.998 92 274.062 91.664 273.422 90.992C272.798 90.32 272.486 89.352 272.486 88.088V83.672C272.486 82.408 272.798 81.44 273.422 80.768C274.062 80.096 274.998 79.76 276.23 79.76H277.214C277.71 79.76 278.182 79.872 278.63 80.096C279.078 80.304 279.39 80.624 279.566 81.056H279.662V75.632C279.662 75.296 279.83 75.128 280.166 75.128H282.206C282.542 75.128 282.71 75.296 282.71 75.632V91.496C282.71 91.832 282.542 92 282.206 92H280.166C279.83 92 279.662 91.832 279.662 91.496V90.704H279.566C279.39 91.136 279.078 91.464 278.63 91.688C278.182 91.896 277.71 92 277.214 92ZM279.662 87.536V84.224C279.662 83.008 279.11 82.4 278.006 82.4H276.926C276.414 82.4 276.054 82.512 275.846 82.736C275.638 82.944 275.534 83.304 275.534 83.816V87.944C275.534 88.456 275.638 88.824 275.846 89.048C276.054 89.256 276.414 89.36 276.926 89.36H278.006C279.11 89.36 279.662 88.752 279.662 87.536Z" fill="#5A5A5A"/>
<path d="M64.728 137.072V151.496C64.728 151.832 64.56 152 64.224 152H62.184C61.848 152 61.68 151.832 61.68 151.496V137.072C61.68 136.736 61.848 136.568 62.184 136.568H64.224C64.56 136.568 64.728 136.736 64.728 137.072ZM70.2624 152H68.2224C67.8864 152 67.7184 151.832 67.7184 151.496V140.264C67.7184 139.928 67.8864 139.76 68.2224 139.76H70.2624C70.5984 139.76 70.7664 139.928 70.7664 140.264V141.056H70.8624C71.2144 140.192 71.9984 139.76 73.2144 139.76H73.9824C76.4944 139.76 77.7504 141.064 77.7504 143.672V151.496C77.7504 151.832 77.5744 152 77.2224 152H75.2064C74.8704 152 74.7024 151.832 74.7024 151.496V143.816C74.7024 143.304 74.5904 142.944 74.3664 142.736C74.1584 142.512 73.7984 142.4 73.2864 142.4H72.4224C71.3184 142.4 70.7664 143.008 70.7664 144.224V151.496C70.7664 151.832 70.5984 152 70.2624 152ZM82.8249 155.264H80.7849C80.4489 155.264 80.2809 155.104 80.2809 154.784V140.264C80.2809 139.928 80.4489 139.76 80.7849 139.76H82.8249C83.1609 139.76 83.3289 139.928 83.3289 140.264V141.056H83.4249C83.6009 140.624 83.9129 140.304 84.3609 140.096C84.8089 139.872 85.2809 139.76 85.7769 139.76H86.7609C87.9929 139.76 88.9209 140.096 89.5449 140.768C90.1849 141.44 90.5049 142.408 90.5049 143.672V148.088C90.5049 149.352 90.1849 150.32 89.5449 150.992C88.9209 151.664 87.9929 152 86.7609 152H85.7769C85.2809 152 84.8089 151.896 84.3609 151.688C83.9129 151.464 83.6009 151.136 83.4249 150.704H83.3289V154.784C83.3289 155.104 83.1609 155.264 82.8249 155.264ZM84.9849 149.36H86.0409C86.5529 149.36 86.9129 149.256 87.1209 149.048C87.3449 148.824 87.4569 148.456 87.4569 147.944V143.816C87.4569 143.304 87.3449 142.944 87.1209 142.736C86.9129 142.512 86.5529 142.4 86.0409 142.4H84.9849C83.8809 142.4 83.3289 143.008 83.3289 144.224V147.536C83.3289 148.752 83.8809 149.36 84.9849 149.36ZM97.3298 152H96.5378C95.3058 152 94.3698 151.664 93.7298 150.992C93.1058 150.32 92.7938 149.352 92.7938 148.088V140.264C92.7938 139.928 92.9618 139.76 93.2978 139.76H95.3378C95.6738 139.76 95.8418 139.928 95.8418 140.264V147.944C95.8418 148.456 95.9458 148.824 96.1538 149.048C96.3778 149.256 96.7378 149.36 97.2338 149.36H98.1218C99.2258 149.36 99.7778 148.752 99.7778 147.536V140.264C99.7778 139.928 99.9458 139.76 100.282 139.76H102.298C102.65 139.76 102.826 139.928 102.826 140.264V151.496C102.826 151.832 102.65 152 102.298 152H100.282C99.9458 152 99.7778 151.832 99.7778 151.496V150.704H99.6818C99.5058 151.136 99.1938 151.464 98.7458 151.688C98.2978 151.896 97.8258 152 97.3298 152ZM105.74 142.4H104.78C104.588 142.4 104.452 142.368 104.372 142.304C104.308 142.24 104.276 142.112 104.276 141.92V140.264C104.276 139.928 104.444 139.76 104.78 139.76H105.74C105.916 139.76 106.004 139.672 106.004 139.496V137.216C106.004 136.88 106.18 136.712 106.532 136.712H108.548C108.884 136.712 109.052 136.88 109.052 137.216V139.496C109.052 139.672 109.148 139.76 109.34 139.76H111.212C111.548 139.76 111.716 139.928 111.716 140.264V141.92C111.716 142.096 111.676 142.224 111.596 142.304C111.532 142.368 111.404 142.4 111.212 142.4H109.34C109.148 142.4 109.052 142.488 109.052 142.664V147.968C109.052 148.464 109.164 148.824 109.388 149.048C109.612 149.256 109.98 149.36 110.492 149.36H111.452C111.788 149.36 111.956 149.528 111.956 149.864V151.52C111.956 151.696 111.916 151.824 111.836 151.904C111.772 151.968 111.644 152 111.452 152H109.988C108.724 152 107.74 151.664 107.036 150.992C106.348 150.32 106.004 149.36 106.004 148.112V142.664C106.004 142.488 105.916 142.4 105.74 142.4ZM121.203 156.056H119.667C119.347 156.056 119.187 155.88 119.187 155.528V153.92C119.187 153.568 119.347 153.392 119.667 153.392H120.171C121.179 153.392 121.859 153.248 122.211 152.96C122.579 152.688 122.859 152.152 123.051 151.352H121.779C121.475 151.352 121.275 151.184 121.179 150.848L118.371 140.264C118.275 139.928 118.395 139.76 118.731 139.76H120.867C121.187 139.76 121.387 139.928 121.467 140.264L123.531 149.12H123.627L125.667 140.264C125.731 139.928 125.931 139.76 126.267 139.76H128.283C128.683 139.76 128.843 139.936 128.763 140.288L125.835 152C125.483 153.328 124.939 154.336 124.203 155.024C123.467 155.712 122.467 156.056 121.203 156.056ZM136.364 152H134.228C132.964 152 131.988 151.664 131.3 150.992C130.612 150.32 130.268 149.352 130.268 148.088V143.672C130.268 142.408 130.612 141.44 131.3 140.768C131.988 140.096 132.964 139.76 134.228 139.76H136.364C137.612 139.76 138.58 140.104 139.268 140.792C139.972 141.464 140.324 142.424 140.324 143.672V148.088C140.324 149.336 139.972 150.304 139.268 150.992C138.58 151.664 137.612 152 136.364 152ZM134.684 149.384H135.908C136.42 149.384 136.78 149.28 136.988 149.072C137.212 148.864 137.324 148.504 137.324 147.992V143.768C137.324 143.256 137.212 142.896 136.988 142.688C136.78 142.48 136.42 142.376 135.908 142.376H134.684C134.172 142.376 133.812 142.48 133.604 142.688C133.396 142.896 133.292 143.256 133.292 143.768V147.992C133.292 148.504 133.396 148.864 133.604 149.072C133.812 149.28 134.172 149.384 134.684 149.384ZM147.134 152H146.342C145.11 152 144.174 151.664 143.534 150.992C142.91 150.32 142.598 149.352 142.598 148.088V140.264C142.598 139.928 142.766 139.76 143.102 139.76H145.142C145.478 139.76 145.646 139.928 145.646 140.264V147.944C145.646 148.456 145.75 148.824 145.958 149.048C146.182 149.256 146.542 149.36 147.038 149.36H147.926C149.03 149.36 149.582 148.752 149.582 147.536V140.264C149.582 139.928 149.75 139.76 150.086 139.76H152.102C152.454 139.76 152.63 139.928 152.63 140.264V151.496C152.63 151.832 152.454 152 152.102 152H150.086C149.75 152 149.582 151.832 149.582 151.496V150.704H149.486C149.31 151.136 148.998 151.464 148.55 151.688C148.102 151.896 147.63 152 147.134 152ZM157.825 152H155.785C155.449 152 155.281 151.832 155.281 151.496V140.264C155.281 139.928 155.449 139.76 155.785 139.76H157.825C158.161 139.76 158.329 139.928 158.329 140.264V141.08H158.425C158.601 140.648 158.913 140.32 159.361 140.096C159.809 139.872 160.281 139.76 160.777 139.76H161.641C161.961 139.76 162.121 139.928 162.121 140.264V141.92C162.121 142.112 162.081 142.248 162.001 142.328C161.937 142.392 161.817 142.416 161.641 142.4H159.985C158.881 142.4 158.329 143.024 158.329 144.272V151.496C158.329 151.832 158.161 152 157.825 152ZM179.41 136.568H182.962C183.298 136.568 183.466 136.736 183.466 137.072V151.496C183.466 151.832 183.298 152 182.962 152H180.994C180.658 152 180.49 151.832 180.49 151.496V140.12H180.394L177.946 148.16C177.85 148.48 177.65 148.64 177.346 148.64H175.33C175.026 148.64 174.826 148.48 174.73 148.16L172.234 140.096H172.138V151.496C172.138 151.688 172.106 151.824 172.042 151.904C171.978 151.968 171.842 152 171.634 152H169.666C169.33 152 169.162 151.832 169.162 151.496V137.072C169.162 136.736 169.33 136.568 169.666 136.568H173.242C173.466 136.568 173.618 136.68 173.698 136.904L176.242 145.376H176.386L178.954 136.904C179.002 136.68 179.154 136.568 179.41 136.568ZM186.456 137.696V135.608C186.456 135.288 186.616 135.128 186.936 135.128H189.024C189.344 135.128 189.504 135.28 189.504 135.584V137.696C189.504 138.016 189.344 138.176 189.024 138.176H186.936C186.616 138.176 186.456 138.016 186.456 137.696ZM186.456 151.496V140.264C186.456 139.928 186.616 139.76 186.936 139.76H189C189.336 139.76 189.504 139.928 189.504 140.264V151.496C189.504 151.704 189.464 151.84 189.384 151.904C189.32 151.968 189.2 152 189.024 152H186.96C186.624 152 186.456 151.832 186.456 151.496ZM194.809 152H192.769C192.433 152 192.265 151.832 192.265 151.496V140.264C192.265 139.928 192.433 139.76 192.769 139.76H194.809C195.145 139.76 195.313 139.928 195.313 140.264V141.056H195.409C195.761 140.192 196.545 139.76 197.761 139.76H198.529C201.041 139.76 202.297 141.064 202.297 143.672V151.496C202.297 151.832 202.121 152 201.769 152H199.753C199.417 152 199.249 151.832 199.249 151.496V143.816C199.249 143.304 199.137 142.944 198.913 142.736C198.705 142.512 198.345 142.4 197.833 142.4H196.969C195.865 142.4 195.313 143.008 195.313 144.224V151.496C195.313 151.832 195.145 152 194.809 152ZM204.948 137.696V135.608C204.948 135.288 205.108 135.128 205.428 135.128H207.516C207.836 135.128 207.996 135.28 207.996 135.584V137.696C207.996 138.016 207.836 138.176 207.516 138.176H205.428C205.108 138.176 204.948 138.016 204.948 137.696ZM204.948 151.496V140.264C204.948 139.928 205.108 139.76 205.428 139.76H207.492C207.828 139.76 207.996 139.928 207.996 140.264V151.496C207.996 151.704 207.956 151.84 207.876 151.904C207.812 151.968 207.692 152 207.516 152H205.452C205.116 152 204.948 151.832 204.948 151.496ZM213.302 152H211.262C210.926 152 210.758 151.832 210.758 151.496V140.264C210.758 139.928 210.926 139.76 211.262 139.76H213.302C213.638 139.76 213.806 139.928 213.806 140.264V141.056H213.902C214.094 140.672 214.414 140.36 214.862 140.12C215.326 139.88 215.854 139.76 216.446 139.76H217.118C218.51 139.76 219.51 140.272 220.118 141.296C220.662 140.272 221.598 139.76 222.926 139.76H223.622C224.854 139.76 225.782 140.096 226.406 140.768C227.046 141.44 227.366 142.408 227.366 143.672V151.496C227.366 151.832 227.198 152 226.862 152H224.822C224.486 152 224.318 151.832 224.318 151.496V143.816C224.318 143.304 224.214 142.944 224.006 142.736C223.798 142.512 223.438 142.4 222.926 142.4H222.326C221.222 142.4 220.67 143.016 220.67 144.248V151.496C220.67 151.832 220.494 152 220.142 152H218.126C217.79 152 217.622 151.832 217.622 151.496V143.816C217.622 143.304 217.51 142.944 217.286 142.736C217.078 142.512 216.718 142.4 216.206 142.4H215.462C214.358 142.4 213.806 143.008 213.806 144.224V151.496C213.806 151.832 213.638 152 213.302 152ZM234.322 152H233.53C232.298 152 231.362 151.664 230.722 150.992C230.098 150.32 229.786 149.352 229.786 148.088V140.264C229.786 139.928 229.954 139.76 230.29 139.76H232.33C232.666 139.76 232.834 139.928 232.834 140.264V147.944C232.834 148.456 232.938 148.824 233.146 149.048C233.37 149.256 233.73 149.36 234.226 149.36H235.114C236.218 149.36 236.77 148.752 236.77 147.536V140.264C236.77 139.928 236.938 139.76 237.274 139.76H239.29C239.642 139.76 239.818 139.928 239.818 140.264V151.496C239.818 151.832 239.642 152 239.29 152H237.274C236.938 152 236.77 151.832 236.77 151.496V150.704H236.674C236.498 151.136 236.186 151.464 235.738 151.688C235.29 151.896 234.818 152 234.322 152ZM245.012 152H242.972C242.636 152 242.468 151.832 242.468 151.496V140.264C242.468 139.928 242.636 139.76 242.972 139.76H245.012C245.348 139.76 245.516 139.928 245.516 140.264V141.056H245.612C245.804 140.672 246.124 140.36 246.572 140.12C247.036 139.88 247.564 139.76 248.156 139.76H248.828C250.22 139.76 251.22 140.272 251.828 141.296C252.372 140.272 253.308 139.76 254.636 139.76H255.332C256.564 139.76 257.492 140.096 258.116 140.768C258.756 141.44 259.076 142.408 259.076 143.672V151.496C259.076 151.832 258.908 152 258.572 152H256.532C256.196 152 256.028 151.832 256.028 151.496V143.816C256.028 143.304 255.924 142.944 255.716 142.736C255.508 142.512 255.148 142.4 254.636 142.4H254.036C252.932 142.4 252.38 143.016 252.38 144.248V151.496C252.38 151.832 252.204 152 251.852 152H249.836C249.5 152 249.332 151.832 249.332 151.496V143.816C249.332 143.304 249.22 142.944 248.996 142.736C248.788 142.512 248.428 142.4 247.916 142.4H247.172C246.068 142.4 245.516 143.008 245.516 144.224V151.496C245.516 151.832 245.348 152 245.012 152ZM275.53 152H267.634C267.298 152 267.13 151.832 267.13 151.496V137.072C267.13 136.736 267.298 136.568 267.634 136.568H269.674C270.01 136.568 270.178 136.736 270.178 137.072V149.072C270.178 149.248 270.274 149.336 270.466 149.336H275.53C275.85 149.336 276.01 149.512 276.01 149.864V151.496C276.01 151.832 275.85 152 275.53 152ZM281.968 152H281.392C280.128 152 279.152 151.664 278.464 150.992C277.776 150.32 277.432 149.352 277.432 148.088V143.672C277.432 142.408 277.776 141.44 278.464 140.768C279.152 140.096 280.128 139.76 281.392 139.76H286.936C287.288 139.76 287.464 139.928 287.464 140.264V151.496C287.464 151.832 287.288 152 286.936 152H284.92C284.584 152 284.416 151.832 284.416 151.496V150.704H284.32C284.144 151.136 283.832 151.464 283.384 151.688C282.936 151.896 282.464 152 281.968 152ZM284.416 147.536V142.664C284.416 142.488 284.32 142.4 284.128 142.4H281.872C281.36 142.4 281 142.512 280.792 142.736C280.584 142.944 280.48 143.304 280.48 143.816V147.944C280.48 148.456 280.584 148.824 280.792 149.048C281 149.256 281.36 149.36 281.872 149.36H282.76C283.864 149.36 284.416 148.752 284.416 147.536ZM294.509 152H293.717C292.485 152 291.549 151.664 290.909 150.992C290.285 150.32 289.973 149.352 289.973 148.088V140.264C289.973 139.928 290.141 139.76 290.477 139.76H292.517C292.853 139.76 293.021 139.928 293.021 140.264V147.944C293.021 148.456 293.125 148.824 293.333 149.048C293.557 149.256 293.917 149.36 294.413 149.36H295.301C296.405 149.36 296.957 148.752 296.957 147.536V140.264C296.957 139.928 297.125 139.76 297.461 139.76H299.477C299.829 139.76 300.005 139.928 300.005 140.264V151.496C300.005 151.832 299.829 152 299.477 152H297.461C297.125 152 296.957 151.832 296.957 151.496V150.704H296.861C296.685 151.136 296.373 151.464 295.925 151.688C295.477 151.896 295.005 152 294.509 152ZM305.2 152H303.16C302.824 152 302.656 151.832 302.656 151.496V140.264C302.656 139.928 302.824 139.76 303.16 139.76H305.2C305.536 139.76 305.704 139.928 305.704 140.264V141.056H305.8C306.152 140.192 306.936 139.76 308.152 139.76H308.92C311.432 139.76 312.688 141.064 312.688 143.672V151.496C312.688 151.832 312.512 152 312.16 152H310.144C309.808 152 309.64 151.832 309.64 151.496V143.816C309.64 143.304 309.528 142.944 309.304 142.736C309.096 142.512 308.736 142.4 308.224 142.4H307.36C306.256 142.4 305.704 143.008 305.704 144.224V151.496C305.704 151.832 305.536 152 305.2 152ZM323.018 149.864V151.52C323.018 151.696 322.978 151.824 322.898 151.904C322.834 151.968 322.706 152 322.514 152H318.938C317.674 152 316.698 151.664 316.01 150.992C315.322 150.32 314.978 149.352 314.978 148.088V143.672C314.978 142.408 315.322 141.44 316.01 140.768C316.698 140.096 317.674 139.76 318.938 139.76H322.514C322.85 139.76 323.018 139.928 323.018 140.264V141.92C323.018 142.096 322.978 142.224 322.898 142.304C322.834 142.368 322.706 142.4 322.514 142.4H319.418C318.922 142.4 318.562 142.512 318.338 142.736C318.13 142.944 318.026 143.304 318.026 143.816V147.944C318.026 148.456 318.13 148.824 318.338 149.048C318.562 149.256 318.922 149.36 319.418 149.36H322.514C322.85 149.36 323.018 149.528 323.018 149.864ZM327.63 152H325.59C325.254 152 325.086 151.832 325.086 151.496V135.632C325.086 135.296 325.254 135.128 325.59 135.128H327.63C327.966 135.128 328.134 135.296 328.134 135.632V141.056H328.23C328.582 140.192 329.366 139.76 330.582 139.76H331.35C333.862 139.76 335.118 141.064 335.118 143.672V151.496C335.118 151.832 334.942 152 334.59 152H332.574C332.238 152 332.07 151.832 332.07 151.496V143.816C332.07 143.304 331.958 142.944 331.734 142.736C331.526 142.512 331.166 142.4 330.654 142.4H329.79C328.686 142.4 328.134 143.008 328.134 144.224V151.496C328.134 151.832 327.966 152 327.63 152ZM337.768 137.696V135.608C337.768 135.288 337.928 135.128 338.248 135.128H340.336C340.656 135.128 340.816 135.28 340.816 135.584V137.696C340.816 138.016 340.656 138.176 340.336 138.176H338.248C337.928 138.176 337.768 138.016 337.768 137.696ZM337.768 151.496V140.264C337.768 139.928 337.928 139.76 338.248 139.76H340.312C340.648 139.76 340.816 139.928 340.816 140.264V151.496C340.816 151.704 340.776 151.84 340.696 151.904C340.632 151.968 340.512 152 340.336 152H338.272C337.936 152 337.768 151.832 337.768 151.496ZM346.122 152H344.082C343.746 152 343.578 151.832 343.578 151.496V140.264C343.578 139.928 343.746 139.76 344.082 139.76H346.122C346.458 139.76 346.626 139.928 346.626 140.264V141.056H346.722C347.074 140.192 347.858 139.76 349.074 139.76H349.842C352.354 139.76 353.61 141.064 353.61 143.672V151.496C353.61 151.832 353.434 152 353.082 152H351.066C350.73 152 350.562 151.832 350.562 151.496V143.816C350.562 143.304 350.45 142.944 350.226 142.736C350.018 142.512 349.658 142.4 349.146 142.4H348.282C347.178 142.4 346.626 143.008 346.626 144.224V151.496C346.626 151.832 346.458 152 346.122 152ZM360.46 151.448H359.668C358.436 151.448 357.5 151.112 356.86 150.44C356.236 149.768 355.924 148.8 355.924 147.536V143.672C355.924 142.408 356.268 141.44 356.956 140.768C357.644 140.096 358.62 139.76 359.884 139.76H365.428C365.78 139.76 365.956 139.928 365.956 140.264V152.096C365.956 153.344 365.604 154.304 364.9 154.976C364.212 155.648 363.244 155.984 361.996 155.984H357.388C357.196 155.984 357.06 155.944 356.98 155.864C356.916 155.8 356.884 155.68 356.884 155.504V153.848C356.884 153.512 357.052 153.344 357.388 153.344H361.492C362.004 153.344 362.364 153.232 362.572 153.008C362.796 152.8 362.908 152.448 362.908 151.952V150.128H362.812C362.636 150.56 362.324 150.888 361.876 151.112C361.428 151.336 360.956 151.448 360.46 151.448ZM362.908 146.984V142.664C362.908 142.488 362.812 142.4 362.62 142.4H360.364C359.852 142.4 359.492 142.512 359.284 142.736C359.076 142.944 358.972 143.304 358.972 143.816V147.392C358.972 147.904 359.076 148.264 359.284 148.472C359.492 148.68 359.852 148.784 360.364 148.784H361.252C362.356 148.784 362.908 148.184 362.908 146.984ZM377.411 149.36H380.027C380.539 149.36 380.899 149.256 381.107 149.048C381.331 148.824 381.443 148.456 381.443 147.944V140.624C381.443 140.112 381.331 139.752 381.107 139.544C380.899 139.32 380.539 139.208 380.027 139.208H377.411C377.235 139.208 377.147 139.296 377.147 139.472V149.096C377.147 149.272 377.235 149.36 377.411 149.36ZM374.099 151.496V137.072C374.099 136.736 374.267 136.568 374.603 136.568H380.531C381.779 136.568 382.747 136.912 383.435 137.6C384.139 138.272 384.491 139.232 384.491 140.48V148.088C384.491 149.336 384.139 150.304 383.435 150.992C382.747 151.664 381.779 152 380.531 152H374.603C374.267 152 374.099 151.832 374.099 151.496ZM391.421 152H390.845C389.581 152 388.605 151.664 387.917 150.992C387.229 150.32 386.885 149.352 386.885 148.088V143.672C386.885 142.408 387.229 141.44 387.917 140.768C388.605 140.096 389.581 139.76 390.845 139.76H396.389C396.741 139.76 396.917 139.928 396.917 140.264V151.496C396.917 151.832 396.741 152 396.389 152H394.373C394.037 152 393.869 151.832 393.869 151.496V150.704H393.773C393.597 151.136 393.285 151.464 392.837 151.688C392.389 151.896 391.917 152 391.421 152ZM393.869 147.536V142.664C393.869 142.488 393.773 142.4 393.581 142.4H391.325C390.813 142.4 390.453 142.512 390.245 142.736C390.037 142.944 389.933 143.304 389.933 143.816V147.944C389.933 148.456 390.037 148.824 390.245 149.048C390.453 149.256 390.813 149.36 391.325 149.36H392.213C393.317 149.36 393.869 148.752 393.869 147.536ZM399.811 142.4H398.851C398.659 142.4 398.523 142.368 398.443 142.304C398.379 142.24 398.347 142.112 398.347 141.92V140.264C398.347 139.928 398.515 139.76 398.851 139.76H399.811C399.987 139.76 400.075 139.672 400.075 139.496V137.216C400.075 136.88 400.251 136.712 400.603 136.712H402.619C402.955 136.712 403.123 136.88 403.123 137.216V139.496C403.123 139.672 403.219 139.76 403.411 139.76H405.283C405.619 139.76 405.787 139.928 405.787 140.264V141.92C405.787 142.096 405.747 142.224 405.667 142.304C405.603 142.368 405.475 142.4 405.283 142.4H403.411C403.219 142.4 403.123 142.488 403.123 142.664V147.968C403.123 148.464 403.235 148.824 403.459 149.048C403.683 149.256 404.051 149.36 404.563 149.36H405.523C405.859 149.36 406.027 149.528 406.027 149.864V151.52C406.027 151.696 405.987 151.824 405.907 151.904C405.843 151.968 405.715 152 405.523 152H404.059C402.795 152 401.811 151.664 401.107 150.992C400.419 150.32 400.075 149.36 400.075 148.112V142.664C400.075 142.488 399.987 142.4 399.811 142.4ZM412.304 152H411.728C410.464 152 409.488 151.664 408.8 150.992C408.112 150.32 407.768 149.352 407.768 148.088V143.672C407.768 142.408 408.112 141.44 408.8 140.768C409.488 140.096 410.464 139.76 411.728 139.76H417.272C417.624 139.76 417.8 139.928 417.8 140.264V151.496C417.8 151.832 417.624 152 417.272 152H415.256C414.92 152 414.752 151.832 414.752 151.496V150.704H414.656C414.48 151.136 414.168 151.464 413.72 151.688C413.272 151.896 412.8 152 412.304 152ZM414.752 147.536V142.664C414.752 142.488 414.656 142.4 414.464 142.4H412.208C411.696 142.4 411.336 142.512 411.128 142.736C410.92 142.944 410.816 143.304 410.816 143.816V147.944C410.816 148.456 410.92 148.824 411.128 149.048C411.336 149.256 411.696 149.36 412.208 149.36H413.096C414.2 149.36 414.752 148.752 414.752 147.536ZM429.975 138.704H429.903C428.543 138.704 427.863 139.632 427.863 141.488V149.528C427.863 151.384 428.559 152.312 429.951 152.312H429.975C430.151 152.312 430.271 152.344 430.335 152.408C430.399 152.472 430.431 152.584 430.431 152.744V154.088C430.431 154.232 430.399 154.328 430.335 154.376C430.287 154.424 430.167 154.448 429.975 154.448H429.903C428.495 154.448 427.391 154.016 426.591 153.152C425.807 152.304 425.415 150.968 425.415 149.144V141.872C425.415 140.048 425.815 138.712 426.615 137.864C427.415 137 428.519 136.568 429.927 136.568H429.999C430.175 136.568 430.287 136.592 430.335 136.64C430.399 136.688 430.431 136.784 430.431 136.928V138.272C430.431 138.432 430.399 138.544 430.335 138.608C430.271 138.672 430.151 138.704 429.975 138.704ZM443.527 136.568H447.079C447.415 136.568 447.583 136.736 447.583 137.072V151.496C447.583 151.832 447.415 152 447.079 152H445.111C444.775 152 444.607 151.832 444.607 151.496V140.12H444.511L442.063 148.16C441.967 148.48 441.767 148.64 441.463 148.64H439.447C439.143 148.64 438.943 148.48 438.847 148.16L436.351 140.096H436.255V151.496C436.255 151.688 436.223 151.824 436.159 151.904C436.095 151.968 435.959 152 435.751 152H433.783C433.447 152 433.279 151.832 433.279 151.496V137.072C433.279 136.736 433.447 136.568 433.783 136.568H437.359C437.583 136.568 437.735 136.68 437.815 136.904L440.359 145.376H440.503L443.071 136.904C443.119 136.68 443.271 136.568 443.527 136.568ZM459.093 152H451.197C450.861 152 450.693 151.832 450.693 151.496V137.072C450.693 136.736 450.861 136.568 451.197 136.568H453.237C453.573 136.568 453.741 136.736 453.741 137.072V149.072C453.741 149.248 453.837 149.336 454.029 149.336H459.093C459.413 149.336 459.573 149.512 459.573 149.864V151.496C459.573 151.832 459.413 152 459.093 152ZM464.786 149.36H467.402C467.914 149.36 468.274 149.256 468.482 149.048C468.706 148.824 468.818 148.456 468.818 147.944V140.624C468.818 140.112 468.706 139.752 468.482 139.544C468.274 139.32 467.914 139.208 467.402 139.208H464.786C464.61 139.208 464.522 139.296 464.522 139.472V149.096C464.522 149.272 464.61 149.36 464.786 149.36ZM461.474 151.496V137.072C461.474 136.736 461.642 136.568 461.978 136.568H467.906C469.154 136.568 470.122 136.912 470.81 137.6C471.514 138.272 471.866 139.232 471.866 140.48V148.088C471.866 149.336 471.514 150.304 470.81 150.992C470.122 151.664 469.154 152 467.906 152H461.978C461.642 152 461.474 151.832 461.474 151.496ZM474.212 154.088V152.744C474.212 152.456 474.364 152.312 474.668 152.312H474.692C476.084 152.312 476.78 151.384 476.78 149.528V141.488C476.78 139.632 476.084 138.704 474.692 138.704H474.668C474.364 138.704 474.212 138.56 474.212 138.272V136.928C474.212 136.784 474.244 136.688 474.308 136.64C474.372 136.592 474.492 136.568 474.668 136.568H474.692C476.1 136.568 477.204 137 478.004 137.864C478.82 138.712 479.228 140.048 479.228 141.872V149.144C479.228 150.968 478.82 152.304 478.004 153.152C477.204 154.016 476.1 154.448 474.692 154.448H474.668C474.492 154.448 474.372 154.424 474.308 154.376C474.244 154.328 474.212 154.232 474.212 154.088Z" fill="#5A5A5A"/>
<path d="M64.872 209.36H67.488C68 209.36 68.36 209.256 68.568 209.048C68.792 208.824 68.904 208.456 68.904 207.944V200.624C68.904 200.112 68.792 199.752 68.568 199.544C68.36 199.32 68 199.208 67.488 199.208H64.872C64.696 199.208 64.608 199.296 64.608 199.472V209.096C64.608 209.272 64.696 209.36 64.872 209.36ZM61.56 211.496V197.072C61.56 196.736 61.728 196.568 62.064 196.568H67.992C69.24 196.568 70.208 196.912 70.896 197.6C71.6 198.272 71.952 199.232 71.952 200.48V208.088C71.952 209.336 71.6 210.304 70.896 210.992C70.208 211.664 69.24 212 67.992 212H62.064C61.728 212 61.56 211.832 61.56 211.496ZM83.6096 212H78.3056C77.0416 212 76.0656 211.664 75.3776 210.992C74.6896 210.32 74.3456 209.352 74.3456 208.088V203.672C74.3456 202.408 74.6896 201.44 75.3776 200.768C76.0656 200.096 77.0416 199.76 78.3056 199.76H80.2016C81.4656 199.76 82.4416 200.096 83.1296 200.768C83.8176 201.44 84.1616 202.408 84.1616 203.672V206.72C84.1616 207.056 83.9936 207.224 83.6576 207.224H77.6336C77.4416 207.224 77.3456 207.312 77.3456 207.488V208.016C77.3456 208.512 77.4496 208.872 77.6576 209.096C77.8816 209.304 78.2496 209.408 78.7616 209.408H83.6096C83.9456 209.408 84.1136 209.584 84.1136 209.936V211.52C84.1136 211.696 84.0736 211.824 83.9936 211.904C83.9296 211.968 83.8016 212 83.6096 212ZM77.6336 205.184H80.8976C81.0736 205.184 81.1616 205.096 81.1616 204.92V203.768C81.1616 203.256 81.0576 202.896 80.8496 202.688C80.6416 202.48 80.2816 202.376 79.7696 202.376H78.7616C78.2496 202.376 77.8896 202.48 77.6816 202.688C77.4736 202.896 77.3696 203.256 77.3696 203.768V204.92C77.3696 205.096 77.4576 205.184 77.6336 205.184ZM91.077 212H86.517C86.197 212 86.037 211.832 86.037 211.496V209.96C86.037 209.784 86.069 209.664 86.133 209.6C86.197 209.52 86.325 209.48 86.517 209.48H90.525C91.309 209.48 91.701 209.24 91.701 208.76V208.64C91.701 208.256 91.373 207.888 90.717 207.536L88.341 206.216C87.525 205.8 86.925 205.352 86.541 204.872C86.157 204.392 85.965 203.776 85.965 203.024C85.965 201.904 86.261 201.08 86.853 200.552C87.445 200.024 88.373 199.76 89.637 199.76H93.645C93.965 199.76 94.125 199.928 94.125 200.264V201.824C94.125 202 94.093 202.128 94.029 202.208C93.965 202.272 93.837 202.304 93.645 202.304H90.309C89.525 202.304 89.133 202.504 89.133 202.904V203.024C89.133 203.376 89.477 203.736 90.165 204.104L92.589 205.544C93.421 205.992 94.005 206.456 94.341 206.936C94.677 207.4 94.845 208.016 94.845 208.784C94.845 210.928 93.589 212 91.077 212ZM97.0884 197.696V195.608C97.0884 195.288 97.2484 195.128 97.5684 195.128H99.6564C99.9764 195.128 100.136 195.28 100.136 195.584V197.696C100.136 198.016 99.9764 198.176 99.6564 198.176H97.5684C97.2484 198.176 97.0884 198.016 97.0884 197.696ZM97.0884 211.496V200.264C97.0884 199.928 97.2484 199.76 97.5684 199.76H99.6324C99.9684 199.76 100.136 199.928 100.136 200.264V211.496C100.136 211.704 100.096 211.84 100.016 211.904C99.9524 211.968 99.8324 212 99.6564 212H97.5924C97.2564 212 97.0884 211.832 97.0884 211.496ZM107.218 211.448H106.426C105.194 211.448 104.258 211.112 103.618 210.44C102.994 209.768 102.682 208.8 102.682 207.536V203.672C102.682 202.408 103.026 201.44 103.714 200.768C104.402 200.096 105.378 199.76 106.642 199.76H112.186C112.538 199.76 112.714 199.928 112.714 200.264V212.096C112.714 213.344 112.362 214.304 111.658 214.976C110.97 215.648 110.002 215.984 108.754 215.984H104.146C103.954 215.984 103.818 215.944 103.738 215.864C103.674 215.8 103.642 215.68 103.642 215.504V213.848C103.642 213.512 103.81 213.344 104.146 213.344H108.25C108.762 213.344 109.122 213.232 109.33 213.008C109.554 212.8 109.666 212.448 109.666 211.952V210.128H109.57C109.394 210.56 109.082 210.888 108.634 211.112C108.186 211.336 107.714 211.448 107.218 211.448ZM109.666 206.984V202.664C109.666 202.488 109.57 202.4 109.378 202.4H107.122C106.61 202.4 106.25 202.512 106.042 202.736C105.834 202.944 105.73 203.304 105.73 203.816V207.392C105.73 207.904 105.834 208.264 106.042 208.472C106.25 208.68 106.61 208.784 107.122 208.784H108.01C109.114 208.784 109.666 208.184 109.666 206.984ZM117.887 212H115.847C115.511 212 115.343 211.832 115.343 211.496V200.264C115.343 199.928 115.511 199.76 115.847 199.76H117.887C118.223 199.76 118.391 199.928 118.391 200.264V201.056H118.487C118.839 200.192 119.623 199.76 120.839 199.76H121.607C124.119 199.76 125.375 201.064 125.375 203.672V211.496C125.375 211.832 125.199 212 124.847 212H122.831C122.495 212 122.327 211.832 122.327 211.496V203.816C122.327 203.304 122.215 202.944 121.991 202.736C121.783 202.512 121.423 202.4 120.911 202.4H120.047C118.943 202.4 118.391 203.008 118.391 204.224V211.496C118.391 211.832 118.223 212 117.887 212ZM138.075 212H135.339C135.035 212 134.843 211.832 134.763 211.496L132.363 200.264C132.299 199.928 132.419 199.76 132.723 199.76H135.027C135.379 199.76 135.571 199.928 135.603 200.264L136.683 208.472H136.875L138.579 200.264C138.627 199.928 138.811 199.76 139.131 199.76H141.243C141.579 199.76 141.779 199.928 141.843 200.264L143.499 208.472H143.691L144.795 200.264C144.843 199.928 145.035 199.76 145.371 199.76H147.675C147.995 199.76 148.115 199.928 148.035 200.264L145.635 211.496C145.571 211.832 145.379 212 145.059 212H142.323C142.003 212 141.811 211.832 141.747 211.496L140.283 203.384H140.091L138.651 211.496C138.603 211.832 138.411 212 138.075 212ZM150.01 197.696V195.608C150.01 195.288 150.17 195.128 150.49 195.128H152.578C152.898 195.128 153.058 195.28 153.058 195.584V197.696C153.058 198.016 152.898 198.176 152.578 198.176H150.49C150.17 198.176 150.01 198.016 150.01 197.696ZM150.01 211.496V200.264C150.01 199.928 150.17 199.76 150.49 199.76H152.554C152.89 199.76 153.058 199.928 153.058 200.264V211.496C153.058 211.704 153.018 211.84 152.938 211.904C152.874 211.968 152.754 212 152.578 212H150.514C150.178 212 150.01 211.832 150.01 211.496ZM156.084 202.4H155.124C154.932 202.4 154.796 202.368 154.716 202.304C154.652 202.24 154.62 202.112 154.62 201.92V200.264C154.62 199.928 154.788 199.76 155.124 199.76H156.084C156.26 199.76 156.348 199.672 156.348 199.496V197.216C156.348 196.88 156.524 196.712 156.876 196.712H158.892C159.228 196.712 159.396 196.88 159.396 197.216V199.496C159.396 199.672 159.492 199.76 159.684 199.76H161.556C161.892 199.76 162.06 199.928 162.06 200.264V201.92C162.06 202.096 162.02 202.224 161.94 202.304C161.876 202.368 161.748 202.4 161.556 202.4H159.684C159.492 202.4 159.396 202.488 159.396 202.664V207.968C159.396 208.464 159.508 208.824 159.732 209.048C159.956 209.256 160.324 209.36 160.836 209.36H161.796C162.132 209.36 162.3 209.528 162.3 209.864V211.52C162.3 211.696 162.26 211.824 162.18 211.904C162.116 211.968 161.988 212 161.796 212H160.332C159.068 212 158.084 211.664 157.38 210.992C156.692 210.32 156.348 209.36 156.348 208.112V202.664C156.348 202.488 156.26 202.4 156.084 202.4ZM166.825 212H164.785C164.449 212 164.281 211.832 164.281 211.496V195.632C164.281 195.296 164.449 195.128 164.785 195.128H166.825C167.161 195.128 167.329 195.296 167.329 195.632V201.056H167.425C167.777 200.192 168.561 199.76 169.777 199.76H170.545C173.057 199.76 174.313 201.064 174.313 203.672V211.496C174.313 211.832 174.137 212 173.785 212H171.769C171.433 212 171.265 211.832 171.265 211.496V203.816C171.265 203.304 171.153 202.944 170.929 202.736C170.721 202.512 170.361 202.4 169.849 202.4H168.985C167.881 202.4 167.329 203.008 167.329 204.224V211.496C167.329 211.832 167.161 212 166.825 212ZM184.661 212H182.621C182.285 212 182.117 211.832 182.117 211.496V200.264C182.117 199.928 182.285 199.76 182.621 199.76H184.661C184.997 199.76 185.165 199.928 185.165 200.264V201.056H185.261C185.453 200.672 185.773 200.36 186.221 200.12C186.685 199.88 187.213 199.76 187.805 199.76H188.477C189.869 199.76 190.869 200.272 191.477 201.296C192.021 200.272 192.957 199.76 194.285 199.76H194.981C196.213 199.76 197.141 200.096 197.765 200.768C198.405 201.44 198.725 202.408 198.725 203.672V211.496C198.725 211.832 198.557 212 198.221 212H196.181C195.845 212 195.677 211.832 195.677 211.496V203.816C195.677 203.304 195.573 202.944 195.365 202.736C195.157 202.512 194.797 202.4 194.285 202.4H193.685C192.581 202.4 192.029 203.016 192.029 204.248V211.496C192.029 211.832 191.853 212 191.501 212H189.485C189.149 212 188.981 211.832 188.981 211.496V203.816C188.981 203.304 188.869 202.944 188.645 202.736C188.437 202.512 188.077 202.4 187.565 202.4H186.821C185.717 202.4 185.165 203.008 185.165 204.224V211.496C185.165 211.832 184.997 212 184.661 212ZM201.385 197.696V195.608C201.385 195.288 201.545 195.128 201.865 195.128H203.953C204.273 195.128 204.433 195.28 204.433 195.584V197.696C204.433 198.016 204.273 198.176 203.953 198.176H201.865C201.545 198.176 201.385 198.016 201.385 197.696ZM201.385 211.496V200.264C201.385 199.928 201.545 199.76 201.865 199.76H203.929C204.265 199.76 204.433 199.928 204.433 200.264V211.496C204.433 211.704 204.393 211.84 204.313 211.904C204.249 211.968 204.129 212 203.953 212H201.889C201.553 212 201.385 211.832 201.385 211.496ZM214.995 209.864V211.52C214.995 211.696 214.955 211.824 214.875 211.904C214.811 211.968 214.683 212 214.491 212H210.915C209.651 212 208.675 211.664 207.987 210.992C207.299 210.32 206.955 209.352 206.955 208.088V203.672C206.955 202.408 207.299 201.44 207.987 200.768C208.675 200.096 209.651 199.76 210.915 199.76H214.491C214.827 199.76 214.995 199.928 214.995 200.264V201.92C214.995 202.096 214.955 202.224 214.875 202.304C214.811 202.368 214.683 202.4 214.491 202.4H211.395C210.899 202.4 210.539 202.512 210.315 202.736C210.107 202.944 210.003 203.304 210.003 203.816V207.944C210.003 208.456 210.107 208.824 210.315 209.048C210.539 209.256 210.899 209.36 211.395 209.36H214.491C214.827 209.36 214.995 209.528 214.995 209.864ZM219.606 212H217.566C217.23 212 217.062 211.832 217.062 211.496V200.264C217.062 199.928 217.23 199.76 217.566 199.76H219.606C219.942 199.76 220.11 199.928 220.11 200.264V201.08H220.206C220.382 200.648 220.694 200.32 221.142 200.096C221.59 199.872 222.062 199.76 222.558 199.76H223.422C223.742 199.76 223.902 199.928 223.902 200.264V201.92C223.902 202.112 223.862 202.248 223.782 202.328C223.718 202.392 223.598 202.416 223.422 202.4H221.766C220.662 202.4 220.11 203.024 220.11 204.272V211.496C220.11 211.832 219.942 212 219.606 212ZM231.285 212H229.149C227.885 212 226.909 211.664 226.221 210.992C225.533 210.32 225.189 209.352 225.189 208.088V203.672C225.189 202.408 225.533 201.44 226.221 200.768C226.909 200.096 227.885 199.76 229.149 199.76H231.285C232.533 199.76 233.501 200.104 234.189 200.792C234.893 201.464 235.245 202.424 235.245 203.672V208.088C235.245 209.336 234.893 210.304 234.189 210.992C233.501 211.664 232.533 212 231.285 212ZM229.605 209.384H230.829C231.341 209.384 231.701 209.28 231.909 209.072C232.133 208.864 232.245 208.504 232.245 207.992V203.768C232.245 203.256 232.133 202.896 231.909 202.688C231.701 202.48 231.341 202.376 230.829 202.376H229.605C229.093 202.376 228.733 202.48 228.525 202.688C228.317 202.896 228.213 203.256 228.213 203.768V207.992C228.213 208.504 228.317 208.864 228.525 209.072C228.733 209.28 229.093 209.384 229.605 209.384ZM242.272 212H237.712C237.392 212 237.232 211.832 237.232 211.496V209.96C237.232 209.784 237.264 209.664 237.328 209.6C237.392 209.52 237.52 209.48 237.712 209.48H241.72C242.504 209.48 242.896 209.24 242.896 208.76V208.64C242.896 208.256 242.568 207.888 241.912 207.536L239.536 206.216C238.72 205.8 238.12 205.352 237.736 204.872C237.352 204.392 237.16 203.776 237.16 203.024C237.16 201.904 237.456 201.08 238.048 200.552C238.64 200.024 239.568 199.76 240.832 199.76H244.84C245.16 199.76 245.32 199.928 245.32 200.264V201.824C245.32 202 245.288 202.128 245.224 202.208C245.16 202.272 245.032 202.304 244.84 202.304H241.504C240.72 202.304 240.328 202.504 240.328 202.904V203.024C240.328 203.376 240.672 203.736 241.36 204.104L243.784 205.544C244.616 205.992 245.2 206.456 245.536 206.936C245.872 207.4 246.04 208.016 246.04 208.784C246.04 210.928 244.784 212 242.272 212ZM250.156 216.056H248.62C248.3 216.056 248.14 215.88 248.14 215.528V213.92C248.14 213.568 248.3 213.392 248.62 213.392H249.124C250.132 213.392 250.812 213.248 251.164 212.96C251.532 212.688 251.812 212.152 252.004 211.352H250.732C250.428 211.352 250.228 211.184 250.132 210.848L247.324 200.264C247.228 199.928 247.348 199.76 247.684 199.76H249.82C250.14 199.76 250.34 199.928 250.42 200.264L252.484 209.12H252.58L254.62 200.264C254.684 199.928 254.884 199.76 255.22 199.76H257.236C257.636 199.76 257.796 199.936 257.716 200.288L254.788 212C254.436 213.328 253.892 214.336 253.156 215.024C252.42 215.712 251.42 216.056 250.156 216.056ZM264.093 212H259.533C259.213 212 259.053 211.832 259.053 211.496V209.96C259.053 209.784 259.085 209.664 259.149 209.6C259.213 209.52 259.341 209.48 259.533 209.48H263.541C264.325 209.48 264.717 209.24 264.717 208.76V208.64C264.717 208.256 264.389 207.888 263.733 207.536L261.357 206.216C260.541 205.8 259.941 205.352 259.557 204.872C259.173 204.392 258.981 203.776 258.981 203.024C258.981 201.904 259.277 201.08 259.869 200.552C260.461 200.024 261.389 199.76 262.653 199.76H266.661C266.981 199.76 267.141 199.928 267.141 200.264V201.824C267.141 202 267.109 202.128 267.045 202.208C266.981 202.272 266.853 202.304 266.661 202.304H263.325C262.541 202.304 262.149 202.504 262.149 202.904V203.024C262.149 203.376 262.493 203.736 263.181 204.104L265.605 205.544C266.437 205.992 267.021 206.456 267.357 206.936C267.693 207.4 267.861 208.016 267.861 208.784C267.861 210.928 266.605 212 264.093 212ZM270.248 202.4H269.288C269.096 202.4 268.96 202.368 268.88 202.304C268.816 202.24 268.784 202.112 268.784 201.92V200.264C268.784 199.928 268.952 199.76 269.288 199.76H270.248C270.424 199.76 270.512 199.672 270.512 199.496V197.216C270.512 196.88 270.688 196.712 271.04 196.712H273.056C273.392 196.712 273.56 196.88 273.56 197.216V199.496C273.56 199.672 273.656 199.76 273.848 199.76H275.72C276.056 199.76 276.224 199.928 276.224 200.264V201.92C276.224 202.096 276.184 202.224 276.104 202.304C276.04 202.368 275.912 202.4 275.72 202.4H273.848C273.656 202.4 273.56 202.488 273.56 202.664V207.968C273.56 208.464 273.672 208.824 273.896 209.048C274.12 209.256 274.488 209.36 275 209.36H275.96C276.296 209.36 276.464 209.528 276.464 209.864V211.52C276.464 211.696 276.424 211.824 276.344 211.904C276.28 211.968 276.152 212 275.96 212H274.496C273.232 212 272.248 211.664 271.544 210.992C270.856 210.32 270.512 209.36 270.512 208.112V202.664C270.512 202.488 270.424 202.4 270.248 202.4ZM287.469 212H282.165C280.901 212 279.925 211.664 279.237 210.992C278.549 210.32 278.205 209.352 278.205 208.088V203.672C278.205 202.408 278.549 201.44 279.237 200.768C279.925 200.096 280.901 199.76 282.165 199.76H284.061C285.325 199.76 286.301 200.096 286.989 200.768C287.677 201.44 288.021 202.408 288.021 203.672V206.72C288.021 207.056 287.853 207.224 287.517 207.224H281.493C281.301 207.224 281.205 207.312 281.205 207.488V208.016C281.205 208.512 281.309 208.872 281.517 209.096C281.741 209.304 282.109 209.408 282.621 209.408H287.469C287.805 209.408 287.973 209.584 287.973 209.936V211.52C287.973 211.696 287.933 211.824 287.853 211.904C287.789 211.968 287.661 212 287.469 212ZM281.493 205.184H284.757C284.933 205.184 285.021 205.096 285.021 204.92V203.768C285.021 203.256 284.917 202.896 284.709 202.688C284.501 202.48 284.141 202.376 283.629 202.376H282.621C282.109 202.376 281.749 202.48 281.541 202.688C281.333 202.896 281.229 203.256 281.229 203.768V204.92C281.229 205.096 281.317 205.184 281.493 205.184ZM292.848 212H290.808C290.472 212 290.304 211.832 290.304 211.496V200.264C290.304 199.928 290.472 199.76 290.808 199.76H292.848C293.184 199.76 293.352 199.928 293.352 200.264V201.056H293.448C293.64 200.672 293.96 200.36 294.408 200.12C294.872 199.88 295.4 199.76 295.992 199.76H296.664C298.056 199.76 299.056 200.272 299.664 201.296C300.208 200.272 301.144 199.76 302.472 199.76H303.168C304.4 199.76 305.328 200.096 305.952 200.768C306.592 201.44 306.912 202.408 306.912 203.672V211.496C306.912 211.832 306.744 212 306.408 212H304.368C304.032 212 303.864 211.832 303.864 211.496V203.816C303.864 203.304 303.76 202.944 303.552 202.736C303.344 202.512 302.984 202.4 302.472 202.4H301.872C300.768 202.4 300.216 203.016 300.216 204.248V211.496C300.216 211.832 300.04 212 299.688 212H297.672C297.336 212 297.168 211.832 297.168 211.496V203.816C297.168 203.304 297.056 202.944 296.832 202.736C296.624 202.512 296.264 202.4 295.752 202.4H295.008C293.904 202.4 293.352 203.008 293.352 204.224V211.496C293.352 211.832 293.184 212 292.848 212ZM321.734 199.76H324.062C324.254 199.76 324.382 199.816 324.446 199.928C324.51 200.04 324.486 200.184 324.374 200.36L321.182 205.616V205.712L324.518 211.4C324.614 211.56 324.622 211.704 324.542 211.832C324.462 211.944 324.318 212 324.11 212H322.046C321.774 212 321.574 211.968 321.446 211.904C321.334 211.84 321.214 211.704 321.086 211.496L318.038 206.144C317.894 205.888 317.894 205.624 318.038 205.352L320.918 200.24C321.094 199.92 321.366 199.76 321.734 199.76ZM317.27 212H315.23C314.894 212 314.726 211.832 314.726 211.496V195.632C314.726 195.296 314.894 195.128 315.23 195.128H317.27C317.606 195.128 317.774 195.296 317.774 195.632V211.496C317.774 211.832 317.606 212 317.27 212ZM328.591 212H326.551C326.215 212 326.047 211.832 326.047 211.496V200.264C326.047 199.928 326.215 199.76 326.551 199.76H328.591C328.927 199.76 329.095 199.928 329.095 200.264V201.056H329.191C329.543 200.192 330.327 199.76 331.543 199.76H332.311C334.823 199.76 336.079 201.064 336.079 203.672V211.496C336.079 211.832 335.903 212 335.551 212H333.535C333.199 212 333.031 211.832 333.031 211.496V203.816C333.031 203.304 332.919 202.944 332.695 202.736C332.487 202.512 332.127 202.4 331.615 202.4H330.751C329.647 202.4 329.095 203.008 329.095 204.224V211.496C329.095 211.832 328.927 212 328.591 212ZM344.465 212H342.329C341.065 212 340.089 211.664 339.401 210.992C338.713 210.32 338.369 209.352 338.369 208.088V203.672C338.369 202.408 338.713 201.44 339.401 200.768C340.089 200.096 341.065 199.76 342.329 199.76H344.465C345.713 199.76 346.681 200.104 347.369 200.792C348.073 201.464 348.425 202.424 348.425 203.672V208.088C348.425 209.336 348.073 210.304 347.369 210.992C346.681 211.664 345.713 212 344.465 212ZM342.785 209.384H344.009C344.521 209.384 344.881 209.28 345.089 209.072C345.313 208.864 345.425 208.504 345.425 207.992V203.768C345.425 203.256 345.313 202.896 345.089 202.688C344.881 202.48 344.521 202.376 344.009 202.376H342.785C342.273 202.376 341.913 202.48 341.705 202.688C341.497 202.896 341.393 203.256 341.393 203.768V207.992C341.393 208.504 341.497 208.864 341.705 209.072C341.913 209.28 342.273 209.384 342.785 209.384ZM354.132 209.36H356.58C357.092 209.36 357.452 209.256 357.66 209.048C357.884 208.824 357.996 208.456 357.996 207.944V203.768C357.996 203.256 357.884 202.896 357.66 202.688C357.452 202.464 357.092 202.352 356.58 202.352H355.524C354.42 202.352 353.868 202.96 353.868 204.176V209.096C353.868 209.272 353.956 209.36 354.132 209.36ZM350.82 211.496V195.632C350.82 195.296 350.988 195.128 351.324 195.128H353.364C353.7 195.128 353.868 195.296 353.868 195.632V201.032H353.964C354.14 200.6 354.452 200.272 354.9 200.048C355.348 199.824 355.82 199.712 356.316 199.712H357.084C358.348 199.712 359.324 200.048 360.012 200.72C360.7 201.392 361.044 202.36 361.044 203.624V208.088C361.044 209.352 360.7 210.32 360.012 210.992C359.324 211.664 358.348 212 357.084 212H351.324C350.988 212 350.82 211.832 350.82 211.496ZM368.085 212H363.525C363.205 212 363.045 211.832 363.045 211.496V209.96C363.045 209.784 363.077 209.664 363.141 209.6C363.205 209.52 363.333 209.48 363.525 209.48H367.533C368.317 209.48 368.709 209.24 368.709 208.76V208.64C368.709 208.256 368.381 207.888 367.725 207.536L365.349 206.216C364.533 205.8 363.933 205.352 363.549 204.872C363.165 204.392 362.973 203.776 362.973 203.024C362.973 201.904 363.269 201.08 363.861 200.552C364.453 200.024 365.381 199.76 366.645 199.76H370.653C370.973 199.76 371.133 199.928 371.133 200.264V201.824C371.133 202 371.101 202.128 371.037 202.208C370.973 202.272 370.845 202.304 370.653 202.304H367.317C366.533 202.304 366.141 202.504 366.141 202.904V203.024C366.141 203.376 366.485 203.736 367.173 204.104L369.597 205.544C370.429 205.992 371.013 206.456 371.349 206.936C371.685 207.4 371.853 208.016 371.853 208.784C371.853 210.928 370.597 212 368.085 212Z" fill="#5A5A5A"/>
<path d="M67.824 272H65.28C64.016 272 63.04 271.664 62.352 270.992C61.664 270.32 61.32 269.352 61.32 268.088V260.48C61.32 259.216 61.664 258.248 62.352 257.576C63.04 256.904 64.016 256.568 65.28 256.568H67.824C69.072 256.568 70.04 256.912 70.728 257.6C71.416 258.272 71.76 259.232 71.76 260.48V261.2C71.76 261.552 71.592 261.728 71.256 261.728H69.216C68.88 261.728 68.712 261.552 68.712 261.2V260.624C68.712 260.112 68.608 259.752 68.4 259.544C68.192 259.32 67.832 259.208 67.32 259.208H65.76C65.264 259.208 64.904 259.32 64.68 259.544C64.472 259.752 64.368 260.112 64.368 260.624V267.944C64.368 268.456 64.472 268.824 64.68 269.048C64.904 269.256 65.264 269.36 65.76 269.36H67.32C67.832 269.36 68.192 269.256 68.4 269.048C68.608 268.824 68.712 268.456 68.712 267.944V266.432C68.712 266.256 68.624 266.168 68.448 266.168H67.008C66.672 266.168 66.504 266 66.504 265.664V264.032C66.504 263.696 66.672 263.528 67.008 263.528H71.208C71.576 263.528 71.76 263.712 71.76 264.08V268.088C71.76 269.336 71.416 270.304 70.728 270.992C70.04 271.664 69.072 272 67.824 272ZM83.4221 272H78.1181C76.8541 272 75.8781 271.664 75.1901 270.992C74.5021 270.32 74.1581 269.352 74.1581 268.088V263.672C74.1581 262.408 74.5021 261.44 75.1901 260.768C75.8781 260.096 76.8541 259.76 78.1181 259.76H80.0141C81.2781 259.76 82.2541 260.096 82.9421 260.768C83.6301 261.44 83.9741 262.408 83.9741 263.672V266.72C83.9741 267.056 83.8061 267.224 83.4701 267.224H77.4461C77.2541 267.224 77.1581 267.312 77.1581 267.488V268.016C77.1581 268.512 77.2621 268.872 77.4701 269.096C77.6941 269.304 78.0621 269.408 78.5741 269.408H83.4221C83.7581 269.408 83.9261 269.584 83.9261 269.936V271.52C83.9261 271.696 83.8861 271.824 83.8061 271.904C83.7421 271.968 83.6141 272 83.4221 272ZM77.4461 265.184H80.7101C80.8861 265.184 80.9741 265.096 80.9741 264.92V263.768C80.9741 263.256 80.8701 262.896 80.6621 262.688C80.4541 262.48 80.0941 262.376 79.5821 262.376H78.5741C78.0621 262.376 77.7021 262.48 77.4941 262.688C77.2861 262.896 77.1821 263.256 77.1821 263.768V264.92C77.1821 265.096 77.2701 265.184 77.4461 265.184ZM86.5215 262.4H85.5615C85.3695 262.4 85.2335 262.368 85.1535 262.304C85.0895 262.24 85.0575 262.112 85.0575 261.92V260.264C85.0575 259.928 85.2255 259.76 85.5615 259.76H86.5215C86.6975 259.76 86.7855 259.672 86.7855 259.496V257.216C86.7855 256.88 86.9615 256.712 87.3135 256.712H89.3295C89.6655 256.712 89.8335 256.88 89.8335 257.216V259.496C89.8335 259.672 89.9295 259.76 90.1215 259.76H91.9935C92.3295 259.76 92.4975 259.928 92.4975 260.264V261.92C92.4975 262.096 92.4575 262.224 92.3775 262.304C92.3135 262.368 92.1855 262.4 91.9935 262.4H90.1215C89.9295 262.4 89.8335 262.488 89.8335 262.664V267.968C89.8335 268.464 89.9455 268.824 90.1695 269.048C90.3935 269.256 90.7615 269.36 91.2735 269.36H92.2335C92.5695 269.36 92.7375 269.528 92.7375 269.864V271.52C92.7375 271.696 92.6975 271.824 92.6175 271.904C92.5535 271.968 92.4255 272 92.2335 272H90.7695C89.5055 272 88.5215 271.664 87.8175 270.992C87.1295 270.32 86.7855 269.36 86.7855 268.112V262.664C86.7855 262.488 86.6975 262.4 86.5215 262.4ZM101.984 276.056H100.448C100.128 276.056 99.9679 275.88 99.9679 275.528V273.92C99.9679 273.568 100.128 273.392 100.448 273.392H100.952C101.96 273.392 102.64 273.248 102.992 272.96C103.36 272.688 103.64 272.152 103.832 271.352H102.56C102.256 271.352 102.056 271.184 101.96 270.848L99.1519 260.264C99.0559 259.928 99.1759 259.76 99.5119 259.76H101.648C101.968 259.76 102.168 259.928 102.248 260.264L104.312 269.12H104.408L106.448 260.264C106.512 259.928 106.712 259.76 107.048 259.76H109.064C109.464 259.76 109.624 259.936 109.544 260.288L106.616 272C106.264 273.328 105.72 274.336 104.984 275.024C104.248 275.712 103.248 276.056 101.984 276.056ZM117.145 272H115.009C113.745 272 112.769 271.664 112.081 270.992C111.393 270.32 111.049 269.352 111.049 268.088V263.672C111.049 262.408 111.393 261.44 112.081 260.768C112.769 260.096 113.745 259.76 115.009 259.76H117.145C118.393 259.76 119.361 260.104 120.049 260.792C120.753 261.464 121.105 262.424 121.105 263.672V268.088C121.105 269.336 120.753 270.304 120.049 270.992C119.361 271.664 118.393 272 117.145 272ZM115.465 269.384H116.689C117.201 269.384 117.561 269.28 117.769 269.072C117.993 268.864 118.105 268.504 118.105 267.992V263.768C118.105 263.256 117.993 262.896 117.769 262.688C117.561 262.48 117.201 262.376 116.689 262.376H115.465C114.953 262.376 114.593 262.48 114.385 262.688C114.177 262.896 114.073 263.256 114.073 263.768V267.992C114.073 268.504 114.177 268.864 114.385 269.072C114.593 269.28 114.953 269.384 115.465 269.384ZM127.916 272H127.124C125.892 272 124.956 271.664 124.316 270.992C123.692 270.32 123.38 269.352 123.38 268.088V260.264C123.38 259.928 123.548 259.76 123.884 259.76H125.924C126.26 259.76 126.428 259.928 126.428 260.264V267.944C126.428 268.456 126.532 268.824 126.74 269.048C126.964 269.256 127.324 269.36 127.82 269.36H128.708C129.812 269.36 130.364 268.752 130.364 267.536V260.264C130.364 259.928 130.532 259.76 130.868 259.76H132.884C133.236 259.76 133.412 259.928 133.412 260.264V271.496C133.412 271.832 133.236 272 132.884 272H130.868C130.532 272 130.364 271.832 130.364 271.496V270.704H130.268C130.092 271.136 129.78 271.464 129.332 271.688C128.884 271.896 128.412 272 127.916 272ZM138.606 272H136.566C136.23 272 136.062 271.832 136.062 271.496V260.264C136.062 259.928 136.23 259.76 136.566 259.76H138.606C138.942 259.76 139.11 259.928 139.11 260.264V261.08H139.206C139.382 260.648 139.694 260.32 140.142 260.096C140.59 259.872 141.062 259.76 141.558 259.76H142.422C142.742 259.76 142.902 259.928 142.902 260.264V261.92C142.902 262.112 142.862 262.248 142.782 262.328C142.718 262.392 142.598 262.416 142.422 262.4H140.766C139.662 262.4 139.11 263.024 139.11 264.272V271.496C139.11 271.832 138.942 272 138.606 272ZM154.191 272H153.207C151.975 272 151.039 271.664 150.399 270.992C149.775 270.32 149.463 269.352 149.463 268.088V263.672C149.463 262.408 149.775 261.44 150.399 260.768C151.039 260.096 151.975 259.76 153.207 259.76H154.191C154.687 259.76 155.159 259.872 155.607 260.096C156.055 260.304 156.367 260.624 156.543 261.056H156.639V255.632C156.639 255.296 156.807 255.128 157.143 255.128H159.183C159.519 255.128 159.687 255.296 159.687 255.632V271.496C159.687 271.832 159.519 272 159.183 272H157.143C156.807 272 156.639 271.832 156.639 271.496V270.704H156.543C156.367 271.136 156.055 271.464 155.607 271.688C155.159 271.896 154.687 272 154.191 272ZM156.639 267.536V264.224C156.639 263.008 156.087 262.4 154.983 262.4H153.903C153.391 262.4 153.031 262.512 152.823 262.736C152.615 262.944 152.511 263.304 152.511 263.816V267.944C152.511 268.456 152.615 268.824 152.823 269.048C153.031 269.256 153.391 269.36 153.903 269.36H154.983C156.087 269.36 156.639 268.752 156.639 267.536ZM168.192 272H166.056C164.792 272 163.816 271.664 163.128 270.992C162.44 270.32 162.096 269.352 162.096 268.088V263.672C162.096 262.408 162.44 261.44 163.128 260.768C163.816 260.096 164.792 259.76 166.056 259.76H168.192C169.44 259.76 170.408 260.104 171.096 260.792C171.8 261.464 172.152 262.424 172.152 263.672V268.088C172.152 269.336 171.8 270.304 171.096 270.992C170.408 271.664 169.44 272 168.192 272ZM166.512 269.384H167.736C168.248 269.384 168.608 269.28 168.816 269.072C169.04 268.864 169.152 268.504 169.152 267.992V263.768C169.152 263.256 169.04 262.896 168.816 262.688C168.608 262.48 168.248 262.376 167.736 262.376H166.512C166 262.376 165.64 262.48 165.432 262.688C165.224 262.896 165.12 263.256 165.12 263.768V267.992C165.12 268.504 165.224 268.864 165.432 269.072C165.64 269.28 166 269.384 166.512 269.384ZM182.347 269.864V271.52C182.347 271.696 182.307 271.824 182.227 271.904C182.163 271.968 182.035 272 181.843 272H178.267C177.003 272 176.027 271.664 175.339 270.992C174.651 270.32 174.307 269.352 174.307 268.088V263.672C174.307 262.408 174.651 261.44 175.339 260.768C176.027 260.096 177.003 259.76 178.267 259.76H181.843C182.179 259.76 182.347 259.928 182.347 260.264V261.92C182.347 262.096 182.307 262.224 182.227 262.304C182.163 262.368 182.035 262.4 181.843 262.4H178.747C178.251 262.4 177.891 262.512 177.667 262.736C177.459 262.944 177.355 263.304 177.355 263.816V267.944C177.355 268.456 177.459 268.824 177.667 269.048C177.891 269.256 178.251 269.36 178.747 269.36H181.843C182.179 269.36 182.347 269.528 182.347 269.864ZM188.83 272H188.038C186.806 272 185.87 271.664 185.23 270.992C184.606 270.32 184.294 269.352 184.294 268.088V260.264C184.294 259.928 184.462 259.76 184.798 259.76H186.838C187.174 259.76 187.342 259.928 187.342 260.264V267.944C187.342 268.456 187.446 268.824 187.654 269.048C187.878 269.256 188.238 269.36 188.734 269.36H189.622C190.726 269.36 191.278 268.752 191.278 267.536V260.264C191.278 259.928 191.446 259.76 191.782 259.76H193.798C194.15 259.76 194.326 259.928 194.326 260.264V271.496C194.326 271.832 194.15 272 193.798 272H191.782C191.446 272 191.278 271.832 191.278 271.496V270.704H191.182C191.006 271.136 190.694 271.464 190.246 271.688C189.798 271.896 189.326 272 188.83 272ZM199.52 272H197.48C197.144 272 196.976 271.832 196.976 271.496V260.264C196.976 259.928 197.144 259.76 197.48 259.76H199.52C199.856 259.76 200.024 259.928 200.024 260.264V261.056H200.12C200.312 260.672 200.632 260.36 201.08 260.12C201.544 259.88 202.072 259.76 202.664 259.76H203.336C204.728 259.76 205.728 260.272 206.336 261.296C206.88 260.272 207.816 259.76 209.144 259.76H209.84C211.072 259.76 212 260.096 212.624 260.768C213.264 261.44 213.584 262.408 213.584 263.672V271.496C213.584 271.832 213.416 272 213.08 272H211.04C210.704 272 210.536 271.832 210.536 271.496V263.816C210.536 263.304 210.432 262.944 210.224 262.736C210.016 262.512 209.656 262.4 209.144 262.4H208.544C207.44 262.4 206.888 263.016 206.888 264.248V271.496C206.888 271.832 206.712 272 206.36 272H204.344C204.008 272 203.84 271.832 203.84 271.496V263.816C203.84 263.304 203.728 262.944 203.504 262.736C203.296 262.512 202.936 262.4 202.424 262.4H201.68C200.576 262.4 200.024 263.008 200.024 264.224V271.496C200.024 271.832 199.856 272 199.52 272ZM225.149 272H219.845C218.581 272 217.605 271.664 216.917 270.992C216.229 270.32 215.885 269.352 215.885 268.088V263.672C215.885 262.408 216.229 261.44 216.917 260.768C217.605 260.096 218.581 259.76 219.845 259.76H221.741C223.005 259.76 223.981 260.096 224.669 260.768C225.357 261.44 225.701 262.408 225.701 263.672V266.72C225.701 267.056 225.533 267.224 225.197 267.224H219.173C218.981 267.224 218.885 267.312 218.885 267.488V268.016C218.885 268.512 218.989 268.872 219.197 269.096C219.421 269.304 219.789 269.408 220.301 269.408H225.149C225.485 269.408 225.653 269.584 225.653 269.936V271.52C225.653 271.696 225.613 271.824 225.533 271.904C225.469 271.968 225.341 272 225.149 272ZM219.173 265.184H222.437C222.613 265.184 222.701 265.096 222.701 264.92V263.768C222.701 263.256 222.597 262.896 222.389 262.688C222.181 262.48 221.821 262.376 221.309 262.376H220.301C219.789 262.376 219.429 262.48 219.221 262.688C219.013 262.896 218.909 263.256 218.909 263.768V264.92C218.909 265.096 218.997 265.184 219.173 265.184ZM230.528 272H228.488C228.152 272 227.984 271.832 227.984 271.496V260.264C227.984 259.928 228.152 259.76 228.488 259.76H230.528C230.864 259.76 231.032 259.928 231.032 260.264V261.056H231.128C231.48 260.192 232.264 259.76 233.48 259.76H234.248C236.76 259.76 238.016 261.064 238.016 263.672V271.496C238.016 271.832 237.84 272 237.488 272H235.472C235.136 272 234.968 271.832 234.968 271.496V263.816C234.968 263.304 234.856 262.944 234.632 262.736C234.424 262.512 234.064 262.4 233.552 262.4H232.688C231.584 262.4 231.032 263.008 231.032 264.224V271.496C231.032 271.832 230.864 272 230.528 272ZM240.811 262.4H239.851C239.659 262.4 239.523 262.368 239.443 262.304C239.379 262.24 239.347 262.112 239.347 261.92V260.264C239.347 259.928 239.515 259.76 239.851 259.76H240.811C240.987 259.76 241.075 259.672 241.075 259.496V257.216C241.075 256.88 241.251 256.712 241.603 256.712H243.619C243.955 256.712 244.123 256.88 244.123 257.216V259.496C244.123 259.672 244.219 259.76 244.411 259.76H246.283C246.619 259.76 246.787 259.928 246.787 260.264V261.92C246.787 262.096 246.747 262.224 246.667 262.304C246.603 262.368 246.475 262.4 246.283 262.4H244.411C244.219 262.4 244.123 262.488 244.123 262.664V267.968C244.123 268.464 244.235 268.824 244.459 269.048C244.683 269.256 245.051 269.36 245.563 269.36H246.523C246.859 269.36 247.027 269.528 247.027 269.864V271.52C247.027 271.696 246.987 271.824 246.907 271.904C246.843 271.968 246.715 272 246.523 272H245.059C243.795 272 242.811 271.664 242.107 270.992C241.419 270.32 241.075 269.36 241.075 268.112V262.664C241.075 262.488 240.987 262.4 240.811 262.4ZM253.64 272H249.08C248.76 272 248.6 271.832 248.6 271.496V269.96C248.6 269.784 248.632 269.664 248.696 269.6C248.76 269.52 248.888 269.48 249.08 269.48H253.088C253.872 269.48 254.264 269.24 254.264 268.76V268.64C254.264 268.256 253.936 267.888 253.28 267.536L250.904 266.216C250.088 265.8 249.488 265.352 249.104 264.872C248.72 264.392 248.528 263.776 248.528 263.024C248.528 261.904 248.824 261.08 249.416 260.552C250.008 260.024 250.936 259.76 252.2 259.76H256.208C256.528 259.76 256.688 259.928 256.688 260.264V261.824C256.688 262 256.656 262.128 256.592 262.208C256.528 262.272 256.4 262.304 256.208 262.304H252.872C252.088 262.304 251.696 262.504 251.696 262.904V263.024C251.696 263.376 252.04 263.736 252.728 264.104L255.152 265.544C255.984 265.992 256.568 266.456 256.904 266.936C257.24 267.4 257.408 268.016 257.408 268.784C257.408 270.928 256.152 272 253.64 272Z" fill="#5A5A5A"/>
</svg>
