<svg width="463" height="230" viewBox="0 0 463 230" fill="none" xmlns="http://www.w3.org/2000/svg">
<rect width="50" height="50" fill="#404040"/>
<path d="M25.3093 32.104H28.5093C29.5759 32.104 30.3973 31.7947 30.9733 31.176C31.5493 30.5573 31.8373 29.704 31.8373 28.616V16.808C31.8373 15.72 31.5493 14.8667 30.9733 14.248C30.3973 13.6293 29.5759 13.32 28.5093 13.32H25.3093C24.2426 13.32 23.4213 13.6293 22.8453 14.248C22.2693 14.8667 21.9813 15.72 21.9813 16.808V28.616C21.9813 29.704 22.2693 30.5573 22.8453 31.176C23.4213 31.7947 24.2426 32.104 25.3093 32.104ZM28.5093 33H25.3093C24.0079 33 22.9626 32.6053 22.1733 31.816C21.4053 31.0267 21.0213 29.9707 21.0213 28.648V16.776C21.0213 15.4533 21.4053 14.3973 22.1733 13.608C22.9626 12.8187 24.0079 12.424 25.3093 12.424H28.5093C29.8106 12.424 30.8453 12.8187 31.6133 13.608C32.4026 14.3973 32.7973 15.4533 32.7973 16.776V28.648C32.7973 29.9707 32.4026 31.0267 31.6133 31.816C30.8453 32.6053 29.8106 33 28.5093 33ZM36.3113 15.784V15.592C36.3113 15.3147 36.4286 15.112 36.6633 14.984L40.9833 12.584C41.1966 12.4773 41.3673 12.424 41.4953 12.424H41.8793C42.0499 12.424 42.1353 12.52 42.1353 12.712V32.712C42.1353 32.904 42.0499 33 41.8793 33H41.4313C41.2606 33 41.1753 32.904 41.1753 32.712V13.48L36.8233 15.944C36.4819 16.1787 36.3113 16.1253 36.3113 15.784Z" fill="white"/>
<rect y="60" width="50" height="50" fill="#404040"/>
<path d="M20.1218 92.104H23.3218C24.3884 92.104 25.2098 91.7947 25.7858 91.176C26.3618 90.5573 26.6498 89.704 26.6498 88.616V76.808C26.6498 75.72 26.3618 74.8667 25.7858 74.248C25.2098 73.6293 24.3884 73.32 23.3218 73.32H20.1218C19.0551 73.32 18.2338 73.6293 17.6578 74.248C17.0818 74.8667 16.7938 75.72 16.7938 76.808V88.616C16.7938 89.704 17.0818 90.5573 17.6578 91.176C18.2338 91.7947 19.0551 92.104 20.1218 92.104ZM23.3218 93H20.1218C18.8204 93 17.7751 92.6053 16.9858 91.816C16.2178 91.0267 15.8338 89.9707 15.8338 88.648V76.776C15.8338 75.4533 16.2178 74.3973 16.9858 73.608C17.7751 72.8187 18.8204 72.424 20.1218 72.424H23.3218C24.6231 72.424 25.6578 72.8187 26.4258 73.608C27.2151 74.3973 27.6098 75.4533 27.6098 76.776V88.648C27.6098 89.9707 27.2151 91.0267 26.4258 91.816C25.6578 92.6053 24.6231 93 23.3218 93ZM31.8918 92.744V89.992C31.8918 88.392 32.5638 87.112 33.9078 86.152L40.3078 81.384C41.4384 80.552 42.0038 79.432 42.0038 78.024V76.712C42.0038 75.624 41.7158 74.792 41.1398 74.216C40.5638 73.6187 39.7424 73.32 38.6758 73.32H36.0518C34.9851 73.32 34.1638 73.6187 33.5878 74.216C33.0118 74.792 32.7238 75.624 32.7238 76.712V78.248C32.7238 78.44 32.6384 78.536 32.4678 78.536H32.0198C31.8491 78.536 31.7638 78.44 31.7638 78.248V76.68C31.7638 75.3573 32.1478 74.3227 32.9158 73.576C33.7051 72.808 34.7504 72.424 36.0518 72.424H38.6758C39.9771 72.424 41.0118 72.808 41.7798 73.576C42.5691 74.3227 42.9638 75.3573 42.9638 76.68V78.056C42.9638 79.72 42.2811 81.0533 40.9158 82.056L34.4518 86.888C33.3851 87.6987 32.8518 88.6907 32.8518 89.864V92.104H42.8038C42.9958 92.104 43.0918 92.1893 43.0918 92.36V92.744C43.0918 92.9147 42.9958 93 42.8038 93H32.1798C31.9878 93 31.8918 92.9147 31.8918 92.744Z" fill="white"/>
<rect y="120" width="50" height="50" fill="#404040"/>
<path d="M19.4968 152.104H22.6968C23.7634 152.104 24.5848 151.795 25.1608 151.176C25.7368 150.557 26.0248 149.704 26.0248 148.616V136.808C26.0248 135.72 25.7368 134.867 25.1608 134.248C24.5848 133.629 23.7634 133.32 22.6968 133.32H19.4968C18.4301 133.32 17.6088 133.629 17.0328 134.248C16.4568 134.867 16.1688 135.72 16.1688 136.808V148.616C16.1688 149.704 16.4568 150.557 17.0328 151.176C17.6088 151.795 18.4301 152.104 19.4968 152.104ZM22.6968 153H19.4968C18.1954 153 17.1501 152.605 16.3608 151.816C15.5928 151.027 15.2088 149.971 15.2088 148.648V136.776C15.2088 135.453 15.5928 134.397 16.3608 133.608C17.1501 132.819 18.1954 132.424 19.4968 132.424H22.6968C23.9981 132.424 25.0328 132.819 25.8008 133.608C26.5901 134.397 26.9848 135.453 26.9848 136.776V148.648C26.9848 149.971 26.5901 151.027 25.8008 151.816C25.0328 152.605 23.9981 153 22.6968 153ZM36.4828 142.184H38.4668C39.5334 142.184 40.3548 141.896 40.9308 141.32C41.5068 140.723 41.7948 139.88 41.7948 138.792V136.712C41.7948 135.624 41.5068 134.792 40.9308 134.216C40.3548 133.619 39.5334 133.32 38.4668 133.32H35.7468C34.6801 133.32 33.8588 133.619 33.2828 134.216C32.7068 134.792 32.4188 135.624 32.4188 136.712V137.928C32.4188 138.12 32.3334 138.216 32.1628 138.216H31.7148C31.5441 138.216 31.4588 138.12 31.4588 137.928V136.68C31.4588 135.357 31.8428 134.323 32.6108 133.576C33.4001 132.808 34.4454 132.424 35.7468 132.424H38.4668C39.7681 132.424 40.8028 132.808 41.5708 133.576C42.3601 134.323 42.7548 135.357 42.7548 136.68V138.824C42.7548 140.829 41.8588 142.099 40.0668 142.632C41.8588 143.101 42.7548 144.371 42.7548 146.44V148.744C42.7548 150.067 42.3601 151.112 41.5708 151.88C40.8028 152.627 39.7681 153 38.4668 153H35.7468C34.4454 153 33.4001 152.627 32.6108 151.88C31.8428 151.112 31.4588 150.067 31.4588 148.744V147.144C31.4588 146.952 31.5441 146.856 31.7148 146.856H32.1628C32.3334 146.856 32.4188 146.952 32.4188 147.144V148.712C32.4188 149.8 32.7068 150.643 33.2828 151.24C33.8588 151.816 34.6801 152.104 35.7468 152.104H38.4668C39.5334 152.104 40.3548 151.816 40.9308 151.24C41.5068 150.643 41.7948 149.8 41.7948 148.712V146.472C41.7948 145.384 41.5068 144.552 40.9308 143.976C40.3548 143.379 39.5334 143.08 38.4668 143.08H36.4828C36.2908 143.08 36.1948 142.995 36.1948 142.824V142.44C36.1948 142.269 36.2908 142.184 36.4828 142.184Z" fill="white"/>
<rect y="180" width="50" height="50" fill="#404040"/>
<path d="M18.8093 212.104H22.0093C23.0759 212.104 23.8973 211.795 24.4733 211.176C25.0493 210.557 25.3373 209.704 25.3373 208.616V196.808C25.3373 195.72 25.0493 194.867 24.4733 194.248C23.8973 193.629 23.0759 193.32 22.0093 193.32H18.8093C17.7426 193.32 16.9213 193.629 16.3453 194.248C15.7693 194.867 15.4813 195.72 15.4813 196.808V208.616C15.4813 209.704 15.7693 210.557 16.3453 211.176C16.9213 211.795 17.7426 212.104 18.8093 212.104ZM22.0093 213H18.8093C17.5079 213 16.4626 212.605 15.6733 211.816C14.9053 211.027 14.5213 209.971 14.5213 208.648V196.776C14.5213 195.453 14.9053 194.397 15.6733 193.608C16.4626 192.819 17.5079 192.424 18.8093 192.424H22.0093C23.3106 192.424 24.3453 192.819 25.1133 193.608C25.9026 194.397 26.2973 195.453 26.2973 196.776V208.648C26.2973 209.971 25.9026 211.027 25.1133 211.816C24.3453 212.605 23.3106 213 22.0093 213ZM40.0513 207.784V193.128L31.2193 207.784H40.0513ZM40.7553 213H40.3073C40.1366 213 40.0513 212.904 40.0513 212.712V208.68H30.4193C30.2273 208.68 30.1313 208.595 30.1313 208.424V208.04C30.1313 207.891 30.1953 207.72 30.3233 207.528L39.2193 192.776C39.3473 192.541 39.5499 192.424 39.8273 192.424H40.7553C40.9259 192.424 41.0113 192.52 41.0113 192.712V207.784H43.4433C43.6353 207.784 43.7313 207.869 43.7313 208.04V208.424C43.7313 208.595 43.6353 208.68 43.4433 208.68H41.0113V212.712C41.0113 212.904 40.9259 213 40.7553 213Z" fill="white"/>
<path d="M68.544 16.568H70.56C70.896 16.568 71.064 16.728 71.064 17.048V28.088C71.064 29.336 70.72 30.304 70.032 30.992C69.344 31.664 68.376 32 67.128 32H64.728C63.464 32 62.488 31.664 61.8 30.992C61.112 30.32 60.768 29.352 60.768 28.088V25.832C60.768 25.496 60.936 25.328 61.272 25.328H63.312C63.648 25.328 63.816 25.496 63.816 25.832V27.944C63.816 28.456 63.92 28.824 64.128 29.048C64.352 29.256 64.712 29.36 65.208 29.36H66.624C67.136 29.36 67.496 29.256 67.704 29.048C67.912 28.824 68.016 28.456 68.016 27.944V17.072C68.016 16.736 68.192 16.568 68.544 16.568ZM79.6916 32H77.5556C76.2916 32 75.3156 31.664 74.6276 30.992C73.9396 30.32 73.5956 29.352 73.5956 28.088V23.672C73.5956 22.408 73.9396 21.44 74.6276 20.768C75.3156 20.096 76.2916 19.76 77.5556 19.76H79.6916C80.9396 19.76 81.9076 20.104 82.5956 20.792C83.2996 21.464 83.6516 22.424 83.6516 23.672V28.088C83.6516 29.336 83.2996 30.304 82.5956 30.992C81.9076 31.664 80.9396 32 79.6916 32ZM78.0116 29.384H79.2356C79.7476 29.384 80.1076 29.28 80.3156 29.072C80.5396 28.864 80.6516 28.504 80.6516 27.992V23.768C80.6516 23.256 80.5396 22.896 80.3156 22.688C80.1076 22.48 79.7476 22.376 79.2356 22.376H78.0116C77.4996 22.376 77.1396 22.48 76.9316 22.688C76.7236 22.896 76.6196 23.256 76.6196 23.768V27.992C76.6196 28.504 76.7236 28.864 76.9316 29.072C77.1396 29.28 77.4996 29.384 78.0116 29.384ZM86.1666 17.696V15.608C86.1666 15.288 86.3266 15.128 86.6466 15.128H88.7346C89.0546 15.128 89.2146 15.28 89.2146 15.584V17.696C89.2146 18.016 89.0546 18.176 88.7346 18.176H86.6466C86.3266 18.176 86.1666 18.016 86.1666 17.696ZM86.1666 31.496V20.264C86.1666 19.928 86.3266 19.76 86.6466 19.76H88.7106C89.0466 19.76 89.2146 19.928 89.2146 20.264V31.496C89.2146 31.704 89.1746 31.84 89.0946 31.904C89.0306 31.968 88.9106 32 88.7346 32H86.6706C86.3346 32 86.1666 31.832 86.1666 31.496ZM94.5203 32H92.4803C92.1443 32 91.9763 31.832 91.9763 31.496V20.264C91.9763 19.928 92.1443 19.76 92.4803 19.76H94.5203C94.8563 19.76 95.0243 19.928 95.0243 20.264V21.056H95.1203C95.4723 20.192 96.2563 19.76 97.4723 19.76H98.2403C100.752 19.76 102.008 21.064 102.008 23.672V31.496C102.008 31.832 101.832 32 101.48 32H99.4643C99.1283 32 98.9603 31.832 98.9603 31.496V23.816C98.9603 23.304 98.8483 22.944 98.6243 22.736C98.4163 22.512 98.0563 22.4 97.5443 22.4H96.6803C95.5763 22.4 95.0243 23.008 95.0243 24.224V31.496C95.0243 31.832 94.8563 32 94.5203 32ZM114.132 31.448H113.34C112.108 31.448 111.172 31.112 110.532 30.44C109.908 29.768 109.596 28.8 109.596 27.536V23.672C109.596 22.408 109.94 21.44 110.628 20.768C111.316 20.096 112.292 19.76 113.556 19.76H119.1C119.452 19.76 119.628 19.928 119.628 20.264V32.096C119.628 33.344 119.276 34.304 118.572 34.976C117.884 35.648 116.916 35.984 115.668 35.984H111.06C110.868 35.984 110.732 35.944 110.652 35.864C110.588 35.8 110.556 35.68 110.556 35.504V33.848C110.556 33.512 110.724 33.344 111.06 33.344H115.164C115.676 33.344 116.036 33.232 116.244 33.008C116.468 32.8 116.58 32.448 116.58 31.952V30.128H116.484C116.308 30.56 115.996 30.888 115.548 31.112C115.1 31.336 114.628 31.448 114.132 31.448ZM116.58 26.984V22.664C116.58 22.488 116.484 22.4 116.292 22.4H114.036C113.524 22.4 113.164 22.512 112.956 22.736C112.748 22.944 112.644 23.304 112.644 23.816V27.392C112.644 27.904 112.748 28.264 112.956 28.472C113.164 28.68 113.524 28.784 114.036 28.784H114.924C116.028 28.784 116.58 28.184 116.58 26.984ZM126.554 32H125.978C124.714 32 123.738 31.664 123.05 30.992C122.362 30.32 122.018 29.352 122.018 28.088V23.672C122.018 22.408 122.362 21.44 123.05 20.768C123.738 20.096 124.714 19.76 125.978 19.76H131.522C131.874 19.76 132.05 19.928 132.05 20.264V31.496C132.05 31.832 131.874 32 131.522 32H129.506C129.17 32 129.002 31.832 129.002 31.496V30.704H128.906C128.73 31.136 128.418 31.464 127.97 31.688C127.522 31.896 127.05 32 126.554 32ZM129.002 27.536V22.664C129.002 22.488 128.906 22.4 128.714 22.4H126.458C125.946 22.4 125.586 22.512 125.378 22.736C125.17 22.944 125.066 23.304 125.066 23.816V27.944C125.066 28.456 125.17 28.824 125.378 29.048C125.586 29.256 125.946 29.36 126.458 29.36H127.346C128.45 29.36 129.002 28.752 129.002 27.536ZM137.223 32H135.183C134.847 32 134.679 31.832 134.679 31.496V20.264C134.679 19.928 134.847 19.76 135.183 19.76H137.223C137.559 19.76 137.727 19.928 137.727 20.264V21.056H137.823C138.015 20.672 138.335 20.36 138.783 20.12C139.247 19.88 139.775 19.76 140.367 19.76H141.039C142.431 19.76 143.431 20.272 144.039 21.296C144.583 20.272 145.519 19.76 146.847 19.76H147.543C148.775 19.76 149.703 20.096 150.327 20.768C150.967 21.44 151.287 22.408 151.287 23.672V31.496C151.287 31.832 151.119 32 150.783 32H148.743C148.407 32 148.239 31.832 148.239 31.496V23.816C148.239 23.304 148.135 22.944 147.927 22.736C147.719 22.512 147.359 22.4 146.847 22.4H146.247C145.143 22.4 144.591 23.016 144.591 24.248V31.496C144.591 31.832 144.415 32 144.063 32H142.047C141.711 32 141.543 31.832 141.543 31.496V23.816C141.543 23.304 141.431 22.944 141.207 22.736C140.999 22.512 140.639 22.4 140.127 22.4H139.383C138.279 22.4 137.727 23.008 137.727 24.224V31.496C137.727 31.832 137.559 32 137.223 32ZM162.852 32H157.548C156.284 32 155.308 31.664 154.62 30.992C153.932 30.32 153.588 29.352 153.588 28.088V23.672C153.588 22.408 153.932 21.44 154.62 20.768C155.308 20.096 156.284 19.76 157.548 19.76H159.444C160.708 19.76 161.684 20.096 162.372 20.768C163.06 21.44 163.404 22.408 163.404 23.672V26.72C163.404 27.056 163.236 27.224 162.9 27.224H156.876C156.684 27.224 156.588 27.312 156.588 27.488V28.016C156.588 28.512 156.692 28.872 156.9 29.096C157.124 29.304 157.492 29.408 158.004 29.408H162.852C163.188 29.408 163.356 29.584 163.356 29.936V31.52C163.356 31.696 163.316 31.824 163.236 31.904C163.172 31.968 163.044 32 162.852 32ZM156.876 25.184H160.14C160.316 25.184 160.404 25.096 160.404 24.92V23.768C160.404 23.256 160.3 22.896 160.092 22.688C159.884 22.48 159.524 22.376 159.012 22.376H158.004C157.492 22.376 157.132 22.48 156.924 22.688C156.716 22.896 156.612 23.256 156.612 23.768V24.92C156.612 25.096 156.7 25.184 156.876 25.184ZM178.761 29.864V31.52C178.761 31.696 178.721 31.824 178.641 31.904C178.577 31.968 178.449 32 178.257 32H174.681C173.417 32 172.441 31.664 171.753 30.992C171.065 30.32 170.721 29.352 170.721 28.088V23.672C170.721 22.408 171.065 21.44 171.753 20.768C172.441 20.096 173.417 19.76 174.681 19.76H178.257C178.593 19.76 178.761 19.928 178.761 20.264V21.92C178.761 22.096 178.721 22.224 178.641 22.304C178.577 22.368 178.449 22.4 178.257 22.4H175.161C174.665 22.4 174.305 22.512 174.081 22.736C173.873 22.944 173.769 23.304 173.769 23.816V27.944C173.769 28.456 173.873 28.824 174.081 29.048C174.305 29.256 174.665 29.36 175.161 29.36H178.257C178.593 29.36 178.761 29.528 178.761 29.864ZM183.372 32H181.332C180.996 32 180.828 31.832 180.828 31.496V15.632C180.828 15.296 180.996 15.128 181.332 15.128H183.372C183.708 15.128 183.876 15.296 183.876 15.632V21.056H183.972C184.324 20.192 185.108 19.76 186.324 19.76H187.092C189.604 19.76 190.86 21.064 190.86 23.672V31.496C190.86 31.832 190.684 32 190.332 32H188.316C187.98 32 187.812 31.832 187.812 31.496V23.816C187.812 23.304 187.7 22.944 187.476 22.736C187.268 22.512 186.908 22.4 186.396 22.4H185.532C184.428 22.4 183.876 23.008 183.876 24.224V31.496C183.876 31.832 183.708 32 183.372 32ZM197.686 32H197.11C195.846 32 194.87 31.664 194.182 30.992C193.494 30.32 193.15 29.352 193.15 28.088V23.672C193.15 22.408 193.494 21.44 194.182 20.768C194.87 20.096 195.846 19.76 197.11 19.76H202.654C203.006 19.76 203.182 19.928 203.182 20.264V31.496C203.182 31.832 203.006 32 202.654 32H200.638C200.302 32 200.134 31.832 200.134 31.496V30.704H200.038C199.862 31.136 199.55 31.464 199.102 31.688C198.654 31.896 198.182 32 197.686 32ZM200.134 27.536V22.664C200.134 22.488 200.038 22.4 199.846 22.4H197.59C197.078 22.4 196.718 22.512 196.51 22.736C196.302 22.944 196.198 23.304 196.198 23.816V27.944C196.198 28.456 196.302 28.824 196.51 29.048C196.718 29.256 197.078 29.36 197.59 29.36H198.478C199.582 29.36 200.134 28.752 200.134 27.536ZM208.476 32H206.436C206.1 32 205.932 31.832 205.932 31.496V15.632C205.932 15.296 206.1 15.128 206.436 15.128H208.476C208.812 15.128 208.98 15.296 208.98 15.632V31.496C208.98 31.832 208.812 32 208.476 32ZM214.406 32H212.366C212.03 32 211.862 31.832 211.862 31.496V15.632C211.862 15.296 212.03 15.128 212.366 15.128H214.406C214.742 15.128 214.91 15.296 214.91 15.632V31.496C214.91 31.832 214.742 32 214.406 32ZM226.696 32H221.392C220.128 32 219.152 31.664 218.464 30.992C217.776 30.32 217.432 29.352 217.432 28.088V23.672C217.432 22.408 217.776 21.44 218.464 20.768C219.152 20.096 220.128 19.76 221.392 19.76H223.288C224.552 19.76 225.528 20.096 226.216 20.768C226.904 21.44 227.248 22.408 227.248 23.672V26.72C227.248 27.056 227.08 27.224 226.744 27.224H220.72C220.528 27.224 220.432 27.312 220.432 27.488V28.016C220.432 28.512 220.536 28.872 220.744 29.096C220.968 29.304 221.336 29.408 221.848 29.408H226.696C227.032 29.408 227.2 29.584 227.2 29.936V31.52C227.2 31.696 227.16 31.824 227.08 31.904C227.016 31.968 226.888 32 226.696 32ZM220.72 25.184H223.984C224.16 25.184 224.248 25.096 224.248 24.92V23.768C224.248 23.256 224.144 22.896 223.936 22.688C223.728 22.48 223.368 22.376 222.856 22.376H221.848C221.336 22.376 220.976 22.48 220.768 22.688C220.56 22.896 220.456 23.256 220.456 23.768V24.92C220.456 25.096 220.544 25.184 220.72 25.184ZM232.075 32H230.035C229.699 32 229.531 31.832 229.531 31.496V20.264C229.531 19.928 229.699 19.76 230.035 19.76H232.075C232.411 19.76 232.579 19.928 232.579 20.264V21.056H232.675C233.027 20.192 233.811 19.76 235.027 19.76H235.795C238.307 19.76 239.563 21.064 239.563 23.672V31.496C239.563 31.832 239.387 32 239.035 32H237.019C236.683 32 236.515 31.832 236.515 31.496V23.816C236.515 23.304 236.403 22.944 236.179 22.736C235.971 22.512 235.611 22.4 235.099 22.4H234.235C233.131 22.4 232.579 23.008 232.579 24.224V31.496C232.579 31.832 232.411 32 232.075 32ZM246.413 31.448H245.621C244.389 31.448 243.453 31.112 242.813 30.44C242.189 29.768 241.877 28.8 241.877 27.536V23.672C241.877 22.408 242.221 21.44 242.909 20.768C243.597 20.096 244.573 19.76 245.837 19.76H251.381C251.733 19.76 251.909 19.928 251.909 20.264V32.096C251.909 33.344 251.557 34.304 250.853 34.976C250.165 35.648 249.197 35.984 247.949 35.984H243.341C243.149 35.984 243.013 35.944 242.933 35.864C242.869 35.8 242.837 35.68 242.837 35.504V33.848C242.837 33.512 243.005 33.344 243.341 33.344H247.445C247.957 33.344 248.317 33.232 248.525 33.008C248.749 32.8 248.861 32.448 248.861 31.952V30.128H248.765C248.589 30.56 248.277 30.888 247.829 31.112C247.381 31.336 246.909 31.448 246.413 31.448ZM248.861 26.984V22.664C248.861 22.488 248.765 22.4 248.573 22.4H246.317C245.805 22.4 245.445 22.512 245.237 22.736C245.029 22.944 244.925 23.304 244.925 23.816V27.392C244.925 27.904 245.029 28.264 245.237 28.472C245.445 28.68 245.805 28.784 246.317 28.784H247.205C248.309 28.784 248.861 28.184 248.861 26.984ZM263.563 32H258.259C256.995 32 256.019 31.664 255.331 30.992C254.643 30.32 254.299 29.352 254.299 28.088V23.672C254.299 22.408 254.643 21.44 255.331 20.768C256.019 20.096 256.995 19.76 258.259 19.76H260.155C261.419 19.76 262.395 20.096 263.083 20.768C263.771 21.44 264.115 22.408 264.115 23.672V26.72C264.115 27.056 263.947 27.224 263.611 27.224H257.587C257.395 27.224 257.299 27.312 257.299 27.488V28.016C257.299 28.512 257.403 28.872 257.611 29.096C257.835 29.304 258.203 29.408 258.715 29.408H263.563C263.899 29.408 264.067 29.584 264.067 29.936V31.52C264.067 31.696 264.027 31.824 263.947 31.904C263.883 31.968 263.755 32 263.563 32ZM257.587 25.184H260.851C261.027 25.184 261.115 25.096 261.115 24.92V23.768C261.115 23.256 261.011 22.896 260.803 22.688C260.595 22.48 260.235 22.376 259.723 22.376H258.715C258.203 22.376 257.843 22.48 257.635 22.688C257.427 22.896 257.323 23.256 257.323 23.768V24.92C257.323 25.096 257.411 25.184 257.587 25.184ZM271.03 32H266.47C266.15 32 265.99 31.832 265.99 31.496V29.96C265.99 29.784 266.022 29.664 266.086 29.6C266.15 29.52 266.278 29.48 266.47 29.48H270.478C271.262 29.48 271.654 29.24 271.654 28.76V28.64C271.654 28.256 271.326 27.888 270.67 27.536L268.294 26.216C267.478 25.8 266.878 25.352 266.494 24.872C266.11 24.392 265.918 23.776 265.918 23.024C265.918 21.904 266.214 21.08 266.806 20.552C267.398 20.024 268.326 19.76 269.59 19.76H273.598C273.918 19.76 274.078 19.928 274.078 20.264V21.824C274.078 22 274.046 22.128 273.982 22.208C273.918 22.272 273.79 22.304 273.598 22.304H270.262C269.478 22.304 269.086 22.504 269.086 22.904V23.024C269.086 23.376 269.43 23.736 270.118 24.104L272.542 25.544C273.374 25.992 273.958 26.456 274.294 26.936C274.63 27.4 274.798 28.016 274.798 28.784C274.798 30.928 273.542 32 271.03 32Z" fill="#5A5A5A"/>
<path d="M61.176 88.064V87.584C61.176 87.248 61.344 87.08 61.68 87.08H63.72C64.056 87.08 64.224 87.248 64.224 87.584V87.776C64.224 88.384 64.344 88.8 64.584 89.024C64.824 89.248 65.264 89.36 65.904 89.36H67.032C67.656 89.36 68.088 89.24 68.328 89C68.584 88.76 68.712 88.312 68.712 87.656V87.368C68.712 86.904 68.52 86.552 68.136 86.312C67.768 86.056 67.304 85.904 66.744 85.856C66.184 85.808 65.576 85.72 64.92 85.592C64.28 85.448 63.68 85.272 63.12 85.064C62.56 84.84 62.088 84.416 61.704 83.792C61.336 83.152 61.152 82.336 61.152 81.344V80.504C61.152 79.256 61.504 78.288 62.208 77.6C62.912 76.912 63.888 76.568 65.136 76.568H67.536C68.8 76.568 69.784 76.912 70.488 77.6C71.192 78.288 71.544 79.256 71.544 80.504V80.96C71.544 81.296 71.376 81.464 71.04 81.464H69C68.664 81.464 68.496 81.296 68.496 80.96V80.816C68.496 80.192 68.376 79.768 68.136 79.544C67.896 79.32 67.456 79.208 66.816 79.208H65.88C65.224 79.208 64.776 79.336 64.536 79.592C64.312 79.832 64.2 80.312 64.2 81.032V81.488C64.2 82.24 64.856 82.672 66.168 82.784C67.528 82.896 68.736 83.168 69.792 83.6C70.352 83.84 70.816 84.272 71.184 84.896C71.568 85.504 71.76 86.288 71.76 87.248V88.064C71.76 89.312 71.408 90.28 70.704 90.968C70 91.656 69.024 92 67.776 92H65.16C63.912 92 62.936 91.656 62.232 90.968C61.528 90.28 61.176 89.312 61.176 88.064ZM76.8015 92H74.7615C74.4255 92 74.2575 91.832 74.2575 91.496V75.632C74.2575 75.296 74.4255 75.128 74.7615 75.128H76.8015C77.1375 75.128 77.3055 75.296 77.3055 75.632V81.056H77.4015C77.7535 80.192 78.5375 79.76 79.7535 79.76H80.5215C83.0335 79.76 84.2895 81.064 84.2895 83.672V91.496C84.2895 91.832 84.1135 92 83.7615 92H81.7455C81.4095 92 81.2415 91.832 81.2415 91.496V83.816C81.2415 83.304 81.1295 82.944 80.9055 82.736C80.6975 82.512 80.3375 82.4 79.8255 82.4H78.9615C77.8575 82.4 77.3055 83.008 77.3055 84.224V91.496C77.3055 91.832 77.1375 92 76.8015 92ZM92.676 92H90.54C89.276 92 88.3 91.664 87.612 90.992C86.924 90.32 86.58 89.352 86.58 88.088V83.672C86.58 82.408 86.924 81.44 87.612 80.768C88.3 80.096 89.276 79.76 90.54 79.76H92.676C93.924 79.76 94.892 80.104 95.58 80.792C96.284 81.464 96.636 82.424 96.636 83.672V88.088C96.636 89.336 96.284 90.304 95.58 90.992C94.892 91.664 93.924 92 92.676 92ZM90.996 89.384H92.22C92.732 89.384 93.092 89.28 93.3 89.072C93.524 88.864 93.636 88.504 93.636 87.992V83.768C93.636 83.256 93.524 82.896 93.3 82.688C93.092 82.48 92.732 82.376 92.22 82.376H90.996C90.484 82.376 90.124 82.48 89.916 82.688C89.708 82.896 89.604 83.256 89.604 83.768V87.992C89.604 88.504 89.708 88.864 89.916 89.072C90.124 89.28 90.484 89.384 90.996 89.384ZM103.927 92H101.191C100.887 92 100.695 91.832 100.615 91.496L98.2149 80.264C98.1509 79.928 98.2709 79.76 98.5749 79.76H100.879C101.231 79.76 101.423 79.928 101.455 80.264L102.535 88.472H102.727L104.431 80.264C104.479 79.928 104.663 79.76 104.983 79.76H107.095C107.431 79.76 107.631 79.928 107.695 80.264L109.351 88.472H109.543L110.647 80.264C110.695 79.928 110.887 79.76 111.223 79.76H113.527C113.847 79.76 113.967 79.928 113.887 80.264L111.487 91.496C111.423 91.832 111.231 92 110.911 92H108.175C107.855 92 107.663 91.832 107.599 91.496L106.135 83.384H105.943L104.503 91.496C104.455 91.832 104.263 92 103.927 92ZM123.007 96.056H121.471C121.151 96.056 120.991 95.88 120.991 95.528V93.92C120.991 93.568 121.151 93.392 121.471 93.392H121.975C122.983 93.392 123.663 93.248 124.015 92.96C124.383 92.688 124.663 92.152 124.855 91.352H123.583C123.279 91.352 123.079 91.184 122.983 90.848L120.175 80.264C120.079 79.928 120.199 79.76 120.535 79.76H122.671C122.991 79.76 123.191 79.928 123.271 80.264L125.335 89.12H125.431L127.471 80.264C127.535 79.928 127.735 79.76 128.071 79.76H130.087C130.487 79.76 130.647 79.936 130.567 80.288L127.639 92C127.287 93.328 126.743 94.336 126.007 95.024C125.271 95.712 124.271 96.056 123.007 96.056ZM138.168 92H136.032C134.768 92 133.792 91.664 133.104 90.992C132.416 90.32 132.072 89.352 132.072 88.088V83.672C132.072 82.408 132.416 81.44 133.104 80.768C133.792 80.096 134.768 79.76 136.032 79.76H138.168C139.416 79.76 140.384 80.104 141.072 80.792C141.776 81.464 142.128 82.424 142.128 83.672V88.088C142.128 89.336 141.776 90.304 141.072 90.992C140.384 91.664 139.416 92 138.168 92ZM136.488 89.384H137.712C138.224 89.384 138.584 89.28 138.792 89.072C139.016 88.864 139.128 88.504 139.128 87.992V83.768C139.128 83.256 139.016 82.896 138.792 82.688C138.584 82.48 138.224 82.376 137.712 82.376H136.488C135.976 82.376 135.616 82.48 135.408 82.688C135.2 82.896 135.096 83.256 135.096 83.768V87.992C135.096 88.504 135.2 88.864 135.408 89.072C135.616 89.28 135.976 89.384 136.488 89.384ZM148.939 92H148.147C146.915 92 145.979 91.664 145.339 90.992C144.715 90.32 144.403 89.352 144.403 88.088V80.264C144.403 79.928 144.571 79.76 144.907 79.76H146.947C147.283 79.76 147.451 79.928 147.451 80.264V87.944C147.451 88.456 147.555 88.824 147.763 89.048C147.987 89.256 148.347 89.36 148.843 89.36H149.731C150.835 89.36 151.387 88.752 151.387 87.536V80.264C151.387 79.928 151.555 79.76 151.891 79.76H153.907C154.259 79.76 154.435 79.928 154.435 80.264V91.496C154.435 91.832 154.259 92 153.907 92H151.891C151.555 92 151.387 91.832 151.387 91.496V90.704H151.291C151.115 91.136 150.803 91.464 150.355 91.688C149.907 91.896 149.435 92 148.939 92ZM159.63 92H157.59C157.254 92 157.086 91.832 157.086 91.496V80.264C157.086 79.928 157.254 79.76 157.59 79.76H159.63C159.966 79.76 160.134 79.928 160.134 80.264V81.08H160.23C160.406 80.648 160.718 80.32 161.166 80.096C161.614 79.872 162.086 79.76 162.582 79.76H163.446C163.766 79.76 163.926 79.928 163.926 80.264V81.92C163.926 82.112 163.886 82.248 163.806 82.328C163.742 82.392 163.622 82.416 163.446 82.4H161.79C160.686 82.4 160.134 83.024 160.134 84.272V91.496C160.134 91.832 159.966 92 159.63 92ZM173.27 92H171.23C170.894 92 170.726 91.832 170.726 91.496V75.632C170.726 75.296 170.894 75.128 171.23 75.128H173.27C173.606 75.128 173.774 75.296 173.774 75.632V81.056H173.87C174.222 80.192 175.006 79.76 176.222 79.76H176.99C179.502 79.76 180.758 81.064 180.758 83.672V91.496C180.758 91.832 180.582 92 180.23 92H178.214C177.878 92 177.71 91.832 177.71 91.496V83.816C177.71 83.304 177.598 82.944 177.374 82.736C177.166 82.512 176.806 82.4 176.294 82.4H175.43C174.326 82.4 173.774 83.008 173.774 84.224V91.496C173.774 91.832 173.606 92 173.27 92ZM189.145 92H187.009C185.745 92 184.769 91.664 184.081 90.992C183.393 90.32 183.049 89.352 183.049 88.088V83.672C183.049 82.408 183.393 81.44 184.081 80.768C184.769 80.096 185.745 79.76 187.009 79.76H189.145C190.393 79.76 191.361 80.104 192.049 80.792C192.753 81.464 193.105 82.424 193.105 83.672V88.088C193.105 89.336 192.753 90.304 192.049 90.992C191.361 91.664 190.393 92 189.145 92ZM187.465 89.384H188.689C189.201 89.384 189.561 89.28 189.769 89.072C189.993 88.864 190.105 88.504 190.105 87.992V83.768C190.105 83.256 189.993 82.896 189.769 82.688C189.561 82.48 189.201 82.376 188.689 82.376H187.465C186.953 82.376 186.593 82.48 186.385 82.688C186.177 82.896 186.073 83.256 186.073 83.768V87.992C186.073 88.504 186.177 88.864 186.385 89.072C186.593 89.28 186.953 89.384 187.465 89.384ZM199.916 92H199.124C197.892 92 196.956 91.664 196.316 90.992C195.692 90.32 195.38 89.352 195.38 88.088V80.264C195.38 79.928 195.548 79.76 195.884 79.76H197.924C198.26 79.76 198.428 79.928 198.428 80.264V87.944C198.428 88.456 198.532 88.824 198.74 89.048C198.964 89.256 199.324 89.36 199.82 89.36H200.708C201.812 89.36 202.364 88.752 202.364 87.536V80.264C202.364 79.928 202.532 79.76 202.868 79.76H204.884C205.236 79.76 205.412 79.928 205.412 80.264V91.496C205.412 91.832 205.236 92 204.884 92H202.868C202.532 92 202.364 91.832 202.364 91.496V90.704H202.268C202.092 91.136 201.78 91.464 201.332 91.688C200.884 91.896 200.412 92 199.916 92ZM212.694 92H208.134C207.814 92 207.654 91.832 207.654 91.496V89.96C207.654 89.784 207.686 89.664 207.75 89.6C207.814 89.52 207.942 89.48 208.134 89.48H212.142C212.926 89.48 213.318 89.24 213.318 88.76V88.64C213.318 88.256 212.99 87.888 212.334 87.536L209.958 86.216C209.142 85.8 208.542 85.352 208.158 84.872C207.774 84.392 207.582 83.776 207.582 83.024C207.582 81.904 207.878 81.08 208.47 80.552C209.062 80.024 209.99 79.76 211.254 79.76H215.262C215.582 79.76 215.742 79.928 215.742 80.264V81.824C215.742 82 215.71 82.128 215.646 82.208C215.582 82.272 215.454 82.304 215.262 82.304H211.926C211.142 82.304 210.75 82.504 210.75 82.904V83.024C210.75 83.376 211.094 83.736 211.782 84.104L214.206 85.544C215.038 85.992 215.622 86.456 215.958 86.936C216.294 87.4 216.462 88.016 216.462 88.784C216.462 90.928 215.206 92 212.694 92ZM227.61 92H222.306C221.042 92 220.066 91.664 219.378 90.992C218.69 90.32 218.346 89.352 218.346 88.088V83.672C218.346 82.408 218.69 81.44 219.378 80.768C220.066 80.096 221.042 79.76 222.306 79.76H224.202C225.466 79.76 226.442 80.096 227.13 80.768C227.818 81.44 228.162 82.408 228.162 83.672V86.72C228.162 87.056 227.994 87.224 227.658 87.224H221.634C221.442 87.224 221.346 87.312 221.346 87.488V88.016C221.346 88.512 221.45 88.872 221.658 89.096C221.882 89.304 222.25 89.408 222.762 89.408H227.61C227.946 89.408 228.114 89.584 228.114 89.936V91.52C228.114 91.696 228.074 91.824 227.994 91.904C227.93 91.968 227.802 92 227.61 92ZM221.634 85.184H224.898C225.074 85.184 225.162 85.096 225.162 84.92V83.768C225.162 83.256 225.058 82.896 224.85 82.688C224.642 82.48 224.282 82.376 223.77 82.376H222.762C222.25 82.376 221.89 82.48 221.682 82.688C221.474 82.896 221.37 83.256 221.37 83.768V84.92C221.37 85.096 221.458 85.184 221.634 85.184ZM235.838 77.696V75.608C235.838 75.288 235.998 75.128 236.318 75.128H238.406C238.726 75.128 238.886 75.28 238.886 75.584V77.696C238.886 78.016 238.726 78.176 238.406 78.176H236.318C235.998 78.176 235.838 78.016 235.838 77.696ZM235.838 91.496V80.264C235.838 79.928 235.998 79.76 236.318 79.76H238.382C238.718 79.76 238.886 79.928 238.886 80.264V91.496C238.886 91.704 238.846 91.84 238.766 91.904C238.702 91.968 238.582 92 238.406 92H236.342C236.006 92 235.838 91.832 235.838 91.496ZM244.192 92H242.152C241.816 92 241.648 91.832 241.648 91.496V80.264C241.648 79.928 241.816 79.76 242.152 79.76H244.192C244.528 79.76 244.696 79.928 244.696 80.264V81.056H244.792C245.144 80.192 245.928 79.76 247.144 79.76H247.912C250.424 79.76 251.68 81.064 251.68 83.672V91.496C251.68 91.832 251.504 92 251.152 92H249.136C248.8 92 248.632 91.832 248.632 91.496V83.816C248.632 83.304 248.52 82.944 248.296 82.736C248.088 82.512 247.728 82.4 247.216 82.4H246.352C245.248 82.4 244.696 83.008 244.696 84.224V91.496C244.696 91.832 244.528 92 244.192 92ZM263.78 92H263.204C261.94 92 260.964 91.664 260.276 90.992C259.588 90.32 259.244 89.352 259.244 88.088V83.672C259.244 82.408 259.588 81.44 260.276 80.768C260.964 80.096 261.94 79.76 263.204 79.76H268.748C269.1 79.76 269.276 79.928 269.276 80.264V91.496C269.276 91.832 269.1 92 268.748 92H266.732C266.396 92 266.228 91.832 266.228 91.496V90.704H266.132C265.956 91.136 265.644 91.464 265.196 91.688C264.748 91.896 264.276 92 263.78 92ZM266.228 87.536V82.664C266.228 82.488 266.132 82.4 265.94 82.4H263.684C263.172 82.4 262.812 82.512 262.604 82.736C262.396 82.944 262.292 83.304 262.292 83.816V87.944C262.292 88.456 262.396 88.824 262.604 89.048C262.812 89.256 263.172 89.36 263.684 89.36H264.572C265.676 89.36 266.228 88.752 266.228 87.536ZM283.707 92H280.563C280.227 92 280.027 91.832 279.963 91.496L276.243 77.12C276.131 76.752 276.291 76.568 276.723 76.568H278.979C279.299 76.568 279.491 76.736 279.555 77.072L282.075 88.88H282.171L284.691 77.072C284.755 76.736 284.947 76.568 285.267 76.568H287.523C287.923 76.568 288.083 76.752 288.003 77.12L284.283 91.496C284.203 91.832 284.011 92 283.707 92ZM292.479 92H290.439C290.103 92 289.935 91.832 289.935 91.496V77.072C289.935 76.736 290.103 76.568 290.439 76.568H296.151C297.399 76.568 298.375 76.912 299.079 77.6C299.783 78.288 300.135 79.256 300.135 80.504V82.376C300.135 84.184 299.423 85.384 297.999 85.976V86.072L300.567 91.424C300.711 91.808 300.575 92 300.159 92H298.215C297.927 92 297.719 91.968 297.591 91.904C297.463 91.84 297.359 91.704 297.279 91.496L294.879 86.312H293.271C293.079 86.312 292.983 86.4 292.983 86.576V91.496C292.983 91.832 292.815 92 292.479 92ZM293.247 83.864H295.599C296.111 83.864 296.487 83.76 296.727 83.552C296.967 83.328 297.087 82.976 297.087 82.496V80.624C297.087 80.128 296.967 79.768 296.727 79.544C296.487 79.32 296.111 79.208 295.599 79.208H293.247C293.071 79.208 292.983 79.296 292.983 79.472V83.6C292.983 83.776 293.071 83.864 293.247 83.864ZM317.117 92H311.813C310.549 92 309.573 91.664 308.885 90.992C308.197 90.32 307.853 89.352 307.853 88.088V83.672C307.853 82.408 308.197 81.44 308.885 80.768C309.573 80.096 310.549 79.76 311.813 79.76H313.709C314.973 79.76 315.949 80.096 316.637 80.768C317.325 81.44 317.669 82.408 317.669 83.672V86.72C317.669 87.056 317.501 87.224 317.165 87.224H311.141C310.949 87.224 310.853 87.312 310.853 87.488V88.016C310.853 88.512 310.957 88.872 311.165 89.096C311.389 89.304 311.757 89.408 312.269 89.408H317.117C317.453 89.408 317.621 89.584 317.621 89.936V91.52C317.621 91.696 317.581 91.824 317.501 91.904C317.437 91.968 317.309 92 317.117 92ZM311.141 85.184H314.405C314.581 85.184 314.669 85.096 314.669 84.92V83.768C314.669 83.256 314.565 82.896 314.357 82.688C314.149 82.48 313.789 82.376 313.277 82.376H312.269C311.757 82.376 311.397 82.48 311.189 82.688C310.981 82.896 310.877 83.256 310.877 83.768V84.92C310.877 85.096 310.965 85.184 311.141 85.184ZM322.497 92H320.457C320.121 92 319.953 91.832 319.953 91.496V80.264C319.953 79.928 320.121 79.76 320.457 79.76H322.497C322.833 79.76 323.001 79.928 323.001 80.264V81.056H323.097C323.449 80.192 324.233 79.76 325.449 79.76H326.217C328.729 79.76 329.985 81.064 329.985 83.672V91.496C329.985 91.832 329.809 92 329.457 92H327.441C327.105 92 326.937 91.832 326.937 91.496V83.816C326.937 83.304 326.825 82.944 326.601 82.736C326.393 82.512 326.033 82.4 325.521 82.4H324.657C323.553 82.4 323.001 83.008 323.001 84.224V91.496C323.001 91.832 322.833 92 322.497 92ZM331.987 79.76H334.099C334.419 79.76 334.611 79.928 334.675 80.264L336.739 89.288H336.907L338.923 80.264C338.987 79.928 339.187 79.76 339.523 79.76H341.635C341.971 79.76 342.091 79.928 341.995 80.264L338.971 91.472C338.907 91.824 338.691 92 338.323 92H335.275C334.939 92 334.723 91.824 334.627 91.472L331.627 80.264C331.531 79.928 331.651 79.76 331.987 79.76ZM343.862 77.696V75.608C343.862 75.288 344.022 75.128 344.342 75.128H346.43C346.75 75.128 346.91 75.28 346.91 75.584V77.696C346.91 78.016 346.75 78.176 346.43 78.176H344.342C344.022 78.176 343.862 78.016 343.862 77.696ZM343.862 91.496V80.264C343.862 79.928 344.022 79.76 344.342 79.76H346.406C346.742 79.76 346.91 79.928 346.91 80.264V91.496C346.91 91.704 346.87 91.84 346.79 91.904C346.726 91.968 346.606 92 346.43 92H344.366C344.03 92 343.862 91.832 343.862 91.496ZM352.216 92H350.176C349.84 92 349.672 91.832 349.672 91.496V80.264C349.672 79.928 349.84 79.76 350.176 79.76H352.216C352.552 79.76 352.72 79.928 352.72 80.264V81.08H352.816C352.992 80.648 353.304 80.32 353.752 80.096C354.2 79.872 354.672 79.76 355.168 79.76H356.032C356.352 79.76 356.512 79.928 356.512 80.264V81.92C356.512 82.112 356.472 82.248 356.392 82.328C356.328 82.392 356.208 82.416 356.032 82.4H354.376C353.272 82.4 352.72 83.024 352.72 84.272V91.496C352.72 91.832 352.552 92 352.216 92ZM363.895 92H361.759C360.495 92 359.519 91.664 358.831 90.992C358.143 90.32 357.799 89.352 357.799 88.088V83.672C357.799 82.408 358.143 81.44 358.831 80.768C359.519 80.096 360.495 79.76 361.759 79.76H363.895C365.143 79.76 366.111 80.104 366.799 80.792C367.503 81.464 367.855 82.424 367.855 83.672V88.088C367.855 89.336 367.503 90.304 366.799 90.992C366.111 91.664 365.143 92 363.895 92ZM362.215 89.384H363.439C363.951 89.384 364.311 89.28 364.519 89.072C364.743 88.864 364.855 88.504 364.855 87.992V83.768C364.855 83.256 364.743 82.896 364.519 82.688C364.311 82.48 363.951 82.376 363.439 82.376H362.215C361.703 82.376 361.343 82.48 361.135 82.688C360.927 82.896 360.823 83.256 360.823 83.768V87.992C360.823 88.504 360.927 88.864 361.135 89.072C361.343 89.28 361.703 89.384 362.215 89.384ZM372.794 92H370.754C370.418 92 370.25 91.832 370.25 91.496V80.264C370.25 79.928 370.418 79.76 370.754 79.76H372.794C373.13 79.76 373.298 79.928 373.298 80.264V81.056H373.394C373.746 80.192 374.53 79.76 375.746 79.76H376.514C379.026 79.76 380.282 81.064 380.282 83.672V91.496C380.282 91.832 380.106 92 379.754 92H377.738C377.402 92 377.234 91.832 377.234 91.496V83.816C377.234 83.304 377.122 82.944 376.898 82.736C376.69 82.512 376.33 82.4 375.818 82.4H374.954C373.85 82.4 373.298 83.008 373.298 84.224V91.496C373.298 91.832 373.13 92 372.794 92ZM385.356 92H383.316C382.98 92 382.812 91.832 382.812 91.496V80.264C382.812 79.928 382.98 79.76 383.316 79.76H385.356C385.692 79.76 385.86 79.928 385.86 80.264V81.056H385.956C386.148 80.672 386.468 80.36 386.916 80.12C387.38 79.88 387.908 79.76 388.5 79.76H389.172C390.564 79.76 391.564 80.272 392.172 81.296C392.716 80.272 393.652 79.76 394.98 79.76H395.676C396.908 79.76 397.836 80.096 398.46 80.768C399.1 81.44 399.42 82.408 399.42 83.672V91.496C399.42 91.832 399.252 92 398.916 92H396.876C396.54 92 396.372 91.832 396.372 91.496V83.816C396.372 83.304 396.268 82.944 396.06 82.736C395.852 82.512 395.492 82.4 394.98 82.4H394.38C393.276 82.4 392.724 83.016 392.724 84.248V91.496C392.724 91.832 392.548 92 392.196 92H390.18C389.844 92 389.676 91.832 389.676 91.496V83.816C389.676 83.304 389.564 82.944 389.34 82.736C389.132 82.512 388.772 82.4 388.26 82.4H387.516C386.412 82.4 385.86 83.008 385.86 84.224V91.496C385.86 91.832 385.692 92 385.356 92ZM410.985 92H405.681C404.417 92 403.441 91.664 402.753 90.992C402.065 90.32 401.721 89.352 401.721 88.088V83.672C401.721 82.408 402.065 81.44 402.753 80.768C403.441 80.096 404.417 79.76 405.681 79.76H407.577C408.841 79.76 409.817 80.096 410.505 80.768C411.193 81.44 411.537 82.408 411.537 83.672V86.72C411.537 87.056 411.369 87.224 411.033 87.224H405.009C404.817 87.224 404.721 87.312 404.721 87.488V88.016C404.721 88.512 404.825 88.872 405.033 89.096C405.257 89.304 405.625 89.408 406.137 89.408H410.985C411.321 89.408 411.489 89.584 411.489 89.936V91.52C411.489 91.696 411.449 91.824 411.369 91.904C411.305 91.968 411.177 92 410.985 92ZM405.009 85.184H408.273C408.449 85.184 408.537 85.096 408.537 84.92V83.768C408.537 83.256 408.433 82.896 408.225 82.688C408.017 82.48 407.657 82.376 407.145 82.376H406.137C405.625 82.376 405.265 82.48 405.057 82.688C404.849 82.896 404.745 83.256 404.745 83.768V84.92C404.745 85.096 404.833 85.184 405.009 85.184ZM416.364 92H414.324C413.988 92 413.82 91.832 413.82 91.496V80.264C413.82 79.928 413.988 79.76 414.324 79.76H416.364C416.7 79.76 416.868 79.928 416.868 80.264V81.056H416.964C417.316 80.192 418.1 79.76 419.316 79.76H420.084C422.596 79.76 423.852 81.064 423.852 83.672V91.496C423.852 91.832 423.676 92 423.324 92H421.308C420.972 92 420.804 91.832 420.804 91.496V83.816C420.804 83.304 420.692 82.944 420.468 82.736C420.26 82.512 419.9 82.4 419.388 82.4H418.524C417.42 82.4 416.868 83.008 416.868 84.224V91.496C416.868 91.832 416.7 92 416.364 92ZM426.646 82.4H425.687C425.495 82.4 425.359 82.368 425.279 82.304C425.215 82.24 425.183 82.112 425.183 81.92V80.264C425.183 79.928 425.351 79.76 425.687 79.76H426.646C426.823 79.76 426.911 79.672 426.911 79.496V77.216C426.911 76.88 427.087 76.712 427.439 76.712H429.455C429.791 76.712 429.959 76.88 429.959 77.216V79.496C429.959 79.672 430.055 79.76 430.247 79.76H432.118C432.455 79.76 432.623 79.928 432.623 80.264V81.92C432.623 82.096 432.583 82.224 432.503 82.304C432.439 82.368 432.311 82.4 432.118 82.4H430.247C430.055 82.4 429.959 82.488 429.959 82.664V87.968C429.959 88.464 430.071 88.824 430.295 89.048C430.519 89.256 430.887 89.36 431.398 89.36H432.359C432.695 89.36 432.863 89.528 432.863 89.864V91.52C432.863 91.696 432.823 91.824 432.743 91.904C432.679 91.968 432.551 92 432.359 92H430.895C429.631 92 428.647 91.664 427.943 90.992C427.255 90.32 426.911 89.36 426.911 88.112V82.664C426.911 82.488 426.823 82.4 426.646 82.4Z" fill="#5A5A5A"/>
<path d="M61.176 148.064V147.584C61.176 147.248 61.344 147.08 61.68 147.08H63.72C64.056 147.08 64.224 147.248 64.224 147.584V147.776C64.224 148.384 64.344 148.8 64.584 149.024C64.824 149.248 65.264 149.36 65.904 149.36H67.032C67.656 149.36 68.088 149.24 68.328 149C68.584 148.76 68.712 148.312 68.712 147.656V147.368C68.712 146.904 68.52 146.552 68.136 146.312C67.768 146.056 67.304 145.904 66.744 145.856C66.184 145.808 65.576 145.72 64.92 145.592C64.28 145.448 63.68 145.272 63.12 145.064C62.56 144.84 62.088 144.416 61.704 143.792C61.336 143.152 61.152 142.336 61.152 141.344V140.504C61.152 139.256 61.504 138.288 62.208 137.6C62.912 136.912 63.888 136.568 65.136 136.568H67.536C68.8 136.568 69.784 136.912 70.488 137.6C71.192 138.288 71.544 139.256 71.544 140.504V140.96C71.544 141.296 71.376 141.464 71.04 141.464H69C68.664 141.464 68.496 141.296 68.496 140.96V140.816C68.496 140.192 68.376 139.768 68.136 139.544C67.896 139.32 67.456 139.208 66.816 139.208H65.88C65.224 139.208 64.776 139.336 64.536 139.592C64.312 139.832 64.2 140.312 64.2 141.032V141.488C64.2 142.24 64.856 142.672 66.168 142.784C67.528 142.896 68.736 143.168 69.792 143.6C70.352 143.84 70.816 144.272 71.184 144.896C71.568 145.504 71.76 146.288 71.76 147.248V148.064C71.76 149.312 71.408 150.28 70.704 150.968C70 151.656 69.024 152 67.776 152H65.16C63.912 152 62.936 151.656 62.232 150.968C61.528 150.28 61.176 149.312 61.176 148.064ZM83.2815 152H77.9775C76.7135 152 75.7375 151.664 75.0495 150.992C74.3615 150.32 74.0175 149.352 74.0175 148.088V143.672C74.0175 142.408 74.3615 141.44 75.0495 140.768C75.7375 140.096 76.7135 139.76 77.9775 139.76H79.8735C81.1375 139.76 82.1135 140.096 82.8015 140.768C83.4895 141.44 83.8335 142.408 83.8335 143.672V146.72C83.8335 147.056 83.6655 147.224 83.3295 147.224H77.3055C77.1135 147.224 77.0175 147.312 77.0175 147.488V148.016C77.0175 148.512 77.1215 148.872 77.3295 149.096C77.5535 149.304 77.9215 149.408 78.4335 149.408H83.2815C83.6175 149.408 83.7855 149.584 83.7855 149.936V151.52C83.7855 151.696 83.7455 151.824 83.6655 151.904C83.6015 151.968 83.4735 152 83.2815 152ZM77.3055 145.184H80.5695C80.7455 145.184 80.8335 145.096 80.8335 144.92V143.768C80.8335 143.256 80.7295 142.896 80.5215 142.688C80.3135 142.48 79.9535 142.376 79.4415 142.376H78.4335C77.9215 142.376 77.5615 142.48 77.3535 142.688C77.1455 142.896 77.0415 143.256 77.0415 143.768V144.92C77.0415 145.096 77.1295 145.184 77.3055 145.184ZM88.7809 152H86.7409C86.4049 152 86.2369 151.832 86.2369 151.496V135.632C86.2369 135.296 86.4049 135.128 86.7409 135.128H88.7809C89.1169 135.128 89.2849 135.296 89.2849 135.632V151.496C89.2849 151.832 89.1169 152 88.7809 152ZM94.7106 152H92.6706C92.3346 152 92.1666 151.832 92.1666 151.496V135.632C92.1666 135.296 92.3346 135.128 92.6706 135.128H94.7106C95.0466 135.128 95.2146 135.296 95.2146 135.632V151.496C95.2146 151.832 95.0466 152 94.7106 152ZM105.242 156.056H103.706C103.386 156.056 103.226 155.88 103.226 155.528V153.92C103.226 153.568 103.386 153.392 103.706 153.392H104.21C105.218 153.392 105.898 153.248 106.25 152.96C106.618 152.688 106.898 152.152 107.09 151.352H105.818C105.514 151.352 105.314 151.184 105.218 150.848L102.41 140.264C102.314 139.928 102.434 139.76 102.77 139.76H104.906C105.226 139.76 105.426 139.928 105.506 140.264L107.57 149.12H107.666L109.706 140.264C109.77 139.928 109.97 139.76 110.306 139.76H112.322C112.722 139.76 112.882 139.936 112.802 140.288L109.874 152C109.522 153.328 108.978 154.336 108.242 155.024C107.506 155.712 106.506 156.056 105.242 156.056ZM120.403 152H118.267C117.003 152 116.027 151.664 115.339 150.992C114.651 150.32 114.307 149.352 114.307 148.088V143.672C114.307 142.408 114.651 141.44 115.339 140.768C116.027 140.096 117.003 139.76 118.267 139.76H120.403C121.651 139.76 122.619 140.104 123.307 140.792C124.011 141.464 124.363 142.424 124.363 143.672V148.088C124.363 149.336 124.011 150.304 123.307 150.992C122.619 151.664 121.651 152 120.403 152ZM118.723 149.384H119.947C120.459 149.384 120.819 149.28 121.027 149.072C121.251 148.864 121.363 148.504 121.363 147.992V143.768C121.363 143.256 121.251 142.896 121.027 142.688C120.819 142.48 120.459 142.376 119.947 142.376H118.723C118.211 142.376 117.851 142.48 117.643 142.688C117.435 142.896 117.331 143.256 117.331 143.768V147.992C117.331 148.504 117.435 148.864 117.643 149.072C117.851 149.28 118.211 149.384 118.723 149.384ZM131.174 152H130.382C129.15 152 128.214 151.664 127.574 150.992C126.95 150.32 126.638 149.352 126.638 148.088V140.264C126.638 139.928 126.806 139.76 127.142 139.76H129.182C129.518 139.76 129.686 139.928 129.686 140.264V147.944C129.686 148.456 129.79 148.824 129.998 149.048C130.222 149.256 130.582 149.36 131.078 149.36H131.966C133.07 149.36 133.622 148.752 133.622 147.536V140.264C133.622 139.928 133.79 139.76 134.126 139.76H136.142C136.494 139.76 136.67 139.928 136.67 140.264V151.496C136.67 151.832 136.494 152 136.142 152H134.126C133.79 152 133.622 151.832 133.622 151.496V150.704H133.526C133.35 151.136 133.038 151.464 132.59 151.688C132.142 151.896 131.67 152 131.174 152ZM141.864 152H139.824C139.488 152 139.32 151.832 139.32 151.496V140.264C139.32 139.928 139.488 139.76 139.824 139.76H141.864C142.2 139.76 142.368 139.928 142.368 140.264V141.08H142.464C142.64 140.648 142.952 140.32 143.4 140.096C143.848 139.872 144.32 139.76 144.816 139.76H145.68C146 139.76 146.16 139.928 146.16 140.264V141.92C146.16 142.112 146.12 142.248 146.04 142.328C145.976 142.392 145.856 142.416 145.68 142.4H144.024C142.92 142.4 142.368 143.024 142.368 144.272V151.496C142.368 151.832 142.2 152 141.864 152ZM155.505 152H153.465C153.129 152 152.961 151.832 152.961 151.496V135.632C152.961 135.296 153.129 135.128 153.465 135.128H155.505C155.841 135.128 156.009 135.296 156.009 135.632V141.056H156.105C156.457 140.192 157.241 139.76 158.457 139.76H159.225C161.737 139.76 162.993 141.064 162.993 143.672V151.496C162.993 151.832 162.817 152 162.465 152H160.449C160.113 152 159.945 151.832 159.945 151.496V143.816C159.945 143.304 159.833 142.944 159.609 142.736C159.401 142.512 159.041 142.4 158.529 142.4H157.665C156.561 142.4 156.009 143.008 156.009 144.224V151.496C156.009 151.832 155.841 152 155.505 152ZM171.379 152H169.243C167.979 152 167.003 151.664 166.315 150.992C165.627 150.32 165.283 149.352 165.283 148.088V143.672C165.283 142.408 165.627 141.44 166.315 140.768C167.003 140.096 167.979 139.76 169.243 139.76H171.379C172.627 139.76 173.595 140.104 174.283 140.792C174.987 141.464 175.339 142.424 175.339 143.672V148.088C175.339 149.336 174.987 150.304 174.283 150.992C173.595 151.664 172.627 152 171.379 152ZM169.699 149.384H170.923C171.435 149.384 171.795 149.28 172.003 149.072C172.227 148.864 172.339 148.504 172.339 147.992V143.768C172.339 143.256 172.227 142.896 172.003 142.688C171.795 142.48 171.435 142.376 170.923 142.376H169.699C169.187 142.376 168.827 142.48 168.619 142.688C168.411 142.896 168.307 143.256 168.307 143.768V147.992C168.307 148.504 168.411 148.864 168.619 149.072C168.827 149.28 169.187 149.384 169.699 149.384ZM182.15 152H181.358C180.126 152 179.19 151.664 178.55 150.992C177.926 150.32 177.614 149.352 177.614 148.088V140.264C177.614 139.928 177.782 139.76 178.118 139.76H180.158C180.494 139.76 180.662 139.928 180.662 140.264V147.944C180.662 148.456 180.766 148.824 180.974 149.048C181.198 149.256 181.558 149.36 182.054 149.36H182.942C184.046 149.36 184.598 148.752 184.598 147.536V140.264C184.598 139.928 184.766 139.76 185.102 139.76H187.118C187.47 139.76 187.646 139.928 187.646 140.264V151.496C187.646 151.832 187.47 152 187.118 152H185.102C184.766 152 184.598 151.832 184.598 151.496V150.704H184.502C184.326 151.136 184.014 151.464 183.566 151.688C183.118 151.896 182.646 152 182.15 152ZM194.929 152H190.369C190.049 152 189.889 151.832 189.889 151.496V149.96C189.889 149.784 189.921 149.664 189.985 149.6C190.049 149.52 190.177 149.48 190.369 149.48H194.377C195.161 149.48 195.553 149.24 195.553 148.76V148.64C195.553 148.256 195.225 147.888 194.569 147.536L192.193 146.216C191.377 145.8 190.777 145.352 190.393 144.872C190.009 144.392 189.817 143.776 189.817 143.024C189.817 141.904 190.113 141.08 190.705 140.552C191.297 140.024 192.225 139.76 193.489 139.76H197.497C197.817 139.76 197.977 139.928 197.977 140.264V141.824C197.977 142 197.945 142.128 197.881 142.208C197.817 142.272 197.689 142.304 197.497 142.304H194.161C193.377 142.304 192.985 142.504 192.985 142.904V143.024C192.985 143.376 193.329 143.736 194.017 144.104L196.441 145.544C197.273 145.992 197.857 146.456 198.193 146.936C198.529 147.4 198.697 148.016 198.697 148.784C198.697 150.928 197.441 152 194.929 152ZM209.844 152H204.54C203.276 152 202.3 151.664 201.612 150.992C200.924 150.32 200.58 149.352 200.58 148.088V143.672C200.58 142.408 200.924 141.44 201.612 140.768C202.3 140.096 203.276 139.76 204.54 139.76H206.436C207.7 139.76 208.676 140.096 209.364 140.768C210.052 141.44 210.396 142.408 210.396 143.672V146.72C210.396 147.056 210.228 147.224 209.892 147.224H203.868C203.676 147.224 203.58 147.312 203.58 147.488V148.016C203.58 148.512 203.684 148.872 203.892 149.096C204.116 149.304 204.484 149.408 204.996 149.408H209.844C210.18 149.408 210.348 149.584 210.348 149.936V151.52C210.348 151.696 210.308 151.824 210.228 151.904C210.164 151.968 210.036 152 209.844 152ZM203.868 145.184H207.132C207.308 145.184 207.396 145.096 207.396 144.92V143.768C207.396 143.256 207.292 142.896 207.084 142.688C206.876 142.48 206.516 142.376 206.004 142.376H204.996C204.484 142.376 204.124 142.48 203.916 142.688C203.708 142.896 203.604 143.256 203.604 143.768V144.92C203.604 145.096 203.692 145.184 203.868 145.184ZM222.441 152H221.457C220.225 152 219.289 151.664 218.649 150.992C218.025 150.32 217.713 149.352 217.713 148.088V143.672C217.713 142.408 218.025 141.44 218.649 140.768C219.289 140.096 220.225 139.76 221.457 139.76H222.441C222.937 139.76 223.409 139.872 223.857 140.096C224.305 140.304 224.617 140.624 224.793 141.056H224.889V135.632C224.889 135.296 225.057 135.128 225.393 135.128H227.433C227.769 135.128 227.937 135.296 227.937 135.632V151.496C227.937 151.832 227.769 152 227.433 152H225.393C225.057 152 224.889 151.832 224.889 151.496V150.704H224.793C224.617 151.136 224.305 151.464 223.857 151.688C223.409 151.896 222.937 152 222.441 152ZM224.889 147.536V144.224C224.889 143.008 224.337 142.4 223.233 142.4H222.153C221.641 142.4 221.281 142.512 221.073 142.736C220.865 142.944 220.761 143.304 220.761 143.816V147.944C220.761 148.456 220.865 148.824 221.073 149.048C221.281 149.256 221.641 149.36 222.153 149.36H223.233C224.337 149.36 224.889 148.752 224.889 147.536ZM239.61 152H234.306C233.042 152 232.066 151.664 231.378 150.992C230.69 150.32 230.346 149.352 230.346 148.088V143.672C230.346 142.408 230.69 141.44 231.378 140.768C232.066 140.096 233.042 139.76 234.306 139.76H236.202C237.466 139.76 238.442 140.096 239.13 140.768C239.818 141.44 240.162 142.408 240.162 143.672V146.72C240.162 147.056 239.994 147.224 239.658 147.224H233.634C233.442 147.224 233.346 147.312 233.346 147.488V148.016C233.346 148.512 233.45 148.872 233.658 149.096C233.882 149.304 234.25 149.408 234.762 149.408H239.61C239.946 149.408 240.114 149.584 240.114 149.936V151.52C240.114 151.696 240.074 151.824 239.994 151.904C239.93 151.968 239.802 152 239.61 152ZM233.634 145.184H236.898C237.074 145.184 237.162 145.096 237.162 144.92V143.768C237.162 143.256 237.058 142.896 236.85 142.688C236.642 142.48 236.282 142.376 235.77 142.376H234.762C234.25 142.376 233.89 142.48 233.682 142.688C233.474 142.896 233.37 143.256 233.37 143.768V144.92C233.37 145.096 233.458 145.184 233.634 145.184ZM247.077 152H242.517C242.197 152 242.037 151.832 242.037 151.496V149.96C242.037 149.784 242.069 149.664 242.133 149.6C242.197 149.52 242.325 149.48 242.517 149.48H246.525C247.309 149.48 247.701 149.24 247.701 148.76V148.64C247.701 148.256 247.373 147.888 246.717 147.536L244.341 146.216C243.525 145.8 242.925 145.352 242.541 144.872C242.157 144.392 241.965 143.776 241.965 143.024C241.965 141.904 242.261 141.08 242.853 140.552C243.445 140.024 244.373 139.76 245.637 139.76H249.645C249.965 139.76 250.125 139.928 250.125 140.264V141.824C250.125 142 250.093 142.128 250.029 142.208C249.965 142.272 249.837 142.304 249.645 142.304H246.309C245.525 142.304 245.133 142.504 245.133 142.904V143.024C245.133 143.376 245.477 143.736 246.165 144.104L248.589 145.544C249.421 145.992 250.005 146.456 250.341 146.936C250.677 147.4 250.845 148.016 250.845 148.784C250.845 150.928 249.589 152 247.077 152ZM253.088 137.696V135.608C253.088 135.288 253.248 135.128 253.568 135.128H255.656C255.976 135.128 256.136 135.28 256.136 135.584V137.696C256.136 138.016 255.976 138.176 255.656 138.176H253.568C253.248 138.176 253.088 138.016 253.088 137.696ZM253.088 151.496V140.264C253.088 139.928 253.248 139.76 253.568 139.76H255.632C255.968 139.76 256.136 139.928 256.136 140.264V151.496C256.136 151.704 256.096 151.84 256.016 151.904C255.952 151.968 255.832 152 255.656 152H253.592C253.256 152 253.088 151.832 253.088 151.496ZM263.218 151.448H262.426C261.194 151.448 260.258 151.112 259.618 150.44C258.994 149.768 258.682 148.8 258.682 147.536V143.672C258.682 142.408 259.026 141.44 259.714 140.768C260.402 140.096 261.378 139.76 262.642 139.76H268.186C268.538 139.76 268.714 139.928 268.714 140.264V152.096C268.714 153.344 268.362 154.304 267.658 154.976C266.97 155.648 266.002 155.984 264.754 155.984H260.146C259.954 155.984 259.818 155.944 259.738 155.864C259.674 155.8 259.642 155.68 259.642 155.504V153.848C259.642 153.512 259.81 153.344 260.146 153.344H264.25C264.762 153.344 265.122 153.232 265.33 153.008C265.554 152.8 265.666 152.448 265.666 151.952V150.128H265.57C265.394 150.56 265.082 150.888 264.634 151.112C264.186 151.336 263.714 151.448 263.218 151.448ZM265.666 146.984V142.664C265.666 142.488 265.57 142.4 265.378 142.4H263.122C262.61 142.4 262.25 142.512 262.042 142.736C261.834 142.944 261.73 143.304 261.73 143.816V147.392C261.73 147.904 261.834 148.264 262.042 148.472C262.25 148.68 262.61 148.784 263.122 148.784H264.01C265.114 148.784 265.666 148.184 265.666 146.984ZM273.887 152H271.847C271.511 152 271.343 151.832 271.343 151.496V140.264C271.343 139.928 271.511 139.76 271.847 139.76H273.887C274.223 139.76 274.391 139.928 274.391 140.264V141.056H274.487C274.839 140.192 275.623 139.76 276.839 139.76H277.607C280.119 139.76 281.375 141.064 281.375 143.672V151.496C281.375 151.832 281.199 152 280.847 152H278.831C278.495 152 278.327 151.832 278.327 151.496V143.816C278.327 143.304 278.215 142.944 277.991 142.736C277.783 142.512 277.423 142.4 276.911 142.4H276.047C274.943 142.4 274.391 143.008 274.391 144.224V151.496C274.391 151.832 274.223 152 273.887 152ZM293.475 152H292.899C291.635 152 290.659 151.664 289.971 150.992C289.283 150.32 288.939 149.352 288.939 148.088V143.672C288.939 142.408 289.283 141.44 289.971 140.768C290.659 140.096 291.635 139.76 292.899 139.76H298.443C298.795 139.76 298.971 139.928 298.971 140.264V151.496C298.971 151.832 298.795 152 298.443 152H296.427C296.091 152 295.923 151.832 295.923 151.496V150.704H295.827C295.651 151.136 295.339 151.464 294.891 151.688C294.443 151.896 293.971 152 293.475 152ZM295.923 147.536V142.664C295.923 142.488 295.827 142.4 295.635 142.4H293.379C292.867 142.4 292.507 142.512 292.299 142.736C292.091 142.944 291.987 143.304 291.987 143.816V147.944C291.987 148.456 292.091 148.824 292.299 149.048C292.507 149.256 292.867 149.36 293.379 149.36H294.267C295.371 149.36 295.923 148.752 295.923 147.536ZM306.233 152H301.673C301.353 152 301.193 151.832 301.193 151.496V149.96C301.193 149.784 301.225 149.664 301.289 149.6C301.353 149.52 301.481 149.48 301.673 149.48H305.681C306.465 149.48 306.857 149.24 306.857 148.76V148.64C306.857 148.256 306.529 147.888 305.873 147.536L303.497 146.216C302.681 145.8 302.081 145.352 301.697 144.872C301.313 144.392 301.121 143.776 301.121 143.024C301.121 141.904 301.417 141.08 302.009 140.552C302.601 140.024 303.529 139.76 304.793 139.76H308.801C309.121 139.76 309.281 139.928 309.281 140.264V141.824C309.281 142 309.249 142.128 309.185 142.208C309.121 142.272 308.993 142.304 308.801 142.304H305.465C304.681 142.304 304.289 142.504 304.289 142.904V143.024C304.289 143.376 304.633 143.736 305.321 144.104L307.745 145.544C308.577 145.992 309.161 146.456 309.497 146.936C309.833 147.4 310.001 148.016 310.001 148.784C310.001 150.928 308.745 152 306.233 152ZM320.134 152H318.142C317.806 152 317.638 151.832 317.638 151.496V137.072C317.638 136.736 317.806 136.568 318.142 136.568H319.942C320.278 136.568 320.502 136.68 320.614 136.904L325.462 146H325.558V137.072C325.558 136.736 325.726 136.568 326.062 136.568H328.054C328.39 136.568 328.558 136.736 328.558 137.072V151.496C328.558 151.832 328.39 152 328.054 152H326.302C325.95 152 325.694 151.84 325.534 151.52L320.734 142.592H320.638V151.496C320.638 151.832 320.47 152 320.134 152ZM334.221 152H332.181C331.845 152 331.677 151.832 331.677 151.496V137.072C331.677 136.736 331.845 136.568 332.181 136.568H339.837C340.157 136.568 340.317 136.736 340.317 137.072V138.704C340.317 139.04 340.157 139.208 339.837 139.208H335.013C334.821 139.208 334.725 139.296 334.725 139.472V143.192C334.725 143.384 334.821 143.48 335.013 143.48H339.117C339.453 143.48 339.621 143.648 339.621 143.984V145.592C339.621 145.944 339.453 146.12 339.117 146.12H335.013C334.821 146.12 334.725 146.208 334.725 146.384V151.496C334.725 151.832 334.557 152 334.221 152ZM347.258 152H345.242C344.89 152 344.714 151.832 344.714 151.496V139.472C344.714 139.296 344.626 139.208 344.45 139.208H341.714C341.378 139.208 341.21 139.04 341.21 138.704V137.072C341.21 136.736 341.378 136.568 341.714 136.568H350.786C351.122 136.568 351.29 136.736 351.29 137.072V138.704C351.29 139.04 351.122 139.208 350.786 139.208H348.05C347.858 139.208 347.762 139.296 347.762 139.472V151.496C347.762 151.832 347.594 152 347.258 152Z" fill="#5A5A5A"/>
<path d="M69.912 212H62.064C61.728 212 61.56 211.832 61.56 211.496V197.072C61.56 196.736 61.728 196.568 62.064 196.568H69.912C70.232 196.568 70.392 196.736 70.392 197.072V198.704C70.392 199.04 70.232 199.208 69.912 199.208H64.896C64.704 199.208 64.608 199.296 64.608 199.472V202.592C64.608 202.768 64.704 202.856 64.896 202.856H69C69.336 202.856 69.504 203.024 69.504 203.36V204.992C69.504 205.328 69.336 205.496 69 205.496H64.896C64.704 205.496 64.608 205.584 64.608 205.76V209.096C64.608 209.272 64.704 209.36 64.896 209.36H69.912C70.232 209.36 70.392 209.528 70.392 209.864V211.496C70.392 211.832 70.232 212 69.912 212ZM77.1004 212H76.5244C75.2604 212 74.2844 211.664 73.5964 210.992C72.9084 210.32 72.5644 209.352 72.5644 208.088V203.672C72.5644 202.408 72.9084 201.44 73.5964 200.768C74.2844 200.096 75.2604 199.76 76.5244 199.76H82.0684C82.4204 199.76 82.5964 199.928 82.5964 200.264V211.496C82.5964 211.832 82.4204 212 82.0684 212H80.0524C79.7164 212 79.5484 211.832 79.5484 211.496V210.704H79.4524C79.2764 211.136 78.9644 211.464 78.5164 211.688C78.0684 211.896 77.5964 212 77.1004 212ZM79.5484 207.536V202.664C79.5484 202.488 79.4524 202.4 79.2604 202.4H77.0044C76.4924 202.4 76.1324 202.512 75.9244 202.736C75.7164 202.944 75.6124 203.304 75.6124 203.816V207.944C75.6124 208.456 75.7164 208.824 75.9244 209.048C76.1324 209.256 76.4924 209.36 77.0044 209.36H77.8924C78.9964 209.36 79.5484 208.752 79.5484 207.536ZM87.7703 212H85.7303C85.3943 212 85.2263 211.832 85.2263 211.496V200.264C85.2263 199.928 85.3943 199.76 85.7303 199.76H87.7703C88.1063 199.76 88.2743 199.928 88.2743 200.264V201.08H88.3703C88.5463 200.648 88.8583 200.32 89.3063 200.096C89.7543 199.872 90.2263 199.76 90.7223 199.76H91.5863C91.9063 199.76 92.0663 199.928 92.0663 200.264V201.92C92.0663 202.112 92.0263 202.248 91.9463 202.328C91.8823 202.392 91.7623 202.416 91.5863 202.4H89.9303C88.8263 202.4 88.2743 203.024 88.2743 204.272V211.496C88.2743 211.832 88.1063 212 87.7703 212ZM96.1374 212H94.0974C93.7614 212 93.5934 211.832 93.5934 211.496V200.264C93.5934 199.928 93.7614 199.76 94.0974 199.76H96.1374C96.4734 199.76 96.6414 199.928 96.6414 200.264V201.056H96.7374C97.0894 200.192 97.8734 199.76 99.0894 199.76H99.8574C102.369 199.76 103.625 201.064 103.625 203.672V211.496C103.625 211.832 103.449 212 103.097 212H101.081C100.745 212 100.577 211.832 100.577 211.496V203.816C100.577 203.304 100.465 202.944 100.241 202.736C100.033 202.512 99.6734 202.4 99.1614 202.4H98.2974C97.1934 202.4 96.6414 203.008 96.6414 204.224V211.496C96.6414 211.832 96.4734 212 96.1374 212ZM116.445 212H114.429C114.077 212 113.901 211.832 113.901 211.496V199.472C113.901 199.296 113.813 199.208 113.637 199.208H110.901C110.565 199.208 110.397 199.04 110.397 198.704V197.072C110.397 196.736 110.565 196.568 110.901 196.568H119.973C120.309 196.568 120.477 196.736 120.477 197.072V198.704C120.477 199.04 120.309 199.208 119.973 199.208H117.237C117.045 199.208 116.949 199.296 116.949 199.472V211.496C116.949 211.832 116.781 212 116.445 212ZM127.926 212H125.79C124.526 212 123.55 211.664 122.862 210.992C122.174 210.32 121.83 209.352 121.83 208.088V203.672C121.83 202.408 122.174 201.44 122.862 200.768C123.55 200.096 124.526 199.76 125.79 199.76H127.926C129.174 199.76 130.142 200.104 130.83 200.792C131.534 201.464 131.886 202.424 131.886 203.672V208.088C131.886 209.336 131.534 210.304 130.83 210.992C130.142 211.664 129.174 212 127.926 212ZM126.246 209.384H127.47C127.982 209.384 128.342 209.28 128.55 209.072C128.774 208.864 128.886 208.504 128.886 207.992V203.768C128.886 203.256 128.774 202.896 128.55 202.688C128.342 202.48 127.982 202.376 127.47 202.376H126.246C125.734 202.376 125.374 202.48 125.166 202.688C124.958 202.896 124.854 203.256 124.854 203.768V207.992C124.854 208.504 124.958 208.864 125.166 209.072C125.374 209.28 125.734 209.384 126.246 209.384ZM141.289 199.76H143.617C143.809 199.76 143.937 199.816 144.001 199.928C144.065 200.04 144.041 200.184 143.929 200.36L140.737 205.616V205.712L144.073 211.4C144.169 211.56 144.177 211.704 144.097 211.832C144.017 211.944 143.873 212 143.665 212H141.601C141.329 212 141.129 211.968 141.001 211.904C140.889 211.84 140.769 211.704 140.641 211.496L137.593 206.144C137.449 205.888 137.449 205.624 137.593 205.352L140.473 200.24C140.649 199.92 140.921 199.76 141.289 199.76ZM136.825 212H134.785C134.449 212 134.281 211.832 134.281 211.496V195.632C134.281 195.296 134.449 195.128 134.785 195.128H136.825C137.161 195.128 137.329 195.296 137.329 195.632V211.496C137.329 211.832 137.161 212 136.825 212ZM154.625 212H149.321C148.057 212 147.081 211.664 146.393 210.992C145.705 210.32 145.361 209.352 145.361 208.088V203.672C145.361 202.408 145.705 201.44 146.393 200.768C147.081 200.096 148.057 199.76 149.321 199.76H151.217C152.481 199.76 153.457 200.096 154.145 200.768C154.833 201.44 155.177 202.408 155.177 203.672V206.72C155.177 207.056 155.009 207.224 154.673 207.224H148.649C148.457 207.224 148.361 207.312 148.361 207.488V208.016C148.361 208.512 148.465 208.872 148.673 209.096C148.897 209.304 149.265 209.408 149.777 209.408H154.625C154.961 209.408 155.129 209.584 155.129 209.936V211.52C155.129 211.696 155.089 211.824 155.009 211.904C154.945 211.968 154.817 212 154.625 212ZM148.649 205.184H151.913C152.089 205.184 152.177 205.096 152.177 204.92V203.768C152.177 203.256 152.073 202.896 151.865 202.688C151.657 202.48 151.297 202.376 150.785 202.376H149.777C149.265 202.376 148.905 202.48 148.697 202.688C148.489 202.896 148.385 203.256 148.385 203.768V204.92C148.385 205.096 148.473 205.184 148.649 205.184ZM160.005 212H157.965C157.629 212 157.461 211.832 157.461 211.496V200.264C157.461 199.928 157.629 199.76 157.965 199.76H160.005C160.341 199.76 160.509 199.928 160.509 200.264V201.056H160.605C160.957 200.192 161.741 199.76 162.957 199.76H163.725C166.237 199.76 167.493 201.064 167.493 203.672V211.496C167.493 211.832 167.317 212 166.965 212H164.949C164.613 212 164.445 211.832 164.445 211.496V203.816C164.445 203.304 164.333 202.944 164.109 202.736C163.901 202.512 163.541 202.4 163.029 202.4H162.165C161.061 202.4 160.509 203.008 160.509 204.224V211.496C160.509 211.832 160.341 212 160.005 212ZM174.655 212H170.095C169.775 212 169.615 211.832 169.615 211.496V209.96C169.615 209.784 169.647 209.664 169.711 209.6C169.775 209.52 169.903 209.48 170.095 209.48H174.103C174.887 209.48 175.279 209.24 175.279 208.76V208.64C175.279 208.256 174.951 207.888 174.295 207.536L171.919 206.216C171.103 205.8 170.503 205.352 170.119 204.872C169.735 204.392 169.543 203.776 169.543 203.024C169.543 201.904 169.839 201.08 170.431 200.552C171.023 200.024 171.951 199.76 173.215 199.76H177.223C177.543 199.76 177.703 199.928 177.703 200.264V201.824C177.703 202 177.671 202.128 177.607 202.208C177.543 202.272 177.415 202.304 177.223 202.304H173.887C173.103 202.304 172.711 202.504 172.711 202.904V203.024C172.711 203.376 173.055 203.736 173.743 204.104L176.167 205.544C176.999 205.992 177.583 206.456 177.919 206.936C178.255 207.4 178.423 208.016 178.423 208.784C178.423 210.928 177.167 212 174.655 212ZM189.132 209.36H191.58C192.092 209.36 192.452 209.256 192.66 209.048C192.884 208.824 192.996 208.456 192.996 207.944V203.768C192.996 203.256 192.884 202.896 192.66 202.688C192.452 202.464 192.092 202.352 191.58 202.352H190.524C189.42 202.352 188.868 202.96 188.868 204.176V209.096C188.868 209.272 188.956 209.36 189.132 209.36ZM185.82 211.496V195.632C185.82 195.296 185.988 195.128 186.324 195.128H188.364C188.7 195.128 188.868 195.296 188.868 195.632V201.032H188.964C189.14 200.6 189.452 200.272 189.9 200.048C190.348 199.824 190.82 199.712 191.316 199.712H192.084C193.348 199.712 194.324 200.048 195.012 200.72C195.7 201.392 196.044 202.36 196.044 203.624V208.088C196.044 209.352 195.7 210.32 195.012 210.992C194.324 211.664 193.348 212 192.084 212H186.324C185.988 212 185.82 211.832 185.82 211.496ZM200.445 216.056H198.909C198.589 216.056 198.429 215.88 198.429 215.528V213.92C198.429 213.568 198.589 213.392 198.909 213.392H199.413C200.421 213.392 201.101 213.248 201.453 212.96C201.821 212.688 202.101 212.152 202.293 211.352H201.021C200.717 211.352 200.517 211.184 200.421 210.848L197.613 200.264C197.517 199.928 197.637 199.76 197.973 199.76H200.109C200.429 199.76 200.629 199.928 200.709 200.264L202.773 209.12H202.869L204.909 200.264C204.973 199.928 205.173 199.76 205.509 199.76H207.525C207.925 199.76 208.085 199.936 208.005 200.288L205.077 212C204.725 213.328 204.181 214.336 203.445 215.024C202.709 215.712 201.709 216.056 200.445 216.056ZM219.655 212H215.095C214.775 212 214.615 211.832 214.615 211.496V209.96C214.615 209.784 214.647 209.664 214.711 209.6C214.775 209.52 214.903 209.48 215.095 209.48H219.103C219.887 209.48 220.279 209.24 220.279 208.76V208.64C220.279 208.256 219.951 207.888 219.295 207.536L216.919 206.216C216.103 205.8 215.503 205.352 215.119 204.872C214.735 204.392 214.543 203.776 214.543 203.024C214.543 201.904 214.839 201.08 215.431 200.552C216.023 200.024 216.951 199.76 218.215 199.76H222.223C222.543 199.76 222.703 199.928 222.703 200.264V201.824C222.703 202 222.671 202.128 222.607 202.208C222.543 202.272 222.415 202.304 222.223 202.304H218.887C218.103 202.304 217.711 202.504 217.711 202.904V203.024C217.711 203.376 218.055 203.736 218.743 204.104L221.167 205.544C221.999 205.992 222.583 206.456 222.919 206.936C223.255 207.4 223.423 208.016 223.423 208.784C223.423 210.928 222.167 212 219.655 212ZM234.571 212H229.267C228.003 212 227.027 211.664 226.339 210.992C225.651 210.32 225.307 209.352 225.307 208.088V203.672C225.307 202.408 225.651 201.44 226.339 200.768C227.027 200.096 228.003 199.76 229.267 199.76H231.163C232.427 199.76 233.403 200.096 234.091 200.768C234.779 201.44 235.123 202.408 235.123 203.672V206.72C235.123 207.056 234.955 207.224 234.619 207.224H228.595C228.403 207.224 228.307 207.312 228.307 207.488V208.016C228.307 208.512 228.411 208.872 228.619 209.096C228.843 209.304 229.211 209.408 229.723 209.408H234.571C234.907 209.408 235.075 209.584 235.075 209.936V211.52C235.075 211.696 235.035 211.824 234.955 211.904C234.891 211.968 234.763 212 234.571 212ZM228.595 205.184H231.859C232.035 205.184 232.123 205.096 232.123 204.92V203.768C232.123 203.256 232.019 202.896 231.811 202.688C231.603 202.48 231.243 202.376 230.731 202.376H229.723C229.211 202.376 228.851 202.48 228.643 202.688C228.435 202.896 228.331 203.256 228.331 203.768V204.92C228.331 205.096 228.419 205.184 228.595 205.184ZM240.07 212H238.03C237.694 212 237.526 211.832 237.526 211.496V195.632C237.526 195.296 237.694 195.128 238.03 195.128H240.07C240.406 195.128 240.574 195.296 240.574 195.632V211.496C240.574 211.832 240.406 212 240.07 212ZM246 212H243.96C243.624 212 243.456 211.832 243.456 211.496V195.632C243.456 195.296 243.624 195.128 243.96 195.128H246C246.336 195.128 246.504 195.296 246.504 195.632V211.496C246.504 211.832 246.336 212 246 212ZM249.385 197.696V195.608C249.385 195.288 249.545 195.128 249.865 195.128H251.953C252.273 195.128 252.433 195.28 252.433 195.584V197.696C252.433 198.016 252.273 198.176 251.953 198.176H249.865C249.545 198.176 249.385 198.016 249.385 197.696ZM249.385 211.496V200.264C249.385 199.928 249.545 199.76 249.865 199.76H251.929C252.265 199.76 252.433 199.928 252.433 200.264V211.496C252.433 211.704 252.393 211.84 252.313 211.904C252.249 211.968 252.129 212 251.953 212H249.889C249.553 212 249.385 211.832 249.385 211.496ZM257.739 212H255.699C255.363 212 255.195 211.832 255.195 211.496V200.264C255.195 199.928 255.363 199.76 255.699 199.76H257.739C258.075 199.76 258.243 199.928 258.243 200.264V201.056H258.339C258.691 200.192 259.475 199.76 260.691 199.76H261.459C263.971 199.76 265.227 201.064 265.227 203.672V211.496C265.227 211.832 265.051 212 264.699 212H262.683C262.347 212 262.179 211.832 262.179 211.496V203.816C262.179 203.304 262.067 202.944 261.843 202.736C261.635 202.512 261.275 202.4 260.763 202.4H259.899C258.795 202.4 258.243 203.008 258.243 204.224V211.496C258.243 211.832 258.075 212 257.739 212ZM272.078 211.448H271.286C270.054 211.448 269.118 211.112 268.478 210.44C267.854 209.768 267.542 208.8 267.542 207.536V203.672C267.542 202.408 267.886 201.44 268.574 200.768C269.262 200.096 270.238 199.76 271.502 199.76H277.046C277.398 199.76 277.574 199.928 277.574 200.264V212.096C277.574 213.344 277.222 214.304 276.518 214.976C275.83 215.648 274.862 215.984 273.614 215.984H269.006C268.814 215.984 268.678 215.944 268.598 215.864C268.534 215.8 268.502 215.68 268.502 215.504V213.848C268.502 213.512 268.67 213.344 269.006 213.344H273.11C273.622 213.344 273.982 213.232 274.19 213.008C274.414 212.8 274.526 212.448 274.526 211.952V210.128H274.43C274.254 210.56 273.942 210.888 273.493 211.112C273.046 211.336 272.574 211.448 272.078 211.448ZM274.526 206.984V202.664C274.526 202.488 274.43 202.4 274.238 202.4H271.982C271.47 202.4 271.11 202.512 270.902 202.736C270.694 202.944 270.59 203.304 270.59 203.816V207.392C270.59 207.904 270.694 208.264 270.902 208.472C271.11 208.68 271.47 208.784 271.982 208.784H272.87C273.974 208.784 274.526 208.184 274.526 206.984ZM287.468 216.056H285.932C285.612 216.056 285.452 215.88 285.452 215.528V213.92C285.452 213.568 285.612 213.392 285.932 213.392H286.436C287.444 213.392 288.124 213.248 288.476 212.96C288.844 212.688 289.124 212.152 289.316 211.352H288.044C287.74 211.352 287.54 211.184 287.444 210.848L284.636 200.264C284.54 199.928 284.66 199.76 284.996 199.76H287.132C287.452 199.76 287.652 199.928 287.732 200.264L289.796 209.12H289.892L291.932 200.264C291.996 199.928 292.196 199.76 292.532 199.76H294.548C294.948 199.76 295.108 199.936 295.028 200.288L292.1 212C291.748 213.328 291.204 214.336 290.468 215.024C289.732 215.712 288.732 216.056 287.468 216.056ZM302.629 212H300.493C299.229 212 298.253 211.664 297.565 210.992C296.877 210.32 296.533 209.352 296.533 208.088V203.672C296.533 202.408 296.877 201.44 297.565 200.768C298.253 200.096 299.229 199.76 300.493 199.76H302.629C303.877 199.76 304.845 200.104 305.533 200.792C306.237 201.464 306.589 202.424 306.589 203.672V208.088C306.589 209.336 306.237 210.304 305.533 210.992C304.845 211.664 303.877 212 302.629 212ZM300.949 209.384H302.173C302.685 209.384 303.045 209.28 303.253 209.072C303.477 208.864 303.589 208.504 303.589 207.992V203.768C303.589 203.256 303.477 202.896 303.253 202.688C303.045 202.48 302.685 202.376 302.173 202.376H300.949C300.437 202.376 300.077 202.48 299.869 202.688C299.661 202.896 299.557 203.256 299.557 203.768V207.992C299.557 208.504 299.661 208.864 299.869 209.072C300.077 209.28 300.437 209.384 300.949 209.384ZM313.4 212H312.608C311.376 212 310.44 211.664 309.8 210.992C309.176 210.32 308.864 209.352 308.864 208.088V200.264C308.864 199.928 309.032 199.76 309.368 199.76H311.408C311.744 199.76 311.912 199.928 311.912 200.264V207.944C311.912 208.456 312.016 208.824 312.224 209.048C312.448 209.256 312.808 209.36 313.304 209.36H314.192C315.296 209.36 315.848 208.752 315.848 207.536V200.264C315.848 199.928 316.016 199.76 316.352 199.76H318.368C318.72 199.76 318.896 199.928 318.896 200.264V211.496C318.896 211.832 318.72 212 318.368 212H316.352C316.016 212 315.848 211.832 315.848 211.496V210.704H315.752C315.576 211.136 315.264 211.464 314.816 211.688C314.368 211.896 313.896 212 313.4 212ZM324.091 212H322.051C321.715 212 321.547 211.832 321.547 211.496V200.264C321.547 199.928 321.715 199.76 322.051 199.76H324.091C324.427 199.76 324.595 199.928 324.595 200.264V201.08H324.691C324.867 200.648 325.179 200.32 325.627 200.096C326.075 199.872 326.547 199.76 327.043 199.76H327.907C328.227 199.76 328.387 199.928 328.387 200.264V201.92C328.387 202.112 328.347 202.248 328.267 202.328C328.203 202.392 328.083 202.416 327.907 202.4H326.251C325.147 202.4 324.595 203.024 324.595 204.272V211.496C324.595 211.832 324.427 212 324.091 212ZM337.731 215.264H335.691C335.355 215.264 335.187 215.104 335.187 214.784V200.264C335.187 199.928 335.355 199.76 335.691 199.76H337.731C338.067 199.76 338.235 199.928 338.235 200.264V201.056H338.331C338.507 200.624 338.819 200.304 339.267 200.096C339.715 199.872 340.187 199.76 340.683 199.76H341.667C342.899 199.76 343.827 200.096 344.451 200.768C345.091 201.44 345.411 202.408 345.411 203.672V208.088C345.411 209.352 345.091 210.32 344.451 210.992C343.827 211.664 342.899 212 341.667 212H340.683C340.187 212 339.715 211.896 339.267 211.688C338.819 211.464 338.507 211.136 338.331 210.704H338.235V214.784C338.235 215.104 338.067 215.264 337.731 215.264ZM339.891 209.36H340.947C341.459 209.36 341.819 209.256 342.027 209.048C342.251 208.824 342.363 208.456 342.363 207.944V203.816C342.363 203.304 342.251 202.944 342.027 202.736C341.819 202.512 341.459 202.4 340.947 202.4H339.891C338.787 202.4 338.235 203.008 338.235 204.224V207.536C338.235 208.752 338.787 209.36 339.891 209.36ZM352.116 212H351.54C350.276 212 349.3 211.664 348.612 210.992C347.924 210.32 347.58 209.352 347.58 208.088V203.672C347.58 202.408 347.924 201.44 348.612 200.768C349.3 200.096 350.276 199.76 351.54 199.76H357.084C357.436 199.76 357.612 199.928 357.612 200.264V211.496C357.612 211.832 357.436 212 357.084 212H355.068C354.732 212 354.564 211.832 354.564 211.496V210.704H354.468C354.292 211.136 353.98 211.464 353.532 211.688C353.084 211.896 352.612 212 352.116 212ZM354.564 207.536V202.664C354.564 202.488 354.468 202.4 354.276 202.4H352.02C351.508 202.4 351.148 202.512 350.94 202.736C350.732 202.944 350.628 203.304 350.628 203.816V207.944C350.628 208.456 350.732 208.824 350.94 209.048C351.148 209.256 351.508 209.36 352.02 209.36H352.908C354.012 209.36 354.564 208.752 354.564 207.536ZM362.786 212H360.746C360.41 212 360.242 211.832 360.242 211.496V200.264C360.242 199.928 360.41 199.76 360.746 199.76H362.786C363.122 199.76 363.29 199.928 363.29 200.264V201.08H363.386C363.562 200.648 363.874 200.32 364.322 200.096C364.77 199.872 365.242 199.76 365.738 199.76H366.602C366.922 199.76 367.082 199.928 367.082 200.264V201.92C367.082 202.112 367.042 202.248 366.962 202.328C366.898 202.392 366.778 202.416 366.602 202.4H364.946C363.842 202.4 363.29 203.024 363.29 204.272V211.496C363.29 211.832 363.122 212 362.786 212ZM368.873 202.4H367.913C367.721 202.4 367.585 202.368 367.505 202.304C367.441 202.24 367.409 202.112 367.409 201.92V200.264C367.409 199.928 367.577 199.76 367.913 199.76H368.873C369.049 199.76 369.137 199.672 369.137 199.496V197.216C369.137 196.88 369.313 196.712 369.665 196.712H371.681C372.017 196.712 372.185 196.88 372.185 197.216V199.496C372.185 199.672 372.281 199.76 372.473 199.76H374.345C374.681 199.76 374.849 199.928 374.849 200.264V201.92C374.849 202.096 374.809 202.224 374.729 202.304C374.665 202.368 374.537 202.4 374.345 202.4H372.473C372.281 202.4 372.185 202.488 372.185 202.664V207.968C372.185 208.464 372.297 208.824 372.521 209.048C372.745 209.256 373.113 209.36 373.625 209.36H374.585C374.921 209.36 375.089 209.528 375.089 209.864V211.52C375.089 211.696 375.049 211.824 374.969 211.904C374.905 211.968 374.777 212 374.585 212H373.121C371.857 212 370.873 211.664 370.169 210.992C369.481 210.32 369.137 209.36 369.137 208.112V202.664C369.137 202.488 369.049 202.4 368.873 202.4ZM381.702 212H377.142C376.822 212 376.662 211.832 376.662 211.496V209.96C376.662 209.784 376.694 209.664 376.758 209.6C376.822 209.52 376.95 209.48 377.142 209.48H381.15C381.934 209.48 382.326 209.24 382.326 208.76V208.64C382.326 208.256 381.998 207.888 381.342 207.536L378.966 206.216C378.15 205.8 377.55 205.352 377.166 204.872C376.782 204.392 376.59 203.776 376.59 203.024C376.59 201.904 376.886 201.08 377.478 200.552C378.07 200.024 378.998 199.76 380.262 199.76H384.27C384.59 199.76 384.75 199.928 384.75 200.264V201.824C384.75 202 384.718 202.128 384.654 202.208C384.59 202.272 384.462 202.304 384.27 202.304H380.934C380.15 202.304 379.758 202.504 379.758 202.904V203.024C379.758 203.376 380.102 203.736 380.79 204.104L383.214 205.544C384.046 205.992 384.63 206.456 384.966 206.936C385.302 207.4 385.47 208.016 385.47 208.784C385.47 210.928 384.214 212 381.702 212ZM397.355 212H396.371C395.139 212 394.203 211.664 393.563 210.992C392.939 210.32 392.627 209.352 392.627 208.088V203.672C392.627 202.408 392.939 201.44 393.563 200.768C394.203 200.096 395.139 199.76 396.371 199.76H397.355C397.851 199.76 398.323 199.872 398.771 200.096C399.219 200.304 399.531 200.624 399.707 201.056H399.803V195.632C399.803 195.296 399.971 195.128 400.307 195.128H402.347C402.683 195.128 402.851 195.296 402.851 195.632V211.496C402.851 211.832 402.683 212 402.347 212H400.307C399.971 212 399.803 211.832 399.803 211.496V210.704H399.707C399.531 211.136 399.219 211.464 398.771 211.688C398.323 211.896 397.851 212 397.355 212ZM399.803 207.536V204.224C399.803 203.008 399.251 202.4 398.147 202.4H397.067C396.555 202.4 396.195 202.512 395.987 202.736C395.779 202.944 395.675 203.304 395.675 203.816V207.944C395.675 208.456 395.779 208.824 395.987 209.048C396.195 209.256 396.555 209.36 397.067 209.36H398.147C399.251 209.36 399.803 208.752 399.803 207.536ZM414.524 212H409.22C407.956 212 406.98 211.664 406.292 210.992C405.604 210.32 405.26 209.352 405.26 208.088V203.672C405.26 202.408 405.604 201.44 406.292 200.768C406.98 200.096 407.956 199.76 409.22 199.76H411.116C412.38 199.76 413.356 200.096 414.044 200.768C414.732 201.44 415.076 202.408 415.076 203.672V206.72C415.076 207.056 414.908 207.224 414.572 207.224H408.548C408.356 207.224 408.26 207.312 408.26 207.488V208.016C408.26 208.512 408.364 208.872 408.572 209.096C408.796 209.304 409.164 209.408 409.676 209.408H414.524C414.86 209.408 415.028 209.584 415.028 209.936V211.52C415.028 211.696 414.988 211.824 414.908 211.904C414.844 211.968 414.716 212 414.524 212ZM408.548 205.184H411.812C411.988 205.184 412.076 205.096 412.076 204.92V203.768C412.076 203.256 411.972 202.896 411.764 202.688C411.556 202.48 411.196 202.376 410.684 202.376H409.676C409.164 202.376 408.804 202.48 408.596 202.688C408.388 202.896 408.284 203.256 408.284 203.768V204.92C408.284 205.096 408.372 205.184 408.548 205.184ZM421.991 212H417.431C417.111 212 416.951 211.832 416.951 211.496V209.96C416.951 209.784 416.983 209.664 417.047 209.6C417.111 209.52 417.239 209.48 417.431 209.48H421.439C422.223 209.48 422.615 209.24 422.615 208.76V208.64C422.615 208.256 422.287 207.888 421.631 207.536L419.255 206.216C418.439 205.8 417.839 205.352 417.455 204.872C417.071 204.392 416.879 203.776 416.879 203.024C416.879 201.904 417.175 201.08 417.767 200.552C418.359 200.024 419.287 199.76 420.551 199.76H424.559C424.879 199.76 425.039 199.928 425.039 200.264V201.824C425.039 202 425.007 202.128 424.943 202.208C424.879 202.272 424.751 202.304 424.559 202.304H421.223C420.439 202.304 420.047 202.504 420.047 202.904V203.024C420.047 203.376 420.391 203.736 421.079 204.104L423.503 205.544C424.335 205.992 424.919 206.456 425.255 206.936C425.591 207.4 425.759 208.016 425.759 208.784C425.759 210.928 424.503 212 421.991 212ZM428.003 197.696V195.608C428.003 195.288 428.163 195.128 428.483 195.128H430.571C430.891 195.128 431.051 195.28 431.051 195.584V197.696C431.051 198.016 430.891 198.176 430.571 198.176H428.483C428.163 198.176 428.003 198.016 428.003 197.696ZM428.003 211.496V200.264C428.003 199.928 428.163 199.76 428.483 199.76H430.547C430.883 199.76 431.051 199.928 431.051 200.264V211.496C431.051 211.704 431.011 211.84 430.931 211.904C430.867 211.968 430.747 212 430.571 212H428.507C428.171 212 428.003 211.832 428.003 211.496ZM438.132 211.448H437.34C436.108 211.448 435.172 211.112 434.532 210.44C433.908 209.768 433.596 208.8 433.596 207.536V203.672C433.596 202.408 433.94 201.44 434.628 200.768C435.316 200.096 436.292 199.76 437.556 199.76H443.1C443.452 199.76 443.628 199.928 443.628 200.264V212.096C443.628 213.344 443.276 214.304 442.572 214.976C441.884 215.648 440.916 215.984 439.668 215.984H435.06C434.868 215.984 434.732 215.944 434.652 215.864C434.588 215.8 434.556 215.68 434.556 215.504V213.848C434.556 213.512 434.724 213.344 435.06 213.344H439.164C439.676 213.344 440.036 213.232 440.244 213.008C440.468 212.8 440.58 212.448 440.58 211.952V210.128H440.484C440.308 210.56 439.996 210.888 439.548 211.112C439.1 211.336 438.628 211.448 438.132 211.448ZM440.58 206.984V202.664C440.58 202.488 440.484 202.4 440.292 202.4H438.036C437.524 202.4 437.164 202.512 436.956 202.736C436.748 202.944 436.644 203.304 436.644 203.816V207.392C436.644 207.904 436.748 208.264 436.956 208.472C437.164 208.68 437.524 208.784 438.036 208.784H438.924C440.028 208.784 440.58 208.184 440.58 206.984ZM448.802 212H446.762C446.426 212 446.258 211.832 446.258 211.496V200.264C446.258 199.928 446.426 199.76 446.762 199.76H448.802C449.138 199.76 449.306 199.928 449.306 200.264V201.056H449.402C449.754 200.192 450.538 199.76 451.754 199.76H452.522C455.034 199.76 456.29 201.064 456.29 203.672V211.496C456.29 211.832 456.114 212 455.762 212H453.746C453.41 212 453.242 211.832 453.242 211.496V203.816C453.242 203.304 453.13 202.944 452.906 202.736C452.698 202.512 452.338 202.4 451.826 202.4H450.962C449.858 202.4 449.306 203.008 449.306 204.224V211.496C449.306 211.832 449.138 212 448.802 212Z" fill="#5A5A5A"/>
</svg>
