<svg width="520" height="230" viewBox="0 0 520 230" fill="none" xmlns="http://www.w3.org/2000/svg">
<rect width="50" height="50" fill="#404040"/>
<path d="M25.3093 32.104H28.5093C29.5759 32.104 30.3973 31.7947 30.9733 31.176C31.5493 30.5573 31.8373 29.704 31.8373 28.616V16.808C31.8373 15.72 31.5493 14.8667 30.9733 14.248C30.3973 13.6293 29.5759 13.32 28.5093 13.32H25.3093C24.2426 13.32 23.4213 13.6293 22.8453 14.248C22.2693 14.8667 21.9813 15.72 21.9813 16.808V28.616C21.9813 29.704 22.2693 30.5573 22.8453 31.176C23.4213 31.7947 24.2426 32.104 25.3093 32.104ZM28.5093 33H25.3093C24.0079 33 22.9626 32.6053 22.1733 31.816C21.4053 31.0267 21.0213 29.9707 21.0213 28.648V16.776C21.0213 15.4533 21.4053 14.3973 22.1733 13.608C22.9626 12.8187 24.0079 12.424 25.3093 12.424H28.5093C29.8106 12.424 30.8453 12.8187 31.6133 13.608C32.4026 14.3973 32.7973 15.4533 32.7973 16.776V28.648C32.7973 29.9707 32.4026 31.0267 31.6133 31.816C30.8453 32.6053 29.8106 33 28.5093 33ZM36.3113 15.784V15.592C36.3113 15.3147 36.4286 15.112 36.6633 14.984L40.9833 12.584C41.1966 12.4773 41.3673 12.424 41.4953 12.424H41.8793C42.0499 12.424 42.1353 12.52 42.1353 12.712V32.712C42.1353 32.904 42.0499 33 41.8793 33H41.4313C41.2606 33 41.1753 32.904 41.1753 32.712V13.48L36.8233 15.944C36.4819 16.1787 36.3113 16.1253 36.3113 15.784Z" fill="white"/>
<rect y="60" width="50" height="50" fill="#404040"/>
<path d="M20.1218 92.104H23.3218C24.3884 92.104 25.2098 91.7947 25.7858 91.176C26.3618 90.5573 26.6498 89.704 26.6498 88.616V76.808C26.6498 75.72 26.3618 74.8667 25.7858 74.248C25.2098 73.6293 24.3884 73.32 23.3218 73.32H20.1218C19.0551 73.32 18.2338 73.6293 17.6578 74.248C17.0818 74.8667 16.7938 75.72 16.7938 76.808V88.616C16.7938 89.704 17.0818 90.5573 17.6578 91.176C18.2338 91.7947 19.0551 92.104 20.1218 92.104ZM23.3218 93H20.1218C18.8204 93 17.7751 92.6053 16.9858 91.816C16.2178 91.0267 15.8338 89.9707 15.8338 88.648V76.776C15.8338 75.4533 16.2178 74.3973 16.9858 73.608C17.7751 72.8187 18.8204 72.424 20.1218 72.424H23.3218C24.6231 72.424 25.6578 72.8187 26.4258 73.608C27.2151 74.3973 27.6098 75.4533 27.6098 76.776V88.648C27.6098 89.9707 27.2151 91.0267 26.4258 91.816C25.6578 92.6053 24.6231 93 23.3218 93ZM31.8918 92.744V89.992C31.8918 88.392 32.5638 87.112 33.9078 86.152L40.3078 81.384C41.4384 80.552 42.0038 79.432 42.0038 78.024V76.712C42.0038 75.624 41.7158 74.792 41.1398 74.216C40.5638 73.6187 39.7424 73.32 38.6758 73.32H36.0518C34.9851 73.32 34.1638 73.6187 33.5878 74.216C33.0118 74.792 32.7238 75.624 32.7238 76.712V78.248C32.7238 78.44 32.6384 78.536 32.4678 78.536H32.0198C31.8491 78.536 31.7638 78.44 31.7638 78.248V76.68C31.7638 75.3573 32.1478 74.3227 32.9158 73.576C33.7051 72.808 34.7504 72.424 36.0518 72.424H38.6758C39.9771 72.424 41.0118 72.808 41.7798 73.576C42.5691 74.3227 42.9638 75.3573 42.9638 76.68V78.056C42.9638 79.72 42.2811 81.0533 40.9158 82.056L34.4518 86.888C33.3851 87.6987 32.8518 88.6907 32.8518 89.864V92.104H42.8038C42.9958 92.104 43.0918 92.1893 43.0918 92.36V92.744C43.0918 92.9147 42.9958 93 42.8038 93H32.1798C31.9878 93 31.8918 92.9147 31.8918 92.744Z" fill="white"/>
<rect y="120" width="50" height="50" fill="#404040"/>
<path d="M19.4968 152.104H22.6968C23.7634 152.104 24.5848 151.795 25.1608 151.176C25.7368 150.557 26.0248 149.704 26.0248 148.616V136.808C26.0248 135.72 25.7368 134.867 25.1608 134.248C24.5848 133.629 23.7634 133.32 22.6968 133.32H19.4968C18.4301 133.32 17.6088 133.629 17.0328 134.248C16.4568 134.867 16.1688 135.72 16.1688 136.808V148.616C16.1688 149.704 16.4568 150.557 17.0328 151.176C17.6088 151.795 18.4301 152.104 19.4968 152.104ZM22.6968 153H19.4968C18.1954 153 17.1501 152.605 16.3608 151.816C15.5928 151.027 15.2088 149.971 15.2088 148.648V136.776C15.2088 135.453 15.5928 134.397 16.3608 133.608C17.1501 132.819 18.1954 132.424 19.4968 132.424H22.6968C23.9981 132.424 25.0328 132.819 25.8008 133.608C26.5901 134.397 26.9848 135.453 26.9848 136.776V148.648C26.9848 149.971 26.5901 151.027 25.8008 151.816C25.0328 152.605 23.9981 153 22.6968 153ZM36.4828 142.184H38.4668C39.5334 142.184 40.3548 141.896 40.9308 141.32C41.5068 140.723 41.7948 139.88 41.7948 138.792V136.712C41.7948 135.624 41.5068 134.792 40.9308 134.216C40.3548 133.619 39.5334 133.32 38.4668 133.32H35.7468C34.6801 133.32 33.8588 133.619 33.2828 134.216C32.7068 134.792 32.4188 135.624 32.4188 136.712V137.928C32.4188 138.12 32.3334 138.216 32.1628 138.216H31.7148C31.5441 138.216 31.4588 138.12 31.4588 137.928V136.68C31.4588 135.357 31.8428 134.323 32.6108 133.576C33.4001 132.808 34.4454 132.424 35.7468 132.424H38.4668C39.7681 132.424 40.8028 132.808 41.5708 133.576C42.3601 134.323 42.7548 135.357 42.7548 136.68V138.824C42.7548 140.829 41.8588 142.099 40.0668 142.632C41.8588 143.101 42.7548 144.371 42.7548 146.44V148.744C42.7548 150.067 42.3601 151.112 41.5708 151.88C40.8028 152.627 39.7681 153 38.4668 153H35.7468C34.4454 153 33.4001 152.627 32.6108 151.88C31.8428 151.112 31.4588 150.067 31.4588 148.744V147.144C31.4588 146.952 31.5441 146.856 31.7148 146.856H32.1628C32.3334 146.856 32.4188 146.952 32.4188 147.144V148.712C32.4188 149.8 32.7068 150.643 33.2828 151.24C33.8588 151.816 34.6801 152.104 35.7468 152.104H38.4668C39.5334 152.104 40.3548 151.816 40.9308 151.24C41.5068 150.643 41.7948 149.8 41.7948 148.712V146.472C41.7948 145.384 41.5068 144.552 40.9308 143.976C40.3548 143.379 39.5334 143.08 38.4668 143.08H36.4828C36.2908 143.08 36.1948 142.995 36.1948 142.824V142.44C36.1948 142.269 36.2908 142.184 36.4828 142.184Z" fill="white"/>
<rect y="180" width="50" height="50" fill="#404040"/>
<path d="M18.8093 212.104H22.0093C23.0759 212.104 23.8973 211.795 24.4733 211.176C25.0493 210.557 25.3373 209.704 25.3373 208.616V196.808C25.3373 195.72 25.0493 194.867 24.4733 194.248C23.8973 193.629 23.0759 193.32 22.0093 193.32H18.8093C17.7426 193.32 16.9213 193.629 16.3453 194.248C15.7693 194.867 15.4813 195.72 15.4813 196.808V208.616C15.4813 209.704 15.7693 210.557 16.3453 211.176C16.9213 211.795 17.7426 212.104 18.8093 212.104ZM22.0093 213H18.8093C17.5079 213 16.4626 212.605 15.6733 211.816C14.9053 211.027 14.5213 209.971 14.5213 208.648V196.776C14.5213 195.453 14.9053 194.397 15.6733 193.608C16.4626 192.819 17.5079 192.424 18.8093 192.424H22.0093C23.3106 192.424 24.3453 192.819 25.1133 193.608C25.9026 194.397 26.2973 195.453 26.2973 196.776V208.648C26.2973 209.971 25.9026 211.027 25.1133 211.816C24.3453 212.605 23.3106 213 22.0093 213ZM40.0513 207.784V193.128L31.2193 207.784H40.0513ZM40.7553 213H40.3073C40.1366 213 40.0513 212.904 40.0513 212.712V208.68H30.4193C30.2273 208.68 30.1313 208.595 30.1313 208.424V208.04C30.1313 207.891 30.1953 207.72 30.3233 207.528L39.2193 192.776C39.3473 192.541 39.5499 192.424 39.8273 192.424H40.7553C40.9259 192.424 41.0113 192.52 41.0113 192.712V207.784H43.4433C43.6353 207.784 43.7313 207.869 43.7313 208.04V208.424C43.7313 208.595 43.6353 208.68 43.4433 208.68H41.0113V212.712C41.0113 212.904 40.9259 213 40.7553 213Z" fill="white"/>
<path d="M61.176 28.064V27.584C61.176 27.248 61.344 27.08 61.68 27.08H63.72C64.056 27.08 64.224 27.248 64.224 27.584V27.776C64.224 28.384 64.344 28.8 64.584 29.024C64.824 29.248 65.264 29.36 65.904 29.36H67.032C67.656 29.36 68.088 29.24 68.328 29C68.584 28.76 68.712 28.312 68.712 27.656V27.368C68.712 26.904 68.52 26.552 68.136 26.312C67.768 26.056 67.304 25.904 66.744 25.856C66.184 25.808 65.576 25.72 64.92 25.592C64.28 25.448 63.68 25.272 63.12 25.064C62.56 24.84 62.088 24.416 61.704 23.792C61.336 23.152 61.152 22.336 61.152 21.344V20.504C61.152 19.256 61.504 18.288 62.208 17.6C62.912 16.912 63.888 16.568 65.136 16.568H67.536C68.8 16.568 69.784 16.912 70.488 17.6C71.192 18.288 71.544 19.256 71.544 20.504V20.96C71.544 21.296 71.376 21.464 71.04 21.464H69C68.664 21.464 68.496 21.296 68.496 20.96V20.816C68.496 20.192 68.376 19.768 68.136 19.544C67.896 19.32 67.456 19.208 66.816 19.208H65.88C65.224 19.208 64.776 19.336 64.536 19.592C64.312 19.832 64.2 20.312 64.2 21.032V21.488C64.2 22.24 64.856 22.672 66.168 22.784C67.528 22.896 68.736 23.168 69.792 23.6C70.352 23.84 70.816 24.272 71.184 24.896C71.568 25.504 71.76 26.288 71.76 27.248V28.064C71.76 29.312 71.408 30.28 70.704 30.968C70 31.656 69.024 32 67.776 32H65.16C63.912 32 62.936 31.656 62.232 30.968C61.528 30.28 61.176 29.312 61.176 28.064ZM78.6735 32H77.8815C76.6495 32 75.7135 31.664 75.0735 30.992C74.4495 30.32 74.1375 29.352 74.1375 28.088V20.264C74.1375 19.928 74.3055 19.76 74.6415 19.76H76.6815C77.0175 19.76 77.1855 19.928 77.1855 20.264V27.944C77.1855 28.456 77.2895 28.824 77.4975 29.048C77.7215 29.256 78.0815 29.36 78.5775 29.36H79.4655C80.5695 29.36 81.1215 28.752 81.1215 27.536V20.264C81.1215 19.928 81.2895 19.76 81.6255 19.76H83.6415C83.9935 19.76 84.1695 19.928 84.1695 20.264V31.496C84.1695 31.832 83.9935 32 83.6415 32H81.6255C81.2895 32 81.1215 31.832 81.1215 31.496V30.704H81.0255C80.8495 31.136 80.5375 31.464 80.0895 31.688C79.6415 31.896 79.1695 32 78.6735 32ZM90.132 29.36H92.58C93.092 29.36 93.452 29.256 93.66 29.048C93.884 28.824 93.996 28.456 93.996 27.944V23.768C93.996 23.256 93.884 22.896 93.66 22.688C93.452 22.464 93.092 22.352 92.58 22.352H91.524C90.42 22.352 89.868 22.96 89.868 24.176V29.096C89.868 29.272 89.956 29.36 90.132 29.36ZM86.82 31.496V15.632C86.82 15.296 86.988 15.128 87.324 15.128H89.364C89.7 15.128 89.868 15.296 89.868 15.632V21.032H89.964C90.14 20.6 90.452 20.272 90.9 20.048C91.348 19.824 91.82 19.712 92.316 19.712H93.084C94.348 19.712 95.324 20.048 96.012 20.72C96.7 21.392 97.044 22.36 97.044 23.624V28.088C97.044 29.352 96.7 30.32 96.012 30.992C95.324 31.664 94.348 32 93.084 32H87.324C86.988 32 86.82 31.832 86.82 31.496ZM101.997 32H99.9568C99.6208 32 99.4528 31.832 99.4528 31.496V20.264C99.4528 19.928 99.6208 19.76 99.9568 19.76H101.997C102.333 19.76 102.501 19.928 102.501 20.264V21.056H102.597C102.789 20.672 103.109 20.36 103.557 20.12C104.021 19.88 104.549 19.76 105.141 19.76H105.813C107.205 19.76 108.205 20.272 108.813 21.296C109.357 20.272 110.293 19.76 111.621 19.76H112.317C113.549 19.76 114.477 20.096 115.101 20.768C115.741 21.44 116.061 22.408 116.061 23.672V31.496C116.061 31.832 115.893 32 115.557 32H113.517C113.181 32 113.013 31.832 113.013 31.496V23.816C113.013 23.304 112.909 22.944 112.701 22.736C112.493 22.512 112.133 22.4 111.621 22.4H111.021C109.917 22.4 109.365 23.016 109.365 24.248V31.496C109.365 31.832 109.189 32 108.837 32H106.821C106.485 32 106.317 31.832 106.317 31.496V23.816C106.317 23.304 106.205 22.944 105.981 22.736C105.773 22.512 105.413 22.4 104.901 22.4H104.157C103.053 22.4 102.501 23.008 102.501 24.224V31.496C102.501 31.832 102.333 32 101.997 32ZM118.721 17.696V15.608C118.721 15.288 118.881 15.128 119.201 15.128H121.289C121.609 15.128 121.769 15.28 121.769 15.584V17.696C121.769 18.016 121.609 18.176 121.289 18.176H119.201C118.881 18.176 118.721 18.016 118.721 17.696ZM118.721 31.496V20.264C118.721 19.928 118.881 19.76 119.201 19.76H121.265C121.601 19.76 121.769 19.928 121.769 20.264V31.496C121.769 31.704 121.729 31.84 121.649 31.904C121.585 31.968 121.465 32 121.289 32H119.225C118.889 32 118.721 31.832 118.721 31.496ZM124.795 22.4H123.835C123.643 22.4 123.507 22.368 123.427 22.304C123.363 22.24 123.331 22.112 123.331 21.92V20.264C123.331 19.928 123.499 19.76 123.835 19.76H124.795C124.971 19.76 125.059 19.672 125.059 19.496V17.216C125.059 16.88 125.235 16.712 125.587 16.712H127.603C127.939 16.712 128.107 16.88 128.107 17.216V19.496C128.107 19.672 128.203 19.76 128.395 19.76H130.267C130.603 19.76 130.771 19.928 130.771 20.264V21.92C130.771 22.096 130.731 22.224 130.651 22.304C130.587 22.368 130.459 22.4 130.267 22.4H128.395C128.203 22.4 128.107 22.488 128.107 22.664V27.968C128.107 28.464 128.219 28.824 128.443 29.048C128.667 29.256 129.035 29.36 129.547 29.36H130.507C130.843 29.36 131.011 29.528 131.011 29.864V31.52C131.011 31.696 130.971 31.824 130.891 31.904C130.827 31.968 130.699 32 130.507 32H129.043C127.779 32 126.795 31.664 126.091 30.992C125.403 30.32 125.059 29.36 125.059 28.112V22.664C125.059 22.488 124.971 22.4 124.795 22.4ZM140.257 36.056H138.721C138.401 36.056 138.241 35.88 138.241 35.528V33.92C138.241 33.568 138.401 33.392 138.721 33.392H139.225C140.233 33.392 140.913 33.248 141.265 32.96C141.633 32.688 141.913 32.152 142.105 31.352H140.833C140.529 31.352 140.329 31.184 140.233 30.848L137.425 20.264C137.329 19.928 137.449 19.76 137.785 19.76H139.921C140.241 19.76 140.441 19.928 140.521 20.264L142.585 29.12H142.681L144.721 20.264C144.785 19.928 144.985 19.76 145.321 19.76H147.337C147.737 19.76 147.897 19.936 147.817 20.288L144.889 32C144.537 33.328 143.993 34.336 143.257 35.024C142.521 35.712 141.521 36.056 140.257 36.056ZM155.418 32H153.282C152.018 32 151.042 31.664 150.354 30.992C149.666 30.32 149.322 29.352 149.322 28.088V23.672C149.322 22.408 149.666 21.44 150.354 20.768C151.042 20.096 152.018 19.76 153.282 19.76H155.418C156.666 19.76 157.634 20.104 158.322 20.792C159.026 21.464 159.378 22.424 159.378 23.672V28.088C159.378 29.336 159.026 30.304 158.322 30.992C157.634 31.664 156.666 32 155.418 32ZM153.738 29.384H154.962C155.474 29.384 155.834 29.28 156.042 29.072C156.266 28.864 156.378 28.504 156.378 27.992V23.768C156.378 23.256 156.266 22.896 156.042 22.688C155.834 22.48 155.474 22.376 154.962 22.376H153.738C153.226 22.376 152.866 22.48 152.658 22.688C152.45 22.896 152.346 23.256 152.346 23.768V27.992C152.346 28.504 152.45 28.864 152.658 29.072C152.866 29.28 153.226 29.384 153.738 29.384ZM166.189 32H165.397C164.165 32 163.229 31.664 162.589 30.992C161.965 30.32 161.653 29.352 161.653 28.088V20.264C161.653 19.928 161.821 19.76 162.157 19.76H164.197C164.533 19.76 164.701 19.928 164.701 20.264V27.944C164.701 28.456 164.805 28.824 165.013 29.048C165.237 29.256 165.597 29.36 166.093 29.36H166.981C168.085 29.36 168.637 28.752 168.637 27.536V20.264C168.637 19.928 168.805 19.76 169.141 19.76H171.157C171.509 19.76 171.685 19.928 171.685 20.264V31.496C171.685 31.832 171.509 32 171.157 32H169.141C168.805 32 168.637 31.832 168.637 31.496V30.704H168.541C168.365 31.136 168.053 31.464 167.605 31.688C167.157 31.896 166.685 32 166.189 32ZM176.88 32H174.84C174.504 32 174.336 31.832 174.336 31.496V20.264C174.336 19.928 174.504 19.76 174.84 19.76H176.88C177.216 19.76 177.384 19.928 177.384 20.264V21.08H177.48C177.656 20.648 177.968 20.32 178.416 20.096C178.864 19.872 179.336 19.76 179.832 19.76H180.696C181.016 19.76 181.176 19.928 181.176 20.264V21.92C181.176 22.112 181.136 22.248 181.056 22.328C180.992 22.392 180.872 22.416 180.696 22.4H179.04C177.936 22.4 177.384 23.024 177.384 24.272V31.496C177.384 31.832 177.216 32 176.88 32ZM190.52 35.264H188.48C188.144 35.264 187.976 35.104 187.976 34.784V20.264C187.976 19.928 188.144 19.76 188.48 19.76H190.52C190.856 19.76 191.024 19.928 191.024 20.264V21.056H191.12C191.296 20.624 191.608 20.304 192.056 20.096C192.504 19.872 192.976 19.76 193.472 19.76H194.456C195.688 19.76 196.616 20.096 197.24 20.768C197.88 21.44 198.2 22.408 198.2 23.672V28.088C198.2 29.352 197.88 30.32 197.24 30.992C196.616 31.664 195.688 32 194.456 32H193.472C192.976 32 192.504 31.896 192.056 31.688C191.608 31.464 191.296 31.136 191.12 30.704H191.024V34.784C191.024 35.104 190.856 35.264 190.52 35.264ZM192.68 29.36H193.736C194.248 29.36 194.608 29.256 194.816 29.048C195.04 28.824 195.152 28.456 195.152 27.944V23.816C195.152 23.304 195.04 22.944 194.816 22.736C194.608 22.512 194.248 22.4 193.736 22.4H192.68C191.576 22.4 191.024 23.008 191.024 24.224V27.536C191.024 28.752 191.576 29.36 192.68 29.36ZM204.905 32H204.329C203.065 32 202.089 31.664 201.401 30.992C200.713 30.32 200.369 29.352 200.369 28.088V23.672C200.369 22.408 200.713 21.44 201.401 20.768C202.089 20.096 203.065 19.76 204.329 19.76H209.873C210.225 19.76 210.401 19.928 210.401 20.264V31.496C210.401 31.832 210.225 32 209.873 32H207.857C207.521 32 207.353 31.832 207.353 31.496V30.704H207.257C207.081 31.136 206.769 31.464 206.321 31.688C205.873 31.896 205.401 32 204.905 32ZM207.353 27.536V22.664C207.353 22.488 207.257 22.4 207.065 22.4H204.809C204.297 22.4 203.937 22.512 203.729 22.736C203.521 22.944 203.417 23.304 203.417 23.816V27.944C203.417 28.456 203.521 28.824 203.729 29.048C203.937 29.256 204.297 29.36 204.809 29.36H205.697C206.801 29.36 207.353 28.752 207.353 27.536ZM215.575 32H213.535C213.199 32 213.031 31.832 213.031 31.496V20.264C213.031 19.928 213.199 19.76 213.535 19.76H215.575C215.911 19.76 216.079 19.928 216.079 20.264V21.08H216.175C216.351 20.648 216.663 20.32 217.111 20.096C217.559 19.872 218.031 19.76 218.527 19.76H219.391C219.711 19.76 219.871 19.928 219.871 20.264V21.92C219.871 22.112 219.831 22.248 219.751 22.328C219.687 22.392 219.567 22.416 219.391 22.4H217.735C216.631 22.4 216.079 23.024 216.079 24.272V31.496C216.079 31.832 215.911 32 215.575 32ZM221.662 22.4H220.702C220.51 22.4 220.374 22.368 220.294 22.304C220.23 22.24 220.198 22.112 220.198 21.92V20.264C220.198 19.928 220.366 19.76 220.702 19.76H221.662C221.838 19.76 221.926 19.672 221.926 19.496V17.216C221.926 16.88 222.102 16.712 222.454 16.712H224.47C224.806 16.712 224.974 16.88 224.974 17.216V19.496C224.974 19.672 225.07 19.76 225.262 19.76H227.134C227.47 19.76 227.638 19.928 227.638 20.264V21.92C227.638 22.096 227.598 22.224 227.518 22.304C227.454 22.368 227.326 22.4 227.134 22.4H225.262C225.07 22.4 224.974 22.488 224.974 22.664V27.968C224.974 28.464 225.086 28.824 225.31 29.048C225.534 29.256 225.902 29.36 226.414 29.36H227.374C227.71 29.36 227.878 29.528 227.878 29.864V31.52C227.878 31.696 227.838 31.824 227.758 31.904C227.694 31.968 227.566 32 227.374 32H225.91C224.646 32 223.662 31.664 222.958 30.992C222.27 30.32 221.926 29.36 221.926 28.112V22.664C221.926 22.488 221.838 22.4 221.662 22.4ZM239.453 31.448H238.661C237.429 31.448 236.493 31.112 235.853 30.44C235.229 29.768 234.917 28.8 234.917 27.536V23.672C234.917 22.408 235.261 21.44 235.949 20.768C236.637 20.096 237.613 19.76 238.877 19.76H244.421C244.773 19.76 244.949 19.928 244.949 20.264V32.096C244.949 33.344 244.597 34.304 243.893 34.976C243.205 35.648 242.237 35.984 240.989 35.984H236.381C236.189 35.984 236.053 35.944 235.973 35.864C235.909 35.8 235.877 35.68 235.877 35.504V33.848C235.877 33.512 236.045 33.344 236.381 33.344H240.485C240.997 33.344 241.357 33.232 241.565 33.008C241.789 32.8 241.901 32.448 241.901 31.952V30.128H241.805C241.629 30.56 241.317 30.888 240.868 31.112C240.421 31.336 239.949 31.448 239.453 31.448ZM241.901 26.984V22.664C241.901 22.488 241.805 22.4 241.613 22.4H239.357C238.845 22.4 238.485 22.512 238.277 22.736C238.069 22.944 237.965 23.304 237.965 23.816V27.392C237.965 27.904 238.069 28.264 238.277 28.472C238.485 28.68 238.845 28.784 239.357 28.784H240.245C241.349 28.784 241.901 28.184 241.901 26.984ZM256.602 32H251.298C250.034 32 249.058 31.664 248.37 30.992C247.682 30.32 247.338 29.352 247.338 28.088V23.672C247.338 22.408 247.682 21.44 248.37 20.768C249.058 20.096 250.034 19.76 251.298 19.76H253.194C254.458 19.76 255.434 20.096 256.122 20.768C256.81 21.44 257.154 22.408 257.154 23.672V26.72C257.154 27.056 256.986 27.224 256.65 27.224H250.626C250.434 27.224 250.338 27.312 250.338 27.488V28.016C250.338 28.512 250.442 28.872 250.65 29.096C250.874 29.304 251.242 29.408 251.754 29.408H256.602C256.938 29.408 257.106 29.584 257.106 29.936V31.52C257.106 31.696 257.066 31.824 256.986 31.904C256.922 31.968 256.794 32 256.602 32ZM250.626 25.184H253.89C254.066 25.184 254.154 25.096 254.154 24.92V23.768C254.154 23.256 254.05 22.896 253.842 22.688C253.634 22.48 253.274 22.376 252.762 22.376H251.754C251.242 22.376 250.882 22.48 250.674 22.688C250.466 22.896 250.362 23.256 250.362 23.768V24.92C250.362 25.096 250.45 25.184 250.626 25.184ZM265.293 32H263.157C261.893 32 260.917 31.664 260.229 30.992C259.541 30.32 259.197 29.352 259.197 28.088V23.672C259.197 22.408 259.541 21.44 260.229 20.768C260.917 20.096 261.893 19.76 263.157 19.76H265.293C266.541 19.76 267.509 20.104 268.197 20.792C268.901 21.464 269.253 22.424 269.253 23.672V28.088C269.253 29.336 268.901 30.304 268.197 30.992C267.509 31.664 266.541 32 265.293 32ZM263.613 29.384H264.837C265.349 29.384 265.709 29.28 265.917 29.072C266.141 28.864 266.253 28.504 266.253 27.992V23.768C266.253 23.256 266.141 22.896 265.917 22.688C265.709 22.48 265.349 22.376 264.837 22.376H263.613C263.101 22.376 262.741 22.48 262.533 22.688C262.325 22.896 262.221 23.256 262.221 23.768V27.992C262.221 28.504 262.325 28.864 262.533 29.072C262.741 29.28 263.101 29.384 263.613 29.384ZM274.192 32H272.152C271.816 32 271.648 31.832 271.648 31.496V20.264C271.648 19.928 271.816 19.76 272.152 19.76H274.192C274.528 19.76 274.696 19.928 274.696 20.264V21.056H274.792C274.984 20.672 275.304 20.36 275.752 20.12C276.216 19.88 276.744 19.76 277.336 19.76H278.008C279.4 19.76 280.4 20.272 281.008 21.296C281.552 20.272 282.488 19.76 283.816 19.76H284.512C285.744 19.76 286.672 20.096 287.296 20.768C287.936 21.44 288.256 22.408 288.256 23.672V31.496C288.256 31.832 288.088 32 287.752 32H285.712C285.376 32 285.208 31.832 285.208 31.496V23.816C285.208 23.304 285.104 22.944 284.896 22.736C284.688 22.512 284.328 22.4 283.816 22.4H283.216C282.112 22.4 281.56 23.016 281.56 24.248V31.496C281.56 31.832 281.384 32 281.032 32H279.016C278.68 32 278.512 31.832 278.512 31.496V23.816C278.512 23.304 278.4 22.944 278.176 22.736C277.968 22.512 277.608 22.4 277.096 22.4H276.352C275.248 22.4 274.696 23.008 274.696 24.224V31.496C274.696 31.832 274.528 32 274.192 32ZM299.821 32H294.517C293.253 32 292.277 31.664 291.589 30.992C290.901 30.32 290.557 29.352 290.557 28.088V23.672C290.557 22.408 290.901 21.44 291.589 20.768C292.277 20.096 293.253 19.76 294.517 19.76H296.413C297.677 19.76 298.653 20.096 299.341 20.768C300.029 21.44 300.373 22.408 300.373 23.672V26.72C300.373 27.056 300.205 27.224 299.869 27.224H293.845C293.653 27.224 293.557 27.312 293.557 27.488V28.016C293.557 28.512 293.661 28.872 293.869 29.096C294.093 29.304 294.461 29.408 294.973 29.408H299.821C300.157 29.408 300.325 29.584 300.325 29.936V31.52C300.325 31.696 300.285 31.824 300.205 31.904C300.141 31.968 300.013 32 299.821 32ZM293.845 25.184H297.109C297.285 25.184 297.373 25.096 297.373 24.92V23.768C297.373 23.256 297.269 22.896 297.061 22.688C296.853 22.48 296.493 22.376 295.981 22.376H294.973C294.461 22.376 294.101 22.48 293.893 22.688C293.685 22.896 293.581 23.256 293.581 23.768V24.92C293.581 25.096 293.669 25.184 293.845 25.184ZM302.92 22.4H301.96C301.768 22.4 301.632 22.368 301.552 22.304C301.488 22.24 301.456 22.112 301.456 21.92V20.264C301.456 19.928 301.624 19.76 301.96 19.76H302.92C303.096 19.76 303.184 19.672 303.184 19.496V17.216C303.184 16.88 303.36 16.712 303.712 16.712H305.728C306.064 16.712 306.232 16.88 306.232 17.216V19.496C306.232 19.672 306.328 19.76 306.52 19.76H308.392C308.728 19.76 308.896 19.928 308.896 20.264V21.92C308.896 22.096 308.856 22.224 308.776 22.304C308.712 22.368 308.584 22.4 308.392 22.4H306.52C306.328 22.4 306.232 22.488 306.232 22.664V27.968C306.232 28.464 306.344 28.824 306.568 29.048C306.792 29.256 307.16 29.36 307.672 29.36H308.632C308.968 29.36 309.136 29.528 309.136 29.864V31.52C309.136 31.696 309.096 31.824 309.016 31.904C308.952 31.968 308.824 32 308.632 32H307.168C305.904 32 304.92 31.664 304.216 30.992C303.528 30.32 303.184 29.36 303.184 28.112V22.664C303.184 22.488 303.096 22.4 302.92 22.4ZM313.661 32H311.621C311.285 32 311.117 31.832 311.117 31.496V20.264C311.117 19.928 311.285 19.76 311.621 19.76H313.661C313.997 19.76 314.165 19.928 314.165 20.264V21.08H314.261C314.437 20.648 314.749 20.32 315.197 20.096C315.645 19.872 316.117 19.76 316.613 19.76H317.477C317.797 19.76 317.957 19.928 317.957 20.264V21.92C317.957 22.112 317.917 22.248 317.837 22.328C317.773 22.392 317.653 22.416 317.477 22.4H315.821C314.717 22.4 314.165 23.024 314.165 24.272V31.496C314.165 31.832 313.997 32 313.661 32ZM321.476 36.056H319.94C319.62 36.056 319.46 35.88 319.46 35.528V33.92C319.46 33.568 319.62 33.392 319.94 33.392H320.444C321.452 33.392 322.132 33.248 322.484 32.96C322.852 32.688 323.132 32.152 323.324 31.352H322.052C321.748 31.352 321.548 31.184 321.452 30.848L318.644 20.264C318.548 19.928 318.668 19.76 319.004 19.76H321.14C321.46 19.76 321.66 19.928 321.74 20.264L323.804 29.12H323.9L325.94 20.264C326.004 19.928 326.204 19.76 326.54 19.76H328.556C328.956 19.76 329.116 19.936 329.036 20.288L326.108 32C325.756 33.328 325.212 34.336 324.476 35.024C323.74 35.712 322.74 36.056 321.476 36.056ZM338.046 36.056H336.51C336.19 36.056 336.03 35.88 336.03 35.528V33.92C336.03 33.568 336.19 33.392 336.51 33.392H337.014C338.022 33.392 338.702 33.248 339.054 32.96C339.422 32.688 339.702 32.152 339.894 31.352H338.622C338.318 31.352 338.118 31.184 338.022 30.848L335.214 20.264C335.118 19.928 335.238 19.76 335.574 19.76H337.71C338.03 19.76 338.23 19.928 338.31 20.264L340.374 29.12H340.47L342.51 20.264C342.574 19.928 342.774 19.76 343.11 19.76H345.126C345.526 19.76 345.686 19.936 345.606 20.288L342.678 32C342.326 33.328 341.782 34.336 341.046 35.024C340.31 35.712 339.31 36.056 338.046 36.056ZM353.207 32H351.071C349.807 32 348.831 31.664 348.143 30.992C347.455 30.32 347.111 29.352 347.111 28.088V23.672C347.111 22.408 347.455 21.44 348.143 20.768C348.831 20.096 349.807 19.76 351.071 19.76H353.207C354.455 19.76 355.423 20.104 356.111 20.792C356.815 21.464 357.167 22.424 357.167 23.672V28.088C357.167 29.336 356.815 30.304 356.111 30.992C355.423 31.664 354.455 32 353.207 32ZM351.527 29.384H352.751C353.263 29.384 353.623 29.28 353.831 29.072C354.055 28.864 354.167 28.504 354.167 27.992V23.768C354.167 23.256 354.055 22.896 353.831 22.688C353.623 22.48 353.263 22.376 352.751 22.376H351.527C351.015 22.376 350.655 22.48 350.447 22.688C350.239 22.896 350.135 23.256 350.135 23.768V27.992C350.135 28.504 350.239 28.864 350.447 29.072C350.655 29.28 351.015 29.384 351.527 29.384ZM363.978 32H363.186C361.954 32 361.018 31.664 360.378 30.992C359.754 30.32 359.442 29.352 359.442 28.088V20.264C359.442 19.928 359.61 19.76 359.946 19.76H361.986C362.322 19.76 362.49 19.928 362.49 20.264V27.944C362.49 28.456 362.594 28.824 362.802 29.048C363.026 29.256 363.386 29.36 363.882 29.36H364.77C365.874 29.36 366.426 28.752 366.426 27.536V20.264C366.426 19.928 366.594 19.76 366.93 19.76H368.946C369.298 19.76 369.474 19.928 369.474 20.264V31.496C369.474 31.832 369.298 32 368.946 32H366.93C366.594 32 366.426 31.832 366.426 31.496V30.704H366.33C366.154 31.136 365.842 31.464 365.394 31.688C364.946 31.896 364.474 32 363.978 32ZM377.518 17.696V15.608C377.518 15.288 377.678 15.128 377.998 15.128H380.086C380.406 15.128 380.566 15.28 380.566 15.584V17.696C380.566 18.016 380.406 18.176 380.086 18.176H377.998C377.678 18.176 377.518 18.016 377.518 17.696ZM377.518 31.496V20.264C377.518 19.928 377.678 19.76 377.998 19.76H380.062C380.398 19.76 380.566 19.928 380.566 20.264V31.496C380.566 31.704 380.526 31.84 380.446 31.904C380.382 31.968 380.262 32 380.086 32H378.022C377.686 32 377.518 31.832 377.518 31.496ZM385.872 32H383.832C383.496 32 383.328 31.832 383.328 31.496V20.264C383.328 19.928 383.496 19.76 383.832 19.76H385.872C386.208 19.76 386.376 19.928 386.376 20.264V21.056H386.472C386.824 20.192 387.608 19.76 388.824 19.76H389.592C392.104 19.76 393.36 21.064 393.36 23.672V31.496C393.36 31.832 393.184 32 392.832 32H390.816C390.48 32 390.312 31.832 390.312 31.496V23.816C390.312 23.304 390.2 22.944 389.976 22.736C389.768 22.512 389.408 22.4 388.896 22.4H388.032C386.928 22.4 386.376 23.008 386.376 24.224V31.496C386.376 31.832 386.208 32 385.872 32ZM396.154 22.4H395.194C395.002 22.4 394.866 22.368 394.786 22.304C394.722 22.24 394.69 22.112 394.69 21.92V20.264C394.69 19.928 394.858 19.76 395.194 19.76H396.154C396.33 19.76 396.418 19.672 396.418 19.496V17.216C396.418 16.88 396.594 16.712 396.946 16.712H398.962C399.298 16.712 399.466 16.88 399.466 17.216V19.496C399.466 19.672 399.562 19.76 399.754 19.76H401.626C401.962 19.76 402.13 19.928 402.13 20.264V21.92C402.13 22.096 402.09 22.224 402.01 22.304C401.946 22.368 401.818 22.4 401.626 22.4H399.754C399.562 22.4 399.466 22.488 399.466 22.664V27.968C399.466 28.464 399.578 28.824 399.802 29.048C400.026 29.256 400.394 29.36 400.906 29.36H401.866C402.202 29.36 402.37 29.528 402.37 29.864V31.52C402.37 31.696 402.33 31.824 402.25 31.904C402.186 31.968 402.058 32 401.866 32H400.402C399.138 32 398.154 31.664 397.45 30.992C396.762 30.32 396.418 29.36 396.418 28.112V22.664C396.418 22.488 396.33 22.4 396.154 22.4ZM413.375 32H408.071C406.807 32 405.831 31.664 405.143 30.992C404.455 30.32 404.111 29.352 404.111 28.088V23.672C404.111 22.408 404.455 21.44 405.143 20.768C405.831 20.096 406.807 19.76 408.071 19.76H409.967C411.231 19.76 412.207 20.096 412.895 20.768C413.583 21.44 413.927 22.408 413.927 23.672V26.72C413.927 27.056 413.759 27.224 413.423 27.224H407.399C407.207 27.224 407.111 27.312 407.111 27.488V28.016C407.111 28.512 407.215 28.872 407.423 29.096C407.647 29.304 408.015 29.408 408.527 29.408H413.375C413.711 29.408 413.879 29.584 413.879 29.936V31.52C413.879 31.696 413.839 31.824 413.759 31.904C413.695 31.968 413.567 32 413.375 32ZM407.399 25.184H410.663C410.839 25.184 410.927 25.096 410.927 24.92V23.768C410.927 23.256 410.823 22.896 410.615 22.688C410.407 22.48 410.047 22.376 409.535 22.376H408.527C408.015 22.376 407.655 22.48 407.447 22.688C407.239 22.896 407.135 23.256 407.135 23.768V24.92C407.135 25.096 407.223 25.184 407.399 25.184ZM418.755 32H416.715C416.379 32 416.211 31.832 416.211 31.496V20.264C416.211 19.928 416.379 19.76 416.715 19.76H418.755C419.091 19.76 419.259 19.928 419.259 20.264V21.056H419.355C419.707 20.192 420.491 19.76 421.707 19.76H422.475C424.987 19.76 426.243 21.064 426.243 23.672V31.496C426.243 31.832 426.067 32 425.715 32H423.699C423.363 32 423.195 31.832 423.195 31.496V23.816C423.195 23.304 423.083 22.944 422.859 22.736C422.651 22.512 422.291 22.4 421.779 22.4H420.915C419.811 22.4 419.259 23.008 419.259 24.224V31.496C419.259 31.832 419.091 32 418.755 32ZM433.261 32H432.277C431.045 32 430.109 31.664 429.469 30.992C428.845 30.32 428.533 29.352 428.533 28.088V23.672C428.533 22.408 428.845 21.44 429.469 20.768C430.109 20.096 431.045 19.76 432.277 19.76H433.261C433.757 19.76 434.229 19.872 434.677 20.096C435.125 20.304 435.437 20.624 435.613 21.056H435.709V15.632C435.709 15.296 435.877 15.128 436.213 15.128H438.253C438.589 15.128 438.757 15.296 438.757 15.632V31.496C438.757 31.832 438.589 32 438.253 32H436.213C435.877 32 435.709 31.832 435.709 31.496V30.704H435.613C435.437 31.136 435.125 31.464 434.677 31.688C434.229 31.896 433.757 32 433.261 32ZM435.709 27.536V24.224C435.709 23.008 435.157 22.4 434.053 22.4H432.973C432.461 22.4 432.101 22.512 431.893 22.736C431.685 22.944 431.581 23.304 431.581 23.816V27.944C431.581 28.456 431.685 28.824 431.893 29.048C432.101 29.256 432.461 29.36 432.973 29.36H434.053C435.157 29.36 435.709 28.752 435.709 27.536ZM446.943 22.4H445.983C445.791 22.4 445.655 22.368 445.575 22.304C445.511 22.24 445.479 22.112 445.479 21.92V20.264C445.479 19.928 445.647 19.76 445.983 19.76H446.943C447.119 19.76 447.207 19.672 447.207 19.496V17.216C447.207 16.88 447.383 16.712 447.735 16.712H449.751C450.087 16.712 450.255 16.88 450.255 17.216V19.496C450.255 19.672 450.351 19.76 450.543 19.76H452.415C452.751 19.76 452.919 19.928 452.919 20.264V21.92C452.919 22.096 452.879 22.224 452.799 22.304C452.735 22.368 452.607 22.4 452.415 22.4H450.543C450.351 22.4 450.255 22.488 450.255 22.664V27.968C450.255 28.464 450.367 28.824 450.591 29.048C450.815 29.256 451.183 29.36 451.695 29.36H452.655C452.991 29.36 453.159 29.528 453.159 29.864V31.52C453.159 31.696 453.119 31.824 453.039 31.904C452.975 31.968 452.847 32 452.655 32H451.191C449.927 32 448.943 31.664 448.239 30.992C447.551 30.32 447.207 29.36 447.207 28.112V22.664C447.207 22.488 447.119 22.4 446.943 22.4ZM460.996 32H458.86C457.596 32 456.62 31.664 455.932 30.992C455.244 30.32 454.9 29.352 454.9 28.088V23.672C454.9 22.408 455.244 21.44 455.932 20.768C456.62 20.096 457.596 19.76 458.86 19.76H460.996C462.244 19.76 463.212 20.104 463.9 20.792C464.604 21.464 464.956 22.424 464.956 23.672V28.088C464.956 29.336 464.604 30.304 463.9 30.992C463.212 31.664 462.244 32 460.996 32ZM459.316 29.384H460.54C461.052 29.384 461.412 29.28 461.62 29.072C461.844 28.864 461.956 28.504 461.956 27.992V23.768C461.956 23.256 461.844 22.896 461.62 22.688C461.412 22.48 461.052 22.376 460.54 22.376H459.316C458.804 22.376 458.444 22.48 458.236 22.688C458.028 22.896 457.924 23.256 457.924 23.768V27.992C457.924 28.504 458.028 28.864 458.236 29.072C458.444 29.28 458.804 29.384 459.316 29.384ZM475.409 32H473.369C473.033 32 472.865 31.832 472.865 31.496V17.072C472.865 16.736 473.033 16.568 473.369 16.568H479.225C480.473 16.568 481.441 16.912 482.129 17.6C482.817 18.272 483.161 19.232 483.161 20.48V22.784C483.161 24.032 482.817 25 482.129 25.688C481.441 26.36 480.473 26.696 479.225 26.696H476.201C476.009 26.696 475.913 26.784 475.913 26.96V31.496C475.913 31.832 475.745 32 475.409 32ZM476.177 24.032H478.721C479.233 24.032 479.593 23.928 479.801 23.72C480.009 23.496 480.113 23.136 480.113 22.64V20.624C480.113 20.112 480.009 19.752 479.801 19.544C479.593 19.32 479.233 19.208 478.721 19.208H476.177C476.001 19.208 475.913 19.296 475.913 19.472V23.768C475.913 23.944 476.001 24.032 476.177 24.032ZM487.895 32H485.855C485.519 32 485.351 31.832 485.351 31.496V20.264C485.351 19.928 485.519 19.76 485.855 19.76H487.895C488.231 19.76 488.399 19.928 488.399 20.264V21.08H488.495C488.671 20.648 488.983 20.32 489.431 20.096C489.879 19.872 490.351 19.76 490.847 19.76H491.711C492.031 19.76 492.191 19.928 492.191 20.264V21.92C492.191 22.112 492.151 22.248 492.071 22.328C492.007 22.392 491.887 22.416 491.711 22.4H490.055C488.951 22.4 488.399 23.024 488.399 24.272V31.496C488.399 31.832 488.231 32 487.895 32ZM493.838 17.696V15.608C493.838 15.288 493.998 15.128 494.318 15.128H496.406C496.726 15.128 496.886 15.28 496.886 15.584V17.696C496.886 18.016 496.726 18.176 496.406 18.176H494.318C493.998 18.176 493.838 18.016 493.838 17.696ZM493.838 31.496V20.264C493.838 19.928 493.998 19.76 494.318 19.76H496.382C496.718 19.76 496.886 19.928 496.886 20.264V31.496C496.886 31.704 496.846 31.84 496.766 31.904C496.702 31.968 496.582 32 496.406 32H494.342C494.006 32 493.838 31.832 493.838 31.496ZM502.192 32H500.152C499.816 32 499.648 31.832 499.648 31.496V20.264C499.648 19.928 499.816 19.76 500.152 19.76H502.192C502.528 19.76 502.696 19.928 502.696 20.264V21.056H502.792C503.144 20.192 503.928 19.76 505.144 19.76H505.912C508.424 19.76 509.68 21.064 509.68 23.672V31.496C509.68 31.832 509.504 32 509.152 32H507.136C506.8 32 506.632 31.832 506.632 31.496V23.816C506.632 23.304 506.52 22.944 506.296 22.736C506.088 22.512 505.728 22.4 505.216 22.4H504.352C503.248 22.4 502.696 23.008 502.696 24.224V31.496C502.696 31.832 502.528 32 502.192 32ZM512.475 22.4H511.515C511.323 22.4 511.187 22.368 511.107 22.304C511.043 22.24 511.011 22.112 511.011 21.92V20.264C511.011 19.928 511.179 19.76 511.515 19.76H512.475C512.651 19.76 512.739 19.672 512.739 19.496V17.216C512.739 16.88 512.915 16.712 513.267 16.712H515.283C515.619 16.712 515.787 16.88 515.787 17.216V19.496C515.787 19.672 515.883 19.76 516.075 19.76H517.947C518.283 19.76 518.451 19.928 518.451 20.264V21.92C518.451 22.096 518.411 22.224 518.331 22.304C518.267 22.368 518.139 22.4 517.947 22.4H516.075C515.883 22.4 515.787 22.488 515.787 22.664V27.968C515.787 28.464 515.899 28.824 516.123 29.048C516.347 29.256 516.715 29.36 517.227 29.36H518.187C518.523 29.36 518.691 29.528 518.691 29.864V31.52C518.691 31.696 518.651 31.824 518.571 31.904C518.507 31.968 518.379 32 518.187 32H516.723C515.459 32 514.475 31.664 513.771 30.992C513.083 30.32 512.739 29.36 512.739 28.112V22.664C512.739 22.488 512.651 22.4 512.475 22.4Z" fill="#5A5A5A"/>
<path d="M66.888 92H63.528C63.176 92 62.976 91.832 62.928 91.496L60.36 77.072C60.312 76.736 60.48 76.568 60.864 76.568H63.36C63.728 76.568 63.92 76.736 63.936 77.072L65.328 88.904H65.496L67.8 77C67.848 76.712 68.016 76.568 68.304 76.568H70.992C71.296 76.568 71.472 76.704 71.52 76.976L73.872 88.904H74.064L75.432 77.096C75.448 76.744 75.64 76.568 76.008 76.568H78.504C78.888 76.568 79.056 76.744 79.008 77.096L76.416 91.496C76.368 91.832 76.184 92 75.864 92H72.48C72.144 92 71.952 91.832 71.904 91.496L69.744 80.24H69.648L67.464 91.496C67.4 91.832 67.208 92 66.888 92ZM84.9754 92H84.3994C83.1354 92 82.1594 91.664 81.4714 90.992C80.7834 90.32 80.4394 89.352 80.4394 88.088V83.672C80.4394 82.408 80.7834 81.44 81.4714 80.768C82.1594 80.096 83.1354 79.76 84.3994 79.76H89.9434C90.2954 79.76 90.4714 79.928 90.4714 80.264V91.496C90.4714 91.832 90.2954 92 89.9434 92H87.9274C87.5914 92 87.4234 91.832 87.4234 91.496V90.704H87.3274C87.1514 91.136 86.8394 91.464 86.3914 91.688C85.9434 91.896 85.4714 92 84.9754 92ZM87.4234 87.536V82.664C87.4234 82.488 87.3274 82.4 87.1354 82.4H84.8794C84.3674 82.4 84.0074 82.512 83.7994 82.736C83.5914 82.944 83.4874 83.304 83.4874 83.816V87.944C83.4874 88.456 83.5914 88.824 83.7994 89.048C84.0074 89.256 84.3674 89.36 84.8794 89.36H85.7674C86.8714 89.36 87.4234 88.752 87.4234 87.536ZM93.2213 77.696V75.608C93.2213 75.288 93.3813 75.128 93.7013 75.128H95.7893C96.1093 75.128 96.2693 75.28 96.2693 75.584V77.696C96.2693 78.016 96.1093 78.176 95.7893 78.176H93.7013C93.3813 78.176 93.2213 78.016 93.2213 77.696ZM93.2213 91.496V80.264C93.2213 79.928 93.3813 79.76 93.7013 79.76H95.7653C96.1013 79.76 96.2693 79.928 96.2693 80.264V91.496C96.2693 91.704 96.2293 91.84 96.1493 91.904C96.0853 91.968 95.9653 92 95.7893 92H93.7253C93.3893 92 93.2213 91.832 93.2213 91.496ZM99.2949 82.4H98.3349C98.1429 82.4 98.0069 82.368 97.9269 82.304C97.8629 82.24 97.8309 82.112 97.8309 81.92V80.264C97.8309 79.928 97.9989 79.76 98.3349 79.76H99.2949C99.4709 79.76 99.5589 79.672 99.5589 79.496V77.216C99.5589 76.88 99.7349 76.712 100.087 76.712H102.103C102.439 76.712 102.607 76.88 102.607 77.216V79.496C102.607 79.672 102.703 79.76 102.895 79.76H104.767C105.103 79.76 105.271 79.928 105.271 80.264V81.92C105.271 82.096 105.231 82.224 105.151 82.304C105.087 82.368 104.959 82.4 104.767 82.4H102.895C102.703 82.4 102.607 82.488 102.607 82.664V87.968C102.607 88.464 102.719 88.824 102.943 89.048C103.167 89.256 103.535 89.36 104.047 89.36H105.007C105.343 89.36 105.511 89.528 105.511 89.864V91.52C105.511 91.696 105.471 91.824 105.391 91.904C105.327 91.968 105.199 92 105.007 92H103.543C102.279 92 101.295 91.664 100.591 90.992C99.9029 90.32 99.5589 89.36 99.5589 88.112V82.664C99.5589 82.488 99.4709 82.4 99.2949 82.4ZM117.205 79.76H119.125C119.317 79.76 119.445 79.8 119.509 79.88C119.589 79.944 119.629 80.064 119.629 80.24V81.896C119.629 82.232 119.461 82.4 119.125 82.4H117.205C117.029 82.4 116.941 82.488 116.941 82.664V91.496C116.941 91.832 116.765 92 116.413 92H114.397C114.061 92 113.893 91.832 113.893 91.496V82.664C113.893 82.488 113.797 82.4 113.605 82.4H112.501C112.165 82.4 111.997 82.232 111.997 81.896V80.24C111.997 80.048 112.029 79.92 112.093 79.856C112.173 79.792 112.309 79.76 112.501 79.76H113.605C113.797 79.76 113.893 79.672 113.893 79.496V79.04C113.893 77.776 114.221 76.808 114.877 76.136C115.549 75.464 116.517 75.128 117.781 75.128H119.149C119.341 75.128 119.469 75.168 119.533 75.248C119.597 75.312 119.629 75.432 119.629 75.608V77.264C119.629 77.6 119.469 77.768 119.149 77.768H118.261C117.749 77.768 117.397 77.88 117.205 78.104C117.029 78.312 116.941 78.672 116.941 79.184V79.496C116.941 79.672 117.029 79.76 117.205 79.76ZM127.106 92H124.97C123.706 92 122.73 91.664 122.042 90.992C121.354 90.32 121.01 89.352 121.01 88.088V83.672C121.01 82.408 121.354 81.44 122.042 80.768C122.73 80.096 123.706 79.76 124.97 79.76H127.106C128.354 79.76 129.322 80.104 130.01 80.792C130.714 81.464 131.066 82.424 131.066 83.672V88.088C131.066 89.336 130.714 90.304 130.01 90.992C129.322 91.664 128.354 92 127.106 92ZM125.426 89.384H126.65C127.162 89.384 127.522 89.28 127.73 89.072C127.954 88.864 128.066 88.504 128.066 87.992V83.768C128.066 83.256 127.954 82.896 127.73 82.688C127.522 82.48 127.162 82.376 126.65 82.376H125.426C124.914 82.376 124.554 82.48 124.346 82.688C124.138 82.896 124.034 83.256 124.034 83.768V87.992C124.034 88.504 124.138 88.864 124.346 89.072C124.554 89.28 124.914 89.384 125.426 89.384ZM136.005 92H133.965C133.629 92 133.461 91.832 133.461 91.496V80.264C133.461 79.928 133.629 79.76 133.965 79.76H136.005C136.341 79.76 136.509 79.928 136.509 80.264V81.08H136.605C136.781 80.648 137.093 80.32 137.541 80.096C137.989 79.872 138.461 79.76 138.957 79.76H139.821C140.141 79.76 140.301 79.928 140.301 80.264V81.92C140.301 82.112 140.261 82.248 140.181 82.328C140.117 82.392 139.997 82.416 139.821 82.4H138.165C137.061 82.4 136.509 83.024 136.509 84.272V91.496C136.509 91.832 136.341 92 136.005 92ZM149.885 92H147.845C147.509 92 147.341 91.832 147.341 91.496V77.072C147.341 76.736 147.509 76.568 147.845 76.568H149.885C150.221 76.568 150.389 76.736 150.389 77.072V83.912H150.437C150.565 83.528 150.813 83.032 151.181 82.424L154.829 77.072C155.037 76.736 155.349 76.568 155.765 76.568H158.117C158.293 76.568 158.397 76.624 158.429 76.736C158.477 76.832 158.437 76.96 158.309 77.12L153.749 83.432L158.837 91.4C158.949 91.592 158.965 91.744 158.885 91.856C158.821 91.952 158.677 92 158.453 92H156.701C156.141 92 155.765 91.832 155.573 91.496L151.901 85.616L150.389 87.392V91.496C150.389 91.832 150.221 92 149.885 92ZM163.028 92H160.988C160.652 92 160.484 91.832 160.484 91.496V80.264C160.484 79.928 160.652 79.76 160.988 79.76H163.028C163.364 79.76 163.532 79.928 163.532 80.264V81.056H163.628C163.98 80.192 164.764 79.76 165.98 79.76H166.748C169.26 79.76 170.516 81.064 170.516 83.672V91.496C170.516 91.832 170.34 92 169.988 92H167.972C167.636 92 167.468 91.832 167.468 91.496V83.816C167.468 83.304 167.356 82.944 167.132 82.736C166.924 82.512 166.564 82.4 166.052 82.4H165.188C164.084 82.4 163.532 83.008 163.532 84.224V91.496C163.532 91.832 163.364 92 163.028 92ZM178.903 92H176.767C175.503 92 174.527 91.664 173.839 90.992C173.151 90.32 172.807 89.352 172.807 88.088V83.672C172.807 82.408 173.151 81.44 173.839 80.768C174.527 80.096 175.503 79.76 176.767 79.76H178.903C180.151 79.76 181.119 80.104 181.807 80.792C182.511 81.464 182.863 82.424 182.863 83.672V88.088C182.863 89.336 182.511 90.304 181.807 90.992C181.119 91.664 180.151 92 178.903 92ZM177.223 89.384H178.447C178.959 89.384 179.319 89.28 179.527 89.072C179.751 88.864 179.863 88.504 179.863 87.992V83.768C179.863 83.256 179.751 82.896 179.527 82.688C179.319 82.48 178.959 82.376 178.447 82.376H177.223C176.711 82.376 176.351 82.48 176.143 82.688C175.935 82.896 175.831 83.256 175.831 83.768V87.992C175.831 88.504 175.935 88.864 176.143 89.072C176.351 89.28 176.711 89.384 177.223 89.384ZM188.57 89.36H191.018C191.53 89.36 191.89 89.256 192.098 89.048C192.322 88.824 192.434 88.456 192.434 87.944V83.768C192.434 83.256 192.322 82.896 192.098 82.688C191.89 82.464 191.53 82.352 191.018 82.352H189.962C188.858 82.352 188.306 82.96 188.306 84.176V89.096C188.306 89.272 188.394 89.36 188.57 89.36ZM185.258 91.496V75.632C185.258 75.296 185.426 75.128 185.762 75.128H187.802C188.138 75.128 188.306 75.296 188.306 75.632V81.032H188.402C188.578 80.6 188.89 80.272 189.338 80.048C189.786 79.824 190.258 79.712 190.754 79.712H191.522C192.786 79.712 193.762 80.048 194.45 80.72C195.138 81.392 195.482 82.36 195.482 83.624V88.088C195.482 89.352 195.138 90.32 194.45 90.992C193.762 91.664 192.786 92 191.522 92H185.762C185.426 92 185.258 91.832 185.258 91.496ZM206.572 77.072V91.496C206.572 91.832 206.404 92 206.068 92H204.028C203.692 92 203.524 91.832 203.524 91.496V77.072C203.524 76.736 203.692 76.568 204.028 76.568H206.068C206.404 76.568 206.572 76.736 206.572 77.072ZM212.106 92H210.066C209.73 92 209.562 91.832 209.562 91.496V80.264C209.562 79.928 209.73 79.76 210.066 79.76H212.106C212.442 79.76 212.61 79.928 212.61 80.264V81.056H212.706C213.058 80.192 213.842 79.76 215.058 79.76H215.826C218.338 79.76 219.594 81.064 219.594 83.672V91.496C219.594 91.832 219.418 92 219.066 92H217.05C216.714 92 216.546 91.832 216.546 91.496V83.816C216.546 83.304 216.434 82.944 216.21 82.736C216.002 82.512 215.642 82.4 215.13 82.4H214.266C213.162 82.4 212.61 83.008 212.61 84.224V91.496C212.61 91.832 212.442 92 212.106 92ZM222.389 82.4H221.429C221.237 82.4 221.101 82.368 221.021 82.304C220.957 82.24 220.925 82.112 220.925 81.92V80.264C220.925 79.928 221.093 79.76 221.429 79.76H222.389C222.565 79.76 222.653 79.672 222.653 79.496V77.216C222.653 76.88 222.829 76.712 223.181 76.712H225.197C225.533 76.712 225.701 76.88 225.701 77.216V79.496C225.701 79.672 225.797 79.76 225.989 79.76H227.861C228.197 79.76 228.365 79.928 228.365 80.264V81.92C228.365 82.096 228.325 82.224 228.245 82.304C228.181 82.368 228.053 82.4 227.861 82.4H225.989C225.797 82.4 225.701 82.488 225.701 82.664V87.968C225.701 88.464 225.813 88.824 226.037 89.048C226.261 89.256 226.629 89.36 227.141 89.36H228.101C228.437 89.36 228.605 89.528 228.605 89.864V91.52C228.605 91.696 228.565 91.824 228.485 91.904C228.421 91.968 228.293 92 228.101 92H226.637C225.373 92 224.389 91.664 223.685 90.992C222.997 90.32 222.653 89.36 222.653 88.112V82.664C222.653 82.488 222.565 82.4 222.389 82.4ZM239.61 92H234.306C233.042 92 232.066 91.664 231.378 90.992C230.69 90.32 230.346 89.352 230.346 88.088V83.672C230.346 82.408 230.69 81.44 231.378 80.768C232.066 80.096 233.042 79.76 234.306 79.76H236.202C237.466 79.76 238.442 80.096 239.13 80.768C239.818 81.44 240.162 82.408 240.162 83.672V86.72C240.162 87.056 239.994 87.224 239.658 87.224H233.634C233.442 87.224 233.346 87.312 233.346 87.488V88.016C233.346 88.512 233.45 88.872 233.658 89.096C233.882 89.304 234.25 89.408 234.762 89.408H239.61C239.946 89.408 240.114 89.584 240.114 89.936V91.52C240.114 91.696 240.074 91.824 239.994 91.904C239.93 91.968 239.802 92 239.61 92ZM233.634 85.184H236.898C237.074 85.184 237.162 85.096 237.162 84.92V83.768C237.162 83.256 237.058 82.896 236.85 82.688C236.642 82.48 236.282 82.376 235.77 82.376H234.762C234.25 82.376 233.89 82.48 233.682 82.688C233.474 82.896 233.37 83.256 233.37 83.768V84.92C233.37 85.096 233.458 85.184 233.634 85.184ZM246.765 91.448H245.973C244.741 91.448 243.805 91.112 243.165 90.44C242.541 89.768 242.229 88.8 242.229 87.536V83.672C242.229 82.408 242.573 81.44 243.261 80.768C243.949 80.096 244.925 79.76 246.189 79.76H251.733C252.085 79.76 252.261 79.928 252.261 80.264V92.096C252.261 93.344 251.909 94.304 251.205 94.976C250.517 95.648 249.549 95.984 248.301 95.984H243.693C243.501 95.984 243.365 95.944 243.285 95.864C243.221 95.8 243.189 95.68 243.189 95.504V93.848C243.189 93.512 243.357 93.344 243.693 93.344H247.797C248.309 93.344 248.669 93.232 248.877 93.008C249.101 92.8 249.213 92.448 249.213 91.952V90.128H249.117C248.941 90.56 248.629 90.888 248.181 91.112C247.733 91.336 247.261 91.448 246.765 91.448ZM249.213 86.984V82.664C249.213 82.488 249.117 82.4 248.925 82.4H246.669C246.157 82.4 245.797 82.512 245.589 82.736C245.381 82.944 245.277 83.304 245.277 83.816V87.392C245.277 87.904 245.381 88.264 245.589 88.472C245.797 88.68 246.157 88.784 246.669 88.784H247.557C248.661 88.784 249.213 88.184 249.213 86.984ZM257.434 92H255.394C255.058 92 254.89 91.832 254.89 91.496V80.264C254.89 79.928 255.058 79.76 255.394 79.76H257.434C257.77 79.76 257.938 79.928 257.938 80.264V81.08H258.034C258.21 80.648 258.522 80.32 258.97 80.096C259.418 79.872 259.89 79.76 260.386 79.76H261.25C261.57 79.76 261.73 79.928 261.73 80.264V81.92C261.73 82.112 261.69 82.248 261.61 82.328C261.546 82.392 261.426 82.416 261.25 82.4H259.594C258.49 82.4 257.938 83.024 257.938 84.272V91.496C257.938 91.832 257.77 92 257.434 92ZM267.554 92H266.978C265.714 92 264.738 91.664 264.05 90.992C263.362 90.32 263.018 89.352 263.018 88.088V83.672C263.018 82.408 263.362 81.44 264.05 80.768C264.738 80.096 265.714 79.76 266.978 79.76H272.522C272.874 79.76 273.05 79.928 273.05 80.264V91.496C273.05 91.832 272.874 92 272.522 92H270.506C270.17 92 270.002 91.832 270.002 91.496V90.704H269.906C269.73 91.136 269.418 91.464 268.97 91.688C268.522 91.896 268.05 92 267.554 92ZM270.002 87.536V82.664C270.002 82.488 269.906 82.4 269.714 82.4H267.458C266.946 82.4 266.586 82.512 266.378 82.736C266.17 82.944 266.066 83.304 266.066 83.816V87.944C266.066 88.456 266.17 88.824 266.378 89.048C266.586 89.256 266.946 89.36 267.458 89.36H268.346C269.45 89.36 270.002 88.752 270.002 87.536ZM275.943 82.4H274.983C274.791 82.4 274.655 82.368 274.575 82.304C274.511 82.24 274.479 82.112 274.479 81.92V80.264C274.479 79.928 274.647 79.76 274.983 79.76H275.943C276.119 79.76 276.207 79.672 276.207 79.496V77.216C276.207 76.88 276.383 76.712 276.735 76.712H278.751C279.087 76.712 279.255 76.88 279.255 77.216V79.496C279.255 79.672 279.351 79.76 279.543 79.76H281.415C281.751 79.76 281.919 79.928 281.919 80.264V81.92C281.919 82.096 281.879 82.224 281.799 82.304C281.735 82.368 281.607 82.4 281.415 82.4H279.543C279.351 82.4 279.255 82.488 279.255 82.664V87.968C279.255 88.464 279.367 88.824 279.591 89.048C279.815 89.256 280.183 89.36 280.695 89.36H281.655C281.991 89.36 282.159 89.528 282.159 89.864V91.52C282.159 91.696 282.119 91.824 282.039 91.904C281.975 91.968 281.847 92 281.655 92H280.191C278.927 92 277.943 91.664 277.239 90.992C276.551 90.32 276.207 89.36 276.207 88.112V82.664C276.207 82.488 276.119 82.4 275.943 82.4ZM284.26 77.696V75.608C284.26 75.288 284.42 75.128 284.74 75.128H286.828C287.148 75.128 287.308 75.28 287.308 75.584V77.696C287.308 78.016 287.148 78.176 286.828 78.176H284.74C284.42 78.176 284.26 78.016 284.26 77.696ZM284.26 91.496V80.264C284.26 79.928 284.42 79.76 284.74 79.76H286.804C287.14 79.76 287.308 79.928 287.308 80.264V91.496C287.308 91.704 287.268 91.84 287.188 91.904C287.124 91.968 287.004 92 286.828 92H284.764C284.428 92 284.26 91.832 284.26 91.496ZM295.926 92H293.79C292.526 92 291.55 91.664 290.862 90.992C290.174 90.32 289.83 89.352 289.83 88.088V83.672C289.83 82.408 290.174 81.44 290.862 80.768C291.55 80.096 292.526 79.76 293.79 79.76H295.926C297.174 79.76 298.142 80.104 298.83 80.792C299.534 81.464 299.886 82.424 299.886 83.672V88.088C299.886 89.336 299.534 90.304 298.83 90.992C298.142 91.664 297.174 92 295.926 92ZM294.246 89.384H295.47C295.982 89.384 296.342 89.28 296.55 89.072C296.774 88.864 296.886 88.504 296.886 87.992V83.768C296.886 83.256 296.774 82.896 296.55 82.688C296.342 82.48 295.982 82.376 295.47 82.376H294.246C293.734 82.376 293.374 82.48 293.166 82.688C292.958 82.896 292.854 83.256 292.854 83.768V87.992C292.854 88.504 292.958 88.864 293.166 89.072C293.374 89.28 293.734 89.384 294.246 89.384ZM304.825 92H302.785C302.449 92 302.281 91.832 302.281 91.496V80.264C302.281 79.928 302.449 79.76 302.785 79.76H304.825C305.161 79.76 305.329 79.928 305.329 80.264V81.056H305.425C305.777 80.192 306.561 79.76 307.777 79.76H308.545C311.057 79.76 312.313 81.064 312.313 83.672V91.496C312.313 91.832 312.137 92 311.785 92H309.769C309.433 92 309.265 91.832 309.265 91.496V83.816C309.265 83.304 309.153 82.944 308.929 82.736C308.721 82.512 308.361 82.4 307.849 82.4H306.985C305.881 82.4 305.329 83.008 305.329 84.224V91.496C305.329 91.832 305.161 92 304.825 92Z" fill="#5A5A5A"/>
<path d="M66.888 152H63.528C63.176 152 62.976 151.832 62.928 151.496L60.36 137.072C60.312 136.736 60.48 136.568 60.864 136.568H63.36C63.728 136.568 63.92 136.736 63.936 137.072L65.328 148.904H65.496L67.8 137C67.848 136.712 68.016 136.568 68.304 136.568H70.992C71.296 136.568 71.472 136.704 71.52 136.976L73.872 148.904H74.064L75.432 137.096C75.448 136.744 75.64 136.568 76.008 136.568H78.504C78.888 136.568 79.056 136.744 79.008 137.096L76.416 151.496C76.368 151.832 76.184 152 75.864 152H72.48C72.144 152 71.952 151.832 71.904 151.496L69.744 140.24H69.648L67.464 151.496C67.4 151.832 67.208 152 66.888 152ZM84.9754 152H84.3994C83.1354 152 82.1594 151.664 81.4714 150.992C80.7834 150.32 80.4394 149.352 80.4394 148.088V143.672C80.4394 142.408 80.7834 141.44 81.4714 140.768C82.1594 140.096 83.1354 139.76 84.3994 139.76H89.9434C90.2954 139.76 90.4714 139.928 90.4714 140.264V151.496C90.4714 151.832 90.2954 152 89.9434 152H87.9274C87.5914 152 87.4234 151.832 87.4234 151.496V150.704H87.3274C87.1514 151.136 86.8394 151.464 86.3914 151.688C85.9434 151.896 85.4714 152 84.9754 152ZM87.4234 147.536V142.664C87.4234 142.488 87.3274 142.4 87.1354 142.4H84.8794C84.3674 142.4 84.0074 142.512 83.7994 142.736C83.5914 142.944 83.4874 143.304 83.4874 143.816V147.944C83.4874 148.456 83.5914 148.824 83.7994 149.048C84.0074 149.256 84.3674 149.36 84.8794 149.36H85.7674C86.8714 149.36 87.4234 148.752 87.4234 147.536ZM93.2213 137.696V135.608C93.2213 135.288 93.3813 135.128 93.7013 135.128H95.7893C96.1093 135.128 96.2693 135.28 96.2693 135.584V137.696C96.2693 138.016 96.1093 138.176 95.7893 138.176H93.7013C93.3813 138.176 93.2213 138.016 93.2213 137.696ZM93.2213 151.496V140.264C93.2213 139.928 93.3813 139.76 93.7013 139.76H95.7653C96.1013 139.76 96.2693 139.928 96.2693 140.264V151.496C96.2693 151.704 96.2293 151.84 96.1493 151.904C96.0853 151.968 95.9653 152 95.7893 152H93.7253C93.3893 152 93.2213 151.832 93.2213 151.496ZM99.2949 142.4H98.3349C98.1429 142.4 98.0069 142.368 97.9269 142.304C97.8629 142.24 97.8309 142.112 97.8309 141.92V140.264C97.8309 139.928 97.9989 139.76 98.3349 139.76H99.2949C99.4709 139.76 99.5589 139.672 99.5589 139.496V137.216C99.5589 136.88 99.7349 136.712 100.087 136.712H102.103C102.439 136.712 102.607 136.88 102.607 137.216V139.496C102.607 139.672 102.703 139.76 102.895 139.76H104.767C105.103 139.76 105.271 139.928 105.271 140.264V141.92C105.271 142.096 105.231 142.224 105.151 142.304C105.087 142.368 104.959 142.4 104.767 142.4H102.895C102.703 142.4 102.607 142.488 102.607 142.664V147.968C102.607 148.464 102.719 148.824 102.943 149.048C103.167 149.256 103.535 149.36 104.047 149.36H105.007C105.343 149.36 105.511 149.528 105.511 149.864V151.52C105.511 151.696 105.471 151.824 105.391 151.904C105.327 151.968 105.199 152 105.007 152H103.543C102.279 152 101.295 151.664 100.591 150.992C99.9029 150.32 99.5589 149.36 99.5589 148.112V142.664C99.5589 142.488 99.4709 142.4 99.2949 142.4ZM117.205 139.76H119.125C119.317 139.76 119.445 139.8 119.509 139.88C119.589 139.944 119.629 140.064 119.629 140.24V141.896C119.629 142.232 119.461 142.4 119.125 142.4H117.205C117.029 142.4 116.941 142.488 116.941 142.664V151.496C116.941 151.832 116.765 152 116.413 152H114.397C114.061 152 113.893 151.832 113.893 151.496V142.664C113.893 142.488 113.797 142.4 113.605 142.4H112.501C112.165 142.4 111.997 142.232 111.997 141.896V140.24C111.997 140.048 112.029 139.92 112.093 139.856C112.173 139.792 112.309 139.76 112.501 139.76H113.605C113.797 139.76 113.893 139.672 113.893 139.496V139.04C113.893 137.776 114.221 136.808 114.877 136.136C115.549 135.464 116.517 135.128 117.781 135.128H119.149C119.341 135.128 119.469 135.168 119.533 135.248C119.597 135.312 119.629 135.432 119.629 135.608V137.264C119.629 137.6 119.469 137.768 119.149 137.768H118.261C117.749 137.768 117.397 137.88 117.205 138.104C117.029 138.312 116.941 138.672 116.941 139.184V139.496C116.941 139.672 117.029 139.76 117.205 139.76ZM127.106 152H124.97C123.706 152 122.73 151.664 122.042 150.992C121.354 150.32 121.01 149.352 121.01 148.088V143.672C121.01 142.408 121.354 141.44 122.042 140.768C122.73 140.096 123.706 139.76 124.97 139.76H127.106C128.354 139.76 129.322 140.104 130.01 140.792C130.714 141.464 131.066 142.424 131.066 143.672V148.088C131.066 149.336 130.714 150.304 130.01 150.992C129.322 151.664 128.354 152 127.106 152ZM125.426 149.384H126.65C127.162 149.384 127.522 149.28 127.73 149.072C127.954 148.864 128.066 148.504 128.066 147.992V143.768C128.066 143.256 127.954 142.896 127.73 142.688C127.522 142.48 127.162 142.376 126.65 142.376H125.426C124.914 142.376 124.554 142.48 124.346 142.688C124.138 142.896 124.034 143.256 124.034 143.768V147.992C124.034 148.504 124.138 148.864 124.346 149.072C124.554 149.28 124.914 149.384 125.426 149.384ZM136.005 152H133.965C133.629 152 133.461 151.832 133.461 151.496V140.264C133.461 139.928 133.629 139.76 133.965 139.76H136.005C136.341 139.76 136.509 139.928 136.509 140.264V141.08H136.605C136.781 140.648 137.093 140.32 137.541 140.096C137.989 139.872 138.461 139.76 138.957 139.76H139.821C140.141 139.76 140.301 139.928 140.301 140.264V141.92C140.301 142.112 140.261 142.248 140.181 142.328C140.117 142.392 139.997 142.416 139.821 142.4H138.165C137.061 142.4 136.509 143.024 136.509 144.272V151.496C136.509 151.832 136.341 152 136.005 152ZM157.589 136.568H161.141C161.477 136.568 161.645 136.736 161.645 137.072V151.496C161.645 151.832 161.477 152 161.141 152H159.173C158.837 152 158.669 151.832 158.669 151.496V140.12H158.573L156.125 148.16C156.029 148.48 155.829 148.64 155.525 148.64H153.509C153.205 148.64 153.005 148.48 152.909 148.16L150.413 140.096H150.317V151.496C150.317 151.688 150.285 151.824 150.221 151.904C150.157 151.968 150.021 152 149.813 152H147.845C147.509 152 147.341 151.832 147.341 151.496V137.072C147.341 136.736 147.509 136.568 147.845 136.568H151.421C151.645 136.568 151.797 136.68 151.877 136.904L154.421 145.376H154.565L157.133 136.904C157.181 136.68 157.333 136.568 157.589 136.568ZM168.811 152H168.235C166.971 152 165.995 151.664 165.307 150.992C164.619 150.32 164.275 149.352 164.275 148.088V143.672C164.275 142.408 164.619 141.44 165.307 140.768C165.995 140.096 166.971 139.76 168.235 139.76H173.779C174.131 139.76 174.307 139.928 174.307 140.264V151.496C174.307 151.832 174.131 152 173.779 152H171.763C171.427 152 171.259 151.832 171.259 151.496V150.704H171.163C170.987 151.136 170.675 151.464 170.227 151.688C169.779 151.896 169.307 152 168.811 152ZM171.259 147.536V142.664C171.259 142.488 171.163 142.4 170.971 142.4H168.715C168.203 142.4 167.843 142.512 167.635 142.736C167.427 142.944 167.323 143.304 167.323 143.816V147.944C167.323 148.456 167.427 148.824 167.635 149.048C167.843 149.256 168.203 149.36 168.715 149.36H169.603C170.707 149.36 171.259 148.752 171.259 147.536ZM179.481 152H177.441C177.105 152 176.937 151.832 176.937 151.496V140.264C176.937 139.928 177.105 139.76 177.441 139.76H179.481C179.817 139.76 179.985 139.928 179.985 140.264V141.056H180.081C180.433 140.192 181.217 139.76 182.433 139.76H183.201C185.713 139.76 186.969 141.064 186.969 143.672V151.496C186.969 151.832 186.793 152 186.441 152H184.425C184.089 152 183.921 151.832 183.921 151.496V143.816C183.921 143.304 183.809 142.944 183.585 142.736C183.377 142.512 183.017 142.4 182.505 142.4H181.641C180.537 142.4 179.985 143.008 179.985 144.224V151.496C179.985 151.832 179.817 152 179.481 152ZM193.916 152H193.124C191.892 152 190.956 151.664 190.316 150.992C189.692 150.32 189.38 149.352 189.38 148.088V140.264C189.38 139.928 189.548 139.76 189.884 139.76H191.924C192.26 139.76 192.428 139.928 192.428 140.264V147.944C192.428 148.456 192.532 148.824 192.74 149.048C192.964 149.256 193.324 149.36 193.82 149.36H194.708C195.812 149.36 196.364 148.752 196.364 147.536V140.264C196.364 139.928 196.532 139.76 196.868 139.76H198.884C199.236 139.76 199.412 139.928 199.412 140.264V151.496C199.412 151.832 199.236 152 198.884 152H196.868C196.532 152 196.364 151.832 196.364 151.496V150.704H196.268C196.092 151.136 195.78 151.464 195.332 151.688C194.884 151.896 194.412 152 193.916 152ZM206.502 139.76H208.422C208.614 139.76 208.742 139.8 208.806 139.88C208.886 139.944 208.926 140.064 208.926 140.24V141.896C208.926 142.232 208.758 142.4 208.422 142.4H206.502C206.326 142.4 206.238 142.488 206.238 142.664V151.496C206.238 151.832 206.062 152 205.71 152H203.694C203.358 152 203.19 151.832 203.19 151.496V142.664C203.19 142.488 203.094 142.4 202.902 142.4H201.798C201.462 142.4 201.294 142.232 201.294 141.896V140.24C201.294 140.048 201.326 139.92 201.39 139.856C201.47 139.792 201.606 139.76 201.798 139.76H202.902C203.094 139.76 203.19 139.672 203.19 139.496V139.04C203.19 137.776 203.518 136.808 204.174 136.136C204.846 135.464 205.814 135.128 207.078 135.128H208.446C208.638 135.128 208.766 135.168 208.83 135.248C208.894 135.312 208.926 135.432 208.926 135.608V137.264C208.926 137.6 208.766 137.768 208.446 137.768H207.558C207.046 137.768 206.694 137.88 206.502 138.104C206.326 138.312 206.238 138.672 206.238 139.184V139.496C206.238 139.672 206.326 139.76 206.502 139.76ZM214.843 152H214.267C213.003 152 212.027 151.664 211.339 150.992C210.651 150.32 210.307 149.352 210.307 148.088V143.672C210.307 142.408 210.651 141.44 211.339 140.768C212.027 140.096 213.003 139.76 214.267 139.76H219.811C220.163 139.76 220.339 139.928 220.339 140.264V151.496C220.339 151.832 220.163 152 219.811 152H217.795C217.459 152 217.291 151.832 217.291 151.496V150.704H217.195C217.019 151.136 216.707 151.464 216.259 151.688C215.811 151.896 215.339 152 214.843 152ZM217.291 147.536V142.664C217.291 142.488 217.195 142.4 217.003 142.4H214.747C214.235 142.4 213.875 142.512 213.667 142.736C213.459 142.944 213.355 143.304 213.355 143.816V147.944C213.355 148.456 213.459 148.824 213.667 149.048C213.875 149.256 214.235 149.36 214.747 149.36H215.635C216.739 149.36 217.291 148.752 217.291 147.536ZM230.768 149.864V151.52C230.768 151.696 230.728 151.824 230.648 151.904C230.584 151.968 230.456 152 230.264 152H226.688C225.424 152 224.448 151.664 223.76 150.992C223.072 150.32 222.728 149.352 222.728 148.088V143.672C222.728 142.408 223.072 141.44 223.76 140.768C224.448 140.096 225.424 139.76 226.688 139.76H230.264C230.6 139.76 230.768 139.928 230.768 140.264V141.92C230.768 142.096 230.728 142.224 230.648 142.304C230.584 142.368 230.456 142.4 230.264 142.4H227.168C226.672 142.4 226.312 142.512 226.088 142.736C225.88 142.944 225.776 143.304 225.776 143.816V147.944C225.776 148.456 225.88 148.824 226.088 149.048C226.312 149.256 226.672 149.36 227.168 149.36H230.264C230.6 149.36 230.768 149.528 230.768 149.864ZM233.1 142.4H232.14C231.948 142.4 231.812 142.368 231.732 142.304C231.668 142.24 231.636 142.112 231.636 141.92V140.264C231.636 139.928 231.804 139.76 232.14 139.76H233.1C233.276 139.76 233.364 139.672 233.364 139.496V137.216C233.364 136.88 233.54 136.712 233.892 136.712H235.908C236.244 136.712 236.412 136.88 236.412 137.216V139.496C236.412 139.672 236.508 139.76 236.7 139.76H238.572C238.908 139.76 239.076 139.928 239.076 140.264V141.92C239.076 142.096 239.036 142.224 238.956 142.304C238.892 142.368 238.764 142.4 238.572 142.4H236.7C236.508 142.4 236.412 142.488 236.412 142.664V147.968C236.412 148.464 236.524 148.824 236.748 149.048C236.972 149.256 237.34 149.36 237.852 149.36H238.812C239.148 149.36 239.316 149.528 239.316 149.864V151.52C239.316 151.696 239.276 151.824 239.196 151.904C239.132 151.968 239.004 152 238.812 152H237.348C236.084 152 235.1 151.664 234.396 150.992C233.708 150.32 233.364 149.36 233.364 148.112V142.664C233.364 142.488 233.276 142.4 233.1 142.4ZM245.713 152H244.921C243.689 152 242.753 151.664 242.113 150.992C241.489 150.32 241.177 149.352 241.177 148.088V140.264C241.177 139.928 241.345 139.76 241.681 139.76H243.721C244.057 139.76 244.225 139.928 244.225 140.264V147.944C244.225 148.456 244.329 148.824 244.537 149.048C244.761 149.256 245.121 149.36 245.617 149.36H246.505C247.609 149.36 248.161 148.752 248.161 147.536V140.264C248.161 139.928 248.329 139.76 248.665 139.76H250.681C251.033 139.76 251.209 139.928 251.209 140.264V151.496C251.209 151.832 251.033 152 250.681 152H248.665C248.329 152 248.161 151.832 248.161 151.496V150.704H248.065C247.889 151.136 247.577 151.464 247.129 151.688C246.681 151.896 246.209 152 245.713 152ZM256.403 152H254.363C254.027 152 253.859 151.832 253.859 151.496V140.264C253.859 139.928 254.027 139.76 254.363 139.76H256.403C256.739 139.76 256.907 139.928 256.907 140.264V141.08H257.003C257.179 140.648 257.491 140.32 257.939 140.096C258.387 139.872 258.859 139.76 259.355 139.76H260.219C260.539 139.76 260.699 139.928 260.699 140.264V141.92C260.699 142.112 260.659 142.248 260.579 142.328C260.515 142.392 260.395 142.416 260.219 142.4H258.563C257.459 142.4 256.907 143.024 256.907 144.272V151.496C256.907 151.832 256.739 152 256.403 152ZM262.346 137.696V135.608C262.346 135.288 262.506 135.128 262.826 135.128H264.914C265.234 135.128 265.394 135.28 265.394 135.584V137.696C265.394 138.016 265.234 138.176 264.914 138.176H262.826C262.506 138.176 262.346 138.016 262.346 137.696ZM262.346 151.496V140.264C262.346 139.928 262.506 139.76 262.826 139.76H264.89C265.226 139.76 265.394 139.928 265.394 140.264V151.496C265.394 151.704 265.354 151.84 265.274 151.904C265.21 151.968 265.09 152 264.914 152H262.85C262.514 152 262.346 151.832 262.346 151.496ZM270.7 152H268.66C268.324 152 268.156 151.832 268.156 151.496V140.264C268.156 139.928 268.324 139.76 268.66 139.76H270.7C271.036 139.76 271.204 139.928 271.204 140.264V141.056H271.3C271.652 140.192 272.436 139.76 273.652 139.76H274.42C276.932 139.76 278.188 141.064 278.188 143.672V151.496C278.188 151.832 278.012 152 277.66 152H275.644C275.308 152 275.14 151.832 275.14 151.496V143.816C275.14 143.304 275.028 142.944 274.804 142.736C274.596 142.512 274.236 142.4 273.724 142.4H272.86C271.756 142.4 271.204 143.008 271.204 144.224V151.496C271.204 151.832 271.036 152 270.7 152ZM285.038 151.448H284.246C283.014 151.448 282.078 151.112 281.438 150.44C280.814 149.768 280.502 148.8 280.502 147.536V143.672C280.502 142.408 280.846 141.44 281.534 140.768C282.222 140.096 283.198 139.76 284.462 139.76H290.006C290.358 139.76 290.534 139.928 290.534 140.264V152.096C290.534 153.344 290.182 154.304 289.478 154.976C288.79 155.648 287.822 155.984 286.574 155.984H281.966C281.774 155.984 281.638 155.944 281.558 155.864C281.494 155.8 281.462 155.68 281.462 155.504V153.848C281.462 153.512 281.63 153.344 281.966 153.344H286.07C286.582 153.344 286.942 153.232 287.15 153.008C287.374 152.8 287.486 152.448 287.486 151.952V150.128H287.39C287.214 150.56 286.902 150.888 286.454 151.112C286.006 151.336 285.534 151.448 285.038 151.448ZM287.486 146.984V142.664C287.486 142.488 287.39 142.4 287.198 142.4H284.942C284.43 142.4 284.07 142.512 283.862 142.736C283.654 142.944 283.55 143.304 283.55 143.816V147.392C283.55 147.904 283.654 148.264 283.862 148.472C284.07 148.68 284.43 148.784 284.942 148.784H285.83C286.934 148.784 287.486 148.184 287.486 146.984ZM308.925 136.568H312.477C312.813 136.568 312.981 136.736 312.981 137.072V151.496C312.981 151.832 312.813 152 312.477 152H310.509C310.173 152 310.005 151.832 310.005 151.496V140.12H309.909L307.461 148.16C307.365 148.48 307.165 148.64 306.861 148.64H304.845C304.541 148.64 304.341 148.48 304.245 148.16L301.749 140.096H301.653V151.496C301.653 151.688 301.621 151.824 301.557 151.904C301.493 151.968 301.357 152 301.149 152H299.181C298.845 152 298.677 151.832 298.677 151.496V137.072C298.677 136.736 298.845 136.568 299.181 136.568H302.757C302.981 136.568 303.133 136.68 303.213 136.904L305.757 145.376H305.901L308.469 136.904C308.517 136.68 308.669 136.568 308.925 136.568ZM320.147 152H319.571C318.307 152 317.331 151.664 316.643 150.992C315.955 150.32 315.611 149.352 315.611 148.088V143.672C315.611 142.408 315.955 141.44 316.643 140.768C317.331 140.096 318.307 139.76 319.571 139.76H325.115C325.467 139.76 325.643 139.928 325.643 140.264V151.496C325.643 151.832 325.467 152 325.115 152H323.099C322.763 152 322.595 151.832 322.595 151.496V150.704H322.499C322.323 151.136 322.011 151.464 321.563 151.688C321.115 151.896 320.643 152 320.147 152ZM322.595 147.536V142.664C322.595 142.488 322.499 142.4 322.307 142.4H320.051C319.539 142.4 319.179 142.512 318.971 142.736C318.763 142.944 318.659 143.304 318.659 143.816V147.944C318.659 148.456 318.763 148.824 318.971 149.048C319.179 149.256 319.539 149.36 320.051 149.36H320.939C322.043 149.36 322.595 148.752 322.595 147.536ZM328.537 142.4H327.577C327.385 142.4 327.249 142.368 327.169 142.304C327.105 142.24 327.073 142.112 327.073 141.92V140.264C327.073 139.928 327.241 139.76 327.577 139.76H328.537C328.713 139.76 328.801 139.672 328.801 139.496V137.216C328.801 136.88 328.977 136.712 329.329 136.712H331.345C331.681 136.712 331.849 136.88 331.849 137.216V139.496C331.849 139.672 331.945 139.76 332.137 139.76H334.009C334.345 139.76 334.513 139.928 334.513 140.264V141.92C334.513 142.096 334.473 142.224 334.393 142.304C334.329 142.368 334.201 142.4 334.009 142.4H332.137C331.945 142.4 331.849 142.488 331.849 142.664V147.968C331.849 148.464 331.961 148.824 332.185 149.048C332.409 149.256 332.777 149.36 333.289 149.36H334.249C334.585 149.36 334.753 149.528 334.753 149.864V151.52C334.753 151.696 334.713 151.824 334.633 151.904C334.569 151.968 334.441 152 334.249 152H332.785C331.521 152 330.537 151.664 329.833 150.992C329.145 150.32 328.801 149.36 328.801 148.112V142.664C328.801 142.488 328.713 142.4 328.537 142.4ZM344.534 149.864V151.52C344.534 151.696 344.494 151.824 344.414 151.904C344.35 151.968 344.222 152 344.03 152H340.454C339.19 152 338.214 151.664 337.526 150.992C336.838 150.32 336.494 149.352 336.494 148.088V143.672C336.494 142.408 336.838 141.44 337.526 140.768C338.214 140.096 339.19 139.76 340.454 139.76H344.03C344.366 139.76 344.534 139.928 344.534 140.264V141.92C344.534 142.096 344.494 142.224 344.414 142.304C344.35 142.368 344.222 142.4 344.03 142.4H340.934C340.438 142.4 340.078 142.512 339.854 142.736C339.646 142.944 339.542 143.304 339.542 143.816V147.944C339.542 148.456 339.646 148.824 339.854 149.048C340.078 149.256 340.438 149.36 340.934 149.36H344.03C344.366 149.36 344.534 149.528 344.534 149.864ZM349.145 152H347.105C346.769 152 346.601 151.832 346.601 151.496V135.632C346.601 135.296 346.769 135.128 347.105 135.128H349.145C349.481 135.128 349.649 135.296 349.649 135.632V141.056H349.745C350.097 140.192 350.881 139.76 352.097 139.76H352.865C355.377 139.76 356.633 141.064 356.633 143.672V151.496C356.633 151.832 356.457 152 356.105 152H354.089C353.753 152 353.585 151.832 353.585 151.496V143.816C353.585 143.304 353.473 142.944 353.249 142.736C353.041 142.512 352.681 142.4 352.169 142.4H351.305C350.201 142.4 349.649 143.008 349.649 144.224V151.496C349.649 151.832 349.481 152 349.145 152ZM372.573 136.568H374.589C374.941 136.568 375.117 136.728 375.117 137.048V148.088C375.117 149.336 374.765 150.304 374.061 150.992C373.373 151.664 372.405 152 371.157 152H368.517C367.253 152 366.277 151.664 365.589 150.992C364.901 150.32 364.557 149.352 364.557 148.088V137.072C364.557 136.736 364.725 136.568 365.061 136.568H367.101C367.437 136.568 367.605 136.736 367.605 137.072V147.944C367.605 148.456 367.709 148.824 367.917 149.048C368.141 149.256 368.501 149.36 368.997 149.36H370.653C371.165 149.36 371.525 149.256 371.733 149.048C371.957 148.824 372.069 148.456 372.069 147.944V137.072C372.069 136.736 372.237 136.568 372.573 136.568ZM380.411 155.264H378.371C378.035 155.264 377.867 155.104 377.867 154.784V140.264C377.867 139.928 378.035 139.76 378.371 139.76H380.411C380.747 139.76 380.915 139.928 380.915 140.264V141.056H381.011C381.187 140.624 381.499 140.304 381.947 140.096C382.395 139.872 382.867 139.76 383.363 139.76H384.347C385.579 139.76 386.507 140.096 387.131 140.768C387.771 141.44 388.091 142.408 388.091 143.672V148.088C388.091 149.352 387.771 150.32 387.131 150.992C386.507 151.664 385.579 152 384.347 152H383.363C382.867 152 382.395 151.896 381.947 151.688C381.499 151.464 381.187 151.136 381.011 150.704H380.915V154.784C380.915 155.104 380.747 155.264 380.411 155.264ZM382.571 149.36H383.627C384.139 149.36 384.499 149.256 384.707 149.048C384.931 148.824 385.043 148.456 385.043 147.944V143.816C385.043 143.304 384.931 142.944 384.707 142.736C384.499 142.512 384.139 142.4 383.627 142.4H382.571C381.467 142.4 380.915 143.008 380.915 144.224V147.536C380.915 148.752 381.467 149.36 382.571 149.36ZM395.132 152H390.572C390.252 152 390.092 151.832 390.092 151.496V149.96C390.092 149.784 390.124 149.664 390.188 149.6C390.252 149.52 390.38 149.48 390.572 149.48H394.58C395.364 149.48 395.756 149.24 395.756 148.76V148.64C395.756 148.256 395.428 147.888 394.772 147.536L392.396 146.216C391.58 145.8 390.98 145.352 390.596 144.872C390.212 144.392 390.02 143.776 390.02 143.024C390.02 141.904 390.316 141.08 390.908 140.552C391.5 140.024 392.428 139.76 393.692 139.76H397.7C398.02 139.76 398.18 139.928 398.18 140.264V141.824C398.18 142 398.148 142.128 398.084 142.208C398.02 142.272 397.892 142.304 397.7 142.304H394.364C393.58 142.304 393.188 142.504 393.188 142.904V143.024C393.188 143.376 393.532 143.736 394.22 144.104L396.644 145.544C397.476 145.992 398.06 146.456 398.396 146.936C398.732 147.4 398.9 148.016 398.9 148.784C398.9 150.928 397.644 152 395.132 152Z" fill="#5A5A5A"/>
<path d="M67.824 212H65.28C64.016 212 63.04 211.664 62.352 210.992C61.664 210.32 61.32 209.352 61.32 208.088V200.48C61.32 199.216 61.664 198.248 62.352 197.576C63.04 196.904 64.016 196.568 65.28 196.568H67.824C69.072 196.568 70.04 196.912 70.728 197.6C71.416 198.272 71.76 199.232 71.76 200.48V201.2C71.76 201.552 71.592 201.728 71.256 201.728H69.216C68.88 201.728 68.712 201.552 68.712 201.2V200.624C68.712 200.112 68.608 199.752 68.4 199.544C68.192 199.32 67.832 199.208 67.32 199.208H65.76C65.264 199.208 64.904 199.32 64.68 199.544C64.472 199.752 64.368 200.112 64.368 200.624V207.944C64.368 208.456 64.472 208.824 64.68 209.048C64.904 209.256 65.264 209.36 65.76 209.36H67.32C67.832 209.36 68.192 209.256 68.4 209.048C68.608 208.824 68.712 208.456 68.712 207.944V206.432C68.712 206.256 68.624 206.168 68.448 206.168H67.008C66.672 206.168 66.504 206 66.504 205.664V204.032C66.504 203.696 66.672 203.528 67.008 203.528H71.208C71.576 203.528 71.76 203.712 71.76 204.08V208.088C71.76 209.336 71.416 210.304 70.728 210.992C70.04 211.664 69.072 212 67.824 212ZM83.4221 212H78.1181C76.8541 212 75.8781 211.664 75.1901 210.992C74.5021 210.32 74.1581 209.352 74.1581 208.088V203.672C74.1581 202.408 74.5021 201.44 75.1901 200.768C75.8781 200.096 76.8541 199.76 78.1181 199.76H80.0141C81.2781 199.76 82.2541 200.096 82.9421 200.768C83.6301 201.44 83.9741 202.408 83.9741 203.672V206.72C83.9741 207.056 83.8061 207.224 83.4701 207.224H77.4461C77.2541 207.224 77.1581 207.312 77.1581 207.488V208.016C77.1581 208.512 77.2621 208.872 77.4701 209.096C77.6941 209.304 78.0621 209.408 78.5741 209.408H83.4221C83.7581 209.408 83.9261 209.584 83.9261 209.936V211.52C83.9261 211.696 83.8861 211.824 83.8061 211.904C83.7421 211.968 83.6141 212 83.4221 212ZM77.4461 205.184H80.7101C80.8861 205.184 80.9741 205.096 80.9741 204.92V203.768C80.9741 203.256 80.8701 202.896 80.6621 202.688C80.4541 202.48 80.0941 202.376 79.5821 202.376H78.5741C78.0621 202.376 77.7021 202.48 77.4941 202.688C77.2861 202.896 77.1821 203.256 77.1821 203.768V204.92C77.1821 205.096 77.2701 205.184 77.4461 205.184ZM86.5215 202.4H85.5615C85.3695 202.4 85.2335 202.368 85.1535 202.304C85.0895 202.24 85.0575 202.112 85.0575 201.92V200.264C85.0575 199.928 85.2255 199.76 85.5615 199.76H86.5215C86.6975 199.76 86.7855 199.672 86.7855 199.496V197.216C86.7855 196.88 86.9615 196.712 87.3135 196.712H89.3295C89.6655 196.712 89.8335 196.88 89.8335 197.216V199.496C89.8335 199.672 89.9295 199.76 90.1215 199.76H91.9935C92.3295 199.76 92.4975 199.928 92.4975 200.264V201.92C92.4975 202.096 92.4575 202.224 92.3775 202.304C92.3135 202.368 92.1855 202.4 91.9935 202.4H90.1215C89.9295 202.4 89.8335 202.488 89.8335 202.664V207.968C89.8335 208.464 89.9455 208.824 90.1695 209.048C90.3935 209.256 90.7615 209.36 91.2735 209.36H92.2335C92.5695 209.36 92.7375 209.528 92.7375 209.864V211.52C92.7375 211.696 92.6975 211.824 92.6175 211.904C92.5535 211.968 92.4255 212 92.2335 212H90.7695C89.5055 212 88.5215 211.664 87.8175 210.992C87.1295 210.32 86.7855 209.36 86.7855 208.112V202.664C86.7855 202.488 86.6975 202.4 86.5215 202.4ZM102.776 212H100.736C100.4 212 100.232 211.832 100.232 211.496V197.072C100.232 196.736 100.4 196.568 100.736 196.568H106.448C107.696 196.568 108.672 196.912 109.376 197.6C110.08 198.288 110.432 199.256 110.432 200.504V202.376C110.432 204.184 109.72 205.384 108.296 205.976V206.072L110.864 211.424C111.008 211.808 110.872 212 110.456 212H108.512C108.224 212 108.016 211.968 107.888 211.904C107.76 211.84 107.656 211.704 107.576 211.496L105.176 206.312H103.568C103.376 206.312 103.28 206.4 103.28 206.576V211.496C103.28 211.832 103.112 212 102.776 212ZM103.544 203.864H105.896C106.408 203.864 106.784 203.76 107.024 203.552C107.264 203.328 107.384 202.976 107.384 202.496V200.624C107.384 200.128 107.264 199.768 107.024 199.544C106.784 199.32 106.408 199.208 105.896 199.208H103.544C103.368 199.208 103.28 199.296 103.28 199.472V203.6C103.28 203.776 103.368 203.864 103.544 203.864ZM122.141 212H116.837C115.573 212 114.597 211.664 113.909 210.992C113.221 210.32 112.877 209.352 112.877 208.088V203.672C112.877 202.408 113.221 201.44 113.909 200.768C114.597 200.096 115.573 199.76 116.837 199.76H118.733C119.997 199.76 120.973 200.096 121.661 200.768C122.349 201.44 122.693 202.408 122.693 203.672V206.72C122.693 207.056 122.525 207.224 122.189 207.224H116.165C115.973 207.224 115.877 207.312 115.877 207.488V208.016C115.877 208.512 115.981 208.872 116.189 209.096C116.413 209.304 116.781 209.408 117.293 209.408H122.141C122.477 209.408 122.645 209.584 122.645 209.936V211.52C122.645 211.696 122.605 211.824 122.525 211.904C122.461 211.968 122.333 212 122.141 212ZM116.165 205.184H119.429C119.605 205.184 119.693 205.096 119.693 204.92V203.768C119.693 203.256 119.589 202.896 119.381 202.688C119.173 202.48 118.813 202.376 118.301 202.376H117.293C116.781 202.376 116.421 202.48 116.213 202.688C116.005 202.896 115.901 203.256 115.901 203.768V204.92C115.901 205.096 115.989 205.184 116.165 205.184ZM129.272 212H128.696C127.432 212 126.456 211.664 125.768 210.992C125.08 210.32 124.736 209.352 124.736 208.088V203.672C124.736 202.408 125.08 201.44 125.768 200.768C126.456 200.096 127.432 199.76 128.696 199.76H134.24C134.592 199.76 134.768 199.928 134.768 200.264V211.496C134.768 211.832 134.592 212 134.24 212H132.224C131.888 212 131.72 211.832 131.72 211.496V210.704H131.624C131.448 211.136 131.136 211.464 130.688 211.688C130.24 211.896 129.768 212 129.272 212ZM131.72 207.536V202.664C131.72 202.488 131.624 202.4 131.432 202.4H129.176C128.664 202.4 128.304 202.512 128.096 202.736C127.888 202.944 127.784 203.304 127.784 203.816V207.944C127.784 208.456 127.888 208.824 128.096 209.048C128.304 209.256 128.664 209.36 129.176 209.36H130.064C131.168 209.36 131.72 208.752 131.72 207.536ZM141.886 212H140.902C139.67 212 138.734 211.664 138.094 210.992C137.47 210.32 137.158 209.352 137.158 208.088V203.672C137.158 202.408 137.47 201.44 138.094 200.768C138.734 200.096 139.67 199.76 140.902 199.76H141.886C142.382 199.76 142.854 199.872 143.302 200.096C143.75 200.304 144.062 200.624 144.238 201.056H144.334V195.632C144.334 195.296 144.502 195.128 144.838 195.128H146.878C147.214 195.128 147.382 195.296 147.382 195.632V211.496C147.382 211.832 147.214 212 146.878 212H144.838C144.502 212 144.334 211.832 144.334 211.496V210.704H144.238C144.062 211.136 143.75 211.464 143.302 211.688C142.854 211.896 142.382 212 141.886 212ZM144.334 207.536V204.224C144.334 203.008 143.782 202.4 142.678 202.4H141.598C141.086 202.4 140.726 202.512 140.518 202.736C140.31 202.944 140.206 203.304 140.206 203.816V207.944C140.206 208.456 140.31 208.824 140.518 209.048C140.726 209.256 141.086 209.36 141.598 209.36H142.678C143.782 209.36 144.334 208.752 144.334 207.536ZM152.023 216.056H150.487C150.167 216.056 150.007 215.88 150.007 215.528V213.92C150.007 213.568 150.167 213.392 150.487 213.392H150.991C151.999 213.392 152.679 213.248 153.031 212.96C153.399 212.688 153.679 212.152 153.871 211.352H152.599C152.295 211.352 152.095 211.184 151.999 210.848L149.191 200.264C149.095 199.928 149.215 199.76 149.551 199.76H151.687C152.007 199.76 152.207 199.928 152.287 200.264L154.351 209.12H154.447L156.487 200.264C156.551 199.928 156.751 199.76 157.087 199.76H159.103C159.503 199.76 159.663 199.936 159.583 200.288L156.655 212C156.303 213.328 155.759 214.336 155.023 215.024C154.287 215.712 153.287 216.056 152.023 216.056ZM166.865 202.4H165.905C165.713 202.4 165.577 202.368 165.497 202.304C165.433 202.24 165.401 202.112 165.401 201.92V200.264C165.401 199.928 165.569 199.76 165.905 199.76H166.865C167.041 199.76 167.129 199.672 167.129 199.496V197.216C167.129 196.88 167.305 196.712 167.657 196.712H169.673C170.009 196.712 170.177 196.88 170.177 197.216V199.496C170.177 199.672 170.273 199.76 170.465 199.76H172.337C172.673 199.76 172.841 199.928 172.841 200.264V201.92C172.841 202.096 172.801 202.224 172.721 202.304C172.657 202.368 172.529 202.4 172.337 202.4H170.465C170.273 202.4 170.177 202.488 170.177 202.664V207.968C170.177 208.464 170.289 208.824 170.513 209.048C170.737 209.256 171.105 209.36 171.617 209.36H172.577C172.913 209.36 173.081 209.528 173.081 209.864V211.52C173.081 211.696 173.041 211.824 172.961 211.904C172.897 211.968 172.769 212 172.577 212H171.113C169.849 212 168.865 211.664 168.161 210.992C167.473 210.32 167.129 209.36 167.129 208.112V202.664C167.129 202.488 167.041 202.4 166.865 202.4ZM180.918 212H178.782C177.518 212 176.542 211.664 175.854 210.992C175.166 210.32 174.822 209.352 174.822 208.088V203.672C174.822 202.408 175.166 201.44 175.854 200.768C176.542 200.096 177.518 199.76 178.782 199.76H180.918C182.166 199.76 183.134 200.104 183.822 200.792C184.526 201.464 184.878 202.424 184.878 203.672V208.088C184.878 209.336 184.526 210.304 183.822 210.992C183.134 211.664 182.166 212 180.918 212ZM179.238 209.384H180.462C180.974 209.384 181.334 209.28 181.542 209.072C181.766 208.864 181.878 208.504 181.878 207.992V203.768C181.878 203.256 181.766 202.896 181.542 202.688C181.334 202.48 180.974 202.376 180.462 202.376H179.238C178.726 202.376 178.366 202.48 178.158 202.688C177.95 202.896 177.846 203.256 177.846 203.768V207.992C177.846 208.504 177.95 208.864 178.158 209.072C178.366 209.28 178.726 209.384 179.238 209.384ZM192.403 208.064V207.584C192.403 207.248 192.571 207.08 192.907 207.08H194.947C195.283 207.08 195.451 207.248 195.451 207.584V207.776C195.451 208.384 195.571 208.8 195.811 209.024C196.051 209.248 196.491 209.36 197.131 209.36H198.259C198.883 209.36 199.315 209.24 199.555 209C199.811 208.76 199.939 208.312 199.939 207.656V207.368C199.939 206.904 199.747 206.552 199.363 206.312C198.995 206.056 198.531 205.904 197.971 205.856C197.411 205.808 196.803 205.72 196.147 205.592C195.507 205.448 194.907 205.272 194.347 205.064C193.787 204.84 193.315 204.416 192.931 203.792C192.563 203.152 192.379 202.336 192.379 201.344V200.504C192.379 199.256 192.731 198.288 193.435 197.6C194.139 196.912 195.115 196.568 196.363 196.568H198.763C200.027 196.568 201.011 196.912 201.715 197.6C202.419 198.288 202.771 199.256 202.771 200.504V200.96C202.771 201.296 202.603 201.464 202.267 201.464H200.227C199.891 201.464 199.723 201.296 199.723 200.96V200.816C199.723 200.192 199.603 199.768 199.363 199.544C199.123 199.32 198.683 199.208 198.043 199.208H197.107C196.451 199.208 196.003 199.336 195.763 199.592C195.539 199.832 195.427 200.312 195.427 201.032V201.488C195.427 202.24 196.083 202.672 197.395 202.784C198.755 202.896 199.963 203.168 201.019 203.6C201.579 203.84 202.043 204.272 202.411 204.896C202.795 205.504 202.987 206.288 202.987 207.248V208.064C202.987 209.312 202.635 210.28 201.931 210.968C201.227 211.656 200.251 212 199.003 212H196.387C195.139 212 194.163 211.656 193.459 210.968C192.755 210.28 192.403 209.312 192.403 208.064ZM214.508 212H209.204C207.94 212 206.964 211.664 206.276 210.992C205.588 210.32 205.244 209.352 205.244 208.088V203.672C205.244 202.408 205.588 201.44 206.276 200.768C206.964 200.096 207.94 199.76 209.204 199.76H211.1C212.364 199.76 213.34 200.096 214.028 200.768C214.716 201.44 215.06 202.408 215.06 203.672V206.72C215.06 207.056 214.892 207.224 214.556 207.224H208.532C208.34 207.224 208.244 207.312 208.244 207.488V208.016C208.244 208.512 208.348 208.872 208.556 209.096C208.78 209.304 209.148 209.408 209.66 209.408H214.508C214.844 209.408 215.012 209.584 215.012 209.936V211.52C215.012 211.696 214.972 211.824 214.892 211.904C214.828 211.968 214.7 212 214.508 212ZM208.532 205.184H211.796C211.972 205.184 212.06 205.096 212.06 204.92V203.768C212.06 203.256 211.956 202.896 211.748 202.688C211.54 202.48 211.18 202.376 210.668 202.376H209.66C209.148 202.376 208.788 202.48 208.58 202.688C208.372 202.896 208.268 203.256 208.268 203.768V204.92C208.268 205.096 208.356 205.184 208.532 205.184ZM220.007 212H217.967C217.631 212 217.463 211.832 217.463 211.496V195.632C217.463 195.296 217.631 195.128 217.967 195.128H220.007C220.343 195.128 220.511 195.296 220.511 195.632V211.496C220.511 211.832 220.343 212 220.007 212ZM225.937 212H223.897C223.561 212 223.393 211.832 223.393 211.496V195.632C223.393 195.296 223.561 195.128 223.897 195.128H225.937C226.273 195.128 226.441 195.296 226.441 195.632V211.496C226.441 211.832 226.273 212 225.937 212ZM238.916 199.76H240.836C241.028 199.76 241.156 199.8 241.22 199.88C241.3 199.944 241.34 200.064 241.34 200.24V201.896C241.34 202.232 241.172 202.4 240.836 202.4H238.916C238.74 202.4 238.652 202.488 238.652 202.664V211.496C238.652 211.832 238.476 212 238.124 212H236.108C235.772 212 235.604 211.832 235.604 211.496V202.664C235.604 202.488 235.508 202.4 235.316 202.4H234.212C233.876 202.4 233.708 202.232 233.708 201.896V200.24C233.708 200.048 233.74 199.92 233.804 199.856C233.884 199.792 234.02 199.76 234.212 199.76H235.316C235.508 199.76 235.604 199.672 235.604 199.496V199.04C235.604 197.776 235.932 196.808 236.588 196.136C237.26 195.464 238.228 195.128 239.492 195.128H240.86C241.052 195.128 241.18 195.168 241.244 195.248C241.308 195.312 241.34 195.432 241.34 195.608V197.264C241.34 197.6 241.18 197.768 240.86 197.768H239.972C239.46 197.768 239.108 197.88 238.916 198.104C238.74 198.312 238.652 198.672 238.652 199.184V199.496C238.652 199.672 238.74 199.76 238.916 199.76ZM245.505 212H243.465C243.129 212 242.961 211.832 242.961 211.496V200.264C242.961 199.928 243.129 199.76 243.465 199.76H245.505C245.841 199.76 246.009 199.928 246.009 200.264V201.08H246.105C246.281 200.648 246.593 200.32 247.041 200.096C247.489 199.872 247.961 199.76 248.457 199.76H249.321C249.641 199.76 249.801 199.928 249.801 200.264V201.92C249.801 202.112 249.761 202.248 249.681 202.328C249.617 202.392 249.497 202.416 249.321 202.4H247.665C246.561 202.4 246.009 203.024 246.009 204.272V211.496C246.009 211.832 245.841 212 245.505 212ZM257.184 212H255.048C253.784 212 252.808 211.664 252.12 210.992C251.432 210.32 251.088 209.352 251.088 208.088V203.672C251.088 202.408 251.432 201.44 252.12 200.768C252.808 200.096 253.784 199.76 255.048 199.76H257.184C258.432 199.76 259.4 200.104 260.088 200.792C260.792 201.464 261.144 202.424 261.144 203.672V208.088C261.144 209.336 260.792 210.304 260.088 210.992C259.4 211.664 258.432 212 257.184 212ZM255.504 209.384H256.728C257.24 209.384 257.6 209.28 257.808 209.072C258.032 208.864 258.144 208.504 258.144 207.992V203.768C258.144 203.256 258.032 202.896 257.808 202.688C257.6 202.48 257.24 202.376 256.728 202.376H255.504C254.992 202.376 254.632 202.48 254.424 202.688C254.216 202.896 254.112 203.256 254.112 203.768V207.992C254.112 208.504 254.216 208.864 254.424 209.072C254.632 209.28 254.992 209.384 255.504 209.384ZM266.083 212H264.043C263.707 212 263.539 211.832 263.539 211.496V200.264C263.539 199.928 263.707 199.76 264.043 199.76H266.083C266.419 199.76 266.587 199.928 266.587 200.264V201.056H266.683C266.875 200.672 267.195 200.36 267.643 200.12C268.107 199.88 268.635 199.76 269.227 199.76H269.899C271.291 199.76 272.291 200.272 272.899 201.296C273.443 200.272 274.379 199.76 275.707 199.76H276.403C277.635 199.76 278.563 200.096 279.187 200.768C279.827 201.44 280.147 202.408 280.147 203.672V211.496C280.147 211.832 279.979 212 279.643 212H277.603C277.267 212 277.099 211.832 277.099 211.496V203.816C277.099 203.304 276.995 202.944 276.787 202.736C276.579 202.512 276.219 202.4 275.707 202.4H275.107C274.003 202.4 273.451 203.016 273.451 204.248V211.496C273.451 211.832 273.275 212 272.923 212H270.907C270.571 212 270.403 211.832 270.403 211.496V203.816C270.403 203.304 270.291 202.944 270.067 202.736C269.859 202.512 269.499 202.4 268.987 202.4H268.243C267.139 202.4 266.587 203.008 266.587 204.224V211.496C266.587 211.832 266.419 212 266.083 212ZM289.953 216.056H288.417C288.097 216.056 287.937 215.88 287.937 215.528V213.92C287.937 213.568 288.097 213.392 288.417 213.392H288.921C289.929 213.392 290.609 213.248 290.961 212.96C291.329 212.688 291.609 212.152 291.801 211.352H290.529C290.225 211.352 290.025 211.184 289.929 210.848L287.121 200.264C287.025 199.928 287.145 199.76 287.481 199.76H289.617C289.937 199.76 290.137 199.928 290.217 200.264L292.281 209.12H292.377L294.417 200.264C294.481 199.928 294.681 199.76 295.017 199.76H297.033C297.433 199.76 297.593 199.936 297.513 200.288L294.585 212C294.233 213.328 293.689 214.336 292.953 215.024C292.217 215.712 291.217 216.056 289.953 216.056ZM305.114 212H302.978C301.714 212 300.738 211.664 300.05 210.992C299.362 210.32 299.018 209.352 299.018 208.088V203.672C299.018 202.408 299.362 201.44 300.05 200.768C300.738 200.096 301.714 199.76 302.978 199.76H305.114C306.362 199.76 307.33 200.104 308.018 200.792C308.722 201.464 309.074 202.424 309.074 203.672V208.088C309.074 209.336 308.722 210.304 308.018 210.992C307.33 211.664 306.362 212 305.114 212ZM303.434 209.384H304.658C305.17 209.384 305.53 209.28 305.738 209.072C305.962 208.864 306.074 208.504 306.074 207.992V203.768C306.074 203.256 305.962 202.896 305.738 202.688C305.53 202.48 305.17 202.376 304.658 202.376H303.434C302.922 202.376 302.562 202.48 302.354 202.688C302.146 202.896 302.042 203.256 302.042 203.768V207.992C302.042 208.504 302.146 208.864 302.354 209.072C302.562 209.28 302.922 209.384 303.434 209.384ZM315.884 212H315.092C313.86 212 312.924 211.664 312.284 210.992C311.66 210.32 311.348 209.352 311.348 208.088V200.264C311.348 199.928 311.516 199.76 311.852 199.76H313.892C314.228 199.76 314.396 199.928 314.396 200.264V207.944C314.396 208.456 314.5 208.824 314.708 209.048C314.932 209.256 315.292 209.36 315.788 209.36H316.676C317.78 209.36 318.332 208.752 318.332 207.536V200.264C318.332 199.928 318.5 199.76 318.836 199.76H320.852C321.204 199.76 321.38 199.928 321.38 200.264V211.496C321.38 211.832 321.204 212 320.852 212H318.836C318.5 212 318.332 211.832 318.332 211.496V210.704H318.236C318.06 211.136 317.748 211.464 317.3 211.688C316.852 211.896 316.38 212 315.884 212ZM326.575 212H324.535C324.199 212 324.031 211.832 324.031 211.496V200.264C324.031 199.928 324.199 199.76 324.535 199.76H326.575C326.911 199.76 327.079 199.928 327.079 200.264V201.08H327.175C327.351 200.648 327.663 200.32 328.111 200.096C328.559 199.872 329.031 199.76 329.527 199.76H330.391C330.711 199.76 330.871 199.928 330.871 200.264V201.92C330.871 202.112 330.831 202.248 330.751 202.328C330.687 202.392 330.567 202.416 330.391 202.4H328.735C327.631 202.4 327.079 203.024 327.079 204.272V211.496C327.079 211.832 326.911 212 326.575 212ZM346.264 212H338.416C338.08 212 337.912 211.832 337.912 211.496V197.072C337.912 196.736 338.08 196.568 338.416 196.568H346.264C346.584 196.568 346.744 196.736 346.744 197.072V198.704C346.744 199.04 346.584 199.208 346.264 199.208H341.248C341.056 199.208 340.96 199.296 340.96 199.472V202.592C340.96 202.768 341.056 202.856 341.248 202.856H345.352C345.688 202.856 345.856 203.024 345.856 203.36V204.992C345.856 205.328 345.688 205.496 345.352 205.496H341.248C341.056 205.496 340.96 205.584 340.96 205.76V209.096C340.96 209.272 341.056 209.36 341.248 209.36H346.264C346.584 209.36 346.744 209.528 346.744 209.864V211.496C346.744 211.832 346.584 212 346.264 212ZM353.86 205.568H349.3C348.964 205.568 348.796 205.4 348.796 205.064V203.648C348.796 203.296 348.964 203.12 349.3 203.12H353.86C354.196 203.12 354.364 203.296 354.364 203.648V205.064C354.364 205.4 354.196 205.568 353.86 205.568ZM356.489 208.064V207.584C356.489 207.248 356.657 207.08 356.993 207.08H359.033C359.369 207.08 359.537 207.248 359.537 207.584V207.776C359.537 208.384 359.657 208.8 359.897 209.024C360.137 209.248 360.577 209.36 361.217 209.36H362.345C362.969 209.36 363.401 209.24 363.641 209C363.897 208.76 364.025 208.312 364.025 207.656V207.368C364.025 206.904 363.833 206.552 363.449 206.312C363.081 206.056 362.617 205.904 362.057 205.856C361.497 205.808 360.889 205.72 360.233 205.592C359.593 205.448 358.993 205.272 358.433 205.064C357.873 204.84 357.401 204.416 357.017 203.792C356.649 203.152 356.465 202.336 356.465 201.344V200.504C356.465 199.256 356.817 198.288 357.521 197.6C358.225 196.912 359.201 196.568 360.449 196.568H362.849C364.113 196.568 365.097 196.912 365.801 197.6C366.505 198.288 366.857 199.256 366.857 200.504V200.96C366.857 201.296 366.689 201.464 366.353 201.464H364.313C363.977 201.464 363.809 201.296 363.809 200.96V200.816C363.809 200.192 363.689 199.768 363.449 199.544C363.209 199.32 362.769 199.208 362.129 199.208H361.193C360.537 199.208 360.089 199.336 359.849 199.592C359.625 199.832 359.513 200.312 359.513 201.032V201.488C359.513 202.24 360.169 202.672 361.48 202.784C362.841 202.896 364.049 203.168 365.105 203.6C365.665 203.84 366.129 204.272 366.497 204.896C366.881 205.504 367.073 206.288 367.073 207.248V208.064C367.073 209.312 366.721 210.28 366.017 210.968C365.313 211.656 364.337 212 363.089 212H360.473C359.225 212 358.249 211.656 357.545 210.968C356.841 210.28 356.489 209.312 356.489 208.064ZM372.114 212H370.074C369.738 212 369.57 211.832 369.57 211.496V195.632C369.57 195.296 369.738 195.128 370.074 195.128H372.114C372.45 195.128 372.618 195.296 372.618 195.632V201.056H372.714C373.066 200.192 373.85 199.76 375.066 199.76H375.834C378.346 199.76 379.602 201.064 379.602 203.672V211.496C379.602 211.832 379.426 212 379.074 212H377.058C376.722 212 376.554 211.832 376.554 211.496V203.816C376.554 203.304 376.442 202.944 376.218 202.736C376.01 202.512 375.65 202.4 375.138 202.4H374.274C373.17 202.4 372.618 203.008 372.618 204.224V211.496C372.618 211.832 372.45 212 372.114 212ZM387.989 212H385.853C384.589 212 383.613 211.664 382.925 210.992C382.237 210.32 381.893 209.352 381.893 208.088V203.672C381.893 202.408 382.237 201.44 382.925 200.768C383.613 200.096 384.589 199.76 385.853 199.76H387.989C389.237 199.76 390.205 200.104 390.893 200.792C391.597 201.464 391.949 202.424 391.949 203.672V208.088C391.949 209.336 391.597 210.304 390.893 210.992C390.205 211.664 389.237 212 387.989 212ZM386.309 209.384H387.533C388.045 209.384 388.405 209.28 388.613 209.072C388.837 208.864 388.949 208.504 388.949 207.992V203.768C388.949 203.256 388.837 202.896 388.613 202.688C388.405 202.48 388.045 202.376 387.533 202.376H386.309C385.797 202.376 385.437 202.48 385.229 202.688C385.021 202.896 384.917 203.256 384.917 203.768V207.992C384.917 208.504 385.021 208.864 385.229 209.072C385.437 209.28 385.797 209.384 386.309 209.384ZM396.887 215.264H394.847C394.511 215.264 394.343 215.104 394.343 214.784V200.264C394.343 199.928 394.511 199.76 394.847 199.76H396.887C397.223 199.76 397.391 199.928 397.391 200.264V201.056H397.487C397.663 200.624 397.975 200.304 398.423 200.096C398.871 199.872 399.343 199.76 399.839 199.76H400.823C402.055 199.76 402.983 200.096 403.607 200.768C404.247 201.44 404.567 202.408 404.567 203.672V208.088C404.567 209.352 404.247 210.32 403.607 210.992C402.983 211.664 402.055 212 400.823 212H399.839C399.343 212 398.871 211.896 398.423 211.688C397.975 211.464 397.663 211.136 397.487 210.704H397.391V214.784C397.391 215.104 397.223 215.264 396.887 215.264ZM399.047 209.36H400.103C400.615 209.36 400.975 209.256 401.183 209.048C401.407 208.824 401.519 208.456 401.519 207.944V203.816C401.519 203.304 401.407 202.944 401.183 202.736C400.975 202.512 400.615 202.4 400.103 202.4H399.047C397.943 202.4 397.391 203.008 397.391 204.224V207.536C397.391 208.752 397.943 209.36 399.047 209.36ZM411.416 199.76H413.336C413.528 199.76 413.656 199.8 413.72 199.88C413.8 199.944 413.84 200.064 413.84 200.24V201.896C413.84 202.232 413.672 202.4 413.336 202.4H411.416C411.24 202.4 411.152 202.488 411.152 202.664V211.496C411.152 211.832 410.976 212 410.624 212H408.608C408.272 212 408.104 211.832 408.104 211.496V202.664C408.104 202.488 408.008 202.4 407.816 202.4H406.712C406.376 202.4 406.208 202.232 406.208 201.896V200.24C406.208 200.048 406.24 199.92 406.304 199.856C406.384 199.792 406.52 199.76 406.712 199.76H407.816C408.008 199.76 408.104 199.672 408.104 199.496V199.04C408.104 197.776 408.432 196.808 409.088 196.136C409.76 195.464 410.728 195.128 411.992 195.128H413.36C413.552 195.128 413.68 195.168 413.744 195.248C413.808 195.312 413.84 195.432 413.84 195.608V197.264C413.84 197.6 413.68 197.768 413.36 197.768H412.472C411.96 197.768 411.608 197.88 411.416 198.104C411.24 198.312 411.152 198.672 411.152 199.184V199.496C411.152 199.672 411.24 199.76 411.416 199.76ZM418.005 212H415.965C415.629 212 415.461 211.832 415.461 211.496V200.264C415.461 199.928 415.629 199.76 415.965 199.76H418.005C418.341 199.76 418.509 199.928 418.509 200.264V201.08H418.605C418.781 200.648 419.093 200.32 419.541 200.096C419.989 199.872 420.461 199.76 420.957 199.76H421.821C422.141 199.76 422.301 199.928 422.301 200.264V201.92C422.301 202.112 422.261 202.248 422.181 202.328C422.117 202.392 421.997 202.416 421.821 202.4H420.165C419.061 202.4 418.509 203.024 418.509 204.272V211.496C418.509 211.832 418.341 212 418.005 212ZM429.684 212H427.548C426.284 212 425.308 211.664 424.62 210.992C423.932 210.32 423.588 209.352 423.588 208.088V203.672C423.588 202.408 423.932 201.44 424.62 200.768C425.308 200.096 426.284 199.76 427.548 199.76H429.684C430.932 199.76 431.9 200.104 432.588 200.792C433.292 201.464 433.644 202.424 433.644 203.672V208.088C433.644 209.336 433.292 210.304 432.588 210.992C431.9 211.664 430.932 212 429.684 212ZM428.004 209.384H429.228C429.74 209.384 430.1 209.28 430.308 209.072C430.532 208.864 430.644 208.504 430.644 207.992V203.768C430.644 203.256 430.532 202.896 430.308 202.688C430.1 202.48 429.74 202.376 429.228 202.376H428.004C427.492 202.376 427.132 202.48 426.924 202.688C426.716 202.896 426.612 203.256 426.612 203.768V207.992C426.612 208.504 426.716 208.864 426.924 209.072C427.132 209.28 427.492 209.384 428.004 209.384ZM438.583 212H436.543C436.207 212 436.039 211.832 436.039 211.496V200.264C436.039 199.928 436.207 199.76 436.543 199.76H438.583C438.919 199.76 439.087 199.928 439.087 200.264V201.056H439.183C439.535 200.192 440.319 199.76 441.535 199.76H442.303C444.815 199.76 446.071 201.064 446.071 203.672V211.496C446.071 211.832 445.895 212 445.543 212H443.527C443.191 212 443.023 211.832 443.023 211.496V203.816C443.023 203.304 442.911 202.944 442.687 202.736C442.479 202.512 442.119 202.4 441.607 202.4H440.743C439.639 202.4 439.087 203.008 439.087 204.224V211.496C439.087 211.832 438.919 212 438.583 212ZM448.865 202.4H447.905C447.713 202.4 447.577 202.368 447.497 202.304C447.433 202.24 447.401 202.112 447.401 201.92V200.264C447.401 199.928 447.569 199.76 447.905 199.76H448.865C449.041 199.76 449.129 199.672 449.129 199.496V197.216C449.129 196.88 449.305 196.712 449.657 196.712H451.673C452.009 196.712 452.177 196.88 452.177 197.216V199.496C452.177 199.672 452.273 199.76 452.465 199.76H454.337C454.673 199.76 454.841 199.928 454.841 200.264V201.92C454.841 202.096 454.801 202.224 454.721 202.304C454.657 202.368 454.529 202.4 454.337 202.4H452.465C452.273 202.4 452.177 202.488 452.177 202.664V207.968C452.177 208.464 452.289 208.824 452.513 209.048C452.737 209.256 453.105 209.36 453.617 209.36H454.577C454.913 209.36 455.081 209.528 455.081 209.864V211.52C455.081 211.696 455.041 211.824 454.961 211.904C454.897 211.968 454.769 212 454.577 212H453.113C451.849 212 450.865 211.664 450.161 210.992C449.473 210.32 449.129 209.36 449.129 208.112V202.664C449.129 202.488 449.041 202.4 448.865 202.4Z" fill="#5A5A5A"/>
</svg>
