<svg width="140" height="50" viewBox="0 0 140 50" fill="none" xmlns="http://www.w3.org/2000/svg">
<g filter="url(#filter0_i_865_4010)">
<path d="M0 25C0 11.1929 11.1929 0 25 0L115 0C128.807 0 140 11.1929 140 25C140 38.8071 128.807 50 115 50H25C11.1929 50 0 38.8071 0 25Z" fill="#F4F4F4"/>
</g>
<path d="M0.25 25C0.25 11.331 11.331 0.25 25 0.25H115C128.669 0.25 139.75 11.331 139.75 25C139.75 38.669 128.669 49.75 115 49.75H25C11.3309 49.75 0.25 38.669 0.25 25Z" stroke="url(#paint0_linear_865_4010)" stroke-width="0.5"/>
<path d="M53.1087 30H51.5827C50.8454 30 50.2761 29.804 49.8747 29.412C49.4734 29.02 49.2727 28.4553 49.2727 27.718V23.28C49.2727 22.5427 49.4734 21.978 49.8747 21.586C50.2761 21.194 50.8454 20.998 51.5827 20.998H53.1087C53.8367 20.998 54.4014 21.1987 54.8027 21.6C55.2134 21.992 55.4187 22.552 55.4187 23.28V23.938C55.4187 24.1433 55.3161 24.246 55.1107 24.246H53.9347C53.7387 24.246 53.6407 24.1433 53.6407 23.938V23.364C53.6407 23.0653 53.5754 22.8553 53.4447 22.734C53.3234 22.6033 53.1134 22.538 52.8147 22.538H51.8627C51.5734 22.538 51.3634 22.6033 51.2327 22.734C51.1114 22.8553 51.0507 23.0653 51.0507 23.364V27.634C51.0507 27.9327 51.1114 28.1473 51.2327 28.278C51.3634 28.3993 51.5734 28.46 51.8627 28.46H52.8147C53.1134 28.46 53.3234 28.3993 53.4447 28.278C53.5754 28.1473 53.6407 27.9327 53.6407 27.634V27.06C53.6407 26.8547 53.7387 26.752 53.9347 26.752H55.1107C55.3161 26.752 55.4187 26.8547 55.4187 27.06V27.718C55.4187 28.446 55.2134 29.0107 54.8027 29.412C54.4014 29.804 53.8367 30 53.1087 30ZM59.5459 28.46H60.5399C60.8386 28.46 61.0486 28.3993 61.1699 28.278C61.3006 28.1473 61.3659 27.9327 61.3659 27.634V23.364C61.3659 23.0653 61.3006 22.8553 61.1699 22.734C61.0486 22.6033 60.8386 22.538 60.5399 22.538H59.5459C59.2473 22.538 59.0373 22.6033 58.9159 22.734C58.7946 22.8553 58.7339 23.0653 58.7339 23.364V27.634C58.7339 27.9327 58.7946 28.1473 58.9159 28.278C59.0373 28.3993 59.2473 28.46 59.5459 28.46ZM60.8339 30H59.2659C58.5286 30 57.9593 29.804 57.5579 29.412C57.1566 29.02 56.9559 28.4553 56.9559 27.718V23.28C56.9559 22.5427 57.1566 21.978 57.5579 21.586C57.9593 21.194 58.5286 20.998 59.2659 20.998H60.8339C61.5713 20.998 62.1406 21.194 62.5419 21.586C62.9433 21.978 63.1439 22.5427 63.1439 23.28V27.718C63.1439 28.4553 62.9433 29.02 62.5419 29.412C62.1406 29.804 61.5713 30 60.8339 30ZM66.4265 30H65.2645C65.0685 30 64.9705 29.902 64.9705 29.706V21.292C64.9705 21.096 65.0685 20.998 65.2645 20.998H66.3145C66.5105 20.998 66.6412 21.0633 66.7065 21.194L69.5345 26.5H69.5905V21.292C69.5905 21.096 69.6885 20.998 69.8845 20.998H71.0465C71.2425 20.998 71.3405 21.096 71.3405 21.292V29.706C71.3405 29.902 71.2425 30 71.0465 30H70.0245C69.8192 30 69.6699 29.9067 69.5765 29.72L66.7765 24.512H66.7205V29.706C66.7205 29.902 66.6225 30 66.4265 30ZM76.096 30H74.92C74.7147 30 74.612 29.902 74.612 29.706V22.692C74.612 22.5893 74.5607 22.538 74.458 22.538H72.862C72.666 22.538 72.568 22.44 72.568 22.244V21.292C72.568 21.096 72.666 20.998 72.862 20.998H78.154C78.35 20.998 78.448 21.096 78.448 21.292V22.244C78.448 22.44 78.35 22.538 78.154 22.538H76.558C76.446 22.538 76.39 22.5893 76.39 22.692V29.706C76.39 29.902 76.292 30 76.096 30ZM80.605 30H79.261C79.093 30 79.037 29.902 79.093 29.706L81.305 21.292C81.3704 21.096 81.5104 20.998 81.725 20.998H83.587C83.8204 20.998 83.9604 21.096 84.007 21.292L86.219 29.706C86.275 29.902 86.219 30 86.051 30H84.707C84.6044 30 84.5344 29.9813 84.497 29.944C84.4597 29.8973 84.4317 29.818 84.413 29.706L84.021 28.166H81.291L80.899 29.706C80.8804 29.818 80.8477 29.8973 80.801 29.944C80.7637 29.9813 80.6984 30 80.605 30ZM82.635 22.692L81.627 26.738H83.699L82.691 22.692H82.635ZM91.306 30H89.78C89.0427 30 88.4733 29.804 88.072 29.412C87.6707 29.02 87.47 28.4553 87.47 27.718V23.28C87.47 22.5427 87.6707 21.978 88.072 21.586C88.4733 21.194 89.0427 20.998 89.78 20.998H91.306C92.034 20.998 92.5987 21.1987 93 21.6C93.4107 21.992 93.616 22.552 93.616 23.28V23.938C93.616 24.1433 93.5133 24.246 93.308 24.246H92.132C91.936 24.246 91.838 24.1433 91.838 23.938V23.364C91.838 23.0653 91.7727 22.8553 91.642 22.734C91.5207 22.6033 91.3107 22.538 91.012 22.538H90.06C89.7707 22.538 89.5607 22.6033 89.43 22.734C89.3087 22.8553 89.248 23.0653 89.248 23.364V27.634C89.248 27.9327 89.3087 28.1473 89.43 28.278C89.5607 28.3993 89.7707 28.46 90.06 28.46H91.012C91.3107 28.46 91.5207 28.3993 91.642 28.278C91.7727 28.1473 91.838 27.9327 91.838 27.634V27.06C91.838 26.8547 91.936 26.752 92.132 26.752H93.308C93.5133 26.752 93.616 26.8547 93.616 27.06V27.718C93.616 28.446 93.4107 29.0107 93 29.412C92.5987 29.804 92.034 30 91.306 30ZM98.0792 30H96.9032C96.6979 30 96.5952 29.902 96.5952 29.706V22.692C96.5952 22.5893 96.5439 22.538 96.4412 22.538H94.8452C94.6492 22.538 94.5512 22.44 94.5512 22.244V21.292C94.5512 21.096 94.6492 20.998 94.8452 20.998H100.137C100.333 20.998 100.431 21.096 100.431 21.292V22.244C100.431 22.44 100.333 22.538 100.137 22.538H98.5412C98.4292 22.538 98.3732 22.5893 98.3732 22.692V29.706C98.3732 29.902 98.2752 30 98.0792 30ZM109.482 20.998H110.658C110.864 20.998 110.966 21.0913 110.966 21.278V27.718C110.966 28.446 110.761 29.0107 110.35 29.412C109.949 29.804 109.384 30 108.656 30H107.116C106.379 30 105.81 29.804 105.408 29.412C105.007 29.02 104.806 28.4553 104.806 27.718V21.292C104.806 21.096 104.904 20.998 105.1 20.998H106.29C106.486 20.998 106.584 21.096 106.584 21.292V27.634C106.584 27.9327 106.645 28.1473 106.766 28.278C106.897 28.3993 107.107 28.46 107.396 28.46H108.362C108.661 28.46 108.871 28.3993 108.992 28.278C109.123 28.1473 109.188 27.9327 109.188 27.634V21.292C109.188 21.096 109.286 20.998 109.482 20.998ZM112.636 27.704V27.424C112.636 27.228 112.734 27.13 112.93 27.13H114.12C114.316 27.13 114.414 27.228 114.414 27.424V27.536C114.414 27.8907 114.484 28.1333 114.624 28.264C114.764 28.3947 115.021 28.46 115.394 28.46H116.052C116.416 28.46 116.668 28.39 116.808 28.25C116.958 28.11 117.032 27.8487 117.032 27.466V27.298C117.032 27.0273 116.92 26.822 116.696 26.682C116.482 26.5327 116.211 26.444 115.884 26.416C115.558 26.388 115.203 26.3367 114.82 26.262C114.447 26.178 114.097 26.0753 113.77 25.954C113.444 25.8233 113.168 25.576 112.944 25.212C112.73 24.8387 112.622 24.3627 112.622 23.784V23.294C112.622 22.566 112.828 22.0013 113.238 21.6C113.649 21.1987 114.218 20.998 114.946 20.998H116.346C117.084 20.998 117.658 21.1987 118.068 21.6C118.479 22.0013 118.684 22.566 118.684 23.294V23.56C118.684 23.756 118.586 23.854 118.39 23.854H117.2C117.004 23.854 116.906 23.756 116.906 23.56V23.476C116.906 23.112 116.836 22.8647 116.696 22.734C116.556 22.6033 116.3 22.538 115.926 22.538H115.38C114.998 22.538 114.736 22.6127 114.596 22.762C114.466 22.902 114.4 23.182 114.4 23.602V23.868C114.4 24.3067 114.783 24.5587 115.548 24.624C116.342 24.6893 117.046 24.848 117.662 25.1C117.989 25.24 118.26 25.492 118.474 25.856C118.698 26.2107 118.81 26.668 118.81 27.228V27.704C118.81 28.432 118.605 28.9967 118.194 29.398C117.784 29.7993 117.214 30 116.486 30H114.96C114.232 30 113.663 29.7993 113.252 29.398C112.842 28.9967 112.636 28.432 112.636 27.704Z" fill="black"/>
<path d="M32 32C32 28.13 35.13 25 39 25C40.08 25 41.09 25.25 42 25.68V19C42 17.9 41.1 17 40 17H24C22.9 17 22 17.9 22 19V31C22 32.1 22.9 33 24 33H32.08C32.03 32.67 32 32.34 32 32ZM24 19L32 24L40 19V21L32 26L24 21V19ZM37.34 35L33.8 31.46L35.21 30.05L37.33 32.17L41.57 27.93L43 29.34L37.34 35Z" fill="#323232"/>
<defs>
<filter id="filter0_i_865_4010" x="0" y="0" width="140" height="54" filterUnits="userSpaceOnUse" color-interpolation-filters="sRGB">
<feFlood flood-opacity="0" result="BackgroundImageFix"/>
<feBlend mode="normal" in="SourceGraphic" in2="BackgroundImageFix" result="shape"/>
<feColorMatrix in="SourceAlpha" type="matrix" values="0 0 0 0 0 0 0 0 0 0 0 0 0 0 0 0 0 0 127 0" result="hardAlpha"/>
<feOffset dy="4"/>
<feGaussianBlur stdDeviation="2"/>
<feComposite in2="hardAlpha" operator="arithmetic" k2="-1" k3="1"/>
<feColorMatrix type="matrix" values="0 0 0 0 0 0 0 0 0 0 0 0 0 0 0 0 0 0 0.25 0"/>
<feBlend mode="normal" in2="shape" result="effect1_innerShadow_865_4010"/>
</filter>
<linearGradient id="paint0_linear_865_4010" x1="42.6563" y1="37.8906" x2="61.3397" y2="-15.7817" gradientUnits="userSpaceOnUse">
<stop stop-color="#515151"/>
<stop offset="1" stop-color="#919191"/>
</linearGradient>
</defs>
</svg>
