<svg width="34" height="39" viewBox="0 0 34 39" fill="none" xmlns="http://www.w3.org/2000/svg">
<path d="M33.7012 21.332L26.9375 17.4258L20.1738 21.332L20.0508 21.4023L26.9961 25.457L33.832 21.4082L33.7012 21.332Z" fill="#EFEFEF"/>
<path d="M20.0469 21.4023V29.2949L26.8086 33.2012L26.9375 33.2754L26.9922 25.4492L20.0469 21.4023Z" fill="#36363C"/>
<path d="M33.8281 21.4082L26.9922 25.457L26.9375 33.2832L27.0684 33.209L33.832 29.3027V21.4082H33.8281Z" fill="#5E5E63"/>
<path d="M33.832 21.4102V21.5605L27.1211 25.5332L27.0684 33.209L26.9375 33.2832L26.8086 33.209L26.8633 25.5332L20.0488 21.5547V21.4023L20.0508 21.4004L20.1738 21.3301L26.9922 25.3066L33.7012 21.332L33.8281 21.4062V21.4082L33.832 21.4102Z" fill="black"/>
<path d="M23.8848 4.27344L23.7637 4.20313L17 0.289062L10.2344 4.19531L10.1113 4.26367L17.0352 8.31836L23.8906 4.26758L23.8848 4.27344Z" fill="#EFEFEF"/>
<path d="M10.1094 4.27148V12.1641L16.873 16.0703L17.002 16.1465L17.0352 8.32031L10.1094 4.27148Z" fill="#28282D"/>
<path d="M23.8887 4.27539L17.0332 8.32617L17 16.1562L17.1289 16.0801L23.8906 12.1738V4.27539H23.8887Z" fill="#5E5E63"/>
<path d="M23.8906 4.28125V4.42969L17.1816 8.40039L17.1289 16.0762L17 16.1504L16.8711 16.0762L16.9219 8.40039L10.1074 4.42383V4.27539L10.1094 4.27148L10.1113 4.26953L10.2344 4.19922L17.0508 8.17773L23.7637 4.20313L23.8848 4.27344L23.8887 4.27539L23.8906 4.28125Z" fill="black"/>
<path d="M13.8223 21.332L7.05859 17.4258L0.298828 21.332L0.167969 21.4063V29.2988L6.92969 33.2051L7.05664 33.2773L7.18359 33.2031L13.9434 29.2969V21.4082L13.8223 21.332Z" fill="#EFEFEF"/>
<path d="M0.167969 21.4023V29.2949L6.92969 33.2012L7.05664 33.2734L7.10937 25.4473L0.167969 21.4023Z" fill="#D7D7D8"/>
<path d="M7.11133 25.457L7.05859 33.2832L13.9492 29.2949V21.4082L7.11133 25.457Z" fill="#86868A"/>
<path d="M13.9492 21.4082V21.5586L7.24023 25.5313L7.18945 33.209L7.0625 33.2832H7.05859L7.05664 33.2812L6.92969 33.209L6.98242 25.5313L0.167969 21.5527V21.4023L0.298828 21.3281L7.11133 25.3066L13.8223 21.332L13.9492 21.4082Z" fill="black"/>
<path d="M33.8262 9.98242L33.7051 9.91406L26.9375 6.00781L20.1777 9.91406L20.0469 9.98828L26.9922 14.041L33.8281 9.99219L33.8262 9.98242Z" fill="#EFEFEF"/>
<path d="M20.0469 9.98242V17.873L26.8086 21.7793L26.9375 21.8555L26.9922 14.0293L20.0469 9.98242Z" fill="#36363C"/>
<path d="M33.8281 9.98633L26.9922 14.0352L26.9375 21.8613L27.0684 21.7852L33.832 17.8789V9.98633H33.8281Z" fill="#5E5E63"/>
<path d="M13.8223 9.90625L7.05859 6L0.298828 9.90625L0.167969 9.98047V17.8711L6.92969 21.7773L7.05859 21.8535L7.18945 21.7773L13.9492 17.8711V9.98633L13.8223 9.90625Z" fill="#EFEFEF"/>
<path d="M0.167969 9.98242V17.873L6.92969 21.7793L7.0586 21.8555L7.11133 14.0293L0.167969 9.98242Z" fill="#D7D7D8"/>
<path d="M7.11133 14.0352L7.05859 21.8613L7.18945 21.7852L13.9492 17.8789V9.98633L7.11133 14.0352Z" fill="#86868A"/>
<path d="M13.9492 9.98633V10.1367L7.24023 14.1113L7.18945 21.7852L7.05859 21.8613L6.92969 21.7852L6.98242 14.1113L0.167969 10.1328V9.98437L0.298828 9.9082L7.11133 13.8867L13.8223 9.91016L13.9492 9.98633Z" fill="black"/>
<path d="M23.8848 27.1152L23.7637 27.0449L17 23.1387L10.2363 27.0449L10.1094 27.1191L17.0332 31.1719L23.8887 27.1211L23.8848 27.1152Z" fill="#EFEFEF"/>
<path d="M10.1094 27.1152V35.0059L16.873 38.9121L17.002 38.9863L17.0352 31.1621L10.1094 27.1152Z" fill="#AFAFB1"/>
<path d="M23.8887 27.1172L17.0332 31.168L17 38.9922L17.1289 38.918L23.8906 35.0117V27.1172H23.8887Z" fill="#86868A"/>
<path d="M23.8887 15.6953L23.7617 15.623L17 11.7168L10.2363 15.623L10.1094 15.6992V23.5781L16.873 27.4844L17.002 27.5586L17.1309 27.4844L23.8926 23.5781V15.6875L23.8887 15.6953Z" fill="#EFEFEF"/>
<path d="M10.1094 15.6934V23.5781L16.873 27.4844L17.002 27.5586L17.0547 19.7344L10.1094 15.6934Z" fill="#AFAFB1"/>
<path d="M23.8887 15.6953L17.0527 19.7461L17 27.5703L17.1289 27.4961L23.8906 23.5898V15.6992L23.8887 15.6953Z" fill="#86868A"/>
<path d="M23.8906 15.6992V15.8477L17.1816 19.8203L17.1289 27.4961L17 27.5703L16.8711 27.4961L16.9219 19.8203L10.1074 15.8437V15.6953L10.1094 15.6934L10.2363 15.6172L17.0508 19.5957L23.7617 15.6211L23.8887 15.6934V15.6953L23.8906 15.6992Z" fill="black"/>
<path d="M33.832 9.99219V10.1387L27.1211 14.1133L27.0684 21.7852L26.9375 21.8613L26.8086 21.7852L26.8633 14.1113L20.0488 10.1367V9.98437L20.1777 9.9082L26.9922 13.8887L33.7051 9.91406L33.8262 9.98437L33.8281 9.98633L33.832 9.99219Z" fill="black"/>
<path d="M23.8906 27.123V27.2715L17.1816 31.2422L17.1289 38.918L17 38.9922L16.8711 38.918L16.9219 31.2422L10.1074 27.2676V27.1172L10.1094 27.1152V27.1133L10.2363 27.0391L17.0508 31.0195L23.7637 27.0449L23.8848 27.1152L23.8887 27.1172L23.8906 27.123Z" fill="black"/>
</svg>
