<svg width="100" height="100" viewBox="0 0 100 100" fill="none" xmlns="http://www.w3.org/2000/svg">
<path d="M66.7012 40.332L59.9375 36.4258L53.1738 40.332L53.0508 40.4023L59.9961 44.457L66.832 40.4082L66.7012 40.332Z" fill="#EFEFEF"/>
<path d="M53.0469 40.4023V48.2949L59.8086 52.2012L59.9375 52.2754L59.9922 44.4492L53.0469 40.4023Z" fill="#36363C"/>
<path d="M66.8281 40.4082L59.9922 44.457L59.9375 52.2832L60.0684 52.209L66.832 48.3027V40.4082H66.8281Z" fill="#5E5E63"/>
<path d="M66.832 40.4102V40.5605L60.1211 44.5332L60.0684 52.209L59.9375 52.2832L59.8086 52.209L59.8633 44.5332L53.0488 40.5547V40.4023L53.0508 40.4004L53.1738 40.3301L59.9922 44.3066L66.7012 40.332L66.8281 40.4062V40.4082L66.832 40.4102Z" fill="black"/>
<path d="M56.8848 23.2734L56.7637 23.2031L50 19.2891L43.2344 23.1953L43.1113 23.2637L50.0352 27.3184L56.8906 23.2676L56.8848 23.2734Z" fill="#EFEFEF"/>
<path d="M43.1094 23.2715V31.1641L49.873 35.0703L50.002 35.1465L50.0352 27.3203L43.1094 23.2715Z" fill="#28282D"/>
<path d="M56.8887 23.2754L50.0332 27.3262L50 35.1563L50.1289 35.0801L56.8906 31.1738V23.2754H56.8887Z" fill="#5E5E63"/>
<path d="M56.8906 23.2812V23.4297L50.1816 27.4004L50.1289 35.0762L50 35.1504L49.8711 35.0762L49.9219 27.4004L43.1074 23.4238V23.2754L43.1094 23.2715L43.1113 23.2695L43.2344 23.1992L50.0508 27.1777L56.7637 23.2031L56.8848 23.2734L56.8887 23.2754L56.8906 23.2812Z" fill="black"/>
<path d="M46.8223 40.332L40.0586 36.4258L33.2988 40.332L33.168 40.4063V48.2988L39.9297 52.2051L40.0566 52.2773L40.1836 52.2031L46.9434 48.2969V40.4082L46.8223 40.332Z" fill="#EFEFEF"/>
<path d="M33.168 40.4023V48.2949L39.9297 52.2012L40.0566 52.2734L40.1094 44.4473L33.168 40.4023Z" fill="#D7D7D8"/>
<path d="M40.1113 44.457L40.0586 52.2832L46.9492 48.2949V40.4082L40.1113 44.457Z" fill="#86868A"/>
<path d="M46.9492 40.4082V40.5586L40.2402 44.5313L40.1895 52.209L40.0625 52.2832H40.0586L40.0566 52.2812L39.9297 52.209L39.9824 44.5313L33.168 40.5527V40.4023L33.2988 40.3281L40.1113 44.3066L46.8223 40.332L46.9492 40.4082Z" fill="black"/>
<path d="M66.8262 28.9824L66.7051 28.9141L59.9375 25.0078L53.1777 28.9141L53.0469 28.9883L59.9922 33.041L66.8281 28.9922L66.8262 28.9824Z" fill="#EFEFEF"/>
<path d="M53.0469 28.9824V36.873L59.8086 40.7793L59.9375 40.8555L59.9922 33.0293L53.0469 28.9824Z" fill="#36363C"/>
<path d="M66.8281 28.9863L59.9922 33.0352L59.9375 40.8613L60.0684 40.7852L66.832 36.8789V28.9863H66.8281Z" fill="#5E5E63"/>
<path d="M46.8223 28.9062L40.0586 25L33.2988 28.9062L33.168 28.9805V36.8711L39.9297 40.7773L40.0586 40.8535L40.1895 40.7773L46.9492 36.8711V28.9863L46.8223 28.9062Z" fill="#EFEFEF"/>
<path d="M33.168 28.9824V36.873L39.9297 40.7793L40.0586 40.8555L40.1113 33.0293L33.168 28.9824Z" fill="#D7D7D8"/>
<path d="M40.1113 33.0352L40.0586 40.8613L40.1895 40.7852L46.9492 36.8789V28.9863L40.1113 33.0352Z" fill="#86868A"/>
<path d="M46.9492 28.9863V29.1367L40.2402 33.1113L40.1895 40.7852L40.0586 40.8613L39.9297 40.7852L39.9824 33.1113L33.168 29.1328V28.9844L33.2988 28.9082L40.1113 32.8867L46.8223 28.9102L46.9492 28.9863Z" fill="black"/>
<path d="M56.8848 46.1152L56.7637 46.0449L50 42.1387L43.2363 46.0449L43.1094 46.1191L50.0332 50.1719L56.8887 46.1211L56.8848 46.1152Z" fill="#EFEFEF"/>
<path d="M43.1094 46.1152V54.0059L49.873 57.9121L50.002 57.9863L50.0352 50.1621L43.1094 46.1152Z" fill="#AFAFB1"/>
<path d="M56.8887 46.1172L50.0332 50.168L50 57.9922L50.1289 57.918L56.8906 54.0117V46.1172H56.8887Z" fill="#86868A"/>
<path d="M56.8887 34.6953L56.7617 34.623L50 30.7168L43.2363 34.623L43.1094 34.6992V42.5781L49.873 46.4844L50.002 46.5586L50.1309 46.4844L56.8926 42.5781V34.6875L56.8887 34.6953Z" fill="#EFEFEF"/>
<path d="M43.1094 34.6934V42.5781L49.873 46.4844L50.002 46.5586L50.0547 38.7344L43.1094 34.6934Z" fill="#AFAFB1"/>
<path d="M56.8887 34.6953L50.0527 38.7461L50 46.5703L50.1289 46.4961L56.8906 42.5898V34.6992L56.8887 34.6953Z" fill="#86868A"/>
<path d="M56.8906 34.6992V34.8477L50.1816 38.8203L50.1289 46.4961L50 46.5703L49.8711 46.4961L49.9219 38.8203L43.1074 34.8437V34.6953L43.1094 34.6934L43.2363 34.6172L50.0508 38.5957L56.7617 34.6211L56.8887 34.6934V34.6953L56.8906 34.6992Z" fill="black"/>
<path d="M66.832 28.9922V29.1387L60.1211 33.1133L60.0684 40.7852L59.9375 40.8613L59.8086 40.7852L59.8633 33.1113L53.0488 29.1367V28.9844L53.1777 28.9082L59.9922 32.8887L66.7051 28.9141L66.8262 28.9844L66.8281 28.9863L66.832 28.9922Z" fill="black"/>
<path d="M56.8906 46.123V46.2715L50.1816 50.2422L50.1289 57.918L50 57.9922L49.8711 57.918L49.9219 50.2422L43.1074 46.2676V46.1172L43.1094 46.1152V46.1133L43.2363 46.0391L50.0508 50.0195L56.7637 46.0449L56.8848 46.1152L56.8887 46.1172L56.8906 46.123Z" fill="black"/>
<path d="M13.709 79.1602H13.3711C13.293 79.1602 13.2539 79.1152 13.2539 79.0215V71.7949C13.2539 71.7012 13.293 71.6562 13.3711 71.6562H13.709C13.7949 71.6562 13.8379 71.7012 13.8379 71.7949V74.9785C13.8379 75.0488 13.877 75.084 13.9551 75.084H17.2188C17.2969 75.084 17.3359 75.0488 17.3359 74.9785V71.7949C17.3359 71.7012 17.375 71.6562 17.4531 71.6562H17.791C17.875 71.6562 17.918 71.7012 17.918 71.7949V79.0215C17.918 79.1152 17.875 79.1602 17.791 79.1602H17.4531C17.375 79.1602 17.3359 79.1152 17.3359 79.0215V75.7207C17.3359 75.6504 17.2969 75.6152 17.2188 75.6152H13.9551C13.877 75.6152 13.8379 75.6504 13.8379 75.7207V79.0215C13.8379 79.1152 13.7949 79.1602 13.709 79.1602Z" fill="white"/>
<path d="M26.2188 79.1602H24.7852C24.5664 79.1721 24.3474 79.139 24.1418 79.0631C23.9363 78.9872 23.7484 78.87 23.5899 78.7188C23.4396 78.5561 23.3235 78.3649 23.2484 78.1566C23.1732 77.9483 23.1406 77.727 23.1524 77.5059V73.3184C23.1404 73.0972 23.1729 72.8759 23.2481 72.6675C23.3232 72.4592 23.4395 72.2681 23.5899 72.1055C23.7484 71.9542 23.9363 71.837 24.1418 71.7611C24.3474 71.6852 24.5664 71.6522 24.7852 71.6641H26.2188C26.4376 71.6519 26.6566 71.6849 26.8622 71.7608C27.0678 71.8367 27.2556 71.954 27.4141 72.1055C27.5649 72.2678 27.6813 72.4589 27.7565 72.6673C27.8317 72.8757 27.864 73.0972 27.8516 73.3184V77.5059C27.8638 77.7271 27.8313 77.9484 27.7562 78.1568C27.681 78.3652 27.5647 78.5563 27.4141 78.7188C27.2556 78.8702 27.0678 78.9875 26.8622 79.0635C26.6566 79.1394 26.4376 79.1723 26.2188 79.1602V79.1602ZM24.832 78.6367H26.1719C26.3222 78.6467 26.4729 78.6252 26.6144 78.5738C26.756 78.5223 26.8853 78.442 26.9942 78.3379C27.198 78.1013 27.3004 77.794 27.2793 77.4824V73.3418C27.3001 73.0297 27.1977 72.7219 26.9942 72.4844C26.8849 72.3809 26.7555 72.3011 26.614 72.2501C26.4725 72.199 26.322 72.1777 26.1719 72.1875H24.8418C24.6921 72.1773 24.5418 72.199 24.4011 72.2512C24.2604 72.3034 24.1323 72.3849 24.0254 72.4902C23.8272 72.7281 23.7273 73.0327 23.7461 73.3418V77.4824C23.727 77.791 23.827 78.095 24.0254 78.332C24.1308 78.4368 24.2572 78.5181 24.3962 78.5706C24.5352 78.6231 24.6837 78.6456 24.832 78.6367V78.6367Z" fill="white"/>
<path d="M38.4766 71.6641H39.1055C39.1836 71.6641 39.2227 71.709 39.2227 71.8028V79.0293C39.2227 79.1231 39.1836 79.168 39.1055 79.168H38.7676C38.6816 79.168 38.6387 79.1231 38.6387 79.0293V72.5606H38.5918L36.5234 77.4004C36.5103 77.4369 36.4865 77.4687 36.4552 77.4917C36.4239 77.5146 36.3865 77.5277 36.3477 77.5293H35.957C35.9192 77.5295 35.8823 77.5168 35.8526 77.4934C35.8228 77.47 35.8018 77.4372 35.793 77.4004L33.6953 72.5488H33.6484V79.0215C33.6484 79.1152 33.6094 79.1602 33.5312 79.1602H33.2031C33.125 79.1602 33.0859 79.1152 33.0859 79.0215V71.7949C33.0859 71.7012 33.125 71.6563 33.2031 71.6563H33.832C33.8548 71.6534 33.8779 71.6587 33.8972 71.6712C33.9165 71.6837 33.9308 71.7026 33.9375 71.7246L36.1328 76.8516H36.1797L38.3711 71.7324C38.3778 71.7105 38.3921 71.6915 38.4114 71.679C38.4307 71.6665 38.4537 71.6612 38.4766 71.6641V71.6641Z" fill="white"/>
<path d="M48.2422 79.1602H44.6426C44.5645 79.1602 44.5254 79.1152 44.5254 79.0215V71.7949C44.5254 71.7012 44.5645 71.6562 44.6426 71.6562H48.2422C48.3359 71.6562 48.3828 71.6973 48.3828 71.7832V72.0703C48.3828 72.1543 48.3359 72.1973 48.2422 72.1973H45.2266C45.1484 72.1973 45.1094 72.2324 45.1094 72.3027V74.9844C45.1094 75.0547 45.1484 75.0898 45.2266 75.0898H47.9199C47.9371 75.0876 47.9546 75.0894 47.971 75.0949C47.9875 75.1005 48.0024 75.1098 48.0146 75.1221C48.0269 75.1343 48.0362 75.1493 48.0418 75.1657C48.0474 75.1821 48.0491 75.1996 48.0469 75.2168V75.4863C48.0495 75.5036 48.0481 75.5213 48.0426 75.5379C48.0372 75.5545 48.0279 75.5696 48.0156 75.582C48.0032 75.5943 47.9881 75.6036 47.9715 75.609C47.9549 75.6145 47.9372 75.6159 47.9199 75.6133H45.2266C45.1484 75.6133 45.1094 75.6484 45.1094 75.7187V78.541C45.1094 78.6113 45.1484 78.6465 45.2266 78.6465H48.2422C48.3359 78.6465 48.3828 78.6895 48.3828 78.7734V79.043C48.3867 79.1191 48.3398 79.1602 48.2422 79.1602Z" fill="white"/>
<path d="M57.3359 80.7109H57.0098C56.9619 80.7121 56.9147 80.6997 56.8735 80.6751C56.8324 80.6506 56.7991 80.6149 56.7773 80.5722L55.9141 79.1601H55.0156C54.7959 79.1718 54.5762 79.1387 54.3697 79.0628C54.1632 78.9869 53.9743 78.8699 53.8145 78.7187C53.6626 78.5569 53.5451 78.366 53.4689 78.1576C53.3927 77.9491 53.3594 77.7274 53.3711 77.5058V73.3183C53.3592 73.0967 53.3924 72.8749 53.4686 72.6665C53.5448 72.458 53.6624 72.2672 53.8145 72.1054C53.9743 71.9543 54.1632 71.8372 54.3697 71.7614C54.5762 71.6855 54.7959 71.6524 55.0156 71.664H56.4453C56.6666 71.6461 56.8891 71.6767 57.0973 71.7537C57.3055 71.8307 57.4944 71.9521 57.6508 72.1097C57.8072 72.2672 57.9274 72.457 58.0029 72.6657C58.0784 72.8745 58.1074 73.0972 58.0879 73.3183V77.5058C58.1071 77.935 57.9594 78.355 57.6758 78.6777C57.5293 78.8276 57.3538 78.9461 57.1601 79.026C56.9663 79.1059 56.7584 79.1455 56.5488 79.1425L57.4238 80.5547C57.4727 80.664 57.4453 80.7109 57.3359 80.7109ZM55.0625 78.6367H56.3926C56.5429 78.6466 56.6936 78.6252 56.8351 78.5737C56.9767 78.5223 57.106 78.442 57.2148 78.3379C57.4187 78.1013 57.5211 77.7939 57.5 77.4824V73.3418C57.5208 73.0297 57.4184 72.7218 57.2148 72.4843C57.1056 72.3809 56.9762 72.3011 56.8347 72.25C56.6932 72.1989 56.5427 72.1776 56.3926 72.1875H55.0625C54.9132 72.1773 54.7635 72.1984 54.6229 72.2495C54.4823 72.3007 54.3539 72.3806 54.2461 72.4843C54.0461 72.7235 53.946 73.0307 53.9668 73.3418V77.4824C53.9457 77.7929 54.0458 78.0996 54.2461 78.3379C54.3536 78.4422 54.4818 78.5228 54.6225 78.5742C54.7631 78.6257 54.9131 78.647 55.0625 78.6367V78.6367Z" fill="white"/>
<path d="M67.4023 71.6641H67.7285C67.7459 71.6615 67.7636 71.663 67.7803 71.6684C67.7969 71.6739 67.8121 71.6831 67.8246 71.6954C67.8371 71.7077 67.8466 71.7228 67.8523 71.7394C67.858 71.7559 67.8597 71.7736 67.8574 71.791V77.5059C67.8692 77.727 67.8365 77.9483 67.7614 78.1566C67.6862 78.3649 67.5701 78.5561 67.4199 78.7188C67.2612 78.8698 67.0733 78.9869 66.8678 79.0628C66.6623 79.1387 66.4434 79.1718 66.2246 79.1602H64.918C64.6991 79.1723 64.4801 79.1394 64.2745 79.0635C64.0689 78.9875 63.8811 78.8702 63.7227 78.7188C63.5724 78.5561 63.4563 78.3649 63.3812 78.1566C63.306 77.9483 63.2734 77.727 63.2851 77.5059V71.8027C63.2851 71.709 63.3242 71.6641 63.4023 71.6641H63.7402C63.8262 71.6641 63.8691 71.709 63.8691 71.8027V77.4824C63.85 77.7909 63.95 78.095 64.1484 78.332C64.2549 78.4381 64.3829 78.5201 64.5237 78.5726C64.6645 78.6252 64.8149 78.647 64.9648 78.6367H66.166C66.3163 78.6467 66.467 78.6252 66.6086 78.5738C66.7501 78.5223 66.8794 78.442 66.9883 78.3379C67.1921 78.1013 67.2946 77.794 67.2734 77.4824V71.8027C67.2734 71.709 67.3164 71.6641 67.4023 71.6641Z" fill="white"/>
<path d="M73.1348 79.0214V71.7949C73.1348 71.7011 73.1738 71.6562 73.2519 71.6562H75.9766C76.1953 71.6444 76.4142 71.6764 76.6204 71.7501C76.8266 71.8239 77.0161 71.938 77.1777 72.0859C77.3294 72.2431 77.447 72.4298 77.5233 72.6344C77.5996 72.8391 77.6329 73.0573 77.6211 73.2753V73.9863C77.6211 74.6946 77.2865 75.1503 76.6172 75.3535C76.7636 75.3627 76.9066 75.4022 77.037 75.4694C77.1674 75.5367 77.2825 75.6302 77.375 75.7441C77.6034 76.0167 77.7206 76.3654 77.7031 76.7207V77.539C77.7152 77.7571 77.6821 77.9754 77.6058 78.1801C77.5295 78.3848 77.4117 78.5715 77.2598 78.7285C77.0984 78.8767 76.909 78.9913 76.7027 79.0654C76.4964 79.1395 76.2775 79.1717 76.0586 79.1601H73.2519C73.1738 79.1601 73.1348 79.1152 73.1348 79.0214ZM73.8281 75.1035H75.8789C76.0323 75.1135 76.1861 75.0928 76.3314 75.0424C76.4766 74.9921 76.6103 74.9133 76.7246 74.8105C76.8284 74.7003 76.9084 74.5699 76.9595 74.4274C77.0106 74.2849 77.0317 74.1334 77.0215 73.9824V73.2949C77.0215 72.5488 76.6523 72.1757 75.9141 72.1757H73.8281C73.75 72.1757 73.7109 72.2109 73.7109 72.2812V74.9999C73.7161 75.069 73.7552 75.1035 73.8281 75.1035ZM73.8281 78.6484H75.9961C76.7344 78.6484 77.1035 78.2753 77.1035 77.5292V76.7246C77.1035 75.985 76.6992 75.6152 75.8906 75.6152H73.8281C73.75 75.6152 73.7109 75.6464 73.7109 75.7089V78.5429C73.7161 78.6132 73.7552 78.6484 73.8281 78.6484V78.6484Z" fill="white"/>
<path d="M86.6055 79.1602H83.0078C82.9297 79.1602 82.8906 79.1152 82.8906 79.0215V71.7949C82.8906 71.7012 82.9297 71.6562 83.0078 71.6562H86.6113C86.7051 71.6562 86.752 71.6973 86.752 71.7832V72.0703C86.752 72.1543 86.7051 72.1973 86.6113 72.1973H83.5938C83.5156 72.1973 83.4766 72.2324 83.4766 72.3027V74.9844C83.4766 75.0547 83.5156 75.0898 83.5938 75.0898H86.2871C86.3045 75.0873 86.3222 75.0888 86.3388 75.0942C86.3555 75.0996 86.3707 75.1089 86.3832 75.1212C86.3957 75.1335 86.4052 75.1485 86.4109 75.1651C86.4166 75.1817 86.4183 75.1994 86.416 75.2168V75.4863C86.4183 75.5037 86.4166 75.5214 86.4109 75.538C86.4052 75.5546 86.3957 75.5696 86.3832 75.5819C86.3707 75.5942 86.3555 75.6035 86.3388 75.6089C86.3222 75.6144 86.3045 75.6159 86.2871 75.6133H83.5938C83.5156 75.6133 83.4766 75.6484 83.4766 75.7187V78.541C83.4766 78.6113 83.5156 78.6465 83.5938 78.6465H86.6133C86.707 78.6465 86.7539 78.6895 86.7539 78.7734V79.043C86.7461 79.1191 86.6992 79.1602 86.6055 79.1602Z" fill="white"/>
</svg>
